<?xml version="1.0" encoding="UTF-8"?>
<svg id="Layer_2" data-name="Layer 2" xmlns="http://www.w3.org/2000/svg" viewBox="0 0 301.2 163.57">
  <defs>
    <style>
      .cls-1 {
        fill: #aecbc6;
        stroke-width: 0px;
      }
    </style>
  </defs>
  <g id="Love_Woll" data-name="Love Woll">
    <g id="Sk1es">
      <path class="cls-1" d="m233.93,25.94C188.1,20.27,154.22,5.64,108.33.72c-23.52-2.52-46.82,2.08-69.68,6.65-8.72,1.75-17.76,3.63-24.72,8.97C-.66,27.52-1.18,49.29.88,68.04c2.27,20.63,7.12,42.93,22.94,56.99,8.84,7.85,20.13,12.18,31.24,15.88,50.99,17,104.7,24.58,157.52,22.25,9.21-.41,18.5-1.13,27.17-3.94,16.28-5.27,29.03-17.37,41.23-29.14,7.78-7.5,15.84-15.46,18.89-25.93,3.92-13.45-1.39-28.64-10.34-40.09-8.95-11.44-21.14-19.86-33.11-28.07"/>
    </g>
  </g>
</svg>