<?xml version="1.0" encoding="UTF-8"?>
<svg id="Layer_2" data-name="Layer 2" xmlns="http://www.w3.org/2000/svg" viewBox="0 0 912.72 602.85">
  <defs>
    <style>
      .cls-1 {
        fill: #c3a9cc;
        stroke-width: 0px;
      }
    </style>
  </defs>
  <g id="BG">
    <path class="cls-1" d="m153.53,410.35c136.2,49.09,228.1,117.14,365.09,164,70.2,24.02,145.72,26.2,219.89,28.16,28.29.75,57.66,1.29,83.56-10.12,54.23-23.9,74.12-89.77,83.54-148.28,10.36-64.36,14.19-135.58-22.67-189.35-20.58-30.03-51.66-51.03-82.72-70.02C657.7,97.61,498.89,37.22,334.49,7.63c-28.68-5.16-57.85-9.41-86.88-6.88-54.51,4.73-103.89,32.7-151.29,60.03-30.22,17.42-61.7,36.03-79.9,65.79-23.36,38.2-19.78,88.13-1.87,129.17,17.91,41.03,48.33,75.11,78.24,108.43"/>
  </g>
</svg>