<?xml version="1.0" encoding="UTF-8"?>
<svg id="Layer_2" data-name="Layer 2" xmlns="http://www.w3.org/2000/svg" viewBox="0 0 209.19 147.18">
  <defs>
    <style>
      .cls-1 {
        fill: #c0739b;
        stroke-width: 0px;
      }
    </style>
  </defs>
  <g id="BG">
    <path class="cls-1" d="m177.75,54.31c-30.71-13.51-50.74-30.68-81.68-43.69C80.21,3.95,62.69,2.23,45.47.58c-6.57-.63-13.39-1.23-19.64.98C12.74,6.19,6.8,21.05,3.45,34.38c-3.69,14.66-5.99,31.01,1.51,44,4.19,7.25,11.01,12.59,17.85,17.47,31.43,22.38,67.17,38.86,104.83,48.34,6.57,1.65,13.27,3.1,20.08,2.99,12.78-.21,24.82-5.86,36.39-11.39,7.38-3.53,15.07-7.31,19.9-13.87,6.19-8.42,6.35-19.99,3-29.73-3.35-9.74-9.75-18.09-16.05-26.25"/>
  </g>
</svg>