<?xml version="1.0" encoding="UTF-8"?>
<svg id="Layer_2" data-name="Layer 2" xmlns="http://www.w3.org/2000/svg" viewBox="0 0 201.83 46.93">
  <defs>
    <style>
      .cls-1 {
        fill: #c64777;
        stroke-width: 0px;
      }
    </style>
  </defs>
  <g id="Clouds_2" data-name="Clouds 2">
    <path class="cls-1" d="m84.65,21.87c-9.52-8.85-23.06-12.63-36.04-11.91s-25.45,5.61-36.65,12.21c-4.06,2.39-8.14,5.18-10.42,9.3-2.28,4.12-2.18,9.92,1.41,12.98,2.88,2.45,7.02,2.52,10.8,2.47,28.83-.38,57.66-.76,86.5-1.14,13.47-.18,26.99-.36,40.33-2.24,17.63-2.49,34.84-7.97,50.66-16.13,5.43-2.8,11.48-7.45,10.48-13.47-.66-4.02-4.36-6.82-8.03-8.59-21.12-10.18-45.95.03-67.09,10.15,5.55-1.05,12.69-4.35,11.39-9.85-1.01-4.29-6.48-5.48-10.89-5.6-22.79-.62-45.71,4.92-65.71,15.86"/>
  </g>
</svg>