<?xml version="1.0" encoding="UTF-8"?>
<svg id="Layer_2" data-name="Layer 2" xmlns="http://www.w3.org/2000/svg" viewBox="0 0 1397.79 388.21">
  <defs>
    <style>
      .cls-1 {
        fill: #77b2bd;
      }

      .cls-1, .cls-2 {
        stroke-width: 0px;
      }

      .cls-2 {
        fill: #fff;
      }
    </style>
  </defs>
  <g id="Clouds3">
    <path class="cls-1" d="m233.16,115.49c21.5-21.72,49.99-36.41,80.16-41.34,9.62-1.57,19.64-2.15,28.99.59,9.35,2.74,18,9.27,21.3,18.44,3.28,9.11.84,19.55-4.45,27.66-5.29,8.11-13.13,14.21-21.23,19.5,7.68-5.46,15.58-11.02,24.69-13.4s19.84-.95,26.21,6,5.83,19.89-2.43,24.44c-3.89-7.1,4.92-14.44,12.56-17.11,31.84-11.15,66.72-7.41,100.24-3.53-3.2-4.64-1.03-11.41,3.24-15.09s10.01-5.05,15.5-6.29c10.8-2.45,24.93-3.52,30.16,6.25,5.48,10.23-4.46,21.87-14.17,28.21-31.63,20.64-71.56,28.13-108.52,20.34-12.84,19.07-33.75,32.51-56.43,36.26-22.68,3.75-46.81-2.24-65.1-16.16-1.11-.85-2.43-1.77-3.78-1.42-.9.23-1.55.98-2.15,1.69-27.13,31.86-66.42,52.11-107.47,60.29-41.04,8.18-83.79,4.88-124.47-4.93-14.09-3.4-28.23-7.67-40.37-15.59-12.14-7.92-22.21-19.97-24.9-34.22-2.59-13.7,1.87-28.02,9.54-39.66,7.67-11.64,18.32-20.98,29.21-29.69,8.02-6.43,16.35-12.7,22.56-20.89,10.16-13.4,8.08-30.29,17.58-44.44,9.51-14.16,23.48-24.74,36.95-34.88,8.88-6.69,17.88-13.45,28.14-17.72,11.59-4.83,24.27-6.27,36.75-7.66,12.13-1.35,25.06-2.57,35.94,2.95,10.07,5.1,16.74,15.36,20.03,26.15,3.3,10.79,3.64,22.24,3.95,33.52.49,17.66.85,36.03-6.46,52.12"/>
  </g>
  <g id="Clouds4">
    <g>
      <path class="cls-1" d="m1336.98,246.63c-27.65,20.91-55.3,41.83-82.95,62.74-7.14,5.4-15.1,11.07-24.04,10.63-4.79-.24-9.39-2.25-14.19-2.27-7.03-.03-13.3,4.17-18.97,8.34-19.46,14.3-38.65,30.63-62.17,36.12-23.3,5.45-52.32,1.43-66.75,20.51,40.1,9.49,83.05,6.62,121.53-8.13,5.97-2.29,12.39-4.9,18.55-3.21,3.46.95,6.42,3.16,9.73,4.53,10.87,4.5,23.29-.72,33.07-7.27,9.78-6.55,19.11-14.73,30.68-16.88,7.41-1.38,15.02-.11,22.55.23,39.61,1.77,78.73-25.58,90.67-63.4,3.49-11.07,4.75-23.45.02-34.05-5.03-11.27-16.92-19.13-29.26-19.34s-24.49,7.25-29.89,18.34"/>
      <path class="cls-2" d="m875.33,275.79c5.31-6.27,13.6-9.89,21.81-9.54,8.21.35,16.15,4.68,20.91,11.38,4.64-12.09,19.97-18.79,31.99-13.97,5.64,2.26,11.35,6.71,17.1,4.73,1.95-.67,3.58-2.03,5.27-3.21,7.76-5.41,17.83-7.37,27.05-5.27-6.05,14.41-23.11,20.05-38.21,24.06-26.02,6.91-52.09,13.83-78.67,18.09-6.75,1.08-15.53.94-18.17-5.37-2.31-5.53,2.18-11.54,7-15.09,5.36-3.95,11.55-6.78,18.04-8.25"/>
    </g>
  </g>
</svg>