<?xml version="1.0" encoding="UTF-8"?>
<svg id="Layer_2" data-name="Layer 2" xmlns="http://www.w3.org/2000/svg" viewBox="0 0 1307.4 485.35">
  <defs>
    <style>
      .cls-1 {
        fill: #fff;
        stroke-width: 0px;
      }
    </style>
  </defs>
  <g id="Clouds3">
    <g>
      <path class="cls-1" d="m1293.6,37.71c-.8-26.44-33.23-43.57-58.53-35.84-25.3,7.73-41.97,32.71-48.68,58.29.86-6.68-7.2-11.68-13.83-10.46-6.62,1.22-11.73,6.35-16.38,11.22-11.77,12.34-24.42,27.22-22.1,44.12-23.41-1.79-42.8,18.37-53.53,39.25-3.57,6.94-7.26,14.78-14.51,17.66-4.92,1.96-10.43,1.15-15.71.73-39.2-3.15-79.29,18.9-97.61,53.7-4.92,9.35-13.91,21.54-22.96,16.09-2.02-1.21-3.46-3.17-5.18-4.78-7.09-6.64-18.33-6.85-27.45-3.49-9.12,3.36-16.79,9.64-24.84,15.08-31.36,21.2-69.77,30.09-107.61,31.28-37.84,1.2-75.5-4.85-112.8-11.31-7.74-1.34-17.12-2.13-22.04,4-5.03,6.26-1.53,16.27,5.06,20.87,6.59,4.6,15.05,5.25,23.06,5.76,30.53,1.93,61.06,3.87,91.59,5.8,11.09.7,22.18,1.41,33.27,2.11,6.11.39,12.31.77,18.32-.44,14.67-2.95,27.09-15.11,42.04-14.57,17.79.64,30.27,18.79,47.61,22.85,22.33,5.23,42.29-13.88,57.28-31.23,11.35,19.82,36.23,30.86,58.54,25.97,22.32-4.89,40.3-25.31,42.32-48.07,10.98,2.96,22.37,5.94,33.58,4.04,11.21-1.9,22.2-10.12,23.46-21.41,86.08-5.56,166.27-65.39,196.11-146.33,3.96-10.73,7.11-22.45,4.14-33.49-2.97-11.04-14.16-20.59-25.28-17.91"/>
      <path class="cls-1" d="m13.89,383.56c9.77-9.45,22.72-14.75,35.39-19.68,13.52-5.27,27.14-10.37,41.2-13.98,66.21-16.98,140.61,2.57,189.91,49.92,3.96-11.7,19.34-14.69,31.53-12.74,30.95,4.96,57.45,30.79,63.19,61.61,3.05-11.22,14.94-17.52,26.17-20.55,13.37-3.61,27.78-4.41,40.99-.25,13.21,4.16,25.06,13.7,30.14,26.58,4.3-6.11,8.86-12.45,15.5-15.9,6.64-3.44,15.98-2.91,20.29,3.2,4.15,5.89,1.87,14.52-3.23,19.6-5.1,5.08-12.27,7.41-19.21,9.3-18.12,4.95-36.67,8.11-55.27,10.7-22.35,3.11-45.02,5.4-67.45,2.92-22.43-2.47-44.79-10.02-61.96-24.66-25.93,20.74-62.85,18.2-95.79,14.05-7.89-.99-15.95-2.07-23.03-5.69-7.08-3.62-13.11-10.32-13.69-18.24-9.68,16.34-30.71,21.63-49.66,23.02-21.65,1.59-43.83-.02-64.16-7.62-20.33-7.6-38.72-21.61-49-40.73-4.05-7.53-6.84-16.19-5.3-24.6,1.54-8.41,8.42-16.24,16.96-16.64"/>
    </g>
  </g>
  <g id="Clouds4">
    <path class="cls-1" d="m555.41,432.35c1-1.03,2.17-1.88,3.33-2.73,2.79-2.04,5.73-4.14,9.14-4.68,3.42-.55,7.43,1,8.51,4.29,1.35,4.15-2.35,8.08-5.7,10.88-4.17,3.49-8.34,6.98-12.51,10.47-1.58,1.32-3.4,2.72-5.45,2.52-2.24-.22-3.8-2.23-5.08-4.07-1.56-2.24-3.19-4.69-3.15-7.42.05-3.45,2.86-6.37,6.07-7.64,3.21-1.27,6.77-1.23,10.22-1.17"/>
  </g>
</svg>