<?xml version="1.0" encoding="UTF-8"?>
<svg id="Layer_2" data-name="Layer 2" xmlns="http://www.w3.org/2000/svg" viewBox="0 0 1377.73 527.18">
  <defs>
    <style>
      .cls-1 {
        fill: #dfcde5;
        stroke-width: 0px;
      }
    </style>
  </defs>
  <g id="Clouds_2" data-name="Clouds 2">
    <g>
      <path class="cls-1" d="m52.35,177.3c83.3-16.14,174.67,27.88,213.96,103.08,1.63-8.09,10.79-13.79,18.77-11.68,7.98,2.11,13.12,11.6,10.54,19.44,17.21-6.25,36.63-6.17,53.79.22,2.4.89,4.93,2.07,6.1,4.34,2.32,4.51-2.34,9.68-7.14,11.34-4.8,1.67-10.32,1.78-14.26,4.99,21.28,1.31,42.56,2.62,63.84,3.94,13.26.82,26.77,1.69,39.15,6.5s23.68,14.3,27.25,27.09c32.01.32,64.75.77,94.79,11.83,30.04,11.06,57.36,34.99,63.4,66.42,12.69-2.14,25.38-4.28,38.06-6.42,9.12-1.54,20.49-2.16,25.51,5.62,6.4,9.92-4.13,22.13-14.29,28.15-26.88,15.91-58.99,22.8-90.03,19.3-2.86-.32-5.87-.71-8.53.39-2.95,1.23-4.87,4.03-6.91,6.49-12.63,15.21-33.64,19.89-53.05,23.67-22.35,4.34-50.49,6.42-62.85-12.71-.53,20.05-23.17,31.55-42.9,35.18-33.52,6.17-69.59,2.19-98.88-15.24-29.29-17.43-50.68-49.24-51.5-83.31-59.19,19.33-127.74,6.94-176.43-31.88-12.21-9.74-23.16-20.95-33.75-32.43-19-20.63-37.45-43.26-44.34-70.44-10.6-41.8,11.53-89.54,50.28-108.48"/>
      <path class="cls-1" d="m992.84,177.99c-7.91-3.27-17.35-.46-23.84,5.11s-10.51,13.46-13.66,21.42c-2.78,7.03-5.05,14.56-4.06,22.05s5.99,14.9,13.36,16.59c6.32,1.45,13.02-1.59,17.47-6.29s7.03-10.86,9.13-16.99c-.07,7.94,8.75,13.08,16.65,13.91,21.86,2.3,43.19-18.23,41.72-40.17-3.17,9.94,6.37,19.2,15.43,24.38,24.93,14.26,54.21,20.02,82.91,18.9,28.7-1.12,56.86-8.91,83.24-20.25,10.56-4.54,20.87-9.65,30.87-15.31,23.77-13.44,45.75-29.91,66.16-48.06,6.9-6.13,13.66-12.5,19.17-19.9,5.33-7.15,9.4-15.14,13.3-23.16,8.05-16.54,15.62-33.81,16.88-52.16,1.26-18.35-4.88-38.18-19.72-49.05-10.43-7.64-24.06-10.06-36.9-8.6s-25.03,6.52-36.41,12.67c-40.24,21.77-72.25,58.36-88.48,101.14-8.03-7.71-17.96-14.64-29.09-14.64s-22.62,9.88-20.52,20.81c-11.74-8.96-28.28-11.2-41.99-5.68-13.7,5.52-24.07,18.6-26.33,33.2-2.12-8.06-10.17-13.45-18.37-14.9-8.2-1.45-16.6.31-24.71,2.21-15.8,3.7-31.72,8.08-45.56,16.56-13.84,8.47-25.55,21.62-28.92,37.5"/>
    </g>
  </g>
</svg>