<?xml version="1.0" encoding="UTF-8"?>
<svg id="Layer_2" data-name="Layer 2" xmlns="http://www.w3.org/2000/svg" viewBox="0 0 573.12 650.51">
  <defs>
    <style>
      .cls-1 {
        fill: #77b2bd;
      }

      .cls-1, .cls-2 {
        stroke-width: 0px;
      }

      .cls-2 {
        fill: #fff;
      }
    </style>
  </defs>
  <g id="Clouds4">
    <g>
      <path class="cls-1" d="m500.94,508.94c-27.65,20.91-55.3,41.83-82.95,62.74-7.14,5.4-15.1,11.07-24.04,10.63-4.79-.24-9.39-2.25-14.19-2.27-7.03-.03-13.3,4.17-18.97,8.34-19.46,14.3-38.65,30.63-62.17,36.12-23.3,5.45-52.32,1.43-66.75,20.51,40.1,9.49,83.05,6.62,121.53-8.13,5.97-2.29,12.39-4.9,18.55-3.21,3.46.95,6.42,3.16,9.73,4.53,10.87,4.5,23.29-.72,33.07-7.27,9.78-6.55,19.11-14.73,30.68-16.88,7.41-1.38,15.02-.11,22.55.23,39.61,1.77,78.73-25.58,90.67-63.4,3.49-11.07,4.75-23.45.02-34.05-5.03-11.27-16.92-19.13-29.26-19.34s-24.49,7.25-29.89,18.34"/>
      <path class="cls-2" d="m39.28,538.1c5.31-6.27,13.6-9.89,21.81-9.54,8.21.35,16.15,4.68,20.91,11.38,4.64-12.09,19.97-18.79,31.99-13.97,5.64,2.26,11.35,6.71,17.1,4.73,1.95-.67,3.58-2.03,5.27-3.21,7.76-5.41,17.83-7.37,27.05-5.27-6.05,14.41-23.11,20.05-38.21,24.06-26.02,6.91-52.09,13.83-78.67,18.09-6.75,1.08-15.53.94-18.17-5.37-2.31-5.53,2.18-11.54,7-15.09,5.36-3.95,11.55-6.78,18.04-8.25"/>
    </g>
  </g>
  <g id="Clouds_2" data-name="Clouds 2">
    <g>
      <path class="cls-2" d="m319.98,249.41c-9.25-2.44-18.86-3.28-28.42-3.29-54.3-.07-107.89,27.89-138.89,72.48-6.66,9.58-13.83,20.88-25.39,22.48-4.41.61-8.86-.35-13.27-.93-26.69-3.49-54.86,8.24-71.18,29.65-7.34,9.62-13.74,21.95-25.56,24.55-5.83,1.28-13.27.49-16.31,5.63-2.1,3.55-.54,8.41,2.59,11.1,3.13,2.69,7.4,3.63,11.51,3.95,28.88,2.3,53.15-20.02,80.08-30.73,4.27-1.7,8.79-3.13,13.38-2.83,4.39.29,8.49,2.14,12.66,3.54,27.91,9.36,61.62-3.96,75.59-29.87,2.46-4.56,4.48-9.6,8.46-12.92,8.01-6.7,19.9-3.79,30.16-1.84,43.19,8.19,88.38-8.29,122.73-35.73,11.6-9.26,23.14-22.29,20.81-36.95-2.13-13.39-15.77-22.52-29.25-24.03-13.48-1.51-26.85,2.85-39.71,7.15"/>
      <path class="cls-2" d="m84.64,100.82c1.05,6.42,5.86,11.51,10.7,15.86,29.73,26.74,69.56,41.96,109.54,41.87,6.24,20.04,23.61,36.21,44.05,40.98,20.44,4.78,43.18-2.01,57.65-17.21,16.22,21.98,52.85,24.45,71.88,4.85,1.89,5.97,3.79,11.94,5.68,17.91,2.83,8.93,5.79,18.1,11.81,25.28,12.41,14.81,33.98,17.2,53.3,17.76,19.33.57,38.91.37,57.64-4.44,18.73-4.81,36.73-14.67,48.1-30.31,12.12-16.67,15.6-38,17.25-58.54,1.61-20.07,1.7-40.9-5.87-59.56-4.54-11.17-11.63-21.08-18.66-30.87-11.99-16.69-24.35-33.75-41.41-45.21C478.62.61,443.1-.47,409.76.11c-13.42.23-27.15.68-39.68,5.48-8.12,3.11-15.45,7.94-22.7,12.72-34.33,22.66-69.8,46.47-91.09,81.67,6.55-5.44,6.2-16.35.96-23.05-5.24-6.71-13.93-9.81-22.38-10.85-32.96-4.08-66.6,22.53-70.23,55.54,2-10.76-6.46-21.3-16.66-25.25-10.2-3.95-21.6-2.85-32.42-1.2-10.82,1.65-21.86,3.78-32.6,1.71-1.24,4.94-2.48,9.88-3.72,14.81"/>
    </g>
  </g>
</svg>