<?xml version="1.0" encoding="UTF-8"?>
<svg id="Layer_2" data-name="Layer 2" xmlns="http://www.w3.org/2000/svg" viewBox="0 0 421.85 309.25">
  <defs>
    <style>
      .cls-1 {
        fill: #c64777;
        stroke-width: 0px;
      }
    </style>
  </defs>
  <g id="Clouds_2" data-name="Clouds 2">
    <g>
      <path class="cls-1" d="m174.32,11.3c-17.37-9.62-38.96-10.31-57.71-3.78-18.75,6.53-34.73,19.8-46.47,35.82-1.65,2.25-3.51,4.75-6.26,5.25-2.36.43-4.67-.75-6.9-1.65-6.19-2.52-13.18-3.02-19.67-1.42-12.51,3.09-23.55,13.7-36.29,11.75-2.97,6.62,1,14.47,6.45,19.27,7.87,6.94,18.6,9.96,29.08,10.23,10.49.27,20.86-1.98,31.05-4.49,20.53-5.06,40.82-11.25,60.36-19.35,10-4.15,19.87-8.84,28.51-15.37,14.85-11.22,25.86-28.98,24.73-47.56-6.21,2.74-11.33,7.88-14.04,14.11"/>
      <path class="cls-1" d="m194.72,281.79c-1.96,1.39-4.85.57-6.49-1.18-1.64-1.75-2.33-4.17-2.9-6.5-2.3-9.39-3.57-19.46-.38-28.59,2.1-6.01,6.01-11.22,10.36-15.87,22.06-23.63,57.26-34.12,88.66-26.4-5.03-6.05-4.3-15.37-.3-22.14,4-6.78,10.6-11.55,17.13-15.95,16.27-10.95,33.49-20.87,52.27-26.5,18.78-5.63,39.36-6.74,57.86-.23,5.44,1.91,11.55,5.96,10.87,11.68-.32,2.71-2.16,4.97-4.01,6.98-25.15,27.3-64,38.1-90.79,63.79,9.73-1.04,19.51-1.72,29.29-2.04,4.82-.16,10.5.19,13.17,4.21,2.08,3.14,1.38,7.5-.72,10.63-2.09,3.13-5.31,5.3-8.46,7.36-35.56,23.21-73.55,42.68-113.16,58-13.56,5.24-27.61,10.06-42.15,10.2-3.13.03-6.51-.25-8.89-2.27-2.43-2.06-3.25-5.45-3.51-8.63-1.11-13.32,5.58-27.02,16.77-34.33"/>
      <path class="cls-1" d="m109.67,211.79c-4.67-3.61-11.41-1.48-16.76.99-10.59,4.9-20.78,10.68-30.41,17.27-1.41.96-2.98,2.58-2.2,4.09.61,1.18,2.21,1.3,3.54,1.25,18.55-.74,36.88-6.21,52.81-15.75,2.47-1.48,5.23-3.91,4.4-6.66-.34-1.15-1.27-2.03-2.24-2.73-6.83-4.89-17.79-2.12-21.47,5.43"/>
    </g>
  </g>
</svg>