<?xml version="1.0" encoding="UTF-8"?>
<svg id="Layer_2" data-name="Layer 2" xmlns="http://www.w3.org/2000/svg" viewBox="0 0 332.04 556.34">
  <defs>
    <style>
      .cls-1 {
        fill: #fff;
        stroke-width: 0px;
      }
    </style>
  </defs>
  <g id="Clouds_2" data-name="Clouds 2">
    <g>
      <path class="cls-1" d="m296.14,11.67c-24.3-4.89-48.97,6.86-68.71,21.84-2.37,1.8-4.78,3.74-6.07,6.43-1.29,2.68-1.09,6.31,1.23,8.18,1.7,1.37,4.07,1.49,6.25,1.46,14.93-.2,29.77-4.65,42.35-12.68-4.32,0-8.88.05-12.56,2.31-3.68,2.25-5.85,7.55-3.3,11.03,2.21,3.01,6.54,3.23,10.27,3.1,21.25-.79,43.95-5.01,58.89-20.14,5.79-5.86,10.16-15.18,5.71-22.11-2.84-4.42-8.3-6.26-13.37-7.65-7.52-2.07-15.27-3.85-23.06-3.35-7.79.51-15.72,3.6-20.52,9.75"/>
      <path class="cls-1" d="m27.38,544.91c4.86-15.8,12.14-27.53,25.61-37.76,7.67-5.83,16.59-10.04,25.89-12.09,6.87-1.52,16.32.93,22.65-1.43,7.02-2.62,6.64-6.48,12.3-14.63,7-10.08,16.92-16,27.42-21.67,8.94-4.83,38.39-16.86,44.06-2.8,9.67-7.04,14.16-19.39,28.09-22.3,18.16-3.8,11.54,7.19,1.7,15.67-21.3,18.35-47.56,37.13-71.69,51.8-37.9,23.03-76.23,51.93-122.46,56.01-8.13.72-28.71,2.78-17.84-7.81,6.71-6.55,25.04-4.14,29.67-7.01"/>
    </g>
  </g>
</svg>