<?xml version="1.0" encoding="UTF-8"?>
<svg id="Layer_2" data-name="Layer 2" xmlns="http://www.w3.org/2000/svg" viewBox="0 0 1319.65 731.55">
  <defs>
    <style>
      .cls-1 {
        fill: #77b2bd;
      }

      .cls-1, .cls-2 {
        stroke-width: 0px;
      }

      .cls-2 {
        fill: #70a6af;
      }
    </style>
  </defs>
  <g id="Clouds">
    <g>
      <path class="cls-1" d="m1148.01,320s-67,33-72,35-44-25-68-5-23,36-23,36c0,0-17-5-39,20s-20,36,5,26,33-19,33-19c0,0,19.78,25.47,55.39,4.24,35.61-21.24,40.07-39.4,40.07-39.4,0,0,29.27,18.83,49.41-11,20.14-29.83,28.14-30.83,30.14-37.83s13-4,13-13-24,4-24,4Z"/>
      <path class="cls-1" d="m1064.01,264c29.78-35.19,62-31,86-40s23-30,40-32,22,3,35-4,31,5.84,46-6.58,40-45.42,47-73.42-10-60-20-67-45,2-67,45-11,40-29,46-23,0-37,22-22,31-45,46-31,0-54,18-30,38-35,42-23,2-23,22,34,8,56-18Z"/>
      <g>
        <path class="cls-1" d="m531.54,556.4s-16-4-35,9-33,29-32,34,9,14,24,5,21-23,21-23c0,0,8.24,2.26,13.12.63,4.88-1.63,9.88-6.63,10.88-12.63s2-12-2-13Z"/>
        <path class="cls-1" d="m514.51,691.9c22.96-3.28,42,22,43,27s-12,17-28,11-23-21-25-28,3-9,10-10Z"/>
      </g>
      <path class="cls-2" d="m100.01,365.54c34-9,72-34,131,0,59,34,84,103,91,113s33-18,65-5,48,32,53,32,52,1,55,16-25,25-48,26-59-34-87-25-65,59-78,54-19-22-24-23-65,37-132-11-76-60-69-113,43-64,43-64Z"/>
      <path class="cls-1" d="m344.01,669.54s63-17,67-25,13-8,13-8c0,0,42-15,50-29s-18-15-40-9-32,9-43,17-29,6-31,7-37-8-46,22,17,29,30,25Z"/>
      <path class="cls-1" d="m353.27,364.22c-13.52,1.42-26.98-2.4-39.99-6.32-13.89-4.19-27.76-8.57-41.05-14.4-62.6-27.46-109.11-88.72-118.73-156.4-10.33,6.76-24.28-.36-32.68-9.41-21.31-22.99-26.24-59.66-11.76-87.47-9.32,6.95-22.57,4.58-33.27.04-12.75-5.4-24.59-13.65-32.42-25.07-7.84-11.42-11.28-26.23-7.34-39.51-7.16,2.16-14.66,4.34-22.01,2.96C6.66,27.26-.37,21.07.01,13.61.38,6.42,7.49,1.02,14.64.17s14.22,1.73,20.86,4.52c17.31,7.28,33.87,16.22,50.11,25.65,19.51,11.33,38.77,23.51,54.91,39.29,16.13,15.78,29.09,35.51,33.57,57.62,33.2-.34,60.7,24.43,84.07,48.01,5.6,5.65,11.28,11.47,14.62,18.68s3.96,16.2-.47,22.81c17.7-6.9,37.52,1.91,53.29,12.5,18.02,12.1,34.5,27.04,45.81,45.56s17.16,40.89,13.46,62.28c-1.46,8.43-4.6,16.96-11,22.63s-16.64,7.59-23.62,2.64"/>
    </g>
  </g>
</svg>