<?xml version="1.0" encoding="UTF-8"?>
<svg id="Layer_2" data-name="Layer 2" xmlns="http://www.w3.org/2000/svg" viewBox="0 0 1017.3 415.21">
  <defs>
    <style>
      .cls-1 {
        fill: #fff;
        stroke-width: 0px;
      }
    </style>
  </defs>
  <g id="Clouds3">
    <path class="cls-1" d="m410.03,306.29c-17.13-17.75-50.21-15.63-64.93,4.16.62-9.07-3.07-18.55-10.29-24.06-7.23-5.51-17.95-6.4-25.52-1.38-5.7,3.79-9.33,10.39-15.52,13.29-6.8,3.19-15.01,1.04-21.44-2.84s-11.77-9.33-18.04-13.47c-18.64-12.32-42.68-11.61-64.99-10.45-8.7.45-17.57.93-25.71,4.03-7.94,3.01-14.79,8.36-22.55,11.81-15.72,6.99-33.76,5.69-50.83,3.53-27.08-3.43-53.93-8.71-80.3-15.77-1.67-.45-3.42-.9-5.09-.48C1.63,275.46.03,279.16,0,282.46c-.07,9.19,8.03,16.24,16.01,20.8,16.17,9.23,34.9,13.92,53.51,13.38,2.56-.07,5.47-.12,7.26,1.72,1.53,1.58,1.68,3.98,2.1,6.14,2.37,12.23,15.81,19.74,28.27,19.69s24.11-5.76,35.25-11.35c1.63,13.15,12.44,24.64,25.47,27.08,13.03,2.44,27.25-4.37,33.53-16.04-3.99,7.49,1.05,17.23,8.48,21.33,7.43,4.1,16.36,4.09,24.85,3.97,15.44-.22,32.08-.84,44.28-10.3,4.77-3.7,9.46-8.92,15.48-8.44,2.38.19,4.57,1.3,6.75,2.28,27.1,12.31,59.19,8.23,86.81-2.86,9.6-3.85,19.47-9.07,24.29-18.22,4.82-9.15,1.69-22.96-8.25-25.79"/>
  </g>
  <g id="Clouds_2" data-name="Clouds 2">
    <g>
      <path class="cls-1" d="m764.16,249.41c-9.25-2.44-18.86-3.28-28.42-3.29-54.3-.07-107.89,27.89-138.89,72.48-6.66,9.58-13.83,20.88-25.39,22.48-4.41.61-8.86-.35-13.27-.93-26.69-3.49-54.86,8.24-71.18,29.65-7.34,9.62-13.74,21.95-25.56,24.55-5.83,1.28-13.27.49-16.31,5.63-2.1,3.55-.54,8.41,2.59,11.1,3.13,2.69,7.4,3.63,11.51,3.95,28.88,2.3,53.15-20.02,80.08-30.73,4.27-1.7,8.79-3.13,13.38-2.83,4.39.29,8.49,2.14,12.66,3.54,27.91,9.36,61.62-3.96,75.59-29.87,2.46-4.56,4.48-9.6,8.46-12.92,8.01-6.7,19.9-3.79,30.16-1.84,43.19,8.19,88.38-8.29,122.73-35.73,11.6-9.26,23.14-22.29,20.81-36.95-2.13-13.39-15.77-22.52-29.25-24.03-13.48-1.51-26.85,2.85-39.71,7.15"/>
      <path class="cls-1" d="m528.83,100.82c1.05,6.42,5.86,11.51,10.7,15.86,29.73,26.74,69.56,41.96,109.54,41.87,6.24,20.04,23.61,36.21,44.05,40.98,20.44,4.78,43.18-2.01,57.65-17.21,16.22,21.98,52.85,24.45,71.88,4.85,1.89,5.97,3.79,11.94,5.68,17.91,2.83,8.93,5.79,18.1,11.81,25.28,12.41,14.81,33.98,17.2,53.3,17.76,19.33.57,38.91.37,57.64-4.44,18.73-4.81,36.73-14.67,48.1-30.31,12.12-16.67,15.6-38,17.25-58.54,1.61-20.07,1.7-40.9-5.87-59.56-4.54-11.17-11.63-21.08-18.66-30.87-11.99-16.69-24.35-33.75-41.41-45.21C922.8.61,887.28-.47,853.94.11c-13.42.23-27.15.68-39.68,5.48-8.12,3.11-15.45,7.94-22.7,12.72-34.33,22.66-69.8,46.47-91.09,81.67,6.55-5.44,6.2-16.35.96-23.05-5.24-6.71-13.93-9.81-22.38-10.85-32.96-4.08-66.6,22.53-70.23,55.54,2-10.76-6.46-21.3-16.66-25.25-10.2-3.95-21.6-2.85-32.42-1.2-10.82,1.65-21.86,3.78-32.6,1.71-1.24,4.94-2.48,9.88-3.72,14.81"/>
    </g>
  </g>
</svg>