<?xml version="1.0" encoding="UTF-8"?>
<svg id="Layer_2" data-name="Layer 2" xmlns="http://www.w3.org/2000/svg" viewBox="0 0 1063.13 293.68">
  <defs>
    <style>
      .cls-1 {
        fill: #77b2bd;
        stroke-width: 0px;
      }
    </style>
  </defs>
  <g id="Clouds4">
    <g>
      <g>
        <path class="cls-1" d="m181.07,195.26c1.13-3.24-4.34-4.22-7.58-3.09-21.78,7.6-41.79,20.21-58.04,36.57,17.11,6.27,36.85,4.93,52.96-3.59-21.18,10.09-44.92,23.35-49.19,46.41-.37,1.97-.55,4.1.3,5.91,2.28,4.86,9.39,3.98,14.45,2.16,31.85-11.5,61.25-29.72,85.72-53.12,1.43-1.36,2.97-2.81,4.93-3.1,2.94-.43,5.46,1.88,7.75,3.77,18.19,15,44.97,10.38,67.91,4.96,8.56-2.02,17.84-4.5,23.1-11.55,5.26-7.05,2.7-19.92-6.04-20.95-3.65-.43-7.19,1.28-10.42,3.03-7.5,4.08-14.7,8.7-21.53,13.83,6.56-4.1,14.03-10.12,12.64-17.74-1.7-9.28-14.44-10.92-23.64-8.8-16.65,3.85-32.1,12.75-43.79,25.22,13.32-8.73,20.69-25.73,17.94-41.42-.73-4.18-2.39-8.6-6.05-10.75-3.71-2.18-8.39-1.44-12.57-.44-8.11,1.93-16.27,4.69-22.63,10.08-6.36,5.39-10.63,13.88-9.06,22.06-3.5-4.46-7.65-9.29-13.3-9.82s-11.32,6.77-7.36,10.83"/>
        <path class="cls-1" d="m32.18,158.79c14.22-14.42,32.67-24.62,52.45-29,1.84-.41,3.96-.7,5.42.47,2.53,2.02.86,6.1-1.14,8.65-4.77,6.07-10.59,11.31-17.12,15.43,12.62-11.19,28.33-18.85,44.92-21.89,1.72-.32,3.93-.36,4.74,1.19.79,1.51-.43,3.27-1.6,4.51-6.82,7.27-14.58,13.65-23.04,18.92,9.92-9.98,23.86-15.84,37.93-15.94-3.53,8.48-11.15,14.65-19.38,18.74-8.22,4.09-17.19,6.41-25.83,9.49-26.71,9.52-52.4,26.74-80.64,24.14-2.4-.22-4.93-.65-6.72-2.25-4.43-3.95-1.35-11.3,2.55-15.78,9.65-11.08,23.2-18.7,37.68-21.19"/>
      </g>
      <g>
        <path class="cls-1" d="m848.97,131.21c-27.31-7.28-55.86-9.87-84.03-7.63-10.22.81-21.08,2.56-28.67,9.45-1.53,1.39-2.96,3.09-3.26,5.14-.87,5.98,7.25,8.65,13.29,8.82,30.43.86,60.97-2.54,90.46-10.07,3.02,3.6-.19,8.98.08,13.67.28,4.83,4.51,8.7,9.13,10.11,4.63,1.41,9.6.86,14.4.26,17.32-2.18,34.57-5.01,51.68-8.48,3.83-.78,8.05-1.86,10.14-5.16s-.47-9.04-4.25-8.05c12.45,11.4,33.65,11.45,46.15.11,1.43-1.3,2.82-2.84,3.16-4.74,1.02-5.7-6.84-8.27-12.62-8.47-11.14-.4-22.28-.8-33.42-1.2,6.44.76,9.86-8.85,6.15-14.17-3.71-5.32-10.85-6.84-17.31-7.38-31.65-2.64-63.31,8.08-90.34,24.75"/>
        <path class="cls-1" d="m996.95,269.77c-3.91-1.41-8.13-1.62-12.28-1.82-9.11-.43-18.31-.86-27.3.7-8.99,1.56-17.87,5.31-24.02,12.05-.38.41-.75.85-.93,1.38-.81,2.41,2.56,3.98,5.1,4.13,11.68.68,23.56-3.17,32.62-10.56-4.86,3.63-9.33,7.78-13.29,12.37-.62.72-1.25,1.51-1.33,2.45-.21,2.65,3.54,3.42,6.19,3.16,20.24-1.98,40.32-5.64,59.97-10.93,4.45-1.2,9.66-3.3,10.44-7.84.55-3.18-1.55-6.38-4.33-8.01-2.79-1.64-6.12-2.01-9.35-2.14-12.15-.46-24.4,2.22-35.25,7.71"/>
        <path class="cls-1" d="m1039.74,2.57c-11.36-4.8-25.81-.63-32.87,9.49-.27.38-.54.84-.43,1.29.15.66.96.89,1.63.99,7.47,1.08,15.17.53,22.41-1.62-4.92,1.58-9.34,4.67-12.5,8.75-.56.72-1.1,1.52-1.17,2.43-.14,1.6,1.19,2.97,2.62,3.7,4.88,2.5,10.73.19,15.7-2.13,7.82-3.64,15.64-7.28,23.45-10.92,1.87-.87,3.95-1.99,4.44-3.99.65-2.65-1.86-4.97-4.25-6.3-6.88-3.83-15.13-5.15-22.87-3.67"/>
      </g>
    </g>
  </g>
</svg>