<?xml version="1.0" encoding="UTF-8"?>
<svg id="Layer_2" data-name="Layer 2" xmlns="http://www.w3.org/2000/svg" viewBox="0 0 1302.06 517.06">
  <defs>
    <style>
      .cls-1 {
        fill: #fff;
        stroke-width: 0px;
      }
    </style>
  </defs>
  <g id="Clouds_2" data-name="Clouds 2">
    <g>
      <path class="cls-1" d="m23.15,152.81c44.41-32.89,96.62-56.42,151.59-62.1,54.97-5.68,112.68,7.48,156.56,41.07,22.15,16.96,41.17,40.19,45.71,67.72,5.86,35.49-12.86,69.9-30.92,101.01,22.87-13.41,48.14-23.93,74.62-25.16,26.48-1.24,54.36,7.92,71.33,28.29,16.98,20.37,20.21,52.59,3.82,73.43,34.62-24.58,84-26.24,120.2-4.06,5.11,3.13,10.12,6.85,13.06,12.08,5.02,8.91,2.86,20.47-2.7,29.06-5.57,8.58-14,14.82-22.25,20.87,33.4-11.03,69-15.4,104.07-12.76,8.36.63,17.34,1.95,23.34,7.8,9.29,9.07,6.86,25.49-1.67,35.27-8.53,9.79-21.28,14.59-33.48,19.04,22.44-7.69,45.19-15.45,68.85-17.24,23.66-1.79,48.73,3.03,67.04,18.12,2.7,2.22,5.37,4.9,5.97,8.34,1.49,8.53-9.47,13.23-18.02,14.58-54.54,8.63-110.06,11-165.14,7.06-25.41-1.82-55.32-8.26-64.98-31.83-2.59,18.59-21.41,32.33-40.18,32.41-18.76.08-36.29-11.44-46.95-26.88-10.66-15.44-15.25-34.34-16.97-53.02.09,12.64-16.16,17.6-28.75,18.7-26.55,2.33-53.14,4.3-79.75,5.89-36.03,2.16-73.59,3.4-106.63-11.14-20.71-9.11-39.81-26.15-43.38-48.49,2.2,12.43-5.87,24.89-16.55,31.62-10.68,6.73-23.54,8.9-36.03,10.7-29.46,4.24-60.21,7.1-88.4-2.45C34.82,423.21,4.37,366.87.54,312.42c-3.84-54.45,13.61-107.9,30.83-159.7"/>
      <path class="cls-1" d="m902.02,230.67c27.23-25.55,43.36-63.56,76.52-80.72,23.25-12.03,50.66-11.47,76.82-12.46,6.14-.23,13.12-1,16.76-5.94,3.66-4.97,2.3-11.82,2.52-17.99.72-19.4,19.24-34.36,38.35-37.8,19.1-3.44,38.58,1.85,57.27,7.1-3.85-21.38,8.51-44.61,28.4-53.36,19.88-8.75,45.36-2.18,58.53,15.1,10.28-15.04,20.81-29.91,31.6-44.6,13.9,7.59,16.47,27.69,9.6,41.96-6.87,14.27-20.39,23.99-33.48,32.89-116.83,79.44-245.89,145.01-385.09,169.21-8.88,1.54-22.18-1.18-20.53-10.04.83-4.43,5.46-6.96,9.69-8.51,14.64-5.34,30.83-6.35,46.02-2.86"/>
    </g>
  </g>
</svg>