<?xml version="1.0" encoding="UTF-8"?>
<svg id="Layer_2" data-name="Layer 2" xmlns="http://www.w3.org/2000/svg" viewBox="0 0 320.56 246.01">
  <defs>
    <style>
      .cls-1 {
        fill: #77b2bd;
        stroke-width: 0px;
      }
    </style>
  </defs>
  <g id="Layer_50" data-name="Layer 50">
    <path class="cls-1" d="m262.35,22.08c-16.9-4.24-35.75.22-48.96,11.59-13.21,11.36-20.44,29.33-18.78,46.68-14.01-10.01-33.84,2.09-42.59,16.92-8.75,14.83-12.63,32.95-25.15,44.78-26.82.37-41.44,30.75-63.01,46.7-16.42,12.14-37.6,15.93-55.1,26.47-2.82,1.7-5.62,3.66-7.27,6.51-4.83,8.32,2.98,18.94,12.01,22.25,17.76,6.51,37.08-3.58,52.37-14.71,16.55-12.04,31.89-25.74,45.72-40.82,4.37,7.51,15.52,6.28,23.69,3.35,26.17-9.4,49.59-26.29,66.76-48.16,42.16,4.47,85.3-25.63,95.66-66.75,1.29-5.12,2.17-10.47,4.92-14.98,3.12-5.12,8.4-8.7,11.29-13.95,2.89-5.26,1.59-13.75-4.33-14.73,7.44-.83,12.29-9.51,10.69-16.82-1.6-7.32-8.1-12.8-15.21-15.16-10.8-3.59-25.06.77-28.24,11.69"/>
  </g>
</svg>