<?xml version="1.0" encoding="UTF-8"?>
<svg id="Layer_2" data-name="Layer 2" xmlns="http://www.w3.org/2000/svg" viewBox="0 0 417.51 291.11">
  <defs>
    <style>
      .cls-1 {
        fill: #77b2bd;
        stroke-width: 0px;
      }
    </style>
  </defs>
  <g id="Clouds4">
    <g>
      <path class="cls-1" d="m141.36,249.32c29.07-21.31,70.39-24.43,102.33-7.73-.04-13.31,14.97-20.75,27.57-25.03,13.96-4.74,32.31-8.22,40.96,3.71,1.64,2.27,3.15,5.21,5.93,5.55,2.45.3,4.53-1.64,6.31-3.35,18.5-17.79,46.4-25.17,71.28-18.86,10.17,2.58,21.17,9.23,21.75,19.7.58,10.49-9.5,18.22-18.93,22.86-25.24,12.43-54.11,17.36-82.04,14.03-21.58,13.6-49.16,17.27-73.55,9.78-1.39-.43-2.83-.89-4.26-.67-2.67.42-4.34,2.99-6.05,5.09-6.73,8.27-17.78,11.38-28.11,14.04-7.85,2.02-16.25,4.03-23.92,1.4s-13.59-11.92-9.67-19.02c-20.36,14.3-46.8,19.61-71.11,14.29-5.99-1.31-12.21-3.48-15.97-8.33-3.75-4.84-3.68-13.01,1.54-16.22,2.06-1.26,4.55-1.58,6.95-1.86,20.81-2.36,41.79-3.25,62.73-2.67-6.35,1.24-13.32-1.9-16.61-7.47,1.84-2.7,5.25-4.24,8.49-3.82"/>
      <path class="cls-1" d="m77.3,10.55c-5.49-2.34-11.92-1.54-17.41.81s-10.23,6.12-14.89,9.85c-3.66,2.92-7.4,5.93-9.91,9.88s-3.63,9.11-1.69,13.38c-.95-3.73-5.02-6.04-8.87-6.02s-7.46,1.87-10.64,4.05c-4.91,3.36-9.21,7.6-12.63,12.46-.76,1.08-1.51,2.37-1.19,3.65.47,1.86,2.79,2.44,4.7,2.61,12.21,1.07,24.67-.88,35.98-5.61,4.76-1.99,9.3-4.47,13.83-6.93,16.16-8.8,32.94-18.15,43.27-33.38,1.32-1.94,2.55-4.05,2.73-6.39s-.98-4.93-3.2-5.7c-3.33-1.16-6.43,2.1-8.47,4.98.34-3.27-.18-7.73-3.44-8.17-2-.27-3.72,1.32-5.09,2.79-4.66,4.98-9.2,10.08-13.62,15.27"/>
    </g>
  </g>
</svg>