<?xml version="1.0" encoding="UTF-8"?>
<svg id="Layer_2" data-name="Layer 2" xmlns="http://www.w3.org/2000/svg" viewBox="0 0 760.62 5650.07">
  <defs>
    <style>
      .cls-1 {
        fill: none;
        stroke: #a4004b;
        stroke-miterlimit: 10;
        stroke-width: 17.01px;
      }
    </style>
  </defs>
  <g id="Love_Woll" data-name="Love Woll">
    <g id="Love_Str1ng" data-name="Love Str1ng">
      <path class="cls-1" d="m419.92,70.67s2.45,535.41-3.84,810.79c-6.11,267.49-240.1,217.31-248.17,425.37-6.57,169.58,161.78,266.72,240.28,268.88s171-28.5,244.5-126.5c45-60,58.5-151.5,14.5-213.5s-115-79-172-54-64,59-71,101-2,91,39,102,76-30,71-77c-4.56-42.84-54-106-151-102s-125.73,70.2-130,93c-9,48-9,98,50,179,48.32,66.34,119,105,119,272,0,273,.5,3246,.5,3246v654.36"/>
      <path class="cls-1" d="m501.3,0s.55,548.46.55,936.82c0,167.46,250.26,153.3,250.26,379.86,0,325.7-358.84,212.9-385.34,596.42-2.13,30.84-.03,116.73-.07,238.89-.23,616.82-.93,3104.02-.93,3181.15,0,0-14.99,169-69.39,169S.04,5503.2.04,5503.2"/>
    </g>
  </g>
</svg>