<?xml version="1.0" encoding="UTF-8"?>
<svg id="Layer_2" data-name="Layer 2" xmlns="http://www.w3.org/2000/svg" viewBox="0 0 141.4 355.98">
  <defs>
    <style>
      .cls-1 {
        fill: #d11b47;
        stroke-width: 0px;
      }

      .cls-2 {
        fill: none;
        stroke: #a4004b;
        stroke-miterlimit: 10;
        stroke-width: 2.83px;
      }
    </style>
  </defs>
  <g id="Love_Woll" data-name="Love Woll">
    <g id="Love_Str1ng" data-name="Love Str1ng">
      <g>
        <path class="cls-1" d="m106.86,164.95c23,70-18,113-57,139S-1.14,331.95,1.86,336.95s9,13,15,17,30.73-13.11,30.73-13.11c0,0,48.27-33.89,74.27-69.89s20-100,7-132S70.86,34.95,36.86,1.95c-3.59-3.48-25,11-23,14s65.23,64.49,93,149Z"/>
        <path class="cls-2" d="m106.86,164.95c23,70-18,113-57,139S-1.14,331.95,1.86,336.95s9,13,15,17,30.73-13.11,30.73-13.11c0,0,48.27-33.89,74.27-69.89s20-100,7-132S70.86,34.95,36.86,1.95c-3.59-3.48-25,11-23,14s65.23,64.49,93,149Z"/>
      </g>
    </g>
  </g>
</svg>