<?xml version="1.0" encoding="UTF-8"?>
<svg id="Layer_2" data-name="Layer 2" xmlns="http://www.w3.org/2000/svg" viewBox="0 0 389.67 620.59">
  <defs>
    <style>
      .cls-1 {
        fill: #d11b47;
        stroke-width: 0px;
      }

      .cls-2 {
        fill: none;
        stroke: #a4004b;
        stroke-miterlimit: 10;
        stroke-width: 2.83px;
      }
    </style>
  </defs>
  <g id="Love_Woll" data-name="Love Woll">
    <g id="Love_Str1ng" data-name="Love Str1ng">
      <g>
        <g>
          <path class="cls-1" d="m154.41,590.05c30-8,87-22,133-51s89-64,99-132-24-94-24-94l-24,67s15,35-2,65-28,39-101,79c-30,16.44-115,40-179,56-47.57,11.89-53.54,10.04-54.77,16.02-1.23,5.98,2.77,20.98,7.77,22.98s115-21,145-29Z"/>
          <path class="cls-2" d="m154.41,590.05c30-8,87-22,133-51s89-64,99-132-24-94-24-94l-24,67s15,35-2,65-28,39-101,79c-30,16.44-115,40-179,56-47.57,11.89-53.54,10.04-54.77,16.02-1.23,5.98,2.77,20.98,7.77,22.98s115-21,145-29Z"/>
        </g>
        <g>
          <path class="cls-1" d="m306.41,151.05c-25.07-27.79-93.54-72.3-155-104C100.08,20.58,52.6,4.33,49.41,2.05c-7-5-21,21-15,25s64.77,31.61,64.77,31.61c0,0,33.23,16.39,96.23,54.39s87.35,64.89,119,119c31,53,26,61,26,61,0,0-44-24-84,21-20.76,23.35-28,59-19,85s53,44,90,28c30.94-13.38,47.89-54.03,52.62-93.88.93-7.81,1.38-15.58,1.38-23.12,0-46-29-108-75-159Zm28,212c-10,20-40,38-53,34s-25-34-10-56,45-28,57-23,16,25,6,45Z"/>
          <path class="cls-2" d="m306.41,151.05c-25.07-27.79-93.54-72.3-155-104C100.08,20.58,52.6,4.33,49.41,2.05c-7-5-21,21-15,25s64.77,31.61,64.77,31.61c0,0,33.23,16.39,96.23,54.39s87.35,64.89,119,119c31,53,26,61,26,61,0,0-44-24-84,21-20.76,23.35-28,59-19,85s53,44,90,28c30.94-13.38,47.89-54.03,52.62-93.88.93-7.81,1.38-15.58,1.38-23.12,0-46-29-108-75-159Zm28,212c-10,20-40,38-53,34s-25-34-10-56,45-28,57-23,16,25,6,45Z"/>
        </g>
        <path class="cls-2" d="m333.73,367.12s15.68-46.07,7.68-77.07-13.18-34.43-13.18-34.43"/>
      </g>
    </g>
  </g>
</svg>