<?xml version="1.0" encoding="UTF-8"?>
<svg id="Layer_2" data-name="Layer 2" xmlns="http://www.w3.org/2000/svg" viewBox="0 0 970.06 1339.8">
  <defs>
    <style>
      .cls-1 {
        fill: #77b2bd;
      }

      .cls-1, .cls-2 {
        stroke-width: 0px;
      }

      .cls-2 {
        fill: #7ab8c2;
      }
    </style>
  </defs>
  <g id="BG">
    <g>
      <path class="cls-2" d="m655.38,201.76c-60.6,80.33-123.37,124.86-182.74,206.35-30.43,41.76-48.33,93.24-65.8,143.85-6.66,19.3-13.44,39.41-11.95,60.43,3.1,44.02,40.03,76,74.64,98.71,38.07,24.98,81.87,47.36,123.64,36.84,23.33-5.87,43.3-21.49,62-37.65,85.82-74.14,158.45-166.93,213-272.12,9.51-18.35,18.56-37.29,23.34-58.01,8.97-38.91,2.25-80.71-4.49-120.98-4.3-25.67-9.07-52.54-23.74-73.34-18.82-26.7-50.9-38.07-80.55-37.09-29.64.98-57.66,12.51-85.09,23.91"/>
      <path class="cls-1" d="m654.09,201.01c-33.5,44.33-73.16,82.99-111.55,122.97-19.16,19.95-37.79,40.44-55,62.11-8.75,11.02-17.34,22.24-24.95,34.08s-13.87,23.36-19.79,35.58c-12.01,24.77-21.61,50.62-30.71,76.57s-21.15,53.7-18.54,81.91c4.4,47.65,46.34,80.16,83.87,103.73,22.86,14.36,47.69,27.56,74.53,32.36,12.45,2.23,25.24,2.49,37.67-.02s24.48-8.06,35.33-14.92,21.34-15.42,31.28-24.01c9.87-8.52,19.54-17.28,29-26.24,19.07-18.06,37.32-36.99,54.71-56.67,35.16-39.81,66.81-82.72,94.66-127.94,14.24-23.11,27.64-46.81,39.72-71.12,6.06-12.2,11.62-24.7,15.64-37.73,4.17-13.54,6.4-27.56,7.11-41.69,1.46-29.27-3.15-58.47-7.95-87.25-4.23-25.38-8.23-52.22-22.34-74.33-12.4-19.43-32.4-32.53-54.62-38.03-25.13-6.23-51.03-2.15-75.32,5.69-13.46,4.34-26.54,9.77-39.6,15.19-1.76.73-.99,3.63.8,2.89,26.05-10.82,52.87-22.01,81.36-23.71,22.53-1.34,45.68,4.19,64.1,17.53,21,15.2,31.08,38.96,36.73,63.51,2.99,12.99,5.05,26.2,7.19,39.35,2.37,14.51,4.53,29.07,5.79,43.72,2.43,28.29,1.02,56.59-8.54,83.54-8.96,25.27-22.51,49.1-35.73,72.34-25.91,45.54-55.56,88.98-88.72,129.56s-68.11,76.55-106.89,109.94c-19.49,16.79-40.97,33.46-66.99,37.95-26.39,4.55-53.14-3.76-76.69-15.21-22.66-11.02-44.64-24.91-64.19-40.84-17.63-14.37-34.02-31.71-42.78-53.02-4.61-11.21-6.86-23.22-6.45-35.34.48-14.3,4.39-28.21,8.87-41.71,8.55-25.82,17.58-51.61,27.93-76.76,10.12-24.6,21.89-48.68,37.02-70.61,15.88-23.03,34.14-44.53,52.97-65.19,35.36-38.8,73.89-74.6,107.94-114.61,8.88-10.43,17.45-21.11,25.71-32.04,1.16-1.54-1.44-3.04-2.59-1.51h0Z"/>
    </g>
    <g>
      <path class="cls-2" d="m142.47,165.81c16.67,90.81,8.52,162.94,26.69,253.5,9.31,46.41,32.45,88.98,55.29,130.73,8.71,15.93,17.88,32.39,32.57,43.21,30.77,22.65,73.76,13.22,109.3.26,39.09-14.26,79.87-34.27,97.85-71.43,10.04-20.75,11.67-44.52,12.2-67.65,2.42-106.14-15.27-213-51.87-313.4-6.38-17.51-13.44-35.01-24.2-50.33-20.21-28.77-51.67-47.46-82.14-65.27-19.42-11.35-39.91-23.03-62.31-23.87-28.75-1.09-55.33,16.42-72.34,39.11-17.01,22.69-26.13,50.16-34.98,77.1"/>
      <path class="cls-1" d="m141.02,166.21c9.3,50.93,10.96,102.51,14.4,154.04,1.7,25.48,4.08,50.93,8.1,76.16,2.09,13.09,4.43,26.18,7.87,38.98s7.62,24.64,12.48,36.57c9.66,23.71,21.6,46.39,33.82,68.86,10.87,19.98,21.37,42.2,40.82,55.31,17.89,12.07,40.18,13.92,61.07,11.15,21.77-2.88,42.82-10.18,63.07-18.48s38.19-17.45,54.35-30.77,29.33-31.9,35.08-53.13c6.55-24.16,6.13-50.06,5.97-74.89-.17-26.48-1.57-52.95-4.2-79.3-5.24-52.59-15.31-104.7-30.06-155.45-7.23-24.88-15.2-49.83-25.28-73.72-4.91-11.62-10.63-22.95-18.06-33.18-6.58-9.06-14.32-17.22-22.74-24.59-17.37-15.18-37.29-27.06-57.13-38.67C300.18,13.17,278.36.25,253.99,0c-21.75-.22-42.24,10.03-57.97,24.54-17.2,15.87-28.35,36.92-36.87,58.44-4.47,11.3-8.28,22.84-12.07,34.38-.6,1.84,2.29,2.63,2.89.8,14.08-42.87,31.69-92.57,77.66-110.23,10.13-3.89,20.98-5.62,31.81-4.65,12.27,1.09,24.03,5.46,35.02,10.83s21.04,11.45,31.33,17.54c9.69,5.72,19.3,11.58,28.58,17.95,18.93,12.99,36.5,28.37,48.7,48.03,13.14,21.18,21,45.58,28.76,69.11,16.11,48.87,27.82,99.18,34.98,150.13,3.61,25.74,6.04,51.65,7.29,77.61s1.68,50.59.14,75.77c-1.44,23.61-6.28,47.01-20.67,66.32-12.44,16.69-29.94,28.92-48.21,38.48s-38.73,17.59-58.96,23.41c-20.63,5.93-43.14,9.78-64.36,4.65-10.52-2.54-20.37-7.42-28.51-14.59-8.7-7.67-15.28-17.34-21.1-27.29-12.33-21.04-23.83-42.81-34.38-64.78-10.81-22.5-20.18-45.83-25.86-70.19s-9.13-51.25-11.51-77.06c-4.48-48.66-5-97.61-11.02-146.14-1.56-12.6-3.47-25.16-5.75-37.65-.35-1.9-3.24-1.09-2.89.8h0Z"/>
    </g>
    <g>
      <path class="cls-2" d="m793.45,825.53c-145.64-39.77-246.17-102.87-392.48-140.26-74.99-19.16-154.12-15.21-231.83-11.13-29.64,1.56-60.4,3.41-86.75,17.4-55.18,29.29-71.73,99.34-77.81,160.88-6.68,67.7-6.08,141.99,35.95,194.8,23.47,29.49,57.34,48.74,91.05,65.91,154.7,78.76,324.72,128.4,498.6,145.58,30.33,3,61.12,5,91.32,0,56.71-9.41,106.55-42.52,154.37-74.81,30.49-20.58,62.21-42.51,79.32-74.92,21.97-41.59,15-93.17-6.39-134.31-21.39-41.14-55.4-74.03-88.85-106.17"/>
      <path class="cls-1" d="m793.85,824.08c-78.02-21.38-152.07-53.33-226.86-83.68-76.42-31.02-155.83-61.34-238.6-68.64-44.53-3.93-89.32-2.58-133.91-.42-38.73,1.88-81.68.76-116.32,20.82C20.95,725.29,7.77,799.74,2.38,859.97c-6.37,71.28-3.31,152.02,52.11,204.62,28.8,27.33,65.68,44.98,101.06,62.1,37.4,18.11,75.63,34.53,114.5,49.23,79.3,29.99,161.32,52.77,244.71,68.04,41.81,7.66,84.02,13.56,126.37,17.27,22.18,1.95,44.55,2.99,66.76.77,20.05-2.01,39.62-6.94,58.43-14.13,38.14-14.57,72.5-37.19,106.18-59.89,30-20.22,62.04-41.19,81.02-72.94,19.55-32.71,20.38-72.82,9.75-108.66-11.03-37.18-34.4-68.99-60.43-97.14-13.39-14.47-27.59-28.15-41.8-41.81-1.39-1.34-3.52.78-2.12,2.12,54.45,52.32,116.73,115.43,107.39,197.83-2.16,19.1-8.93,37.33-19.89,53.13-10.75,15.48-24.88,28.33-39.74,39.77s-30.99,22.03-46.79,32.55-33.2,21.73-50.54,31.37c-36.35,20.2-75.09,34.28-116.97,35.85-21.92.82-43.84-.98-65.63-3.19-20.58-2.09-41.11-4.62-61.58-7.62-81.66-11.96-162.26-31.1-240.58-57.13-39.49-13.13-78.4-28-116.56-44.6-36.72-15.97-73.64-32.86-108.13-53.29-32.65-19.34-61.11-44.2-77.36-79.12s-19.71-70.58-19.58-106.87c.12-34.48,3.13-69.63,10.26-103.39,6.53-30.87,17.38-62.36,38.32-86.57,10.74-12.42,23.99-22.44,39.05-29.01,18.73-8.17,39.31-10.95,59.53-12.46,42.43-3.16,85.29-5,127.83-4.44s86.04,4.78,127.84,15.72c38.99,10.2,77.24,22.98,114.9,37.29,71.65,27.21,141.34,59.41,214.05,83.83,19.27,6.47,38.71,12.42,58.32,17.79,1.86.51,2.66-2.38.8-2.89h0Z"/>
    </g>
    <g>
      <polyline class="cls-2" points="455.94 968.31 453.71 968.41 454.21 969.77 458.35 972.85 453.03 971.49 452.01 972.14 453.56 974.02 451.55 974.19 453.02 976.04 456.18 978.73 450.56 977.14 449.39 977.7 452.39 980.34 452.1 981.34 452.09 982.5 449.83 982.52 446.56 982.01 452.37 986.13 445.69 983.86 449.24 986.85 446.65 986.67 443.75 986.31 450.08 990.79 447.92 990.83 446.16 991.06 448.61 993.54 445.31 992.95 443.28 993.02 443.85 994.5 442.36 994.86 439.85 994.66 439.55 995.66 439.98 997.07 441.09 998.87 437.5 998.04 442.1 1001.8 440.77 1002.24 439.28 1002.58 440.55 1004.49 437.21 1003.78 439.23 1006.12 439.75 1007.62 437.03 1007.24 437.45 1008.68 434.31 1008.04 433.63 1008.83 435.78 1011.29 432.43 1010.51 435.18 1013.33 429.9 1011.4 435.73 1016.06 429.86 1013.76 429.78 1014.91 428.91 1015.59 427.96 1016.21 427.18 1016.94 430.77 1020.32 432.07 1022.32 427.54 1020.76 428.47 1022.54 425.81 1022.11 423.96 1022.18 426.44 1024.92 423.94 1024.59 427.65 1028.09 424.51 1027.36 423.18 1027.75 424.8 1029.96 424.45 1030.96 425.45 1032.8 420.23 1030.76 423.88 1034.25 417.85 1031.69 417.89 1032.93 421.36 1036.32 422.16 1038.03 418.16 1036.74 420.27 1039.28 416.37 1038.04 419.07 1040.96 413.69 1038.78 414.16 1040.29 418.63 1044.33 417.91 1045.09 414.93 1044.42 416.77 1046.79 414.2 1046.39 412.66 1046.63 413.85 1048.59 414.32 1050.1 409.75 1048.45 407.14 1048.02 406.59 1048.89 412.06 1053.53 411.33 1054.28 405.91 1052.11 407.9 1054.56 406.62 1054.97 405.73 1055.63 407.43 1057.89 402.45 1056.01 407.75 1060.49 406.91 1061.18 406.55 1062.16 405.16 1062.51 402.97 1062.36 402.06 1063.02 403.2 1064.91 399.37 1063.78 399.33 1064.96 402.36 1067.99 397.09 1066.02 400.08 1069.01 401.73 1071.19 398.51 1070.46 399.34 1072.14 396.69 1071.76 393.69 1071.19 392.79 1071.86 392.56 1072.92 396.15 1076.21 391.76 1074.85 396.09 1078.53 394.28 1078.68 395.11 1080.33 393.48 1080.58 390.14 1079.86 390.06 1081 393.31 1084.01 392.11 1084.5 391.36 1085.26 387.89 1084.51 385.94 1084.61 388.69 1087.3 388.7 1088.47 387.25 1088.85 386.19 1089.44 389.08 1092.16 388.96 1093.25 383.55 1091.52 386.6 1094.31 383.98 1094.08 382.88 1094.67 381.27 1094.99 380.81 1095.91 384.59 1099.02 383.56 1099.64 384.08 1101.06 382.64 1101.47 378.32 1100.44 383.21 1104.04 382.82 1104.99 381.01 1105.23 376.22 1104.03 381.42 1107.71 381.25 1108.76 379.06 1108.84 380.6 1110.71 379.96 1111.53 374.13 1109.91 378.45 1113.08 373.43 1111.87 376.78 1114.56 374.49 1114.64 371.84 1114.56 375.99 1117.58 374.98 1118.25 374.95 1119.36 368.66 1117.7 371.55 1120.12 368.11 1119.75 369.75 1121.58 373.88 1124.43 372.16 1124.8 368.35 1124.36 365.85 1124.47 372.73 1128.28 369.79 1128.23 365.38 1127.65 364.45 1128.42 365.39 1129.87 367.55 1131.74 363.84 1131.52 364.39 1132.82 367.59 1135 368.42 1136.35 364.59 1136.15 362.07 1136.42 366 1138.76 363.33 1138.99 364.18 1140.33 363.41 1141.17 360.31 1141.32 366.92 1144.33 363.4 1144.37 366.17 1146.22 364.07 1146.68 362.34 1147.26 363.14 1148.54 358.15 1148.27 365.37 1151.22 363.11 1151.69 359.88 1151.92 359.27 1152.83 362.19 1154.6 360.93 1155.34 357.77 1155.65 361.02 1157.46 361.01 1158.5 361 1159.55 355.88 1159.46 359.98 1161.41 359.91 1162.44 357.02 1162.87 358.28 1164.18 354.93 1164.54 358.68 1166.35 356.22 1166.9 357.59 1168.22 357.79 1169.3 356.24 1170.05 359.58 1171.72 355.83 1172.06 356.16 1173.16 354.06 1173.83 353.62 1174.79 357.23 1176.47 356.81 1177.44 357.24 1178.54 351.9 1178.68 357.56 1180.67 353.77 1181.08 352.44 1181.91 354.59 1183.29 351.01 1183.76 350.7 1184.76 356.93 1186.76 357.94 1187.95 356.04 1188.69 351.34 1189.02 352.24 1190.2 353.11 1191.36 354.48 1192.59 353.52 1193.49 354.67 1194.69 352.21 1195.37 350.86 1196.22 355.16 1197.85 349.01 1198.05 356.47 1200.09 351.52 1200.46 352.57 1201.63 353.87 1202.84 352.09 1203.64 351.58 1204.6 355.12 1206.1 352.46 1206.79 351.72 1207.72 351.1 1208.68 349.17 1209.47 349.76 1210.58 353.16 1212.04 353.85 1213.16 354.18 1214.23 352.95 1215.11 352.22 1216.05 354.07 1217.31 353.1 1218.23 353.86 1219.35 352.43 1220.21 352.13 1221.21 351.33 1222.16 348.33 1222.84 350.16 1224.11 348.54 1224.96 346.1 1225.74 351.98 1227.44 348.91 1228.15 349.66 1229.27 349.46 1230.29 352.27 1231.59 349.38 1232.37 350.18 1233.47 349.91 1234.48 346.69 1235.31 345.34 1236.3 349.56 1237.56 348.17 1238.53 351.69 1239.67 351.6 1240.68 351.93 1241.69 351.89 1242.69 348.99 1243.73 350.55 1244.72 350.53 1245.73 345.45 1247.01 348.45 1247.89 351.17 1248.72 350.02 1249.83 350.87 1250.77 350.96 1251.77 350.98 1252.78 347.78 1254.3 348.41 1255.26 350.65 1255.92 347.26 1257.65 351.49 1257.81 348.68 1259.54 351.32 1259.95 347.29 1262.12 354.6 1261.08 352.87 1262.64 352.74 1263.74 348.66 1266.25 354.45 1265.24 350.13 1268 353.95 1267.59 351.23 1269.86 350.46 1271.38 356.34 1269.81 352.86 1272.63 355.29 1272.57 357.56 1272.52 355.93 1274.56 355.89 1275.77 360.19 1274.42 357.61 1277.16 356.4 1279.15 357.81 1279.49 358.95 1279.98 358.97 1281.23 358.7 1282.72 362.6 1281.12 360.22 1284.23 362.79 1283.53 362.6 1285 363.89 1285.27 364.89 1285.76 365.24 1286.81 366.5 1287.05 365.54 1289.33 366.54 1289.82 364.92 1292.85 368.74 1290.55 371.78 1288.91 371.18 1290.96 371.79 1291.79 372.84 1292.14 370.86 1295.86 370.98 1297.32 375.79 1293.34 374.85 1296.01 373.07 1299.78 377.65 1295.8 375.53 1300.1 375.46 1301.9 378.86 1299.21 381.35 1297.6 378.7 1302.88 381.29 1301.09 383.34 1299.98 382.44 1303.02 385.03 1301.08 382.99 1305.9 384.22 1305.94 386.25 1304.75 388.29 1303.49 385.84 1309.24 389.42 1305.51 389.03 1308.09 390.49 1307.68 389.52 1311.32 391.46 1310.09 393.24 1309.1 393.49 1310.73 394.44 1311.16 397.64 1307.53 394.97 1314.5 395.86 1315.05 399.13 1311.18 399.29 1313.07 401.94 1310.21 401.49 1313.3 402.1 1314.36 402.04 1316.77 403.9 1315.38 403.9 1317.71 405.4 1317 407.74 1314.51 406.25 1320 407.38 1320.02 409.33 1318.28 411.21 1316.67 413.05 1315.12 412.52 1318.7 412.16 1321.97 414.76 1318.71 415.28 1320.04 416.05 1320.83 416.7 1321.88 416.69 1324.5 418.47 1322.98 420.93 1319.77 419.44 1325.99 422.11 1322.22 421.86 1325.57 424.98 1320.55 424.83 1323.68 424.82 1326.5 427.53 1322.31 426.4 1328.19 428.85 1324.56 429.48 1325.8 430.4 1326.27 431.59 1325.95 431.77 1328.58 434.49 1323.73 434.28 1327.55 434.79 1329.31 436.79 1326.38 437.51 1327.49 438.46 1327.84 439.79 1326.88 439.57 1331.4 440.7 1331.21 442.16 1329.73 443.42 1328.88 443.49 1332.86 444.43 1333.44 445.3 1334.34 446.66 1333.05 448.57 1328.91 448.82 1332.86 450.42 1329.84 451.1 1331.79 452.38 1330.29 452.96 1333.17 453.67 1335.56 455.43 1330.1 456.2 1332.16 457.38 1330.56 458.01 1334.66 459.45 1329.48 460 1336.45 461.29 1331.76 462.27 1332.57 463.31 1331.15 464.3 1330.5 465.35 1336.32 466.38 1334.83 467.22 1330.01 468.59 1336.65 469.25 1331.05 470.32 1331.92 471.12 1330.05 472.48 1333.03 473.67 1334.04 473.98 1329.55 476.15 1335.91 475.82 1328.88 476.77 1328.76 478.07 1330.03 478.54 1327.95 480.18 1330.2 481.85 1332.21 481.15 1326.79 484.33 1332.89 483.8 1328.45 484.92 1328.59 485.96 1328.48 488.21 1330.99 487.05 1326.06 487.33 1324.45 489.14 1325.82 492.25 1329.34 490.57 1324.33 490.68 1322.62 493.22 1324.83 492.64 1322.1 493.31 1321.36 495.13 1322.23 497.51 1323.77 496.21 1320.34 497.93 1320.92 499.29 1321 498.53 1318.48 503.21 1322.39 501.61 1318.96 500.82 1316.56 500.53 1314.78 506.3 1319.42 505.3 1316.86 503.07 1313.16 504.55 1313.22 507.09 1314.26 509.8 1315.4 509.34 1313.53 507.27 1310.24 507.13 1308.76 513.28 1312.84 513.02 1311.22 509.98 1307.24 513.05 1308.51 511.67 1306.01 513.34 1306.06 512.55 1304.1 512.03 1302.37 517.91 1305.77 517.05 1303.75 515.75 1301.43 514.38 1299.06 519.03 1301.37 520.53 1301.21 518.93 1298.69 519.24 1297.64 521.88 1298.34 522.95 1297.86 520.56 1294.78 523.58 1295.75 520.78 1292.39 525.45 1294.57 526.3 1293.91 522.48 1289.83 527.03 1291.88 528.51 1291.68 527.46 1289.65 524.75 1286.43 526.86 1286.68 531.52 1288.75 531.55 1287.5 527.98 1283.71 531.27 1284.77 528.74 1281.75 530.54 1281.75 529.2 1279.57 530.58 1279.28 531.71 1278.82 534.16 1279.26 535.19 1278.72 538.12 1279.47 533.58 1275.14 533.17 1273.63 538.26 1275.82 540.25 1275.91 537.11 1272.57 541.36 1274.16 538.51 1271.03 539.29 1270.32 542.18 1270.98 539.64 1268.09 539.43 1266.73 544.95 1269.09 542.37 1266.19 545.83 1267.19 545.27 1265.6 542.49 1262.61 545.19 1263.11 545.46 1262.06 545.51 1260.88 545.06 1259.38 545.98 1258.75 548.64 1259.19 549.64 1258.6 545.62 1254.91 550.21 1256.52 546.71 1253.18 549.85 1253.9 549.61 1252.55 553.74 1253.84 548.56 1249.52 548.85 1248.5 549.79 1247.88 556.24 1250.51 556 1249.17 557.38 1248.78 551.86 1244.35 557.38 1246.38 557.47 1245.24 555.91 1243.15 558.35 1243.37 557.03 1241.42 555.84 1239.56 557.36 1239.24 558.32 1238.61 556.43 1236.36 559.91 1237.14 559.87 1235.94 561.01 1235.4 561.3 1234.39 560.76 1232.92 560.54 1231.62 562.37 1231.45 562.83 1230.54 561.12 1228.44 563.95 1228.8 565.61 1228.53 567.21 1228.21 568.84 1227.91 562.97 1223.63 565.06 1223.58 565.9 1222.86 565.75 1221.63 571.64 1223.53 566.69 1219.81 566.65 1218.63 566.68 1217.49 567.82 1216.93 567.69 1215.71 569.61 1215.54 568.84 1214 574.71 1215.81 568.83 1211.71 573.99 1213.14 569.79 1209.9 574.9 1211.29 577.31 1211.32 576.88 1209.96 574.3 1207.55 572.21 1205.4 574.16 1205.2 579.45 1206.6 577.16 1204.36 579.75 1204.46 575.53 1201.31 575.79 1200.3 577.15 1199.81 578.5 1199.31 582.92 1200.23 582.97 1199.11 581.02 1197.08 582.66 1196.7 579.72 1194.22 579.01 1192.77 580.45 1192.3 583.33 1192.47 585.86 1192.48 581.26 1189.29 583.56 1189.19 586.2 1189.24 581.21 1185.91 586.91 1187.29 582.71 1184.34 586.35 1184.8 584.77 1183 586.31 1182.54 583.86 1180.37 588 1181.02 590.71 1181.05 588.85 1179.15 586.05 1176.86 591.61 1178.06 590.74 1176.59 588.32 1174.47 593.05 1175.31 590.84 1173.28 588.13 1171.07 589.59 1170.56 588.83 1169.15 589.59 1168.35 591.66 1168.07 594.41 1168.06 596.95 1167.95 593.63 1165.53 596.48 1165.54 594.71 1163.74 592.03 1161.6 593.86 1161.21 592.37 1159.54 596.69 1160.09 598.78 1159.78 599.77 1159.05 599.84 1157.97 598.25 1156.27 597.45 1154.88 599.02 1154.36 595.16 1151.84 602.25 1153.34 602.27 1152.25 598.57 1149.81 600.95 1149.58 603 1149.21 597.31 1146.09 600.63 1146.18 601.33 1145.34 598.95 1143.41 600.76 1142.96 601.81 1142.24 603.91 1141.87 606.39 1141.63 600.49 1138.53 603.31 1138.4 604.23 1137.63 606.49 1137.3 602.98 1135.04 608.35 1135.74 602.99 1132.88 604.02 1132.14 605.37 1131.5 609.24 1131.67 604.08 1128.92 609.84 1129.69 605.33 1127.16 608.62 1127.13 608.42 1125.98 611.4 1125.84 609.03 1124.02 609.02 1122.93 606.87 1121.2 608.53 1120.63 608.23 1119.46 607.56 1118.19 610.5 1118 612.49 1117.52 608.21 1115.17 613.71 1115.73 614.64 1114.92 608.65 1112.09 609.07 1111.15 612.49 1111.07 611.16 1109.61 609.88 1108.18 614.65 1108.46 613.46 1107.05 614.51 1106.28 617.56 1106.06 616.98 1104.82 615.9 1103.45 616.68 1102.59 617.31 1101.69 615.76 1100.19 615.3 1098.99 612.93 1097.29 618.08 1097.57 612.92 1095.16 619.44 1095.76 613.72 1093.24 616.07 1092.76 618.69 1092.34 614.97 1090.37 615.34 1089.4 614.91 1088.25 616.51 1087.56 614.64 1086.09 621.66 1086.56 622.28 1085.61 616.52 1083.35 617.65 1082.53 620.05 1081.95 622.78 1081.39 620.99 1079.99 621.03 1078.94 620.16 1077.74 618.03 1076.35 623.34 1076.11 623.21 1075.02 618.78 1073.36 617.85 1072.21 619.56 1071.39 617.98 1070.19 623.36 1069.7 617.52 1068.12 622.37 1067.5 621.59 1066.39 620.01 1065.25 625.42 1064.51 623.78 1063.36 620.18 1062.18 620.37 1061.16 619.11 1060.13 622.84 1059.14 623.18 1058.09 624.27 1057.03 621.49 1056.05 625.51 1054.89 622.7 1053.94 625.02 1052.78 622.67 1051.87 621.66 1050.9 620.82 1049.93 621.61 1048.83 619.61 1047.98 621.21 1046.8 619.82 1045.92 621.29 1044.71 618.59 1044.01 619.22 1042.91 618.24 1042.02 620.43 1040.67 617.37 1040.1 619.41 1038.75 619.07 1037.76 619.39 1036.67 619.42 1035.62 618.28 1034.79 621.48 1033.12 619.05 1032.54 617.59 1031.79 615.15 1031.27 618.32 1029.54 615.03 1029.23 614.99 1028.2 614 1027.39 617.88 1025.41 616.51 1024.68 620.66 1022.58 619.08 1021.9 617.87 1021.14 619.18 1019.72 617.6 1019.07 614.56 1018.83 613.16 1018.15 614.17 1016.81 612.51 1016.22 614.97 1014.43 611.79 1014.3 616.43 1011.84 615.95 1010.9 613.75 1010.49 615.89 1008.75 616.29 1007.53 609.4 1008.62 609.89 1007.39 613.01 1005.31 608.15 1005.8 610.12 1004.07 609.6 1003.16 610.45 1001.8 606.98 1001.87 612.56 998.91 612.91 997.69 612.07 996.88 607.25 997.44 610.05 995.39 606.06 995.68 609.38 993.43 609.86 992.17 605.31 992.67 606.35 991.21 608.03 989.52 609.91 987.75 606.93 987.71 606.17 986.89 601.4 987.5 602.32 986.07 605.41 983.88 606.94 982.24 603.63 982.33 604.71 980.86 600.69 981.22 604.7 978.68 601.29 978.82 603.34 976.98 599.15 977.43 604.64 974.3 603.38 973.67 602.67 972.83 599.57 972.91 602.02 970.86 596.53 971.9 601.23 968.95 599.01 968.72 598.98 967.62 599.5 966.29 598.91 965.42 600.19 963.75 594.86 964.91 594.96 963.76 594.27 962.95 598.96 959.7 596.61 959.63 591.2 961.05 593.67 958.74 593.53 957.67 595.58 955.48 592.57 955.86 591.82 955.09 593.02 953.28 593.12 952.04 590.41 952.37 589.51 951.72 587.71 951.61 591.74 947.96 589.06 948.4 585.8 949.29 588.03 946.61 584.36 947.88 587.51 944.44 587.58 943.09 588.3 941.23 585.79 941.8 583.84 942.03 585.74 939.12 582.89 940.15 581.29 940.19 578.94 940.98 578.15 940.4 579.21 938 581.27 934.46 580.88 933.3 577.95 934.92 579.22 931.89 577.24 932.55 577.07 931.09 573.66 933.72 575.3 929.87 572.29 932.22 572.58 930.04 569.57 932.69 570.36 929.67 570.29 927.83 566.86 931.6 566.6 930.12 565.86 929.43 565.82 927.35 565.62 925.47 563.58 927.34 563.59 924.88 561.74 926.58 562.15 922.91 559.37 927.19 560.76 920.52 558.97 922.38 558.19 921.36 555.59 926.31 554.6 926.25 555.45 919.29 554.48 918.69 552.03 924.57 551.25 923.5 550.71 921.07 549.55 921.67 548.97 918.78 547.01 925.19 546.75 919.36 545.25 923.62 544.7 918.73 543.73 917.35 542.36 922.73 541.53 918.49 540.46 919.06 539.4 921.64 538.4 921.59 537.43 923 536.39 921.83 535.42 922.33 534.05 917.64 533.47 922.88 532.09 919.48 530.99 919.15 530.18 920.87 529.09 920.59 528.92 925.46 526.49 918.1 526.69 924.23 525.11 921.78 524.03 921.73 523.28 923 523.09 926.17 522 925.96 519.65 921.57 519.28 923.92 518.05 923.48 518.13 926.89 515.5 922.5 516.32 927.77 515.1 927.36 512.27 922.92 511.35 923.48 511.11 925.67 511.38 928.91 509.05 926.14 510.06 930.87 507.11 926.9 505.79 926.56 505.52 928.39 506.56 932.8 505.82 933.55 504.06 932.32 503.17 932.8 502.71 934.1 500.46 932.07 498.02 929.79 498.74 933.21 498.02 934.01 498.63 937.1 496.49 935.45 494.39 933.91 496.1 938.78 494.82 938.61 490.84 934.06 492.67 938.99 490.91 938.1 490.5 939.37 487.65 936.79 487.6 938.64 486.68 939.11 486.56 940.82 487.47 944.11 483.54 939.95 482.97 940.97 483.57 943.76 480.58 941.09 481.77 944.75 479.53 943.23 477.64 942.23 480.36 948.19"/>
      <path class="cls-1" d="m455.94,966.81l-2.23.1c-.9.04-1.8.94-1.45,1.9.46,1.27.81,1.98,1.89,2.79,1.14.85,2.29,1.7,3.43,2.55l1.16-2.74-4.17-1.07c-1.42-.36-2.04-.31-3.32.51-.87.56-.93,1.6-.3,2.36l1.55,1.88,1.06-2.56-2.02.17c-1.37.12-1.88,1.52-1.06,2.56,1.4,1.76,2.91,3.08,4.63,4.54l1.46-2.51c-1.44-.41-2.89-.82-4.33-1.23-1.51-.43-2.15-.35-3.61.35-.84.41-.99,1.75-.3,2.36l3,2.63-.39-1.46c-.26.9-.35,1.63-.35,2.56l1.5-1.5h-1.32c-.25.01-.51.02-.76.01-.39-.01.57.07-.03.02-1.01-.09-2.03-.31-3.03-.47-1.68-.26-2.59,1.72-1.16,2.74,1.94,1.37,3.87,2.75,5.81,4.12l1.16-2.74c-2.23-.76-4.45-1.51-6.68-2.27-1.38-.47-2.6,1.54-1.46,2.51s2.37,1.99,3.56,2.99l1.06-2.56c-1.84-.13-3.66-.32-5.49-.54-1.63-.2-1.82,2.04-.76,2.8,2.11,1.49,4.22,2.99,6.33,4.48l.76-2.8c-1.35.02-2.59.09-3.92.27-1.22.16-2.06,1.55-1.06,2.56l2.45,2.48,1.46-2.51c-1.98-.35-3.72-.64-5.73-.57-.88.03-1.82.95-1.45,1.9l.58,1.48,1.05-1.85c-1.41.34-1.82.24-3.61.1-.66-.05-1.27.51-1.45,1.1-.63,2.14.28,3.57,1.4,5.37l1.69-2.2c-1.2-.28-2.4-.55-3.59-.83-1.34-.31-2.7,1.49-1.46,2.51,1.53,1.25,3.07,2.5,4.6,3.76l.66-2.51c-.94.31-1.85.56-2.81.79-.91.21-1.42,1.42-.9,2.2l1.27,1.91,1.69-2.2-3.34-.72c-1.5-.32-2.44,1.36-1.46,2.51.53.62,1.04,1.26,1.6,1.86.11.12.22.25.33.38.2.24-.32-.8-.2-.3.1.42.29.84.43,1.24l1.85-1.85-2.72-.38c-1.07-.15-2.2.63-1.85,1.85l.42,1.44,1.85-1.85-3.14-.63c-.5-.1-1.1-.03-1.46.39l-.68.79c-.55.65-.57,1.47,0,2.12.72.82,1.44,1.64,2.15,2.46l1.46-2.51c-1.12-.26-2.23-.52-3.35-.78-1.44-.34-2.53,1.41-1.46,2.51.91.94,1.83,1.88,2.74,2.82l1.46-2.51c-1.76-.64-3.52-1.29-5.28-1.93-1.37-.5-2.62,1.58-1.46,2.51,1.94,1.56,3.89,3.11,5.83,4.67l1.46-2.51c-1.96-.77-3.91-1.54-5.87-2.3-.97-.38-1.84.57-1.9,1.45l-.07,1.15.74-1.3c-.98.76-2,1.41-2.91,2.26-.58.54-.58,1.58,0,2.12.97.91,1.94,1.83,2.91,2.74.18.17.39.34.55.52.25.28-.26-.36.05.06.41.55.76,1.17,1.14,1.75l1.69-2.2c-1.51-.52-3.02-1.04-4.54-1.56-1.31-.45-2.26,1.12-1.69,2.2l.93,1.78,1.69-2.2c-1.69-.27-3.2-.47-4.91-.41-1.33.05-1.94,1.59-1.06,2.56.83.91,1.65,1.82,2.48,2.73l1.06-2.56-2.5-.33c-1.32-.18-1.93,1.74-1.06,2.56,1.24,1.17,2.47,2.33,3.71,3.5l1.46-2.51c-1.96-.46-3.32-.91-5.26-.34-.85.25-1.49,1.4-.9,2.2.54.74,1.08,1.48,1.62,2.22l-.15-1.16c-.59,1.72-.02,2.46.8,3.99l1.69-2.2c-1.74-.68-3.48-1.36-5.22-2.04-1.43-.56-2.48,1.53-1.46,2.51l3.64,3.49,1.82-2.36c-2.01-.85-4.02-1.7-6.02-2.55-.98-.42-2.29.04-2.26,1.3.05,1.89.62,2.43,1.92,3.71.61.6,1.39,1.18,1.9,1.86.14.14.12.11-.07-.09l.27.58c.14.35.32.7.48,1.04l1.69-2.2c-1.33-.43-2.66-.86-3.99-1.29-1.55-.5-2.34,1.45-1.46,2.51.7.85,1.4,1.69,2.11,2.54l1.46-2.51c-1.3-.41-2.6-.83-3.9-1.24-1.49-.47-2.43,1.46-1.46,2.51.9.97,1.8,1.94,2.7,2.91l1.46-2.51c-1.79-.72-3.59-1.45-5.38-2.17-1.07-.43-2.16.84-1.85,1.85.46,1.48.81,2.13,1.93,3.14s2.27,2.04,3.41,3.07v-2.12l-.72.76,1.46-.39c-1-.22-1.99-.44-2.99-.67-1.56-.35-2.35,1.36-1.46,2.51.61.79,1.23,1.58,1.84,2.37l1.46-2.51c-1.77-.28-3.14-.44-4.91-.16-.96.15-1.36,1.45-.9,2.2.85,1.4,1.08,1.74,1.51,3.11l1.85-1.85c-2.43-.88-4.63-1.66-7.18-2.08-.69-.11-1.3.08-1.69.69l-.56.87c-.33.52-.25,1.41.23,1.82,1.83,1.55,3.65,3.09,5.48,4.64v-2.12l-.73.75,1.46-.39c-1.81-.72-3.62-1.45-5.42-2.17-1.55-.62-2.28,1.49-1.46,2.51l1.99,2.45.66-2.51c-.99.32-1.69.6-2.53,1.22-.59.44-1.07,1.35-.54,2.05.56.75,1.13,1.5,1.69,2.26l1.69-2.2c-1.66-.62-3.32-1.25-4.98-1.87-1.38-.52-2.58,1.56-1.46,2.51,1.77,1.49,3.54,2.99,5.3,4.48v-2.12c-.88.71-1.2,1.26-1.59,2.32l1.05-1.05c-1.26.32-1.01.3-2.28.21-1.13-.07-1.63.13-2.56.8-.65.47-.99,1.3-.54,2.05.38.63.76,1.26,1.13,1.89l1.69-2.2c-1.28-.37-2.55-.75-3.83-1.12-.96-.28-1.87.49-1.9,1.45-.04,1.18.04,1.85.87,2.71s1.7,1.7,2.56,2.55l1.46-2.51c-1.76-.66-3.51-1.32-5.27-1.97-1.45-.54-2.46,1.51-1.46,2.51,1.98,1.98,2.91,2.89,4.41,4.87l1.69-2.2c-1.07-.24-2.15-.49-3.22-.73-1.32-.3-2.28,1.02-1.69,2.2l.83,1.69,1.69-2.2c-1.65-.24-3.28-.51-4.93-.82-2.03-.38-3.26.67-3.7,2.64-.11.51-.02,1.09.39,1.46,1.2,1.1,2.4,2.19,3.59,3.29l1.46-2.51c-1.46-.45-2.93-.91-4.39-1.36-1.38-.43-2.61,1.52-1.46,2.51,1.44,1.23,2.88,2.46,4.32,3.69l1.06-2.56-1.8.14c-1.17.09-1.82,1.19-1.3,2.26l.82,1.65.9-2.2c-.44.07-.94.07-1.36.21s.59.09.39.01c-.18-.07-.44-.09-.62-.13-.85-.22-1.72-.37-2.58-.55-1-.22-1.82.44-1.9,1.45-.09,1.19,0,1.83.86,2.67s1.83,1.7,2.75,2.54l.66-2.51c-1.09.44-1.79.8-2.61,1.64l1.46-.39c-2.03-.44-3.75-.81-5.82-.71-1.26.06-2.03,1.61-1.06,2.56.92.9,1.83,1.79,2.75,2.69l-.44-1.06v1.17c.37-.48.74-.96,1.11-1.45-1.07.28-1.91.58-2.87,1.12-.83.46-1,1.7-.3,2.36.97.91,1.93,1.82,2.9,2.72l-.44-1.06-.13,1.09,1.9-1.45c-1.8-.57-3.6-1.15-5.41-1.72-1.41-.45-2.56,1.5-1.46,2.51,1.02.93,2.04,1.86,3.06,2.78l1.06-2.56c-1.5-.13-2.55-.33-3.93.27-.48.21-.99.13-1.74.45-.82.35-1.03.86-1.42,1.62-.28.55-.29,1.38.23,1.82,1.26,1.04,2.52,2.07,3.78,3.11l.3-2.36-1.03.62c-.53.32-.92,1.07-.69,1.69l.53,1.42,1.05-1.85c-.45.13-.9.24-1.34.38.76-.24.78.15.29-.06-.24-.1-.54-.13-.79-.19l-3.14-.74c-1.73-.41-2.49,1.76-1.16,2.74,1.63,1.2,3.26,2.4,4.89,3.6l-.69-1.69-.38.95,1.45-1.1c-.56.07-1.15.23-1.71.23.62,0-.7-.18-.94-.25-1.18-.3-2.36-.59-3.54-.89-1.71-.43-2.51,1.78-1.16,2.74,1.73,1.23,3.46,2.45,5.2,3.68l-.69-1.69-.17,1.05,1.45-1.1c-.73.03-1.46.05-2.19.08-1.38.05-1.88,1.57-1.06,2.56l1.55,1.87v-2.12l-.64.82,1.46-.39c-1.94-.54-3.89-1.08-5.83-1.62-1.73-.48-2.47,1.78-1.16,2.74,1.44,1.06,2.88,2.11,4.32,3.17l1.16-2.74c-1.67-.4-3.35-.8-5.02-1.21-1.34-.32-2.7,1.51-1.46,2.51,1.11.9,2.23,1.79,3.34,2.69l1.06-2.56c-1.65.05-3.28.05-4.94,0s-1.88,1.98-.76,2.8c1.38,1,2.76,2.01,4.14,3.01v-2.59c-1.36.91-1.73,1.42-1.78,3.08l1.9-1.45c-2.1-.55-4.19-1.11-6.29-1.66-1.36-.36-2.66,1.5-1.46,2.51l2.89,2.42,1.06-2.56c-1.15-.12-2.29-.25-3.44-.37-1.39-.15-1.84,1.69-1.06,2.56,1.81,2.03,3.83,3.37,6.07,4.91l.36-2.74c-.35.08-.7.15-1.04.23-.19.04-.87.09-.33.09-.8,0-1.65-.19-2.45-.29-1.3-.15-2.5-.1-3.81-.03-1.43.07-2.12,2.04-.76,2.8,2.29,1.27,4.59,2.54,6.88,3.81l.76-2.8c-1.54-.03-3.01-.06-4.53-.26-.86-.11-1.9-.42-2.77-.36s-1.41.68-2.04,1.2c-.49.4-.57,1.3-.23,1.82.97,1.49,1.99,2.46,3.34,3.63l1.06-2.56c-1.24-.07-2.47-.15-3.71-.22s-1.7,1.3-1.3,2.26c.55,1.3,1.03,1.79,2.18,2.58.64.44,1.26.91,1.93,1.31.3.18-.29-.72-.15-.07.07.32.44.71.61,1l1.3-2.26c-2.18-.11-4.18-.16-6.35.07-1.41.15-2.13,1.98-.76,2.8s2.62,1.56,3.93,2.34l.76-2.8-2.67.23c-1.07.09-1.95,1.22-1.3,2.26l.85,1.34.23-1.82-.77.84,1.06-.44c-1.03.05-2.07.1-3.1.15-1.36.07-2.21,2.13-.76,2.8,2.2,1,4.4,2.01,6.61,3.01l.76-2.8-3.51.04c-1.54.02-1.97,1.99-.76,2.8.92.62,1.85,1.23,2.77,1.85l.36-2.74c-1.32.29-2.55.62-3.84,1.04-.88.29-1.44,1.34-.9,2.2l.81,1.28,1.3-2.26c-1.67-.09-3.33-.18-5-.27-1.83-.1-1.84,2.36-.4,2.95,2.41.98,4.81,1.97,7.22,2.95v-2.89c-.66.14-1.31.29-1.97.41-.53.09.41-.03-.26.03-.41.04-.83.06-1.24.09-1.78.13-2.47.21-3.53,1.77-.46.68-.12,1.65.54,2.05.98.59,1.95,1.18,2.93,1.77v-2.59c-.28.16-.72.32-.94.55-.33.35.01.05.37,0-.19.03-.4.05-.59.06-.83.05-1.67.16-2.5.24-1.39.13-2.16,2.01-.76,2.8,1.08.6,2.16,1.21,3.25,1.81l-.74-1.3c0,.7-.02,1.39-.02,2.09l1.5-1.5c-1.7-.03-3.41-.06-5.11-.09-1.42-.03-2.13,2.14-.76,2.8s2.73,1.3,4.1,1.95l-.74-1.3-.08,1.03,1.1-1.45-2.89.43c-1.17.18-1.37,1.77-.66,2.51l1.26,1.31,1.06-2.56c-1.12.12-2.23.24-3.35.36-1.32.14-2.24,2.08-.76,2.8l3.76,1.81.36-2.74-2.46.55c-1.1.25-1.45,1.75-.66,2.51.36.35.76.68,1.1,1.06.38.41-.03-.05-.08-.23.08.29.12.61.17.91l.69-1.69-1.55.75c-.99.48-.97,2.11,0,2.59l3.34,1.67.76-2.8-3.75.34c-.94.09-1.75.89-1.45,1.9l.33,1.1,1.05-1.85c-1.68.53-2.67.65-3.44,2.32-.31.68-.25,1.69.54,2.05,1.2.56,2.41,1.12,3.61,1.68l-.54-2.05c-.57,1.3-.66,1.9-.15,3.23l1.45-1.9c-1.78.05-3.56.09-5.33.14s-1.98,2.39-.4,2.95c1.88.66,3.77,1.32,5.65,1.98l.4-2.95c-2.2.24-3.98.26-5.87,1.44-.98.61-.96,1.97,0,2.59l2.15,1.39.76-2.8c-1.19.16-2.39.32-3.58.47-.69.09-1.23.41-1.45,1.1l-.31,1c-.25.8.3,1.6,1.05,1.85,1.36.44,2.71.87,4.07,1.31.65.21,1.32.38,1.96.63.38.15-.4-.69-.21-.02.08.27.55.65.75.88l.66-2.51c-1.35.53-1.42.68-2.48.76-1.24.09-2.48.18-3.72.26-1,.07-2.05,1.27-1.3,2.26,1.07,1.4,2.06,2.69,3.37,3.87v-2.12l-.95.9c-.6.56-.55,1.55,0,2.12l1.15,1.2.66-2.51c-1.56.44-2.8.82-4.17,1.69-1.16.73-.83,2.29.36,2.74,1.43.54,2.87,1.09,4.3,1.63l.4-2.95c-2.05.06-4.1.13-6.15.19-1.67.05-2.07,2.49-.4,2.95,2.49.68,4.97,1.36,7.46,2.05l.4-2.95-4.95.37c-1.31.1-1.96,1.56-1.06,2.56.75.84,1.52,1.61,2.35,2.38l.3-2.36c-1.4.63-2.1.92-2.82,2.31-.49.95-.01,1.82.9,2.2,1.18.5,2.36.99,3.54,1.49v-2.89c-.98.25-2.33.36-3.17.96-.73.52-1.27,1.57-1.75,2.31l.9-.69c-.64.26-1.29.53-1.93.79-.91.37-1.39,1.27-.9,2.2.81,1.54,1.43,1.78,3.01,2.46.33.14.76.43,1.12.48.73.1-.05-.26.02-.11.38.78.43.68.71,1.58l.69-1.69c-1.01.72-1.73,1.37-2.49,2.36-.52.67-.06,1.64.54,2.05s1.24.84,1.85,1.26l-.3-2.36-.98.91c-.46.43-.6,1.29-.23,1.82l.76,1.13.54-2.05c-.53.32-1.32.61-1.74,1.09-.27.3-.37.62-.48.99-.36,1.11.17-.35-.1.35-.23.6-.69.5.09.24-.34.11-.72.16-1.07.24-.63.14-1.25.28-1.88.42-1.35.31-1.35,2.05-.36,2.74l1.83,1.27v-2.59c-.33.17-.65.35-.98.52-.62.32-.31.18-.53.27-.71.27-1.46.46-2.18.7-1.4.44-1.45,2.47,0,2.89,1.96.57,3.92,1.13,5.88,1.7v-2.89c-1.02.24-2.05.48-3.07.71-.91.21-1.42,1.41-.9,2.2l.75,1.12-.15-1.16-.2,1.02c-.12.6.07,1.41.69,1.69.94.43,1.88.86,2.81,1.29l.36-2.74-2.89.78c-.86.23-1.47,1.41-.9,2.2l.8,1.1-.15-1.16-.27,1.01,1.05-1.05c-1.9.49-3.35.81-4.93,1.97-1.02.74-.96,2.35.36,2.74l4.22,1.26-.36-2.74-1.39.98c-1.06.74-.92,2.33.36,2.74l3.52,1.14-1.1-1.45c-.11,1.21.24,1.98.2,3.01l1.1-1.45c-.97.35-1.93.69-2.9,1.04-1.21.44-1.49,2.02-.36,2.74l1.56.99-.74-1.3-.02,1.01,1.1-1.45c-1.69.43-3.39.85-5.08,1.28-1.47.37-1.39,2.48,0,2.89,1.91.56,3.81,1.14,5.71,1.71l-.66-2.51-1.15,1.11c-.6.58-.54,1.53,0,2.12l.85.93-.44-1.06c.06.68.1,1.34.11,2.02l.74-1.3-3.19,1.51c-.71.34-.95,1.42-.54,2.05,1.02,1.57,2.01,1.8,3.76,2.31l-.36-2.74c-1.13.58-2.26,1.16-3.39,1.74-1.39.71-.65,2.74.76,2.8l4.24.16-.76-2.8c-.94.57-1.88,1.15-2.82,1.72-1,.61-.99,2.53.36,2.74.88.14,1.76.28,2.64.41l-.36-2.74c-1.34.73-2.69,1.45-4.03,2.18-1.62.87-.4,2.96,1.16,2.74,2.44-.35,4.87-.7,7.31-1.04l-1.46-2.51c-1.4,1.26-2.07,1.81-2.3,3.71l.74-1.3c-1.36.84-2.72,1.68-4.08,2.51-1.51.93-.48,3.03,1.16,2.74,1.93-.34,3.86-.67,5.79-1.01l-1.16-2.74c-1.44.92-2.88,1.84-4.32,2.76-1.14.73-.82,2.97.76,2.8,1.27-.14,2.55-.28,3.82-.42l-1.06-2.56c-1.59,1.33-2.79,2.26-3.72,4.1-.58,1.14.38,2.56,1.69,2.2,1.96-.53,3.92-1.05,5.88-1.58l-1.46-2.51c-1.16.94-2.32,1.88-3.48,2.82-1.03.84-.16,2.59,1.06,2.56,1.57-.04,3.14-.07,4.71-.11l-1.06-2.56c-1.2,1.5-2.05,2.35-2.11,4.32-.03.95.98,1.73,1.9,1.45l4.3-1.35-1.46-2.51c-1.55,1.64-2.85,3.11-4.02,5.04-.49.81-.04,1.98.9,2.2,1.09.26,1.21.25,2.19.68l-.74-1.3c.02,1.11.02,1.15-.2,2.34-.18.98.68,2.32,1.85,1.85l3.9-1.6-1.69-2.2-2.38,3.11c-.84,1.09.54,2.52,1.69,2.2.86-.23,1.72-.46,2.57-.7l-1.9-1.45-.19,1.48c-.08.61.52,1.33,1.1,1.45.88.18,1.17.23,1.94.61l-.69-.9.35,1.05c.16.47.53.95,1.05,1.05l1.26.24-1.05-1.85-.96,2.28c-.24.57.15,1.43.69,1.69l1,.49-.54-2.05c-.54,1.01-1.08,2.02-1.62,3.03-.69,1.29.72,2.85,2.05,2.05,2.27-1.36,4.53-2.68,6.86-3.94l-2.2-1.69c-.29,1-.91,2.2-.44,3.21.5,1.11,1.48,1.51,2.55,1.87l-.9-2.2c-.55,1.04-1.13,2.08-1.67,3.13-.51,1-.49,1.68-.39,2.8.11,1.35,1.54,1.91,2.56,1.06,1.6-1.33,3.21-2.65,4.81-3.98l-2.51-1.46c-.85,2.42-1.35,3.5-2.57,6.08-.73,1.54,1.04,2.96,2.36,1.82,1.53-1.32,3.05-2.65,4.58-3.97l-2.36-1.82c-.6,1.21-1.2,2.41-1.79,3.62-.53,1.09-.56,2.03-.61,3.24-.06,1.43,1.62,1.81,2.56,1.06,2.3-1.82,3.38-2.64,5.58-4.07l-2.05-2.05-2.65,5.28c-.62,1.23.72,2.97,2.05,2.05,1.53-1.05,3.01-2.02,4.64-2.9l-2.2-1.69-.9,3.05c-.34,1.16,1.12,2.5,2.2,1.69.86-.65,1.72-1.29,2.59-1.94l-2.05-2.05c-.68,1.6-1.36,3.21-2.04,4.81-.44,1.04.06,2.21,1.3,2.26,2.35.09,4.11-1.41,6.05-2.61l-2.05-2.05c-.82,1.92-1.63,3.84-2.45,5.75-.62,1.45,1.07,3.16,2.36,1.82,1.19-1.24,2.39-2.49,3.58-3.73l-2.51-1.46-.39,2.58c-.16,1.09.64,2.18,1.85,1.85l1.46-.4-1.85-1.85c-.32,1.21-.65,2.42-.97,3.63s1.08,2.41,2.2,1.69c1.23-.77,2.45-1.51,3.72-2.22l-2.2-.9c.24,1.6.36,2.27,1.89,2.96.58.26,1.35.3,1.82-.23,1.07-1.21,2.14-2.42,3.21-3.63l-2.51-1.46c-.89,2.32-1.78,4.64-2.68,6.96-.24.62.16,1.37.69,1.69l.89.56c.52.33,1.4.26,1.82-.23,1.09-1.29,2.18-2.58,3.27-3.87l-2.56-1.06.16,1.89c.1,1.21,1.61,2.08,2.56,1.06.88-.95,1.77-1.9,2.65-2.86l-2.51-1.46c-.17,1.16-.7,2.72-.45,3.88.06.27.24.49.37.73.57,1.07.2-.18.19.23-.02.7-.04,1.41-.05,2.11-.03,1.05,1.33,1.99,2.26,1.3l1.86-1.4-2.26-1.3v2.34c0,1.21,1.25,1.77,2.25,1.3,1.79-.85,2.79-1.99,4.15-3.43l-2.51-1.46c-.5,1.83-1,3.66-1.49,5.49-.26.96.47,1.88,1.45,1.9,1.97.04,2.71-.9,4.15-2.16,1.23-1.07,2.48-2.11,3.72-3.16l-2.51-1.46c-.36,2.41-.68,4.82-.94,7.25-.14,1.25,1.77,2.05,2.56,1.06.87-1.08,1.73-2.17,2.6-3.25l-2.51-.66c.43,1.09.99,2.05,1.59,2.72.11.12.6,1.14.37.42-.2-.63-.06.15-.07.38-.03.62,0,1.25,0,1.87,0,1.38,1.61,1.88,2.56,1.06,1.77-1.52,3.05-3.18,4.48-5.03l-2.74-1.16c-.5,2.07-.99,4.14-1.49,6.21-.41,1.71,1.77,2.52,2.74,1.16.89-1.25,1.78-2.51,2.67-3.76l-2.8-.76-.26,3.35c-.12,1.56,2.06,1.94,2.8.76,1.04-1.67,2.08-3.34,3.12-5.01l-2.8-.76c-.09,1.99-.15,3.96-.15,5.95,0,1.53,2,1.98,2.8.76.9-1.4,1.81-2.79,2.71-4.19l-2.74-1.16c-.38,1.96-.75,3.92-1.13,5.88-.32,1.67,1.77,2.6,2.74,1.16.82-1.21,1.63-2.42,2.45-3.63h-2.59c1.03,2.03,2.21,2.68,4.44,2.08l-1.9-1.45.18,2.63c.09,1.42,2.03,2.13,2.8.76.91-1.62,1.81-3.23,2.72-4.85l-2.8-.76c-.12,2.17-.25,3.89.36,5.97.38,1.3,2.03,1.41,2.74.36.67-.98,1.33-1.95,2-2.93h-2.59c.62.97,1.06,1.73,2.25,2.04s1.84-.3,2.8-1l-2.26-1.3c-.07,1.51-.15,3.02-.22,4.53-.05,1.05,1,1.61,1.9,1.45.99-.17,1.53-.35,2.25-1.05.91-.88.91-.92,1.96-1.62l-2.26-1.3c.02,1.26-.09,2.6.07,3.85.17,1.38,1.43,1.82,2.25,2.66.57.6,1.54.55,2.12,0,1.77-1.68,2.48-3.52,3.5-5.74l-2.8-.76c.08,1.32.17,2.63.25,3.95.09,1.4,2.05,2.15,2.8.76.54-1,1.07-2.01,1.61-3.01l-2.74-.36.68,1.95c.34.98,1.72,1.58,2.51.66l1.27-1.5-2.51-.66c.36,1.8.77,3.51,1.29,5.27.43,1.45,2.44,1.4,2.89,0l1.76-5.47h-2.89l.76,2.06c.47,1.27,1.96,1.42,2.74.36l1.18-1.6-2.74-.36c.21,1.37.42,2.74.64,4.1.24,1.53,2.52,1.33,2.89,0,.48-1.73.96-3.45,1.44-5.18l-2.95-.4c.18,2.32.37,4.65.55,6.97.13,1.62,2.47,2.11,2.95.4.43-1.56.86-3.13,1.29-4.69l-2.51.66.98.81c.8.66,1.75.53,2.36-.3.3-.41.59-.83.91-1.24.07-.1-.65.22-.06.13.19-.03.48-.32.64-.42l-2.2-.9c.35,1.94.7,3.88,1.05,5.82.25,1.38,2.08,1.32,2.74.36s1.14-1.62,1.34-2.76c.23-1.3.45-2.61.68-3.91h-2.89c.46,2.22.91,4.43,1.37,6.65.37,1.79,2.77,1.15,2.95-.4.22-1.87.44-3.73.66-5.6l-2.56,1.06,1.07.86c.66.53,1.94.67,2.36-.3l.8-1.87h-2.59c.81,1.77,1.31,3.04,2.78,4.3,1.01.86,2.47.28,2.56-1.06.11-1.5.21-2.99.32-4.49l-2.95.4c.72,2.12,1.44,4.24,2.16,6.36.52,1.52,3.03,1.38,2.95-.4-.11-2.34-.22-4.69-.33-7.03l-1.5,1.5.96-.12-1.06-.44,1.3,1.27c.78.76,2.25.47,2.51-.66l.47-2.08-2.74.36c1.14,1.57,2.31,3.08,3.55,4.57.79.94,2.73.22,2.56-1.06-.23-1.81-.47-3.61-.7-5.42l-2.8.76c1.06,2.03,2.12,4.07,3.18,6.1.65,1.26,2.98.74,2.8-.76s-.36-2.96-.54-4.45l-1.5,1.5c.77.1,1.39.12,2.17.03l-1.06-.44c.75.84,1.5,1.67,2.25,2.51,1.05,1.17,2.83-.08,2.51-1.46l-.81-3.42c-.12-.49-.22-.99-.35-1.48.13.49-.09.87.1.15.09-.32.12-.67.18-1l-2.2.9c1.09.83,1.5,1.11,2.05,1.75.84.98,1.71,1.94,2.57,2.91.98,1.11,2.97-.06,2.51-1.46-.41-1.22-.81-2.43-1.22-3.65-.49-1.46-.39-1.09-.29-2.67l-2.56,1.06,2.54,2.2c1.14.99,2.83.04,2.51-1.46-.19-.91-.39-1.82-.58-2.73l-.39,1.46.67-.74-1.82.23c1.48.72,2.81,1.52,4.2,2.41,1.04.67,2.67-.46,2.2-1.69-.43-1.14-.87-2.28-1.3-3.43l-1.85,1.85c1.22.41,2.2.64,3.49.71.96.05,1.72-1,1.45-1.9l-.77-2.52-2.51,1.46c1.56,1.3,3.12,2.61,4.68,3.91,1.32,1.11,3.09-.25,2.36-1.82-.32-.69-.65-1.39-.97-2.08-.15-.32-.3-.63-.44-.95-.31-.7.03.14-.12-.3-.47-1.32-.77-2.55-1-3.93l-2.51,1.46c1.93,1.54,3.85,3.09,5.78,4.63,1.02.82,3.12.1,2.51-1.46-.94-2.39-2.06-4.42-3.38-6.62l-1.3,2.26c.31.01.62.01.92.04.48.04.33.04.33.04.71.2,1.42.58,2.1.86.99.41,1.98.83,2.98,1.25,1.12.47,2.09-.86,1.85-1.85-.32-1.31-.61-2.22-1.32-3.35-.39-.61-.75-1.45-1.25-1.98-.28-.3-.04.87.05.19.05-.33-.07-.76-.1-1.09l-2.26,1.3c2.05,1.36,4.1,2.72,6.15,4.08,1.21.8,2.39-.52,2.2-1.69-.38-2.48-1.94-3.99-3.45-5.96l-1.69,2.2c1.03.42,2.05.85,3.08,1.27,1.28.53,2.27-1.17,1.69-2.2-.46-.83-.92-1.67-1.39-2.5l-1.3,2.26,1.67.06c.89.03,1.81-1,1.45-1.9-.49-1.23-.93-2.42-1.31-3.69l-2.2,1.69c1.96,1.13,3.92,2.26,5.88,3.39,1.41.81,2.61-.76,2.05-2.05-1.01-2.34-2.26-4.5-3.54-6.7l-2.05,2.05c1.24.61,2.47,1.22,3.71,1.83s1.88.66,3.2.52c1.06-.11,1.96-1.21,1.3-2.26-.53-.84-1.06-1.68-1.6-2.52l.15,1.16.31-1.05-1.85,1.05c.84.22,1.71.56,2.57.68s1.52-.26,2.3-.62c.98-.44.83-1.68.3-2.36-.8-1.03-1.59-2.05-2.39-3.08l-1.46,2.51c1.01.32,2.01.64,3.02.97,1.54.49,2.35-1.44,1.46-2.51-.93-1.12-1.87-2.24-2.8-3.36l-1.82,2.36c1.56.73,3.12,1.45,4.68,2.18.68.32,1.24.21,1.82-.23l.85-.66c.65-.51.5-1.59,0-2.12-1.28-1.36-2.55-2.72-3.83-4.08l-1.82,2.36c2.28,1.03,4.27,2.39,6.79,2.06,1.13-.15,1.86-1.16,1.3-2.26-1.09-2.12-2.46-3.73-4-5.56l-1.06,2.56c.61.07,1.28.24,1.9.23.38,0-.91-.45-.24-.04.24.15.53.24.79.35,1.19.53,2.37,1.05,3.56,1.58,1.03.46,2.22-.07,2.26-1.3.04-1.43-.16-2.05-1.13-3.08s-1.9-2.01-2.84-3.02l-1.46,2.51c1.1.35,2.19.71,3.29,1.06,1.54.5,2.34-1.45,1.46-2.51s-1.68-2.02-2.52-3.03l-1.06,2.56h1.8c1.12.01,1.89-1.28,1.3-2.25-.45-.73-.9-1.46-1.35-2.19l-.9,2.2c.5-.1,1.01-.18,1.5-.33.3-.1.6-.25.9-.36-.69.28-.61-.06.15.1,1.55.33,2.4.33,3.8-.4l-1.16.15,2.94.75c1.42.36,2.57-1.45,1.46-2.51-1-.95-2-1.91-3-2.86-.48-.46-.96-.92-1.45-1.38-.12-.11.12.9.18.18.03-.31-.22-.81-.3-1.12l-2.2,1.69c1.43.62,2.86,1.23,4.29,1.85,1.2.52,2.23.58,3.54.64s1.91-1.66,1.06-2.56c-1.05-1.11-2.1-2.23-3.14-3.34l-1.46,2.51c1.42.53,2.84,1.06,4.25,1.59,1.5.56,2.39-1.49,1.46-2.51s-1.9-2.09-2.86-3.13v2.12l.79-.71-1.46.39c.96.22,1.92.44,2.88.66,1.5.34,2.45-1.38,1.46-2.51l-1.8-2.05c-.22-.25-.53-.51-.7-.8.59.95.21-.26.14-.74l-2.2,1.69c1.84.79,3.69,1.57,5.53,2.36,1.52.65,3.02-1.01,1.82-2.36-.86-.97-1.72-1.93-2.59-2.9l-1.46,2.51c1.15.33,2.31.67,3.46,1,1.04.3,2.23-.75,1.85-1.85-.34-.95-.59-1.79-1.24-2.56-.78-.93-1.66-1.79-2.49-2.68l-1.46,2.51,2.69.5c.79.14,1.63-.21,1.85-1.05.43-1.67.37-2.88-.13-4.52l-.69,1.69.92-.63-1.16.15c1.91.32,3.11.71,4.82-.3.8-.47,1.02-1.7.3-2.36-1.34-1.23-2.68-2.46-4.02-3.69l-1.46,2.51c1.53.54,3.06,1.07,4.58,1.61,1.43.5,2.51-1.51,1.46-2.51-1.17-1.11-2.33-2.23-3.5-3.34l-1.46,2.51,3.14.72c1.18.27,2.05-.71,1.85-1.85l-.24-1.35-1.85,1.85c1.38.43,2.76.86,4.13,1.29s2.63-1.53,1.46-2.51c-1.73-1.44-3.46-2.88-5.19-4.32l.39,1.46.29-1.02-.69.9.94-.63-1.16.15c2.15.88,4.3,1.76,6.45,2.63,1.17.48,2.02-.86,1.85-1.85l-.23-1.34-1.05,1.85,1.38-.39c1-.28,1.57-1.78.66-2.51-1.84-1.48-3.68-2.96-5.53-4.43l-1.46,2.51c1.84.68,3.69,1.36,5.53,2.04.98.36,1.83-.56,1.9-1.45.13-1.8-.62-2.57-1.67-3.99l-1.3,2.26,2.44.22c1.11.1,1.91-1.36,1.3-2.26-.86-1.26-1.69-2.53-2.51-3.81l-.9,2.2c1.15-.23,1.87-.45,2.84-1.1.85-.57.95-1.59.3-2.36s-1.26-1.5-1.89-2.24l-1.46,2.51c1.16.26,2.32.52,3.48.78.92.21,1.93-.43,1.9-1.45l-.04-1.2-.74,1.3c1.19-.57,2.09-1.17,2.15-2.65.04-1.06-.6-2.29-.79-3.36l-1.45,1.9c1.79-.16,2.72-.11,3.59-1.83.33-.65.21-1.27-.23-1.82l-1.71-2.09-1.06,2.56c1.41.18,2.66.4,4.06.17s2.71-.5,4.06-.75,1.29-2.06.36-2.74l-5.86-4.28-.76,2.8c1.13-.03,2.27.14,3.22-.55,1.17-.85,1.23-1.6,1.06-2.96l-1.9,1.45c1.96.64,3.92,1.27,5.89,1.91,1.75.57,2.41-1.79,1.16-2.74-1.65-1.24-3.3-2.49-4.95-3.73l.74,1.3c-.03-.78-.04-1.54-.02-2.31l-.74,1.3,1.15-.56c.43-.21.8-.82.74-1.3l-.14-1.22-1.5,1.5,1.93-.17c1.16-.1,1.83-1.19,1.3-2.26l-.78-1.54-1.69,2.2c1.96.6,3.92,1.2,5.88,1.8,1.71.52,2.49-1.81,1.16-2.74-1.96-1.37-3.92-2.73-5.88-4.1l-1.16,2.74c1.72.48,3.44.95,5.16,1.43s2.42-1.77,1.16-2.74c-1.4-1.08-2.8-2.15-4.2-3.23l-1.16,2.74c2.72.74,5.1,1.43,7.91,1.47.95.01,1.74-.97,1.45-1.9-.54-1.72-1.22-2.4-2.54-3.63-1.02-.95-1.98-1.95-2.95-2.95l-1.06,2.56c1.71-.17,1.35-.3,2.87.1,1.32.35,2.65.7,3.97,1.05,1.43.38,2.54-1.45,1.46-2.51-.76-.75-1.52-1.49-2.29-2.24l-1.06,2.56,2.59.09c1.63.06,1.85-1.98.76-2.8-1.41-1.05-2.81-2.09-4.22-3.14l.69,1.69.26-1.01-1.05,1.05c.49-.18.98-.35,1.46-.53.27-.1.82-.18,1.03-.38.17-.16-.92-.26-.21,0,1.26.46,2.74.57,4.05.84.98.2,1.85-.43,1.9-1.45.09-2.04-.99-2.8-2.34-4.22l-.66,2.51,1.64-.38c1.04-.24,1.52-1.78.66-2.51l-2.22-1.87c-.78-.66-.63-.59-1.2-1.75l-.9,2.2c1.4-.46,1.62-.36,3.4-.28,1.02.05,2.04.04,3.06.04,1.57,0,1.93-1.98.76-2.8-1.54-1.06-3.07-2.12-4.61-3.18l-.76,2.8c1.66-.07,3.29-.08,4.95-.06,1.56.03,1.95-2,.76-2.8-1.66-1.11-3.33-2.21-4.99-3.32l-1.16,2.74c1.9.46,3.8.92,5.7,1.37,1.71.41,2.52-1.78,1.16-2.74s-2.8-1.97-4.2-2.95l-.76,2.8c1.21.15,2.43.31,3.64.46,1.41.18,1.82-1.7,1.06-2.56l-1.58-1.8-.66,2.51,1.54-.46c1.02-.3,1.54-1.73.66-2.51-.82-.72-1.63-1.44-2.45-2.16l-1.46,2.51c2.46.38,4.76.7,7.25.73,1.32.01,1.96-1.64,1.06-2.56-1.48-1.52-3.01-2.84-4.65-4.19l-1.46,2.51c1.85.4,3.7.8,5.55,1.21,1.25.27,2.38-1.03,1.69-2.2-.97-1.65-2.07-2.63-3.52-3.9l-1.46,2.51c1.58.28,3.15.56,4.73.83,1.36.24,2.66-1.41,1.46-2.51-1.61-1.47-3.24-2.86-4.92-4.23l-.66,2.51,1.46-.51c.93-.33,1.38-1.31.9-2.2l-.76-1.41-.23,1.82.76-.8-1.06.44c2.45-.33,4.89-.29,7.36-.4,1.57-.07,1.94-1.94.76-2.8-1.11-.81-2.21-1.61-3.32-2.42l-.76,2.8c.95,0,1.9,0,2.85,0,1.31,0,1.97-1.64,1.06-2.56-1.42-1.44-2.87-2.67-4.44-3.94l-.66,2.51,1.83-.39c1.17-.25,1.37-1.72.66-2.51l-1.49-1.67-1.06,2.56c2.34.3,5.37,1.13,7.52-.22,1.35-.85,1.96-2.5,1.01-3.91s-1.45-1.55-2.15-2.79l-.9,2.2,1.57-.51c1.25-.41,1.46-2.03.36-2.74-1.29-.84-2.57-1.68-3.86-2.52l-1.16,2.74c2.36.5,4.72,1,7.08,1.5.96.2,1.87-.43,1.9-1.45.03-1.36-.16-2-1.3-2.77-1.03-.7-2.08-1.37-3.13-2.06l-.76,2.8c1.63-.16,3.21-.37,4.82-.65,1.29-.23,1.43-2.15.36-2.74-1.9-1.04-3.79-2.08-5.69-3.12l-.76,2.8c2.09.06,3.66.52,5.09-1.19.48-.57.67-1.58,0-2.12-.79-.64-1.59-1.28-2.38-1.93l-.66,2.51c.59-.15,1.25-.22,1.81-.45.34-.14.57-.33.88-.51.51-.29.18-.17.5-.27,1.51-.46,2.06-.32,3.85-.49,1.36-.13,2.19-2.04.76-2.8-1.97-1.04-3.93-2.07-5.9-3.11l-.76,2.8c1.17-.05,2.69.15,3.73-.45.24-.14.57-.42.75-.62.46-.54-.57.06-.05.07.63.02,1.35-.2,1.97-.29,1.37-.2,1.33-2.12.36-2.74-1.17-.75-2.34-1.51-3.5-2.26l-.76,2.8c1.79.23,3.58.47,5.36.7,1.51.2,2-2.13.76-2.8-1.79-.95-3.57-1.91-5.36-2.86v2.59c.37-.27.74-.56,1.13-.79.27-.15.66-.24.9-.43.53-.43-.52.01-.19.05,1.2.13,2.44.11,3.65.16,1.48.07,2.05-2.1.76-2.8-1.72-.92-3.44-1.83-5.16-2.75l-.76,2.8c1.92.26,3.84.51,5.76.77,1.53.2,1.97-2.12.76-2.8-1.5-.84-3.01-1.68-4.51-2.53l-.76,2.8,3.29-.03c1.05-.01,1.61-.95,1.45-1.9l-.2-1.14-1.45,1.9c.99-.05,1.99-.1,2.98-.14,1.59-.08,1.9-1.91.76-2.8l-2.37-1.82.74,1.3c-.03-2.09-1.05-2.63-2.6-3.88l-.66,2.51,1.65-.57c.78-.27,1.26-1.02,1.05-1.85-.26-1.04-.62-1.85-1.12-2.8l-1.3,2.26c1.86-.12,3.52-.28,5.33-.72,1.24-.3,1.48-2.13.36-2.74-1.43-.78-2.85-1.57-4.28-2.35l-.76,2.8c1.44.15,2.88.29,4.32.44s2.02-.12,3.18-1.12c.69-.6.54-1.96-.3-2.36-2-.94-3.99-1.89-5.99-2.83l.54,2.05.42-.95-1.3.74c1.14-.03,2.28-.05,3.42-.08,1.33-.03,1.94-1.6,1.06-2.56s-1.74-1.92-2.61-2.89l-1.06,2.56c1.59.1,3.18.19,4.77.29,1.4.08,1.84-1.65,1.06-2.56l-1.19-1.41-.3,2.36c.32-.23.63-.47.95-.69-.58.42-.65.09.09.07s1.55-.11,2.31-.17c1.19-.09,1.79-1.19,1.3-2.26s-1.14-1.95-1.9-2.91v2.12c.6-.66,1.13-1.33,1.64-2.07.37-.53.22-1.38-.23-1.82s-.92-.91-1.39-1.35c.09.08.27.67-.07-.26-.09-.24-.18-.58-.31-.78-.62-.94-2.01-1.59-2.91-2.24l-.76,2.8,5.16.28c1.44.08,2.11-2.16.76-2.8-1.72-.8-3.44-1.61-5.16-2.41l-.76,2.8c2.17.2,4.35.4,6.52.6,1.44.13,2.1-2.2.76-2.8l-5.72-2.52-.36,2.74c1.66-.34,3.31-.63,4.97-.9,1.28-.21,1.44-2.17.36-2.74-1.24-.66-2.48-1.31-3.72-1.97l.69,1.69c.45-1.19.37-1.75-.06-2.92l-.69,1.69,1.6-.69c.83-.36,1.01-1.8.3-2.36l-1.87-1.47-1.06,2.56c2.34.16,4.68.31,7.02.47.54.04,1.02-.32,1.3-.74l.62-.95c.58-.88-.05-1.87-.9-2.2-1.92-.75-3.84-1.5-5.76-2.25l.36,2.74c1.48-1.08,3.7-1.37,5.9-1.82,1.03-.21,1.54-1.82.66-2.51l-1.78-1.39.44,1.06c.1-2.61-1.72-3.65-3.71-4.94l-.76,2.8c1.77-.08,3.55-.16,5.32-.24.73-.03,1.6-.66,1.5-1.5l-.14-1.09c-.09-.72-.41-1.19-1.1-1.45l-3.17-1.18c-.39-.15-.85-.26-1.22-.46,1.16.62,0-.39-.3-.78l-.3,2.36,1.7-.82c1.13-.54.81-1.98,0-2.59-.53-.4-1.05-.8-1.58-1.2l-.76,2.8c1.79-.16,3.59-.32,5.38-.49,1.61-.15,2.13-2.48.4-2.95-1.95-.53-3.9-1.06-5.84-1.59l-.4,2.95,4.86-.62c1.01-.13,2.03-1.22,1.3-2.26-.86-1.22-1.68-1.91-2.9-2.79l-.36,2.74c1.8-.25,3.61-.5,5.41-.74,1.41-.19,1.28-2.1.36-2.74-1.8-1.25-3.52-1.79-5.6-2.48l1.05,1.85.19-1.02c.09-.49.04-1.11-.39-1.46l-1.27-1.03-.66,2.51c1.18-.31,2.61-.47,3.71-.99.71-.34,1.09-.8,1.25-1.58.2-.98-.44.39.07-.13.26-.27.54-.52.8-.79.85-.83.37-2.14-.66-2.51l-2.78-.98v2.89c1.34-.39,2.68-.78,4.02-1.17,1.47-.43,1.38-2.43,0-2.89l-2.8-.94.36,2.74,2.31-1.16c1.27-.64.74-2.31-.36-2.74l-1.17-.46c-.26-.1-.53-.24-.8-.31-.44-.12-.31-.37.21.17-.61-.62-1.21-1.21-1.78-1.87l.23,1.82.79-1.1c.63-.88-.1-1.87-.9-2.2l-2-.85.36,2.74c.54-.4,1.07-.79,1.61-1.19.9-.67,1.02-1.94,0-2.59l-1.39-.88.3,2.36,1.46-1.2c.89-.73.36-2.24-.66-2.51l-2.69-.7.9,2.2.63-1.11c.32-.55.26-1.37-.23-1.82l-.99-.89-.3,2.36,2.19-1.35c1.02-.63.97-2.5-.36-2.74l-3.06-.57.36,2.74,2.04-1.36c.53-.35.91-1.05.69-1.69-.09-.27-.21-.55-.29-.83.16.6-.03.59.15-.07.13-.49.21-.98.19-1.49-.05-1.33-.87-1.74-1.87-2.47v2.59c1.07-.56,2.13-1.11,3.2-1.67,1.13-.59.87-2.45-.36-2.74-2.32-.55-3.75-1.29-6.33-1.85l.36,2.74c1.06-.58,2.12-1.15,3.18-1.73,1.41-.77.62-2.66-.76-2.8-1.1-.1-2.2-.21-3.3-.31l1.5,1.5c-.05-1.47-.34-1.98-1.46-2.9l-.3,2.36c1.29-.66,2.59-1.32,3.88-1.98.99-.5.97-2.08,0-2.59l-1.37-.72v2.59c1.38-.7,2.77-1.4,4.15-2.1.93-.47,1.03-2.15,0-2.59s-1.87-.86-2.79-1.44l.3,2.36,1.3-1.42c.83-.9.38-2.07-.66-2.51s-1.8-.7-2.89-.78c-.69-.05-1.37-.11-2.06-.16.5.04.74.29.16-.06-.27-.16-.58-.28-.86-.42l.54,2.05,1-1.35c.62-.84-.08-1.91-.9-2.2l-1.66-.59.36,2.74,2.46-1.78c1.18-.86.81-2.73-.76-2.8l-3.18-.14.76,2.8c1.55-.82,3.1-1.64,4.64-2.46.74-.39.89-1.36.54-2.05-.87-1.69-1.81-1.71-3.58-2.04l.66,2.51c1.45-1.18,2.34-1.84,2.93-3.62.4-1.19-.8-2.01-1.85-1.85-2.3.36-4.59.72-6.89,1.09l1.85,1.85.49-1.23-.69.9c1.04-.69,2.08-1.39,3.12-2.08,1.12-.75.84-2.96-.76-2.8s-3.24.33-4.85.49l1.06,2.56,1.97-1.72c.5-.44.55-1.27.23-1.82l-.52-.91v1.51l.85-1.37c.59-.96-.17-2.28-1.3-2.26l-3.47.08.76,2.8c1.4-.74,2.79-1.48,4.19-2.23s1.96-1.2,2.44-2.85c.15-.5,0-1.1-.39-1.46-.96-.91-1.49-1.3-2.82-1.14s-2.61.3-3.91.45l.76,2.8c.94-.69,1.87-1.37,2.81-2.06,1.08-.79.88-2.91-.76-2.8l-4,.29.76,2.8c.95-.64,1.91-1.28,2.86-1.93s1.22-1.4,1.63-2.47c.32-.85-.53-2-1.45-1.9-1.52.17-3.03.33-4.55.5l1.3,2.26c1.17-1.64,2.59-2.94,4.37-4.61.97-.91.2-2.54-1.06-2.56-.99-.01-1.99-.03-2.98-.04l1.06.44c-.89-.97-1.41-1.32-2.72-1.15s-2.58.33-3.87.49l1.3,2.26c.18-.28.4-.56.56-.86.5-.93-.14-.05,0-.14.68-.47,1.34-.96,2.02-1.43,1.05-.75,1.85-1.57,2.73-2.51s.29-2.6-1.06-2.56l-3.3.09,1.3,2.26,1.07-1.48c.65-.89-.21-2.35-1.3-2.26-1.34.12-2.68.24-4.02.36l.76,2.8c1.34-.85,2.67-1.69,4.01-2.54,1.2-.76.79-2.86-.76-2.8-1.14.05-2.27.1-3.41.15l1.06,2.56c.68-.61,1.36-1.23,2.04-1.84.91-.82.24-2.7-1.06-2.56-1.4.15-2.79.3-4.19.45l.76,2.8c1.83-1.04,3.66-2.09,5.49-3.13.94-.53,1.02-2.08,0-2.59-1.08-.54-1.47-1.45-2.72-1.68-.95-.17-2.13.05-3.1.08l1.06,2.56c.82-.68,1.63-1.36,2.45-2.04,1.26-1.05-.14-2.76-1.46-2.51-1.83.34-3.66.69-5.49,1.03l1.16,2.74c1.57-.98,3.13-1.97,4.7-2.95,1.33-.84.68-2.65-.76-2.8l-2.22-.23,1.5,1.5c-.03-1.01.18-.89.4-1.93.19-.92-.21-1.4-.71-2.13v1.51l1.28-1.67c.86-1.13-.56-2.45-1.69-2.2-1.78.39-3.55.78-5.33,1.17l1.9,1.45c.13-1.41-.11-1.95-1.03-3.02l-.3,2.36c1.56-1.09,3.12-2.17,4.69-3.26,1.2-.83.8-2.75-.76-2.8-2.91-.08-5.34.67-8.16,1.41l1.46,2.51c1.51-1.41,3.06-2.23,2.77-4.44l-.44,1.06c.68-.73,1.37-1.46,2.05-2.19.79-.85.31-2.73-1.06-2.56-1,.12-2,.25-3.01.37l1.06.44-.75-.76.23,1.82c.92-1.4,1.37-2.14,1.5-3.82.06-.74-.74-1.59-1.5-1.5l-1.55.19c-.29.04-.58.08-.87.11-.34.03.59.5.03-.09-.72-.75-2.07-.58-3.01-.64l1.06,2.56c1.34-1.22,2.69-2.44,4.03-3.65,1.22-1.1-.11-2.73-1.46-2.51-2.04.33-3.95.79-5.94,1.33l1.46,2.51c.74-.89,1.49-1.79,2.23-2.68.87-1.04.09-3.04-1.46-2.51l-3.67,1.27,1.46,2.51c1.01-1.1,2.27-2.17,3.12-3.4.56-.81.35-1.4.54-2.31-.1.47.28-.59.31-.67l.36-.93c.43-1.13-.83-2.08-1.85-1.85-1.89.44-2.29.55-4.06.75l1.3,2.26c.63-.97,1.27-1.94,1.9-2.91.69-1.06-.47-2.65-1.69-2.2l-1.8.65c-.99.36-.63.32-1.44.34-1.27.04-2.34.46-3.55.86l1.16.15-.8-.58.54,2.05c.59-1.32,1.17-2.57,1.89-3.82.99-1.7,1.65-2.49,1-4.44-.31-.93-1.32-1.38-2.2-.9-.98.54-1.96,1.08-2.93,1.62l2.2,1.69,1.27-3.03c.44-1.05-.85-2.18-1.85-1.85l-1.98.67,1.9,1.45-.17-1.46c-.12-.97-1.24-2.08-2.26-1.3-1.13.87-2.27,1.75-3.4,2.62l2.05,2.05,1.64-3.85c.68-1.59-.98-2.89-2.36-1.82l-3.01,2.35,2.56,1.06.29-2.17c.19-1.41-1.7-1.82-2.56-1.06-1,.88-2,1.76-3.01,2.65l2.51,1.46c.48-1.86.84-3.34.77-5.26-.05-1.23-1.65-2.07-2.56-1.06-1.14,1.26-2.29,2.51-3.43,3.77l2.51.66c-.23-1.31-.4-1.91-1.39-2.83l.44,1.06c-.02-1.34-.09-2.63-.24-3.96s-1.54-2-2.56-1.06l-2.03,1.87,2.56,1.06v-2.46c0-1.34-1.62-1.92-2.55-1.06l-1.85,1.7,2.56,1.06c.14-1.22.27-2.45.41-3.67.18-1.58-2.06-1.89-2.8-.76-.92,1.43-1.85,2.85-2.77,4.28l2.74,1.16c.46-2.22.92-4.44,1.38-6.67.29-1.4-1.41-2.6-2.51-1.46l-1.79,1.86,2.36.3-.77-1.02c-.63-.83-2.01-1.1-2.59,0-.87,1.65-1.74,3.3-2.6,4.94l1.3-.74-.99-.06,1.5,1.5c.28-2.32.56-4.64.85-6.96.06-.52-.33-1.04-.74-1.3l-.97-.6c-.91-.57-1.85.04-2.2.9-.82,1.96-1.64,3.92-2.45,5.88l2.74-.36c-.46-.63-.6-.77-.73-1.17-.2-.63-.3-1.32-.44-1.97-.22-.99-1.39-1.32-2.2-.9l-1.15.6,2.2.9c-.19-.96-.39-1.93-.58-2.89-.31-1.52-2.48-1.33-2.89,0-.65,2.14-1.31,4.27-1.96,6.41l2.95.4c-.08-1.94-.17-3.88-.25-5.82-.08-1.72-2.38-1.99-2.95-.4-.5,1.42-1,2.84-1.5,4.26l2.95.4c-.16-1.37-.31-2.75-.47-4.12-.14-1.22-.55-1.9-1.25-2.91s-2.4-.97-2.74.36c-.46,1.79-.91,3.59-1.37,5.38h2.89c-.28-1.41-.55-2.83-.83-4.24-.19-.99-1.41-1.32-2.2-.9-1.78.95-2.07,2.23-2.82,4.05l1.45-1.1c-1.87-.1-2.28.66-3.27,2.1l2.36-.3-1.04-1.16c-.46-.51-1.25-.53-1.82-.23l-.97.5,2.2.9c-.46-1.56-.91-3.13-1.37-4.69-.5-1.72-2.77-1.22-2.95.4-.19,1.75-.39,3.49-.58,5.24l2.95-.4c-.42-1.03-.81-2.09-1.26-3.11-.5-1.13-1.13-1.33-2.27-1.67-.59-.18-1.42.11-1.69.69l-.81,1.73,1.69-.69-1.09-.28c-.97-.25-1.86.47-1.9,1.45-.06,1.62-.11,3.24-.17,4.86l2.95-.4c-.81-2.45-1.62-4.9-2.43-7.35-.51-1.55-3-1.37-2.95.4.07,2.04.13,4.09.2,6.13l2.8-.76c-.49-.76-.94-1.6-1.49-2.31-.7-.9-1.39-.88-2.46-.93-.52-.02-1.04.3-1.3.74-1.03,1.74-1.02,3.19-1.15,5.2l1.9-1.45-1.08-.21.9.69c-.79-1.46-1.57-2.93-2.36-4.39-.57-1.06-2.54-.94-2.74.36-.12.78-.24,1.57-.37,2.35l1.85-1.05-1.23-.44c-.92-.33-1.92.53-1.9,1.45.02,1.14.05,2.28.07,3.42l2.8-.76c-.87-1.47-1.75-2.93-2.62-4.4-.92-1.55-2.99-.45-2.74,1.16.27,1.76.55,3.52.82,5.27l1.85-1.85-1.22-.41.9.69c-.94-1.48-1.89-2.96-2.83-4.44-.43-.67-1.34-.98-2.05-.54-1.57.97-1.79,1.89-1.86,3.7-.05,1.19.13,2.4.23,3.58l2.56-1.06c-.78-.92-1.55-1.85-2.33-2.77-1.04-1.23-2.79.12-2.51,1.46.34,1.58.67,3.15,1.01,4.73l2.74-1.16c-.8-1.07-1.6-2.15-2.39-3.22s-1.42-1.43-2.77-1.78c-.71-.19-1.72.23-1.85,1.05-.17,1.14-.37,2.12-.13,3.25.27,1.27.6,2.53.9,3.8l.39-1.46-.74.75,1.82-.23-1.76-1.23c-.44-.31-1.07-.24-1.51,0-1.29.69-1.56,1.32-2.04,2.67l2.51-.66c-1.58-1.42-3.14-2.86-4.7-4.31-1.12-1.05-2.82,0-2.51,1.46.24,1.14.49,2.28.73,3.42l.39-1.46c-.76.83-1.21,1.31-1.07,2.48.12.96.38,1.92.57,2.87l2.2-1.69c-1.4-1.08-2.81-2.14-4.24-3.19-1.04-.76-2.62.51-2.2,1.69.57,1.62,1.14,3.24,1.72,4.87l1.45-1.9-1.28-.16,1.06.44c-1.33-1.52-2.65-3.03-3.98-4.55-.96-1.1-3.03.06-2.51,1.46.61,1.64,1.22,3.29,1.83,4.93l2.2-1.69-1.76-.9c-.89-.45-1.89-.06-2.2.9l-.41,1.27,2.51-.66-2.85-2.58c-.96-.87-2.52-.27-2.56,1.06l-.05,1.84.74-1.3c-1.51.78-1.89,1.72-1.78,3.43.08,1.24.63,2.54.96,3.73l2.51-1.46c-1.31-1.39-2.62-2.77-3.93-4.16-.66-.7-1.89-.52-2.36.3-1.01,1.79-.54,3.01-.12,4.96l2.51-1.46c-1-.89-1.99-1.78-2.99-2.67-1.05-.94-3-.05-2.51,1.46.39,1.22.79,2.44,1.18,3.66l2.2-1.69c-1.36-.92-2.67-1.75-4.13-2.52s-2.66.71-2.05,2.05c.91,1.99,1.81,3.97,2.72,5.96.8,1.75,3.39.23,2.59-1.51-.91-1.99-1.81-3.97-2.72-5.96l-2.05,2.05c1.45.76,2.77,1.59,4.13,2.52,1.08.73,2.59-.48,2.2-1.69s-.79-2.44-1.18-3.66l-2.51,1.46c1,.89,1.99,1.78,2.99,2.67,1.13,1.01,2.83.03,2.51-1.46-.2-.93-.4-1.86-.6-2.79l-.15,1.16.57-1.01-2.36.3c1.31,1.39,2.62,2.77,3.93,4.16,1.04,1.1,2.9-.04,2.51-1.46-.25-.9-.51-1.79-.75-2.69-.04-.15-.11-.31-.13-.46-.02-.18.04.42.04-.07,0-.46.07-.92.1-1.37l-.74,1.3.92-.48c.47-.24.73-.78.74-1.3l.05-1.84-2.56,1.06,2.85,2.58c.85.77,2.15.44,2.51-.66l.41-1.27-2.2.9,1.76.9c1.06.54,2.69-.38,2.2-1.69-.61-1.64-1.22-3.29-1.83-4.93l-2.51,1.46c1.01,1.15,2.02,2.31,3.03,3.46s1.65,1.48,3.29,1.69c.94.12,1.74-1.06,1.45-1.9-.57-1.62-1.14-3.24-1.72-4.87l-2.2,1.69c1.43,1.05,2.84,2.11,4.24,3.19,1.14.88,2.43-.57,2.2-1.69-.2-1.03-.41-2.06-.61-3.1l-.39,1.46c.8-.87,1.23-1.37,1.04-2.59-.16-1.03-.44-2.06-.66-3.08l-2.51,1.46c1.55,1.45,3.12,2.89,4.7,4.31.87.78,2.13.43,2.51-.66l.45-1.3-.69.9.89-.48h-1.51l1.76,1.23c.54.37,1.38.21,1.82-.23,1.39-1.41,1.12-2.24.69-4.03-.19-.8-.33-1.64-.57-2.43,0,0-.15.98.07-.09.08-.36.11-.74.17-1.11l-1.85,1.05,1.32.34-.9-.69c.98,1.32,1.97,2.65,2.95,3.97s3.11.59,2.74-1.16c-.34-1.58-.67-3.15-1.01-4.73l-2.51,1.46c.78.92,1.55,1.85,2.33,2.77s2.67.2,2.56-1.06c-.16-1.89-.24-3.54-.03-5.43l-.74,1.3.92-.57-2.05-.54c.75,1.18,1.5,2.36,2.26,3.54s1.36,1.55,2.7,2.01c1.19.4,2.01-.81,1.85-1.85-.27-1.76-.55-3.52-.82-5.27l-2.74,1.16c.87,1.47,1.75,2.93,2.62,4.4.75,1.25,2.83.75,2.8-.76-.02-1.14-.05-2.28-.07-3.42l-1.9,1.45,1.23.44c.7.25,1.73-.29,1.85-1.05s.24-1.57.37-2.35l-2.74.36c.61,1.14,1.22,2.27,1.83,3.41.65,1.22,1.09,1.61,2.51,1.88,1,.19,1.84-.42,1.9-1.45.05-.84.14-1.68.16-2.52,0-.17.04-.34.03-.51-.01-.18-.33.64-.07.4s.44-.74.62-1.05l-1.3.74,1.08.05-1.3-.74c.53.82,1.05,1.63,1.58,2.45.77,1.19,2.85.8,2.8-.76-.07-2.04-.13-4.09-.2-6.13l-2.95.4c.81,2.45,1.62,4.9,2.43,7.35.53,1.6,2.89,1.33,2.95-.4.06-1.62.11-3.24.17-4.86l-1.9,1.45,1.09.28c.6.15,1.41-.09,1.69-.69l.81-1.73-1.69.69,1.1.33-1.05-1.05c.46,1.13.92,2.27,1.38,3.4.64,1.59,2.76,1.33,2.95-.4s.39-3.49.58-5.24l-2.95.4c.46,1.56.91,3.13,1.37,4.69.28.97,1.34,1.34,2.2.9l.97-.5-1.82-.23,1.04,1.16c.69.77,1.84.45,2.36-.3l.97-1.41-1.3.74,1.01.05c.72.04,1.2-.5,1.45-1.1l1.06-2.58-.69.9,1.07-.57-2.2-.9c.28,1.41.55,2.83.83,4.24s2.54,1.38,2.89,0c.46-1.79.91-3.59,1.37-5.38l-2.74.36c.29.42.56.93.91,1.31-.35-.37-.12-.93-.11-.32,0,.29.07.62.1.91.14,1.21.27,2.41.41,3.62.19,1.66,2.36,2.07,2.95.4.5-1.42,1-2.84,1.5-4.26l-2.95-.4c.08,1.94.17,3.88.25,5.82.07,1.68,2.44,2.05,2.95.4.65-2.14,1.31-4.27,1.96-6.41h-2.89c.19.96.39,1.93.58,2.89s1.4,1.32,2.2.9l1.15-.6-2.2-.9c.35,1.54.54,2.59,1.48,3.86.81,1.1,2.23.87,2.74-.36.82-1.96,1.64-3.92,2.45-5.88l-2.2.9.97.6-.74-1.3c-.28,2.32-.56,4.64-.85,6.96-.1.84.77,1.46,1.5,1.5l.99.06c.5.03,1.06-.3,1.3-.74.87-1.65,1.74-3.3,2.6-4.94h-2.59l.77,1.02c.57.74,1.62,1.07,2.36.3l1.79-1.86-2.51-1.46c-.46,2.22-.92,4.44-1.38,6.67-.34,1.66,1.8,2.61,2.74,1.16s1.85-2.85,2.77-4.28l-2.8-.76c-.14,1.22-.27,2.45-.41,3.67-.15,1.38,1.69,1.86,2.56,1.06l1.85-1.7-2.56-1.06v2.46c0,1.34,1.62,1.93,2.55,1.06l2.03-1.87-2.56-1.06c.14,1.24.08,2.53.24,3.76.08.67.23,1.2.81,1.61.72.5-.08-.59.05.07.07.36.13.73.2,1.1.2,1.1,1.79,1.45,2.51.66,1.14-1.26,2.29-2.51,3.43-3.77l-2.56-1.06c.02.43.03.86.05,1.29.03.74.11-.11-.05.62-.19.86-.44,1.7-.66,2.55-.39,1.51,1.41,2.43,2.51,1.46,1-.88,2-1.76,3.01-2.65l-2.56-1.06-.29,2.17c-.19,1.46,1.69,1.74,2.56,1.06l3.01-2.35-2.36-1.82-1.64,3.85c-.5,1.17.7,3.1,2.05,2.05l3.4-2.62-2.26-1.3.17,1.46c.11.9.88,1.79,1.9,1.45l1.98-.67-1.85-1.85-1.27,3.03c-.54,1.28,1.17,2.26,2.2,1.69.98-.54,1.96-1.08,2.93-1.62l-2.2-.9.39,1.16.15-1.16c-1.14,1.97-2.2,3.87-3.12,5.94-.35.8-.18,1.53.54,2.05s1.14.86,2.03.7c.43-.08.87-.29,1.29-.43.23-.08.45-.17.68-.23.48-.12-.22,0,.16-.05.74-.1,1.4-.02,2.12-.23.83-.24,1.64-.59,2.46-.88l-1.69-2.2c-.63.97-1.27,1.94-1.9,2.91-.58.89.17,2.39,1.3,2.26,1.66-.19,3.23-.48,4.86-.86l-1.85-1.85c-.49,1.29-.77,2.24-.85,3.61l.44-1.06c-1.05,1.15-2.1,2.29-3.15,3.44-.95,1.03-.04,3.03,1.46,2.51l3.67-1.27-1.46-2.51c-.74.89-1.49,1.79-2.23,2.68-.91,1.1-.08,2.93,1.46,2.51,1.99-.54,3.9-1,5.94-1.33l-1.46-2.51c-1.34,1.22-2.69,2.44-4.03,3.65-1.02.93-.16,2.49,1.06,2.56.52.03,1.06.03,1.57.09.11.01-.57-.39-.08.14.17.18.57.42.81.48.92.25,2.18-.17,3.11-.28l-1.5-1.5c-.02.27-.06.54-.06.81,0,.83.36-.57-.02-.04-.35.5-.67,1.02-1.01,1.53-.37.56-.21,1.36.23,1.82,1.54,1.57,2.76,1.08,4.82.83l-1.06-2.56c-1.34,1.43-2.62,2.26-2.35,4.32l.44-1.06c-.82.77-1.65,1.54-2.47,2.3-1.12,1.05.05,2.88,1.46,2.51s2.78-.73,4.17-1.09c.31-.08.62-.19.94-.25.61-.12-.23,0,.09-.02.71-.04,1.45.04,2.17.06l-.76-2.8c-1.56,1.09-3.12,2.17-4.69,3.26-.83.58-.97,1.58-.3,2.36l.69.8-.44-1.06-.1,1.15c-.09,1.03,1.03,1.64,1.9,1.45,1.78-.39,3.55-.78,5.33-1.17l-1.69-2.2-1.28,1.67c-.3.39-.27,1.12,0,1.51l.59.87-.15-1.16c-.41,1.04-.58,1.7-.55,2.83.03.87.67,1.42,1.5,1.5l2.22.23-.76-2.8c-1.57.98-3.13,1.97-4.7,2.95-1.49.93-.49,3.05,1.16,2.74,1.83-.34,3.66-.69,5.49-1.03l-1.46-2.51c-.82.68-1.63,1.36-2.45,2.04-1.01.84-.17,2.59,1.06,2.56l3.1-.08-1.06-.44c.71.85,1.29,1.22,2.27,1.71v-2.59c-1.83,1.04-3.66,2.09-5.49,3.13-1.22.69-.77,2.96.76,2.8,1.4-.15,2.79-.3,4.19-.45l-1.06-2.56c-.68.61-1.36,1.23-2.04,1.84-.95.86-.21,2.62,1.06,2.56,1.14-.05,2.27-.1,3.41-.15l-.76-2.8c-1.34.85-2.67,1.69-4.01,2.54-1.16.74-.81,2.93.76,2.8,1.34-.12,2.68-.24,4.02-.36l-1.3-2.26-1.07,1.48c-.68.93.23,2.29,1.3,2.26l3.3-.09-1.06-2.56c-.49.52-.96,1.09-1.47,1.58.46-.44-.26.18-.36.26-.37.26-.73.52-1.1.78-1.27.9-1.99,1.63-2.84,2.94-.57.88.16,2.4,1.3,2.26,1.59-.2,3.18-.41,4.77-.61l-1.06-.44c1.42,1.54,2.79,1.28,4.8,1.3l-1.06-2.56c-1.77,1.65-3.43,3.25-4.84,5.22-.63.88.2,2.38,1.3,2.26,1.52-.17,3.03-.33,4.55-.5l-1.45-1.9-.48,1.26.69-.9c-1.11.75-2.21,1.5-3.32,2.25s-.84,2.91.76,2.8l4-.29-.76-2.8-2.81,2.06c-1.04.77-.89,2.99.76,2.8s3.21-.37,4.82-.56l-1.06-.44.85.81-.39-1.46-.35,1.21.69-.9c-1.86.99-3.72,1.98-5.59,2.97-1.32.7-.71,2.83.76,2.8l3.47-.08-1.3-2.26-.85,1.37c-.28.46-.26,1.06,0,1.51l.52.91.23-1.82-1.97,1.72c-.93.82-.23,2.69,1.06,2.56,1.62-.16,3.24-.33,4.85-.49l-.76-2.8c-.91.61-1.86,1.19-2.75,1.84s-1.14,1.36-1.54,2.37c-.47,1.18.86,2,1.85,1.85,2.3-.36,4.59-.72,6.89-1.09l-1.85-1.85c-.12.35-.19.76-.36,1.09.29-.57.39-.43-.12-.16-.6.31-1.15.94-1.68,1.37-.85.69-.4,2.31.66,2.51.74.14,1.47.27,2.21.41l-.9-.69.48.94.54-2.05c-1.55.82-3.1,1.64-4.64,2.46-1.38.73-.66,2.73.76,2.8l3.18.14-.76-2.8-2.46,1.78c-1.07.77-.91,2.29.36,2.74l1.66.59-.9-2.2-1,1.35c-.46.62-.13,1.73.54,2.05,1.15.56,2,.87,3.27.97,1.72.13,1.62.13,3.11.75l-.66-2.51-1.3,1.42c-.67.73-.54,1.82.3,2.36.92.58,1.79,1.01,2.79,1.44v-2.59c-1.38.7-2.77,1.4-4.15,2.1-.99.5-.96,2.08,0,2.59l1.37.72v-2.59c-1.29.66-2.59,1.32-3.88,1.98-.8.41-1.03,1.76-.3,2.36l.99.81-.44-1.06.04,1.03c.03.87.67,1.42,1.5,1.5,1.1.1,2.2.21,3.3.31l-.76-2.8c-1.06.58-2.12,1.15-3.18,1.73s-.91,2.47.36,2.74c2.34.5,3.77,1.24,6.33,1.85l-.36-2.74c-1.07.56-2.13,1.11-3.2,1.67s-.85,1.97,0,2.59l1.14.83-.74-1.3c-.04,1.15-.45,2.09.04,3.53l.69-1.69-2.04,1.36c-.98.65-1,2.49.36,2.74l3.06.57-.36-2.74-2.19,1.35c-.78.48-1.04,1.69-.3,2.36l.99.89-.23-1.82-.63,1.11c-.47.83-.05,1.96.9,2.2l2.69.7-.66-2.51-1.46,1.2c-.78.64-.44,1.88.3,2.36l1.39.88v-2.59c-.54.4-1.07.79-1.61,1.19-1.1.82-.87,2.22.36,2.74l2,.85-.9-2.2-.79,1.1c-.41.56-.17,1.35.23,1.82.6.69,1.24,1.54,2.01,2.06.82.55,1.93.82,2.85,1.19l-.36-2.74-2.31,1.16c-1.23.62-.78,2.36.36,2.74l2.8.94v-2.89c-1.34.39-2.68.78-4.02,1.17-1.48.43-1.36,2.41,0,2.89l2.78.98-.66-2.51c-.94.91-1.4,1.51-1.81,2.76l1.05-1.05c-1.24.33-2.49.66-3.73.99-1.01.27-1.56,1.78-.66,2.51l1.27,1.03-.39-1.46-.19,1.02c-.16.83.22,1.58,1.05,1.85,1.01.33,2.03.63,3.03.99.7.26.11-.02.6.31.42.29.84.58,1.26.88l.36-2.74c-1.8.25-3.61.5-5.41.74-1.42.2-1.26,2.09-.36,2.74.46.33.93.65,1.38,1,.29.22-.47-.81-.06,0,.13.25.34.49.51.72l1.3-2.26-4.86.62c-1.57.2-2.17,2.47-.4,2.95,1.95.53,3.9,1.06,5.84,1.59l.4-2.95c-1.79.16-3.59.32-5.38.49-1.55.14-1.95,1.89-.76,2.8l1.58,1.2v-2.59l-1.7.82c-.95.46-.86,1.67-.3,2.36,1.54,1.91,3.75,2.34,6.02,3.19l-1.1-1.45.14,1.09,1.5-1.5c-1.77.08-3.55.16-5.32.24-1.5.07-2.02,1.98-.76,2.8.64.41,1.27.84,1.91,1.24.42.26-.39-.75-.09-.08.21.48.52,1.23.44.3.07.82-.13,1.34.47,2,.47.52,1.17.92,1.72,1.35l.66-2.51c-2.32.47-4.68.71-6.62,2.12-1.09.79-.88,2.26.36,2.74,1.92.75,3.84,1.5,5.76,2.25l-.9-2.2-.62.95,1.3-.74c-2.34-.16-4.68-.31-7.02-.47-1.22-.08-2.08,1.76-1.06,2.56l1.87,1.47.3-2.36-1.6.69c-.56.24-.9,1.13-.69,1.69.13.34.3.68.38,1.03-.22-.89-.12-.25-.32.29-.22.59.14,1.41.69,1.69,1.24.66,2.48,1.31,3.72,1.97l.36-2.74c-1.67.27-3.32.57-4.97.9-1.2.24-1.54,2.22-.36,2.74l5.72,2.52.76-2.8c-2.17-.2-4.35-.4-6.52-.6-1.46-.13-2.08,2.18-.76,2.8,1.72.8,3.44,1.61,5.16,2.41l.76-2.8-5.16-.28c-1.62-.09-1.86,2-.76,2.8.79.57,1.58,1.13,2.37,1.7l-.69-.9c.59,1.52,1.22,2.22,2.39,3.36l-.23-1.82c-.46.66-.61.84-1.17,1.46-.59.65-.52,1.46,0,2.12.8,1.02.94,1.26,1.43,2.3l1.3-2.26c-1.9.14-3.31.06-4.86,1.2-.82.6-.98,1.56-.3,2.36l1.19,1.41,1.06-2.56c-1.59-.1-3.18-.19-4.77-.29-1.38-.08-1.87,1.66-1.06,2.56.87.97,1.74,1.93,2.61,2.89l1.06-2.56c-1.14.03-2.28.05-3.42.08-.48.01-1.08.27-1.3.74l-.42.95c-.3.69-.26,1.68.54,2.05,2,.94,3.99,1.89,5.99,2.83l-.3-2.36-.93.8,1.06-.44c-1.83-.19-3.67-.37-5.5-.56-1.51-.15-2,2.11-.76,2.8,1.43.78,2.85,1.57,4.28,2.35l.36-2.74c-1.87.45-2.38.48-4.53.61-1.15.07-1.85,1.21-1.3,2.26s.56,1.05.82,2.08l1.05-1.85-1.65.57c-.96.33-1.6,1.74-.66,2.51.71.58,1.43,1.16,2.14,1.74l-.44-1.06c.01,1.1.02,1.73.89,2.48.71.61,1.5,1.15,2.24,1.72l.76-2.8c-.99.05-1.99.1-2.98.14s-1.62.91-1.45,1.9l.2,1.14,1.45-1.9-3.29.03c-1.46.01-2.08,2.06-.76,2.8,1.5.84,3.01,1.68,4.51,2.53l.76-2.8c-1.92-.26-3.84-.51-5.76-.77-1.51-.2-1.99,2.14-.76,2.8,1.72.92,3.44,1.83,5.16,2.75l.76-2.8c-1.23-.06-2.63-.33-3.84-.17s-2.23.91-3.17,1.58c-.86.62-1.07,2.02,0,2.59,1.79.95,3.57,1.91,5.36,2.86l.76-2.8c-1.79-.23-3.58-.47-5.36-.7-1.59-.21-1.88,2.07-.76,2.8s2.34,1.51,3.5,2.26l.36-2.74c-1.67.24-2.54.4-3.84,1.49l1.06-.44c-.94.04-1.88.08-2.82.12-1.41.06-2.14,2.07-.76,2.8,1.97,1.04,3.93,2.07,5.9,3.11l.76-2.8c-1.44.14-2.9.23-4.32.54-1.55.34-2.01.91-3.53,1.29-1.02.26-1.55,1.79-.66,2.51.79.64,1.59,1.28,2.38,1.93v-2.12l-.7.84,1.06-.44-3.32-.09c-1.48-.04-2.05,2.08-.76,2.8,1.9,1.04,3.79,2.08,5.69,3.12l.36-2.74c-1.77.31-2.15.36-4.03.54-1.47.14-2.06,1.94-.76,2.8,1.23.81,2.47,1.63,3.7,2.44l-.74-1.3-.03,1.09,1.9-1.45c-2.36-.5-4.72-1-7.08-1.5-1.66-.35-2.61,1.8-1.16,2.74,1.29.84,2.57,1.68,3.86,2.52l.36-2.74-1.57.51c-.92.3-1.39,1.33-.9,2.2.75,1.32,1.58,2.29,2.62,3.4l-.44-1.06-.06,1.08.74-1.3c-.79.58-.61.53-1.3.68-.33.07-.76.15-1.1.16-.66.03.4,0-.22-.04-1.34-.11-2.69-.34-4.03-.51s-1.83,1.7-1.06,2.56l1.49,1.67.66-2.51-1.83.39c-1.03.22-1.54,1.81-.66,2.51,1.58,1.26,3.03,2.5,4.44,3.94l1.06-2.56c-.95,0-1.9,0-2.85,0-1.6,0-1.9,1.96-.76,2.8l3.32,2.42.76-2.8c-1.62.07-3.23.06-4.85.12-1.77.07-3.09.22-4.33,1.52-.47.5-.56,1.22-.23,1.82l.76,1.41.9-2.2-1.46.51c-.96.34-1.61,1.74-.66,2.51,1.68,1.38,3.31,2.77,4.92,4.23l1.46-2.51c-1.58-.28-3.15-.56-4.73-.83-1.34-.24-2.7,1.43-1.46,2.51.68.59,1.38,1.17,2.04,1.78.48.44.09-.01.31.32.26.37.46.79.69,1.18l1.69-2.2c-1.85-.4-3.7-.8-5.55-1.21-1.33-.29-2.71,1.49-1.46,2.51,1.65,1.35,3.17,2.67,4.65,4.19l1.06-2.56-1.76-.02c-.29,0-.59,0-.88,0,.64.03,0,0-.11-.01-1.24-.15-2.47-.39-3.71-.58-1.33-.21-2.7,1.41-1.46,2.51.82.72,1.63,1.44,2.45,2.16l.66-2.51-1.54.46c-1.13.34-1.4,1.66-.66,2.51l1.58,1.8,1.06-2.56c-1.21-.15-2.43-.31-3.64-.46-1.63-.21-1.82,2.05-.76,2.8,1.4.98,2.8,1.97,4.2,2.95l1.16-2.74c-1.9-.46-3.8-.92-5.7-1.37-1.68-.41-2.57,1.8-1.16,2.74,1.66,1.11,3.33,2.21,4.99,3.32l.76-2.8c-1.66-.03-3.29-.02-4.95.06-1.54.07-1.98,1.95-.76,2.8,1.54,1.06,3.07,2.12,4.61,3.18l.76-2.8c-2.46,0-4.91-.42-7.26.35-.97.32-1.34,1.31-.9,2.2.94,1.9,2.27,2.87,3.89,4.23l.66-2.51-1.64.38c-1.13.26-1.41,1.72-.66,2.51.65.68,1.3,1.36,1.95,2.04l-.44-1.06-.05,1.12,1.9-1.45c-1.56-.33-3.67-1.21-5.27-.9-.73.14-1.62.56-2.31.85-1.14.47-1.36,1.03-1.66,2.19-.18.71.14,1.28.69,1.69,1.41,1.05,2.81,2.09,4.22,3.14l.76-2.8-2.59-.09c-1.31-.05-1.97,1.67-1.06,2.56.76.75,1.52,1.49,2.29,2.24l1.46-2.51c-2.63-.7-4.92-1.53-7.64-1.26-1.26.13-2.03,1.57-1.06,2.56.85.87,1.68,1.76,2.56,2.59.48.45,1.25,1.52,1.86,1.73.53.19-.02-.59-.02-.07,0,.3.22.71.31,1.01l1.45-1.9c-.7,0-1.41.02-2.1-.03s.38.09-.06,0c-.3-.06-.59-.16-.88-.24-1.36-.37-2.71-.73-4.07-1.1-1.76-.48-2.43,1.76-1.16,2.74,1.4,1.08,2.8,2.15,4.2,3.23l1.16-2.74c-1.72-.48-3.44-.95-5.16-1.43s-2.51,1.8-1.16,2.74c1.96,1.37,3.92,2.73,5.88,4.1l1.16-2.74c-1.96-.6-3.92-1.2-5.88-1.8-1.32-.41-2.25,1.09-1.69,2.2l.78,1.54,1.3-2.26-1.93.17c-.74.07-1.6.64-1.5,1.5l.14,1.22.74-1.3-1.15.56c-.47.23-.73.79-.74,1.3-.04,1.67-.16,2.91,1.26,3.98s2.96,2.24,4.45,3.35l1.16-2.74c-1.96-.64-3.92-1.27-5.89-1.91-.85-.27-2.01.49-1.9,1.45l.15,1.23.44-1.06-.84.72,1.06-.44-2.09.05c-1.58.04-1.92,1.95-.76,2.8l5.86,4.28.36-2.74c-1.24.23-2.48.49-3.72.7-1.13.19-1.94-.01-3.6-.22-1.44-.18-1.77,1.69-1.06,2.56l1.71,2.09-.23-1.82-.47.92,1.3-.74-1.83.17c-1.03.09-1.63.88-1.45,1.9.1.58.2,1.12.37,1.68.1.33.26.65.36.98-.25-.88-.09-.24-.26.32l.69-.9-1.14.54c-.45.22-.76.81-.74,1.3l.04,1.2,1.9-1.45c-1.16-.26-2.32-.52-3.48-.78-1.52-.34-2.42,1.37-1.46,2.51.63.75,1.26,1.5,1.89,2.24l.3-2.36c-.91.61-.92.55-2.13.8-.93.19-1.39,1.43-.9,2.2.82,1.28,1.66,2.55,2.51,3.81l1.3-2.26-2.44-.22c-1.07-.1-1.95,1.37-1.3,2.26.39.52.76,1.19,1.22,1.64s.11.6.12-.19c0,.34-.05.69-.07,1.03l1.9-1.45c-1.84-.68-3.69-1.36-5.53-2.04-1.37-.5-2.62,1.58-1.46,2.51,1.84,1.48,3.68,2.96,5.53,4.43l.66-2.51-1.38.39c-.83.24-1.19,1.04-1.05,1.85l.23,1.34,1.85-1.85c-1.92-.79-3.83-1.63-5.78-2.36s-3.23.6-3.75,2.42c-.14.48-.01,1.13.39,1.46,1.73,1.44,3.46,2.88,5.19,4.32l1.46-2.51c-1.38-.43-2.76-.86-4.13-1.29-1.18-.37-2.04.78-1.85,1.85l.24,1.35,1.85-1.85-3.14-.72c-1.41-.32-2.59,1.43-1.46,2.51s2.33,2.23,3.5,3.34l1.46-2.51c-1.53-.54-3.06-1.07-4.58-1.61-1.42-.5-2.54,1.52-1.46,2.51,1.34,1.23,2.68,2.46,4.02,3.69l.3-2.36-1.01.59,1.16-.15c-1.87-.31-3.11-.77-4.73.34-.54.37-.89,1.03-.69,1.69.42,1.39.47,1.6.13,2.93l1.85-1.05-2.69-.5c-1.45-.27-2.53,1.36-1.46,2.51.72.78,1.42,1.59,2.17,2.34.16.16.29.37.47.5.4.32-.28-.78-.18-.32s.33.94.49,1.39l1.85-1.85c-1.15-.33-2.31-.67-3.46-1-1.51-.44-2.42,1.43-1.46,2.51.86.97,1.72,1.93,2.59,2.9l1.82-2.36c-1.84-.79-3.69-1.57-5.53-2.36-1.25-.54-2.42.34-2.2,1.69.34,2.16,1.72,3.3,3.14,4.92l1.46-2.51c-.9-.21-1.81-.5-2.72-.63-1.14-.16-1.61.34-2.4,1.06-.62.56-.52,1.55,0,2.12.95,1.04,1.9,2.09,2.86,3.13l1.46-2.51c-1.42-.53-2.84-1.06-4.25-1.59s-2.41,1.5-1.46,2.51c1.05,1.11,2.1,2.23,3.14,3.34l1.06-2.56c-.63-.03-1.28-.12-1.91-.09.71-.03.8.32.36.07-.3-.17-.64-.28-.96-.41l-3.82-1.65c-1.15-.49-2.57.32-2.2,1.69.41,1.53.8,2.18,1.93,3.26s2.27,2.17,3.41,3.25l1.46-2.51c-.91-.23-1.84-.57-2.77-.71s-1.52.22-2.35.65l1.16-.15c-1-.18-2.22-.61-3.24-.44-.82.14-1.67.57-2.52.75-.94.2-1.38,1.42-.9,2.2.45.73.9,1.46,1.35,2.19l1.3-2.26h-1.8c-1.39-.01-1.86,1.59-1.06,2.55l2.52,3.03,1.46-2.51c-1.1-.35-2.19-.71-3.29-1.06-1.48-.48-2.44,1.46-1.46,2.51,1.19,1.26,2.38,2.53,3.57,3.79l-.44-1.06-.03,1.25,2.26-1.3c-1.33-.59-2.66-1.18-3.99-1.77-1.16-.51-2.27-.6-3.53-.75-1.42-.17-1.79,1.69-1.06,2.56s1.53,1.81,2.29,2.72c.55.66.13.04.46.73.25.51.52,1.01.78,1.51l1.3-2.26c-.52.07-2.06.02-.77.39-.44-.12-.9-.4-1.31-.59-1.06-.48-2.13-.96-3.19-1.44-1.5-.68-3.05,1.04-1.82,2.36s2.55,2.72,3.83,4.08v-2.12l-.85.66,1.82-.23c-1.56-.73-3.12-1.45-4.68-2.18s-2.93,1.02-1.82,2.36c.93,1.12,1.87,2.24,2.8,3.36l1.46-2.51c-1.01-.32-2.01-.64-3.02-.97-1.58-.51-2.29,1.44-1.46,2.51s1.59,2.05,2.39,3.08l.3-2.36-1.07.49,1.16-.15-2.64-.7c-.79-.21-1.62.26-1.85,1.05-.61,2.06.34,3,1.44,4.73l1.3-2.26c-.58.06-1.97-.11-.78.34-.48-.18-.93-.46-1.39-.69-1.08-.53-2.15-1.06-3.23-1.6-1.3-.64-2.84.69-2.05,2.05,1.28,2.2,2.53,4.36,3.54,6.7l2.05-2.05c-1.96-1.13-3.92-2.26-5.88-3.39-1.11-.64-2.59.42-2.2,1.69s.82,2.46,1.31,3.69l1.45-1.9-1.67-.06c-1.17-.04-1.83,1.29-1.3,2.26.46.83.92,1.67,1.39,2.5l1.69-2.2c-1.03-.42-2.05-.85-3.08-1.27-1.16-.48-2.46,1.2-1.69,2.2.71.93,1.43,1.87,2.14,2.8.93,1.21.78.97,1.01,2.45l2.2-1.69c-2.05-1.36-4.1-2.72-6.15-4.08-.9-.6-2.36.18-2.26,1.3.14,1.48.37,2.28,1.16,3.53,1.03,1.63,1.14,1.79,1.57,3.5l1.85-1.85c-2.35-.99-4.56-2.19-7.12-2.3-1.14-.05-1.87,1.31-1.3,2.26.65,1.08,1.3,2.17,1.95,3.24.05.07.36.6.2.3s.16.42.21.53c.24.61.48,1.22.72,1.83l2.51-1.46c-1.93-1.54-3.85-3.09-5.78-4.63-1.2-.96-2.76-.07-2.51,1.46.47,2.89,1.61,5.33,2.84,7.97l2.36-1.82c-1.56-1.3-3.12-2.61-4.68-3.91-1.07-.9-2.98-.08-2.51,1.46l.77,2.52,1.45-1.9c-1.2-.06-1.4-.17-2.69-.6-1.03-.35-2.25.79-1.85,1.85.43,1.14.87,2.28,1.3,3.43l2.2-1.69c-1.39-.89-2.72-1.69-4.2-2.41-.58-.28-1.35-.28-1.82.23-.68.75-1.16,1.21-1.04,2.28.1.89.38,1.78.57,2.65l2.51-1.46-2.54-2.2c-1-.87-2.48-.27-2.56,1.06-.16,2.57.8,4.69,1.62,7.12l2.51-1.46c-1.68-1.9-3.2-3.6-5.22-5.13-.73-.56-2.05.01-2.2.9-.22,1.27-.34,2.17-.04,3.41.31,1.31.62,2.62.93,3.93l2.51-1.46c-.71-.79-1.39-1.84-2.23-2.49-.88-.69-2.17-.35-3.25-.49-.74-.1-1.59.77-1.5,1.5.18,1.48.36,2.96.54,4.45l2.8-.76c-1.06-2.03-2.12-4.07-3.18-6.1-.65-1.25-2.99-.74-2.8.76.23,1.81.47,3.61.7,5.42l2.56-1.06c-1.36-1.64-1.79-2.19-3.08-3.96-.7-.96-2.43-1.01-2.74.36l-.47,2.08,2.51-.66c-1.13-1.1-1.66-1.79-3.32-1.59-.77.1-1.54.61-1.5,1.5.11,2.34.22,4.69.33,7.03l2.95-.4c-.72-2.12-1.44-4.24-2.16-6.36-.55-1.62-2.83-1.3-2.95.4-.11,1.5-.21,2.99-.32,4.49l2.56-1.06c-.29-.25-.61-.48-.88-.75-.29-.29-.02.13-.36-.58-.37-.78-.72-1.58-1.08-2.36-.44-.96-2.16-1-2.59,0l-.8,1.87,2.36-.3-1.07-.86c-1.07-.86-2.4-.28-2.56,1.06-.22,1.87-.44,3.73-.66,5.6l2.95-.4c-.46-2.22-.91-4.43-1.37-6.65-.29-1.41-2.64-1.46-2.89,0-.21,1.19-.42,2.38-.62,3.57-.05.28-.35,1.45-.12.97-.23.49-.67.96-.97,1.41l2.74.36c-.35-1.94-.7-3.88-1.05-5.82-.17-.93-1.44-1.4-2.2-.9-1.14.75-1.76,1.51-2.57,2.61l2.36-.3-.98-.81c-.85-.7-2.19-.5-2.51.66-.43,1.56-.86,3.13-1.29,4.69l2.95.4c-.18-2.32-.37-4.65-.55-6.97-.13-1.63-2.47-2.11-2.95-.4s-.96,3.45-1.44,5.18h2.89c-.21-1.37-.42-2.74-.64-4.1s-2.07-1.26-2.74-.36l-1.18,1.6,2.74.36-.76-2.06c-.51-1.37-2.42-1.47-2.89,0l-1.76,5.47h2.89c-.52-1.76-.93-3.47-1.29-5.27-.22-1.07-1.79-1.5-2.51-.66-.42.5-.85,1-1.27,1.5l2.51.66-.68-1.95c-.4-1.15-2.1-1.57-2.74-.36-.54,1-1.07,2.01-1.61,3.01l2.8.76c-.08-1.32-.17-2.63-.25-3.95s-2.12-2.22-2.8-.76c-.48,1.04-.96,2.08-1.44,3.12-.07.15-.67,1.26-.31.79-.35.45-.87.82-1.28,1.22h2.12c-.67-.7-1.28-1.21-2.11-1.72l.74,1.3c-.02-1.33-.05-2.65-.07-3.98-.02-1.08-1.28-1.95-2.26-1.3-.67.45-1.33.87-1.92,1.43-.36.34-.67.74-1.05,1.06.7-.6.11-.24-.53-.12l1.9,1.45c.07-1.51.15-3.02.22-4.53.05-1.07-1.34-1.96-2.26-1.3l-1.33.97,1.16-.15-.95-.35.9.69-.71-1.11c-.63-.99-1.95-.94-2.59,0s-1.33,1.95-2,2.93l2.74.36c-.14-.47-.31-.93-.41-1.41s-.03.07-.04-.08c-.01-.19.02-.44.03-.62.09-1.02.11-2.04.16-3.06.08-1.5-2.09-2.02-2.8-.76-.91,1.62-1.81,3.23-2.72,4.85l2.8.76-.18-2.63c-.06-.96-.91-1.71-1.9-1.45l-1.2.32,1.16.15c-.36-.18-1.04-.83-.44-.06-.24-.31-.39-.76-.56-1.11-.54-1.07-2-.87-2.59,0-.82,1.21-1.63,2.42-2.45,3.63l2.74,1.16c.38-1.96.75-3.92,1.13-5.88.32-1.65-1.79-2.63-2.74-1.16-.9,1.4-1.81,2.79-2.71,4.19l2.8.76c0-1.99.06-3.96.15-5.95.07-1.54-2.04-1.96-2.8-.76-1.04,1.67-2.08,3.34-3.12,5.01l2.8.76.26-3.35c.12-1.62-2.02-1.85-2.8-.76-.89,1.25-1.78,2.51-2.67,3.76l2.74,1.16c.5-2.07.99-4.14,1.49-6.21.42-1.76-1.74-2.45-2.74-1.16-.71.92-1.39,1.86-2.12,2.75-.55.67.12,0-.57.54-.46.35-.88.76-1.32,1.13l2.56,1.06c0-1.23.21-2.5-.34-3.62-.25-.5-.67-1.16-1.13-1.51-.82-.63.17.57-.13-.08-.15-.32-.26-.66-.39-.98-.36-.92-1.73-1.64-2.51-.66-.87,1.08-1.73,2.17-2.6,3.25l2.56,1.06c.3-2.7.43-3.69.84-6.45.22-1.48-1.3-2.48-2.51-1.46-1.91,1.62-3.81,3.24-5.67,4.9l1.06-.44-1.13-.02,1.45,1.9c.5-1.83,1-3.66,1.49-5.49.39-1.42-1.46-2.57-2.51-1.46-.6.64-1.21,1.27-1.81,1.92s-.69.55-1.73,1.04l2.26,1.3v-2.34c0-1.04-1.31-2-2.25-1.3l-1.86,1.4,2.26,1.3c.04-1.71.11-2.74-.76-4.23l.15,1.16c.15-1.03.3-2.06.45-3.09.2-1.35-1.38-2.67-2.51-1.46-.88.95-1.77,1.9-2.65,2.86l2.56,1.06-.16-1.89c-.1-1.17-1.65-2.14-2.56-1.06-1.09,1.29-2.18,2.58-3.27,3.87l1.82-.23-.89-.56.69,1.69c.89-2.32,1.78-4.64,2.68-6.96.54-1.4-1.55-2.55-2.51-1.46-1.07,1.21-2.14,2.42-3.21,3.63l1.82-.23-.95-.43.69.9-.25-1.64c-.15-.99-1.44-1.32-2.2-.9-1.27.71-2.5,1.44-3.72,2.22l2.2,1.69c.32-1.21.65-2.42.97-3.63.29-1.1-.74-2.15-1.85-1.85l-1.46.4,1.85,1.85.39-2.58c.21-1.37-1.37-2.65-2.51-1.46s-2.39,2.49-3.58,3.73l2.36,1.82c.82-1.92,1.63-3.84,2.45-5.75.54-1.26-.64-2.93-2.05-2.05-.76.47-1.52.95-2.29,1.41-.5.3-1.01.6-1.52.9-.28.14-.25.15.09.03.38-.08.37-.11-.02-.1-.04-.07-.72-.03-.8-.03l1.3,2.26c.68-1.6,1.36-3.21,2.04-4.81.5-1.18-.69-3.08-2.05-2.05-.86.65-1.72,1.29-2.59,1.94l2.2,1.69.9-3.05c.38-1.29-1.08-2.3-2.2-1.69-1.63.88-3.11,1.84-4.64,2.9l2.05,2.05,2.65-5.28c.63-1.26-.71-2.92-2.05-2.05-2.17,1.41-4.16,2.93-6.19,4.54l2.56,1.06c.02-.57.07-1.14.07-1.7,0,.81-.32.73-.04.34.16-.22.27-.55.39-.79.52-1.06,1.05-2.12,1.57-3.18.76-1.54-1.05-2.95-2.36-1.82-1.53,1.32-3.05,2.65-4.58,3.97l2.36,1.82c1.06-2.25,2.04-4.45,2.87-6.8.55-1.55-1.47-2.32-2.51-1.46-1.6,1.33-3.21,2.65-4.81,3.98l2.56,1.06c-.04-.45-.04-.91-.11-1.35.11.65-.38.77-.03.31.15-.2.24-.46.36-.68.48-.9.95-1.8,1.43-2.7s.04-1.88-.9-2.2l-1.04-.36.9.69-.61-.82.15,1.16.6-2.05c.38-1.3-1.08-2.3-2.2-1.69-2.33,1.26-4.59,2.57-6.86,3.94l2.05,2.05c.54-1.01,1.08-2.02,1.62-3.03.36-.67.21-1.68-.54-2.05l-1-.49.69,1.69.96-2.28c.3-.71-.33-1.71-1.05-1.85l-1.26-.24,1.05,1.05c-.65-1.96-1.74-2.45-3.69-2.85l1.1,1.45.19-1.48c.13-.99-1.06-1.67-1.9-1.45s-1.72.46-2.57.7l1.69,2.2c.79-1.04,1.59-2.07,2.38-3.11s-.52-2.68-1.69-2.2c-1.3.53-2.6,1.07-3.9,1.6l1.85,1.85c.19-1.08.32-2.04.3-3.14,0-.48-.27-1.09-.74-1.3-.98-.42-1.87-.73-2.91-.98l.9,2.2c.27-.44.54-.87.8-1.32.12-.2.23-.42.37-.61-.35.49.05-.02.11-.09.74-.82,1.52-1.61,2.27-2.42.99-1.05.02-2.97-1.46-2.51l-4.3,1.35,1.9,1.45.04-1.21-.44,1.06c.55-.68,1.09-1.36,1.64-2.04.76-.95.35-2.59-1.06-2.56-1.57.04-3.14.07-4.71.11l1.06,2.56c1.16-.94,2.32-1.88,3.48-2.82s-.11-2.87-1.46-2.51c-1.96.53-3.92,1.05-5.88,1.58l1.69,2.2c.18-.36.35-.73.54-1.07.32-.55-.16.01.48-.56.72-.64,1.48-1.24,2.23-1.87.95-.8.21-2.7-1.06-2.56s-2.55.28-3.82.42l.76,2.8c1.44-.92,2.88-1.84,4.32-2.76s.49-3.03-1.16-2.74c-1.93.34-3.86.67-5.79,1.01l1.16,2.74c1.1-.68,2.21-1.36,3.31-2.04,1.24-.77,1.47-1.4,1.64-2.87l-.44,1.06,1.73-1.56c1.24-1.11-.13-2.7-1.46-2.51-2.44.35-4.87.7-7.31,1.04l1.16,2.74c1.34-.73,2.69-1.45,4.03-2.18,1.06-.57.94-2.54-.36-2.74-.88-.14-1.76-.28-2.64-.41l.36,2.74c.94-.57,1.88-1.15,2.82-1.72,1.29-.79.72-2.74-.76-2.8l-4.24-.16.76,2.8c1.13-.58,2.26-1.16,3.39-1.74s.83-2.4-.36-2.74c-.75-.22-1.49-.43-2.24-.65l.9.69-.63-.97-.54,2.05,3.19-1.51c.46-.22.75-.8.74-1.3-.03-1.75-.2-2.7-1.4-4.01v2.12l1.15-1.11c.83-.81.4-2.18-.66-2.51-1.9-.58-3.81-1.15-5.71-1.71v2.89c1.69-.43,3.39-.85,5.08-1.28.65-.16,1.09-.8,1.1-1.45.04-1.95-.74-2.32-2.28-3.3l-.36,2.74c.97-.35,1.93-.69,2.9-1.04.65-.23,1.08-.75,1.1-1.45.04-1.21-.29-1.99-.2-3.01.06-.67-.51-1.26-1.1-1.45l-3.52-1.14.36,2.74,1.39-.98c1.04-.73.94-2.35-.36-2.74l-4.22-1.26.36,2.74c.33-.24.65-.51,1-.73.38-.24-.11-.05.66-.28.84-.24,1.7-.44,2.55-.66.5-.13.92-.55,1.05-1.05.39-1.48.21-2.04-.68-3.27l-.9,2.2,2.89-.78c1.16-.31,1.57-2.19.36-2.74-.94-.43-1.88-.86-2.81-1.29l.69,1.69c.29-1.47.13-2.06-.7-3.3l-.9,2.2c1.02-.24,2.05-.48,3.07-.71,1.48-.34,1.38-2.5,0-2.89-1.96-.57-3.92-1.13-5.88-1.7v2.89c1.57-.5,2.95-1.01,4.41-1.79,1.06-.56.88-1.98,0-2.59l-1.83-1.27-.36,2.74c.99-.22,2.28-.29,3.19-.76,1.11-.57,1.63-1.8,1.96-2.92l-.69.9,1.44-.85c.66-.39,1-1.38.54-2.05l-.76-1.13-.23,1.82.98-.91c.75-.7.46-1.83-.3-2.36-.62-.42-1.24-.84-1.85-1.26l.54,2.05c.24-.31,1.15-1.16.28-.47.36-.29.76-.54,1.14-.81.53-.38.9-1.02.69-1.69-.39-1.26-.83-2.51-2-3.22-.69-.41-1.66-.82-2.43-1.05-.63-.19-.66-.6-.2.13-.2-.31-.35-.67-.52-.99l-.9,2.2c1.46-.6,2.4-.89,3.3-2.22-.04.06.38-.3.39-.52.33-.35.22-.34-.32.04l.35-.09c.73-.06,1.52-.39,2.23-.58,1.58-.41,1.26-2.36,0-2.89-1.18-.5-2.36-.99-3.54-1.49l.9,2.2c.09-.17.19-.58.34-.65.56-.26-.88.39-.02.06.48-.19.95-.43,1.42-.64.87-.39.96-1.75.3-2.36-.83-.77-1.6-1.54-2.35-2.38l-1.06,2.56,4.95-.37c1.63-.12,2.11-2.48.4-2.95-2.49-.68-4.97-1.36-7.46-2.05l-.4,2.95c2.05-.06,4.1-.13,6.15-.19,1.76-.06,1.95-2.36.4-2.95-1.43-.54-2.87-1.09-4.3-1.63l.36,2.74c1.26-.79,1.72-.9,3.45-1.39,1.1-.31,1.44-1.7.66-2.51l-1.15-1.2v2.12l.95-.9c.57-.53.59-1.59,0-2.12-1.26-1.13-1.76-1.78-2.9-3.27l-1.3,2.26c2.49-.18,4.67-.22,7-1.13,1.09-.42,1.44-1.6.66-2.51-1.06-1.25-1.76-1.6-3.28-2.09s-3.07-.99-4.61-1.48l1.05,1.85.31-1-1.45,1.1c1.19-.16,2.39-.32,3.58-.47,1.42-.19,2.11-1.93.76-2.8l-2.15-1.39v2.59c.29-.18.9-.42,1.1-.69.29-.39-.84.09-.33.04.24-.02.48-.05.72-.08l2.86-.31c1.66-.18,2.06-2.36.4-2.95-1.88-.66-3.77-1.32-5.65-1.98l-.4,2.95c1.78-.05,3.56-.09,5.33-.14.89-.02,1.81-.95,1.45-1.9l-.43-1.11-.15,1.16.42-.96c.3-.69.26-1.68-.54-2.05-1.2-.56-2.41-1.12-3.61-1.68l.54,2.05.45-.97-.9.69,2.1-.66c.76-.24,1.29-1.04,1.05-1.85l-.33-1.1-1.45,1.9,3.75-.34c1.35-.12,2.21-2.07.76-2.8l-3.34-1.67v2.59l1.55-.75c.63-.3.81-1.08.69-1.69-.28-1.47-.9-2.04-1.96-3.06l-.66,2.51,2.46-.55c1.21-.27,1.52-2.18.36-2.74-1.25-.6-2.5-1.21-3.76-1.81l-.76,2.8c1.12-.12,2.23-.24,3.35-.36,1.26-.13,2.02-1.56,1.06-2.56l-1.26-1.31-.66,2.51,2.89-.43c.68-.1,1.06-.84,1.1-1.45l.08-1.03c.04-.48-.3-1.09-.74-1.3-1.37-.65-2.73-1.3-4.1-1.95l-.76,2.8c1.7.03,3.41.06,5.11.09.81.01,1.49-.7,1.5-1.5,0-.7.01-1.39.02-2.09,0-.52-.29-1.04-.74-1.3-1.08-.6-2.16-1.21-3.25-1.81l-.76,2.8c1.97-.19,3.46-.25,5.18-1.25.98-.58.96-2.01,0-2.59s-1.95-1.18-2.93-1.77l.54,2.05.61-.91-1.3.74c2.02-.15,3.91-.35,5.88-.75,1.61-.33,1.22-2.39,0-2.89-2.41-.98-4.81-1.97-7.22-2.95l-.4,2.95c1.67.09,3.33.18,5,.27,1.13.06,1.88-1.32,1.3-2.26l-.81-1.28-.9,2.2c1.28-.43,2.52-.75,3.84-1.04s1.37-2.07.36-2.74c-.92-.62-1.85-1.23-2.77-1.85l-.76,2.8,3.51-.04c1.39-.02,2.17-2.15.76-2.8-2.2-1-4.4-2.01-6.61-3.01l-.76,2.8c2.03-.1,3.5.13,4.93-1.43.44-.48.6-1.24.23-1.82l-.85-1.34-1.3,2.26,2.67-.23c1.43-.12,2.11-1.99.76-2.8s-2.62-1.56-3.93-2.34l-.76,2.8c2.17-.23,4.17-.18,6.35-.07,1.14.06,1.87-1.32,1.3-2.26-.74-1.2-1.31-1.85-2.46-2.63-.64-.44-1.27-.89-1.93-1.31-.26-.17.18.63.22.08.02-.25-.31-.72-.41-.96l-1.3,2.26c1.24.07,2.47.15,3.71.22s2.03-1.72,1.06-2.56c-.62-.54-1.27-1.06-1.87-1.62-.41-.38.06.17-.34-.38-.24-.33-.44-.68-.66-1.02l-.23,1.82.93-.77-1.06.44c2.48.32,4.85.58,7.35.63,1.48.03,2.06-2.08.76-2.8-2.29-1.27-4.59-2.54-6.88-3.81l-.76,2.8c2.87-.14,5.63.51,8.43-.1,1.35-.3,1.35-2.06.36-2.74-1.12-.77-2.23-1.54-3.35-2.31-.2-.14-.45-.28-.64-.44-.28-.24.32.29-.04-.09-.49-.52-.96-1.07-1.43-1.6l-1.06,2.56c1.15.12,2.29.25,3.44.37,1.26.14,2.02-1.76,1.06-2.56l-2.89-2.42-1.46,2.51c2.1.55,4.19,1.11,6.29,1.66.97.26,1.87-.47,1.9-1.45l.04-1.11-.74,1.3,1-.67c.99-.67.93-1.91,0-2.59-1.38-1-2.76-2.01-4.14-3.01l-.76,2.8c1.65.05,3.28.05,4.94,0,1.18-.04,2.14-1.7,1.06-2.56s-2.23-1.79-3.34-2.69l-1.46,2.51c1.67.4,3.35.8,5.02,1.21s2.49-1.76,1.16-2.74c-1.44-1.06-2.88-2.11-4.32-3.17l-1.16,2.74c1.94.54,3.89,1.08,5.83,1.62.47.13,1.14.02,1.46-.39l.64-.82c.54-.69.57-1.43,0-2.12l-1.55-1.87-1.06,2.56c.73-.03,1.46-.05,2.19-.08.6-.02,1.34-.45,1.45-1.1l.17-1.05c.12-.72-.1-1.27-.69-1.69-1.73-1.23-3.46-2.45-5.2-3.68l-1.16,2.74c2.43.61,4.51,1.35,7,1.01.74-.1,1.17-.41,1.45-1.1l.38-.95c.26-.66-.19-1.33-.69-1.69-1.63-1.2-3.26-2.4-4.89-3.6l-1.16,2.74c1.22.29,2.43.6,3.65.87,1.1.24,1.83.06,2.92-.25.73-.21,1.33-1.08,1.05-1.85l-.53-1.42-.69,1.69,1.03-.62c.76-.46,1.07-1.73.3-2.36-1.26-1.04-2.52-2.07-3.78-3.11l.23,1.82.46-.92-.9.69c1.04-.21,1.89-.39,2.81-.93.35-.2-.76-.03-.23.09.27.06.57.05.84.07l1.51.13c1.29.11,1.98-1.72,1.06-2.56-1.02-.93-2.04-1.86-3.06-2.78l-1.46,2.51c1.8.57,3.6,1.15,5.41,1.72,1.02.33,1.79-.53,1.9-1.45.14-1.21.04-1.78-.82-2.63-.78-.77-1.59-1.5-2.39-2.25l-.3,2.36c.95-.53,1-.52,2.15-.82.63-.17,1.1-.79,1.1-1.45,0-1.08-.03-1.73-.77-2.55s-1.62-1.59-2.43-2.37l-1.06,2.56c1.85-.09,2.3.04,4.4.47.81.16,1.36.27,2.09-.25.2-.14,1.18-1.01.21-.42.32-.19.73-.3,1.08-.44.97-.4,1.57-1.66.66-2.51-1.09-1-2.17-2.01-3.26-3.01l.44,1.06.08-1.14-1.9,1.45c2.09.45,3.65.79,5.77.47,1.03-.15,1.28-1.44.9-2.2l-.82-1.65-1.3,2.26,1.8-.14c1.17-.09,2.13-1.65,1.06-2.56-1.44-1.23-2.88-2.46-4.32-3.69l-1.46,2.51c1.46.45,2.93.91,4.39,1.36s2.56-1.5,1.46-2.51c-1.2-1.1-2.4-2.19-3.59-3.29l.39,1.46.24-1.06-.69.9.89-.67-1.16.15c1.88.36,3.75.68,5.65.95,1.3.19,2.31-.95,1.69-2.2l-.83-1.69-1.69,2.2c1.07.24,2.15.49,3.22.73,1.14.26,2.54-1.08,1.69-2.2-1.51-2-3.1-3.7-4.88-5.48l-1.46,2.51c1.76.66,3.51,1.32,5.27,1.97,1.45.54,2.46-1.51,1.46-2.51l-3.03-3.03.44,1.06.04-1.18-1.9,1.45c1.28.37,2.55.75,3.83,1.12s2.36-1.09,1.69-2.2c-.38-.63-.76-1.26-1.13-1.89l-.54,2.05c.41-.3,1.27-.54.24-.44.32-.03.68.04,1.01.07.74.05,1.31.05,2.02-.12.81-.19,1.38-.34,1.83-1.09.18-.3.2-.7.38-1.01-.54.9.3,0,.51-.17.6-.48.57-1.64,0-2.12-1.77-1.49-3.54-2.99-5.3-4.48l-1.46,2.51c1.66.62,3.32,1.25,4.98,1.87,1.17.44,2.47-1.17,1.69-2.2-.56-.75-1.13-1.5-1.69-2.26l-.54,2.05c.71-.53.91-.63,1.81-.92,1.15-.37,1.38-1.63.66-2.51l-1.99-2.45-1.46,2.51c1.81.72,3.62,1.45,5.42,2.17.48.19,1.12-.04,1.46-.39l.73-.75c.53-.55.63-1.59,0-2.12-1.83-1.55-3.65-3.09-5.48-4.64l.23,1.82.56-.87-1.69.69c2.54.41,4.75,1.2,7.18,2.08,1.07.39,2.17-.81,1.85-1.85-.45-1.44-1.03-2.53-1.81-3.82l-.9,2.2c.35-.06.81-.05,1.14-.18.71-.28-.8-.22.01,0,.69.19,1.45.23,2.16.34,1.54.24,2.4-1.29,1.46-2.51-.61-.79-1.23-1.58-1.84-2.37l-1.46,2.51c.93.21,1.88.51,2.82.63,1.16.15,1.59-.31,2.35-1.11.54-.56.62-1.57,0-2.12-1-.9-1.99-1.79-2.99-2.69-.42-.38-.89-.96-1.39-1.25-.05-.03.15.81.16.18,0-.33-.25-.8-.35-1.12l-1.85,1.85c1.79.72,3.59,1.45,5.38,2.17,1.48.6,2.39-1.51,1.46-2.51s-1.8-1.94-2.7-2.91l-1.46,2.51c1.3.41,2.6.83,3.9,1.24,1.55.49,2.34-1.44,1.46-2.51-.7-.85-1.4-1.69-2.11-2.54l-1.46,2.51c1.33.43,2.66.86,3.99,1.29s2.21-1.1,1.69-2.2c-1.06-2.28-2.71-3.66-4.5-5.41l.44,1.06-.03-1.23-2.26,1.3c2.01.85,4.02,1.7,6.02,2.55,1.45.61,3.16-1.07,1.82-2.36l-3.64-3.49-1.46,2.51c1.74.68,3.48,1.36,5.22,2.04,1.29.51,2.26-1.15,1.69-2.2l-.99-1.83.15,1.16c.68-1.97-.27-2.8-1.42-4.37l-.9,2.2c.4-.12.79-.25,1.19-.35-.85.22-.5-.04.15.15.76.22,1.55.36,2.33.54,1.4.33,2.59-1.44,1.46-2.51-1.24-1.17-2.47-2.33-3.71-3.5l-1.06,2.56,2.5.33c1.39.18,1.84-1.71,1.06-2.56-.83-.91-1.65-1.82-2.48-2.73l-1.06,2.56c1.7-.06,2.19,0,4.11.3,1.28.2,2.34-.97,1.69-2.2l-.93-1.78-1.69,2.2c1.51.52,3.02,1.04,4.54,1.56,1.22.42,2.39-1.13,1.69-2.2-1.46-2.24-3.17-3.84-5.13-5.68v2.12c.64-.59,1.21-.92,2.01-1.57.98-.79,1.03-1.48,1.1-2.67l-1.9,1.45c1.96.77,3.91,1.54,5.87,2.3,1.37.54,2.61-1.59,1.46-2.51-1.94-1.56-3.89-3.11-5.83-4.67l-1.46,2.51c1.76.64,3.52,1.29,5.28,1.93,1.47.54,2.44-1.5,1.46-2.51-.91-.94-1.83-1.88-2.74-2.82l-1.46,2.51c1.12.26,2.23.52,3.35.78,1.5.35,2.44-1.38,1.46-2.51-.72-.82-1.44-1.64-2.15-2.46v2.12l.68-.79-1.46.39,3.14.63c1.08.22,2.18-.68,1.85-1.85l-.42-1.44-1.85,1.85,2.72.38c1.03.14,2.26-.64,1.85-1.85-.65-1.89-1.63-2.99-2.93-4.5l-1.46,2.51,3.34.72c1.19.26,2.46-1.04,1.69-2.2l-1.27-1.91-.9,2.2c.96-.22,1.88-.47,2.81-.79s1.6-1.74.66-2.51c-1.53-1.25-3.07-2.5-4.6-3.76l-1.46,2.51c1.2.28,2.4.55,3.59.83s2.41-1.05,1.69-2.2l-.56-.9c-.05-.08-.64-1.12-.44-.64-.16-.36-.29-.82-.37-1.2.2.99.12.18.27-.31l-1.45,1.1c1.61.13,2.84.17,4.41-.2.73-.17,1.33-1.11,1.05-1.85l-.58-1.48-1.45,1.9c.4-.01.8-.02,1.2-.04.25-.01.5-.03.74-.03-.35-.01-.19-.02.07.01.97.12,1.95.35,2.91.52,1.41.25,2.58-1.37,1.46-2.51l-2.45-2.48-1.06,2.56c1.33-.18,2.58-.25,3.92-.27,1.57-.02,1.93-1.96.76-2.8-2.11-1.49-4.22-2.99-6.33-4.48l-.76,2.8c1.83.22,3.65.41,5.49.54,1.25.09,2.04-1.74,1.06-2.56-1.19-1-2.37-1.99-3.56-2.99l-1.46,2.51c2.23.76,4.45,1.51,6.68,2.27,1.71.58,2.46-1.82,1.16-2.74-1.94-1.37-3.87-2.75-5.81-4.12l-1.16,2.74c2.02.31,3.89.56,5.94.55.81,0,1.5-.68,1.5-1.5,0-.91,0-.95.24-1.77.14-.49,0-1.12-.39-1.46l-3-2.63-.3,2.36,1.17-.57-1.16.15c1.87.53,3.75,1.06,5.62,1.6,1.37.39,2.63-1.51,1.46-2.51-1.72-1.46-3.23-2.78-4.63-4.54l-1.06,2.56,2.02-.17c1.35-.12,1.91-1.53,1.06-2.56l-1.55-1.88-.3,2.36,1.02-.65-1.16.15c1.77.45,3.54.91,5.32,1.36s2.47-1.77,1.16-2.74c-1.38-1.03-2.76-2.05-4.14-3.08l.69.9-.5-1.36-1.45,1.9,2.23-.1c1.92-.09,1.93-3.09,0-3h0Z"/>
    </g>
  </g>
</svg>