<?xml version="1.0" encoding="UTF-8"?>
<svg id="Layer_2" data-name="Layer 2" xmlns="http://www.w3.org/2000/svg" viewBox="0 0 951.86 641.84">
  <defs>
    <style>
      .cls-1 {
        fill: #77b2bd;
      }

      .cls-1, .cls-2 {
        stroke-width: 0px;
      }

      .cls-2 {
        fill: #7ab8c2;
      }
    </style>
  </defs>
  <g id="Road_3" data-name="Road 3">
    <g>
      <path class="cls-2" d="m6.91,228.71c1.05,6.42,5.86,11.51,10.7,15.86,29.73,26.74,69.56,41.96,109.54,41.87,6.24,20.04,23.61,36.21,44.05,40.98,20.44,4.78,43.18-2.01,57.65-17.21,16.22,21.98,52.85,24.45,71.88,4.85,1.89,5.97,3.79,11.94,5.68,17.91,2.83,8.93,5.79,18.1,11.81,25.28,12.41,14.81,33.98,17.2,53.3,17.76,19.33.57,38.91.37,57.64-4.44,18.73-4.81,36.73-14.67,48.1-30.31,12.12-16.67,15.6-38,17.25-58.54,1.61-20.07,1.7-40.9-5.87-59.56-4.54-11.17-11.63-21.08-18.66-30.87-11.99-16.69-24.35-33.75-41.41-45.21-27.68-18.59-63.2-19.67-96.54-19.09-13.42.23-27.15.68-39.68,5.48-8.12,3.11-15.45,7.94-22.7,12.72-34.33,22.66-69.8,46.47-91.09,81.67,6.55-5.44,6.2-16.35.96-23.05-5.24-6.71-13.93-9.81-22.38-10.85-32.96-4.08-66.6,22.53-70.23,55.54,2-10.76-6.46-21.3-16.66-25.25-10.2-3.95-21.6-2.85-32.42-1.2s-21.86,3.78-32.6,1.71c-1.24,4.94-2.48,9.88-3.72,14.81"/>
      <path class="cls-1" d="m5.47,229.11c1.66,8.84,9.15,15.07,15.71,20.52,7.1,5.9,14.7,11.21,22.69,15.84,16.11,9.32,33.8,15.95,52.08,19.48,10.28,1.99,20.74,2.98,31.2,2.98l-1.45-1.1c4.97,15.63,16.24,28.96,30.74,36.62s32.99,9.01,49.07,3.37c9.22-3.24,17.61-8.52,24.4-15.56l-2.36-.3c13.27,17.68,38.69,23.39,58.92,15.27,5.75-2.31,10.96-5.7,15.32-10.12l-2.51-.66c2.06,6.5,4.11,13,6.18,19.49,1.8,5.64,3.71,11.29,6.48,16.54,5.03,9.54,13.14,16.25,23.1,20.19s20.78,5.12,31.36,5.64c13.21.65,26.57.76,39.75-.42,23.28-2.08,47.06-9.08,64.31-25.61s22.87-40.49,25.11-63.62c2.45-25.45,2.45-51.79-10.22-74.77-6.12-11.1-13.92-21.34-21.46-31.5s-14.8-19.16-23.82-27.21c-17.74-15.84-40.06-23.31-63.37-26.11-12.09-1.45-24.28-1.75-36.45-1.68s-25.61,0-38.06,2.65-23.78,9.57-34.66,16.76c-9.94,6.56-19.85,13.17-29.51,20.14-18.83,13.6-36.87,28.68-51.12,47.15-3.47,4.5-6.69,9.18-9.65,14.03-.92,1.51,1.11,2.9,2.36,1.82,7.39-6.46,6.57-18.28.73-25.46-6.92-8.51-18.9-11.31-29.39-11.41-20.42-.2-40.17,10.47-52.61,26.41-7.04,9.02-11.61,19.66-12.93,31.04-.19,1.66,2.67,2.07,2.95.4,1.15-6.98-1.31-13.64-5.91-18.89-5.23-5.97-12.54-9.25-20.29-10.39-18.97-2.79-37.6,6.14-56.52,2.7-.78-.14-1.63.21-1.85,1.05-1.24,4.94-2.48,9.88-3.72,14.81-.47,1.87,2.42,2.67,2.89.8,1.24-4.94,2.48-9.88,3.72-14.81l-1.85,1.05c17.1,3.11,33.7-3.55,50.77-3.14,7.95.19,16.09,2.11,22.17,7.5,5.23,4.64,8.86,11.39,7.69,18.53l2.95.4c2.16-18.54,13.93-34.97,29.57-44.75,7.71-4.82,16.42-8.15,25.47-9.27s19.99-.26,28.32,4.63c4.79,2.81,8.53,7.04,9.77,12.54,1.16,5.13,0,10.63-4.04,14.17l2.36,1.82c11.81-19.4,28.06-35.5,45.75-49.57,9.02-7.17,18.42-13.84,27.95-20.31s19.28-13.41,29.44-19.13c11.36-6.39,23.55-8.97,36.47-9.71,11.87-.68,23.86-.7,35.75-.35,22.98.69,46.79,3.81,67.06,15.39,20.54,11.74,34.46,31.41,47.95,50.26,7.27,10.16,14.44,20.6,18.52,32.51s5.26,24.62,5.14,37.18-1.05,24.43-3.05,36.4-5.05,22.88-10.87,33.03c-11.17,19.5-31.67,31.12-53.02,36.26-12.92,3.11-26.24,4.05-39.49,4.15-11.52.09-23.27.02-34.69-1.65-10.06-1.47-20.4-4.36-28.42-10.89-9.08-7.4-12.93-18.41-16.36-29.22-1.94-6.1-3.87-12.21-5.8-18.31-.34-1.06-1.69-1.49-2.51-.66-18.57,18.83-53.59,16.68-69.53-4.55-.56-.75-1.62-1.06-2.36-.3-11.4,11.81-27.58,18.45-43.99,18.28-15.94-.16-31.07-7.29-41.93-18.86-6.03-6.43-10.6-14.12-13.27-22.53-.2-.63-.77-1.1-1.45-1.1-35.68,0-71.1-12.06-99.38-33.84-3.95-3.04-7.83-6.25-11.41-9.74-3.76-3.66-7.02-7.79-8.01-13.05-.36-1.9-3.25-1.09-2.89.8h0Z"/>
    </g>
    <g>
      <path class="cls-2" d="m740.39,17.15c-36.99,35.96-71.65,52.91-108.15,89.6-18.71,18.81-32.26,43.99-45.53,68.78-5.06,9.45-10.25,19.31-11.52,30.5-2.66,23.43,12.22,44,26.86,59.46,16.1,17.02,35.22,33.25,56.48,32.01,11.87-.69,23.03-6.85,33.63-13.41,48.64-30.13,92.64-71.4,129.05-121.03,6.35-8.66,12.53-17.67,16.81-28.06,8.03-19.51,8.73-42.14,9.27-63.97.34-13.92.57-28.51-4.57-40.93-6.6-15.94-21.08-25.2-35.55-27.72-14.47-2.52-29.15.66-43.53,3.84"/>
      <path class="cls-1" d="m739.33,16.09c-10.61,10.3-21.91,19.84-33.59,28.91-10.91,8.48-22.11,16.57-33.09,24.96s-22.4,17.64-32.82,27.36c-5.37,5.01-10.63,10.15-15.43,15.71-4.4,5.1-8.47,10.49-12.29,16.03-8.12,11.79-15.14,24.29-21.94,36.87-6.59,12.18-14.35,24.68-16.28,38.63-3.68,26.58,14.43,49.46,32.06,67.09,9.39,9.39,19.86,18.4,32.24,23.57,5.58,2.33,11.54,3.77,17.6,3.84,6.95.08,13.71-1.75,20.06-4.46s12.83-6.56,18.92-10.38c5.57-3.49,11.06-7.12,16.47-10.87,10.97-7.62,21.59-15.75,31.84-24.33,21.01-17.6,40.4-37.09,58.06-58.04,8.99-10.66,17.65-21.67,25.63-33.1,4.14-5.93,7.99-12.09,11.03-18.66s5.11-13.03,6.63-19.87c3.14-14.09,3.82-28.6,4.22-42.98s1.28-28.74-2.93-42.34c-3.59-11.61-11.43-21.35-22.02-27.32-11.71-6.59-25.19-7.63-38.33-6.05-7.46.9-14.8,2.49-22.13,4.11-1.88.42-1.09,3.31.8,2.89,14.47-3.19,29.72-6.64,44.51-3.49,10.87,2.31,21.03,8.38,27.65,17.39,8.13,11.07,9.67,24.93,9.75,38.29.09,14.03-.3,28.24-1.77,42.19s-4.56,27.59-11.11,39.99-15.1,23.25-23.61,34.04c-16.61,21.07-34.91,40.83-54.77,58.87-19.31,17.53-40.11,33.42-62.25,47.22-11.5,7.17-24.19,14.58-38.23,13.86-12.64-.64-24.14-7.46-33.76-15.23s-19.17-17.48-27.06-27.55-14.22-21.14-16.33-33.62c-1.11-6.54-.83-13.26.77-19.69s4.6-12.99,7.78-19.1c6.38-12.25,12.97-24.45,20.11-36.28s14.65-22.79,23.79-32.76c9.64-10.51,20.54-19.99,31.59-28.97,21.09-17.14,43.72-32.29,64.36-50.01,5.47-4.7,10.81-9.56,15.99-14.59,1.39-1.35-.73-3.47-2.12-2.12h0Z"/>
    </g>
    <g>
      <path class="cls-2" d="m942.3,622.67c.67-6.47-2.65-12.64-6.19-18.1-21.71-33.57-56.19-58.67-94.81-69.02-.79-20.97-13.34-41.12-31.82-51.06-18.48-9.95-42.21-9.33-60.15,1.56-9.92-25.45-44.64-37.4-68.12-23.45-.27-6.26-.54-12.52-.8-18.78-.4-9.36-.87-18.99-4.8-27.49-8.12-17.54-28.31-25.47-46.81-31.06-18.51-5.59-37.46-10.52-56.8-10.76-19.33-.25-39.28,4.57-54.35,16.7-16.06,12.92-24.98,32.61-31.94,52.01-6.8,18.95-12.32,39.04-9.88,59.02,1.46,11.96,5.73,23.38,9.96,34.67,7.21,19.24,14.69,38.94,28.16,54.45,21.86,25.18,55.88,35.49,88.21,43.64,13.02,3.28,26.38,6.43,39.74,5.07,8.65-.88,16.98-3.63,25.24-6.36,39.06-12.91,79.51-26.64,109.26-55.05-7.74,3.54-10.25,14.16-6.95,22,3.31,7.84,10.89,13.11,18.77,16.32,30.75,12.54,70.17-4.36,82.29-35.28-4.74,9.86.67,22.24,9.49,28.72,8.82,6.48,20.11,8.39,30.98,9.62s22.09,2.06,31.92,6.86c2.49-4.44,4.97-8.88,7.46-13.33"/>
      <path class="cls-1" d="m943.8,622.67c.76-9.71-5.8-18.43-11.21-25.88s-11.18-14.15-17.59-20.47c-13-12.82-28.12-23.52-44.55-31.47-9.22-4.47-18.85-8.06-28.75-10.74l1.1,1.45c-.71-16.22-7.95-31.86-19.73-43.02-12.43-11.79-29.46-17.61-46.52-16.45-9.87.67-19.48,3.6-27.98,8.68l2.2.9c-8.18-20.52-31.27-32.7-52.9-30.12-6.16.73-12.06,2.64-17.42,5.77l2.26,1.3c-.3-7.11-.58-14.22-.92-21.33-.3-6.36-.75-12.8-2.44-18.97-2.76-10.08-9.19-18.18-17.64-24.16s-18.18-9.74-27.92-12.88c-12.44-4.01-25.15-7.55-38.02-9.85-23.85-4.25-49.84-3.54-71.18,9.17-19.92,11.86-30.85,32.9-38.74,53.92-4.6,12.26-8.71,24.84-10.76,37.81s-1.6,26.33,1.89,39.26,8.16,24.35,12.91,36.18c4.47,11.14,9.51,22.15,16.35,32.06,12.89,18.68,31.89,30.98,52.67,39.39,10.63,4.3,21.62,7.64,32.68,10.61,12.31,3.31,24.82,6.82,37.57,7.83,13.68,1.09,26.27-2.48,39.12-6.73,11.27-3.73,22.53-7.49,33.64-11.66,22.1-8.29,43.89-18.26,62.74-32.65,4.45-3.4,8.72-7.02,12.79-10.88,1.29-1.23-.35-3.07-1.82-2.36-9.1,4.42-11.14,16.48-7.05,25.02,4.8,10.02,16.02,15.74,26.33,18.39,19.55,5.02,41.07-.31,56.96-12.47,8.91-6.82,15.92-15.76,20.08-26.19.62-1.57-2.04-2.7-2.74-1.16-4.9,10.73.33,23.19,9.19,30.14,10.85,8.52,25.26,9.63,38.45,11.11,8.63.97,17.37,2.23,25.28,6.01.72.34,1.63.22,2.05-.54,2.49-4.44,4.97-8.88,7.46-13.33.94-1.69-1.65-3.2-2.59-1.51-2.49,4.44-4.97,8.88-7.46,13.33l2.05-.54c-15.51-7.4-33.07-5.42-49.29-10.07-7.62-2.18-15.03-6.01-19.63-12.68-4.08-5.91-6.02-13.64-2.92-20.41l-2.74-1.16c-6.86,17.22-22.36,29.93-39.85,35.37-8.57,2.66-17.68,3.64-26.6,2.52-9.5-1.19-19.6-4.78-26.54-11.59-4.01-3.93-6.7-9.03-6.54-14.74.15-5.35,2.68-10.52,7.62-12.92l-1.82-2.36c-16.62,15.79-36.72,27.15-57.67,36.15-10.55,4.53-21.35,8.49-32.2,12.24s-22.63,8.16-34.24,10.94c-13.34,3.19-26.5,1.81-39.73-1.2-11.06-2.51-22.08-5.42-32.91-8.77-20.71-6.4-41.45-15.15-57.4-30.23-17.18-16.25-25.81-38.53-33.94-60.21-4.48-11.95-9.05-24.11-10.18-36.92s.96-25.75,4.37-38.13,7.38-23.49,12.42-34.63c4.54-10.03,10.12-19.76,17.67-27.85,15.96-17.1,39.45-23.57,62.3-22.94,13.17.36,26.15,2.88,38.87,6.2,10.99,2.87,22.12,5.97,32.6,10.39,9.11,3.84,18.08,9.01,24.34,16.84,7.66,9.58,8.74,21.68,9.25,33.49.29,6.54.56,13.08.84,19.63.05,1.12,1.24,1.89,2.26,1.3,17.77-10.37,41.68-5.89,56.18,8.16,4.2,4.07,7.57,8.95,9.74,14.4.35.88,1.3,1.44,2.2.9,14.26-8.53,31.86-10.65,47.8-5.99s27.78,15.32,35.13,29.27c4.06,7.7,6.4,16.23,6.78,24.92.03.66.45,1.27,1.1,1.45,33.87,9.16,64.42,29.5,86,57.18,3.13,4.02,6.1,8.2,8.79,12.53,3.02,4.86,5.56,10.11,5.1,15.97-.15,1.93,2.85,1.92,3,0h0Z"/>
    </g>
  </g>
</svg>