<?xml version="1.0" encoding="UTF-8"?>
<svg id="Layer_2" data-name="Layer 2" xmlns="http://www.w3.org/2000/svg" viewBox="0 0 505.89 331.93">
  <defs>
    <style>
      .cls-1 {
        fill: #77b2bd;
      }

      .cls-1, .cls-2 {
        stroke-width: 0px;
      }

      .cls-2 {
        fill: #7ab8c2;
      }
    </style>
  </defs>
  <g id="BG">
    <g>
      <path class="cls-2" d="m397.28,30.92c-36.99,35.96-71.65,52.91-108.15,89.6-18.71,18.81-32.26,43.99-45.53,68.78-5.06,9.45-10.25,19.31-11.52,30.5-2.66,23.43,12.22,44,26.86,59.46,16.1,17.02,35.22,33.25,56.48,32.01,11.87-.69,23.03-6.85,33.63-13.41,48.64-30.13,92.64-71.4,129.05-121.03,6.35-8.66,12.53-17.67,16.81-28.06,8.03-19.51,8.73-42.14,9.27-63.97.34-13.92.57-28.51-4.57-40.93-6.6-15.94-21.08-25.2-35.55-27.72-14.47-2.52-29.15.66-43.53,3.84"/>
      <path class="cls-1" d="m396.22,29.86c-10.61,10.3-21.91,19.84-33.59,28.91-10.91,8.48-22.11,16.57-33.09,24.96-11.33,8.65-22.4,17.64-32.82,27.36-5.37,5.01-10.63,10.15-15.43,15.71-4.4,5.1-8.47,10.49-12.29,16.03-8.12,11.79-15.14,24.29-21.94,36.87s-14.35,24.68-16.28,38.63c-3.68,26.58,14.43,49.46,32.06,67.09,9.39,9.39,19.86,18.4,32.24,23.57,5.58,2.33,11.54,3.77,17.6,3.84,6.95.08,13.71-1.75,20.06-4.46s12.83-6.56,18.92-10.38c5.57-3.49,11.06-7.12,16.47-10.87,10.97-7.62,21.59-15.75,31.84-24.33,21.01-17.6,40.4-37.09,58.06-58.04,8.99-10.66,17.65-21.67,25.63-33.1,4.14-5.93,7.99-12.09,11.03-18.66s5.11-13.03,6.63-19.87c3.14-14.09,3.82-28.6,4.22-42.98s1.28-28.74-2.93-42.34c-3.59-11.61-11.43-21.35-22.02-27.32-11.71-6.59-25.19-7.63-38.33-6.05-7.46.9-14.8,2.49-22.13,4.11-1.88.42-1.09,3.31.8,2.89,14.47-3.19,29.72-6.64,44.51-3.49,10.87,2.31,21.03,8.38,27.65,17.39,8.13,11.07,9.67,24.93,9.75,38.29.09,14.03-.3,28.24-1.77,42.19s-4.56,27.59-11.11,39.99c-6.44,12.19-15.1,23.25-23.61,34.04-16.61,21.07-34.91,40.83-54.77,58.87s-40.11,33.42-62.25,47.22c-11.5,7.17-24.19,14.58-38.23,13.86-12.64-.64-24.14-7.46-33.76-15.23s-19.17-17.48-27.06-27.55-14.22-21.14-16.33-33.62c-1.11-6.54-.83-13.26.77-19.69s4.6-12.99,7.78-19.1c6.38-12.25,12.97-24.45,20.11-36.28s14.65-22.79,23.79-32.76c9.64-10.51,20.54-19.99,31.59-28.97,21.09-17.14,43.72-32.29,64.36-50.01,5.47-4.7,10.81-9.56,15.99-14.59,1.39-1.35-.73-3.47-2.12-2.12h0Z"/>
    </g>
    <g>
      <path class="cls-2" d="m1.51,85.37c13.87,49.69,12.15,88.23,26.9,137.85,7.56,25.43,23.18,49.39,38.59,72.89,5.88,8.97,12.05,18.24,21.27,24.71,19.3,13.55,44.48,10.33,65.06,4.89,22.65-5.99,46.05-15.01,55.14-34.26,5.07-10.75,5.01-23.5,4.32-35.95-3.17-57.13-18.34-115.52-44.49-171.24-4.56-9.72-9.52-19.46-16.59-28.19-13.28-16.39-32.82-27.84-51.73-38.76-12.05-6.96-24.76-14.15-38.13-15.58C44.7-.11,29.64,8.17,20.5,19.67,11.36,31.16,7.13,45.58,3.03,59.72"/>
      <path class="cls-1" d="m.06,85.77c7.72,27.78,11.05,56.28,15.43,84.7,2.22,14.38,4.89,28.69,8.57,42.77,1.88,7.19,3.94,14.34,6.63,21.27s5.62,13.2,8.93,19.56c6.88,13.21,14.93,25.78,23.08,38.24,7.26,11.11,14.42,22.88,25.67,30.42,21.34,14.31,49.04,9.34,72.1,2.56,11.52-3.39,23.15-7.68,33.04-14.64s16.87-16.26,19.49-28.01c1.55-6.97,1.75-14.17,1.54-21.28s-.76-14.32-1.42-21.46c-1.34-14.35-3.4-28.63-6.14-42.77-5.65-29.21-14.2-57.84-25.2-85.48-5.48-13.75-11.31-27.57-18.41-40.57-6.73-12.32-15.54-22.81-26.49-31.6s-22.28-15.44-34-22.22C90.56,10.12,77.75,2.36,63.38.41c-12.26-1.66-24.74,1.76-34.61,9.18S12.1,28.51,7.63,40.36c-2.34,6.21-4.2,12.6-6.05,18.97-.54,1.86,2.36,2.65,2.89.8,3.67-12.67,7.42-25.66,15.03-36.62C26.23,13.82,36.28,6.55,47.87,3.98c13.6-3.03,26.89,1.53,38.91,7.72,6.18,3.18,12.18,6.73,18.18,10.23s11.45,6.78,17,10.44c10.89,7.19,21.33,15.38,29.44,25.7,8.84,11.26,14.75,24.66,20.49,37.68,11.81,26.75,21.28,54.56,28.07,83,6.52,27.35,10.97,55.63,11.63,83.77.3,12.9-1.17,26.22-9.7,36.51-7.25,8.74-17.57,14.4-27.99,18.53-11.05,4.38-22.77,7.67-34.48,9.72s-24.66,2.61-36.43-.97c-6.07-1.85-11.81-4.82-16.71-8.87s-9.19-9.25-12.93-14.57c-8.11-11.53-15.72-23.56-22.92-35.68s-13.93-24.9-18.62-38.35-7.89-27.9-10.52-42.06c-4.99-26.8-7.46-54.02-13.15-80.7-1.51-7.08-3.23-14.12-5.17-21.1-.52-1.86-3.41-1.07-2.89.8H.06Z"/>
    </g>
  </g>
</svg>