<?xml version="1.0" encoding="UTF-8"?>
<svg id="Layer_2" data-name="Layer 2" xmlns="http://www.w3.org/2000/svg" viewBox="0 0 970.06 1403.3">
  <defs>
    <style>
      .cls-1 {
        fill: #77b2bd;
      }

      .cls-1, .cls-2 {
        stroke-width: 0px;
      }

      .cls-2 {
        fill: #7ab8c2;
      }
    </style>
  </defs>
  <g id="BG">
    <g>
      <path class="cls-2" d="m296.51,133.85c-7.04,100.38-35.42,171.91-40.81,272.59-2.76,51.6,10.27,104.52,23.2,156.48,4.93,19.82,10.21,40.37,22.9,57.19,26.59,35.22,74.97,41.92,116.37,42.1,45.54.21,94.45-4.89,123.75-36.47,16.36-17.64,24.6-41.61,31.48-65.35,31.57-108.93,41.91-226.31,30.34-344.23-2.02-20.57-4.75-41.38-12.03-61.36-13.68-37.51-42.09-68.91-69.68-99-17.59-19.18-36.23-39.11-59.86-48.56-30.33-12.13-63.43-4.19-87.75,12.79-24.32,16.97-41.53,41.91-58.32,66.42"/>
      <path class="cls-1" d="m295.01,133.85c-3.88,54.49-15.67,107.61-25.99,161.12s-19.42,111.56-12.4,167.61c3.73,29.81,10.56,59.12,17.74,88.25,6.19,25.11,11.45,51.99,28.15,72.59,28.47,35.13,78.1,40.45,120.26,40.29,44.91-.17,97.66-5.74,126.62-44.65,15.64-21.02,22.64-47.42,29.4-72.33,7.58-27.95,13.75-56.28,18.52-84.84,9.69-58.01,13.69-116.95,12.24-175.74-.73-29.48-2.46-59.14-6.39-88.38-1.92-14.31-4.73-28.56-9.57-42.2-4.4-12.39-10.41-24.16-17.39-35.29-14.17-22.6-32.08-42.57-50.03-62.19s-34.9-38.9-58.32-50-49.32-10.39-72.65-.98-42.4,27.58-58.01,47.44c-7.9,10.05-15.16,20.59-22.38,31.14-1.09,1.6,1.5,3.1,2.59,1.51,14.53-21.21,29.35-42.82,49.29-59.39,19.42-16.14,44.17-26.26,69.7-24.78,26.8,1.56,48.54,17.04,67.03,35.33,9.28,9.18,18.01,18.91,26.77,28.58s17.25,19.31,25.3,29.45c16.54,20.83,30.87,43.7,38.24,69.45,7.91,27.63,9.6,57.11,11.34,85.67,3.5,57.38,1.87,115.1-5.2,172.16-3.51,28.34-8.37,56.51-14.6,84.37-5.88,26.3-12.24,53.08-21.93,78.28-4.69,12.21-10.63,24.13-18.94,34.3-7.08,8.67-15.85,15.8-25.6,21.28-20.25,11.4-43.79,15.83-66.71,17.67-22.25,1.79-45.03,1.88-67.23-.74s-43.28-8.16-61.41-20.36c-9.64-6.49-17.94-14.86-24.19-24.66-6.91-10.83-11.27-23.01-14.74-35.3-7.78-27.5-14.32-55.63-19.7-83.69-5.54-28.88-9.13-58.32-7.65-87.77,1.39-27.42,4.79-54.7,9.36-81.76,8.52-50.44,20.8-100.18,27.4-150.95,1.75-13.46,3.11-26.97,4.08-40.5.14-1.93-2.86-1.92-3,0h0Z"/>
    </g>
    <g>
      <path class="cls-2" d="m616.69,485.08c-28.74,58.59-63.02,94.01-90.85,153.24-14.27,30.35-19.53,65.78-24.63,100.59-1.94,13.28-3.86,27.09-.48,40.67,7.07,28.43,34,45.58,58.39,56.91,26.83,12.46,56.96,22.64,81.99,11.55,13.98-6.2,24.71-18.41,34.59-30.86,45.32-57.1,80.17-125.04,102.22-199.25,3.85-12.94,7.33-26.23,7.92-40.24,1.11-26.31-7.97-52.93-16.89-78.55-5.69-16.33-11.81-33.39-23.45-45.49-14.94-15.53-36.42-19.71-54.94-16.07-18.52,3.64-34.78,14.01-50.7,24.23"/>
      <path class="cls-1" d="m615.4,484.33c-15.5,31.53-35.38,60.33-54.53,89.67s-38.24,60.84-47.93,95.28c-5.01,17.79-8.16,36.04-10.95,54.29-1.41,9.22-2.93,18.45-3.91,27.73s-1.13,19.51,1.28,28.98c7.37,29.02,34.84,46.41,60.35,58.13,16.28,7.48,33.52,14.22,51.54,15.64,8.23.65,16.64.05,24.55-2.42s14.72-6.61,20.92-11.79,12.12-11.81,17.44-18.36,10.55-13.39,15.58-20.27c10.21-13.95,19.76-28.38,28.63-43.22,18.02-30.11,33.26-61.86,45.75-94.65,6.44-16.9,12.24-34.1,17.11-51.52,2.49-8.92,4.58-17.97,5.57-27.19s.69-18.76-.57-28.08c-2.65-19.62-9.11-38.45-15.59-57.07-5.41-15.55-10.98-31.77-21.87-44.45-10.15-11.81-24.74-18.67-40.17-19.96-16.61-1.39-32.59,4.14-47.06,11.87-7.72,4.12-15.09,8.84-22.45,13.57-1.62,1.04-.12,3.64,1.51,2.59,14.75-9.47,29.9-19.23,47.16-23.38,14.59-3.51,30.45-2.14,43.73,5.11,14.64,8,23.35,22.26,29.54,37.28,3.27,7.92,6,16.06,8.79,24.16,3.1,9.02,6.1,18.09,8.59,27.3,4.97,18.41,7.65,37.37,4.69,56.36-2.74,17.55-8.55,34.74-14.27,51.52-11.15,32.72-25,64.52-41.55,94.88-16.07,29.48-34.63,57.83-55.91,83.83-10.43,12.74-22.53,25.07-38.98,29.31s-34.3.48-50.18-5.06c-14.8-5.16-29.46-11.83-42.79-20.12-12.09-7.52-23.42-16.99-30.77-29.36-3.97-6.7-6.61-14.1-7.67-21.82-1.34-9.69-.35-19.54.99-29.18,2.5-17.95,5.16-35.93,8.91-53.67s8.46-34.47,15.93-50.53,16.1-31.51,25.38-46.55c17.44-28.26,37.07-55.13,53.46-84.05,4.33-7.64,8.44-15.4,12.31-23.29.85-1.73-1.74-3.25-2.59-1.51h0Z"/>
    </g>
    <g>
      <path class="cls-2" d="m793.45,894.48c-145.64-39.77-246.17-102.87-392.48-140.26-74.99-19.16-154.12-15.21-231.83-11.13-29.64,1.56-60.4,3.41-86.75,17.4-55.18,29.29-71.73,99.34-77.81,160.88-6.68,67.7-6.08,141.99,35.95,194.8,23.47,29.49,57.34,48.74,91.05,65.91,154.7,78.76,324.72,128.4,498.6,145.58,30.33,3,61.12,5,91.32,0,56.71-9.41,106.55-42.52,154.37-74.81,30.49-20.58,62.21-42.51,79.32-74.92,21.97-41.59,15-93.17-6.39-134.31-21.39-41.14-55.4-74.03-88.85-106.17"/>
      <path class="cls-1" d="m793.85,893.03c-78.02-21.38-152.07-53.33-226.86-83.68-76.42-31.02-155.83-61.34-238.6-68.64-44.53-3.93-89.32-2.58-133.91-.42-38.73,1.88-81.68.76-116.32,20.82C20.95,794.24,7.77,868.69,2.38,928.92c-6.37,71.28-3.31,152.02,52.11,204.62,28.8,27.33,65.68,44.98,101.06,62.1,37.4,18.11,75.63,34.53,114.5,49.23,79.3,29.99,161.32,52.77,244.71,68.04,41.81,7.66,84.02,13.56,126.37,17.27,22.18,1.95,44.55,2.99,66.76.77,20.05-2.01,39.62-6.94,58.43-14.13,38.14-14.57,72.5-37.19,106.18-59.89,30-20.22,62.04-41.19,81.02-72.94s20.38-72.82,9.75-108.66-34.4-68.99-60.43-97.14c-13.39-14.47-27.59-28.15-41.8-41.81-1.39-1.34-3.52.78-2.12,2.12,54.45,52.32,116.73,115.43,107.39,197.83-2.16,19.1-8.93,37.33-19.89,53.13-10.75,15.48-24.88,28.33-39.74,39.77-15.05,11.58-30.99,22.03-46.79,32.55-16.5,11-33.2,21.73-50.54,31.37-36.35,20.2-75.09,34.28-116.97,35.85-21.92.82-43.84-.98-65.63-3.19-20.58-2.09-41.11-4.62-61.58-7.62-81.66-11.96-162.26-31.1-240.58-57.13-39.49-13.13-78.4-28-116.56-44.6-36.72-15.97-73.64-32.86-108.13-53.29-32.65-19.34-61.11-44.2-77.36-79.12-15.46-33.23-19.71-70.58-19.58-106.87s3.13-69.63,10.26-103.39c6.53-30.87,17.38-62.36,38.32-86.57,10.74-12.42,23.99-22.44,39.05-29.01,18.73-8.17,39.31-10.95,59.53-12.46,42.43-3.16,85.29-5,127.83-4.44,43.13.56,86.04,4.78,127.84,15.72,38.99,10.2,77.24,22.98,114.9,37.29,71.65,27.21,141.34,59.41,214.05,83.83,19.27,6.47,38.71,12.42,58.32,17.79,1.86.51,2.66-2.38.8-2.89h0Z"/>
    </g>
    <g>
      <path class="cls-2" d="m61.82,1254.21c1.05,6.42,5.86,11.51,10.7,15.86,29.73,26.74,69.56,41.96,109.54,41.87,6.24,20.04,23.61,36.21,44.05,40.98,20.44,4.78,43.18-2.01,57.65-17.21,16.22,21.98,52.85,24.45,71.88,4.85,1.89,5.97,3.79,11.94,5.68,17.91,2.83,8.93,5.79,18.1,11.81,25.28,12.41,14.81,33.98,17.2,53.3,17.76,19.33.57,38.91.37,57.64-4.44,18.73-4.81,36.73-14.67,48.1-30.31,12.12-16.67,15.6-38,17.25-58.54,1.61-20.07,1.7-40.9-5.87-59.56-4.54-11.17-11.63-21.08-18.66-30.87-11.99-16.69-24.35-33.75-41.41-45.21-27.68-18.59-63.2-19.67-96.54-19.09-13.42.23-27.15.68-39.68,5.48-8.12,3.11-15.45,7.94-22.7,12.72-34.33,22.66-69.8,46.47-91.09,81.67,6.55-5.44,6.2-16.35.96-23.05-5.24-6.71-13.93-9.81-22.38-10.85-32.96-4.08-66.6,22.53-70.23,55.54,2-10.76-6.46-21.3-16.66-25.25-10.2-3.95-21.6-2.85-32.42-1.2-10.82,1.65-21.86,3.78-32.6,1.71-1.24,4.94-2.48,9.88-3.72,14.81"/>
      <path class="cls-1" d="m60.37,1254.61c1.66,8.84,9.15,15.07,15.71,20.52,7.1,5.9,14.7,11.21,22.69,15.84,16.11,9.32,33.8,15.95,52.08,19.48,10.28,1.99,20.74,2.98,31.2,2.98l-1.45-1.1c4.97,15.63,16.24,28.96,30.74,36.62s32.99,9.01,49.07,3.37c9.22-3.24,17.61-8.52,24.4-15.56l-2.36-.3c13.27,17.68,38.69,23.39,58.92,15.27,5.75-2.31,10.96-5.7,15.32-10.12l-2.51-.66c2.06,6.5,4.11,13,6.18,19.49,1.8,5.64,3.71,11.29,6.48,16.54,5.03,9.54,13.14,16.25,23.1,20.19s20.78,5.12,31.36,5.64c13.21.65,26.57.76,39.75-.42,23.28-2.08,47.06-9.08,64.31-25.61,17.38-16.65,22.87-40.49,25.11-63.62,2.45-25.45,2.45-51.79-10.22-74.77-6.12-11.1-13.92-21.34-21.46-31.5s-14.8-19.16-23.82-27.21c-17.74-15.84-40.06-23.31-63.37-26.11-12.09-1.45-24.28-1.75-36.45-1.68s-25.61,0-38.06,2.65-23.78,9.57-34.66,16.76c-9.94,6.56-19.85,13.17-29.51,20.14-18.83,13.6-36.87,28.68-51.12,47.15-3.47,4.5-6.69,9.18-9.65,14.03-.92,1.51,1.11,2.9,2.36,1.82,7.39-6.46,6.57-18.28.73-25.46-6.92-8.51-18.9-11.31-29.39-11.41-20.42-.2-40.17,10.47-52.61,26.41-7.04,9.02-11.61,19.66-12.93,31.04-.19,1.66,2.67,2.07,2.95.4,1.15-6.98-1.31-13.64-5.91-18.89-5.23-5.97-12.54-9.25-20.29-10.39-18.97-2.79-37.6,6.14-56.52,2.7-.78-.14-1.63.21-1.85,1.05-1.24,4.94-2.48,9.88-3.72,14.81-.47,1.87,2.42,2.67,2.89.8,1.24-4.94,2.48-9.88,3.72-14.81l-1.85,1.05c17.1,3.11,33.7-3.55,50.77-3.14,7.95.19,16.09,2.11,22.17,7.5,5.23,4.64,8.86,11.39,7.69,18.53l2.95.4c2.16-18.54,13.93-34.97,29.57-44.75,7.71-4.82,16.42-8.15,25.47-9.27s19.99-.26,28.32,4.63c4.79,2.81,8.53,7.04,9.77,12.54,1.16,5.13,0,10.63-4.04,14.17l2.36,1.82c11.81-19.4,28.06-35.5,45.75-49.57,9.02-7.17,18.42-13.84,27.95-20.31,9.64-6.55,19.28-13.41,29.44-19.13,11.36-6.39,23.55-8.97,36.47-9.71,11.87-.68,23.86-.7,35.75-.35,22.98.69,46.79,3.81,67.06,15.39,20.54,11.74,34.46,31.41,47.95,50.26,7.27,10.16,14.44,20.6,18.52,32.51s5.26,24.62,5.14,37.18c-.11,12.13-1.05,24.43-3.05,36.4s-5.05,22.88-10.87,33.03c-11.17,19.5-31.67,31.12-53.02,36.26-12.92,3.11-26.24,4.05-39.49,4.15-11.52.09-23.27.02-34.69-1.65-10.06-1.47-20.4-4.36-28.42-10.89-9.08-7.4-12.93-18.41-16.36-29.22-1.94-6.1-3.87-12.21-5.8-18.31-.34-1.06-1.69-1.49-2.51-.66-18.57,18.83-53.59,16.68-69.53-4.55-.56-.75-1.62-1.06-2.36-.3-11.4,11.81-27.58,18.45-43.99,18.28s-31.07-7.29-41.93-18.86c-6.03-6.43-10.6-14.12-13.27-22.53-.2-.63-.77-1.1-1.45-1.1-35.68,0-71.1-12.06-99.38-33.84-3.95-3.04-7.83-6.25-11.41-9.74-3.76-3.66-7.02-7.79-8.01-13.05-.36-1.9-3.25-1.09-2.89.8h0Z"/>
    </g>
  </g>
</svg>