<?xml version="1.0" encoding="UTF-8"?>
<svg id="Layer_2" data-name="Layer 2" xmlns="http://www.w3.org/2000/svg" viewBox="0 0 421.98 603.49">
  <defs>
    <style>
      .cls-1 {
        fill: #77b2bd;
      }

      .cls-1, .cls-2 {
        stroke-width: 0px;
      }

      .cls-2 {
        fill: #7ab8c2;
      }
    </style>
  </defs>
  <g id="BG">
    <g>
      <path class="cls-2" d="m287.98,255.14c-45.76,44.48-88.62,65.44-133.78,110.83-23.14,23.26-39.91,54.42-56.31,85.07-6.26,11.69-12.67,23.89-14.25,37.73-3.29,28.98,15.12,54.42,33.22,73.55,19.91,21.05,43.57,41.13,69.86,39.59,14.68-.86,28.49-8.47,41.6-16.59,60.16-37.27,114.59-88.32,159.63-149.71,7.86-10.71,15.5-21.86,20.79-34.71,9.94-24.13,10.8-52.12,11.47-79.13.43-17.22.71-35.26-5.66-50.63-8.17-19.72-26.08-31.17-43.98-34.29-17.9-3.12-36.06.82-53.84,4.75"/>
      <path class="cls-1" d="m286.92,254.08c-13.13,12.74-27.11,24.54-41.55,35.76-13.52,10.51-27.4,20.54-41.01,30.93s-27.66,21.78-40.53,33.79c-6.64,6.19-13.15,12.55-19.09,19.43-5.42,6.29-10.43,12.93-15.15,19.76-10.05,14.58-18.73,30.05-27.14,45.61-8.13,15.03-17.72,30.47-20.1,47.7-4.52,32.74,17.85,60.93,39.57,82.63,11.57,11.57,24.48,22.69,39.72,29.06,6.87,2.87,14.21,4.65,21.68,4.74,8.53.09,16.83-2.15,24.63-5.47,8.2-3.49,15.87-8.11,23.41-12.84,6.89-4.32,13.68-8.81,20.37-13.45,13.55-9.41,26.66-19.45,39.31-30.04,25.98-21.77,49.98-45.88,71.82-71.79,11.1-13.16,21.79-26.75,31.64-40.88,5.12-7.34,9.88-14.96,13.65-23.09s6.29-16.07,8.17-24.49c3.88-17.4,4.71-35.31,5.21-53.08s1.59-35.49-3.61-52.28c-4.42-14.27-14.06-26.25-27.08-33.58-14.43-8.12-31.05-9.38-47.23-7.43-9.19,1.11-18.25,3.08-27.28,5.07-1.88.42-1.09,3.31.8,2.89,17.96-3.96,36.88-8.22,55.24-4.32,13.54,2.88,26.17,10.45,34.41,21.67,10.09,13.74,12,30.96,12.11,47.54s-.38,34.93-2.19,52.19-5.65,34.25-13.79,49.65c-7.97,15.1-18.72,28.81-29.26,42.18-20.55,26.06-43.18,50.5-67.75,72.82-23.9,21.71-49.66,41.38-77.07,58.47-14.28,8.91-30.03,18.08-47.47,17.2-15.74-.8-30.03-9.27-42-18.95-12.32-9.95-23.71-21.62-33.47-34.08-9.58-12.22-17.67-26.25-20.29-41.74-1.38-8.16-1.04-16.52.96-24.54s5.71-16.13,9.65-23.71c7.89-15.16,16.04-30.24,24.88-44.87,8.65-14.33,18.15-28.24,29.49-40.6,11.93-13,25.4-24.72,39.08-35.83,26.09-21.2,54.08-39.95,79.61-61.86,6.77-5.81,13.37-11.83,19.78-18.05,1.39-1.35-.73-3.47-2.12-2.12h0Z"/>
    </g>
    <g>
      <path class="cls-2" d="m110.18,49.45c-26.67,57.97-59.12,92.96-84.9,151.57-13.21,30.03-17.64,65.14-21.91,99.64-1.63,13.16-3.22,26.85.29,40.33,7.36,28.22,33.7,45.33,57.48,56.66,26.16,12.47,55.45,22.68,79.43,11.78,13.39-6.09,23.53-18.16,32.84-30.46,42.71-56.43,75.11-123.66,95.02-197.14,3.47-12.82,6.59-25.98,6.9-39.87.58-26.09-8.69-52.52-17.79-77.95-5.8-16.21-12.04-33.15-23.51-45.2C219.31,3.35,198.48-.88,180.66,2.65c-17.82,3.53-33.34,13.75-48.52,23.82"/>
      <path class="cls-1" d="m108.89,48.69c-14.37,31.16-33.1,59.74-51.1,88.85-18.28,29.56-35.86,60.43-44.49,94.35-4.5,17.68-7.19,35.77-9.54,53.85s-6.19,37.26-1.63,55.26c7.27,28.66,33.75,46.32,58.93,58.25,15.74,7.46,32.4,14.26,49.9,15.94,7.96.77,16.13.31,23.82-2s14.42-6.42,20.44-11.57c6.31-5.41,11.7-11.81,16.78-18.36s9.95-13.23,14.68-20.02c9.61-13.8,18.56-28.06,26.84-42.69,17-30.05,31.2-61.67,42.66-94.23,5.95-16.89,11.27-34.04,15.62-51.41,2.23-8.91,4.04-17.95,4.75-27.12s.15-18.31-1.24-27.37c-2.91-19.03-9.34-37.3-15.79-55.36-5.53-15.47-11.11-31.6-21.8-44.39C227.95,9,213.95,1.86,198.85.3c-16.05-1.65-31.52,3.6-45.46,11.19-7.59,4.13-14.81,8.91-22.01,13.68-1.6,1.06-.1,3.66,1.51,2.59,14.32-9.49,29.08-19.32,46.07-23.22,14.03-3.22,29.16-1.46,41.73,5.7,14.4,8.2,22.91,22.59,29.1,37.48,3.23,7.77,5.99,15.73,8.79,23.66,3.13,8.87,6.16,17.79,8.71,26.85,5.01,17.78,7.96,36.1,5.75,54.57s-7.57,35-12.85,51.91c-10.13,32.39-22.9,63.95-38.4,94.14-15,29.24-32.47,57.48-52.76,83.36-9.74,12.42-21.16,24.52-36.96,28.61-16.43,4.25-33.87.08-49.41-5.62-14.32-5.25-28.48-11.91-41.33-20.16-11.86-7.62-22.87-17.18-30.02-29.49-3.91-6.73-6.49-14.15-7.57-21.86-1.28-9.1-.58-18.35.46-27.43,2.04-17.86,4.3-35.76,7.59-53.44s7.45-34.11,14.36-50.09c6.83-15.82,14.89-31.12,23.57-46,16.32-27.99,34.85-54.64,50.15-83.24,4.1-7.65,7.97-15.42,11.6-23.3.8-1.74-1.78-3.27-2.59-1.51h0Z"/>
    </g>
  </g>
</svg>