<?xml version="1.0" encoding="UTF-8"?>
<svg id="Layer_2" data-name="Layer 2" xmlns="http://www.w3.org/2000/svg" viewBox="0 0 589.24 724.33">
  <defs>
    <style>
      .cls-1 {
        fill: #fefefe;
      }

      .cls-1, .cls-2, .cls-3, .cls-4, .cls-5, .cls-6, .cls-7, .cls-8, .cls-9, .cls-10, .cls-11, .cls-12, .cls-13, .cls-14, .cls-15, .cls-16, .cls-17, .cls-18, .cls-19, .cls-20, .cls-21, .cls-22, .cls-23, .cls-24, .cls-25, .cls-26, .cls-27, .cls-28, .cls-29, .cls-30, .cls-31, .cls-32, .cls-33, .cls-34, .cls-35, .cls-36, .cls-37, .cls-38, .cls-39, .cls-40 {
        stroke-width: 0px;
      }

      .cls-2 {
        fill: #baa3c1;
      }

      .cls-3 {
        fill: #fbd4a3;
      }

      .cls-4 {
        fill: #fe4e62;
      }

      .cls-5 {
        fill: #fe5063;
      }

      .cls-6 {
        fill: #372951;
      }

      .cls-7 {
        fill: #b91756;
      }

      .cls-8 {
        fill: #fe606e;
      }

      .cls-9 {
        fill: #36294f;
      }

      .cls-10 {
        fill: #feb802;
      }

      .cls-11 {
        fill: #372950;
      }

      .cls-12 {
        fill: #bb1956;
      }

      .cls-13 {
        fill: #bb1b58;
      }

      .cls-14 {
        fill: #fd4d61;
      }

      .cls-15 {
        fill: #37294f;
      }

      .cls-16 {
        fill: #dfcde5;
      }

      .cls-17 {
        fill: #bba4c2;
      }

      .cls-18 {
        fill: #f08939;
      }

      .cls-19 {
        fill: #fe7e82;
      }

      .cls-20 {
        fill: #f08a3b;
      }

      .cls-21 {
        fill: #be1c57;
      }

      .cls-22 {
        fill: #fe4f62;
      }

      .cls-23 {
        fill: #fbd5a4;
      }

      .cls-24 {
        fill: #f9e8fb;
      }

      .cls-25 {
        fill: #5a85ae;
      }

      .cls-26 {
        fill: #fe5466;
      }

      .cls-27 {
        fill: #432e69;
      }

      .cls-28 {
        fill: #fe6f78;
      }

      .cls-29 {
        fill: #fe5064;
      }

      .cls-30 {
        fill: #669faa;
      }

      .cls-31 {
        fill: #feb906;
      }

      .cls-32 {
        fill: #fefcfc;
      }

      .cls-33 {
        fill: #feb803;
      }

      .cls-34 {
        fill: #ba1856;
      }

      .cls-35 {
        fill: #fed53b;
      }

      .cls-36 {
        fill: #362950;
      }

      .cls-37 {
        fill: #442e69;
      }

      .cls-38 {
        fill: #5c85af;
      }

      .cls-39 {
        fill: #feb904;
      }

      .cls-40 {
        fill: #decce4;
      }
    </style>
  </defs>
  <g id="Road_3" data-name="Road 3">
    <g id="Road_2" data-name="Road 2">
      <g>
        <path class="cls-33" d="m81.42,540.68c-9.58-8.62-17.26-18.89-25.32-28.86-6.02-7.44-12.82-14.27-18.61-21.88-4.36-5.74-9.25-11.02-13.67-16.71-3.74-4.82-7.18-10.11-11.42-14.22-2.55-2.47-3.53-6-6.87-8.08-3.05-1.9-3.27-6.69-4.47-10.31-.19-.58-.49-.79-1.06-.61,0-.5,0-1,0-1.5,1.73.03,3.46.06,5.18.09,2.6.07,4.4,1.62,5.94,3.45,5.44,6.51,11.71,12.18,17.93,17.88,4.61,4.22,8.53,9.09,13.22,13.21,8.75,7.7,17.07,15.81,24.69,24.66,1.17,1.36,3.08,2.08,4.43,3.38.76,1.07,1.47,2.2,2.89,2.51,1.78,2.6,4.31,4.8,4.39,8.31-.16.48-.41.91-.83,1.21-6.33,4.54-6.52,5.17-2.93,12.09,1.78,3.44,4.44,6.34,6.22,9.78.91,1.76,2.51,3.63.28,5.61Z"/>
        <path class="cls-24" d="m412.58,253.91c5.03-1.31,7.41,2.95,10.74,5.16,5.45,3.61,9.03,9.22,13.95,13.48,2.55,2.21,4.67,2.35,7.43,2.93,7.03,1.47,13.65,4.35,20.23,7.23,3.95,1.73,7.76,3.81,11.72,5.52,7.16,3.08,14.38,6.02,21.25,9.74,9.46,5.12,18.98,10.14,28.53,15.1,4.69,2.44,9.88,4.29,14.26,6.87,6.15,3.63,12.72,6.58,18.39,11.6,9.05,7.99,11.51,18.6,15.49,28.78,1.28,3.28,3.02,6.38,3.75,9.9.2.99.76,2.17.24,2.87-3.09,4.19.25,8.41.06,12.62-.14,3.02.41,6.55,1.11,9.75,1.77,8.07,1.47,16.34,2.62,24.49,1.44,10.14,2.52,20.37,2.9,30.6.34,9.1,1.9,18.12,1.51,27.26-.42,9.93.47,19.82.89,29.73.3,7.13-.02,14.28.1,21.41.17,10.04.66,20.08.72,30.13.05,8.46.75,16.9.76,25.37,0,3.62-.62,7.24-.18,10.92.23,1.87-.41,3.84-3.14,4.78-3.56,1.23-6.85,3.29-10.49,4.52-1.5.51-2.66.63-3.47-.96-.05-4.61-.85-5.85-5.71-7.19-6.13-1.69-11.62-5.1-17.91-6.32-1.61-.31-1.93-1.91-1.83-3.31.51-6.89-.45-13.83.65-20.7.46-2.87-.17-5.73-.22-8.59-.1-5.48,1.35-10.81,1.21-16.28-.15-6.04.96-12.06.28-18.11-.11-1.01-.04-1.97.06-2.96.92-8.91,1.72-17.8,1.3-26.81-.18-3.9-.1-7.91.36-11.92.58-5.02-.4-10.18-1.22-15.16-.45-2.7-3.48-4.24-6.47-4.02-2.46.18-4.81.84-5.92,3.65-2.09,5.29-4.15,10.57-5.5,16.13-.57,2.37-2.31,4.32-3.25,6.67-4.39,10.98-7.68,22.3-11.09,33.59-.42,1.4-1.43,2.32-1.98,3.57-1.4,3.2-1.99,6.79-3.34,9.85-3.32,7.52-4.09,15.86-8.02,23.11-.48.88-.89,1.79-1.69,2.45-2.74.95-5.32-.15-7.95-.63-8.29-1.53-16.57-2.95-25.08-2.19-3.81.34-7.66.55-11.5.57-3.19-1.75-6.74-1.23-10.15-1.63-3.67-.42-7.44-.26-10.88-1.93-1.16-.68-1.88-1.51-1.52-3.04,1.37-5.83,3.91-11.31,5.21-17.14,1.88-8.42,5.95-16.07,8.13-24.43,1.87-7.17,3.92-14.37,6.61-21.35,4.12-10.69,7.45-21.66,10.91-32.59.95-3,1.71-6.23,4.03-8.68,1.18-1.25,1.1-2.67.1-4.1-5.64-8.08-7.47-17.58-10.12-26.81-2.12-7.39-3.72-14.96-7.11-21.95-.27-.56-.54-1.13-1.74-1.48-1.04,3.14-.6,6.13.1,9.28,1.58,7.17,3.48,14.28,5.67,21.23,1.48,4.68,2.48,9.69,5.03,14,3.23,5.47,1.62,10.92.07,16.28-1.41,4.89-3.24,9.66-4.56,14.59-.85,3.16-2.3,6.15-4.14,8.79-6.56,9.41-13.15,18.8-20.18,27.9-5.61,7.26-12.27,13.36-18.43,20-2.39,2.57-5.74,3.89-8.53,6.01-7.73,5.86-16.04,10.88-24.38,15.89-7.33,4.4-14.85,8.31-22.6,11.76-4.18,1.86-8.18,4.17-12.6,5.52-2.09-.42-2.18-2.61-3.41-3.8-7.79-7.65-14.13-16.53-21.19-24.79-3.4-3.97-6.26-8.48-10.09-11.94-2.15-1.94-3.55-3.8-4.14-6.47.06-4.1.01-8.18.49-12.29,1.02-8.73,1.07-17.53,1.23-26.33.11-5.66.22-11.38,1.23-17.01.15-.86.48-1.74.32-2.59-1.09-5.89.88-11.55,1.13-17.3.18-4.06,1.02-8.38-.52-12.46-.37-.97-.45-2.02.05-2.92,1.7-3.06.97-6.27.91-9.5-.07-3.71.15-7.44.23-11.15.04-1.49.48-2.98-.55-4.31.57-3.9,2.33-7.32,4.25-10.69.46-.29.97-.43,1.51-.5,1.79-.19,3.4.31,5.05,1.04,7.76,3.43,15.04,7.87,22.99,10.91,4.57,1.74,6.72,6.18,9.7,9.59,1.7,1.94,3.11,4.13,5.12,5.87,1.56,1.36,3.06,2.81,3.62,5.09.7,2.87,2.11,3.18,4.64,1.38,2.39-1.7,3.95-4.19,5.67-6.46,3.77-4.97,8.14-9.43,11.62-14.68,6.79-10.27,14.37-19.99,20.89-30.46,4-6.42,8.32-12.69,12.74-18.87,3.19-4.46,6.26-9.03,9.32-13.58,3.87-5.76,4.93-12.59,5.44-19.27.92-12.17,2.85-24.22,3.7-36.39.17-2.38-.31-4.74.04-7.12.07-.5-.09-1.04-.66-1.21-.72-.21-1.17.2-1.47.81-.28.57-.31,1.2-.42,1.82-2.26,12.4-3.74,24.91-5.43,37.39-.91,6.74-1.46,13.73-4.33,20.08-2.1,4.66-5.67,8.43-8.39,12.73-4.93,7.81-10.28,15.35-15.54,22.92-5.12,7.38-9.86,15.02-15.15,22.28-5.12,7.03-10.54,13.82-16.24,20.38-2.85,3.28-5.7,2.99-8.15-.63-7.35-10.85-15.44-21.14-23.5-31.46-1.39-1.77-1.93-4.1-3.78-5.54-2.84-2.89-5.04-6.28-7.31-9.6,1.11-2.31,1.8-4.95,4.52-6.07.35-.03.69-.02,1.03.03.37.04.74.14,1.11.15,2.67.08,5.72,2.15,7.9.13,2.74-2.55,3.91-6.36,4.24-10.11.21-2.35.45-4.68.84-7,7.25-3.79,12.76-9.85,19.14-14.77,7.01-5.58,13.17-12.12,20.1-17.78,11.44-9.35,17.82-22.18,24.47-34.86.52-1,.87-2.18,1.74-2.86,3.76-2.92,3.23-6.59,1.7-10.22-1.21-2.89-2.35-5.72-2.55-8.88-.05-.78-.09-1.5.67-1.98Z"/>
        <path class="cls-19" d="m81.42,540.68c1.08-4.36-2.22-7.1-4.2-10.07-1.92-2.88-3.41-6-5.31-8.88-1.47-2.22.64-6.69,3.58-8.36.84-.48,1.72-.9,2.59-1.34,1.92-1.22,3.36-.08,3.96,1.41,1.81,4.52,5.66,7.24,8.79,10.59,8.35,8.94,16.12,18.38,23.94,27.78,2.09,2.52,4.31,3.81,7.73,3.3,2.95-.44,6.03-.11,8.9.84,3.83,1.27,7.93.75,11.75,1.98,2.33.35,4.67.22,7.01.23,3.6.08,7.21.02,10.65,1.37,6.07.28,11.54,2.65,17.28,5.02-1.18-2.33-1.96-4.53-2.91-6.66.08-6.97-2.29-13.8-1.19-20.84.44-2.84.74-5.7,1.5-8.47,1.48-5.45,5.61-7.89,11.85-7.1,5.4.69,9.48,4.86,9.21,10.02-.15,2.9.37,5.71.41,8.57.07,4.43,3.51,7.12,6.29,9.82,2.43,2.36,4.58,4.91,6.76,7.46,4.23,5.4,8.72,10.58,11.14,17.21,1.55,4.24,4.64,7.67,7.19,11.37.86,1.25,2.07,1.71,3.5,1.89,8.27,1.04,16.56,1.86,24.89,2.26,5.47.27,10.8,1.72,16.29,2.15,7.72.61,15.44,1.43,23.08,2.62,7.48,1.16,15.04,1.56,22.49,2.98,6.1,1.16,12.39,1.45,18.6,1.84,8.25.53,16.32,2.21,24.52,3,6.46.62,12.89,1.52,19.37,1.87,3.54.81,7.14,1.29,10.73,1.88,6.91,1.13,13.56-1.15,20.38-.98,2.85.07,5.72-.1,8.57-.22,2.65-.12,5.52.58,7.26-2.44.36-.62,1.35-.48,2.06-.07,1.04-.14-.83,1.27,1,1.41,5.25.41,10.24,1,15.17-1.99,2.35-1.42,5.6-.49,8.44-.6,2.66-.1,5.29-.13,7.52-1.78,1.7-1.26,3.73-.94,5.44-.76,4.33.47,8.31-2.6,12.72-1.01.98.35,2.33-.17,3.24-.7,4.52-2.64,9.22-3.02,14.16-1.52.8.24,1.54.02,2.09-.5,2.53-2.33,5.52-1.46,8.49-1.58,6.54-.27,13.03-1.24,19.37-3,1.07-.3,2.08-1.03,3.24-.52,3.46,1.53,6.38-.16,9.36-1.51.48-.22.92-.35,1.43-.22.86.55,1.09,1.4.91,2.29-1.31,6.5-3.63,12.71-5.65,19-.24.74-1.12.97-1.61,1.53-2.82,7.97-5.65,15.93-8.46,23.9-2.69,7.6-5.42,15.19-8.04,22.81-2.88,8.37-5.27,16.93-8.6,25.12-2.35,5.79-3.34,12.44-8.28,16.86-1.6,1.43-.6,3.04-1.59,4.51-2.83,4.2-6.14,7.7-10.53,10.26-3.9,2.27-7.23,5.36-11.18,7.64-4.82,2.77-9.39,2.23-14.34.77-5.17-1.53-10.26-3.35-15.32-5.1-13.22-4.57-27.43-4.69-40.48-9.7-1.11-.42-2.34-.33-3.37-.47-8.75-1.19-16.86-4.8-25.43-6.42-8.01-1.51-15.4-4.78-23.18-6.82-8.56-2.25-16.76-5.48-25.02-8.48-7.08-2.57-13.98-5.67-20.98-8.5-7.35-2.96-14.37-6.76-21.77-9.59-6.13-2.34-12.8-3.29-18.95-5.41-7.68-2.65-15.59-4.42-23.29-6.92-6-1.95-11.94-4.25-18.16-5.58-1.17-.25-2.17.13-3.24,0-1.22-.15-2.46.15-3.66-.42-6-2.86-12.7-3.55-18.86-5.91-1.19-.45-2.47-.7-3.69-.46-6.47,1.26-11.3-1.86-16.01-5.64-8.36-6.7-16.49-13.71-26.05-18.75-1.88-.99-3.3-2.67-5.1-3.82-7.38-4.71-15.42-7.99-23.65-10.84-3.77-1.59-7.86-.54-11.75-1.48-3.12-.76-5.21-2.13-6.01-5.27-2.55-5.77-5.25-11.47-8.4-16.95-.41-.72-.54-1.6-.79-2.4,3.52-.94,6.31,1.03,8.97,2.65,4.18,2.54,8.85,4.02,13.04,6.51,1.08.64,2.59.88,3.32-.51.84-1.59-.45-2.6-1.63-3.31-5.78-3.46-11.87-6.3-18.13-8.77-1.51-.6-3.01-1.11-4.42-1.95-3.05-1.81-6.48-2.43-9.93-2.97-3.45-.05-3.81-3.08-4.32-5.21-1.55-6.47-3.24-12.93-3.58-19.65-.1-1.89-2.11-2.83-3.07-4.33Z"/>
        <path class="cls-19" d="m316.08,391.88c-.7,3.51-2.37,6.65-3.88,9.84-.69,2.98-3.6,2.85-5.6,4-2.69,1.39-5.56,2.08-8.54,2.6-5.68.99-7.08,3.24-8.74,8.75-1.42,4.73-2.54,9.77-5.79,13.82-8.01,1.88-16.12,3.26-24.15,5.01-7.54,1.65-15.1,3.31-22.63,4.94-7.54,1.63-15.23,3.99-23.17,2.07-2.13-1.33-.98-2.47.01-3.94,4.94-7.28,10.68-14.02,14.9-21.79,3.08-6.3,7.16-12.13,11.31-17.58,3.76-4.93,5.91-11.19,11.3-14.94,1.74-1.21,1.58-3.58,2.01-5.51,1.02-3.15,2.02-6.3,1.9-9.67.31-4.11,1.69-8,2.41-12.04,1.96-11.01,4.67-21.88,6.81-32.87,1.04-5.32,2.48-10.81,6.32-15.11,2.3-3.04,5.48-5.33,7.34-8.74,2.04-4.03,5.12-7.38,7.78-10.95,1.3-1.76,4.31-2.78,7.06-2.38.87.13,1.81.54,2.58.19,5.86-2.62,12.49-2.14,18.36-4.69,1.53-.66,2.24-1.62,2.63-3.27.71-2.98,1.82-3.32,4.34-1.43,1.53,1.15,2.8.43,4.14-.09,1.77-.69,2.92-2.34,4.61-3.17.15-.2.23-.5.41-.6,3.23-1.85,3.74-4.39,1.51-8.26,1.5,3.93-2.57,5.69-1.84,8.8-1.11.74-2.7,1.27-3.35.14-1.18-2.05-1.28-4.4.11-6.26-6.86-1.96-11.75,3.58-17.81,5.25-6.83-.37-12.77,2.85-19.03,4.78-1.43.44-2.79,1.12-4.32,1.16-3.24,1.34-5.22-1.07-7.54-2.49-2.72,6.24-8.83,9.12-12.33,5.73-1.11,1.47-1.34,2.78.13,4.27,1.12,1.13,1.19,2.45-.42,3.41-4.08-.96-5.55-4.52-7.52-7.58-1-1.4-1.75-2.99-3.77-3.35-1.64-.3-2.29-2.08-2.95-3.18-4.43-7.46-7.19-15.7-10.37-23.73-1.85-4.68-4-9.21-5.56-14.07-3.21-10.02-7.46-19.69-11.13-29.57-2.64-7.11-4.93-14.33-6.64-21.73,1.33-.13,1.68.78,1.99,2.14-.2-7.3-1.11-14.23-2.4-21.03-2.47-13.01-.63-25.48,3.44-37.82.58-2.54,2.13-3.4,4.69-2.97,4.28.72,8.2-.25,11.51-3.12,1.48-1.29,2.83-1.1,4.44-.29,3.06,1.53,6.44,1.92,9.76,2.44,2.53.4,4.48-.26,5.06-3.1.48-2.34,1.81-2.64,3.85-1.78,4.14,1.73,8.44,3.02,12.7,4.43,5.41,1.79,10.88,3.13,16.67,2.64,4.65-.4,9.12-1.37,13.18-3.73,2.08-1.21,4-1.25,6.39-.68,9.94,2.37,19.94,4.36,30.28,3.94,2.75-.11,3.77-2.11,5.37-3.57.37-.39.77-.74,1.21-1.06,2.73-1.58,3.82-.19,4.27,2.37,1.06,6.05,1.18,6.19,7.31,5.56,2.86-.29,4.15.97,4.37,3.66,1.56,6.09,5.08,11.38,7.18,17.26.85,2.37,1.48,4.77,2.05,7.19.58,2.43,1.75,4.14,4.41,4.39,6.46.62,9.38,4.43,10.51,10.62,1.36,7.47,4.38,14.55,5.61,22.08.32,1.97.97,3.89,1.92,5.66,1.6,2.98,2.61,3.19,5.5,1.29,1.94-.29,3.19.94,2.83,2.5-.93,4.04.65,8.05-.33,12.09-.75,3.08,1.39,6.08.5,9.44-.72,2.73-.86,5.64-1.91,8.33-.4,1.51-1.42,2.73-1.97,4.16-.11.5-.25,1-.4,1.49-3.79,9.43-7.85,18.7-13.64,27.16-2.24,3.28-5.25,5.86-7.37,9.19-1.5,1.8-3.27.2-4.89.41-2.01.26-2.89-.5-3.36-2.48-.21-.87-1.28-2.23-2.68-.46-.85,1.07-2,.3-3.02-.3-2.76-1.62-5.83-2.7-8.57-4.2-2.5-1.37-5.05-3.08-6.82-4.39,3.04,4.76,2.29,10.5.96,16.31-4.91,6.62-11.5,10.86-19.14,13.71-3.19,1.19-6.53,1.54-9.82,2.19-4.66.92-8.5,3.7-12.3,6.2-4.6,3.03-9.92,4.67-14.27,8.11-1.45,1.15-3.91,2.14-3.08,4,.83,1.86,3.31.67,4.73-.05,4.51-2.27,9.19-4.18,13.44-7.07,5.06-3.44,10.07-6.93,14.94-10.63,1.31-.99,2.93-1.45,4.61-1.28,3.85.38,7.71.33,11.56.48,3.84.15,7.24,1.87,9.26,5.5,2.49,4.02,5.9,7.29,8.86,10.92,4.03,4.93,2.04,10.09-4.16,11.74-1.58.42-3.15.78-4.78.3-.9-.25-1.4-.78-1.79-1.69-3.36-7.85-9.5-10.36-17.25-7.12-7.81,3.26-15.34,7.12-23,10.72-1.47.69-3.27,1.63-2.05,3.63,1.14,1.86,3.26,1.56,4.64.46,4.18-3.31,9.58-3.91,14.04-6.73,2.92-1.84,5.89-3.61,8.7-5.66,3.47-2.53,4.71-2.37,7.69.69,2.02,2.07,4.22,3.9,6.9,5.07,2.66,1.43,1.4,3.67,1.35,5.79-.07,2.74-.73,5.09-2.72,7-1.5-.03-2.52-1.02-3.59-1.85-2.72-2.1-5.86-2.64-8.84-1.31-4.05,1.81-8.21,3.6-11.58,6.61-1.18,1.06-2.51,1.57-3.91,2.08-.78.28-1.91.47-1.53,1.68.3.93,1.29,1.23,2.18,1.13,2.53-.31,4.69-1.59,6.7-3.04,4.34-3.15,8.85-5.58,14.51-4.57,2.13.38,4.19-.55,6.32-.6,3.07.71,3.82,2.79,3.33,5.62.67,5.98-.8,11.57-3.51,16.81-1.67,3.23-4.79,1.63-7.35,1.45-1.15-.08-2.26-.72-3.38-1.11.13-2.38,1.59-4.45,1.61-6.83.01-1.21.1-2.81-1.56-2.91-1.47-.08-1.4,1.52-1.71,2.52-.81,2.54.79,4.83.87,7.28-2.3,1.24-2.85,4.02-4.88,5.5-4.59,3.26-4.9,8.52-6.6,13.26-1.29,3.6-1.8,7.75-4.97,10.53Z"/>
        <path class="cls-27" d="m360.28,135.92c.08-3.29-1.53-3.97-4.42-3-4.3,1.45-7.68-.69-7.46-5.64.08-1.91.59-4.95-3.11-2.59-1.21-3.12.42-5.9,1.5-8.51,1.22-2.94,1.96-5.96,2.33-9,1.25-10.52,1.22-21.09,1.25-31.68.04-11.92-1.98-23.57-3.36-35.31-.75-6.43-2.58-12.71-5.59-18.54-.64-1.25-.77-2.63-1.21-3.93-.75-2.21-1.64-4.34-4.54-5.3.27,3.94,2.26,6.93,3.17,10.23,2.76,10.06,5.22,20.1,6.13,30.63.83,9.54,1.03,19.12,2.04,28.64.45,4.23-.48,8.45-.5,12.7-.05,7.98-1.35,15.91-1.06,23.91.08,2.33-.93,4.55-.91,6.89-1.84,3.41-4.59,3.97-8.42,3.98-7.91,0-15.51-1.26-23.22-2.73-3.34-.64-6.88-3.27-10.63-.76-4.25,2.85-9.06,3.78-14.11,4.11-6.99.47-13.44-1.56-19.86-3.84-3.51-1.24-7.01-2.5-10.43-3.97-1.85-.8-1.62.74-1.65,1.38-.19,3.34-1.52,4.51-5.09,4.17-3.48-.33-6.83-.94-10.05-2.11-1.99-.72-3.09-1.53-5.27.65-2.93,2.92-7.54,3.5-11.64,2.53-2.42-.57-2.8.43-3.36,2.04-2.39-1.76-4.79-3.53-7.53-4.71-3.38-1.46-5.91-.96-8.37,1.5-1.8-2.04.06-3.65.73-5.71-1.19.42-2.19.86-3.24,1.12-1.74.43-2.82-.57-2.78-2.11.16-7.46,1.08-14.78,4.01-21.79,1.15-2.76,1.52-5.85,2.94-8.56.34-.64.17-1.27-.43-1.63-4.62-2.8-2.77-6.94-1.59-10.34,1.75-5.04,4.26-9.81,6.77-14.58,3.38-6.43,8.34-11.3,12.97-16.55,1.26-1.44,2.53-2.95,4.48-3.84,4.45-2.03,5.58-6.68,7.18-10.64,1.5-3.71,4.2-5.82,7.34-7.61,5.81-3.32,11.83-6.28,17.6-9.67,9.61-5.65,19.6-10.69,30.36-13.37,8.5-2.12,17.4-2.88,26.31-2.02,4.35.42,8.53,1.32,12.64,2.76,1.42.5,2.72,1.29,4.41-.72,2.07-2.47,5.55-.46,8.34-.5,6.93-.09,13.77,1.38,19.75,5.04,8.58,5.25,18.33,9.25,22.9,19.23.62,1.35,1.06,1.02,2.1,1.07,5.61.25,8.88,3.73,11.14,8.49.65,1.38,1.12,3.22,2.25,3.93,4.03,2.51,2.46,6.43,2.34,9.59-.13,3.52.94,7.19,4.11,8.04,8.2,2.2,13.92,7.87,19.26,13.92,1.72,1.96,2.97,4.47-.45,6.87-2.44,1.71-.49,4.67-.15,6.89.56,3.64,1.82,7.21.22,10.78-.81,1.79,2.4,2.47.82,4.19-2.66.16-4.6,1.67-6.39,3.44-1.77,1.76-3.58,3.45-5.66,4.87-3.5,2.4-7.1,4.28-9.54,8.43-2.22,3.76-7.16,5.68-11.46,7.34-3.7,1.43-7.29,3.24-11.31,3.81-1.85.26-2.36,1.62-2.09,3.35.47,2.97-1.08,3.96-3.8,4.23-5.56.56-11.12.34-16.68.53Z"/>
        <path class="cls-24" d="m229.02,417.62c-1.61,4.18-4.77,7.35-7.11,11.02-2.9,4.55-6.6,8.58-8.86,13.53-.04,1.75-.65,3.15-2.41,3.82-5.35.09-10.7-.4-16.05-.44-2.88-.03-5.75.05-8.6.58-1.15.21-2.24.29-3.12-.68-.85-1.05-.95-2.16-.62-3.5,2.33-9.56,4.79-19.12,7.98-28.4,3.08-8.95,5.69-18.09,9.59-26.76.1-.23.21-.46.27-.7.47-1.94,1.47-4.58-.45-5.53-2.28-1.13-2.85,1.88-3.54,3.32-1.68,3.46-3.56,6.87-4.36,10.71-1.47,7.11-5.28,13.46-6.79,20.53-1.62,7.55-5.49,14.43-6.32,22.25-.32,3-1.73,5.92-2.52,8.92-3.36,2.82-7.76,2.47-11.63,3.3-4.27.92-8.47,1.99-12.59,3.32-12.19,3.95-24.15,8.53-35.53,14.47-2.62,1.37-5.04,3.17-7.55,4.76-1.09.69-2.13,1.9-3.68.99,1.12-7.06,4.31-13.32,7.43-19.65,2.82-5.71,5.18-11.65,7.73-17.49,2.54-5.81,4.75-11.79,7.69-17.39,3.68-6.99,6.4-14.41,10.03-21.4,4.94-9.51,9.26-19.32,14.4-28.75,2.99-5.48,5.92-11.08,9.19-16.32,2.58-4.14,4.85-9.27,10.22-11.27,1.43-.53,2.9-1.44,3.29-3.29,1.65-7.85,8.19-11.07,14.25-14.53,4.09-2.34,8.44-4.44,12.93-5.81,5.88-1.79,11.16-4.97,16.9-6.86,7.48-2.47,14.39-6,21.39-9.43,1.31-.64,2.57-1.71,4.13-.58.43.47.49,1.02.35,1.61-.14.36-.33.7-.57,1.01-2.53,2.29-3.8,5.14-4.13,8.54-1.49,15.26-4.53,30.27-7.71,45.25-.79,3.71,0,7.37-.63,11.13-.8,4.8-2.19,9.44-3.01,14.21-.49,2.88.7,4.92,2.54,6.64,1.89,1.77,3.98.56,5.95-.21,1.98-.78,3.73-2.03,5.71-2.8.95-.37,1.98-.64,2.84.12.96.85.56,1.95-.02,2.72-2.17,2.85-3.02,6.6-6.02,8.87-1.08.82-1.39,1.96-1.7,3.21-.51,2.08-1.43,4.08-3.09,5.43-3.72,3.01-5.59,6.92-6.18,11.55Z"/>
        <path class="cls-4" d="m128.34,603.66c5.26.81,9.68,3.73,14.5,5.68,4.91,1.99,9.36,4.55,13.23,8.12,1.64,1.51,3.81,1.88,5.64,3.09,9.01,6,17.32,12.89,25.89,19.46,2.2,1.69,4.75,3.03,7.49,2.61,4.2-.63,8.05.24,11.94,1.56,6.02,2.04,12.38,3.03,18.11,5.97-.96,3.7-3.42,6.61-5.28,9.8-4.59,7.86-8.93,16.18-15.29,22.53-6.95,6.94-13.39,14.76-23.29,18.59-4.47,1.73-9.64,3.88-13.02,6.97-6.87,6.3-12.11,1.34-16.89-1.54-4.47-2.7-8.94-5.87-12.92-9.55-6.43-5.94-12.25-12.59-19.66-17.42-3.24-2.11-3.18-5.85-3.62-8.85-.69-4.71-.47-9.62-.48-14.43-.01-5.94.82-11.77.94-17.67.06-2.89.21-5.71-.56-8.51.47-1.21,1.01,1.6,1.57-.06,2.12-6.26,2.82-12.98,7.04-18.6,1.3-1.73,2.75-4.07,3.15-6.6.1-.66.46-1.49,1.51-1.15Z"/>
        <path class="cls-40" d="m535.34,611.26c1.71-5.37,4.31-10.54,4.91-16.16.24-2.22,2.96-4,1.13-6.49,0-2.85-.73-4.62-4.16-5.28-3.23-.62-5.78-3.38-8.49-5.28-3.75-2.63-7.9-4.2-11.92-6.15-.91-.44-1.93-.74-2.49-1.57-2.88-4.31-7.58-5.72-11.96-7.62-.87-.38-1.76-.56-.96-1.77,2.23-6.01,6.1-11.51,5.69-18.34-.12-1.98,2.17-2.39,2.7-4.25,1.2-4.2,1.43-8.74,4.01-12.52,2.25-3.31,3.01-7.26,4.28-10.97.98-2.85,2.31-5.85,2.19-8.73-.1-2.32,1.55-3.22,2.06-4.93,1.54-5.14,2.91-10.53,5.61-15.08,2.1-3.53,2.31-7.53,4.38-11.01,1.31-2.2,1.87-5.15,2.56-7.68.95-3.45,3.31-4.51,5.64-6.06,1.84-1.23,4.28-.05,5.25.58,1.89,1.23,4.32,2.31,4.4,5.97.07,3.2-.58,6.8,1.01,9.94.52,1.02.29,2.01.1,2.91-1.06,5.19.12,10.41-.25,15.52-.42,5.77.04,11.56-.87,17.32-.84,5.34-.53,10.78-.45,16.21.06,3.94-.32,8.1-.64,12.15-.46,5.94-1.17,11.89-1.22,17.84-.04,4.85-.27,9.63-.65,14.45-.23,2.99-.02,6.59.42,9.88.13.96-.27,1.69-.36,2.53-.2,1.74.51,2.44,2.31,2.97,6.96,2.02,13.61,4.93,20.35,7.58,3.94,1.55,3.66,3.6,2.03,6.48-6.79,4.12-14.35,4.87-22.05,5.09-2.76.08-4.91,2.08-7.71,2.42-2.34.28-4.56.87-6.86.05Z"/>
        <path class="cls-4" d="m398.72,236.61c.73-3.94,1.44-7.88,2.23-11.81.1-.51.27-.92-.11-1.35-2.47-2.81-1-5.81-.48-8.79.22-1.27.6-2.6-.63-3.78-.65-.63-1.26-1.7-.23-2.62,2.07-1.85.77-2.94-.83-4-1.3-.67-1.6-1.89-1.57-3.16.31-10.34-.28-20.65-.73-30.96-.33-7.47,2.83-13.83,7.32-19.52,2.86-3.62,6.69-5.35,11.45-5.02,3.65.26,7.4-1.42,10.99.51,4.69,11.46,4.38,23.42,4.18,35.51-.14,8.64-1.53,16.85-4.13,25-1.98,6.19-6.09,10.55-11.52,13.73-1.79,1.05-4.07.33-6.15.77-3.09.64-5.26,3.32-4.38,6.41,2.21,7.74,5.42,15.2,6.55,23.26.17,1.23.95,2.27,1.88,3.13-.43,4.74,2.49,8.64,3.29,13.1.81,4.5.7,4.2-2.13,7.87-2.19,2.84-3.47,6.41-5.21,9.62-3.13,5.76-6.02,11.66-10.41,16.59-2.63,2.95-3.88,6.87-7.08,9.42-5.36,4.28-10.78,8.53-15.77,13.22-2.68,2.53-5.18,5.23-8.2,7.38-1.36-.67-.79-1.46-.28-2.42,1.51-2.88,2.51-5.93,3.2-9.13.65-3.03,1.73-5.91,3.23-8.71,2.64-4.9,3.72-10.44,5.7-15.62,1.51-3.97,2.43-8.1,4.61-11.96,1.38-2.45,1.75-6.14,3-9.01,4.28-9.81,6.28-20.34,10.02-30.31.27-.72.27-1.46-.18-2.15.03-.52.05-1.03.08-1.55,2.19-1.46,2.45-1.87,2.27-3.64Z"/>
        <path class="cls-9" d="m426.14,146.1c-4.25.08-8.51-.01-12.74.3-6.01.44-9.76,4.77-13.2,11.38-4.84,9.3-2.15,18.88-2.06,28.39.04,4.34-.27,8.68-.05,13.03.09,1.72.13,3.39.58,5.05-2.29,3.64-4.29,3.83-6.37.12-1.86-3.33-3.02-7.07-2.86-10.98.08-2.04-1.37-3.4-1.77-5.29-1.27-5.84-3.24-11.52-4.75-17.31-.64-2.43-1.76-3.99-4.36-4.35-1.09-.15-2.13-.79-3.22-.88-3.89-.3-5.57-2.61-6.19-6.19-1.41-8-5.89-14.79-8.79-22.21-.16-.4-.72-.79-.08-1.24,3.91-2.13,8.2-.68,12.29-1.16,1.25-.15,2.63-.47,3.98-.33,3.06.32,4.21-.89,3.15-3.92-.82-2.37,1.1-3.53,2.59-3.77,7.45-1.17,13.98-4.32,20.16-8.44,1.73-1.15,3.48-2.06,3.72-4.52.08-.84.95-1.97,1.74-2.31,6.23-2.64,10.8-7.5,15.81-11.74,1.6-1.35,2.37-.37,3.49.19.81,4.49,2.98,8.6,3.03,13.35.1,8.26,1.31,16.49.66,24.8-.29,3.66-2.39,5.81-4.77,8.01Z"/>
        <path class="cls-18" d="m73.63,503.84c-1.98.54-2.44-.53-2.32-2.2,1.73-5.11-.71-8.2-4.37-11.7-9.61-9.19-17.87-19.72-28.09-28.35-7.03-5.94-14.53-11.29-21.45-17.34-2.29-2-5.76-3.79-4.63-7.98.24,0,.47-.04.7-.1,3.49.04,6.55,1.47,9.18,3.52,8.47,6.59,16.42,13.82,24.89,20.43,3.24,2.53,5.67,5.98,8.67,8.81,6.46,6.1,12.07,12.93,17.43,19.97.38.5.73,1.01,1.23,1.41.23.19.45.21.69.03.12-1.12-.72-1.79-1.36-2.48-9.58-10.35-17.86-21.88-28.4-31.36-3.52-3.17-7.41-5.9-10.99-9-4.21-3.65-9.16-6.49-12.35-11.26-.16-.7-.89-1.67.74-1.48,1.03.12,1.89,1.09,3.05.63,1.12-.26,1.92.4,2.69,1.02,15.95,12.68,31.51,25.73,43.75,42.3,2.1,2.85,3.98,5.94,6.57,8.44-7.04-13.19-14.05-26.41-25.64-36.38-4.33-3.73-8.35-7.8-12.61-11.59-1.32-1.18-2.55-2.44-2.03-4.47,3.52-1.88,4.33,2.01,5.94,3.27,7.02,5.49,13.6,11.56,19.56,18.22,4.45,4.98,8.2,10.52,11.33,16.36,2.41,4.5,5.77,8.48,7.33,13.48.72,2.32,2.92,1.52,4.66,1.32.48.29,1.1-.14,1.43.06,3.96,2.46,6.19.04,9.03-2.48,12.5-11.1,27.29-17.63,43.48-21.54,13.21-3.2,26.57-4.85,40.06-5,9.58-.1,19.21.19,28.77,1.39,3.52.44,6.68,2.04,9.98,3.17.69.24,1.62.57,1.56,1.41-.08,1.11-1.19,1.23-2.01,1.19-5.11-.26-10.2.25-15.33-.06-8.92-.53-17.87-.89-26.82-.44-11.34.57-22.61,1.69-33.63,4.44-16.69,4.15-32.13,10.84-44.98,23.2,1.41.6,2.28,0,3.14-.65,8.57-6.37,17.97-10.98,27.99-14.78,9.07-3.44,18.3-5.96,27.78-7.37,10.84-1.61,21.8-2.29,32.8-1.97,5.99.17,12-.46,17.94.74,1.54.31,3.32.08,4.38,1.68-.08,1.57-1.24,2.1-2.49,2.35-4.38.89-8.61,2.62-13.19,2.49-8.71.04-17.41.02-26.13.76-10.2.87-20.38,2.02-30.1,5.07-12.87,4.04-25.06,9.81-36.46,17.17-2.06,1.33.81,2.42-.44,3.35-.24.29-.53.51-.87.65-.9.29-1.81.24-2.72.1-6.66.57-13.39-.04-20.02,1.06-2.44.41-4.86.68-7.33.5Z"/>
        <path class="cls-23" d="m213.29,470.72c-6.09-2.21-12.46-1.89-18.76-1.87-7.67.02-15.38-.16-23,.53-9.63.88-19.37,1.76-28.64,4.73-9.56,3.06-19.11,6.08-27.97,11.22-3.92,2.28-7.92,4.49-11.43,7.27-2.37,1.87-3.96,2.4-6.12.19,5.43-4.61,10.96-9.03,17.13-12.67,5.63-3.32,11.61-5.73,17.69-7.99,9.28-3.45,18.9-5.44,28.68-6.6,12.69-1.5,25.4-2.1,38.21-1.04,7.41.61,14.91.11,22.6.11-7.08-3.9-14.72-4.54-22.29-4.79-8.27-.26-16.54-.93-24.84-.3-13.31,1.01-26.55,2.56-39.35,6.4-6.44,1.93-13.07,4.02-18.75,7.45-7.66,4.63-15.98,8.75-21.29,16.54-.66.97-1.06.37-1.76,0-1.82-.95-3.74-1.71-5.63-2.55,4.82-5.91,11.25-9.87,17.33-14.25,3.62-1.83,6.71-4.67,10.26-6.4,4.42-2.16,8.88-4.35,13.43-6.31,10.24-4.4,20.79-8.01,31.5-10.93,3.94-1.08,8.09-2.38,12.32-2.35,1.29.01,2.04-.72,3.03-1.15,2.37-1.15,4.86-1.69,7.49-1.45,1.57,2.66,3.3-.02,4.91-.03,7.65-.03,15.28,0,22.9.82,6.8.28,13.67-.15,20.3,1.96,1.45.46,2.81.98,3.75,2.28,1.76,2.43,1.45,3.89-1.14,5.43-2.28,1.35-4.67,2.35-7.41,2.76,3.62.2,6.36,2.7,9.77,3.42,1.12.24,1.82,1.26,2.01,2.48-1.62,2.56-4.55,2.98-6.99,3.56-4.92,1.16-9.77,2.6-14.7,3.71-1.11.25-2.19.44-3.23-.21Z"/>
        <path class="cls-24" d="m244.72,301.87c0-.51-.01-1.02-.02-1.53,4.48-3.7,7.55-8.63,11.19-13.06.95-1.16,1.68-2.45,1.52-4.04,2.78,2.13,4.34,5.58,7.64,7.16,1.34.56,1.31,2.03,2.03,3.01,1.06,5.4,3.27,10.51,4.01,15.99-.06.62.13,1.58-.2,1.81-4.03,2.83-3.35,7.79-5.23,11.58-1.78,3.58-1.38,7.79-2.58,11.66-1.43,4.6-1.77,9.53-2.74,14.29-1.41,6.91-2.96,13.79-4.45,20.68-1.09,1.82-3.04,2.51-4.71,3.58-3.38,2.15-7.21,3.4-10.71,5.32-1.46.8-3.25,1.09-2.65-1.61,2.48-11.3,3.79-22.79,5.66-34.19,1.8-10.94,3.8-21.85,5.66-32.78.32-1.91-.25-3.72-.36-5.58-.16-2.81-3.05-.89-4.06-2.27Z"/>
        <path class="cls-23" d="m12.77,436.26c0,3.28,2.54,5.3,4.6,6.78,4.54,3.27,8.38,7.34,12.91,10.57,8.55,6.08,16.12,13.27,23.36,20.8,4.72,4.9,9.15,10.08,13.73,15.12.49.54,1.06,1.05,1.66,1.46,4.82,3.26,5.26,5.28,2.27,10.64-3.97-1.79-6.54-5.21-9.47-8.21-6.45-6.59-12.87-13.23-19.82-19.31-6.36-5.57-11.98-11.91-18.22-17.64-4.55-4.17-9.66-8.16-13.11-13.57-1.3-2.03-3.65-2.89-5.5-4.31,2.36-1.34,4.69-2.75,7.59-2.33Z"/>
        <path class="cls-15" d="m204.91,127.67c-.23-3.42,2.17-3,4.4-3.19,3.41-.29,9.98,3.23,11.51,6.4-.53,5.73-3.04,10.96-3.95,16.66-.85,5.35-.55,10.56.02,15.73.81,7.36,2.02,14.68,2.74,22.07.18,1.84.04,3.37-.65,5.07-.89-.81-.57-2.45-1.99-2.8-2.16-10.13-6.38-19.72-8.07-29.96-1.32-8.03-3.04-16.01-3.53-24.19-.11-1.89-1.28-3.75-.48-5.79Z"/>
        <path class="cls-23" d="m38.95,434.7c2.16,4.43,6.17,7.33,9.67,10.38,8.26,7.21,15.98,14.75,21.63,24.23,3.2,5.38,6.47,10.72,9.64,16.12.64,1.1,1.86,2.61.29,3.61-1.71,1.09-1.75-.9-2.39-1.84-6.34-9.18-13.3-17.92-21.19-25.75-8.66-8.6-18-16.53-27.79-23.87-.9-.67-1.71-1.46-2.56-2.19,3.4-.5,6.75-2.23,10.23-.46.92.47,1.65-.2,2.48-.23Z"/>
        <path class="cls-34" d="m128.34,603.66c-4.16,9.09-9.52,17.7-11,27.73-1.45.22-1.38-1.24-2.27-1.33-2.22-7.99-4.57-15.95-6.59-24-.74-2.94-.49-6.04,1.86-8.49,3.92,6.53,10.82,3.99,16.43,5.39.59.15,1.22.08,1.57.7Z"/>
        <path class="cls-3" d="m22.46,436.25c6.39,5.27,12.66,10.72,19.21,15.79,11.51,8.89,20.29,20.3,29.52,31.32,1.66,1.98,3.53,3.78,5.26,5.7.8.89,1.33,1.92.13,2.91-1.43,1.18-2.09-.25-2.62-1.04-7.29-10.81-16.63-19.83-25.86-28.84-5.13-5.01-10.89-9.51-16.72-13.83-4.41-3.27-8.1-7.52-13.08-10.07-1.54-.79-3.2-1.35-4.81-2.02,3.01-1.38,5.99.26,8.98.09Z"/>
        <path class="cls-5" d="m92.38,569.87c3.51-1.55,6.6.3,9.47,1.66,7.4,3.49,15.17,6.2,22.21,10.46.75.45,1.57.8,2.24,1.34,1.39,1.11,2.13,2.6,1.23,4.27-.95,1.77-2.55,1.62-4.16.85-4.17-1.99-8.52-3.69-12.45-6.07-3.11-1.89-6.38-3.11-9.78-4.16-1.5-2.43-4.65-2.73-6.34-4.97-.84-1.11-2.5-1.61-2.43-3.38Z"/>
        <path class="cls-35" d="m73.63,503.84c2.94-1.65,6.29-1.35,9.42-1.66,5.82-.57,11.7-.44,17.56-.61-.91,4.59,2.57,7.05,5.08,9.75,7.2,7.76,13.94,15.93,20.47,24.22,3.97,5.05,8.88,9.51,11.52,15.6.59,1.37,1.92,2.27,3.1,3.22,1.36,1.1,2.68,2.26,2.59,4.26-8.19-.26-16.06-4.08-24.45-2.25-1.28.28-1.66-.73-2.3-1.47-7.29-8.43-14.66-16.8-21.9-25.28-2.67-3.12-5.52-6.03-8.48-8.86-1.88-1.8-3.77-3.58-4.53-6.21-.52-1.79-1.79-2.59-3.64-2.53-.51-3.25-3.08-5.39-4.43-8.18Z"/>
        <path class="cls-35" d="m213.29,470.72c8.24-2.15,16.63-3.74,24.63-6.78,4.78-2.37,10.18-3.18,14.71-6.26,1.91-1.3,7.25,1.43,9.15,4.22,2.72,4.01,6.87,6.76,9.41,10.92,4.89,5.99,9,12.6,14.87,17.81,3.16,2.79,5.12,6.7,8,9.8,1.82,1.98,3.01,4.55,5.62,5.78.43.2.2-.18.25.23.64,5.22,6.14,7.24,7.72,11.82,1.56,3.9,4.9,6.32,7.67,9.22.98,1.03,2.26,1.95,2.08,3.74-.22,2.17,2.15,1.11,2.98,2.27,2.63,3.67,5.45,7.19,8.31,10.69,1.77,2.17,3.44,4.62,5.7,6.13,1.91,1.27,1.58,3.31,2.81,4.79,1.78,2.15,5.05,2.73,5.82,5.78-.67,1.31-1.65,1.02-2.46.3-4.65-4.15-10.37-2.91-15.75-3.08-7.07-.23-14.15-.14-21.21.11-8.57.3-17.17-.93-25.7.5-1.57.26-2.95-.34-4.44-.41-7.8-.37-15.64-.19-23.41.01-11.28.3-22.55.44-33.84.37-2.33-.01-4.66,1.05-6.74-.77-3.57-4.11-7.26-8.12-11.32-11.76-1.58-1.42-2.36-3.84-2.21-5.29.3-2.96-.8-5.71-.37-8.66.69-4.7-3.23-9.27-7.86-9.9-6.35-.85-9.87,1.33-11.36,6.62-2.23,7.91-2.04,15.86-.49,23.77.36,1.85-.43,3.42-.08,5.11-1.03,1.49-2.46,1.63-4.18,1.67-3.66.1-7.36-.13-10.98.64-3.49-.48-6.98-.96-10.46-1.43-2.09-4.03-5.71-6.86-8.28-10.54-6.45-9.25-14.14-17.52-20.99-26.47-4.4-5.75-8.82-11.7-14.74-16.19-1.24-.94-2.6-1.99-2.55-3.87.3-.05.6-.09.9-.14,2.3-2.7,5.95-2.32,8.77-3.84,9.62-1.24,18.41-5.43,27.68-7.89,11.83-3.15,23.62-6.44,35.48-9.46,1.45-.37,2.93-.65,4.27-1.37,5.78-1.73,11.57-3.47,17.51-4.61,5.25-.26,10.17-1.9,15.07-3.61Z"/>
        <path class="cls-40" d="m430.04,602.83c-.25.03-.65-.03-.72.1-2.99,5.45-8.27,3.01-12.44,3.17-6.21.24-12.35,1.13-18.54,1.44-4.74.24-9.36-1.04-14.07-.81-1.09.06-1.41-2.86-3.02-.78-.61-2.36-4.48-2.26-4.06-5.4,3.83-3.34,7.51-6.93,10.58-10.9,3.47-4.49,7.92-8.15,10.8-13.1.25-.43.42-.96.8-1.26,7.68-5.97,11.58-15.07,18.22-21.97,3.08-3.2,4.12-8.15,7.01-11.82.61-.77,1.05-3.07-.67-4-1.89-1.02-2.89.64-3.42,1.92-2.51,6.1-7.11,10.83-11.1,15.76-6.17,7.61-11.92,15.59-18.72,22.74-4.41,4.64-8.84,9.33-12.88,14.33-2.09,2.58-4.23,3.29-7.04,1.37-5.5-2.76-7.73-8.69-12.08-12.68-2.76-2.53-6.29-5.36-7.43-9.78-.39-1.52-3.1-2.22-4.15-3.97-.48-.8-1.59-1.34-.95-2.55,7.25-3.89,15.05-6.65,22.3-10.35,3.2-1.63,7.21-2.71,9.81-5.59,2.4-2.65,5.84-3.47,8.71-5.23,6.88-4.21,13.22-9.13,19.85-13.63,4.43-3.01,8.41-6.37,12.14-10,4.21-4.1,8.4-8.23,11.85-13.15,2.87-4.09,5.92-8.17,9.22-11.95,3.45-3.94,5.66-8.66,8.83-12.74,2.86-3.68,5.45-7.5,6.75-11.98,2.26-7.76,5.24-15.3,6.76-23.27.3-1.58.29-3.05-.6-4.6-2.91-5.09-4.56-10.89-6.01-16.35-1.62-6.08-4.36-11.94-4.8-18.45-.27-3.95-2.46-7.7-1.96-11.95.17-1.42.42-2.63,1.64-2.99,1.63-.48,2.1,1.31,2.44,2.25,1.93,5.29,3.68,10.64,5.25,16.06,1.12,3.85,1.89,7.85,3.18,11.67,2.24,6.61,3.78,13.52,7.46,19.53,1.34,2.19,4,4.11,1.58,6.6-2.54,2.6-3.04,5.88-4.12,8.94-2.96,8.39-5.55,16.91-8.47,25.32-3.87,11.14-7.93,22.18-10.22,33.83-.6,3.05-2.69,5.95-3.88,9.06-2.7,7.05-4.06,14.51-6.78,21.59-.75,1.96-3.28,4.83-.96,7.63-.48,1.37-1.74,1.1-2.78,1.38-2.56.68-2.89,1.84-1.29,3.93,1.51,1.97,3.19,3.92,5.1,5.33,1.96,1.44,2.63,3.13,3.1,5.2-2.8,10.89-6.6,21.47-10.2,32.11Z"/>
        <path class="cls-10" d="m346.13,564.64c1.88,1.47,2.46,4.12,5.24,4.94,2.24.66.94,4.18,3.44,5.53,1.23.67,3.02,2.32,3.46,3.37,2,4.7,7.73,6.4,8.83,11.63.42,2,3.99.31,3.77,3.14,2.58,2.16,6.12,3.48,6.55,7.51.31,2.43,4.35,2.14,3.8,5.2-5.31-.7-10.62-1.46-15.95-2.08-3.18-.37-6.48-.13-9.57-.84-8.56-1.97-17.34-1.75-25.93-3.04-5.32-.8-10.71-.78-16.05-1.94-3.89-.84-8.35-.76-12.33-1.41-7.28-1.19-14.62-1.67-21.9-2.68-4.79-.67-9.72-.65-14.41-1.71-5.92-1.34-11.95-1.41-17.89-1.95-5.28-.48-10.55-1.23-15.85-1.51-1.85-.1-2.91-.84-3.94-2.29-3.76-5.33-7.19-10.85-9.71-16.87-1.9-4.54-5.83-7.57-8.24-11.7,5.34-.05,10.68-.13,16.01-.14,4.11,0,8.25.4,12.32.04,3.05-.27,6.08.31,9.07-.12,5.02-.72,9.98-.64,14.95.33.24.05.54.25.7.16,3.54-2.01,7.34-1.07,10.98-.72,4.75.46,9.39-.52,14.11-.39,9.79.28,19.59-.06,29.37-.1,6.08-.02,12.32-.55,18.4.57,2.14.39,4.27,1.28,5.67,3.2.62.85,1.28.49,1.96.13,2.4.12.86,3.52,3.12,3.76Z"/>
        <path class="cls-4" d="m430.04,602.83c-1.04-1.36-.47-3.15.05-4.06,3.7-6.5,4.41-14.05,7.49-20.79,1.02-2.23.96-5.11,2.5-7.34-.87-1.46,0-2.62.7-3.78,1.29-2.11,3.03-3.92,4.1-6.2.37-.8,1.16-1.57,2-1.51,3.46.23,6.77-1.69,10.27-.68,8.68-.64,17.27-1.48,26.07-.35,6.1.78,12.02,2.61,18.18,2.83,3.13,1.69,6.15,3.63,9.42,4.95,1.57.63,2.39,1.12,3.16,2.76,1.26,2.65,4.55,2.88,6.96,3.99,5.15,2.38,9.68,5.64,14.34,8.75,1.23.82,2.18,1.89,4.2,1.39,2.24-.55,3.25,2.7,1.9,5.83-1.9,2.33-7.72,4.22-10.2,2.62-2.1-1.35-2.92.58-4.31.81-4.13.69-8.41.94-12.37,1.9-3.65.89-6.9.55-10.36.26-.12-.01-.31-.11-.35-.06-3.78,4.06-8.69,1.11-13,2.02-2.35.5-4.67.27-6.91,1.84-1.6,1.11-3.87,1.41-6.16.54-1.31-.5-3.59-1.22-4.05,1.56-.09.54-.35.97-.97.62-4.37-2.41-8.23-.91-12.33,1.1-3.13,1.53-6.88.61-10.31.83-1.91.12-3.28.34-5,1.18-4.3,2.1-8.78,1.91-13.52.94-1.99-.41-2.49-.02-1.51-1.96Z"/>
        <path class="cls-16" d="m335.24,377.09c2.66,3.34,5.38,6.64,7.97,10.03,4.03,5.27,8.19,10.45,11.88,15.95,2.37,3.54,5.73,6.3,7.5,10.29,1.85,4.14,4.09,4.23,7.27,1.16,3.59-3.47,5.87-7.94,9.23-11.5,7.14-7.57,11.4-17.14,17.81-25.1,5.33-6.63,9.08-14.23,14.5-20.82,3.34-4.06,5.64-9.46,9.13-13.44,6.93-7.89,6.73-17.69,8.66-26.87,1.25-5.91,1.52-12.06,2.54-18.09.56-3.27.71-6.77,1.11-10.14.45-3.75,1.76-7.35,1.94-11.18.05-1.17,1.52-2.33,2.71-1.96,1.01.32,1.83,1.09,1.61,3.06-.85,7.46-1,14.99-1.52,22.49-.13,1.93-.57,3.84-.97,5.74-1.44,6.99-.71,14.18-2.24,21.21-1.26,5.76-2.69,11.35-6.35,16.01-3.89,4.95-6.68,10.66-10.56,15.5-2.5,3.12-4.33,6.58-6.65,9.75-4.59,6.28-8.49,13.07-13.04,19.39-4.13,5.74-8.18,11.54-12.3,17.28-4.77,6.63-10.1,12.74-15.36,18.92-3.6,4.23-5.33,3.51-7.13-1.77-.71-2.08-2.57-3.62-4.43-4.83-1.1-.71-1.81-1.55-2.47-2.64-4.31-7.11-10.22-12.14-18.19-15.01-5.27-1.9-10.29-4.59-15.24-7.26-1.75-.94-3.41-1.36-5.28-1.43,1.44-2.77,3.81-4.82,6.36-6.24,4.24-2.37,8.06-5.14,11.5-8.52Z"/>
        <path class="cls-7" d="m396.38,241.79c2.02.27,1.65,1.63,1.08,2.76-2.55,5.01-3.14,10.59-4.74,15.86-1.52,4.98-3.92,9.69-5.54,14.65-.94,2.89-3.03,5.54-2.44,8.84.34,1.87-1.85.17-2.16,1.81-1.1,5.73-3.8,11.06-5.28,16.62-2.19,8.18-7.09,15.34-8.28,23.8-.25,1.81-2.55,2.82-1.94,4.96-4.51,4.81-10.91,7.45-14.79,13.07-.7,1.01-3.1.84-4.71,1.22-.79-2.1-.99-4.61-3.74-5.34l-.21-.3.2-.3c1.73-3.87,3.67-7.7,1.55-12.06.58-.77,1.58-.09,2.22-.63,6.95-.02,9.71-1.47,9.97-7.38.11-2.45-1.58-4.35-2.91-5.02-4.11-2.11-5.09-6.43-7.82-9.44,4.76-4.89,10.87-8.22,15.4-13.38,1.41-1.61,2.76-3.35,4.65-4.49,2.03-2.73,3.91-5.64,7.14-7.14.95-.44.72-1.49,1.34-2.04,5.17-5.68,9-12.26,13.07-18.73,3.45-5.49,4.38-11.98,7.94-17.33Z"/>
        <path class="cls-40" d="m307.65,518.26c-2.72-3.34-7.13-5.39-7.92-10.2-.12-.7-.34-1.3-.93-1.4-3.31-.55-3.45-4-5.42-5.77-.75-2.47-.75-4.83.6-7.19.96-1.66.72-3.66.86-5.5,1.1-13.86,3.31-27.6,4.17-41.5.26-4.2,1.91-8.38,2.25-12.74.16-1.99.25-3.94.16-5.91,1.37-6.54,2.23-13.16,3.36-19.74.22-1.28.73-2.35,1.42-3.39,2.17-.74,4.31-1.52,5.98-3.19.82.38,1.59.81,1.31,1.94-.72,2.93.22,5.99-.41,8.83-.81,3.67.58,7.2.08,10.83-.17,1.22.02,2.42-.83,3.43-.6.71-1.15,1.62-.72,2.38,1.42,2.54.27,5.31.65,7.58,1.08,6.45-2.07,12.46-1.26,18.36.65,4.79-1.1,9.17-.27,13.91.61,3.51-1.15,7.38-.97,11.21.26,5.42-.83,10.89-.65,16.16.26,7.44-1.57,14.58-1.48,21.91Z"/>
        <path class="cls-38" d="m335.24,377.09c-.6,2.98-3.19,4.5-5.29,5.8-4.4,2.73-8.64,5.6-12.57,8.96-.43,0-.87.02-1.3.03,1.93-5.92,4.95-11.45,5.98-17.71.49-3,3.07-4.64,5.59-6.07,3.69,2.02,4.89,6.14,7.59,9Z"/>
        <path class="cls-2" d="m457.15,558.47c-3.13.51-6.18,1.59-9.39,1.43-.84-.04-1.69.08-1.92.75-1.29,3.71-4.85,6.09-5.76,9.99-1.77-4.33-6.07-6.4-8.87-9.83-.96-1.18-1.66-1.97-1.07-3.49.58-1.5,1.79-2.21,3.15-2.13,1.01.06,1.92.25,2.82-.3,5.41,1.65,11.06,1.61,16.6,2.06,1.8.15,3.19.32,4.44,1.53Z"/>
        <path class="cls-5" d="m332.53,362.59c-2.31-2.78-2.8-7.64-.88-10.16.48-.63,1.41-1.27,2.13-1.27.81,0,1.42.91,1.67,1.79.97,3.56.06,6.71-2.12,9.58-.26.02-.53.04-.79.06Z"/>
        <path class="cls-39" d="m103.6,501.62c5.14,4.13,9.74,8.93,13.72,14.03,3.5,4.48,7.46,8.66,10.56,13.55,1.22,1.92,2.66,4.16,4.41,5.82,6.9,6.54,11.36,15.1,18.14,21.73.64.63.39,1.37-.27,1.94-2.27.38-4.53.5-6.79-.06-5.01-4.55-8.17-10.59-12.49-15.68-3.72-4.37-7.01-9.06-10.85-13.35-6.03-6.75-11.36-14.15-17.52-20.77-2.28-2.45-3.87-4.12-1.89-7.25,1,.02,1.99.03,2.99.05Z"/>
        <path class="cls-31" d="m160.63,560.12c1.87-2.8,4.73-.86,7.09-1.39,2.62-.59,5.48.36,8.07-.92,1.99,2.12,2.24,5.02,3.84,8-6.7-2.05-12.56-4.89-19-5.69Z"/>
        <path class="cls-4" d="m270.88,473.16c-1.88.89-2.04-1.07-2.52-1.82-2.75-4.29-6.33-7.83-10.05-11.19-2.58-2.33-5.08-2.23-8.33.12-3.33,2.41-7.72,3.51-12.07,3.67-3.87-3.36-8.66-4.5-13.48-5.57-.19-.04-.35-.22-.71-.46,2.79-1.95,6.43-1.43,9.05-3.5.88-.69,2.88-.45,2.6-2.01-.26-1.48-.9-3.33-2.71-3.74-2.99-.67-5.82-1.98-9.03-1.88-4.28.14-8.55-.32-12.71-1.46.75-1.02.77-2.53,2.1-3.17,4.6-.07,9.1.36,13.82-.44,7.96-1.35,15.81-3.19,23.65-4.95,8.45-1.9,17.09-2.87,25.41-5.32,2.54-.75,5.25-.06,7.69-1.2.85,1.46-.17,2.75-.35,4.12-2.99,6.16-3.9,12.99-6.15,19.42-1.72,4.91-2.9,10.22-3.9,15.45-.3,1.57-.45,3.26-2.32,3.91Z"/>
        <path class="cls-16" d="m244.72,301.87c5.11-.86,6.49.76,5.47,6.98-1.19,7.27-2.92,14.47-3.89,21.77-1.16,8.79-2.81,17.5-4.12,26.26-.68,4.57-.22,9.52-2.56,13.84-1.2,2.2.96,5.04-1.03,7.6,5.77-2.97,11.53-5.94,17.3-8.9.4,3.51-.63,6.72-2.08,9.85-4.47,1.64-8.41,4.33-12.57,6.55-2.65,1.41-5.47,1.59-8.17,2.44-2.06.65-4.2-2.2-3.38-4.52,1.9-5.36,1.98-11.02,2.93-16.52,2.26-13.03,4.62-26.05,6.65-39.11,1.19-7.63,2.41-15.24,4.15-22.76.28-1.22.53-2.45,1.3-3.48h0Z"/>
        <path class="cls-26" d="m367,287.59c-4.99,6.52-11.74,11.14-17.73,16.59-.73.66-1.57.66-2.43.73-2.62-3.93-6.22-5.43-10.91-4.68-1.77.28-4.07.13-5.36-.33-6.68-2.38-10.02,2.71-14.47,5.52-5,3.17-9.21,7.54-15.11,9.39-2.85.89-4.88,3.58-8.19,4.06-2.12.3-4.47,1.37-5.12-1.27-.52-2.13,1.8-3.58,3.47-4.79,4.04-2.92,8.7-4.8,12.99-7.32,5.03-2.95,9.92-7.14,15.8-7.61,7.37-.59,13.47-3.62,19.28-7.49,2.87-1.91,5.06-4.84,7.56-7.31.3-.4.7-1.14.99-1.03,3.23,1.23,7.17-.59,10.01,2.29.29.16.58.32.88.47,2.99.27,6.39-.66,8.32,2.78Z"/>
        <path class="cls-8" d="m266.44,292.82c-1.31-.32-.95-1.6-1.39-2.42.98-1.39.29-2.39-.88-3.1-1.44-.87-2.48-1.26-.55-3.1,1.66-1.58,1.04-1.49,3.35-.43,1.43.65,4.75.1,5.35-.97,1.4-2.47,5.35-3.22,4.33-7.17,2.62,1.94,4.68,4,7.84,3.77.25,3.99,1.87,5.32,5.65,4.06,5.73-1.92,11.38-4.09,17.15-5.89,2.56-.8,1.96-2.49,1.2-4.23.99-.38.67-3.21,2.82-1.45.97.8,1.71-.25,2.24-.72,3.18-2.81,6.68-4.18,10.99-3.33,1.1.22,2.33-.28,4.25-.55-2.9,2.1-2.87,4.36-2.17,6.76.21.73.26.72,2.91.78h0c-1.67,3.26-4.5,4.72-8,5.07-1,.1-2.93,1.02-1.66-1.54.24-.49-.52-.75-.97-.82-.91-.15-1.73.71-1.66,1.17.93,6.04-4.44,5.39-7.41,6.46-3.95,1.42-8.49.71-12.43,3.01-1.19.69-3.18.51-4.99.25-2.39-.35-5.08.67-6.76,2.9-2.44,3.23-4.8,6.51-7.19,9.78-5.01-1.29-8.29-5.1-12.01-8.28Z"/>
        <path class="cls-27" d="m294.79,187.37c-.26-4.24,3.2-6.14,6.1-8.05,3.59-2.37,7.42-4.98,11.5-5.86,4.7-1.02,9.59-3.82,14.13-2.6,4.77,1.29,10.59,1.82,13.66,6.62,1.28,2-.41,3.82-2.5,4.92-6.98,3.67-14.58,5-22.19,6.66-5.17,1.13-10.29,2.07-15.53,2.69-3.9.46-5.17-.3-5.18-4.39Z"/>
        <path class="cls-11" d="m344.54,125.44c-1-4.03-.08-8.11-.1-12.14-.04-7.73,1.01-15.45,1.4-23.19.44-8.74-.86-17.45-.87-26.13,0-5.31-1.66-10.33-1.25-15.76.36-4.78-2.32-9.72-3.02-14.68-.95-6.67-3.68-12.7-5.84-18.94-.46-1.32-.62-2.72.32-3.45,1.28-1,2.27.66,3.07,1.32,1.09.9,1.98,2.29,2.47,3.65,3.62,10.12,7.21,20.16,8.27,31.09.68,7.02,2.02,14.14,2.23,21.12.2,6.6.9,13.32-.05,20.07-.54,3.87-.18,7.97-.44,12.01-.46,7.08-1.84,13.8-4.5,20.33-.51,1.24-.62,2.64-.92,3.97-.25.25-.5.49-.75.74Z"/>
        <path class="cls-7" d="m279.56,233.67c-1.52,6.76,1.28,13.87-1,20.76-.92,2.77-5.55,6.91-8.35,6.79-.91-.04-1.17-.74-1.74-1.15-4.41-3.19-4.24-7.74-4.1-12.48.28-9.5,3.09-18.51,4.93-27.71.53-2.66,2.98-5.06,5.12-4.71,2.75.45,4.64,3.64,4.56,6.21-.13,4.05.35,8.12.58,12.28Z"/>
        <path class="cls-27" d="m327.03,219.37c-3.39,2.02-7.47,1.91-11.01,3.64-4.01,1.96-8.63,2.07-12.76,3.92-2.65,1.19-5.77.15-8.57-.04-2.58-.17-2.24-3.32-1.52-5.27,1.8-4.86,3.5-9.81,7.09-13.76,5.57-3.37,11.13-1.88,16.45.43,3.17,1.38,5.92,3.71,8.5,6.03,1.35,1.22,2.96,2.74,1.82,5.04Z"/>
        <path class="cls-1" d="m327.03,219.37c-4.21-8.86-14.55-13.85-24.19-11.71-.83.18-1.71.15-2.57.21,1.96-5.01,5.81-7.26,11.46-7.39,7.09-.16,14.11.28,21.03,1.73,3.74.78,7.56,1.34,10.84,3.72,1.89,1.37,2.58,3.1,2.2,5.12-.35,1.85-1.4,3.22-3.61,3.77-5.12,1.28-9.75,4.22-15.16,4.56Z"/>
        <path class="cls-24" d="m244.72,301.86c-.81,4.7-1.25,9.5-2.52,14.08-1.77,6.38-1.94,12.98-3.21,19.42-1.58,7.98-2.65,16.06-4.35,24.04-1.28,5.98-1.9,12.11-2.65,18.2-.25,2.08.17,4.21-1.43,6-1.19,1.32.28,2.25.76,3.29.61,1.34,1.55.65,2.52.4,6.52-1.63,12.33-4.71,17.71-8.62,1.27-.92,1.72-.42,2.27.59,0,3.2-1.1,5.39-3.8,7.64-1.35,1.13-4.13,2.93-4.06,5.76.03,1.05-.81,1.51-1.31,2.13-5.45,6.87-10.2,14.21-14.51,21.84-.23.4-.74.65-1.12.97-1.17-3.6.81-9.06,4.3-11.29,2.54-1.62,3.65-3.93,3.9-6.78.08-.94.33-1.87,1.11-2.25,3.98-1.94,4.26-6.6,7.05-9.4.41-.41.92-1,.28-1.6-.54-.5-1.18-.21-1.74.06-2.45,1.21-4.85,2.53-7.36,3.62-4.08,1.77-9.57-1.83-8.85-6.14.47-2.84,1.02-5.76,1.85-8.62,1.21-4.11,2.28-8.52,1.66-12.96-.37-2.68.16-5.33.85-7.75,2.38-8.4,2.69-17.18,5.04-25.55,1.65-5.87,1.1-11.95,2.21-17.88.73-3.92,1.92-7.12,5.4-9.22Z"/>
        <path class="cls-25" d="m282.33,434c.43-1.24.85-2.49,1.28-3.73,1.57-4.77,4-9.22,4.8-14.27.73-4.54,5.54-8.88,10.25-8.89,2.86,0,5.11-1.25,7.56-2.2-1.55,7.69-1.77,15.63-4.33,23.13-.88,2.13-2.72,3.15-4.68,4-3.67,1.59-7.62,2.19-11.43,3.3-1.37.4-2.75.27-3.45-1.34Z"/>
        <path class="cls-27" d="m255.29,206.19c2.5,1.12,4.57,2.58,5.58,5.37.99,2.76,2.68,5.25,3.15,8.22.37,2.36,1.36,4.79-.93,6.83-2.34,2.09-4.64.13-6.4-.59-6.61-2.69-12.97-5.99-19.42-9.07,2.55-8.24,8.01-12.21,15.39-11.79,1.03.06,1.98.1,2.64,1.02Z"/>
        <path class="cls-37" d="m253.98,192.89c-3.73-1.36-7.84-2.22-11.24-4.26-3.59-2.16-7.64-3.48-10.92-6.28-2.39-2.04-2.72-4.09-.03-5.76,2.58-1.6,5.7-1.31,8.49-2.26,3.05-1.05,5.03.93,7.34,2.58,3.44,2.45,6.65,5.01,9.47,8.2,1.78,2,1.79,3.87,1.12,6.1-.72,2.39-2.76.67-4.22,1.68Z"/>
        <path class="cls-28" d="m367,287.59c-2.08-1.11-4.23-1.83-6.64-1.54-.84.1-1.75.16-2.31-.72,1.1-1.17,3.05-1.85,2.48-4.59-1.46,1.58-.67,3.83-2.47,4.6-2.16-1.15-4.14-3.37-6.86-.93-.46.41-1.13-.21-1.37-.86-.74-1.96-1.93-.87-3.02-.45,2.25-4.23-.31-8.84,1.01-13.15.06-.21-.33-.78-.6-.84-2.62-.62-1.95-2.44-1.3-4.77.43,3.35,3.58,2.41,5.05,4.11,1.62,1.89,4.1,2.3,6.13,3.37,1.64.86,3.84,1.05,5.19,2.79.86,1.11,1.15.91,2.09-.58.24-.38.71-.63.84-.38.79,1.52,3.57.22,3.62,2.39.05,2.18.55,2.91,2.6,1.63,1.33-.83,2.5,2.76,3.94.18-.18.71-.14,1.76-.59,2.06-3.13,2.04-5.04,5.28-7.79,7.69Z"/>
        <path class="cls-5" d="m347.59,326.76c-.6.72-1.43.6-2.22.63-3.18,0-4.92-2.44-6.92-4.29-3.62-3.36-5.27-3.86-8.57-.37-1.43,1.52-2.96,2.55-4.6,3.31-4.59,2.15-8.72,5.32-13.95,6.14-2.18.34-2.99,3.52-6.18,2.98-1.88-.31-2.64-1.13-3.17-2.37-.71-1.65.28-2.92,1.73-3.67,3.13-1.61,6.18-3.56,9.5-4.52,2.71-.78,5.2-2.02,7.33-3.49,2.54-1.74,5.38-2.35,8.05-3.46,8.42-3.49,15.26-.06,18.33,8.84.05.14.45.17.68.25Z"/>
        <path class="cls-5" d="m343.81,339.45c0,.2.01.4,0,.6-2,1.56-4.47,1.73-6.63,1.19-4.85-1.21-8.7,1.19-12.04,3.64-2.05,1.5-4.45,2.2-6.42,3.81-1.47,1.2-3.67.44-4.91-1.13-.36-.46-1.78-1.99.57-2.64,4.49-1.24,7.69-4.8,11.73-6.98,7.61-4.11,11.93-4.31,17.69,1.51Z"/>
        <path class="cls-21" d="m308.48,273.34c.66,1.08,3.1.63,2.69,2.04-.49,1.69-2.25,2.99-4.07,3.36-5.05,1.03-9.64,3.37-14.52,4.84-1.42.43-2.81,1.08-4.26,1.22-4.03.4-5.53-1.8-3.83-5.4,5.65-2.23,11.58-3.62,17.18-6.09,1.9-.84,4.52-.03,6.82.03Z"/>
        <path class="cls-22" d="m319.11,242.06c-5.11-.91-10.26-1.62-15.3-2.85-1.37-.33-3.49-1.05-2.93-3.87.69-3.47,3.58-3.25,5.45-3.12,6.64.44,12.72,3.33,19,5.33.76.24,1.15.92,1.09,1.76-.05.68-.42,1.28-1.1,1.29-2.13.04-3.97,1.52-6.21,1.45Z"/>
        <path class="cls-32" d="m255.29,206.19c-5.72-1.1-12.43.57-15.36,6.89-.65,1.4-1.77,2.59-2.67,3.88-2.6-.47-3.96-2.57-5.19-4.48-1.24-1.93-.15-3.66,1.57-5.02,4.66-3.7,10-5.42,15.87-5.49,2.6-.03,4.42,1.8,6.41,3.16.02.01-.41.69-.63,1.06Z"/>
        <path class="cls-13" d="m266.44,292.82c2.68-.03,3.86,2.47,5.77,3.68,2.13,1.34,4.26,2.92,6.24,4.6-1.94,3.22-4.13,6.22-7.36,8.3-2.41-.64-1.59-2.9-1.8-4.31-.61-4.19-3.42-7.84-2.85-12.26Z"/>
        <path class="cls-29" d="m238.58,232.84c5.25-2.25,10.55-2.07,15.36-3.75.55-.19,2.96,1.26,2.95,2.67,0,1.43-.64,3.17-2.44,3.83-5.59,2.05-10.53.45-15.87-2.75Z"/>
        <path class="cls-8" d="m329.52,274.83c-1.05-1.14.23-1.33.02-2.78-.33-2.3,4.25-4.02.14-6.38,1.7.09,4,.03,3.64,1.16-.71,2.23,3.27,5.26-1.15,6.69-.93.3-1.77.87-2.65,1.31,0,0,0,0,0,0Z"/>
        <path class="cls-7" d="m398.72,236.61c.51-.09.81-1.44,1.21-.68.94,1.81-1.06,4.15-3.47,4.31.76-1.21,1.51-2.42,2.27-3.64Z"/>
        <path class="cls-6" d="m380.26,105.52c3.89-4.8,6.61-10.19,9.57-15.49,2.59-4.63,2.74-10.02,5.89-14.44,1.12-1.58,1.85-4.57,1.89-6.75.07-3.97,2.5-7.02,3.05-10.69.16-1.08.7-2.08,1.83-2.05,1.41.04,1.71,1.34,1.7,2.47-.03,6.32.26,12.57-2.57,18.65-1.73,3.73-3.27,7.69-4.44,11.68-2.16,7.29-5.67,13.95-10.34,19.72-3.98,4.92-8.01,10.01-13.19,13.89-.6.45-1.27.87-1.7,1.45-2.64,3.49-6.54,4.73-10.41,6.15-1.35.49-2.11.21-2.89-.77-.75-.94-.31-1.72.03-2.73,1.03-3.03,4.09-4.03,6.19-5.4,7.22-4.71,10.01-11.58,11.08-19.45.81-5.94,3.64-11.28,4.34-17.31.52-4.46.82-8.99,1.57-13.47.9-5.36,1.02-10.95.76-16.4-.38-7.96-.47-15.99-2.23-23.82-.32-1.43-.39-2.57,1.01-3.11,1.32-.5,1.94.7,2.6,1.61,1.68,2.31,2.05,5.21,2.31,7.75.45,4.4,1.22,8.82.91,13.33-.26,3.72-.64,7.45-.03,11.28.5,3.11.2,6.45-.35,9.59-1.14,6.54-1.14,13.2-2.94,19.71-1.32,4.79-2.44,9.71-3.62,14.62Z"/>
        <path class="cls-36" d="m237.23,37.41c1.37,1.03,3.39,1,4.05,3.05,2.06,6.39,6.32,11.63,9.28,17.55,7.54,15.12,18.27,28.13,28.42,41.42,5.56,7.27,11.45,14.56,18.27,20.87.54.5.85,1.01.39,1.56-.63.76-1.2.15-1.91-.16-7.7-3.37-13.12-9.53-18.48-15.56-5.58-6.27-11.16-12.74-15.49-19.88-6.29-10.35-14.15-19.7-18.95-31.08-1.7-4.03-4.02-8.14-6.4-12.02-.94-1.53-.89-3.07-.36-4.66.18-.53.36-1.25,1.18-1.1Z"/>
        <path class="cls-16" d="m183.13,444.54c-2.29,1.55-4.87,1.62-7.49,1.45,1.87-7.63,2.98-15.43,5.99-22.81,1.68-4.12,2.3-8.7,3.98-12.91,2.88-7.23,4.53-14.87,7.55-22.07,1.18-2.8,2.36-5.53,4.06-8.04.56-.83,1.05-1.78,2.28-1.62,1.44.19,1.51,1.43,1.87,2.48.69,2.01.32,4.06-.43,5.8-3.02,7.07-5.31,14.38-7.78,21.65-3.63,10.66-7.14,21.33-9.31,32.4-.24,1.22-1.93,2.15-.72,3.65Z"/>
        <path class="cls-12" d="m408.81,170.43c0,3.74,1.81,4.84,4.3,5.45,3.97.97,5.69,3.81,6.9,7.55,1.45,4.49,1.51,9.04,1.19,13.44-.31,4.15-1.43,8.56-3.94,12.1-2.61,3.68-7.04,2.27-9.5-1.53-4.42-6.83-3.46-14.71-5.14-22.03-.64-2.81-.52-6.45.75-9.71,1.14-2.94-.64-6.23.43-9.42,1.39-4.14,2.69-8.29,5.7-11.55,3.57-3.87,5.59-3.23,7.93,1.42,1.25,2.49,1.69,5.36,3.77,7.55,1.23,1.3,1.84,3.33.05,4.98-1.52,1.41-2.98,1.81-3.99-.56-.79-1.83-1.42-3.74-2.36-5.49-.49-.91-.93-2.31-2.14-2.36-1.37-.06-1.7,1.46-1.99,2.41-.86,2.78-1.45,5.65-1.96,7.75Z"/>
        <path class="cls-23" d="m113.34,498.59c-2.95.97-5.9,1.93-8.84,2.9-.05-1.36-1.38-2.03-1.61-2.69,28.67-20.51,61.19-25.71,95.32-24.47-4.67,2.41-9.79,3.4-14.82,4.72-.82.21-1.64.44-2.46.66-23.93,1.3-46.46,7.6-67.6,18.88Z"/>
        <path class="cls-20" d="m123.63,467.46c5.38-4.48,11.55-7.26,18.25-9.04,13.32-3.54,26.82-6,40.58-6.73,8.94-.48,17.88.13,26.76,1.36,3.54.49,7.05,1.11,10.6,1.54,1.31.16,2.89.44,2.77,1.75-.16,1.85-2.07,1-3.03.83-3.5-.62-7.04-.69-10.53-1.15-15.05-1.98-29.96-1.01-44.96.97-10.8,1.43-21.09,4.64-31.53,7.33-2.99.77-5.62,2.89-8.9,3.16Z"/>
        <path class="cls-30" d="m282.33,434c.88.5,1.81,1,2.82.63,5.64-2.03,11.98-2.31,16.74-6.59.67,1.93,1.03,3.57.32,5.88-.97,3.15-.97,6.66-1.57,10.03-1.83,10.34-2.16,20.88-3.32,31.31-.28,2.56-1.1,5-1.07,7.7.07,6.1-1.99,11.94-2.87,17.93-2.57-2.77-4.61-6.04-7.19-8.73-2.22-2.31-4.39-4.67-6.56-7.03-1.78-1.94-3.55-3.81-4.6-6.28-.27-.63-.83-1.52-1.35-1.59-2.54-.36-2.58-2.25-2.8-4.09,1.47-4.98,3.09-9.93,4.37-14.96,1.95-7.68,3.97-15.33,6.84-22.73.18-.45.17-.98.25-1.47Z"/>
        <path class="cls-18" d="m113.34,498.59c4.14-3.95,9.58-5.71,14.6-7.88,13.01-5.6,26.68-9.1,40.81-10.68,4.07-.45,8.09-1.48,12.19-.33-5.04,2.43-10.62,3.01-15.92,4.56-11,3.23-22.28,5.57-33.11,9.28-6.13,2.1-12.25,3.84-18.57,5.04Z"/>
        <path class="cls-17" d="m377.44,600.75c-2.14-2.55-4.25-5.13-7.04-7.03,0,0,.09-.22.17-.3.08-.08.21-.12.31-.18,3.45.65,7.17-1.12,9.33-4.64,1.56-2.55,3.59-4.57,5.73-6.66,3.87-3.77,7.07-8.22,10.79-12.15,4.3-4.54,7.51-9.92,11.54-14.68,2.24-2.66,4.75-5.71,6.75-8.88,1.54-2.43,2.91-5.12,4.72-7.44,1.19-1.52,2.1-3.9,4.53-2.43,2.46,1.49,1.97,3.93.74,6.04-3.99,6.85-8.06,13.61-13.18,19.76-2.58,3.09-4.7,7.21-7.37,9.71-3.95,3.7-6.63,8.28-10.42,12-3.64,3.57-6.97,7.55-10.17,11.52-1.89,2.35-4.56,3.28-6.43,5.35Z"/>
        <path class="cls-26" d="m358.05,285.34c.74-1.77,1.2-3.55-.32-6.34,1.96,1.5,4.46.63,4.55,2.39.12,2.3-2.08,3.39-4.24,3.94,0,0,0,.01,0,.01Z"/>
        <path class="cls-14" d="m408.69,189.56c.27-2.27.3-3.79.7-5.22.18-.62.07-2.27,1.07-1.77.83.42,2.07-.25,2.57,1.02.54,1.37,2.04,2.83,1.8,3.96-.87,3.96.22,8.04-.99,11.92-.19.6.53,1.6-.75,1.74-1.06.11-1.57-.36-1.82-1.4-.88-3.68-1.83-7.33-2.57-10.25Z"/>
      </g>
    </g>
  </g>
</svg>