<?xml version="1.0" encoding="UTF-8"?>
<svg id="Layer_2" data-name="Layer 2" xmlns="http://www.w3.org/2000/svg" viewBox="0 0 559.8 793.36">
  <defs>
    <style>
      .cls-1 {
        fill: #feeca6;
      }

      .cls-1, .cls-2, .cls-3, .cls-4, .cls-5, .cls-6, .cls-7, .cls-8, .cls-9, .cls-10, .cls-11, .cls-12, .cls-13, .cls-14, .cls-15, .cls-16, .cls-17, .cls-18, .cls-19, .cls-20, .cls-21, .cls-22, .cls-23, .cls-24, .cls-25 {
        stroke-width: 0px;
      }

      .cls-2 {
        fill: #fe8900;
      }

      .cls-3 {
        fill: #fe4e62;
      }

      .cls-4 {
        fill: #fe5063;
      }

      .cls-5 {
        fill: #b91756;
      }

      .cls-6 {
        fill: #febc0c;
      }

      .cls-7 {
        fill: #36294f;
      }

      .cls-8 {
        fill: #feb802;
      }

      .cls-9 {
        fill: #fd4f63;
      }

      .cls-10 {
        fill: #432e68;
      }

      .cls-11 {
        fill: #fe7f82;
      }

      .cls-12 {
        fill: #fee68d;
      }

      .cls-13 {
        fill: #fefdfd;
      }

      .cls-14 {
        fill: #462f69;
      }

      .cls-15 {
        fill: #fdf8f9;
      }

      .cls-16 {
        fill: #fe7e82;
      }

      .cls-17 {
        fill: #fe8800;
      }

      .cls-18 {
        fill: #fed53a;
      }

      .cls-19 {
        fill: #fe8901;
      }

      .cls-20 {
        fill: #feb903;
      }

      .cls-21 {
        fill: #432e69;
      }

      .cls-22 {
        fill: #b91555;
      }

      .cls-23 {
        fill: #fed53b;
      }

      .cls-24 {
        fill: #362950;
      }

      .cls-25 {
        fill: #feb904;
      }
    </style>
  </defs>
  <g id="Phase_1" data-name="Phase 1">
    <g>
      <path class="cls-8" d="m396.01,694.54c1.46,5.49,1.27,11.12,1.4,16.73.08,3.65,1.11,7.17.88,10.92-.62,10.13.82,20.22,1.08,30.35.25,9.81.78,19.62,1.19,29.43.13,3.08-3.14,10.31-4.77,10-3.41-.64-6.7.72-10.08.11-1.2-.22-3.08-1.28-3.38,1.28h-.75c-1.16-1.72-2.99-1.59-4.69-1.58-10.99.03-21.99.15-32.98.18-9.64.03-19.28.13-28.92-.2-8.23-.28-16.47-.06-24.71.03-9.1.1-18.2-.05-27.29-.15-3.71-.04-7.76-.95-11.52.61-1.04.43-1.81-.43-2.6-.96-4.14-2-6-6.28-9.18-9.23-4.57-4.24-8.05-9.47-12.54-13.76-2.44-2.34-4.31-5.13-6.36-7.74-4.59-5.86-9.82-11.14-14.54-16.86-6.2-7.51-12.65-14.79-18.64-22.49-5.04-6.49-9.87-13.24-15.85-19.01-4.78-4.6-8.21-10.35-12.38-15.48-1.98-2.43-4.38-4.41-6.46-6.74-2.69-3.02-5.23-6.04-7.1-9.62-.12-.22-.24-.47-.45-.6-7.39-4.62-11.04-12.66-16.88-18.74-3.53-3.67-7.45-7.39-9.94-12.12,4.58,12.23,8.13,24.75,12.31,37.06,4.83,14.22,8.81,28.71,13.51,42.98.99,3.01,1.38,6.03.95,9.27-.43,3.24.76,6.45,1.34,9.64,1.97,10.84,4.15,21.65,5.35,32.61.57,5.24,1.35,10.46,1.49,15.74.06,2.23-.71,4.02-2.93,4.71-2.58.81-5.06-1.05-5.01-3.91.24-13.79-3.36-27.05-5.29-40.55-.9-6.3-2.61-12.5-2.41-18.95.21-6.73-2.94-12.67-4.77-18.89-2.02-6.86-3.58-13.85-5.84-20.64-1.86-5.59-3.12-11.38-5.47-16.81-1.11-2.56-1.1-5.39-1.8-8.07-2.48-9.46-5.98-18.6-9.02-27.86-2.25-6.86-5.67-13.29-11.56-18.5-4.39-3.88-7.77-9.15-12.05-13.37-3.91-3.86-8.1-7.44-12.96-10.12-1-.55-1.95-1.14-2.83-1.86-3.65-3.01-7.5-5.41-12.52-5.39-1.57,0-3.89.02-3.89-2.55,0-2.33,1.86-3.11,3.75-3.61,1.82-.48,3.69-.75,5.59-.8.63-.02,1.44.35,1.85-.02,4.21-3.8,7.51-.55,10.69,1.55,6.49,4.29,11.87,9.88,17.1,15.59,4.94,5.39,11.43,8.87,16.79,13.73,1.27,1.15,3.06,1.85,3.03,3.97-.71.88-1.64,1-2.94.69,2.62,5.64,6.26,10.03,11.76,12.75,2.85,1.41,4.85,3.94,7.27,5.9,11.1,9.02,22.95,17.04,34.27,25.76,6.45,4.97,12.97,10.04,20.14,14.22,5.52,3.21,10.82,7.05,15.96,11.02,4.41,3.4,9.12,6.59,14.12,9.2,4.59,2.4,8.06,6.29,12.45,8.99,3.38,2.08,6.15,5.01,9.85,6.79,4.89,2.36,8.38,6.7,12.55,10.08,7.79,6.31,16.14,10.96,26.37,11.54.9.05,1.76-.04,2.58-.41,6.43-2.85,13.39-2.84,20.16-3.94,5.85-.95,11.7-2.18,17.49-3.63,4.29-1.07,4.2-.78,4.26,3.55.08,5.73.01,11.5,1.17,17.18.7,3.44.83,6.94.68,10.46-.35,8.65,1.81,17.24.55,25.94-.23,1.63-.06,3.81,2.46,3.89,2.73.08,2.74-1.94,2.77-3.94.16-9.92-.34-19.79-1.65-29.64-1.11-8.3-.73-16.72-1.52-25.07-.39-4.19,3.35-6.05,6.54-7.4,6.78-2.86,13.9-4.9,20.83-7.36,6.09-2.16,12.42-3.91,18.41-6.38,7.4-3.04,15.04-5.54,22.1-9.39,1.1-.6,2.25-1.26,3.43-.1Z"/>
      <path class="cls-23" d="m113.8,613.74c-5.06-4.5-10.05-9.04-16.02-12.43-2.27-1.29-3.58-4.16-5.65-5.93-4.88-4.16-8.47-9.66-14.32-12.87-2.26-1.24-4.02-3.49-6.77-4.02-1.23-.24-2.92-1.66-3.1,1.23-.05.82-1.13.5-1.91.36-3.03-.55-5.93.2-8.75,1.23-1.04.38-1.55,1.2-1.5,2.36.06,1.39,1.32,1.13,1.97,1.2,13.31,1.4,21.84,10.72,31.04,18.83,4.13,3.64,7.31,8.25,11,12.26,3.3,3.58,6.74,6.94,8.93,11.29,3.66,7.26,5.23,15.3,8.08,22.86,2.35,6.25,3.49,12.82,5.51,19.1,2.75,8.58,5.06,17.3,8.08,25.78,1.46,4.1,2.03,8.39,3.38,12.53,1.58,4.85,3.88,9.57,4.49,14.74.25,2.1.83,4.21.76,6.3-.26,7.21,1.86,14.04,3.04,21.03,1.08,6.43,1.61,12.95,2.78,19.36,1.14,6.27,2.15,12.49,1.62,18.9-.2,2.45,2.16,2.28,3.48,2.31,1.82.04,2.96-1.61,2.75-3.31-1.21-10.18-2.05-20.38-3.81-30.54-1.3-7.53-3.42-15.02-3.63-22.77-.24-9.07-2.61-17.71-5.5-26.26-2.29-6.77-4.54-13.58-6.54-20.43-2.84-9.73-6.44-19.2-9.03-29.02-1.71-6.5-4.55-12.71-6.91-19.05-.22-.58-.59-1.12.01-2.08,3.9,2.9,6.45,7.05,9.43,10.62,3.77,4.52,8.33,8.53,11.26,13.54,3.22,5.51,9.17,8.33,12.05,14.35,1.45,3.03,4.49,6.61,8.22,8.43,1.32.64,1.1,2.1,1.95,2.99,5.61,5.93,10.53,12.48,15.75,18.73,7.26,8.69,15.32,16.86,20.97,26.86.89,1.58,2.84,2.05,4.01,3.56,3.66,4.72,7.37,9.45,11.54,13.7,3.38,3.45,6.3,7.18,9.27,10.95,3.81,4.84,7.96,9.41,12.06,14.02,3.75,4.22,8.43,7.57,11.09,12.8.81,1.6,4.01,1.28,3.99,4.02-5.88,1.49-11.83.57-17.76.54-5.66-.02-11.33.03-17,.08-6.92.06-13.84.06-20.76.27-8.56.26-17.11-.15-25.67-.08-5.7.05-11.46-.11-17.18-.04-6.6.09-13.21-.16-19.81-.04-3.01.05-6.54.17-9.95-.55-3.62-.77-8.39.13-12.67.21-8.31.16-16.6-.1-24.91-.39-3.06-.11-6.07.52-9.24.04-5.97-.9-6.76-1.67-7.18-7.93-.3-4.45-.03-8.92-1.57-13.35-1.09-3.14.05-6.76-.56-10.22-.87-4.89-1.52-9.89-1.47-14.84.06-6.32-1.27-12.63.26-19.01.56-2.32-1.26-4.95-.56-7.6,1.27-4.78-.07-9.67.31-14.56.41-5.31,1.24-11.16-1.55-17-1.98-4.14-2.18-9.65-3.48-14.46-1.89-6.98-3.48-14.12-5.8-20.89-2.5-7.3-3.74-14.87-6-22.2-2.38-7.72-4.48-15.61-6.19-23.58-1.06-4.96-1.52-10.3-4.27-14.92-.87-1.46-1.55-3.42-.71-5.32.93-2.09-1.85-2.25-1.96-4.03-.29-4.75-1.42-9.54-2.83-13.93-1.51-4.69-2.2-9.58-3.9-14.24-1.26-3.47-1.33-7.43-2.43-11.08-1.69-5.6-2.13-11.47-4.47-16.98-1.45-3.43-1.16-7.57-2.16-11.24-1.1-4.04-2.26-8.12-3.63-12.02-1.29-3.67-.78-7.48-2.5-11.15-2.4-5.13-4-10.8-4.94-16.41-1.07-6.43-3.15-12.51-5.17-18.61-.72-2.18-.42-4.39-1.08-6.54-.19-.63-.12-2.12.86-2.65,3.53-1.9,1.86-4.72,1.05-7.04-1.71-4.89.81-8.76,2.81-12.6,2-3.83,3.71-7.78,5.59-11.66,2.14-4.43,4.75-8.67,6.54-13.23,1.84-4.66,4.07-9.09,6.37-13.51,2.46-4.73,4.52-9.64,7.56-14.13,1.93-2.85,2.83-6.37,5.1-9.29,2.6-3.34,3.93-7.67,6.51-11.03,3.35-4.38,6.49-8.91,10.44-12.93,3.76-3.82,8.01-6.44,12.6-8.79,1.93-.99,3.16-1.76,2.61-4.48-.53-2.63,1.05-4.75,3.26-6.65,3.86-3.3,6-8.13,9.37-11.89,4.4-4.92,7.84-10.58,12.56-15.27,2.07-2.06,4.08-4.33,5.88-6.58,3.12-3.91,6.68-4.14,10.89-3.41,1.48,1.2,1.11,2.54.29,3.91-1.74,1.99-4.26,1.03-6.39,1.61-5.64,1.56-6.18,6.08-2.9,9.19,5.36,5.07,9.7,11.04,15.16,15.96.49.44,1.08.61,1.68.79,3.51,1.1,5.02,4.49,7.27,6.86,4.89,5.16,9.73,10.44,14.99,15.13,4.16,3.71,7.63,8.06,11.88,11.71,3.53,3.02,6.52,6.88,9.79,10.33,3.32,3.51,6.48,7.2,10.29,10.22,3.03,3.83,6.34,7.42,9.72,10.91,7.51,7.74,14.49,16.01,22.61,23.12,3.92,3.43,7.54,7.22,11.92,10.11,2.31,1.52,3.57,3.91,4.82,6.19,3.73,6.83,8.43,13.01,12.74,19.43,5.23,7.78,10.04,15.87,15.91,23.22.39.49.66,1.07,1.12,1.52.54.53,1.16,1.12,1.95.56.61-.44.33-1.14.16-1.74-.68-2.43-2.23-4.52-2.75-7.01-1.73-8.3-6.11-15.56-9.16-23.34-2.34-5.95-4.55-11.95-6.94-17.88-1.97-4.88-.53-10-.44-14.93.19-9.75.47-19.51.53-29.26.02-3.03.63-5.99.71-9-.44-6.78.13-13.55.17-20.31.04-7.43,1.14-14.85.12-22.33-.41-2.98,1.2-6.02.8-9.21-.23-1.84-.28-3.72-.64-5.56.84-6.04.73-12.04-.63-18.01-.22-.94-.31-1.97.17-2.91.8-.63,1.32-.19,1.79.46,4.13,5.18,10.81,6.25,15.96,9.81.41.28.75.55.84.9.96,3.83,4.35,5.09,7.21,6.9,1.46.83,2.36,2.11,2.92,3.66,3.58,1.98,6.39,4.52,8.77,8.07,2.04,3.04,4.87,5.63,7.13,8.71,3.63,4.94,7.34,9.62,8.4,15.84.42.42.49,1,.09,1.33-2.63,2.14-2.18,4.94-1.49,7.61,2.16,8.38,3.71,16.87,5.21,25.37.42,2.41-.49,3.69-2.37,4.94-5.43,3.61-11.55,6.05-16.76,10.03-7.66,5.86-16.5,9.92-24.15,15.84-2.57,1.99-5.82,2.9-8.71,4.41-1.26.66-2.58,1.43-2.22,3.09.34,1.58,1.85,1.46,3.09,1.54,6.97.42,13.34,3.25,19.97,5.04,2.57.7,3.85,3.92,3.81,7.88-.11,12.91.18,25.83,1.11,38.71.51,7.06,1.11,14.12,1.04,21.2-.03,3.38-1.33,6.62-1.61,10-1.46,1.64-2.95.5-3.91-.38-7.62-6.98-16.53-12.2-24.93-18.06-8.89-6.21-17.59-12.77-27.13-18.05-5.79-3.2-5.95-3.98-4.86-10.59,1.37-8.3,1.57-16.71,2.29-25.07.18-2.06-.72-3.38-2.49-4.19-2.41-1.11-4.88-1.98-7.59-2-9.5-.09-18.94.52-28.41,1.36-7.72.69-15.47,1.5-23.25,1.58-1.53,0-2.97.48-4.44.79-2.64.55-4.56-.39-6.31-2.33-7.27-8.06-15.76-14.62-25.1-20.09-2.5-1.47-5.26-2.33-8.08-3.05-5.33-1.36-9.3-3.86-11.11-9.8-4.23-13.88-10.45-27.08-14.71-40.98-.36-1.19-.87-2.68-2.48-2.21-1.4.41-.86,1.88-.84,2.96.08,3.61,1.76,6.83,2.93,10.08,2.12,5.89,3.31,12.08,5.95,17.79,1.8,3.89,1.94,8.28,3.74,12.22,1.01,2.21-.66,3.15-2.81,3.11-1.8-.04-3.69-.63-5.25.64.09,1.26.95,1.38,1.63,1.55,7.71,1.95,14.53,6.05,21.81,9.03,3.76,1.54,7.8,2.27,11.15,5.03,6.04,4.99,12.69,9.12,17.99,15.11,3.95,4.46,8.72,8.24,12.64,12.8,6.42,6.07,13.42,11.71,18.71,18.72,6.59,8.74,14.99,15.68,21.99,23.99,4.32,5.13,9.41,9.68,14.47,14.16,3.46,3.06,6.18,6.83,9.71,9.86,6.24,5.36,10.73,12.46,17.17,17.71,2.59,2.11,4.32,5.19,6.59,7.71,5.95,6.58,11.5,13.58,16.45,20.84,4.25,6.22,9.2,11.84,13.39,18.05,1.36,2.02,3.03,3.62,4.96,5.01.8,1.78,2.55,2.75,3.68,4.25.8,1.06,1.95,1.03,3.09.66,3.62-1.18,7.2-.78,10.72.36,2.46.79,5.02.18,7.48.63,14.04,2.6,28.25,4.3,42.04,8.15,5.05,1.41,9.75,3.93,15.14,4.31,2.1.15,3.36,1.76,3.78,4.09.81,4.55,3.15,8.19,6.4,11.62,4.68,4.94,8.4,10.73,12.43,16.24,1.69,2.31,3.26,4.72,5.65,6.45.79.57,1.29,1.53,1.87,2.35,4.51,6.43,3.58,8.88-3.96,9.5-13.11,1.07-26.17,2.69-39.28,3.83-4.66.4-9.42,1.4-14.1,1.82-8.71.77-17.37,2.31-26.15,2.34-2.62,0-4.31-1.9-6.51-2.71-7.81-2.86-14.6-7.61-21.89-11.4-8.01-4.16-15.18-9.51-22.86-14.11-4.82-2.89-9.23-6.47-13.91-9.63-9.22-6.22-17.88-13.22-26.98-19.62-8.69-6.11-16.75-13.04-25.24-19.39-6.52-4.88-12.71-10.16-19.33-14.93-9.41-6.78-18.16-14.47-27.5-21.36-8.47-6.25-16.86-12.62-25.35-18.85-6.65-4.88-13.36-9.73-19.96-14.7-6.69-5.04-14.17-8.92-20.83-14.12,2.31,5.11,7.25,7.32,11.33,10.3,9.71,7.09,19.43,14.19,28.94,21.53,5.76,4.44,11.57,8.83,17.35,13.25,8.44,6.45,16.9,12.86,24.99,19.73,5.73,4.87,11.82,9.28,17.67,13.99,9.22,7.43,18.17,15.21,27.56,22.39,8.83,6.76,17.91,13.22,26.82,19.88,5.33,3.98,10.85,7.63,16.31,11.39,8.34,5.74,16.98,11.05,25.43,16.62,8.08,5.32,17.06,8.78,25.37,13.58,3.11,1.8,6.77.88,10.14,1.26,6.07.68,12.16-.37,18.26-.89,10.56-.89,21.08-2.18,31.63-3.13,6.77-.61,13.58-1.79,20.34-2.17,5.98-.34,11.81-2.08,17.86-1.58,1.99.16,3.4.7,4.16,2.55,2.1,5.08,5.34,9.36,9.2,13.2.75.74,1.26,1.57,1.38,2.61.32,2.75,1.63,5.28,3.5,6.96,3.83,3.47,5.92,8.03,8.25,12.35,1.5,2.79,3.54,4.83,5.65,6.95-2.15,1.16-3.88,3.62-6.86,2.23-.14-.85.35-1.42,1.12-2.26-9.89,2.82-19.24,6-28.38,10.08-7.48,3.35-15.34,5.96-23.1,8.72-6.84,2.43-13.62,5.03-20.49,7.36-9.6,3.25-19.26,6.25-29.1,8.77-8.43,2.16-17.07,2.62-25.5,4.4-3.79.8-7.36,2.1-11.4,1.54-3.65-.51-7.05-.97-9.92-3.69-1.86-1.76-4.49-2.56-6.71-3.96-6.91-4.37-12.26-10.6-19.28-14.95-6.21-3.84-11.98-8.63-18.21-12.58-7.08-4.48-13.88-9.35-20.82-14.02-5.38-3.62-10.83-7.19-16.01-11.13-7.38-5.63-15.4-10.42-22.64-16.17-8.34-6.63-17.12-12.66-25.32-19.47-5.28-4.38-10.42-9-16.26-12.7-1.18-.75-2.22-1.64-2.85-2.93Z"/>
      <path class="cls-23" d="m290.31,343.54c1.11-1.59,2.48-1.84,4.41-1.5,6.98,1.21,13.14,4.41,19.1,7.89,7.19,4.21,14.17,8.81,21.03,13.54,6.49,4.47,12.58,9.53,19.1,13.94,6.59,4.46,12.99,9.21,19.72,13.49,4.4,2.79,7.87,7.02,12.16,10.02,6.69,4.68,11.02,11.36,16.02,17.5,3.47,4.26,6.77,8.76,10.85,12.37,2.6,2.3,6.16,3.6,8.93,6.01,5.75,5.01,11.62,9.85,16.84,15.49,5.78,6.25,12.18,11.92,18.15,18,4.02,4.11,7.55,8.71,11.69,12.68,2.28,2.18,4.57,4.54,6.35,6.92,3.61,4.83,7.76,9.2,11.36,14.03,2.82,3.78,6.61,7.21,9.07,11,3.37,5.18,9.46,6.51,12.66,11.55,3.73,5.89,8.58,10.97,11.92,17.24,3.92,7.36,9,14.1,13.03,21.41,2.02,3.66,4.43,7.24,5.31,11.55.31,1.52,1.8,3.11,2.75,4.33,5.05,6.42,7.44,14.14,11.22,21.15,1.85,3.42,3.23,7.05,5.11,10.47,1.08,1.96,1.59,4.37,2.49,6.55,1.02,2.47-1.96,4.73-3.71,6.22-5.43,4.63-10.32,9.82-15.59,14.6-4.67,4.23-8.95,8.91-14.34,12.33-2.46,1.56-4.11,4.51-7.11,5.1-5.53,1.09-11.13,1.8-16.71,2.64-.71.11-1.07-.48-1.39-1.01,1.01-2.27.31-3.65-1.63-5.38-4.79-4.25-11.26-4.65-16.45-7.9-1.43-.9-3.02-1.77-4.74-2.21-4.75-2.85-9.94-4.63-15.13-6.46-3.76-1.33-7.2-3.45-10.83-5.1-9.35-4.26-18.72-8.47-27.85-13.21-9.87-5.12-20.18-9.41-30.02-14.56-10.32-5.4-20.95-10.15-31.14-15.8-2.59-1.43-5.35-2.77-8.23-3.63-8.17-2.44-13.46-8.03-16.92-15.51-1.26-2.73-4.26-4.86-3.23-8.48,1.46-2.05,3.35-1.14,5.14-.71,9.84,2.38,19.73,4.66,29.49,7.26,10.14,2.7,20.45,4.84,30.41,8.31,8.98,3.13,18.33,5.14,27.37,8.14,11.05,3.66,22.49,5.86,33.51,9.76,11.78,4.17,23.72,8.04,35.84,11.29,5.3,1.42,10.34,3.76,15.72,5.14,8.71,2.22,17.3,4.88,27.15,4.67-7.05-2.45-13.56-4.2-20.05-6.05-7.34-2.09-14.6-4.52-21.9-6.76-13.77-4.23-27.27-9.23-41.11-13.29-18.52-5.44-37.15-10.53-55.6-16.28-9.78-3.05-19.88-5.23-29.84-7.76-10.07-2.56-20.31-4.4-30.26-7.45-2.28-.7-4.92-1.44-6.3,1.73-.79.38-1.62.28-1.95-.48-2.01-4.68-5.32-8.66-7.07-13.47-.47-.94-1.01-1.85-1.5-2.78-1.1-1.86-1.31-4.02-2.06-6.01-.78-2.06.36-3.49,2.61-3.42,10.98.33,21.83-1.67,32.8-1.75,2.7-.02,5.46-.21,8.15-.71,4.76.22,9.48-.43,14.23-.62,8.47-.34,16.93-.81,25.38-1.31,14.69-1.38,29.44-.64,44.16-.96,4.59-.1,9.24-.29,13.84.12,1.94.17,3.72.27,3.86-2.21.15-2.54-2.15-2.22-3.54-2.29-7-.35-14.01-.58-21.01-.4-12.12.3-24.26-.12-36.37.79-.87.07-1.76-.03-2.57-.44-1.22-.93-.91-1.89-.08-2.88,4.7-3.76,8.29-8.7,13.1-12.37,3.08-2.35,5.73-5.25,8.92-7.46,2.71-1.88,5.6-3.26,9.09-2.89,1.33.14,3.14.21,3.54-1.4.48-1.92-1.45-2.7-2.76-2.95-3.02-.58-5.8-.45-8.87,1.26-5.48,3.03-9.75,7.34-14.37,11.32-.85.73-1.81,1.74-2.95.88-1.15-.87-.87-2.27-.45-3.49,2.94-8.4,5.58-16.9,9.04-25.11.88-2.09,1.4-4.31,2.34-6.36,1.17-2.58,1-4.93-1.16-6.86-1.91-1.7-6.41-1.93-8.48-.61-4.97,3.18-7.15,8.44-9.19,13.48-2.43,6.02-4.12,12.36-4.17,18.99,0,1.26-.15,2.51-.25,3.76-.08.94-.48,1.76-1.48,1.94-1,.19-1.7-.48-2.09-1.29-.6-1.25-1.2-2.48-2.16-3.51-6.93-13.62-13.97-27.2-22.22-40.08-3.84-5.99-7.81-11.88-11.4-18.04-2.44-4.19-6.15-7.53-8.38-11.96-.72-1.44-1.65-2.72-1.84-4.36-.01-3.02-1.09-5.86-1.65-8.78-.76-3.92-5.27-7.16-9.6-7.52-2.57-.34-3.4-2.63-4.79-4.29-.77-.92-1.56-2.38-2.87-1.87-1.3.5-.09,2.01-.4,3.02-1.02,1.23-2.21,2.33-2.75,3.9-.2.59-.5,1.45-1,1.53-5.04.88-4.73,5.8-6.79,8.91-2.04,3.07-2.77,6.55-3.75,10.09-.93,3.34-3.18,7.09-5.67,9.93-3.8,4.34-6.28,9.45-8.12,14.56-3.95,10.96-10.71,20.42-15.25,31.01-.84,1.96-2.56,3.39-3.48,5.33-2.56,2.08-5.01,4.36-8.47,4.86-1.45-.34-2.14-1.33-2.04-2.74.27-3.85.25-7.69.8-11.55.58-4.04.59-8.24-.36-12.3-.26-1.11-.51-2.19-.53-3.33-.25-14.51-1.35-29-.66-43.52.14-2.94-1.13-4.93-3.83-5.74-3.72-1.11-7.18-3.01-11.11-3.48-1.69-.2-3.3-.85-3.71-2.7-.45-2.03,1.48-2.29,2.68-3.08,8.75-5.82,17.76-11.21,26.01-17.82,3.92-3.14,8.57-5.54,12.96-8.17,4.79-2.87,5.2-3.84,3.69-9.08-2.36-8.18-3.98-16.56-6.65-24.66-.28-.84.03-1.46.8-1.86Z"/>
      <path class="cls-16" d="m236.8,283.81c-.57-.18-1.14-.36-1.71-.53-3.11,1.62-6.46.42-9.52.25-6.2-.35-12.44-1.94-18.62-1.63-6.85.34-13.28-1.84-20.03-2.09-4.17-.16-8.41-2-12.75-2.47-8.95-.97-17.34-3.83-25.84-6.71-5.06-1.72-8.01-4.62-11.24-8.39-6.77-7.9-12.19-16.82-19.24-24.48-1.22-1.33-2.39-2.19-3.73-.87-1.67,1.64-3.4,1.1-5.22.88-1.25-.26-2.05,1.06-3.26.95-2.44-1.17-4.86.84-7.7-.36-2.01-.85-4.25-1.81-5.59-3.09-4.18-4-8.98-7.29-12.63-11.92-6.59-8.36-12.22-17.2-16.15-27.14-1.95-4.94-3.83-9.96-4.53-15.14-1-7.35-1.67-14.91,3.31-21.46,7.24-8.49,19.32-11.04,28.98-6.18,2.7,1.36,3.67,4.01,5.05,6.37,4.09,7.01,7.27,14.56,11.96,21.19,2.25,3.19,2.84,7.18,5.53,10.24.99-3.7.2-7.1-.83-10.48-2.32-7.57-4.14-15.27-6.18-22.91-1.16-4.33.43-7.91,2.81-11.24,1.24-1.74,2.3-3.59,3.54-5.33,1.32-1.86,1.73-3.9,1.16-6.09-1.52-5.83-1.6-11.9-3.05-17.75-.57-2.31-2.48-4.15-2.21-6.72,0-2.66-.39-5.22-1.4-7.72-.85-2.1-1.21-4.37-1.17-6.64.07-4.45,2.27-6.96,6.67-7.56,6.53-.9,12.72-2.69,18.29-6.38,2.86-1.9,6.32-2.36,9.47-3.57,4.81-1.85,9.53-3.85,13.55-7.18,2.94-2.43,3.02-3.25.66-5.63-.66-.67-1.95-1.2-1.17-2.36.63-.93,1.98-.77,2.8-.38,3.91,1.89,8.1,1.4,12.19,1.58,11.07.49,21.69-1.13,31.29-7.12,3.18-1.98,6.12-.08,9.04.62,4.77,1.13,9.41,2.52,14.29.58,3.08-1.23,5.3.69,5.83,3.12.65,3.01,2.62,3.62,4.82,4.45,1.3.49,2.47,1.23,3.64,1.96,3.62,2.08,5.06,5.75,6.68,9.26,4.45,9.64,9.73,18.9,13.08,29.03,1.92,6.25,4.13,12.41,6.75,18.4.61,1.39,1.12,2.74.93,4.28-2.47.29-2.8-2.11-4-3.33-2.6-2.63-5.03-5.27-9.26-4.73-2.2.28-4.16.8-5.69,2.51-.74.83-1.41,1.81-2.69,1.9-3.99.13-5.04,3.46-6.58,6.17-.47.83-.25,2-1.06,2.74-.37.1-.76.11-1.1-.06-1.53-.76-3.09-1.32-4.48.16-1.41,1.5-1.69,3.29-1.03,5.25,3.26,9.74,7.18,19.21,12.03,28.27,1.54,2.89,3.45,5.55,6.02,7.62,1.41,1.14,3.12,1.79,4.92,1.05,1.9-.77,1.63-2.63,1.71-4.23.28-5.53-2.48-10.15-4.58-14.94-.95-2.16-2.02-4.26-2.47-6.6.94-1.87,2.7-1.4,4.27-1.52,1.59-.12,3.18.65,4.88-.37-3.49-2.03-7.52-1.67-11.36-2.2-1.8-1.54-3.08-3.35-2.95-5.87.71-.75,1.64-.99,2.62-1.12,6.08.77,12.21,0,18.3.42,1.93.14,3.05-.72,3.32-2.72.12-.89-.24-2.1,1.15-2.43,3.51,11.92,7.19,23.8,10.18,35.87,1.69,6.84,3.99,13.55,5.31,20.45,1.64,8.6,2.33,17.36,3.22,26.08.84,8.18-1.41,16.14,0,24.41.88,5.12-1.06,10.99-2.72,16.2-1.34,4.2-5.64,6.49-9.2,8.79-6.82,4.38-13.88,8.38-21.28,11.75-4.4,2-8.94,3.48-13.73,3.23-1.77-.09-1.67.87-2.27,1.6Z"/>
      <path class="cls-10" d="m237.51,68.85c-2.27-.91-4.61-1.68-6.8-2.76-2.14-1.05-1.66-3.72-2.93-5.49-1.21-1.69-2.7-1.7-3.59-1.11-4.34,2.88-9.47,1.84-13.02.3-6.21-2.7-11.11-1.53-16.18,1.58-5.17,3.17-11.07,3.24-16.74,4.27-5.11.93-10.28-.14-15.41.12-3.09.16-5.62-2.29-9.12-1.79.64.49,1,.79,1.39,1.05,3.9,2.49,3.91,4.09.43,6.99-5.09,4.22-11.05,6.82-17.2,8.64-6.9,2.04-12.45,7.16-19.72,8.15-.98.13-1.92.54-2.9.62-7.49.66-9.32,3.21-7.79,10.87.67,3.37,2.37,6.53,2.04,10.11-6.95,8.6-15.17,15.65-25.17,20.51-.79.38-1.51.92-2.37,1.13-.89.22-1.82.25-2.45-.5-.54-.65-.24-1.47.11-2.13.9-1.73,1.51-3.62,3.12-5.51-1.15.76-1.59,1.66-2.42,1.89-9.18,2.47-15.89,9.47-24.34,13.28-1.72.78-3.61,1.01-5.36,1.7-2.54-7.75-5.96-15.25-6.96-23.45-.32-2.65-1.47-5.26-.5-7.99.43-1.21-.32-1.63-1.22-2.27-1.97-1.4-3.8-3.03-5.56-4.69-.57-.54-1.34-1.25-1.14-2.25,1.77-8.95,4.05-17.54,9.85-25.11,1.94-2.53,6.3-5.76,3.22-10.72-.9-1.45,1.28-3.17,2.19-4.55,4.68-7.06,10.52-13.4,16.75-18.85,7.68-6.72,15.78-13.46,25.87-16.85,1.1-.37,2,.37,2.76.02,2.53-1.19,7.04.42,6.55-5.25-.19-2.2,3.33-2.67,5.33-3.38,3.99-1.43,7.78-3.38,11.67-4.99,4.69-1.94,9.47-3.1,14.3-4.16,4.2-.93,8.22-2.4,12.34-3.53,6.11-1.68,12.16-3.03,18.78-2.52,4.36.34,8.95-.52,13.55-.13,3.06.26,6.18.51,8.96,1.47,6.36,2.2,13.26,3.04,18.96,7.1.67.48,1.5.63,2.14,1.46,2.13,2.72,4.26,4.49,8.56,4.04,5.03-.52,8.99,3.1,11.54,7.47,2.18,3.73,4.15,7.14,7.86,10.03,4.6,3.59,7.08,9.43,8.15,15.46.77,4.36,3.87,7.83,4.48,12.28.51,3.7,1.42,7.34,2.15,11.01-2.68,1.57-5.04-.28-7.32-1.03-2.34-.77-4.49-1.14-6.84-.53Z"/>
      <path class="cls-8" d="m478.14,643.2c2.64-.01,4.67,1.6,6.89,2.67,2.78,1.34,5.51,2.71,8.56,3.37,3.54.76,5.72,3.75,8.47,5.75,1.15.84.89,3.24-1.32,4.06-4.65.15-8.31-2.55-12.11-4.53-2.63-1.37-5.3-.91-6.82.36-4.28,3.59-9.59,4.99-14.29,7.6-8.14,4.51-17,7.6-25.4,11.66-5.17,2.5-10.63,4.61-16.01,6.65-3.45,1.31-6.66,3.66-10.58,3.74-.6-1.27-2.07-.89-3.08-1.61-2.34-1.67-2.44-4.53-4.11-6.43-2.12-2.42-2.54-6-4.87-8.01-1.93-1.67-3.17-3.63-4.54-5.62-.07-.1-.19-.2-.21-.31-1.81-8.14-10.31-12.3-12.16-20.44-.23-1.01-1.51-1.72-2.4-1.48-4.07,1.13-8.46,1.1-12.42,1.28-5.87.26-11.64,1.94-17.74,1.25-3.18-.36-7.04,1.72-10.67,1.75-5.8.04-11.46,1.82-17.29,1.15-2.6-.3-4.69,1.62-7.28,1.69-8.4.22-16.78,1.95-25.15,1.16-5.53-.52-10.89-1.8-15.84-5.35-3.35-2.4-7.58-4.14-11.54-5.84-4.86-2.09-8.97-5.36-13.4-8.02-5.62-3.37-11.08-7.19-16.53-10.92-8.2-5.61-16.85-10.71-24.37-17.13-5.72-4.88-11.86-9.21-17.85-13.55-7.37-5.34-13.41-12.33-21.47-16.78-2.11-1.16-3.35-3.61-5.5-5.12-5.14-3.62-9.71-8.07-14.93-11.57-3.2-2.15-5.71-4.98-8.78-7.22-4.84-3.54-9.53-7.27-14.27-10.94-8.81-6.83-17.56-13.73-26.4-20.51-7.25-5.56-14.54-11.09-21.91-16.47-4.81-3.52-9.6-7.12-14.51-10.53-2.15-1.5-3.17-3.7-3.69-6.5,4.63,3.04,9.28,6.04,13.88,9.12,5.95,3.99,11.96,7.91,17.76,12.11,6.07,4.4,11.71,9.4,17.93,13.56,5.8,3.88,10.94,8.57,16.7,12.48,4.32,2.94,8.07,6.72,12.45,9.55,4.74,3.06,8.43,7.33,13.47,10.19,3.37,1.91,6.57,5.01,9.8,7.62,6.88,5.57,13.84,11.05,20.71,16.62,3.53,2.86,7.73,4.98,10.93,8.02,6.53,6.22,14.54,10.3,21.42,16.01,6.08,5.05,13.05,9.11,19.55,13.66,4.41,3.09,8.94,6.22,13.44,9.14,4.56,2.96,9.13,6.08,14.21,8.47,4.62,2.17,9.04,5.29,13.58,7.93,2.57,1.49,5.34,2.91,8.2,3.57,2.61.6,3.83,3.57,6.96,3.17,4.83-.61,9.8-.34,14.58-1.17,8.34-1.45,16.81-2.15,25.16-3.01,9.36-.96,18.75-2.36,28.22-2.61,5.2-.14,10.37-1.19,15.57-1.61,4.14-.34,1.83-3.77,1.39-4.24-1.95-2.03-2.82-4.69-5.34-6.67-2.97-2.34-5.27-6.43-7.71-9.88-1.38-1.95-2.76-3.91-4.06-5.91-2.87-4.41-7.39-7.52-9.67-12.4-.8-1.72-1.83-3.44-1.72-5.3.16-2.76-1.79-4.01-3.59-3.94-6.09.26-11.12-3.03-16.62-4.58-7.97-2.25-16.16-3.03-24.2-4.74-4.52-.96-9.07-1.8-13.64-2.48-5.58-.83-11.19-1.45-16.79-2.13-.49-.06-1.01.01-1.49.13-5.2,1.22-6.66.48-9.12-4.66.58-.95,1.33-2.35,2.41-1.79,2.03,1.04,2.03-.92,2.92-1.53,2.29-1.35,4.37.29,6.54.5,18.38,1.78,36.46,5.38,54.5,9.2,1.83.39,3.45,1.53,5.41,1.37,2.47.53,4.97.98,6.32,3.55.22.42-.2.12.25.26,5.89,1.84,8.85,7.6,14.19,10.42,5.2,2.75,10.47,5.36,15.68,8.09,8.73,4.58,17.66,8.75,26.52,13.06,7.98,3.89,15.69,8.32,23.72,12.08,4.73,2.21,9.5,4.38,14.33,6.41,3.37,1.42,6.42,3.81,9.94,5.11,6.1,2.25,11.56,5.89,17.92,7.65,3.07.85,5.78,2.96,8.72,4.37,1.79.86,3.53,1.8,5.52,2.13.02-2.17-1.1-4.06-1.29-6.15Z"/>
      <path class="cls-3" d="m105.62,238.7c.88-.69,1.12-2.7,2.95-1.44,2.76,5.7,7.59,9.5,12.2,13.57,2.23,1.97,4.05,4.45,5.93,6.75,5.48,6.69,12.52,12.04,17.46,18.98,3.27,4.59,7.88,7.63,11.16,12.23,2.55,3.58,6.07,7.07,9.39,10.38,3.71,3.7,7.14,7.71,10.15,12.03.22.31.4.69.71.88,4.58,2.73,7.5,7.24,10.19,11.4,3.04,4.71,8.07,7.36,10.78,12.34,1.21,2.22,3.89,3.86,5.47,6.22.66.98,1.56-.97,2.76-.55,2.39.83,5.02.14,7.44.83,7.79,2.2,14.73-4.78,15.94-11.42,1.21-6.67,3.8-12.98,5.14-19.6.52-2.56.34-5.26,2.76-7.02,1.21,3.29,1.64,6.86.91,10.1-.99,4.42-.03,8.77-.53,13.15-.61,5.36.1,10.8-.84,16.22-.32,1.87.17,4.11.18,6.19.01,3.84-.04,7.68-.07,11.52-1.25,1.4-2.5,2.95-3.27,4.54-4.75,9.72-13.52,10.61-22.64,10.48-6.88-.09-13.84-.2-20.62-1.29-5.97-.96-12.17-1.69-17.44-5.21-4.6-2.07-6.95-6.62-10.63-9.72-4.5-3.79-7.42-9.16-12.57-12.45-2.46-1.58-3.08-5.26-5.84-6.96-4.76-2.94-7.59-7.93-11.76-11.4-4.82-4.01-7.92-9.69-13.26-13.09-3.56-2.9-5.89-6.48-5.9-11.23,0-5.89-1.26-11.66-1.58-17.51.2-1.18.36-2.37-.11-3.53.47-1.11.75-2.21.39-3.45-1.68-5.8-1.7-11.76-2.07-17.73-.18-2.92.7-6.11-1.45-9-.85-1.14-.14-3.49-.01-5.28.23-3.4-1.01-6.59-1.3-9.91Z"/>
      <path class="cls-17" d="m113.8,613.74c3.69,2.09,7.03,4.66,10.31,7.35,5.99,4.9,12.22,9.5,18.33,14.25,5.97,4.65,11.72,9.61,17.93,13.92,9.39,6.52,18.53,13.38,27.94,19.85,3.48,2.39,6.98,4.83,10.75,6.9,2.84,1.56,5.64,3.72,8.14,5.9,2.63,2.29,5.72,3.7,8.47,5.71,6.23,4.56,13.27,8.02,18.91,13.36,2.08,1.96,4.83,2.29,6.93,4.21,5.36,4.89,10.67,10.02,17.04,13.51,3.16,1.73,5.65,4.73,9.5,5.25,3.74.5,7.61,1.4,11.17.05,4.09-1.56,8.36-2.01,12.54-2.53,5.52-.69,10.84-2.23,16.24-3.07,9.31-1.45,17.74-5.59,26.86-7.45,3.2-.66,6.2-2.3,9.3-3.46,5.3-1.99,10.71-3.73,15.89-5.99,5.24-2.28,10.74-3.8,16.01-6.1,6.32-2.76,12.79-5.48,19.42-7.63,4.54-1.47,9.1-2.92,13.64-4.38.78-.25,1.47-.2,2.33.8-.92.83-1.86,1.69-2.81,2.56-2.81,1.62-5.64,3.19-8.42,4.86-1.47.89-2.83,1.95-4.23,2.93-.73.1-1.61-.03-2.17.34-5.33,3.47-11.68,4.63-17.18,7.45-6.08,3.11-12.46,5.64-18.8,7.35-6.84,1.84-12.94,5.59-20.09,6.63-3.25.47-6.96,1.9-9.77,4.29-1.85,1.57-3,3.49-2.38,6.17,1.02,4.41.56,8.93.8,13.4.3,5.67,1.3,11.31,1.57,16.98.37,7.73,1.29,15.45.89,23.23-.13,2.57-.53,4.42-3.35,4.62-3.29.23-4.42-2.64-4.01-4.68,2-9.95-1.2-19.79-.16-29.76.43-4.11-1.37-8.59-1.5-12.98-.13-4.29-1.32-8.56-.24-12.88.42-1.68-.38-2.07-1.8-1.5-5.41,2.14-11.46,1.56-16.8,4.21-2.07,1.03-4.72.03-7.2.48-5.44.99-10.8,1.86-16.17,3.5-4.27,1.3-9.35-.06-13.76-2.18-4.57-2.2-9.35-4.18-13.12-7.53-2.73-2.43-5.88-4.34-8.4-7.03-2.32-2.47-4.91-4.4-8.3-5.57-2.42-.84-4.29-3.25-6.46-4.88-3.72-2.81-7.4-5.69-11.25-8.32-4.03-2.76-8.21-5.31-12.24-8.07-6.26-4.29-12.49-8.64-18.67-13.06-3.11-2.23-6.95-3.08-9.67-6.21-3.99-4.6-9.91-6.85-14.6-10.79-5.07-4.27-10.73-7.96-16.06-11.96-7.08-5.32-14.74-9.98-20.8-16.59-.63-.69-1.49-.85-2.26-1.24-5.9-2.99-9.65-7.87-12.5-14.39,1.76.21,3.03.66,4.24.18Z"/>
      <path class="cls-7" d="m51.09,140.78c.81-3.26,4.17-2.12,6.15-3.11,5.94-2.98,10.92-7.39,16.8-10.35,3.15-1.58,7.28-1.36,9.27-5.12.22-.41.92-.17,1.27.28.61.79.25,1.45-.41,1.92-2.34,1.64-2.26,4.61-4.16,6.83.86.11,1.44.39,1.78.21,5.93-3.17,11.77-6.38,17.02-10.74,3.92-3.25,6.51-7.88,11.15-10.29-.59,3.27,1.86,5.72,2.63,8.63,1.53,5.8,1.07,11.83,2.94,17.5,1.17,3.55-1.62,6.14-3.45,8.16-5.83,6.43-4.95,13.09-2.45,20.41,1.87,5.47,3.03,11.17,4.84,16.69,1.3,3.96,1,8.06-.44,12.66-3.86-9.42-9.39-17.4-13.92-25.94-2.31-4.36-3.91-9.52-7.32-12.88-3.26-3.22-8.28-4.67-13.28-3.83-5.9.99-11.48,2.77-15.77,7.32-.3.31-.93.31-1.4.45-5.66-5.13-8.85-11.73-11.24-18.81Z"/>
      <path class="cls-25" d="m290.31,343.54c1.03,4.25,1.97,8.53,3.1,12.76,1.5,5.58,3.34,11.08,4.67,16.71,1.04,4.4-3.11,5.5-5.63,7.36-5.07,3.73-10.78,6.45-15.8,10.36-6.03,4.7-12.3,9.19-19.16,12.7-1.82.93-2.9,3.05-5.28,3.12-.54.01-1.05.75-.82,1.47.28.88.96,1.66,1.82,1.75,4.09.46,7.78,2.18,11.64,3.38,4.24,1.31,6.13,2.87,5.64,7.25-1.22,10.8.12,21.59.02,32.38-.07,7.27.84,14.75,1.64,22.11.57,5.22-1.32,10.28-1.04,15.51.07,1.27,0,2.11,1.13,2.72-1.73,2.48-5.19,3.13-7.53,1.43-1.07-3.29.68-6.31,1.06-9.44.41-3.42.3-6.63-.84-9.84-.04-.12-.14-.25-.11-.35,1.56-6.12-.67-12.09-.65-18.13,0-3.08-.19-6.14-.27-9.21-.12-4.67-1.21-9.48-.4-13.96.72-3.96-.53-7.57-.23-11.36.32-4.04-2.88-4.32-5.81-5.27-6.15-1.98-12.19-4.25-18.77-4.2-1.76.01-2.09-1.33-2.37-2.43-.49-1.93,1.13-3.32,2.39-3.76,7.56-2.68,13.39-8.17,20.21-11.97,9.04-5.03,16.95-11.85,26.36-16.21,1.56-.72,2.57-2.21,4.4-2.56,1.12-.21,1.93-1.45,1.64-2.64-2.18-8.84-3-17.97-5.77-26.71-1.01-3.19-.66-6.53,2.49-8.81,2.72,1.18-.39,4.64,2.27,5.84Z"/>
      <path class="cls-21" d="m243.87,125.33c1.74-2.24,3.74-3.91,6.67-4.7,4.88-1.33,7.99,1.14,10.94,4.28,1.35,1.44,2.57,3.01,3.86,4.51.65,2,1.3,3.99,1.95,5.99-.54.97-.07,1.94-.03,2.92.07,2.01-1.52,3.79-2.92,3.5-6.14-1.26-12.31.59-18.39-.61-.46-.09-.89-.35-1.34-.53-4.9-3.16-5.33-12.1-.73-15.36Z"/>
      <path class="cls-7" d="m237.51,68.85c.54-1.35,4.26-1.97,6.09-.92,2.51,1.44,5.25,2.07,8.06,2.49,3.54,11.85,6.77,23.76,5.99,36.33-3.3-4.39-4.58-9.78-7.12-14.55-3.42-6.42-5.95-13.28-9.67-19.58-.93-1.58-2.74-2.09-3.35-3.76Z"/>
      <path class="cls-1" d="m263.74,305.09c-1.17-1.06-2.23-2.21-2.92-3.66,2.28-1.43,1.72,1.88,3.15,1.88,1.07-.94-.95-2.75.94-3.39.28-.1,1.08.39,1.12.69.25,1.59.64,3.3-1.19,4.31-.3.17-.73.12-1.1.16Z"/>
      <path class="cls-2" d="m338.99,771.99c.14-4.55,2.89-8.3,6.15-7.62,2.11.44,4.58-2.35,4.77-1.04.48,3.31,4.58,3.82,4.51,7.12-.09,4.58-4.4,9.49-8.22,9.23-4.83-.33-7.35-3.02-7.21-7.69Z"/>
      <path class="cls-2" d="m341.72,733.15c-2.25.62-4.24-.33-5.56-1.82-2.44-2.76-2.08-5.87-.14-8.9,2.88-4.51,11.31-4.69,13.98-.05,1.21,2.09.47,4.3-1.14,6.45-1.9,2.53-3.3,5.25-7.14,4.32Z"/>
      <path class="cls-17" d="m264.7,494.55c2.75.78,5.16-.24,7.53-1.43,2.75-1.55,5.51-3.11,8.26-4.67,2.68-3.02,6.4-4.46,9.86-6.18,8.05-4,16.44-7.27,24.55-11.18,9.6-4.63,19.84-7.62,30.15-10.27,4.49-1.15,9.02-2.13,13.62-2.76,2.24-.3,2.31-1.19,1.24-3.01-7.56-12.91-16.65-24.84-24.05-37.87-2.09-3.67-5.12-6.8-7.24-10.51-.64-1.11-1.07-2.23-1.32-3.45-.8-1.34-1.88-3.13-.33-4.06,1.33-.8,2.95.47,4.02,1.81,1.45,1.81,2.36,4.1,4.57,5.25,4.6,5.12,9.01,10.38,12.03,16.64,2.18,4.01,4.03,8.23,7.12,11.66,1.85,2.05,3.12,4.43,4.5,6.79,3.07,5.24,6.5,10.27,9.92,15.29,6.43,9.46,11.36,19.76,16.9,29.72,1.91,3.43,4.23,6.65,5.34,10.49,1.24,6.08,5.7,10.62,7.78,16.3.21.58.89.86,1.33,1.3.5.5.88,1.08,1.25,1.67.53,1.39,1.45,2.61,1.74,4.1-.29.77-1.27,1.51-.08,2.32,1.05,2.08,2.94,3.96,1.55,6.62-10.4,1.15-20.88,1.01-31.3,1.88-2.68.23-5.89,1.62-8.66-.33-3.55-.93-7.1.57-10.67,0-1.27-.2-3.15.62-3.55-.99-.44-1.81,1.57-2.19,2.85-2.85.33-.17.69-.28,1.02-.44,2.28-1.78,5.04-.94,7.54-1.42,8.16-1.56,16.41-1.78,24.65-2.14,1.92-.08,3.6-1.07,5.52-1.1,1.66-.03,1.04-1.27,1-2.22-.12-3.28-2.17-5.87-3.31-8.74-2.97-7.46-7.67-14.09-11.1-21.36-.86-1.82-2.47-1.35-3.95-.9-10.56,3.18-21.32,5.72-31.63,9.67-14.39,5.51-28.97,10.55-42.56,18-4.09,2.24-7.81,5.02-11.82,7.38-1.71,1.01-1.98,2.51-.93,4.19,3.08,4.95,4.77,10.45,6.51,15.95-.37,3.21-2.43,3.48-5,2.9-4.42-2.31-5.24-7.15-7.31-10.98-4.77-8.85-3.3-7.75-11.12-4.55-5.41,2.21-11.05,3.98-16.15,6.94-1.46.85-3.15.58-4.76,1.04,1.59,3.38,4.32,5.81,6.5,8.64,2.96,3.85,6.14,7.53,8.25,11.94.75,1.56,2.19,2.36,3.47,3.34-.91,1.7,2.08.99,1.52,2.47-.49,1.1,0,3.38-2.54,1.9-1.24-.72-1.81,1.02-2.89,1.13-3.86-1.11-5.26-4.82-7.22-7.59-3.58-5.07-7.77-9.66-11.11-15.02-2.69-4.31-6.03-8.7-9.57-12.68-4.09-4.58-7.55-9.79-11.99-13.98-5.82-5.49-10.5-11.99-16.52-17.28-4.23-3.72-7.86-8.13-11.84-12.16-6.28-6.36-13.08-12.16-18.72-19.21-2.45-3.07-5.65-5.73-8.54-8.55-3.28-3.19-5.78-7.09-8.84-10.26-3.1-3.21-6.15-6.71-9.67-9.69-3.35-2.83-6.51-6.16-9.53-9.5-3.35-6.77-2.21-11.09,3.75-14.22,9.1-.67,18.2-1.26,27.29-2.05,5.02-.43,10.26-1.76,15-1.16,5.51.69,11.31-1.04,16.66,1.95,2.75,1.53,3.99,2.9,3.74,6.27-.68,9.42-1.44,18.83-2.67,28.18-.32,2.4.55,3.38,2.29,4.44,4.91,2.98,9.84,5.95,14.62,9.14,10.89,7.27,21.39,15.1,32.38,22.23,2.15,1.39,4.22,3.38,6.21,5.23,1.2,1.12,2.39,2.59,4.42,1.96Z"/>
      <path class="cls-5" d="m236.06,304.28c-2.36,7.96-3.82,16.16-6.67,23.99-.52,1.42-.26,2.93-.67,4.42-1.46,5.29-8.42,11.95-13.49,11.15-3.25-.51-6.57-.43-9.77-1.22-.48-.12-.96-.49-1.41-.43-2.82.34-3.74-.21-5.01-3.19-.04-.09.04-.33.03-.33-5.22-.81-4.65-7.98-9.87-9-.95-.19-1.76-2.04-2.28-3.27-.98-2.31-2.98-3.54-4.75-5.04-.08-.07-.33-.07-.33-.11-.29-6.09-6.97-6.98-9.44-11.69-2.54-4.87-7.32-8.55-11.03-12.83-1.17-1.35-3.14-2.13-3.22-4.37-.03-.79-.61-1.22-1.6-1.1-1.67.21-3.01-1.22-2.97-2.29.13-3.52-2.68-3.92-4.72-5.23-.85-.54-1.98-1.08-2.33-1.9-2.65-6.09-8.39-9.39-12.36-14.19-4.3-5.2-8.8-10.36-13.35-15.2-2.74-2.91-4.95-7.07-9.35-8.69-2.6-.96-2.51-4.04-2.89-6.49,2.57.4,4.49-1.07,6.58-2.16,1.15-.6,2.13-.02,2.93.98,6.76,8.42,12.64,17.52,19.97,25.51,1.36,1.49,2.23,3.47,3.65,5.07,2.79,3.16,7.07,2.26,10.28,4.35,4.19,2.73,9.42,2.96,14.11,4.32,4.38,1.27,9.38,1.68,14.18,1.65.22,0,.51-.2.64-.11,5.37,3.76,11.94,1.73,17.85,3.66,3.99,1.31,9.08.34,13.67.76,4.13.38,8.23,1.29,12.35,1.33,3.47.03,6.88.3,10.31.65,1.57,6.94,2.9,13.9.96,21Z"/>
      <path class="cls-21" d="m171.73,369.98c4.04.03,7.57,2.21,11.38,3.15,3.75.92,7.61,1.48,11.26,1.74,9.09.64,18.3,1.36,27.39-.16,4.41-.74,6.66-4.67,8.88-7.96,1.36-2,3.63-3.38,4.22-5.9.28.21.56.42.83.62-.61,4.85-.98,9.88-.65,14.58.6,8.53-1.47,16.98-.04,25.45.2,1.18.2,2.81-.11,3.59-2.13,5.31.21,9.8,2.07,14.42,3.18,7.92,5.87,16.07,9.65,23.69,3.26,6.57,4.01,13.94,7.56,20.33.44.8,1.08,1.99-.31,2.56-1.2.5-2.5.42-3.34-.81-3.01-4.43-6.57-8.45-9.33-13.08-2.65-4.43-5.65-8.66-8.53-12.95-3.61-5.38-7.42-10.62-10.83-16.12-2.35-3.79-4.55-7.24-8.38-10.09-4.17-3.1-8.2-6.73-11.89-10.55-7.17-7.4-14.39-14.76-21.34-22.37-2.96-3.25-6.92-5.72-8.5-10.14Z"/>
      <path class="cls-8" d="m144.74,418.35c-5.06,3.73-5.24,8.76-3.75,14.22-5.55-5.64-10.85-11.57-16.73-16.84-5.48-4.91-11.23-9.73-17.57-13.34-2.85-1.63-6.84-2.19-9.98-3.81-3.48-1.8-7.36-2.55-10.7-4.87-2.4-1.66-5.73-2.08-8.71-2.75-1.56-.35-2.83-1.21-2.85-2.46-.02-1.32,1.7-1.54,2.9-1.85.24-.06.52.02.75-.05,1.86-.56,4.23,1.57,5.53-.37,1.12-1.67-1.27-3.17-1.58-5.03-.74-4.53-3.02-8.69-4.09-13.08-2-8.25-6.41-15.74-7.25-24.32-.18-1.85-.17-3.52,1.85-3.77,1.81-.23,3,1.38,3.41,2.96,1.74,6.76,4.57,13.13,6.86,19.69,2.89,8.28,6.38,16.34,8.9,24.77,1.07,3.6,4.8,5.48,8.4,6.13,8.89,1.61,15.4,7.17,22.33,12.29,3.74,2.76,6.89,6.05,10.33,9.07.37.33,1.02.5,1.18.9,1.77,4.3,5.07,3.81,8.57,2.84.71-.2,1.47-.21,2.2-.31Z"/>
      <path class="cls-20" d="m110.19,287.61c2.49,3.13,1.81,7.07,2.05,10.51.46,6.6.62,13.03,5.44,18.22-2.43.13-2.67-2.38-4.12-3.4-5.16-3.63-8.17-9.3-12.82-13.46-1.48-1.32-3.69-3.3-2.34-6.19,1.65-3.54,4.6-5.48,8.63-5.09,1.24.12,2.18-.07,3.17-.6Z"/>
      <path class="cls-8" d="m327.3,403.23c6.87,9.94,13.34,20.14,19.84,30.33,2.93,4.59,5.93,9.2,9.31,13.56,2.09,2.69,3.38,6.18,5.23,9.21,1.74,2.85-1.44,2.45-2.44,2.59-5.52.75-10.91,1.97-16.28,3.39-9.35,2.48-18.75,5.15-27.35,9.42-7.5,3.73-15.27,6.86-22.8,10.48-4.15,1.99-7.66,5.3-12.31,6.24-.45-2.71,2.33-3.64,3.16-5.73,2.86-7.25,7.29-13.75,10.48-20.88,1.21-2.71,3.31-4.96,3.82-8.14.54-3.37,2.64-6.18,4.31-9.09,3.23-5.65,6.39-11.35,10.38-16.53.78-1.01-.3-1.87-.27-2.91.11-4.55,4.34-6.94,5.32-11.02.27-1.15,1.14-2.37,1.56-3.68.38-1.17.71-2.97,2.77-1.96,1.17.58,1.73-.13,1.85-1.05.28-2.16,2-3.06,3.43-4.24Z"/>
      <path class="cls-19" d="m355.18,527.01c-1.1,1.14-3.12.86-4.53,3.29,3.99-1.42,7.3.42,10.7-.7,1.32-.43,3.01-1.21,3.63,1.09-2.56,1.84-5.56.81-8.3,1.02-7.1.53-14.2,1.23-21.3,1.55-3.4.15-6.84.87-10.34.31-2.19-.35-4.1.11-2.39,3.23.86,1.59,1.13,3.5,1.67,5.26-2.19.59-2.39-1.74-3.9-2.26,1.75,1.58,1.78,4.88,5.24,4.74,2.48,4.45,5.21,8.76,7.13,13.51.13.32.83.42,1.26.62.66.62.55,1.47.67,2.26,2.55,6.87,6.09,13.15,11.33,18.32,1.47,1.45,3.39,2.74,5.33,3.37,11.03,3.56,20.93,9.6,31.21,14.69,7.91,3.91,15.7,8.48,23.7,11.96,10.98,4.77,21.36,10.73,32.31,15.54,6.03,2.65,12.31,5.17,18.11,8.69,5.41,3.29,11.87,4.86,17.92,7.05,1.53.55,2.39,1.72,3.51,2.67,2.79,1.87.98,5.73,4.06,7.85-4.91-.61-8.55-2.78-12.19-4.62-9.53-4.8-19.61-8.33-29.1-13.21-9.71-4.98-19.79-9.24-29.54-14.15-5.38-2.7-10.78-5.36-16.15-8.03-10.24-5.08-20.45-10.2-30.75-15.17-5.88-2.84-11.91-6.32-16.27-11.01-2.43-2.62-6.88-2.33-7.93-6.51-.27-1.09-3.01-.41-4.19-1.68-2.04-.12-2.9-1.46-3.74-3.15-3.37-6.81-5.95-13.99-9.51-20.7-2.56-4.83-4.8-9.8-6.94-14.83-.58-5.51,1.74-8.85,7.01-9.94,1.28-.27,2.74-.71,3.76.72q-.57,1.94,3.19,1.82c-1.1.19-1.77-.19-2.17-1.09.03-2.34,1.99-2.3,3.46-2.62,4.1-.9,8.23-1.47,12.14.82.07.69-.29,1.14-.87,1.52,1.07.44,2.18.17,3.36.29-.52-.64-1.56-.88-1.36-1.91,2.63-2.68,7.87-2.96,10.75-.58Z"/>
      <path class="cls-25" d="m334.71,560.93c-1.96-.24-.33-1.54-.67-2.26.26-2.49,2.99-4.15,5.65-2.92,4.76,2.2,9.92,2.48,14.88,3.71,7.99,1.98,15.86,4.53,23.91,6.18,7.07,1.45,13.95,3.59,20.93,5.32,6.4,1.58,12.66,3.93,19.04,5.76,5.19,1.49,10.32,3.17,15.68,4.1,3.47.6,6.75,2.13,10.13,3.18,7.26,2.25,14.59,4.25,21.87,6.44,4.35,1.31,8.62,2.92,12.94,4.34,5.06,1.66,10.1,3.38,15.22,4.83,1.25.35,2.22,1.11,3.36,1.48,6.99,2.25,13.93,4.7,21.04,6.48,6.95,1.73,13.68,4.17,20.63,5.88.93.23,1.35.68,1.27,1.49-.12,1.27-1.15,1.09-2.02,1.02-6.93-.57-13.7-1.94-20.51-3.4-9.92-2.13-19.21-6.1-28.94-8.73-9.51-2.57-18.85-5.85-28.18-8.99-7.1-2.39-14.17-4.76-21.46-6.43-6.34-1.46-12.61-3.32-18.75-5.28-8.43-2.7-17.05-4.75-25.37-7.83-8.28-3.07-17.1-4.26-25.53-7.02-5.17-1.69-11.01-1.92-16.26-3.69-4.91-1.66-10.17-1.71-14.93-3.74-1.37-.59-2.64-.69-3.93.11Z"/>
      <path class="cls-25" d="m400.37,514.95c-1.35-.19-2.61-.92-2.67-2.21-.16-3.35-2.98-5.01-4.27-7.56-1.26-2.49-1.42-5.55-2.06-8.35.9,1,1.85,1.92,1.93,3.46.03.69.81,1.48,1.58,1.34.85-.15.73-.98.71-1.81-.12-7.8,1.37-15.41,4.28-22.56,2.17-5.34,4.51-10.87,9.77-14.27,1.98-1.28,7.74-1.25,9.42.54,2.05,2.18,2.94,4.52,1.74,7.84-3.27,9.06-7.73,17.7-9.65,27.24-.5,2.49-2.92,4.42-2.31,7.34,2.35.22,2.84-1.97,4.01-3.03,4.19-3.79,8.84-6.96,13.2-10.51,1.84-1.49,10.27-.66,12.06,1.13.71.71,1.34,1.56.96,2.66-.47,1.36-1.68,2.14-2.91,2-9.12-1.02-14.01,5.7-19.9,10.64-3.99,3.35-7.68,6.98-11.04,10.96-.31.37-1.16.28-1.77.4-2.53-.22-1.4-2.64-2.3-3.84-.52-5.19.21-10.23,1.75-15.19,2.45-7.91,4.94-15.79,8.1-23.46.73-1.76,1.88-3.27,2.52-5.03.46-1.25,1.39-2.82-.08-3.78-1.63-1.06-2.78.28-3.71,1.54-1.65,2.24-2.74,4.79-3.88,7.31-3.85,8.51-5.14,17.47-5.1,26.74.02,3.47.54,7-.41,10.45Z"/>
      <path class="cls-25" d="m404.95,529.14c-.52-2.21-1.03-4.41-1.55-6.62,6.45-.85,13.03-.97,19.44-1.02,7.07-.06,14.19-.09,21.3-.04,6.79.04,13.58.38,20.36.69,2.88.13,3.79,1.81,3.01,4.51-.45,1.56-1.52,2.22-3.09,2.06-8.25-.82-16.53-.39-24.79-.46-6-.05-12,.09-18.01.03-5.55-.06-11.11.55-16.67.86Z"/>
      <path class="cls-6" d="m347.59,422.87c-2.75-.52-2.17-3.5-3.71-5.01-2.64-2.59-4.08-6.18-7-8.62-.75-.63-.9-1.99-1.32-3.01,1.93-2.31,2.93.24,4.35.79,3.35,1.27,5.98,3.66,6.43,6.99.4,2.94,1.88,5.78,1.25,8.86Z"/>
      <path class="cls-17" d="m325.65,544.54c-1.07,1.27-2.08,2.03-3.12-.08-.66-1.34-1.66-2.39-2.85-3.35-1.1-.89-1.17-2.45-.07-3.21,1.19-.82,2.03.25,2.35,1.47.35,1.3,1.17,2.14,2.35,2.69.85.61,1.03,1.58,1.34,2.48Z"/>
      <path class="cls-12" d="m431.19,454.82c1.41,1.16,2.84,2.29,4.23,3.48.41.36,1.13.8.35,1.45-.48.4-1.04.67-1.7.24-1.74-1.14-2.69-2.81-2.88-5.18Z"/>
      <path class="cls-21" d="m182.88,122.46c6.22-3.95,12.72-3.84,19.45-1.47,2.34.82,4.09,2.06,5.36,4.24,2.48,4.26,4.13,8.83,5.32,13.57.89,3.55-.75,5.15-4.47,5.05-2.58-.07-5.23.05-7.76.55-5.36,1.06-10.75.54-16.12.61-7.46-3.04-8.81-14.89-4.03-21.38.61-.83,1.52-.73,2.24-1.17Z"/>
      <path class="cls-4" d="m70.37,178.81c-4.6-4.8-1.99-14.21,3.42-15.66,1.97-.53,3.43-.1,4.88.84,3.18,2.06,6.11,4.36,8.12,7.72,1.52,2.55,3.51,4.79,5.4,7.1,2.29,2.8,3.32,6.6,5.29,9.72,3.34,5.3,5.81,11.02,8.47,16.64,1.51,3.2,2.51,6.97,1.7,10.46-1.28,5.51-8.54,8.06-13.18,4.75-6.38-4.54-11.12-10.23-13.39-18.1-1.92-6.67-1.67-13.04-.1-19.58.17-.71.24-1.36.66-2.05.73-1.23,4.02-.74,2.66-3.04-2.39-4.01-4.43-8.7-9.95-9.43-1.27-.17-1.69,1.01-2.23,2.1-1.3,2.64-.2,5.7-1.73,8.52Z"/>
      <path class="cls-22" d="m241.99,141.28c1.01,1.79,2.01,3.58,3.02,5.37.94,1.42,2.71,2.4,2.37,4.49,2.92,5.28,5.24,10.81,7.07,16.56.45,1.42.7,2.79.55,4.35-.22,2.26.82,4.96-2.24,5.99-2.99,1.01-5.64-.3-7.38-2.5-2.58-3.26-4.92-6.67-6.53-10.68-1.88-4.68-4.86-8.88-6.47-13.77-1.26-3.82-2.46-7.68-4.12-11.39-.94-2.09.05-4.93,1.71-6.25,1.75-1.39,4.21-.43,6.11.95,2.4,1.93,4.89,3.77,5.9,6.89Z"/>
      <path class="cls-4" d="m261.24,205.13c-.43,1.17.02,2.93-1.35,3.94-5.16,3.81-9.85,9.17-16.87,8.6-6.55-.54-12.78-2.34-18.46-6.58-4.69-3.5-8.08-7.89-12.01-11.95-4.63-4.78-7.01-10.8-10.1-16.43-.95-1.73-.49-3.03,1.63-4.12,2.13-1.1,2.9-.74,4.01,1.18,2.49,4.29,4.48,8.85,7.51,12.87,3.31,4.4,7.63,7.69,11.34,11.6,3.18,3.35,7.63,3.66,11.1,6.22,2.16,1.59,5.48.06,8.29.13,2.01.05,3.88-1.47,6.14-1.09,1.04.18,1.61-.99,2.07-1.92.67-1.35,1.32-2.71,2.08-4,.78-1.33,2.12-1.17,3.37-.99,1.41.2,1.2,1.36,1.22,2.56Z"/>
      <path class="cls-21" d="m160.05,120.76c-2.4-.32-3.87-.9-3.44-3.72,1.04-6.93,5.18-11.8,11.91-13.43,7.89-1.91,15.77-3.78,23.88-4.62,1.98-.21,3.55.55,4.76,1.4,2.3,1.62,1.8,4.19-.91,5.5-4.6,2.21-9.61,3.66-14.08,5.89-5.01,2.49-10.35,4.14-15.28,6.76-2.15,1.14-4.7,1.55-6.84,2.23Z"/>
      <path class="cls-13" d="m182.88,122.46c-5.37,5.31-5.96,16.97,1.6,21.49.2.12.13.69.19,1.05-6.15-.15-12.31-.65-18.46-.19-3.02.23-5.61-.5-7.68-2.9-1.95-2.26-1.67-4.55.79-6.2,3.97-2.67,7.76-5.64,11.87-8.08,3.66-2.18,7.34-4.49,11.7-5.18Z"/>
      <path class="cls-14" d="m241.28,99.64c2.66.33,5.4.39,7.97,1.06,4.56,1.19,6.19,4.73,7.22,9.09.54,2.31-.52,2.46-1.77,2.35-6.59-.57-12.77-2.64-18.69-5.51-1.55-.75-1.72-2.19-1.01-3.53.67-1.26.42-3.47,2.88-3.23,1.12.11,2.25.02,3.38.02,0-.09.01-.17.02-.26Z"/>
      <path class="cls-4" d="m180,158.54c6.5-4.2,13.52-6.88,21.28-7.57,1.03-.09,1.95-1.06,2.98-1.51,1.56-.68,3.18-.12,3.95,1.06.61.93.09,2.69-1.09,3.24-8.52,4.02-17.24,7.2-26.92,5.09-.08-.02-.13-.21-.19-.32Z"/>
      <path class="cls-15" d="m241.99,141.28c-2.04-2.23-4.53-4.08-5.9-6.89-.11-3.69,2.99-8.68,6.27-10.11,1.09-.48,1.22.4,1.5,1.05-3.24,5.29-2.39,10.38.73,15.36-.75.73-1.7.54-2.61.58Z"/>
      <path class="cls-9" d="m247.38,151.13c-.71-1.54-2.1-2.71-2.37-4.49,3.75-.75,7.33.3,10.9,1.15.8.19,2.67.15,2.09,1.86-.44,1.28-1.79,1.69-3.12,1.46-2.51-.44-5-1.08-7.5.02Z"/>
      <path class="cls-24" d="m61.37,70.14c3.96-1.47,7.95-.86,11.91-1.03,4.3-.18,8.6.44,12.8.13,4.59-.35,9.17.13,13.65-.27,6.87-.62,13.78-.69,20.65-1.73,9.02-1.37,17.81-3.83,26.84-5.11,1.52-.21,3.49-1,4.07,1.3.57,2.28-1.49,2.66-2.96,3.12-6.82,2.13-13.77,3.65-20.81,5-8.06,1.55-16.1,1.86-24.21,2.29-6.06.32-12.05.23-18.09.15-6.37-.08-12.49-.59-18.6-2.07-1.79-.43-3.5-1.18-5.25-1.78Z"/>
      <path class="cls-11" d="m316.71,538.28c3.66,6.84,7.07,13.83,10.31,20.84,2.29,4.96,4.73,9.91,6.74,15,.56,1.42,1.91,1.43,2.33,2.56-.45.2-1.01.69-1.34.57-8.11-3.17-16.73-4.22-25.18-5.71-7.49-1.32-15-2.74-22.63-3.57-5.6-.61-11.41-1.07-16.97-2.52-.38-.94-2.55-.34-1.86-2.18.41-3.02,2.46-5.17,4.89-6.16,4.31-1.76,6.61-5.81,10.43-8.11,2.02-1.22,3.87-2.58,6.21-3.09,2.07.37,3.96.4,4.28-2.37-.08-.76.38-1.19.99-1.4,6.51-2.31,13.37-2.98,20.07-4.39.61-.13,1.25.07,1.73.54Z"/>
      <path class="cls-8" d="m257.15,497.64c-3.2,2.61-6.77,1.15-9.98,1.96-7.05,1.78-14.11,3.35-20.66,6.66-2.18,1.1-3.66,1.37-5.95-1.15-2.36-2.6-4.98-5.35-7.82-7.73-4.92-4.12-9.19-9.21-13.74-13.89-4.1-4.21-8.59-8.1-12.29-12.63-3.11-3.8-6.92-6.7-10.33-10.08-2.06-2.05-3.1-4.95-5.43-7.03-4.47-3.99-8.57-8.39-12.69-12.75-4.72-4.98-9.36-10.02-14.46-14.62-.44-.4-.43-1.31-.69-2.17,5.49,1.52,10.69-.13,15.91-.28,3.57-.1,7.15-1.4,10.78-.47,2.65.68,4.81-1.47,7.59-1.25,7.89.61,15.78-.81,23.74,0,2.63.27,1.99,1.05,1.91,2.54-.23,4.32-1.76,8.38-2.1,12.73-.4,5.15-.88,10.37-2.66,15.43-.69,1.96.1,5,2.71,6.7,7.37,4.77,14.55,9.85,21.96,14.56,7.64,4.86,14.76,10.45,22.18,15.61,3.81,2.65,7.44,5.7,12.02,7.85Z"/>
      <path class="cls-8" d="m316.71,538.28c-7.62,1.68-15.48,2.28-22.8,5.25-1.79-2.44-1.83-5.57-3.33-8.22-1.31-2.3-1.7-5.14-3.5-7.31-1.83-2.2-.94-3.92,1.18-5.23,8.6-5.31,17.32-10.32,26.65-14.41,7.59-3.33,15.37-6.18,23-9.36,7.99-3.33,16.46-5.71,24.9-7.98,4.28-1.15,8.55-2.42,12.8-3.7,2.14-.64,3.32-.49,4.49,2.08,2.92,6.41,6.64,12.44,9.76,18.77,2.05,4.16,4.04,8.39,5.02,12.99.21.99.29,1.89-.97,1.91-7.91.09-15.73,1.78-23.71,1.32-1.66-.1-3.88.61-5.65,1.22-3.11,1.06-6.55-.78-9.38,1.41-3.59-.9-7.16-1.33-10.56.68-.51.03-1.01.01-1.52,0-5.14-.56-10.34-1.7-15.1,1.52-.49.49-.97.41-1.47,0-2.17-.86-4.15-.75-5.82,1.08-.17.18-.27.57-.44.59-5.17.55-3.58,4.35-3.57,7.39Z"/>
      <path class="cls-8" d="m377.47,483.41c-9.83.29-19.01,2.85-28.11,6.3-8.56,3.25-17.37,5.88-26.14,8.56-2.13.65-3.4,2.36-5.68,3.06-5.86,1.82-11.57,4.28-16.85,7.74-4.68,3.07-9.84,5.42-14.4,8.75-1.12.82-3.31,2.64-3.46,1.5-.33-2.51-3.56-2.96-3.11-5.6.18-1.05.41-1.96,1.22-2.64,1.62-1.37,3.11-3.02,4.94-4,10.09-5.4,20.4-10.35,30.87-15.01,9.84-4.38,19.66-8.78,29.78-12.49,6.16-2.26,12.34-4.47,18.42-6.91,1.93-.78,3.93-.15,5.8-.94,1.23-.52,1.48.83,1.68,1.5,1.12,3.69,3.17,6.89,5.04,10.18Z"/>
      <path class="cls-8" d="m369.66,469.12c-3.24,2.09-7.06,1.53-10.59,2.21-10.48,2.03-20.5,5.3-30.19,9.75-6.43,2.95-13.17,5.25-19.56,8.27-9.86,4.66-20.14,8.57-28.78,15.54-4.06,3.28-4.7,2.95-6.79-2.16-.96-2.33-.56-3.69,1.69-5.21,3.84-2.58,7.96-4.53,12.1-6.48,11.64-5.48,23.19-11.21,35.07-16.11,5.08-2.1,9.95-4.81,15.33-6.24,5.25-1.39,10.09-3.94,15.27-5.63,3.71-1.21,7.63-.12,11.07-2.11.74-.43,1.91.75,1.86,1.45-.2,3.03,2.68,4.31,3.51,6.71Z"/>
      <path class="cls-8" d="m289.64,545.9c-6.42,3.11-10.71,9.13-17.03,12.46-1.84.97-3.01,3.23-4.49,4.9-1.39.04-2.65-.55-3.08-1.77-1.27-3.64-4.14-6.24-5.9-9.56-1.24-2.34-3.52-3.94-5.14-6.09-1.77-2.35-3.53-4.73-5.32-7.24,9.78-2.09,18.36-7.55,27.88-10.6,1.61-.52,2.09-.74,3.05.96,2.41,4.25,4.7,8.53,6.71,12.99.69,1.54,1.55,3.18,3.31,3.94Z"/>
      <path class="cls-8" d="m275.95,520.25c-.21,1.72-1.24,2.76-2.49,3.26-6.29,2.51-12.65,4.81-18.93,7.33-1.41.57-2.82,1.19-4.01,2.41-2.91,2.98-4.59,2.69-6.49-.86-.77-1.44-1.71-2.72-2.69-4.02-2.21-2.93-1.75-4,1.86-5.4,6.85-2.65,13.64-5.5,20.8-7.2,2.37-.56,4.86-.75,7.31-.85,3.74-.14,2.95,3.74,4.64,5.31Z"/>
      <path class="cls-8" d="m268.89,508.18c-.61.98-2.03,1.47-3.16,1.73-9.92,2.27-19.58,5.28-28.85,9.5-.45.2-.99.27-1.36.56-.64.5-1.44,1.08-1.76.01-.99-3.26-5.43-4.09-5.54-7.56-.04-1.13,1.98-2.29,4.03-2.62,3.75-.61,7.31-2.39,11.05-3.13,6.96-1.37,14-2.33,21.01-3.46,1.43-.23,4.63,3,4.57,4.98Z"/>
      <path class="cls-18" d="m400.37,514.95c-.85-5.41-.51-10.81-.27-16.27.27-6.16,1.41-12.05,3.47-17.8,1.44-4,3.29-7.82,5.6-11.41,1.3-2.03,3.18-2.74,5.15-1.79,1.91.92,1.07,3.01.42,4.3-2.56,5.07-4.57,10.34-6.39,15.7-2.62,7.71-5.64,15.31-6.41,23.53-.16,1.72-.51,3.43-.77,5.14-.65-.26-.71-.84-.8-1.41Z"/>
      <path class="cls-17" d="m343.1,527.69c.1-.32.15-.86.32-.91.7-.19.93.42,1.19.91.98,1.39,2.61.4,3.84,1-2.31,2.22-2.79,2.28-7.91,1.01.91-.72,1.73-1.37,2.55-2.02Z"/>
      <path class="cls-17" d="m326.54,529.22c.49,0,.98,0,1.47,0,.97,1.35,2.59.42,4.07,1.09-2.18,2.05-4.95.62-7.1,1.68-.2.1-1.06-.5-1.07-.79-.07-1.83,1.89-1.11,2.63-1.97Z"/>
      <path class="cls-17" d="m331.18,562.54c1.7,1.06,2.57,2.64,2.13,4.79-.71-1.6-1.42-3.19-2.13-4.79Z"/>
      <path class="cls-17" d="m335.57,570.15c1.36,1.5,2.35,2.44,2.58,4.44-2.32-.56-2.48-2.09-2.58-4.44Z"/>
      <path class="cls-16" d="m87.83,183.23c3.78,5.24,6.93,10.86,9.36,16.86,1.63,4.03,3.37,8.04,4.05,12.42.16,1.05.51,2.25-.39,2.71-.96.49-2.18.64-3.43-.05-9.2-5.05-13.79-16.02-11.92-25.86.38-1.98-.61-4.75,2.34-6.08Z"/>
    </g>
  </g>
</svg>