<?xml version="1.0" encoding="UTF-8"?>
<svg id="Layer_2" data-name="Layer 2" xmlns="http://www.w3.org/2000/svg" viewBox="0 0 655.4 687.4">
  <defs>
    <style>
      .cls-1 {
        fill: #eb9dad;
      }

      .cls-1, .cls-2, .cls-3, .cls-4, .cls-5, .cls-6, .cls-7, .cls-8, .cls-9, .cls-10, .cls-11, .cls-12, .cls-13, .cls-14, .cls-15, .cls-16, .cls-17, .cls-18, .cls-19, .cls-20, .cls-21, .cls-22, .cls-23, .cls-24, .cls-25, .cls-26, .cls-27, .cls-28, .cls-29, .cls-30, .cls-31, .cls-32, .cls-33, .cls-34 {
        stroke-width: 0px;
      }

      .cls-2 {
        fill: #fe4e62;
      }

      .cls-3 {
        fill: #fe5063;
      }

      .cls-4 {
        fill: #dc6936;
      }

      .cls-5 {
        fill: #70165c;
      }

      .cls-6 {
        fill: #db6936;
      }

      .cls-7 {
        fill: #442f69;
      }

      .cls-8 {
        fill: #b91655;
      }

      .cls-9 {
        fill: #e3bec7;
      }

      .cls-10 {
        fill: #452f69;
      }

      .cls-11 {
        fill: #fe7f82;
      }

      .cls-12 {
        fill: #dfcde5;
      }

      .cls-13 {
        fill: #fefdfd;
      }

      .cls-14 {
        fill: #b81555;
      }

      .cls-15 {
        fill: #da6736;
      }

      .cls-16 {
        fill: #dfcce3;
      }

      .cls-17 {
        fill: #fe5264;
      }

      .cls-18 {
        fill: #fe7e82;
      }

      .cls-19 {
        fill: #b9a3c0;
      }

      .cls-20 {
        fill: #fe5265;
      }

      .cls-21 {
        fill: #b9a2c0;
      }

      .cls-22 {
        fill: #fbd5a4;
      }

      .cls-23 {
        fill: #f9e8fb;
      }

      .cls-24 {
        fill: #d11d43;
      }

      .cls-25 {
        fill: #432e69;
      }

      .cls-26 {
        fill: #db6836;
      }

      .cls-27 {
        fill: #fefcfc;
      }

      .cls-28 {
        fill: #f2c4c9;
      }

      .cls-29 {
        fill: #fe7f83;
      }

      .cls-30 {
        fill: #e0c7d1;
      }

      .cls-31 {
        fill: #fe5165;
      }

      .cls-32 {
        fill: #f08839;
      }

      .cls-33 {
        fill: #473069;
      }

      .cls-34 {
        fill: #decce4;
      }
    </style>
  </defs>
  <g id="Road_3" data-name="Road 3">
    <g id="Road_2" data-name="Road 2">
      <g>
        <path class="cls-1" d="m318.68,685.85c-.59,1.44-2.49.24-3.13,1.56h-9.39c.02-.28.03-.56.05-.84.42-.64.89-1.62,1.59-1.53,3.3.42,6.56-.38,9.84-.2.52.03.85.52,1.05,1.01Z"/>
        <path class="cls-22" d="m554.08,538.78c1.56.28,3.12.56,4.68.84,4.88.21,9.62,1.01,14.09,3.08,1.07,1.36,2.59.58,3.9.82,5.33-.21,10.07,1.9,14.87,3.8.76.54,1.53.73,2.35.11,2.12-.77,2.98.76,3.92,2.15.52-.19,1.04-.39,1.56-.58,2.41.56,5.44-.1,6.39,3.29-1.56,1.75-3.86,1.31-5.8,1.93-13.63,4.39-26.5,10.35-38.88,17.59-8.2,4.8-15.97,10.1-23.43,15.91-.84.65-1.47,1.46-2.2,2.19-6.88,3.83-12.18,9.46-17.77,14.87-4.01,3.88-8.05,7.72-11.38,12.16-4.02,5.36-8.57,10.42-11,16.86-.53,1.42-1.11,3.02-3.13,2.97-6.32-5.58-12.83-10.86-19.55-15.98-5.37-4.09-10.9-7.9-16.49-11.62-8.34-5.54-17.14-10.2-26.48-13.91-7.28-2.9-14.55-5.49-22.45-5.96-2.19-.13-4.41.75-6.58-.16-3.7-5.23-9.21-8.69-13.32-13.49-3.03-3.54-5.85-7.24-9.29-10.41-1.22-1.12-1.4-2.45-.23-3.78.9-.51,1.82-.15,2.64.12,7.83,2.54,15.95,3.3,24.09,3.86,4.86.34,9.59-.08,13.67-3.2,1.94-1.48,1.75-2.98-.58-3.9-2.54-1-5.18-2-7.86-2.22-5.28-.44-10.01-2.64-14.99-4.03-1.3-.36-2.41-.98-2.92-2.33.7-3.47,4.2-3.87,6.4-5.64,2.29-1.83,5.12-2.98,7.79-4.29,4.44-2.21,8.84-4.49,13.35-6.55,6.42-3.21,13.15-5.57,20.1-7.3.25-.06.61.04.75-.13,4.49-5.29,10.49-2.78,15.66-2.44,13.18.88,26.28,2.93,39.42,4.44,1.56.18,3.07.55,4.58.96,2.77,1.23,6.05.31,8.71,2.04,5.49.82,10.98,1.64,16.47,2.45,6.72.22,13.42.57,19.55,3.82,1.03.07,2.05.14,3.08.21,2.2.06,4.38.21,6.31,1.46Z"/>
        <path class="cls-26" d="m492.35,636.41c3.27-1.72,2.55-5.63,4.54-8.17,6.29-8.06,11.85-16.56,19.7-23.5,5.54-4.9,10.65-10.33,16.69-14.7.48-.35,1.23-.33,1.85-.48,6.36-4.7,13.03-8.91,20.07-12.52.79-.41,1.41-1.22,2.41-1.14,1.29.1,2.91.07,3.4,1.41.48,1.3-.94,1.95-1.91,2.56-10.99,7-21.59,14.62-31.26,23.3-6.21,5.58-12.71,10.91-17.65,18.02-3.83,5.51-7.05,11.43-11.26,16.68,2.21-2.83,4.8-5.32,7.31-7.85,4.76-4.8,10.49-8.44,16.2-11.97,11.14-6.89,22.81-12.87,34.92-17.8,8.14-3.31,16.55-6.04,25.07-8.35,7.54-2.05,15.13-3.72,22.83-4.91,6.69-1.04,13.49-.8,20.23-1,1.82-.05,3.98.08,5.16,2.09,1.78.3,2.26,1.05.69,2.29-.96.76-2.06,1.35-3.09,2.02-1.02,1.48-2.1.16-3.15.06-2.02.63-4.23-1.34-6.16.46-1.48.8-3.03,1.02-4.66.64-5.99-.3-11.73.73-17.23,3.13-5.6,1.09-11.1,2.59-16.58,4.17-11.74,3.39-22.9,8.33-34.07,13.15-7.51,3.24-14.15,8.21-21.25,12.27-3.84,2.19-7.39,4.76-10.08,6.89,8.87-4.61,19.34-7.61,29.81-10.7,9.36-2.77,18.9-4.8,28.34-7.27,7.01-1.84,14.31-2.72,21.53-3.42,8.9-.86,17.81-2.04,26.81-1.67,2.89.12,5.68.44,8.4,1.37,1.94,1.05,3.12,2.75,4,4.7-1.12,2.3-3.31,1.9-5.14,1.77-14.65-1.02-29.21.61-43.56,2.89-7.57,1.21-15.35,2.3-22.76,5.05-5.54,2.06-11.48,3.17-17.31,4.45-4.95,1.08-9.79,2.69-14.56,4.4-7.11,2.56-14.31,4.77-21.52,6.44,4.85,1.02,4.74.66,10.3-1.03,7.57-2.31,14.92-5.24,22.83-6.65,5.8-1.04,11.46-3.32,17.38-4,6.46-.74,12.75-2.64,19.23-2.92,9.72-.42,19.25-2.42,29.02-2.84,8.3-.36,16.52-1.03,24.8.03.9.12,1.82.13,2.69.48.79.31,1.3.85,1.32,1.74.02.87-.44,1.46-1.16,1.89-.7.41-1.47.49-2.25.56-9.85.86-19.67,2-29.56,2.58-11.69.68-23.29,2.52-34.9,4.09-7.2.97-14.2,3.01-21.39,4.08-4.24.63-8.22,2.4-12.49,3.06-3.71.57-7.18,2.29-11.09,2.57,3.04.66,5.47,2.33,7.83,4.08,1.66,1.22,3.12,1.22,5.05.44,12.23-4.93,25.1-7.52,37.92-10.38,11.87-2.65,24.03-2.57,35.91-4.77,3.91-.72,7.78.11,11.67.03,7.62-.17,15.32-1.2,22.84,1.04,1.99.83,2.53,2.41,2.25,4.4.16.51.32,1.02.49,1.54-.93.96-2.21.93-3.3.76-7-1.03-14.02-.12-20.96.23-12.81.64-25.68.46-38.42,2.99-7.32,1.45-14.72,2.78-22.05,4.21-5.82,1.13-11.52,3.08-17.4,4.19-5.07.95-10.21,1.57-15.21,2.9-11.65-8.15-23.73-9.78-36.47-2.54-3.11,1.77-5.45,4.4-8.07,6.71-1.25,1.1-2.43,2.13-3.96.45-.86-2.03.48-3.32,1.52-4.78,1.92-2.67,4.29-5.01,5.73-8.03.46-1.22,1.37-2.03,2.49-2.61,1.08-.56,1.04-1.23.28-2.02-1.16-2.49-1.8-4.96.41-7.25Z"/>
        <path class="cls-11" d="m456.28,215.95c.27,1.19,1.59,1.29,2.21,2.11,1.3,1,2.49,2.04,1.82,3.95-.21,1.9,1.24,1.57,2.3,1.67,4.66.42,8.4,2.12,9.83,7.04,2.09,1.71,1.7,3.9,1.2,6.12-.01,2.36-.4,4.85,2.19,6.31.49,1.52,2.53,2.61,1.26,4.61,1.83,4.36.81,8.45-1.18,12.45-2.38,3.2-3.56,7.18-6.44,10.06-2.16.14-1.16,2.41-2.22,3.29-1.75,2.13-1.09,5.56-3.86,7.14h0c-1.04,2.08-1.7,4.31-2.56,6.46-.49,1.23-.95,2.4-2.35,2.84-.29,1.79-3.34,2.29-2.22,4.74-3.27,3.74-2.72,8.92-4.95,13.09-1.31,2.45-1.18,5.32-.67,8.04.24,1.3.78,2.52-.41,3.61-1.26.98-2.4.46-3.56-.26-9.19-5.64-18.67-6.93-28.55-1.83-1.27.65-2.46.74-3.56-.32-1.62-3.93-.61-7.98-.09-11.86.35-2.66,1.19-5.35,1.31-8.05.34-7.49,4.87-12.38,10.1-16.85,4.61-3.94,9.72-6.93,15.83-7.99,2.72-.47,4.73-1.86,5.45-4.85.88-3.65,3.56-6.69,2.72-11.01-.45-2.3,2.1-4.32,3.32-6.46,1.49-2.62,3.61-2.95,6.33-2.34,1.35.3,2.87.07,4.11-.79.35-.24.28-.75,0-1.03-1.28-1.25-2.9-.92-4.44-.87-1.09.04-1.88.71-2.77,1.27-4.73,2.96-9.77,5.42-14.17,8.93-1.02.81-2.41.96-3.71,1.08-1.6.15-2.77-.58-3.53-1.95-.74-1.35-.17-2.46.68-3.57,4.83-6.3,10.44-11.86,16.09-17.39,1.63-1.6,3.38-3.09,4.61-5.78-3.02.77-5.05,2.06-6.89,3.72-6.69,6.03-12.39,12.95-17.96,19.98-2.04,2.58-5.05,2.96-8.13.84-2.85-1.96-1.83-4.36-.49-6.51,4.27-6.85,9.31-13.1,15.08-18.76,1.98-1.94,3.52-4.19,4.96-6.51,1.24-2.01,2.62-3.88,4.41-5.43.32-.2.67-.32,1.04-.36,1.07.14,2.15.28,3.22.42,1.83-.97,3.28-.19,4.65.99Z"/>
        <path class="cls-34" d="m500.19,530.1c-4.89-2.25-10.29-1.58-15.42-2.62-6.38-1.29-12.99-1.48-19.49-2.22-6.82-.78-13.65-1.35-20.52-1.3-1.13,0-1.62.35-2.38,1.61-1.5,2.46-5.02,2.23-7.58,2.82-4.64,1.07-8.71,3.3-13.05,4.95-.71.27-1.47.42-2.21.63-.49-.62-.42-1.32.11-1.74,5.87-4.58,9.05-11.29,13.53-16.97,6.39-8.11,13.42-15.8,18.54-24.77,3.73-6.53,9.31-11.45,13.48-17.53,6.07-8.86,12.96-17.1,19.08-25.92.65-.94,1.39-2,2.85-1.21,1.81,3.16,1.76,6.81,2.26,10.21,1.45,9.9,3.66,19.67,4.75,29.63.06.53,0,1.03-.24,1.51-.15,1.38-.04,2.71.76,3.91,1.52,5.08,2.48,10.29,3.5,15.49,1.1,5.58.66,11.42,2.97,16.8,1,2.33.21,4.6-.95,6.73Z"/>
        <path class="cls-32" d="m630.67,588.07c-3.07-1.99-6.52-1.1-9.76-1.06-9.43.14-18.78.95-28,3.29-8.22,2.09-16.22,4.86-24.32,7.17-9.36,2.67-17.94,6.88-26.59,10.86-3.82,1.76-7.9,3.84-11.61,6.38-4.03,2.76-8.7,4.8-12.72,7.78-3.4,2.52-7.21,4.51-10.2,7.57-3.13,3.21-6.14,6.54-9.37,9.98-1-2.46.79-4.06,1.72-5.33,2.41-3.27,3.67-7.49,6.28-10.16,3.65-3.74,5.91-8.44,9.79-11.94,9.49-8.55,19.08-16.99,29.33-24.62,4.88-3.63,10.15-6.74,15.32-10.14-2.01-1.46-3.34-1.3-5.23.34-2.09,1.81-4.99,2.67-7.5,4.01-3.19,1.7-6.46,3.33-8.78,6.23-1.09,1.37-2.48,1.18-3.91,1.11,2.41-4.14,6.69-6.12,10.29-8.87,3.15-2.41,6.39-5.01,9.79-6.69,5.61-2.78,10.49-6.8,16.42-9.02,4.08-1.53,7.8-3.99,11.81-5.72,4.17-1.8,8.47-3.34,12.78-4.77,3.12-1.03,6.36-1.69,9.54-2.51,1.11-2.31,3.41-.32,4.87-1.35l2.89-.14c3.27,1.2,3.36,1.5,1.43,4.69-3.87,1.14-7.73,2.28-11.6,3.42-1.07,1.19-2.5,1.24-3.95,1.24-.75.25-1.51.5-2.26.75-1.61.92-3.31,1.64-5,2.38-4.19-.3-7.45,2.31-10.94,3.88-2.13.96-4.25,2.18-6.43,3.2-.66.31-1.39.84-1.15,1.78.21.83,1.06.74,1.59.68,1.91-.24,3.43,1.85,5.42.82,1.56-1.24,2.67.18,3.93.67.52.22,1.04.44,1.57.66,1.47-.44,2.8-.26,3.92.87,2.42,1.43,5.14,1.4,7.8,1.62,3,.09,5.96.33,8.55,2.09.55.08,1.1.15,1.65.23,2.21.97,4.92.07,6.9,1.87,2.72,2.43,6.44,1.51,9.49,2.81,1.29-.14,2.33.31,3.12,1.33,1.46.35,2.9.73,3.07,2.61Z"/>
        <path class="cls-32" d="m644.96,635.7c-1.26,1.21-2.47-.08-3.59-.26-7.27-1.17-14.56.45-21.72-.08-10.38-.77-20.32,1.88-30.49,2.41-10.38.54-20.51,3.06-30.44,5.58-7.83,1.99-16.11,3.45-23.29,7.71-.84.5-1.41.93-2.36.11-3.27-2.81-6.95-4.91-11.21-6.71,5.23-1.32,10.45-2.66,15.68-3.95,5.19-1.28,10.37-2.64,15.61-3.7,6.28-1.27,12.58-2.45,18.92-3.32,9.06-1.25,18.15-2.24,27.24-3.23,2.89-.32,5.82-.19,8.72-.43,8.7-.72,17.39-1.51,26.08-2.3.91-.08,1.9-.32,1.91-1.52,0-1.07-.89-1.11-1.68-1.16-8.48-.57-16.85-1.25-25.48-.09-6,.81-12.33.55-18.39,1.53-7.18,1.16-14.45,1.31-21.6,2.52-6.86,1.16-13.81,2.06-20.48,3.91-10.45,2.9-21.18,4.95-31.12,9.59-3.93,1.84-7.87-.24-12.92-.61,4.24-2,7.88-2.6,11.18-3.28,6.9-1.41,13.19-4.42,19.89-6.3,7.62-2.14,15.26-4.18,22.97-5.98,5.83-1.36,11.51-3.26,17.41-4.52,15.31-3.29,30.82-4.17,46.34-5.18,3.92-.25,7.93,1.55,11.86-.26,3.17,1.3,2.66,5.41,5.39,7.04.59,1.41,1.98,2.33,2.37,3.86.29.82.58,1.63.87,2.45,1.39,1,2.12,2.22,1.34,3.95.3.25.6.49.9.74.42.46.48.96.13,1.5Z"/>
        <path class="cls-24" d="m530.65,656.04c5.75-2.9,12.27-2.42,18.28-4.14,3.83-1.09,7.83-1.3,11.55-3.1,3.28-1.58,7.14-1.22,10.74-2.21,7.12-1.96,14.64-2.43,21.96-3.72,7.01-1.23,14.15-.3,21.09-1.32,7.02-1.03,14.03.27,21.05-.94,4.01-.69,8.31.33,12.48.58,2.8-.66,2.6,2.85,4.59,3.32.96,1.17,3.77,1.13,2.83,3.44-.7,1.7-2.22,2.3-4.37,3-5.06,1.64-10.28-.44-15.16,1.79-1.83.83-4.23.41-6.36.58-12.92,1.06-25.71,3.28-38.67,3.97-6.11.33-12.18,2.17-18.26,2.14-9.13-.05-17.95,2.41-27.07,2.49-3.25.03-6.67-.16-9.98.38-1.79-1.92-4.28-3.3-4.69-6.25Z"/>
        <path class="cls-32" d="m629.97,611.47c-4.92-.11-9.85-.39-14.76-.29-4.83.1-9.67.41-14.48.92-7.73.83-15.41,2.12-23.1,3.21-4.47.63-8.61,2.19-12.95,3.13-9.12,1.97-18.34,3.9-27.12,6.97-7.47,2.61-15.33,4.47-22.18,8.76-1.05.66-2.33.97-3.92.89,2.99-2.48,5.68-5.52,9.03-7.31,5.34-2.85,10.36-6.18,15.56-9.23,6.59-3.86,13.69-6.61,20.55-9.86,5.02-2.37,10.33-3.81,15.36-6.08,6.1-2.76,12.85-4.38,19.57-5.51,1.82-.31,3.54-2.65,5.55-.4,2.03,1.71,4.35,3,7.02,2.5,2.48-.47,3.3,2.48,5.52,2.21,1.54-.96,2.68-.37,3.63.94,2.88,2.4,6.83,2.45,9.85,4.52,2.28,1.56,4.58,3.09,6.88,4.63Z"/>
        <path class="cls-29" d="m448.41,214.54c-.28.18-.57.36-.85.54-10.63,6.18-17.36,16.17-24.88,25.4-1.25,1.53-1.98,3.35-3.01,5-3.46,5.56-6.9,5.86-11.31.98-.7-2.32,1-3.52,2.28-4.95,7.42-8.27,14.14-17.05,19.47-26.85.89-1.65,1.26-3.78,3.54-4.3,1.3-.3,2.6-.6,3.89-.9.97.63,1.98,1.08,3.18.68,2.41-.33,3.67,1.62,5.34,2.73.45,1.02,1.38,1.37,2.34,1.67Z"/>
        <path class="cls-23" d="m30.08,383.93c2.47-5.83,3.52-12.07,4.86-18.17,2.52-11.46,5.24-22.84,9.15-33.91.52-1.48.53-3.46,2.43-4.24,3.52,2.13,4.87,6.1,7.54,8.98,5.57,6.02,8.77,13.78,14.13,20.01,2.28,2.65,4.35,5.47,7.17,7.62,1.91,1.46,2.17,4.02,3.85,5.72,7.36,7.47,12.68,16.57,19.37,24.59,5.93,7.11,11.26,14.78,17.81,21.31,7.16,7.14,12.76,15.6,20.03,22.67,2.86,2.78,5.57,6.2,6.95,10.26.95,2.29.87,4.73.04,6.89-3.77,9.78-4.2,20.33-7.1,30.29-1.15,3.94-1.39,8.22-3.91,11.72-2.14,1.54-3.08-.39-4.06-1.58-2.58-3.14-3.94-7.01-5.75-10.57-4.76-9.37-10.04-18.47-14.54-27.97-2.93-6.2-6.51-12.04-9.28-18.36-2.31-5.27-5.4-10.34-8.42-15.33-2.61-4.32-5.2-8.68-7.92-12.94-1.34-2.1-2.62-4.17-5.58-5.49.34,2.51,1.16,4.5,2.25,6.24,7.08,11.24,12.38,23.42,18.66,35.07,4.36,8.08,8.17,16.43,12.25,24.62,4.9,9.86,10.12,19.53,15.11,29.33,1.36,2.66,4.86,3.73,5.12,7.14-.21,3.64-1.61,6.85-3.58,9.86-1.7,1.11-3.05-.03-4.25-.9-5.88-4.26-12.43-6.77-19.42-8.66-9.8-2.64-19.47-5.93-29.6-6.87-5.81-.54-11.48-2.33-17.39-1.91-.78.06-1.57-.02-2.34.08-1.31.18-2.86.39-2.83,2.06.03,1.6,1.55,2.03,2.85,2.1,3.78.2,7.51.84,11.26,1.1,5.82.4,11.58,1.6,17.22,2.62,5.62,1.01,11.19,3.28,16.93,4.27,4.66.8,8.97,2.55,13.41,3.95.86.27,2.26.65,1.86,2.01-.3.98-1.49.98-2.38.88-8.59-1-17.12,1.04-25.67.6-5.66-.29-11.05.99-16.52,1.77-10.99,1.56-17.82,9.61-25.27,16.64-.47.44-.85,1-1.11,1.6-.48,1.1-.98,2.4,0,3.28,1.27,1.14,2.15-.31,2.91-1.01,5.15-4.75,10.56-9.17,16.16-13.38,1.48-1.11,3.06-2.09,4.88-2.38,7.7-1.21,15.33-3.06,23.2-2.81,1.17.04,2.99-.55,3.1,1.37.09,1.6-1.49,1.9-2.78,2.21-9.15,2.18-17.53,6.18-25.97,10.25-5.37,2.59-10.73,5.14-15.84,8.22-.56.34-1.18.59-1.66,1.02-.97.87-3.07,1.31-2.06,3.15.91,1.67,2.45.82,3.77.16,5.58-2.77,11.06-5.71,16.5-8.74,4.08-2.28,8.32-4.49,12.62-5.99,5.48-1.91,10.85-4.23,16.55-5.6,4.36-1.05,8.89-2.15,12.13-5.8.73-.82,1.92-.71,2.97-.61,1.95.18,3.9.08,5.85.21,3.42.22,6.77-.13,9.6-2.4,8.36-1,16.54.66,24.68,2,2.78.46,5.74.42,8.38,1.46,6.25,2.44,12.87,3.57,19.24,5.6,7.37,2.36,14.56,5.29,22.06,7.25,2.03.42,2.54,1.57,1.65,3.42-.23.47.12-.06-.19.34-2.07,2.64-1.46,6.89-3.99,8.72-2.76,2-5.93-1.19-9.13-1.31-5.79-.21-11.57-.84-17.35-1.1-4.74-.22-9.77-.32-14.58-1.23-1.52-.29-3.42-.76-3.7,1.53-.23,1.87,1.43,2.33,2.91,2.43,7.2.45,14.32,1.82,21.53,1.92,5.59.08,11.17,1.01,16.77.15.77-.12,1.79-.06,2.15.64,1.58,3.12-.92,5.68-1.34,8.54-.23,1.57-1.27,2.08-2.82,1.97-9.97-.72-19.94.4-29.91.27-4.64-.06-9.3.49-13.96.55-1.55.02-2.99.57-2.87,2.44.11,1.7,1.58,1.85,2.92,1.93,6.64.36,13.23-.67,19.84-.68,7.53-.01,15.05.1,22.55-.6,2.25-.21,2.58,1.33,2.39,3.07-.22,2.07-1.03,4.01-1.14,6.13-.09,1.79-1.6,2.22-3.13,2.27-7.82.22-15.52,1.55-23.28,2.35-5.51.56-10.94,1.92-16.41,2.91-1.37.25-3.3.59-2.96,2.88.34,2.38,2.07,1.66,3.61,1.72,3.31.13,6.49-.63,9.66-1.25,8.28-1.63,16.56-3.18,25-3.66.39-.02.77-.09,1.16-.17,5.45-1.15,6.18-.74,5.41,4.75-.64,4.61-1.38,9.21-1.82,13.86-.12,1.23-.9,2.13-1.91,2.82-3.09,2.11-6.73,2.55-10.26,3.34-.35.12-.71.21-1.07.29-6.78,1.22-13.45,2.9-20.15,4.47-7.21-.2-13.97,2.42-20.98,3.4-3.75.52-7.28,2.22-11.16,1.98-4.02-1.39-7.89.28-11.73.85-6.76,1-13.39,2.4-20.33,2.48-4.77.06-9.67.79-14.49,1.38-1.91.23-3.84.94-5.71.77-8.39-.73-16.69,2.13-25.13.39-6.65-1.37-11.43-5.59-15.13-10.58-6.82-9.2-13.14-18.77-19.68-28.18-4.04-5.81-8.36-11.6-10.39-18.72-1.42-4.98.39-9.48.94-14.1,1.17-9.86,4.03-19.6,4.4-29.45.26-6.98,1.08-13.91,1.81-20.75.95-8.8,2.23-17.64,3.77-26.4,1.4-7.92,2.88-15.86,4.57-23.69,2.61-12.03,3.77-24.44,8.35-36.02-1.25-7.93,3.7-14.85,3.69-22.62,0-3.06,2.49-5.73,2.02-9Z"/>
        <path class="cls-5" d="m123.13,617.58c5.41-2.57,11.38-2.88,17.11-4.16,3.41-.76,6.81-1.62,10.32-2.04,1.59-.19,3.01-.06,4.51.09,1.39.86,3.02,1.09,4.53,1.65,11.06,4.46,21.87,9.5,32.87,14.08,6.21,2.58,12.34,5.45,18.77,7.48,1.91.6,3.71,1.21,4.74,3.1.88,1.58.02,2.33-1.34,2.93-5.14,2.27-10.48,3.8-16.06,4.5-4.04-1.66-7.68-4.37-12.08-4.98-1.36-.19-1.85-1.19-2.92-1.59-4.83-1.77-9.68-3.57-14.33-5.74-7.03-3.29-14.38-5.85-21.46-9.03-5.59-2.51-11.58-4.58-17.46-6.65-.78-.27-1.4.08-1.64.63-.81,1.93-2.54,1.36-3.96,1.62-.84-.36-2.42-.1-1.58-1.88Z"/>
        <path class="cls-24" d="m318.68,685.85c-4.16.1-8.36-.35-12.47.72-1.29-.84-2.61.16-3.97-.07-1.63-.27-1.62-.9-1.02-2.06,1.64-4.4,6.31-6.17,8.66-9.95,3.8-.66,7.65-.8,11.48-.93,3.95-.13,7.73-.82,11.4-2.14,4.39-1.58,9.07-2.28,13.42-3.76,6.09-2.07,12.37-2.7,18.54-4.07,7.37-1.63,14.73-3.37,22.32-3.56,1.87-.05,3.58-.66,5.35-1.03,6.79-1.43,13.74-.73,20.57-1.65,13.21-1.78,26.42-1.11,39.68-.19,8.34.58,16.48,2.05,24.64,3.56,1.05.19,2.04.46,2.66,1.44,0,2.3-1.25,4.27-1.72,6.44-6.22,1.98-12.76,1.33-19.08,2.4-5.48.93-11.12.52-16.51,2.11-2.43.72-5,.17-7.5.38-4.73.4-9.44,1.16-14.19,1.47-8.53.55-17,2-25.51,2.92-8.52.92-17.06,1.56-25.58,2.49-12.55,1.38-25.06,3.23-37.63,4.22-4.52.35-9.01,1.06-13.54,1.26Z"/>
        <path class="cls-14" d="m310.1,674.8c-1.74,4.34-6.06,6.3-8.88,9.65-2.05,2.08-4.12.32-5.76-.41-5.41-2.42-10.92-4.54-16.43-6.71-8.64-3.41-17.49-6.35-25.92-10.19-11.81-5.37-24.04-9.64-35.94-14.77-4.85-2.09-9.81-4-14.43-6.52-1.57-.86-3.08,1.04-4.18-.64,5.38-1.83,10.74-3.72,16.15-5.43,1.16-.36,1.08-.77.76-1.57,1.57-2.19,3.28-.58,4.66.07,3.59,1.67,7.08,3.52,10.91,4.62,7.14,3.05,14.68,5.01,21.65,8.6,3.29,1.7,7.01,2.67,10.45,4.21,8.11,3.63,16.6,6.29,24.79,9.78,6.52,2.79,13.15,5.47,19.96,7.59.91.28,2.2.21,2.2,1.71Z"/>
        <path class="cls-14" d="m478.22,668.6c-.74-2.35-.03-4.32,1.58-6.06.46-.99,1.37-1.39,2.31-1.75,3.45,1.39,4.25-2.2,5.89-3.56,6.98-5.79,14.38-9.49,23.79-8.72,6.77.55,12.85,2.42,18.2,6.58.29.23.44.63.65.95,1.58,2.07,4.1,3.44,4.69,6.25-1.02,1.66-2.64,1.34-4.24,1.45-6.56.46-13.08,1.28-19.6,2.18-4.08.57-8.41.4-12.55,1.01-6.22.91-12.61.4-18.73,2.21-.56.17-1.32-.35-1.99-.54Z"/>
        <path class="cls-23" d="m433.66,210.36c-4.38,7.53-8.49,15.28-14.2,21.91-2.87,3.33-4.69,7.53-8.43,10.15-1.26.88-2.07,2.24-2.59,3.73-1.14,4.01-4.54,6.48-6.75,9.76-4.73,7.03-10.82,12.91-16.47,19.16-2.62,1.75-4.6,4.2-6.81,6.38-1.07,1.05-1.76,2.36-1.6,3.84.59,5.41.12,10.87.83,16.26-.06,4.78.02,9.39,1.77,14.1,2.9,7.8,3.43,16.18,4.61,24.4,1.22,8.49.9,17.06,1.71,25.58.41,4.32-.54,9.01.22,13.03,1.28,6.75-.54,13.52,1.23,20.08.84,3.13.32,6.26.18,9.33-.23,5.18,1.53,10.28.37,15.47-.23,1.03-.54,2-.93,2.96-1.32,6.66-.41,13.42-.73,20.13-.15,3.14-.75,6.14-1.15,9.2-1.34,10.26-5.38,19.73-9.31,29.14-2.16,5.17-5.4,9.97-9.22,14.23-.61.68-1.27,1.32-1.73,2.1-5.41,9.15-13.2,16.2-20.65,23.56-1.49.65-2.72.2-3.97-.74-5.07-3.85-9.85-4.17-15.06-.68-2.5,1.67-5.26,2.82-7.79,4.39-1.27.79-2.66,1.03-4.13.88-2.56-.47-4.19-2.23-3.94-4.6.43-3.97-.68-7.77-.65-11.67.03-3.57.67-4.2,4.16-3.66,4.08.63,8.02,1.35,12.31,1.14,7.23-.37,12.08-4.44,16.62-8.94,7.27-7.19,12.41-15.72,16.1-25.44,3.24-8.53,3.58-17.09,3.99-25.89.32-7.02-1.12-13.68-2.53-20.4-.27-1.27-.36-2.83-1.98-3-1.79-.18-1.8,1.47-2.21,2.68-.59,1.74-.81,3.54-1.18,5.32-1.65,7.91-4.78,15.3-8.25,22.53-3.59,7.48-12.92,12.22-21.27,11.66-3.62-.24-7.25-.57-10.88-.8-3.86-.25-5.47-2.85-4.86-6.74,1.16-7.35.69-14.78.61-22.17-.04-3.75.11-7.56-.8-11.27-.63-2.57.81-4.22,2.62-5.65,8.83-6.94,16.24-15.15,22.66-24.37,8.38-12.05,15.33-24.9,19.81-38.81,4.77-14.82,8.87-29.87,10.68-45.47.69-5.93,1.72-11.83,1.95-17.81.15-3.9.43-7.95-3.56-10.49-.55-2.01,1.11-2.76,2.25-3.65,13.09-10.09,25.02-21.47,36.62-33.19,4.75-4.8,8.7-10.32,12.35-16.02,1.67-2.61,4.56-4.36,5.28-7.62.26-.49.56-.94.88-1.39,5.19-7.58,9.63-15.58,13.78-23.79,3.67-7.26,7.1-14.57,9.43-22.37.36-1.21.54-2.57,1.63-3.46,3.06-1.78,2.67-4.68,2.42-7.54,1.61-6.38,3.13-12.79,5.35-19,1.71-2.33,2.37-4.92,2-7.79,0-1.21.05-2.41.33-3.59.58-5.48,2.24-10.89,1.03-16.49-.06-.4-.07-.79-.02-1.19,1.63-9.89.08-19.33-4.13-28.35-.88-1.89-1.45-3.89-2.36-5.77-2.63-5.51-7.45-8.91-11.93-12.64-1.32-1.1-3.05-1.79-4.74-1.47-6.56,1.24-13.18-.34-19.8.81-8.8,1.53-17,4.6-24.99,8.31-5.16,2.4-10.56,4.46-14.93,8.29-8.27,7.26-18.51,11.43-27.44,17.64-1.62,1.13-3.31,2.07-3.95,4.11-.32,1.03-.92,1.94-1.95,2.32-2.15.79-2.69,2.65-3.24,4.54-.52.91-1.34,1.4-2.32,1.65-2.43.34-4.36,1.18-4.12,4.17-2.61,2.54-4.6,5.8-8.24,7.18-4.74-.18-5.56-1.12-3.81-4.83,5.43-11.53,11.06-22.97,17.35-34.06,5.24-9.24,10.45-18.52,17.54-26.55.88-1,1.41-2.2,1.51-3.54.13-1.71.25-3.5-1.35-4.64-1.63-1.17-3.27-.36-4.8.38-4.53,2.18-7.38,6.19-10.14,10.07-6.42,9.03-12.1,18.57-16.94,28.51-3.86,7.93-8.95,15.3-12.02,23.48-2.47,6.58-5.4,12.95-8.09,19.4-3.41,8.16-7.93,15.96-10.39,24.42-2.55,8.77-6.54,17.8-1.9,27.21.21,1.58-.18,3.06-.82,4.48-2.06,1.44-1.8,3.02-.27,4.67-.28,2.07,1.62,4.75-1.69,5.96-1.75-.82-2.27-2.41-2.57-4.13-.72-4.09-1.94-8.13-2.63-12.14-.99-5.74-2.63-11.4-2.99-17.26-.31-5.09-2.16-9.87-2.89-14.91-1.29-8.89-2.44-17.78-2.99-26.74-.06-1.04.1-2.11-.18-3.11-.52-1.91-.2-4.96-2.71-4.96-2.13,0-4.24,1.85-4.96,4.35-1.29,4.43-2.23,9.08-1.1,13.51,1.81,7.14,1.44,14.46,2.69,21.65,1.45,8.32,2.37,16.84,4.56,24.92,1.45,5.34,2.37,10.86,3.52,16.18,1.52,7.05,2.35,14.34,4.37,21.32,1.55,5.34,2.08,11.47,5.73,15.63,3.96,4.51,4.21,10.23,6.96,14.98,3.73,6.45,5.99,13.48,8.77,20.32,2.53,6.24,5.12,12.46,8.58,18.33,2.69,4.55,4.22,9.77,7.64,13.96.77.94.55,2.21.37,3.4-1.29,8.91-4.02,17.48-6.41,26.1-1.47,5.3-3.93,10.19-8.22,14.3-12.25,11.7-24.04,23.88-36.04,35.84-3.94,3.93-4.55,3.93-8.5-.02-11.72-11.69-23.36-23.46-35.16-35.07-2.88-2.83-5.31-5.8-5.85-9.85-.82-6.11-3.8-11.52-5.27-17.46-3.73-15.03-6.51-30.26-10.21-45.29-1.77-7.18-3.65-14.37-8.12-20.51-2.38-3.27-5.57-4.75-9.54-3.71-4.07,1.07-6.05,4.3-7.33,8.01-.41,1.18-.11,2.38,1.08,3.06,1.12.64,1.63-.27,2.12-1.06.22-.33.51-.6.83-.83,4.22-.72,6,.33,7.39,4.2,1.71,4.76,3.34,9.48,3.62,14.64.12,2.18-.23,3.75-1.72,5.23-3.86,3.86-7.7,7.74-11.59,11.57-3.31,3.26-3.93,3.27-7.27-.07-13.9-13.85-27.76-27.75-41.64-41.62-2.76-2.76-5.56-5.47-8.24-8.3-.84-.88-2.05-1.7-1.47-3.26.02-.07.19-.11.29-.11.13,0,.25.06.38.1,1.56-2.62,4.3-3.6,6.77-5.01,7.59-4.32,14.99-9,22.76-12.98,4.74-2.43,10.1-3.6,14.5-6.85,5.68-4.19,9.46-10.14,14.24-15.17,5.96-6.26,10.77-13.52,17.06-19.57,3.11-3,6-6.48,8.53-10.02,3.29-4.61,7.78-7.69,11.76-11.45,2.61-2.46,2.34-6.71,3.58-10.1,3.18-8.71,6.21-17.47,9.33-26.19,3.56-9.93,7.17-19.87,11.35-29.51,2.59-5.96,4.7-12.18,7.84-17.94,2.74-5.04,5.15-10.27,7.51-15.5.72-1.59,2.08-2.7,2.78-4.08,4.69-9.26,11.32-17.3,16.37-26.29,1.9-3.38,5.18-4.88,7.77-7.17,11.19-9.86,24.43-16.1,38.66-20.33,10.79-3.21,21.7-5.57,33.01-6.39,10.76-.78,20.52,1.57,30.01,6.4,5.4,2.74,11.01,5.02,16.32,8,2.29,1.29,4.4,2.96,6.15,4.55,7.6,6.89,15.68,13.33,22.18,21.38,3.17,3.92,6.8,7.48,9.78,11.52,2.52,3.41,4.48,7.24,6.55,10.96,3.3,5.93,6.72,11.83,9.66,17.94,2.3,4.77,3.94,9.86,5.9,14.79,1.08,2.72.27,5.55.48,8.33,1.26,17.28-.87,34.17-4.77,51.11-2.49,10.8-5.97,21.08-10.26,31.13-3.49,8.16-8.15,15.82-11.42,24.11Z"/>
        <path class="cls-23" d="m119.24,244.7c-.79,1.6.86,1.96,1.52,2.62,16.78,16.87,33.65,33.66,50.4,50.56,1.91,1.92,2.97,2.06,4.85.03,3.98-4.29,8.23-8.32,12.36-12.46.88-.89,1.7-1.57,1.41-3.27-.86-5.02-1.81-9.94-3.5-14.81-1.28-3.68-3.28-4.96-6.82-4.69-.19-2.52,1.71-2.99,3.49-3.33,2.02-.39,3.68.64,4.61,2.3,2.29,4.09,4.39,8.29,5.3,12.95,2.8,14.31,6.26,28.47,9.66,42.65,2.28,9.49,4.93,18.91,7.67,28.23,3.64,12.42,7.02,24.98,12.24,36.97,2.98,6.85,5.65,13.92,8.26,20.97,1.59,4.3,4.11,8.14,5.62,12.44,3.29,9.35,9.2,17.37,13.36,26.31,2.9,6.24,6.75,12.21,10.67,18.01,2.61,3.87,5,7.95,7.78,11.66,3.39,4.53,6.93,9.09,11.32,12.75,1.95,1.63,3.34,3.66,4.84,5.56,4.2,5.31,10.19,8.29,15.29,12.4,2.41,1.95,3.6,4.18,3.85,7.29.32,4.02,1.13,8,1.04,12.05-.09,4-1.09,4.51-4.39,2.55-4.82-2.86-10.16-4.7-15.04-7.44-11.65-6.56-23.52-12.65-34.14-21.01-9.84-7.75-18.79-16.41-28.22-24.56-6.75-5.83-12.72-12.33-18.59-18.85-10.14-11.26-20.41-22.41-29.57-34.56-7.68-10.19-15.57-20.24-22.57-30.88-6.21-9.43-12.37-18.96-17.54-29.05-1.27-2.47-2.94-4.59-5.27-6.4-2.78,3.86-3.06,7.97-2.08,12.44,2.19,10.04,5.12,19.89,7.58,29.86,4.62,18.7,10.31,37.1,15.27,55.7.44,1.66,1.55,3.51-.6,4.9-3.08-2-2.99-5.61-4.36-8.49-2.98-5.85-5.52-11.83-7.34-18.2-.72-2.52-1.89-5.25-3.15-7.74-4.64-9.09-6.68-19.07-9.84-28.66-5.16-15.66-9.2-31.66-13.33-47.62-3.56-13.74-8.47-26.98-13.49-40.23-2.43-6.41-6-12.12-9.53-17.78-4.52-7.26-13.07-9.8-21.17-3.66-3.07,2.33-3.15,2.41-4.9.02.05-5.4,3.86-9.29,7.34-11.8,4.8-3.47,9.16-8.03,15.23-9.67,3.86-1.04,7.63-2.45,11.51-3.38,7.05-1.68,12.12-6.65,18.02-10.26,1.51-.93,2.34-3.74,4.98-2.44Z"/>
        <path class="cls-34" d="m62.15,282.26c.84.96,1.98,1.83,2.89.51,1.72-2.49,4.4-3.61,6.87-4.6,2.78-1.11,6.24-.76,8.9.42,3.17,1.4,6.28,3.26,8.33,6.54,5.09,8.14,9.59,16.69,12.64,25.67,4.18,12.31,9.02,24.45,11.4,37.38,1.3,7.09,4.44,13.83,5.96,20.9,1.88,8.76,4.67,17.23,7.39,25.7,2.75,8.58,5.15,17.29,8.82,25.6,3.14,7.09,5.48,14.53,8.27,21.78.5,1.29,1.44,2.4,2.18,3.6-1.02,1-.85,3.17-3,3.07-4.41-6.56-9.61-12.4-14.99-18.2-3.07-3.31-7.11-6.44-8.34-11.37-.37-1.48-2.22-.19-3.09-1.37-4.28-5.8-9.9-10.66-13.75-16.61-4.71-7.27-11.28-12.97-15.62-20.56-2.29-4-5.86-7.55-8.92-11.26-4.67-5.67-10.11-10.74-14.07-16.98-5.43-8.58-11.81-16.48-17.5-24.88-1.19-2.15.34-3.95.7-5.91,1.44-7.9,4.89-15.13,7.39-22.68,1.57-4.74,3.63-9.33,5.57-13.94.43-1.03,1.29-1.88,1.96-2.82Z"/>
        <path class="cls-23" d="m466.44,366.71c3.53,4.8,6.18,9.8,7.18,15.95.57,3.45.66,7.29,2.56,10.59,2.13,3.69,1.86,8.04,2.6,12.06,1.85,10.1,4.83,20,5.49,30.33.22,3.45,2.73,6.48,2.52,10.14-2.99,3.88-6.09,7.67-8.89,11.68-.87,1.25-1.26,2.68-2.92,3.29-1.31.48-1.55,1.74-1.84,3.12-.29,1.38-.18,3.75-2.95,3.26-.41-.07-1.3.65-1.43,1.14-1.86,7.1-8.22,10.88-12.16,16.44-2.32,3.28-3.89,7-6.56,10.07-3.06,3.52-5.67,7.46-8.47,11.18-2.98,3.95-6.45,7.54-9.15,11.65-3.65,5.54-6.8,11.4-12.43,15.3-.26.18-.29.69-.43,1.05-4.29,2.41-8.61,4.78-13.25,6.49-.8-.1-1.55-.35-2.02-1.02-5.4-7.67-11.62-14.81-15.17-23.67-.36-1.55-.31-3.13-.32-4.71-.15-11.8,1.93-23.45,2.49-35.2.42-8.79,1.4-17.56.87-26.4-.34-5.57,1.43-11.07,1-16.69-.67-8.7,1.36-17.24,1.47-25.95.1-8.21.56-16.64,2.23-24.69,1.09-5.28,1.87-11.34,6.86-15.13,4.43-1,8.71-2.66,13.29-3.03,3.72-.3,4.42.18,3.69,3.78-1.78,8.81-1.68,17.87-3.77,26.65-1.04,4.38.28,9.11-1.64,13.48-.57,1.3.26,2.61,1.68,3.1,1.37.47,2.2-.51,2.88-1.49,1.22-1.74.62-3.8.9-5.71,1.79-12.18,3.09-24.43,4.82-36.62.35-2.44.99-4.61,3.13-6.01,2.39-1.55,4.68-.53,4.55,2.19-.51,11.33,1.01,22.55,1.8,33.8.28,3.95.22,8.02,1.42,11.9.33,1.08.26,2.61,1.77,2.66,1.32.04,1.97-1.21,2.36-2.31.71-2,.65-4.07.39-6.17-.84-6.82-1.47-13.64-1.96-20.5-.43-6.08-.49-12.2-1.23-18.25-.28-2.29-.6-4.65,2.62-5.04,2.48-.3,3.67,1.24,3.84,4.63.42,8.22,1.55,16.29,5.03,23.86.56,1.21.61,2.51.61,3.83.02,5.51,2.48,10.31,4.57,15.19.4.93,1.15,2,2.36,1.67,1.47-.4,1.27-1.73,1.11-2.93-1.01-7.34-3.51-14.31-5.33-21.45-1.22-4.76-2.19-9.58-3.8-14.26-.67-1.94-.91-3.98-2.03-5.83-1.37-2.24-.5-3.63,2.06-3.27,6.22.87,12.2,2.58,17.64,5.86Z"/>
        <path class="cls-32" d="m482.11,660.78c-.09,1.49-1.33,1.44-2.31,1.75-5.19-1.73-10.59-2.62-15.98-3.25-7.55-.88-15.19-1.14-22.74-1.72-6.87-.53-13.66.05-20.47-.26-4.2-.19-8.57.76-12.84,1.27-5.12.61-10.27.54-15.39,1.33-10.8,1.65-21.59,3.23-32.28,5.52-4.43.95-8.9,2.47-13.13,3.24-7.91,1.45-15.12,5.62-22.97,5.97-4.55.2-9.29,1.63-13.91.16-5.76-2.39-11.75-4.15-17.52-6.57-4.76-2-9.36-4.87-14.25-5.97-9.11-2.05-17.13-6.66-25.72-9.83-7.21-2.66-14.62-5.24-21.53-8.81-2.39-2.37-2.33-2.66,1.33-5.29-14.89-5.13-29.36-11.09-44.21-16.06-9.23-3.09-18.55-5.9-27.74-9.07-.99-.34-.97.24-1.35.57-1.48-.5-3.43-.19-4.02-2.26,5.14-2.01,10.55-2.87,15.98-3.62,1.51-.21,3-.63,4.49-.95,1.98,2.13,4.8,2.74,7.33,3.72,9.67,3.75,19.43,7.34,29.07,11.13,9.3,3.66,18.83,6.7,28.05,10.57,3.05,1.28,6.43,2.84,10.46.19-7.35-1.86-13.42-5.35-20.15-7.28-7.1-2.03-14.13-4.47-21.08-7-3.81-1.39-7.74-2.2-11.58-3.36-6.72-2.02-13.17-4.8-19.95-6.62-.72-.19-2.03-.19-1.48-1.67,3.44-.95,6.88-1.89,10.32-2.84,2.42-1.57,5.25-2.16,7.87-3.22,2.74-1.11,4.6.88,6.41,2.59,3.26,3.87,6.95,5.26,12.26,4.01,5.43-1.28,11.2-1.13,16.84-1.28,2.58-.16,5.17-.21,7.72-.76,5.46,2.96,11.33,4.9,17.05,7.21,6.63,2.68,13.56,4.4,20.09,7.27,2.51,1.1,5.09,1.95,7.83,2.22,1.71.17,3.39.18,4.58-1.51-.72-1.5-2.3-1.63-3.54-2.03-10.36-3.31-20.48-7.26-30.72-10.92-3.27-1.17-6.31-2.89-9.85-3.39-1.43-.2-3.07-.75-3.84-2.37.36-2.87,1.18-5.52,3.27-7.69,1.41-1.46,1.94-3.36,2.3-5.31.7-1.46,2.24-1.82,3.45-2.61,6.88-4.85,13.09-3.49,19.58,1.28,6.35,4.67,13.21,2.67,19.4-.73,2.18-1.2,4.42-1.3,6.57-2.09,9.38-3.45,18.95-6.35,27.84-11.04,2.13-1.12,4.28-.91,6.16.78,4.84,4.35,10.36,7.82,15.28,12.08,4.3,3.72,9.05,3.3,13.8.74,2.71.93,5.57,1.27,8.33,2.03,1.49.73,2.6,1.73,2.53,3.56-.18,1.01-.85,1.72-1.77,1.88-9.41,1.6-17.81,6.17-26.49,9.64-9.98,3.99-20.57,6.28-30.21,11.11-4.32,2.16-9.06,3.26-13.43,5.31,7.15,3.01,14.39,5.59,21.67,7.94,5.03,1.62,10.1,3.28,15.22,4.69,2.11.58,4.07.06,5.58-1.04,3.72-2.72,8.23-3.41,12.37-4.49,6.63-1.72,13.34-3.31,20.15-4.44,8.22-1.36,16.47-2.42,24.72-3.3,8.51-.91,17.1-1.07,25.67-1.22,10.95-.18,21.7,1.38,32.44,3.2,6.1,1.03,11.93,3.11,18.7,4.77-7.81-4.5-13.83-10.14-20.99-14.15-8.49-4.75-16.73-10.08-25.89-13.39-5.65-2.05-11.44-3.98-17.53-4.78-3.12-.41-6.58-.96-7.47-5,.11-.15.22-.3.32-.45,7.28-1.73,14.2.25,20.99,2.41,10.12,3.23,19.55,7.88,28.72,13.38,5.6,3.36,11.66,6.39,16.58,10.42,5.49,4.5,12.02,7.7,16.71,13.21.98,1.15,2.43,1.9,3.7,2.79,2.01,1.42,4.05,2.8,4.85,5.32-.78,2.38-.51,4.77-.04,7.16-2,1.55-3.5-.21-4.94-.97-7.72-4.07-15.59-7.84-24.13-9.74-11.91-2.65-23.84-5.07-36.18-5.27-11.72-.18-23.41.29-35.04,1.32-5.88.52-11.79,1.86-17.67,2.59-7.12.89-14,2.56-20.97,4.01-5.42,1.13-10.78,2.54-16.2,3.69-4.84,1.03-9.4.64-14.21-.7-12.04-3.37-23.57-8.19-35.45-12.02-3.6-1.16-6.83-1.39-10.09.63-.5.31-1.09.45-2.08.19,13.32,4.74,26.22,9.48,39.11,14.25,5.68,2.1,11.61,3.69,16.96,6.71,1.3.73,2.69.76,4.14.19,17.3-6.83,35.49-8.75,53.83-10.27,7.34-.61,14.69-1.34,22.04-1.78,10.63-.63,21.3-.72,31.92.31,9.06.88,18.1,2.03,26.98,4.1,6.84,1.6,13.6,3.58,19.61,7.45-.48,3.63-3.71,5.46-5.5,8.24-.9,1.39-2.11,2.54-2.34,4.28Z"/>
        <path class="cls-11" d="m367.25,592.69c-.22-1.5-1.21-2.4-2.44-3.11-10.5-10.21-21.57-19.89-29.84-32.17-.22-.32-.46-.63-.72-.92-1.15-1.3-2.68-2.79-4.23-1.6-1.33,1.02.07,2.65.87,3.76,7,9.7,14.64,18.82,24.12,26.25.83.65,1.6,1.33,1.94,2.37-4.32,4.79-11.45,2.34-14.74-.32-5.39-4.35-10.66-8.88-16.27-12.93-2.53-1.83-5.21.57-7.31,1.74-8.22,4.61-17.27,7.13-26.06,10.02-4.52,1.48-8.6,4.06-13.77,4.69-6.49.8-10.97-1.68-15.5-4.81-4.17-2.88-7.81-2.91-11.76-.04-.95.69-2.12.99-3.33.91-1.39.15-1.79-.96-2.09-1.88-1-3.06-2.57-6.03-3.25-9.06-1.89-8.47-5.02-16.57-7.09-24.97-.41-1.65-.89-3.27-3.21-2.34-1.02-2.04.12-3.72,1.45-4.74,1.77-1.36,2.85-3.31,4.62-4.59,2.19-1.26,4.6-1.12,6.85-.57,3.69.91,6.73-.21,9.41-2.5,2.62-2.23,5.78-3.82,8.87-4.5,3.85-.86,7.97-1.23,12.02-1.1,7.84.26,15.56-.74,23.24-2.18,4.02-.75,8.04-.24,12.05-.02.76.04,1.52.48,2.22-.15,4.64-.78,8.17-3.76,12.08-6.02,5.24-3.03,11.11-2.41,15.28,1.71.95.94,2.13.52,3.03,1.15,5.79.21,9.81,3.39,12.66,8.05,1.76,2.88,3.44,5.41,7.17,5.69.95.07,1.6.79,1.5,1.9-.96,1.22-2.21,2.55-.6,4,3.04,2.74,4.18,6.76,6.87,9.77,1.82,2.03,3.54,4.07,5.82,5.59.61.4,1.42.77,1.02,1.78-1.55,3.58,2.16,4.71,3.65,5.88,3.01,2.36,4.38,5.84,7.05,8.4,2.15,2.06,4.48,4.08,6.63,6.15,2.19,2.11,4.18,4.1,5.33,6.9,0,0,.03-.04.03-.04-3.93,4.31-11.28,4.27-15.56-.06-5.16-8.24-12.95-14.09-19.37-21.19-5.38-5.95-11.79-10.92-16.61-17.41-.55-.74-1.23-1.34-2.06-1.76-.61-.31-1.24-.44-1.82.03-.58.48-.57,1.14-.39,1.79.31,1.16.92,2.19,1.77,2.99,8.98,8.58,17.32,17.82,26.57,26.13,2.05,1.84,4.16,3.5,6.56,4.85.94.53,2.32.78,2.25,2.35-.89,1.09-.78,2.32-.72,3.64.25,5.59-3.1,8-8.43,6.12-2.19-.77-4.33-1.67-5.77-3.65Z"/>
        <path class="cls-2" d="m378.14,561.56c-4.62-2.49-7.67-6.46-10.35-10.82-1.13-1.85-2.16-3.67-3.89-5.22-2.73-2.44-2.28-3.74,1.05-5.3.47-.27,1.02-.44,1.47-.15,5.86,3.8,12.83,4.69,19.12,7.35,2.07,1.13,4.57,1.2,6.53,2.61,7.32,3.22,15.15,4.59,22.86,6.4,1.33.31,2.66.67,3.97,1.09,1.41.45,1.6,1.8,1.79,2.97.17,1.07-.48,1.73-1.43,2.41-5.23,3.68-10.9,3.2-16.97,3.12-7.52-.09-14.51-2.25-21.76-3.26-.83-.12-1.59-.79-2.38-1.21Z"/>
        <path class="cls-19" d="m392.06,550.04c-2.31.26-4.34-.51-6.26-1.71-.53-1.96.03-3.9.33-5.79.99-6.18.53-12.36.23-18.54-.13-2.69.96-5.07,1.35-7.62.22-1.47,1.26-1.44,2.19-.33,4.79,8.59,10.32,16.68,16.4,24.4-3.8,2.21-7.68,4.3-11.35,6.69-1.07.7-2.51,1.36-2.88,2.9Z"/>
        <path class="cls-22" d="m489.95,648.27c-1.01.85-2.12.04-2.75-.32-10.01-5.76-21.19-6.97-32.27-8.81-10.97-1.83-22.02-2.14-33.04-2.19-4.12-.02-8.49.09-12.77.92-3.45.67-7.22.43-10.84.66-13.9.9-27.67,2.25-41.37,4.9-7.44,1.44-14.67,3.2-21.56,6.27-2.75,1.23-4.94-.57-6.75-1.52-3.67-1.93-7.54-2.98-11.36-4.36-3.57-1.29-7.29-2.33-10.68-3.86-4.54-2.05-9.23-3.83-13.87-5.38-6.38-2.13-12.44-5-19.62-7.13,1.39-.24,2.17-.14,2.6-.48,5.72-4.49,11.13-1.62,16.89.19,9.14,2.87,17.97,6.56,27.08,9.51,7.35,2.38,14.7,3.23,21.71.8,5.42-1.88,11.01-2.47,16.46-3.9,4.7-1.24,9.6-2.08,14.5-2.77,5.97-.84,12.03-1.43,17.98-2.81,4.87-1.13,10.06-.94,15.11-1.17,4.9-.22,9.81-.49,14.7-.28,6.09.26,12.17-.05,18.29.81,7.02.98,13.94,2.44,20.91,3.6,6.07,1.01,11.62,3.39,17.33,5.45,5.45,1.96,10.08,5.57,15.66,7.16.69.44,2.02-.32,2.2,1.03.13,1.01-.83,1.13-1.5,1.48-1.12.58-2.5.82-3.06,2.19Z"/>
        <path class="cls-2" d="m385.08,274.43c7.79-9.43,15.57-18.86,23.36-28.29.79.15,1.32.62,1.92,1.17,2.63,2.41,5.85,2.07,7.58-1.01,4.99-8.88,11.87-16.31,18.45-23.92,2.89-3.34,6.58-6.2,11.17-7.32-3.36,4.79-6.11,9.95-10.57,14.04-3.67,3.36-6.55,7.61-9.63,11.58-1.65,2.13-3.13,4.44-4.42,6.81-.85,1.56-1.02,3.59,1.26,4.05,1.96.39,4.04,2.81,6.15-.15,5.58-7.84,12.06-14.94,19.09-21.47,2.13-1.98,4.88-3.78,8.38-3.32-.23,2.05-1.47,3.46-2.69,4.7-3.99,4.05-7.71,8.45-11.9,12.14-2.71,2.4-3.8,5.82-6.7,7.81-1.04.71-1.75,1.64-.75,2.93.87,1.13,1.83,1.55,3.37,1.11,4.07-1.16,6.7-4.67,10.46-6.2,4.12-1.67,7.08-5.97,12.28-5.23,1.86.27,3.51.73,3.64,2.74.15,2.26-1.84,1.48-3.11,1.74-1.63.34-3.19.61-4.8-.11-.44-.2-1.04-.26-1.51-.16-1.03.21-6.32,8.48-5.74,8.89,2.64,1.83.3,3.56-.07,5.05-.71,2.84-2.08,5.53-3.24,8.25-.92,2.16-3.11,2.57-4.97,2.94-10.3,2.02-17.46,8.29-23.42,16.48-1.72,2.36-1.45,4.95-1.8,7.43-.93,6.55-2.97,13.01-1.87,19.75.53.9.59,2.02-.36,2.39-4.68,1.82-7.99,5.82-12.57,7.76-.61.26-1.24.38-1.9.22-1.66-.79-1.95-2.38-2-3.9-.14-4.17-2-7.63-4.25-10.96-4.45-4.71-8.68-9.51-11.3-15.61-1.24-2.88-1.92-5.56-1.15-8.6,1.17-4.59.5-9.65,3.6-13.73Z"/>
        <path class="cls-23" d="m399.99,326.87c3.92-1.08,6.74-3.94,9.84-6.28,1.7-1.28,4.8-.63,5.18-3.71.71.3,1.32.54,2.16.06,10.38-5.85,20.38-4.6,30.07,1.73.89.58,1.77,1.04,2.79.28.44.46.82,1.26,1.32,1.33,6.24.91,7.54,5.88,8.84,10.75,1.52,5.72,3.2,11.38,3.56,17.4.19,3.21-2.66,3.72-3.54,5.8-6.48.16-12.94-.93-19.42-.37-7.38.63-14.68,1.8-21.73,4.17-.86.29-1.71.63-2.6.84-.98.23-2.15.92-2.93,0-.83-1,.16-1.99.74-2.76,2.3-3.06,1.12-5.89-1.01-8.12-4.39-4.6-8.84-9.18-14.11-12.85-1.75-1.22-3.61-1.85-5.66-2.14-.29-4.66,3.73-4.73,6.51-6.12Z"/>
        <path class="cls-12" d="m393.84,333.04c1.8-1.58,2.97-.22,4.58.64,6.41,3.4,10.84,9.08,15.96,13.88,3.53,3.31,2.88,5.98-.93,11.54,8.38-3.85,16.78-5.24,25.15-6.04,7.15-.68,14.5-.93,21.6,1.19.43,3.82.69,7.67,4.65,9.91.77.43,1.07,1.69,1.59,2.56-5.74-1.16-10.95-4.2-16.87-4.74-.94-.09-2.04-1.23-2.79.08-.61,1.07.74,1.47,1.19,2.18.41.65,1.08,1.25,1.2,1.95,1.21,7.42,3.98,14.44,5.52,21.75,1.25,5.95,3.63,11.6,4.36,17.66.23,1.88.31,3.97-1.74,4.62-1.85.59-3.36-1.25-3.8-2.61-1.83-5.55-5.29-10.68-4.47-16.96.29-2.19-1.55-3.74-2.17-5.7-2.25-7.18-3.65-14.53-3.6-22,.02-2.88-1.67-2.74-3.05-2.73-1.88,0-2.12,1.51-1.61,3.15,1.21,3.86.26,7.86.77,11.79,1.23,9.35,1,18.84,2.6,28.19.54,3.17.67,6.67-2.51,9.21-1.72,1.37-2.25.7-3.12-.76-1.48-2.51-1.63-5.4-1.76-8.04-.46-8.66-1.88-17.25-2.18-25.85-.15-4.38-.83-8.91-.09-13.38.16-1,.64-2.57-.53-3.13-1.47-.71-2.65.38-3.69,1.47-1.06,1.11-1.38,2.39-1.51,3.88-.64,7.22-2.53,14.32-2.98,21.47-.41,6.42-2.05,12.68-1.98,19.07.03,2.85-1.82,3.83-3.37,5.21-.99.88-1.85-.22-2.67-.86-1.96-1.53-2.16-3.52-1-5.43,1.11-1.82,1.15-3.67,1.06-5.6-.19-3.94.82-7.7,1.38-11.54,1.1-7.59,1.43-15.3,3.13-22.82.36-1.61-.45-1.67-1.75-1.47-3.95.61-8.03.74-11.61,2.73-1.13.62-1.9.51-2.86,0-4.41-2.8-6.67-7.5-5.7-12.38.45-2.27.24-4.35-.71-6.42-1.74-3.77-2.5-7.88-4.05-11.73-.52-1.28-.97-2.75.38-3.94Z"/>
        <path class="cls-34" d="m313.31,527.94c-1.98,2.33-4.45.69-6.63.65-5.84-.09-11.58.99-17.21,1.93-7.34,1.23-14.69.36-22.01,1.35-4.43.6-8.08,2.24-11.55,4.53-3.46,2.29-6.65,4.31-11.14,2.83-1.73-.57-3.94-.61-5.83.37-1.55.17-3.06.23-4.62-.16-5.64-1.42-11.4-.14-17.09-.67-1.26-.12-2.18.71-2.9,1.71-1.01,1.4-2.39,2.38-3.78,3.35-1.31.92-2.61,1.27-3.75-.23-1.71-2.23-2.53-.97-3,.83-3.57,13.59-6.98,27.22-6.29,41.45.16,3.27,1.27,6.35,2.27,9.46.88,2.75,2.29,5.56.72,8.55-3.05-4.49-6.78-1.9-10.29-.89-1.23.35-2.36.97-3.69.75,1.83-1.57,1.39-3.8,1.44-5.76.12-5.19,2.4-10.16,1.49-15.78-4.03,1.95-8.42.95-12.34,1.87-7.42,1.75-15.07,2.08-22.36,4.16-2.67.76-5.35-.22-7.98,1.01-1.33.62-2.15-1.49-2.24-2.61-.1-1.29-.1-2.6,1.77-3.63,3.44-1.89,7.22-1.78,10.77-2.53,6.76-1.44,13.75-1.74,20.62-2.7,3.5-.49,6.99-.65,10.51-.71,1.6-.03,2.95-.03,2.33-2.33-.54-2.01,1.13-3.62,1.25-5.6.11-1.88-.17-1.95-2.07-1.87-5.72.24-11.38,1.74-17.18.55-3.27-.67-6.72-.02-9.92.39-5.27.68-10.51.14-15.74.59-1.56.13-3.45-.52-3.36-2.92.09-2.4,1.33-3.68,3.67-3.59,7.71.29,15.45-.11,23.09-.47,7.3-.34,14.56-.03,21.84-.18,1.04-.02,1.25-.25,1.47-1.17.59-2.51,2.5-5.46,1.73-7.35-1.06-2.57-4.28-.17-6.56-.28-6.72-.32-13.59-.14-20.11-1.15-4.94-.76-9.99.08-14.83-1.52-1.97-.65-2.88-1.97-2.92-3.57-.04-1.41,1.58-3.1,2.75-2.75,4.06,1.24,8.41-.28,12.1.92,3.93,1.28,7.59.14,11.35.69,6.24.91,12.63.92,18.58,3.31,1,.4,1.15-.03,1.35-.58,1.21-3.26,1.84-6.73,4.02-9.62.94-1.25-1.15-.51-1.21-1.29-4.57-4.64-8.02-10.16-11.95-15.3-7.72-10.09-15.21-20.37-23.05-30.36-6.64-8.46-10.24-18.25-13.96-28.06-.83-2.18-1.8-4.32-2.4-6.6-.26-1-.85-2.01.52-2.67,1.76-3.48-.65-6.5-1.41-9.56-2.04-8.29-4.93-16.37-7.18-24.61-2.54-9.27-4.67-18.66-7.12-27.96-2.15-8.2-4.77-16.28-6.32-24.64-.91-4.89-3.26-9.73.51-14.44.23-.29.04-.99-.09-1.46-.18-.66-.39-1.45.28-1.72.46-.18,1.36.09,1.74.47,1.89,1.93,4.18,3.61,5.35,6.09,4.98,10.55,11.4,20.31,17.79,29.95,6.84,10.32,14.45,20.2,22.05,30.03,7.2,9.32,14.48,18.63,22.54,27.09,7.07,7.43,13.1,15.86,21.01,22.46,9.43,7.87,17.48,17.25,27.37,24.6,5.23,3.89,10.14,8.27,15.61,11.77,4.69,3,9.61,5.71,14.43,8.54,8.49,4.99,17.82,8.38,26.18,13.63,1.46.91,1.96.31,1.85-1.07-.42-5.56-.47-11.22-1.58-16.65-.6-2.97-4.02-4.54-6.61-6.19-5.56-3.55-10.57-7.62-14.35-13.13-.91-1.32-2.47-2.16-3.63-3.33-8.1-8.2-14.15-17.86-20.29-27.54-5.45-8.59-9.38-17.98-14.66-26.55-4.82-7.82-8.17-16.26-11.85-24.48-3.05-6.81-6.86-13.51-8.15-21.21-.65-3.89-3.61-7.24-4.75-11.29-2.07-7.36-4.22-14.74-6.65-21.94-3.06-9.07-4.94-18.43-7.95-27.51-2.28-6.89-3.56-14.25-5.14-21.42-1.74-7.9-3.73-15.79-5.38-23.72-1.06-5.11-2.67-9.91-4.72-14.64-2.02-4.66-5.02-5.13-8.42-1.22,0,0,0,0,0,0-1.68,2.08-2.58,1.44-2.84-.87-.39-3.45,2.4-6.87,6.03-7.52,4.1-.73,7.76.95,9.94,4.57,2.64,4.39,4.59,9.17,5.65,14.09,1.69,7.88,3.77,15.67,5.03,23.66.76,4.82,2.12,9.67,3.81,14.27,1.37,3.72,1.77,7.57,2.73,11.33,3.18,12.44,6.82,24.72,11.16,36.8,2.68,7.46,4.26,15.27,7.25,22.63,4.2,10.33,8.74,20.51,13.42,30.64,3.15,6.84,6.91,13.35,9.96,20.23,1.99,4.5,4.22,9.01,7.04,13.02,7.53,10.72,13.82,22.38,22.6,32.12,4.82,5.34,9.37,11.2,16.24,15.64.14-4.75,0-8.96-.17-13.16-.13-3.24-.95-6.45-.29-9.72.38-1.89-.76-2.81-2.21-3.68-7.09-4.26-13.42-9.42-18.58-15.92-.16-.2-.36-.38-.49-.61-.91-1.58-3.43-3.23-1.49-4.96,1.63-1.46,3.03,1.06,4.49,1.97,7.58,4.74,14.54,10.5,23.26,14.3.66-7.82,2.46-15.28,1.12-22.95-.41-2.32-.32-4.68-.37-7.02-.04-1.68-.5-2.69-2.23-1.99-2.97,1.19-6.17.47-9.19,1.34-2.54.74-4.93-.35-7.09-1.5-2.07-1.11-2.24-3.51-.7-5.35,1-1.19,2.27-1.57,3.79-1.68,2.03-.16,4.74,1.94,5.84.03,1.35-2.33,1.64-5.4,2.06-8.22,1.32-8.74,1.27-17.58,1.7-26.38.28-5.67-.13-11.37.69-17.02.67-4.6,1.43-9.07,3.7-13.35,4.15-7.81,7.64-15.98,9.99-24.55,2.2-8.02,4.79-15.95,5.86-24.25.16-1.22.3-2.26-.37-3.35-4.78-7.73-8.34-16.11-12.32-24.23-4.68-9.56-8.86-19.39-13.23-29.11-.58-1.29-1.19-2.76.72-3.65,1.98.15,2.71,1.8,3.7,3.13,7.23,9.66,15.57,18.35,24.5,26.38,4.9,4.41,10.28,8.61,17.25,9.71,3.3.52,6.59,1.09,9.9,1.44,1.55.17,3.18.03,3.87,1.9-1.29,4.96-6,6.92-9.09,10.3-3.1,3.38-7.34,5.3-10.83,8.18-.51.42-1.04.94-1.67.96-4.66.2-6.32,2.93-6.85,7.23-.41,3.32-1.68,6.53-2.3,9.86-2.11,11.27-5.63,22.05-10.58,32.42-3.52,7.39-4.54,15.43-3.89,23.57.22,2.82-.92,5.35-.77,8.12.52,9.12-.39,18.16-2.15,28.01,3.65-2.67,6.78-4.9,9.44-7.49,6.04-5.88,11.35-12.49,16.22-19.33,3.73-5.25,6.73-11.07,9.66-16.84,5.61-11.05,9.81-22.69,13.14-34.59,1.98-7.06,4-14.21,4.24-21.66.05-1.61.91-2.97,1.3-4.48,1.73-6.81,2.24-13.71,2.3-20.72.03-3.22.31-6.5,1.33-9.64.45-.48.96-.53,1.51-.2,4.35-.03,4.62,3.55,4.79,6.28.42,6.38.22,12.9-1.2,19.09-1.44,6.29-1.99,12.69-3.35,18.99-1.82,8.47-4.16,16.75-6.65,25.01-4.29,14.23-10.25,27.59-18.84,39.87-2.97,4.24-6.03,8.51-8.79,12.95-.95,1.52-2.71,2.75-3.96,4.1-4.27,4.6-8.75,8.93-13.68,12.78-1.33,1.04-1.4,2.18-1.24,3.69.75,7.27.95,14.53.68,21.87-.16,4.26,0,8.42-.89,12.68-.46,2.23.9,4.72,3.99,4.98,4.8.39,9.73,1.63,14.38.96,7.06-1.02,13.25-4.33,17.14-10.91,3.1-5.25,4.21-11.28,6.88-16.74,1.8-3.67,2.13-8.14,2.68-12.3.23-1.73.73-2.76,2.31-2.96,1.71-.22,3.17.58,3.39,2.4.82,6.66,2.91,13.05,2.88,19.96-.03,7.44-.34,14.76-1.81,22.01-1.03,5.13-3.38,9.87-5.59,14.54-4.07,8.63-10.28,15.59-17.57,21.85-7.13,6.12-14.91,6.19-23.23,4.49-5.1-1.04-5.11-1.16-4.98,4.06.09,3.37,1.24,6.62.48,10.14-.4,1.83,1.18,3.35,3.32,3.64Z"/>
        <path class="cls-21" d="m148.96,454.32c1,6.06,3.78,11.52,5.9,17.2,1.38,3.7,2.98,7.35,4.84,10.84,3.58,6.71,9.11,12.06,13.23,18.41,5.74,8.84,13.05,16.49,18.96,25.26,2.53,3.76,5.49,7.36,7.91,11.27-5.42-1.15-10.56-3.13-15.75-5.04-5.12-1.89-10.51-3.01-15.73-4.64-7.21-2.25-14.5-4.14-21.98-5.11-6.9-.89-13.8-2.04-20.8-1.74-1.15-1.35-.45-2.28.69-3.13.88-3.43,3.07-6.44,3.2-10.11.81-3.41,1.04-6.95,2.41-10.23,2.87-7.75,4.45-15.82,6.18-23.87,1.23-5.71,1.72-11.59,4.21-17.03,1.05-2.29.98-4.99.57-7.55,1.74-.3.43-3.58,3-3.07,1.06,2.85,2.12,5.7,3.18,8.55Z"/>
        <path class="cls-12" d="m126.22,517.63c-.4,1.01-.89,1.99-.69,3.13-1.85,3.13-5.05,2.6-7.88,2.73-2.78.13-5.65.18-8.34-.41-2.52-.55-1.8,1.91-3.1,2.51-5.19,2.43-10.62,4.18-16.08,5.8-5.99,1.77-11.72,4.15-17.45,6.59-5.88,2.51-11.14,6.19-17.07,8.63-2.16.89-4.12,2.7-6.36,3.77-1.78.85-3.58,1.44-5.02-.54-1.53-2.11-.22-2.95,1.55-4.14,6.68-4.49,13.92-7.84,21.18-11.21,8.22-3.82,16.25-8.07,25.39-9.37.33-.05.61-.44.99-.74-2.15-.67-10.31-1.14-12.39-.26-2.69,1.14-5.57,1.29-8.27,1.43-6.92.36-11.26,4.64-16.28,8.56-3.97,3.1-7.44,6.71-11.42,9.77-1.72,1.32-2.45.31-2.91-.91-.61-1.61-.71-3.57.56-4.83,7.61-7.57,14.68-15.92,26.08-18.16,6.19-1.22,12.36-1.95,18.69-1.97,6.39-.02,12.77-.73,19.16-.94,2.4-.08,4.82.37,7.28.36-6.5-3.28-13.54-4.67-20.59-6.02-3.18-.61-6.39-1.13-9.24-2.83-.54-.32-1.14-.85-1.69-.82-8.74.46-17.03-2.83-25.69-3.14-1.47-.05-3.07,1.12-4.47-.17-1.05-.97-3.3-1.07-2.86-3.1.42-1.93,1.88-3,4.01-2.96,3.3.06,6.6-.25,9.9.46,6.86,1.48,13.98,1.34,20.8,3.16,8.3,2.21,16.66,4.21,24.88,6.68,5.54,1.67,10.58,4.56,15.22,8.05.64.48,1.25.93,2.1.88Z"/>
        <path class="cls-12" d="m131.83,497.3c.16,3.64-.29,7.13-2.41,10.23-.53-3.16-3.99-3.83-5.34-6.65-2.86-5.97-5.73-12.04-9.12-17.66-4.13-6.84-6.7-14.39-10.85-21.18-1.98-3.24-3.24-6.96-4.68-10.52-.97-2.39-3.01-4.76-4.14-7.21-4.41-9.58-9.31-18.9-14.48-28.06-2.22-3.93-4.76-7.6-5.2-12.62,3.02.88,5.27,2.55,6.51,4.85,3.93,7.32,8.58,14.22,12.69,21.44,4.05,7.1,7.25,14.61,11.37,21.69,3.85,6.62,7.09,13.75,10.46,20.73,2.57,5.33,5.65,10.49,8.56,15.69,1.31,2.35,1.59,5.21,3.57,7.21.87.88,1.18,2.68,3.07,2.06Z"/>
        <path class="cls-6" d="m176.2,606.59c1.46,1.35,3.37,1.59,5.17,2.07,1.99.53,4.19.6,5.99,1.49,6.06,3.02,12.7,4.08,19.06,6.07,7.5,2.34,14.89,5.04,22.34,7.55,3.87,1.31,7.82,2.4,11.64,3.86,3.29,1.26,6.34,3.16,9.91,3.74.63.1,1.63.46,1.54,1.48-.08.92-.95,1.06-1.65,1.41-3.54,1.77-6.97.44-10.14-.76-8.56-3.26-17.3-6.04-25.79-9.35-7.15-2.79-14.3-5.74-21.48-8.49-5.89-2.26-11.47-5.19-17.42-7.27-1.66-.58.35-.95.18-1.48.18-.18.41-.29.66-.32Z"/>
        <path class="cls-15" d="m159.09,613.75c.61-.39-1.66-2.46.93-1.66,14.22,4.43,28.46,8.81,42.38,14.17,5.9,2.27,12.14,3.75,17.79,6.49,4.65,2.25,9.84,2.9,14.39,5.59-.19,2.39-7.12.47-3.51,5.27-5.01-.53-8.91-3.85-13.51-5.43-.82-.29-1.39-.42-2.08.04-.9-1.1-1.87-2.13-3.36-2.39-5.16-.91-9.61-3.64-14.38-5.55-8.88-3.55-17.78-7.07-26.46-11.06-4.05-1.86-8.24-3.39-12.19-5.46Z"/>
        <path class="cls-18" d="m362.16,284.51c-.41.07-.82.15-1.23.22-2,4.09-6.67,6.85-10.14,6.02-3.33-1-6.82-1.03-10.18-1.7-3.67-.74-7.35-1.43-10.89-3.16-3.52-1.72-5.99-4.65-9.38-6.44-1.87-.98-3.33-2.83-4.83-4.42-8.06-8.58-16.36-16.95-23.39-26.43-4.14-2.8-5.73-7.15-7.08-11.64-.76-4.94-1.41-9.88.15-14.8,2.95-7.45,6.81-14.5,9.57-22.05,1.42-3.87,4.48-7.11,5.54-11.13,1.33-5.04,3.95-9.57,6.15-14.08,3.39-6.95,7.02-13.86,10.6-20.75,4.78-9.17,9.74-18.25,14.27-27.56,1.91-3.93,4.29-7.61,5.44-11.89.75-2.58,2.91-3.67,5.03-4.83,2.85-.16,5.56-1.05,8.32-1.66,1.21-.27,2.44-1.1,3.64.05.84.97,2.09,1.34,3.18,1.24,4.71-.45,9.18,1.65,13.88,1.2,2-.19,3.8.79,5.7,1.15,12.87,2.44,25.75,4.97,38.12,9.35,6.71,2.38,13.21,5.4,19.24,9.28,1.44.93,2.79,2.09,4.47.49,1.17-.36,1.99.27,2.7,1.03,3.48,3.78,7.38,7.1,11.38,10.31.71.57,1.22,1.31,1.36,2.26-.07.78-.18,1.55-.4,2.3-1.85,6.55-3.69,13.11-5.54,19.66-.69,2.43-.54,5.13-2.35,7.18-.82,1.94-1.95,3.81-2.4,5.84-2.15,9.53-7.26,17.82-11.56,26.33-3.1,6.14-6.4,12.49-11.14,17.75-3.52-2.61-4.39-2.61-7.58.02,2.09,2.06,4.67-.21,6.86.77-.32,4.22-4.12,6.22-6.14,9.35-3.9,6.07-8.37,11.74-13.52,16.9-5.24,5.25-10.74,10.16-16.3,15.06-4.37,3.86-8.29,8.29-12.92,11.93-2.89,2.27-5.75,4.57-8.62,6.86Z"/>
        <path class="cls-23" d="m285.84,236.89c1.38,4.28,3.25,8.3,6.28,11.7-1.95,3.01.94,5.24,1.9,7.2,4.91,10.02,8.64,20.58,13.95,30.37,3.53,6.52,5.95,13.62,10.4,19.65.28.38.65.95.55,1.32-3.69,14.05-6.29,28.42-12.52,41.7-1.91,4.07-4.56,8.02-5.84,12.06-1.82,5.71-3.17,11.88-2.44,18.26.33,2.85.26,6.04-.21,8.87-1.29,7.72.22,15.52-1.53,23.31-.74,3.28-1.91,6.92-1.58,10.63.15,1.67-.83,3.17-3.33,2.1-1.58-.68-3.51-.72-5.29-.74-1.87-.02-2.62,1.63-2.83,3.06-.16,1.1.46,1.97,2.04,2.65,4.84,2.09,9.44.11,14.08-.21,2.57-.18,5.1-2.51,4.15,2.86-.73,4.13.95,8.44.95,12.76,0,5.72-1.31,11.27-1.62,16.95-.11,1.98-1.39,1-2.49.57-5.6-2.16-10.05-6.16-15.09-9.2-3.74-2.26-7.53-4.41-10.47-7.79-1.18,1.49-.45,2.14.11,2.86,5.9,7.48,12.56,14.06,21.18,18.42,1.37.69,2.32,1.77,2.03,3.43-1.19,6.9.41,13.73.52,20.6.03,1.47-.57,2.71-.63,4.07-3.46.25-4.98-2.91-6.75-4.6-2.22-2.11-4.36-4.66-6.56-6.92-3.26-3.35-6.26-6.86-9.01-10.62-4.56-6.24-8.66-12.79-13.01-19.15-3.45-5.05-7.05-9.97-9.54-15.53-3.47-7.75-7.94-14.97-11.46-22.72-3.09-6.81-6.28-13.72-9.68-20.45-1.85-3.67-3.03-7.94-4.68-11.84-2.48-5.85-4.06-11.99-5.85-18.01-2.62-8.82-6.44-17.24-8.48-26.2-.91-4-2.2-7.68-3.81-11.43-1-2.33-.98-5.4-1.46-8.15-1.87-10.63-5.6-20.77-7.44-31.43-1.32-7.65-2.56-15.54-6.08-22.68-1.83-3.71-2.71-8.19-7.76-9.36-5.19-1.2-9.41,1.88-9.14,6.82.12,2.32,1.29.63,2.03.61.09,2.03-.62,3.47-2.91,3-1.93-.4-2.68-1.9-2.53-3.83.27-3.36,5.04-8.98,8.41-9.92,4.01-1.12,7.58.59,10.8,4.37,2.8,3.3,3.56,7.32,5.16,11.09,4.21,9.95,5.03,20.68,7.81,30.95,2.52,9.3,3.62,19,6.36,28.23,1.33,4.48,3.64,8.8,4.32,13.47.69,4.73,3.93,7.39,6.92,10.39,11.7,11.71,23.44,23.38,35.08,35.16,1.72,1.74,2.68,2.03,4.57.11,13.46-13.64,27.11-27.08,40.55-40.74,3.12-3.17,3.99-7.72,5.18-11.82,2.32-8.02,4.01-16.22,6.02-24.33.3-1.2.58-2.33-.33-3.3-3.3-3.58-4.46-8.38-6.86-12.28-3.26-5.28-5.47-10.91-8.01-16.42-1.97-4.27-4.36-8.47-4.77-13.31-.13-1.56-1.08-2.77-1.96-3.73-2.42-2.63-4.66-6.35-4.77-8.98-.29-7.22-6.6-10.92-8.18-17.13-1.66-6.5-3.92-12.85-5.3-19.4-.91-4.3-2.97-8.55-1.75-13.17-4.16-3.99-.9-9.9-3.94-14.53-1.86-2.84-1.38-7.21-2.13-10.88-1.56-7.59-3.06-15.25-3.64-22.95-.45-6.06-1.44-12.03-1.96-18.06-.27-3.17.84-6.17.98-9.26.18-3.68,3.14-5.03,5.45-6.29,2.84-1.55,3.92,1.53,4.29,3.53.67,3.62.69,7.35,1.02,11.03.65,7.2,1.64,14.35,2.72,21.51,1.54,10.18,4.04,20.17,5.36,30.4.65,5.1,2.35,10.23,3.36,15.41.2,1.02.87,1.9,1.95,2.3,1.11,3.68,1.28,7.31-.68,10.8-2.76.88-3.07-1.22-3.37-2.98-2.02-11.65-5.15-23.08-7.17-34.72-1.88-10.87-4.29-21.65-5.66-32.63-.85-6.83-.62-13.69-1.44-21.02-2.1,2.71-2.9,5.45-2.86,8.4.15,11.35,1.91,22.53,3.88,33.68,1.29,7.3,2.47,14.62,3.89,21.89,1.25,6.37,2.46,12.75,4.21,19.01,2.89,10.36,4.48,21.07,8.32,31.18Z"/>
        <path class="cls-34" d="m353.08,108.6c-3.76-.12-7.09,2.62-10.98,1.68,3.85-4.65,8.22-8.87,13.65-11.4,7.74-3.61,14.49-8.72,21.63-13.23,12.3-7.77,25.69-12.54,39.86-15.15,5.49-1.01,11.19-.04,16.71.47,3.4.31,6.5,2.89,8.79,5.48,7.26,8.19,11.05,18.03,12.67,28.78.63,4.23,1.65,8.43.93,12.75,0,.27,0,.53,0,.8.81,5.52-.54,10.94-.78,16.41-.01,1.3-.02,2.59-.03,3.89-1.21,1.66.92,4.72-2.33,5.51-4.96-4.41-9.92-8.82-14.88-13.24-3.4-.08-5.99-2.26-8.75-3.71-10.46-5.51-21.31-9.88-32.74-12.99-4.74-1.29-9.55-2.3-14.23-3.71-7.73-2.34-15.59-1.79-23.46-1.68-2.04.03-4.13.45-6.06-.65Z"/>
        <path class="cls-34" d="m389.89,516.05c-.56-.02-1.67-.59-1.51.36.54,3.16-.89,6.06-.8,9.31.19,7.49,1.04,15.27-1.78,22.61-7.11-2.29-14.55-3.73-20.86-8.1-.5-.97-1.37-.93-2.31-1.01-2.65-.23-4.62-1.28-5.88-3.94-1.55-3.28-3.92-6.15-7.09-8-1.83-1.06-4.5-.34-5.96-2.49,1.71-4.03,5.86-5.87,8.29-9.36,3.37-4.83,8.13-8.46,11.33-13.67,3.23-5.27,8.09-9.67,10.48-15.46,2.38-5.78,4.88-11.54,6.87-17.52,2.11-6.36,3.5-12.9,4.27-19.38.61-5.13.91-10.57.19-15.86-.35-2.55,0-4.97.9-7.35,1.31-.07,1.51,1.01,1.55,1.83.17,4.03,1.41,7.91,1.35,11.99-.14,9.06.99,18.15.51,27.15-.41,7.87.06,15.72.04,23.55-.02,5.38-1.04,10.75-.44,16.14.14,1.29.1,2.59.78,3.75.03,1.82.05,3.63.08,5.45Z"/>
        <path class="cls-21" d="m389.82,510.59c-3.03-3.43-1.08-7.38-1.01-11.09.04-1.93.13-3.84.02-5.78-.33-5.74-.4-11.49-.64-17.23-.24-5.92,1.17-11.79.08-17.79-.53-2.96-.05-6.27-.16-9.31-.16-4.38.47-8.86-.38-13.11-.67-3.36-.08-6.93-1.7-10.11,1.3-3.75,1.94-7.61.51-11.41-.97-2.58-.08-5.16.07-7.54.48-7.61-.88-15.1-1.06-22.63-.2-8.35-.53-16.83-1.21-25.23-.53-6.61-1.15-13.32-1.13-20.02,0-3.83-1.69-7.51-1.82-11.49-.12-3.73-.75-7.87-2.58-11-2.58-4.42-1.39-9.13-2.63-13.55-.32-1.12.2-1.39,1.13-1.43,1.91-.39,3.24.83,4.4,1.92,3.47,3.27,8,5.03,11.46,8.29.4.38.98.16,1.48.07,2.34,2.9,4.24,5.97,4.2,9.91-.02,1.66.28,3.32,1.15,4.8-1.04,1.17-2.32,1.96-3.68,2.73-1.22.7-3.02,1.33-2.48,3.44.22,5.26,2.8,9.86,4.32,14.74.86,2.76,1.72,5.08.81,8.18-1.42,4.86,3.15,7.73,4.96,11.55-2.06,2.35-2.84,5.32-4.15,8.05-2.32,4.82-2.08,9.78-2.76,14.74-.45,3.34-.89,6.77-.98,10.03-.22,7.91-1.05,15.75-1.47,23.63-.37,6.87-.79,13.74-1.01,20.61-.24,7.6.44,15.31-.59,22.78-.96,6.93-1.17,13.93-1.85,20.84-.72,7.38-2.08,14.88-1.29,22.4Z"/>
        <path class="cls-2" d="m285.84,213.45c1.07-3.32.19-6.82.86-10.17.16-1.85.31-3.7.47-5.55-.46-1.57-.45-3.13.21-4.65-.1-1.63,1.04-3.11.53-4.79-.91-5.52,1.39-10.65,1.91-16,3.53-10.55,10.11-19.29,16.74-27.99,4.3-6.11,9.58-11.28,15.29-16.04,2.62-2.36,5.24-4.73,7.85-7.09,1.62-1.32,2.23-3.52,4.05-4.66.99.26,1.44-.61,2.12-1.02.46-.36.76-1.1,1.56-.66-1.02,4.1-2.81,7.77-4.81,11.53-2.41,4.54-4.93,9.09-7.06,13.82-2.67,5.92-6.24,11.43-9.11,17.26-2.1,4.27-3.66,9.19-6.39,12.71-3.33,4.29-3.06,9.89-6.96,13.81-1.81,1.82-1.71,5.42-3.05,8.05-2.74,5.38-5.82,10.68-7.74,16.36-1.64,4.86-4.63,8.93-6.45,13.62-2.55-2.84-1.12-5.7-.03-8.55Z"/>
        <path class="cls-23" d="m290.56,172.03c-.07,5.55-1.96,10.81-2.64,16.26-3.04-5.85-2.6-11.59-.76-17.87,1.59-5.41,2.53-11,4.94-16.17,2.62-5.63,5.62-11.14,7.56-17,2.11-6.36,5.65-12.03,7.77-18.45,1.94-5.89,4.65-12.05,9.06-16.87,1.53-1.67,1.02-3.69,1.96-5.35,4.31-7.64,8.45-15.38,12.96-22.9,2.88-4.82,6.2-9.37,9.64-13.84,2.1-2.73,4.81-4.2,7.49-5.84,1.9-1.16,4.46-1.73,5.95.62,1.72,2.72,1.49,5.76-.27,8.47-.91,1.4-2.27,2.49-3.33,3.8-7.05,8.72-12.61,18.51-17.75,28.32-5,9.56-10.24,19.09-14.5,29.06-.96,2.24-1.33,3.73,1.99,3.2.36-.06.82.51,1.24.78-.55,3.48-4.19,4.12-6,6.52-2.66,3.51-5.83,6.63-8.79,9.92-2.3-.79-.88-2.19-.45-3.28,3.77-9.5,8.66-18.51,12.59-27.95,2.5-6.01,6.24-11.43,8.83-17.4,4.68-10.82,12.21-19.92,17.84-30.15.95-1.72,3.1-2.01,3.91-3.7.63-1.31,2.23-2.83.66-4.15-1.55-1.3-2.92.11-3.9,1.37-6.53,8.41-12.8,16.91-17.63,26.54-3.24,6.46-6.43,12.98-9.77,19.41-5.26,10.11-10.18,20.37-14.79,30.82-3.94,8.93-7.33,18.06-11.1,27.04-1.18,2.82-2.6,5.61-2.71,8.77Z"/>
        <path class="cls-23" d="m337.44,114.83c-.52.22-1.04.44-1.56.66-.36-2.66.4-4.62,3.27-5.28.67-.16,1.26-.47,1.34-1.22.49-4.53,4.38-5.29,7.57-6.63,2.27-.96,3.36-3.19,5.52-4.23,7.96-3.83,14.8-9.41,22.11-14.25,7.19-4.76,15.34-7.95,23.62-10.86,7.43-2.61,14.77-4.34,22.56-4.27,3.58.03,7.11.59,10.7-.44,1.27-.36,3.23.27,4.37,1.13,6.3,4.75,11.49,10.06,15.13,17.62,3.53,7.32,3.74,14.92,5.62,22.33.74,2.91.19,5.9-1.35,8.6-.66-4.3-1.2-8.62-2-12.9-1.68-9-3.56-17.94-10.32-24.87-1.53-1.57-2.04-3.62-4.31-5.04-9.88-6.18-19.82-3.81-30.12-1.78-8.94,1.76-17.09,5.19-25.04,9.3-6.95,3.59-13.49,7.9-19.83,12.47-3.26,2.35-7.15,3.32-10.49,5.52-4.34,2.86-7.57,7.06-12.13,9.59-1.49,1.59-3.79,2.34-4.67,4.56Z"/>
        <path class="cls-13" d="m394.65,312.15c-.23,1.27-.96,2.72-2.15,1.38-4.33-4.9-10.3-7.56-15.19-11.66-1.1-1.64-1.56-3.16-1.12-5.38.43-2.21.25-4.74-.22-7.17-.74-3.8-.61-7.52,3.15-10.08,2.11-1.43,3.16-4.2,5.96-4.81-.91,5.02-1.6,10.09-2.81,15.04-.91,3.72.97,6.39,2.4,9.34,2.46,5.1,6.46,9.03,9.98,13.34Z"/>
        <path class="cls-20" d="m419.65,224.41c-2.15,1-4.34,1.45-6.72.8-.86-.24-2.06-.05-2.23-1.11-.17-1.09,1.12-1.26,1.83-1.76,3.79-2.65,6.74-2.15,7.83,1.29-.24.26-.48.52-.71.78Z"/>
        <path class="cls-23" d="m455.56,135.19c-.11-5.49-.04-10.96.78-16.41,1.38,1.75,1.86,3.67.82,5.71-1.73,3.4.93,7.44-1.61,10.69Z"/>
        <path class="cls-23" d="m333.76,116.51c-.5,2.29-1.4,4.24-4.05,4.66-1.17-3.04-.19-4.17,4.05-4.66Z"/>
        <path class="cls-23" d="m445.47,173.71c.73-2.41.35-5.19,2.35-7.18.8,2.91.86,5.58-2.35,7.18Z"/>
        <path class="cls-23" d="m287.38,193.08c.61,1.58.15,3.11-.21,4.65-1.35-.65-2.41-1.44-2.11-3.23.24-1.47,1.28-1.38,2.31-1.42Z"/>
        <path class="cls-23" d="m453.19,144.59c2.11-1.27.84-3.98,2.33-5.51.15,2.84.23,5.65-2.16,7.79-.06-.76-.11-1.52-.17-2.27Z"/>
        <path class="cls-22" d="m385.93,588.08c2.37,2.71,8.52,3.97,11.65,2.39,1.08-.54,2.16-1.09,3.24-1.63,1,3.85,4.5,4.13,7.37,4.56,8.32,1.26,16.17,3.97,23.66,7.54,12.96,6.19,25.53,13.08,36.48,22.57,1.23,1.07,3.41.57,4.38,2.22.32.55,1.59.88.69,1.86-.52.57-1.17.31-1.81.12-2.43-.73-4.87-1.46-7.31-2.16-9.64-2.74-19.47-4.18-29.46-5.16-10.06-.99-20.05-.66-30.02-.11-10.57.59-21.1,1.81-31.61,3.64-7.33,1.28-14.68,2.7-21.86,4.46-3.82.93-8.11,1.66-11.59,4.28-4.76,3.58-9.59.72-14.24-.62-4.63-1.34-9.1-3.22-13.69-4.69-6.04-1.92-12-4.02-18.02-6.88,8.16-3.43,15.9-7.03,23.9-9.92,4.53-1.64,9.21-3.05,13.97-4.15,3.03-.7,5.54-2.96,8.64-3.97,6.86-2.24,13.73-4.59,20.1-8.05,2.22-1.2,5.04.69,6.83-1.72,2.18.13,3.56,1.91,5.48,2.64,2.22.84,4.68,1.56,6.3-.04,1.48-1.46,2.56-3.83,1.38-6.29-.82-1.69-.51-2.7,1.61-2.52,1.72-.48,2.58,1.12,3.91,1.59Z"/>
        <path class="cls-22" d="m268.53,629.7c5.39,2.86,11.32,4.34,16.93,6.56,6.55,2.6,13.11,5.21,19.75,7.49,6.12,2.1,11.87,5.28,18.32,6.41.37.06.96.06,1.06.27,2.01,4.4,5.14,1.94,8.05,1.45,3.4-.57,6.86-.75,10.28-1.26,7.49-1.11,14.95-2.57,22.47-3.42,7.63-.86,15.22-2.29,22.84-2.74,10.45-.63,20.86-1.94,31.38-1.83,5.6.06,11.21.41,16.79.29,8.7-.19,17.28,1.05,25.67,2.7,7.58,1.49,15.38,2.81,22.43,6.21-.89.54-2.47.92-2.74,1.75-1.6,4.8-3.5,2.39-6.22.92-2.62-1.41-5.93-2.13-8.94-2.11-6.66.03-13.17-1.36-19.78-1.52-7.17-.17-14.38-.87-21.48-.28-5.14.42-10.33.13-15.5,1.17-5.59,1.12-11.49.66-17.09,1.74-5.3,1.02-10.68,1.31-15.99,2.34-6.74,1.31-13.76,1.53-20.35,3.55-6.25,1.91-12.71,2.87-18.98,4.88-6.13,1.96-12.31,4.2-18.67,5.59-3.41.74-6.12-.64-9.02-1.9-2.83-1.23-5.77-2.18-8.66-3.26-10.82-4.05-21.39-8.76-32.2-12.76-6.44-2.38-12.6-5.47-19.22-7.54-3.84-1.21-8.32-2.09-11.34-5.12,2.86-1.77,6.57-1.5,9.92-2.59.66-.22,1.57-.03,2.25.24,10.84,4.29,21.64,8.68,32.5,12.91,5.72,2.23,11.55,4.16,17.33,6.25,5.86,2.11,12.06,3.36,17.21,7.23,1.26.95,2.71.99,4.58.46,10.41-2.93,20.93-5.52,31.44-8.08,2.58-.63,4.89-2.08,7.7-2.08-.62-1.72-1.92-1.36-2.97-1.32-7.44.32-14.82.78-22.13,2.73-4.99,1.33-10.04,2.56-15.07,3.79-1.12.27-2.12.34-2.88-.52-2.74-3.14-6.63-3.53-10.29-4.67-4.39-1.36-8.6-3.29-12.89-4.95-7.15-2.76-14.31-5.5-21.46-8.27-5.64-2.18-11.26-4.38-17.38-6.76,3.78-2.56,8.08-2.39,11.74-3.99.24-.41.44-.38.62.05Z"/>
        <path class="cls-23" d="m200.49,603.9c0-4.62-2.09-8.74-3.09-13.13-1.96-8.6-.99-17.13.75-25.61,1.26-6.16,2.1-12.39,3.84-18.48.49-1.73,1.5-3.21,1.82-5.02.35-1.95,1.57.48,2.37-.09,3,4.7,5.63.71,6.77-1.07,2.06-3.23,4.36-2.68,7.33-2.53,4.41.23,8.86-.76,13.26.4,1.79.47,3.6.82,5.41,1.23-1.13,3.51-6.25,4.18-6.12,8.59.81,2.09-.13,4.13-.59,6.02-1.76,7.31-2.47,14.73-3.1,22.18-2.47,3.64-1.33,7.48-.42,11.2,1.16,4.76,2.23,9.55,3.49,14.28.55,2.08.42,3.87-1.87,4.83-6.78.37-13.56.55-20.27,1.9-4.23.85-7.34-1.18-9.57-4.7Z"/>
        <path class="cls-2" d="m228.57,576.37c-.16-9.63,1.8-18.94,4.26-28.18.64-.6,1.28-1.2,2.14-2.01,2.93,6.92,4.49,14.13,6.69,21.13,2.03,6.46,3.36,13.16,6.56,19.22-.42,1.57-2.1,1.28-3.04,2.08-1.33,1.33-3.27,1.85-4.84,2.03-2.62.3-5.42.39-7.29-2.67-1.4-2.28-2.59-4.74-4.4-6.8-1.31-1.49-.43-3.19-.08-4.8Z"/>
        <path class="cls-26" d="m239.6,601.17c2.1,1.6,4.41,2.57,7.11,2.57,3.18-.01,5.17,2.75,8.28,3.38,6.13,1.26,11.68,4.47,17.77,6.22,5.24,1.5,10.3,3.84,15.57,5.46,1.67.52.81,1.48.02,2.3-2.52,2.6-5.59,2.11-8.48,1.23-5.49-1.68-10.86-3.73-16.32-5.52-2.59-.85-5.02-1.98-7.49-3.07-2.77-1.22-6.01-1.55-8.75-3.01-3.32-1.77-7.47-2-9.98-5.29-.03-1.85,0-3.66,2.28-4.27Z"/>
        <path class="cls-3" d="m356.96,587.27c-8.65-5.04-14.44-13.06-20.96-20.3-2.32-2.58-4.35-5.45-6.35-8.3-1.1-1.57-2.36-3.69-.45-5.2,1.81-1.43,3.79.41,4.9,1.55,3.06,3.16,5.86,6.7,8.32,10.26,3.52,5.08,8.29,8.73,12.31,13.19,3.35,3.72,7.83,6.41,10.09,11.12-2.69-.54-5.7.02-7.85-2.32Z"/>
        <path class="cls-16" d="m239.6,601.17c-.76,1.42-1.52,2.85-2.28,4.27-2.02,2.13-4.7.6-6.99,1.26.9-1.25,1.53-2.29,1.1-4.19-1.5-6.48-3.52-12.85-4.52-19.46-.4-2.62-.33-4.8,1.66-6.67-.21,5.57,4.59,8.61,6.83,12.94.14.26,3.41,1.8,5.12.39,1.46-1.2,3.08-.87,4.65-1.09,1.12,2.1-.17,4.43-1.23,5.23-2.61,1.96-2.93,4.89-4.35,7.32Z"/>
        <path class="cls-4" d="m268.53,629.7c-.2-.04-.41-.06-.62-.05-2.52-1.52-5.49-1.72-8.21-2.75-8.37-3.16-16.94-5.89-24.86-10.02-4.2-2.19-9.01-3.04-12.79-6.07,16.8,4.19,33.22,9.49,49.31,15.92-.12,1.93-2.39,1.57-2.84,2.97Z"/>
        <path class="cls-3" d="m385.93,588.08c-1.59.18-2.74-.72-3.91-1.59-7.16-3.62-12.43-9.47-18.17-14.87-5.86-5.51-10.89-11.82-17.12-16.93-.4-.33-.79-.72-1.04-1.16-1.12-1.94-3.64-4.36-1.18-6.1,2.62-1.86,5.21.85,6.22,3.01,1.34,2.87,3.85,4.36,5.82,6.37,5.53,5.64,11.2,11.14,16.47,17.03,1.8,2.01,3.86,3.92,5.87,5.55,3.07,2.49,4.57,5.92,7.04,8.7Z"/>
        <path class="cls-23" d="m350.79,290.75c4.23-.58,7.02-3.57,10.14-6.02.69,2.07-.45,4.05-.33,6.09.36,6.11-1.42,12.12-.75,18.25.22,1.97-1.44,3.4-1.83,5.36-2.56,12.78-4.74,25.6-9.13,38.03-3.19,9.01-6.57,17.92-11.01,26.26-4.44,8.36-9.28,16.56-15.71,23.85-2.99,3.39-6.4,6.53-9.17,10.23-2.24,2.99-5.95,4.89-9.02,7.26-.65.5-1.47.86-2.06.1-.33-.43-.42-1.27-.25-1.81,2.85-8.9,2.27-18.11,2.68-27.25.37-8.29.2-16.65,1.88-24.85.86-4.19,3.53-7.62,4.97-11.58,1.47-4.03,2.99-8.04,4.32-12.11,3.21-9.84,5.07-20,7.09-30.12.2-.99.65-1.88,1.66-1.91,5.17-.14,8.76-3.59,12.41-6.4,5.12-3.94,10.54-7.75,14.1-13.4Z"/>
        <path class="cls-23" d="m304.1,470.37c10.44,2.6,20.26,4.68,30.86,1.21,12.12-3.97,15.82-13.72,19.14-24.14.39-1.24.59-2.46,1.64-3.39,1.41,11.8-.54,23.26-5.12,33.91-3.78,8.81-9.39,16.82-17.21,22.89-6,4.65-21.19,4.59-27.52-.12-.68-.5-.99-.87-.94-1.84.24-4.66.12-9.34.5-13.99.38-4.58-2.16-8.75-1.52-13.31.05-.37.1-.74.16-1.22Z"/>
        <path class="cls-12" d="m285.84,213.45c.68,2.85-1.31,5.7.03,8.55-1.27,4.96-.39,9.92-.04,14.89-2.82-4.12-4.04-8.88-5.21-13.6-2.21-8.86-4.47-17.72-6.27-26.68-2.84-14.13-5.56-28.29-7.83-42.52-1.24-7.76-1.68-15.67-2-23.53-.14-3.61.91-7.26,4.76-9.42-.65,4.97,1,9.66.64,14.68-.27,3.74.91,7.96,1.43,11.96,1.18,9.09,3.74,17.92,4.66,27.07.33,3.25,1.73,6.45,2.16,9.8,1.17,9.02,4.9,17.52,5.39,26.69.06,1.13.21,2.85,2.29,2.1Z"/>
        <path class="cls-8" d="m390.4,200.67c-.28,10.34-1.84,20.51-4.69,30.43-.72,2.5-2.4,5.06-5.77,4.61-2.96-.39-5.41-4.28-4.86-7.78,1.38-8.72,3.18-17.35,5.23-25.94.54-2.25,1.76-4.04,2.97-5.83,1.98-2.93,4.16-2.63,5.87.54.68,1.26,1.55,2.42,1.25,3.96Z"/>
        <path class="cls-10" d="m355.74,143.72c4.97.4,9.9.79,14.87,1.49,4.74.67,8.07,3.82,12.48,4.71,1.9.38,4.28,6.01,3.47,7.36-1.62,2.7-3.69,2.63-6.73,1.91-7.91-1.87-15.53-4.8-23.42-6.56-4.38-.97-8.98-1.13-13.41-2.21-2.56-.63-2.2-1.78-.67-3.02,3.91-3.17,8.54-3.82,13.41-3.67Z"/>
        <path class="cls-25" d="m375.94,187.75c-.05,1.16-.04,2.33-.17,3.48-.32,2.85-3.05,4.35-5.46,3.15-6.63-3.31-13.6-5.96-19.67-10.41-1.06-.78-1.21-1.74-1.95-2.47-.79-3.28,1.34-4.92,3.72-6.16,2.28-1.19,4.72-2.07,7.18-2.87,2.66.05,4.98,1.47,7.56,1.88.24.22.48.43.72.65,1.77.99,3.5,2.01,4.76,3.66-.14.91.19,1.35,1.16,1.14.92,2.6,3.33,4.79,2.15,7.96Z"/>
        <path class="cls-31" d="m353.08,108.6c5.92-.15,11.78-.64,17.76-.31,8.57.47,16.53,2.88,24.69,5.08,5.08,1.37,10.26,2.61,15.09,4.53,6.32,2.51,12.73,4.97,18.64,8.46,2.97,1.75,6.03,3.33,9.06,4.99-.28,1.76-.97,2.81-2.81,1.43-5.5-4.14-11.75-6.91-18.08-9.35-6.35-2.44-12.91-4.46-19.51-6.11-7.95-1.98-16-3.66-24.09-4.91-4.87-.75-9.74-1.76-14.77-1.69-1.92.03-4.76.67-5.98-2.12Z"/>
        <path class="cls-7" d="m415.7,198.91c2.48,2.46,4.57,5.2,5.89,8.46.62,1.54,1.43,3.09,1.65,4.7.26,1.81-.77,3.99-2.65,3.46-7.45-2.11-15.1-3.92-21.39-8.89,1.21-6.64,10.28-10.89,16.5-7.73Z"/>
        <path class="cls-27" d="m360.26,172.98c-1.97.82-3.91,1.71-5.9,2.45-2.92,1.08-4.83,3.06-5.67,6.06-.73,1.48-1.59.73-2.47.16-3.19-2.05-6.3-4.23-9.6-6.07-2.39-1.33-3.25-3.16-2.8-5.68.51-2.86,2.72-3.08,4.93-2.72,7.47,1.23,14.94,2.52,22.2,4.79-.07.45-.5.64-.68,1.01Z"/>
        <path class="cls-33" d="m435.97,191.2c.39,1.22-.11,2.67-1.73,3.35-1.63.69-2.33-.63-3.3-1.78-4.07-4.82-8.2-9.6-13.04-13.69-1.57-1.33-2.15-2.83-1.43-4.77.91-2.43,3.04-1.5,4.58-1.37,6.43.57,9.57,5.48,12.75,10.2,1.52,2.25,2.16,4.83,2.15,8.07Z"/>
        <path class="cls-3" d="m360.75,262.9c-7.45-.07-12.77-4.49-14.49-11.82-.16-.69-1.09-1.18-1.35-1.88-.96-2.54-.43-4.73,2.25-5.76,2.62-1.01,3.19.7,3.8,2.91.92,3.32,2.15,6.57,4.69,9.19,2.86,2.96,6.48,3.31,9.88.57,1.66-1.34,3.64-3.91,5.42-1.42,1.6,2.23-.77,4.73-2.7,5.93-2.22,1.37-4.69,2.89-7.5,2.28Z"/>
        <path class="cls-27" d="m415.7,198.91c-6.82-.24-13,.87-16.49,7.73-2.63.03-4.91-1.61-5.17-3.65-.3-2.36,1.78-4.62,4.25-5.26,1.69-.43,2.77-1.63,4.29-2.24,4.91-1.95,9.65-.9,13.12,3.42Z"/>
        <path class="cls-17" d="m330.3,183.95c.09.81-.31,1.65-.94,2.29-.87.88-1.75.06-2.4-.39-1.47-1.02-2.79-2.24-3.66-3.87-1.03-1.91.5-2.93,1.45-4.05,1.54-1.81,1.97.31,2.8.94,1.64,1.24,2.26,3.04,2.74,5.09Z"/>
        <path class="cls-17" d="m338.26,186.43c-.16,1.04.24,2.1-.91,2.51-.99.36-1.86-.21-2.43-.81-1.64-1.71-2.02-4.07-2.31-6.24-.27-2.01,1.49-1.83,2.56-1.1,1.99,1.35,2.66,3.56,3.08,5.64Z"/>
        <path class="cls-28" d="m375.94,187.75c-.22-2.79-2.42-5.04-2.15-7.96,2.97,1.78,3.42,4.69,3.34,7.75-.03.99-.78.11-1.19.21Z"/>
        <path class="cls-9" d="m360.26,172.98c-.05-.53.18-.85.68-1.01,2.48-.29,4.35,1.02,6.2,2.37-2.52.67-4.73-.22-6.88-1.36Z"/>
        <path class="cls-30" d="m372.62,178.65c-1.75-1.01-3.96-1.41-4.76-3.66,2.95-.56,3.87,1.53,4.76,3.66Z"/>
        <path class="cls-12" d="m290.56,172.03c-2.01-3.36.76-6.11,1.77-8.64,2.85-7.16,4.53-14.82,8.38-21.54,4.23-7.36,5.97-15.79,10.47-23.03,2.7-4.35,4.63-9.18,7.07-13.7,3.44-6.38,6.5-12.96,9.84-19.37,3.06-5.88,6.55-11.42,10.07-16.96,2.49-3.93,5.65-7.43,8.48-11.14,1.44-1.88,3.24-1.27,4.87-.59,2.24.93.83,2.49.13,3.49-3.11,4.48-6.54,8.73-9.6,13.27-7.12,10.6-12.93,21.91-18.56,33.31-3.67,7.45-6.58,15.29-10.53,22.57-2.15,3.97-2.74,8.6-5.68,12.18-.49.6-1.21,1.8-.21,2.81-1.8,3.91-4.94,6.88-7.3,10.4-3.6,5.37-6.4,11.15-9.22,16.94Z"/>
      </g>
    </g>
  </g>
</svg>