<?xml version="1.0" encoding="UTF-8"?>
<svg id="Layer_2" data-name="Layer 2" xmlns="http://www.w3.org/2000/svg" viewBox="0 0 638.05 725.87">
  <defs>
    <style>
      .cls-1 {
        fill: #fe5164;
      }

      .cls-1, .cls-2, .cls-3, .cls-4, .cls-5, .cls-6, .cls-7, .cls-8, .cls-9, .cls-10, .cls-11, .cls-12, .cls-13, .cls-14, .cls-15, .cls-16, .cls-17, .cls-18, .cls-19, .cls-20, .cls-21, .cls-22, .cls-23, .cls-24, .cls-25, .cls-26, .cls-27, .cls-28, .cls-29, .cls-30, .cls-31, .cls-32, .cls-33, .cls-34, .cls-35, .cls-36, .cls-37, .cls-38, .cls-39, .cls-40, .cls-41, .cls-42 {
        stroke-width: 0px;
      }

      .cls-2 {
        fill: #45015d;
      }

      .cls-3 {
        fill: #fdf9f9;
      }

      .cls-4 {
        fill: #d4789c;
      }

      .cls-5 {
        fill: #fb4f64;
      }

      .cls-6 {
        fill: #fe4e62;
      }

      .cls-7 {
        fill: #fe5063;
      }

      .cls-8 {
        fill: #70165c;
      }

      .cls-9 {
        fill: #36294f;
      }

      .cls-10 {
        fill: #da84a5;
      }

      .cls-11 {
        fill: #d0d0dd;
      }

      .cls-12 {
        fill: #442f69;
      }

      .cls-13 {
        fill: #72155b;
      }

      .cls-14 {
        fill: #72165b;
      }

      .cls-15 {
        fill: #fc5064;
      }

      .cls-16 {
        fill: #452f69;
      }

      .cls-17 {
        fill: #d7e3ea;
      }

      .cls-18 {
        fill: #fe7f82;
      }

      .cls-19 {
        fill: #fefdfd;
      }

      .cls-20 {
        fill: #d9e4eb;
      }

      .cls-21 {
        fill: #b81555;
      }

      .cls-22 {
        fill: #fe7e82;
      }

      .cls-23 {
        fill: #43005e;
      }

      .cls-24 {
        fill: #fe5265;
      }

      .cls-25 {
        fill: #c56f95;
      }

      .cls-26 {
        fill: #41005e;
      }

      .cls-27 {
        fill: #d5769b;
      }

      .cls-28 {
        fill: #ae205e;
      }

      .cls-29 {
        fill: #6f155c;
      }

      .cls-30 {
        fill: #b51555;
      }

      .cls-31 {
        fill: #fe5366;
      }

      .cls-32 {
        fill: #da85a6;
      }

      .cls-33 {
        fill: #ba1756;
      }

      .cls-34 {
        fill: #d7dce4;
      }

      .cls-35 {
        fill: #432e69;
      }

      .cls-36 {
        fill: #42005e;
      }

      .cls-37 {
        fill: #e19cb7;
      }

      .cls-38 {
        fill: #c56d95;
      }

      .cls-39 {
        fill: #d1dbe4;
      }

      .cls-40 {
        fill: #71165c;
      }

      .cls-41 {
        fill: #decce4;
      }

      .cls-42 {
        fill: #d8e0e8;
      }
    </style>
  </defs>
  <g id="Phase_1" data-name="Phase 1">
    <g id="Layer_32" data-name="Layer 32">
      <g>
        <path class="cls-21" d="m497.4,664.83c2.35,2.32,1.39,5.47,1.72,8.17.6,4.97,1.77,9.95,1.93,14.83.24,7.38.42,14.75,1.16,22.1.25,2.45.63,4.93.13,7.33-1.04,5.01-5.58,8.35-10.77,7.7-2.98-.37-5.98.67-8.68.18-6.6-1.19-13.14.52-19.75-.27-2.11-.25-5.28-1.49-7.88.78-.75.65-3.29-.34-5.03-.49-6.23-.53-12.48.74-18.68-.55-1.92-.4-4.18.96-5.85.69-3.59-.59-7.25-.74-10.69-.44-5.2.47-10.31-.84-15.52.13-3.24.61-6.71.1-10.07-.02-5.29-.2-10.57-.45-15.88-.22-7.5.33-15.02.49-22.52.22-5.46-.2-10.91-.22-16.37-.19-.4,0-.8-.32-1.2-.5-1.36-.43-2.77.96-4.12-.1-3.92,1.94-8.03.09-12.06.48-2.77.26-5.76,0-8.64,0-5.73,0-11.49-.39-17.16-.21-3.96.13-8-1.01-11.94.28-1.07.35-1.07-1.05-1.81-1.31-.87-8.73-.31-17.5-.85-26.25-.31-5.02.05-10.14,0-15.23-.08-7.88-.8-15.78-.05-23.67.23-2.44-.38-4.86-.68-7.27-.86-6.97.53-13.85.63-20.78.11-7.31-.46-14.64-.09-21.91.4-7.87.46-15.76.57-23.61.15-10.97,1.16-21.94.42-32.94-.21-3.11.26-6.44.56-9.66.44-4.69-.34-9.44-.15-14.2.37-8.92-.44-17.86.61-26.78.3-2.5.34-5.14.05-7.63-.63-5.44,1.21-10.54,1.72-15.81.15-1.59.75-3.13-.22-4.92-2.22,1.71-3.14,4.1-3.86,6.46-1.45,4.79-1.96,9.72-2.09,14.75-.21,8-.37,15.98-.35,23.98.01,3.53-.17,7.11-.2,10.67,0,1.09.14,2.64-1.25,2.96-1.3.3-2.01-.99-2.56-1.99-3.53-6.4-7.03-12.82-10.47-19.26-6.32-11.84-12.18-23.92-18.58-35.7-3.68-6.78-7-13.77-11.12-20.32-1.61-2.56-2.29-5.58-4.09-8.03-2.94-3.91-.36-7.54.7-11.17,2.13-7.3,5.61-14.12,7.93-21.37.58-1.82-.55-2.51-1.37-3.55.75-2.15,2.76-3.13,4.45-4.14,4.94-2.95,8.68-7.27,12.98-10.92,4.27-3.63,8.8-6.71,13.54-9.61,1.9-1.16,3.81-.63,5.74-.69.16.06.32.12.47.18.2.28.31.59.33.93-.21,1.14-.48,2.26-.35,3.44,1.21,10.31,1.09,20.75,2.71,31.01,1.48,9.36,2.81,18.73,3.91,28.14.23,1.99,1.38,3.68,1.55,5.68.22,2.56,1.9,4.76,2.05,7.34.14,2.43-.91,4.72-.88,7.25,9.67-21.77,21.41-42.43,32.33-63.52,1.18-.42,2.03.18,2.71,1,5.38,6.5,12.08,11.18,19.76,14.56.44.19.75.52.95.95.78,5,3.37,9.37,4.92,14.11,1.17,3.57,1.75,7.22,2.17,10.91.39,3.44-2.31,5.44-4.01,7.8-3.91,5.46-8.58,10.36-12.31,15.96-4.22,6.33-8.57,12.62-13.21,18.61-6.34,8.19-10.87,17.52-17.37,25.62-3.86,4.81-6.31,10.78-9.11,16.4-1.71,3.42-3.3,6.88-4.62,10.46-.38,1.04-1.21,2-.31,3.42,2.19-2.27,3.6-4.88,4.7-7.64.61-1.52,1.51-2.89,2.12-4.36,4.93-11.92,15.13-20.14,21.59-30.98,2.96-4.96,6.15-9.8,9.47-14.55,7.16-10.25,14.67-20.23,22.61-29.88,3.79-4.61,5.78-9.56,4.38-15.74-1.08-4.77-2.23-9.47-4.69-13.71-1.03-1.78.13-3.91-1.3-5.5,2.16-1.88,3.34-.13,4.62,1.24,0,1.67.18,3.21,1.98,4.05,1.46.68,1.98,2.38,3.82,2.97,1.9.61,2.36,3.44,4.07,4.53,1.77,1.13,3.37,2.5,4.89,3.84,1.36,1.21,1.64,3.45,3.56,4.5,1.17.64,1.93,2.07,3.61,1.33.64-.28,1.25.09,1.3.73.37,4.44,4.18,6.51,6.68,9.37,3.88,4.43,8.22,8.46,12.27,12.76,1.45,1.54,2.16,3.21,2.78,5.07-.3,6.95-.07,13.92-.57,20.86-.18,2.51.46,5.02-.13,7.51-.88,4.59,2,7.4,4.43,10.79,2.89,4.02,5.73,8.09,8.71,12.05,5.84,7.76,10.52,16.33,16.53,23.95,4.75,6.02,8.06,12.94,12.2,19.33,4.03,6.23,8.68,11.87,13.04,17.78,1.57,2.14,2.28,4.9,3.85,7.25,4.43,6.63,9.61,12.77,13.72,19.55,3.98,6.56,9.49,11.97,13.06,18.79,1.14,2.19,3.07,4.04,4.67,6.01,1.43,1.76,2.05,3.9,3.24,5.63,1.98,2.88,4.59,5.32,6.5,8.34,2.89,4.57,6.47,8.71,8.32,13.9Z"/>
        <path class="cls-21" d="m566.58,416.51c.46.62,1.21,1.18,1.33,1.86,1.16,6.33,4.22,12.07,5.65,18.3.93,4.05,2.83,7.71,4.18,11.57,2.89,8.25,6.28,16.39,11.23,23.61,3.69,5.39,6.89,11.17,11.52,15.88,4.68,3.85,5.93,9.67,8.47,14.75,1.73,4.94,3.38,9.91,5.22,14.81,2.04,5.45,4.29,10.8,5.72,16.5,1.23,4.91,3.34,9.6,4.75,14.47,3.13,10.82,6.6,21.54,9.42,32.46,1.08,4.19,2.52,8.47,3.08,12.69.58,4.39,1.24,8.94.67,13.49-.24,1.88-1.68,2.46-2.75,3.38-1.22,1.06.54.85.38,1.35-.12.3-.31.53-.57.71-1.32.32-2.01,1.3-2.53,2.45-.45.52-.99.85-1.71.8-1.66-.45-2.09-1.66-1.99-3.21.27-3.96-.66-7.84-.87-11.77-.23-4.28-2.86-6.92-6.8-8.62-8.85-3.82-18.22-5.51-27.68-6.34-5.73-.5-11.6-.42-17.42.02-4.07.31-8.03.51-12.04,1.74-5.92,1.81-7.35,9.23-5.5,13.28.19.41.7.79.57,1.22-1.19,3.74,1.98,6.39,2.36,9.74.51,4.46,1.8,8.73,3.3,12.94.28.78-.15,1.6-.95,2.07-9.81-3.61-18.7-9.03-27.81-14.03-5.53-3.4-11.05-6.82-16.58-10.21-4.53-2.77-9.4-5.11-13.52-8.4-3.09-2.47-6.62-4.13-9.68-6.5-1.79-1.38-3.15-1.25-4.78-.13-2.74-.59-4.35-2.43-5.37-4.91.84-3.94.19-5.4-3.11-7.54-10.97-7.09-21.14-15.14-30.63-24.16-8.7-8.27-17.01-16.99-26.38-24.52-7.03-5.65-14.17-11.15-20.82-17.26-1.27-1.17-2.94-1.79-4.61-2.36-1.25-.43-2.81-.48-3.5-1.96,3.27-3.11,6.03-6.45,5.29-11.43,1.3-5.36,1.92-10.83,2.67-16.28.28-2.06.41-4.14,1.2-6.09.83-2.07.4-4.09-.19-6.1,4.73-8.42,5-17.71,4.86-26.97-.1-6.16.84-12.24.71-18.39-.09-4.28-.69-8.54-.3-12.84.19-2.09.36-4.14,1-6.14,2.62-2.22,4.74-.15,6.47,1.19,8.06,6.26,15.9,12.78,23.59,19.51,7.3,6.38,14.66,12.8,21.28,19.74,5.13,5.37,11.17,7.22,17.47,9,6.96,1.96,13.59,4.77,19.86,8.04,5.09,2.65,10.34,5.2,15.13,8.46,2.79,1.9,6.03,2.91,8.93,4.64,7.02,4.21,13.69,8.93,20.37,13.62,3.13,2.2,6.53,3.97,9.68,6.16,3.53,2.46,7.01,4.79,9.65,8.28,1.04,1.38,2.84,2,4.61,2.26.74.11,1.7.74,2.15-.29.34-.78-.21-1.57-.71-2.22-.51-.66-1.22-1.09-1.94-1.45-4.47-2.19-7.47-6.21-11.41-9.07-4.83-3.51-9.02-7.75-14.43-10.68-4.4-2.38-8.65-5.29-12.81-8.17-3.37-2.32-7.19-3.75-10.48-6.14-6.3-4.59-13.69-7.19-20.41-11.05-4.92-2.82-10.43-4.82-15.95-6.5-1.61-.49-3.65-.88-1.68-3.12,6.75-7.67,12.14-16.41,18.74-24.17,5.74-6.76,12.27-12.82,19.08-18.54,1.33-1.12,2.36-2.56,3.77-3.61.66-.49,1.24-1.22.72-2.1-.58-1-1.59-.93-2.47-.54-1.59.71-3.13,1.58-4.5,2.63-3.78,2.88-7.53,5.86-10.58,9.51-2.69,3.22-5.67,6.15-8.53,9.18-5.53,5.85-10.12,12.4-14.75,18.91-1.95,2.74-4.55,4.99-5.96,8.12-.29.65-.91,1.02-1.62,1.22-3.39.93-7.7-1.75-9.33-4.88-2.86-5.5-2.41-11.22-1.87-16.96.21-2.27-.66-4.32-.56-6.55.65-13.54-.33-27.09.27-40.63.43-9.85.89-19.67,3.15-29.32.43-1.82,1.33-3.48,1.67-5.31.18-.98.5-2.3-.65-2.81-1.11-.49-1.97.49-2.57,1.34-2.19,3.11-3.55,6.64-3.86,10.35-.86,10.13-1.92,20.25-2.15,30.45-.25,10.89,0,21.75-.03,32.63-.02,5.48,1.28,10.79,1.98,16.18.14,1.12.88,2.54-.29,3.22-1.29.75-2.46-.42-3.29-1.33-6.7-7.26-14.61-13.18-21.93-19.74-5.49-4.91-11.2-9.7-17.79-13.24-3.87-2.08-5.12-1.96-8.19,1.21-.55.46-1.23.91-1.87.44-4.17-3.02-8.74-5.55-12.09-9.6-.03-2.02,1.4-3.07,2.78-4.14,5.85-4.55,11.5-9.33,17-14.28,2.85-2.57,3.82-6.17,3.97-9.76.1-2.5.55-4.88,1.32-7.13,2.25-6.59,3.03-13.47,4.53-20.21,1.89-8.48,2.69-17.12,4.22-25.65.86-4.82-.1-9.86-.08-14.89-2.47,2.41-2.78,5.72-2.92,8.68-.47,9.9-2.28,19.6-4.49,29.17-1.4,6.06-2.56,12.23-4.62,18.16-1.59,4.56-1.65,9.48-2.75,14.18-.34,1.45-.92,2.55-2,3.52-6.02,5.43-12.16,10.72-18.07,16.27-1.19,1.12-2.64,1.89-4.07,2.66-3.32-.46-5.13-3.03-6.88-5.38-2.89-3.89-6.2-7.43-9.15-11.28-3.56-4.66-7.31-9.19-11.07-13.71-.31-.37-.39-.83-.24-1.3,2.04-1.13,2.94-2.98,3.78-5.12,2.1-5.34,3.17-10.99,5.5-16.28,1.94-4.39,3.57-8.97,5.04-13.56,2.81-8.71,5.47-17.47,7.72-26.34.17-.67.64-1.23,1.05-1.79,2.6-2.52,6.28-2.81,9.3-4.5,6.05-3.37,12.31-6.37,17.71-10.79,1.46-1.19,2.98-2.23,5.02-1.85,3.97,3.31,7.96,6.6,11.89,9.95.56.48.85,1.27,1.26,1.92,1.46,1.54,2.74,3.19,2.27,5.5-.36,1.77.54,2,1.9,1.69,1.52-.35,2.99.04,4.49.11,4.37.77,8.72,1.73,13.12,2.28,6.69.84,13.07,2.79,19.43,4.9,5.65,1.87,10.96,4.48,16.16,7.3,6.77,3.67,13.95,6.52,20.62,10.43,3.49,2.04,7.3,3.48,11.19,4.67,2.61.8,4.45,3.01,5.02,5.16,1.3,4.89,3.58,9.37,4.99,14.19,2.84,9.71,8.42,18.15,12.62,27.23,2.75,5.93,6.23,11.46,8.85,17.49,1.57,3.61,3.82,7.16,5.65,10.75,1.61,3.14,3.64,6.29,4.38,9.69.52,2.42,3.31,3.63,2.69,6.33.21,1.28,1.41,2.15,1.49,3.49Z"/>
        <path class="cls-35" d="m418.57,273.43c-5.68,3.51-11.34,7.05-17.04,10.51-3.54,2.15-7.19,4.09-11.21,5.28-1.12.33-2.47.36-3.14,1.62-2.53.07-3.53,1.59-4.64,3.77-1.93,3.81-4.46,7.32-6.69,10.99-4.99,8.22-10.72,15.95-15.94,24.03-2.54,3.94-4.41,8.44-8.01,11.68-1.26.27-1.73-.93-2.59-1.4-3.2-1.72-5.46-4.88-9.17-5.85-.96-.25-1.75-1.09-1.96-2.22.81-2.18,1.99-4.16,3.13-6.18,4.77-8.47,8.67-17.35,12.64-26.22,2.31-5.17,3.81-10.65,6.41-15.69,1.5-2.9,2.24-6.1,3.29-9.17,3-8.76,7.14-17.14,9.54-26.07,1.47-5.47,3.68-10.67,5.2-16.12,1.99-7.1,4.58-14.12,6.52-21.27,1.13-4.16,3.11-8.25,2.68-12.77-.29-1.69.03-3.46.96-4.68,3.07-3.98,2.15-8.41,1.53-12.66-1.52-10.44-4.61-20.49-7.54-30.63-2.9-10.04-7.72-19.27-10.59-29.25-.3-1.03-.99-1.83-1.51-2.72-.39-1.11-.33-2.4-1.32-3.27-3.45-7.45-6.98-14.87-11.16-21.92-3.55-5.98-8.19-11.12-12.8-16.36-6.18-7-12.92-13.31-20.24-18.94-6.21-4.78-12.64-9.54-20.77-10.82-.81-.13-1.56-.43-2.32-.75-8.83-3.69-17.31-3.32-26.18.71-9.63,4.38-15.87,11.72-21.25,20.28-2.36,3.75-3.79,8.03-6.06,11.7-6.14,9.92-6.12,21.16-8.03,32.01-.7,9.35-1.54,18.67-1.01,28.09.3,5.25-.32,10.54.22,15.82.8,7.8,1.27,15.63,2,23.43.4,4.25,1.42,8.41,2.45,12.57,1.57,6.3,2.38,12.76,3.73,19.13,2.11,9.94,6.41,18.81,11.8,27.29,2.17,3.41,4.71,6.58,6.48,10.24.42,5.71,3.91,10.1,6.57,14.77,5.93,10.39,13.45,19.74,20.34,29.48,3.26,4.61,6.81,9.05,9.93,13.77,2.26,3.41,5.21,3.96,9,3.67,8.42-.65,14.4-5.15,20.05-10.99,7.42-7.67,15.03-15.14,21.38-23.76,1.24-1.68,2.63-3.24,3.69-5.06.62-1.05,1.56-2.06,2.79-1.58,1.57.63,1.11,2.21.66,3.33-1.53,3.75-2.84,7.62-4.5,11.29-2.01,4.46-3.03,9.25-5.07,13.68-2.45,5.33-4.47,10.85-7.4,15.95-2.6,4.51-3.79,9.68-6.68,14.08-.92,1.41-1.44,3.15-2.39,4.61-3.24.73-6.46,0-9.5-.77-6.45-1.65-12.28-.55-17.87,2.73-3.31,2.38-7.07,3.76-10.94,4.91-1.67.22-2.93-.38-3.74-1.89-1.71-3.2-4.72-4.62-7.93-5.75-2.94-1.03-5.84-2.15-8.62-3.6-3.9-2.03-8.25-1.94-12.45-1.88-2.16.03-4.33.31-6.51.1-3.36-4.22-6.57-8.53-9.29-13.23-5.17-8.95-9.44-18.32-13.13-27.94-2.01-5.25-4.34-10.49-4.39-16.31.05-.56.33-.94.88-1.1.28-.84.55-1.68.83-2.52,1.03-3.54,2.21-7.01,4.5-9.99,1.22-1.58.69-3.61,1.41-5.32-5.78-8.56-8.37-18.18-8.08-28.33.28-9.7.26-19.42,1.76-29.12.77-4.99,1.29-10.2,1.19-15.37-.13-6.96-.13-13.92-.22-20.88-.06-4.98-.23-9.94-.13-14.93.12-6.18.44-12.36.57-18.54.09-4.36,1.27-8.78,1.23-13.21-.06-6.07,1.07-12.06,1.99-17.94.67-4.3,2.03-8.64,2.67-13.06,1.16-7.98,2.87-15.86,5.3-23.52,1.21-3.81,4.06-6.94,6.36-10.27,7.58-11.01,17.47-19.86,27.29-28.69,6.35-5.71,13.88-9.77,22.55-11.15,12.04-3.41,24.15-2.4,36.36-.98,7.3.85,14.36,2.63,21.37,4.51,4.37,1.17,8.27,3.99,12.53,5.8,1.67.71,3.4,1.34,5.02,2.18,4.9,3.92,10.98,5.89,15.95,9.71,4.35,3.16,7.51,7.42,10.93,11.47,4.98,5.89,8.49,12.67,12.3,19.27,2.35,4.07,2.87,8.79,4.89,13.01,5.19,10.82,6.98,22.75,10.74,34,4.25,12.7,4.53,25.69,5.56,38.7.65,8.32,1.39,16.63,1.94,24.96.56,8.54.38,17.13.94,25.68.54,8.2-.08,16.39-.17,24.57-.03,2.69,0,6.09-2.92,8.05-2.11-.42-3.68-1.93-5.42-2.98-6.26-3.74-10.35-2.63-15.87,3.39-5.45,5.96-10.24,12.52-14.75,19.25-.32.48-.7.92-1.01,1.42-2.16,3.5-1.54,4.95,2.45,5.71,3.24.61,6.25-.61,9.14-1.6,5.11-1.76,10.22-3.54,15.1-5.98,1.8-.9,1.72-2.52,2.76-3.61,2.78.47.73,3.09,1.9,4.28,1.74,1.82.61,4.1.99,6.14,1.02,5.56.36,10.17-4.02,14.7-2.71,2.8-5.69,5.46-8.23,8.48Z"/>
        <path class="cls-21" d="m1.69,565.14c3.26-1.66,2.55-5.4,4.01-8.03,2.39-4.31,4.44-8.98,6-13.63,2.09-6.22,5-12.06,7.37-18.13,3.44-8.8,7.31-17.44,11.29-26.01,2.34-5.04,6.31-9.11,9.64-13.51,1.57-2.07,3.29-3.98,3.32-6.47.03-3.11,1.83-5.38,2.84-8.02,1.74-4.52,5.17-8.25,5.93-13.32.24-1.6,1.27-3.37,2.94-4.77,2.27-1.89,2.23-5.61,4.56-7.69,4.38-3.89,5.02-9.64,7.4-14.53.92-2.48,1.29-5.11,2.2-7.59-.07-2.11,1.52-3.66,2.24-5.42,1.74-4.29,3.84-8.47,5.19-12.91.35-1.17.6-2.59,1.25-3.43,2.92-3.71,3.32-8.51,5.51-12.59,1.36-2.54,3.06-5.64,3.7-9.06.8-4.23,3.89-8.01,5.91-12.02.83-1.65,1.47-3.4,2.19-5.11,1.89-.11,1.14-2.47,2.55-3,1.32-3.89,2.33-7.79,5.43-10.96,2.15-2.2,2.41-5.78,4.45-8.38,2.37-3.03,4.6-6.61,7.73-8.35,2.22-1.23,3.5-3.89,6.28-4.1,1.25-.09.53-1.64,1.41-2.04,5.73-3.8,12.47-5.18,18.76-7.57,3.37-1.28,6.36-3.22,9.78-4.39,5.29-1.81,10.19-5.1,15.32-6.68,5.06-1.56,8.67-5.04,13.35-6.9,3.61-1.44,6.74-4.42,10.25-6.42,2.84-1.61,5.76-3.34,9.27-3.08.66.25,1.31.51,1.96.76,2.05,1.37-.13,2.48-.23,3.72-.13.33-.18.78-.42.94-3.65,2.26-3.84,6.31-4.77,9.81-.85,3.19-1.31,6.49-2.03,9.74-1.16,5.26-2.9,10.5-2.24,16.07.28,2.31-.61,4.59-1.21,6.77-2.12,7.73-2.76,15.72-4.34,23.55-1.43,7.09-2.11,14.36-3.65,21.47-.1.45.22.89.29,1.35-5.48,5.49-6.58,12.42-6.4,19.74.05,2.03-.98,3.77-1.17,5.76-.93,9.77-.51,19.63-1.92,29.37-.25,1.71-.15,3.47.47,5.15.71,1.9.69,3.86.34,5.83-.47,4.99.78,9.91.59,14.88.82,3.06.41,6-.95,8.8-.79,1.62.25,3.13.1,4.74-.24,2.61-1.68,4.74-2.39,7.15-3.37,4.2-5.54,9.21-9.23,13.24-3.37,3.68-5.37,8.32-7.3,12.88-.72,1.7-1.33,3.44-2.22,5.06-1.94,2.78-4.22,5.36-5.11,8.75-4.83,7.43-10.48,14.26-15.65,21.44-1.8,2.51-4.95,4.29-5.26,7.83-8.86,11.12-17.09,22.73-26.61,33.31-1.1.78-2.35,1.43-2.58,2.98-1.02,2.15-2.45,3.86-4.86,4.51-2.23-2.95-3.63-6.18-3.2-9.99.04-.35.22-.78.07-1.03-2.74-4.38-1.64-9.98-4.77-14.34-2.67-3.71-5.81-6.1-10.4-6.42-1.39-.1-2.78-.24-4.11-.68-.54-.18-1.15-.78-1.62-.42-2.8,2.11-5.73.77-8.63.43-.35-.04-.7-.05-1.04.03-7.18,1.75-14.62,2.13-21.75,4.21-6.41,1.87-12.77,3.91-19.15,5.87-5.39,1.66-10.44,4.37-16.06,5.28-.97-.24-1.85-.83-1.84-1.8.03-4.25-1.6-8.68,1.25-12.66Z"/>
        <path class="cls-21" d="m142.45,708.1c-.29-4.1.29-8.25-.64-12.31-.87-3.81.37-7.49.71-11.2.4-4.3.98-8.74,1.06-12.91.11-5.68,1.27-11.11,1.68-16.68.54-7.19,1.94-14.28,2.96-21.39.53-3.68.34-7.68,2.07-11.2,2.8-2.82,2.34-6.89,3.96-10.21,3.24-6.62,5.78-13.56,8.51-20.4,1.62-4.06,3.65-8.02,4.21-12.47.48-3.74,2.47-7.06,4.02-10.28,3.19-6.64,5.22-13.75,8.69-20.24,2.33-4.37,3.4-9.2,5-13.83.15-.44.33-.87.57-1.27,4.83-7.85,7.06-16.8,10.58-25.21,4.43-10.6,8.95-21.19,12.74-32.05,3.12-8.92,6.93-17.56,10.18-26.42.39-1.06.47-2.36,2.01-2.51,1.85.4,2.45,1.81,2.78,3.43.12.44.05.98.34,1.34,3.6,4.33,5.39,9.68,7.94,14.57,3.76,7.19,7.92,14.15,11.58,21.4,4.63,9.19,8.87,18.57,14.14,27.45,4.06,6.84,8.34,13.74,11.33,20.96,2.56,6.17,4.79,13.12,4.49,20.2-.66,15.76-.26,31.56-1.23,47.3-.39,6.4.42,12.7.22,19.07-.12,3.87-.06,7.73-.59,11.62-.34,2.49-.3,5.02.54,7.56.99,2.99.32,6.21.32,9.3,0,8.22.4,16.43.41,24.64.02,11.2-.12,22.4-.6,33.59-.2,4.73,0,9.47.47,14.19-.25.47-.67.67-1.15.55-5.45-1.4-11.01,0-16.56-.72-3.76-.48-7.75.57-11.7.35-9.82-.54-19.68-.55-29.5-.55-10.05,0-20.08-.46-30.13-.4-7.78.05-15.58-.79-23.33-.46-3.95.17-7.7-.79-11.58-.67-1.94.06-5.58-4.82-5.76-7.54-.07-1.03-.08-2.07-.11-3.1-1.5-.94-.4-2.35-.65-3.52Z"/>
        <path class="cls-8" d="m220.59,447.79c-1.88,4.33-3.71,8.67-5.09,13.2-1.29,4.23-4.26,7.96-5.23,12.04-1.05,4.42-2.82,8.53-4.49,12.56-2.46,5.95-3.69,12.36-7.54,17.93-1.82,2.64-2.5,6.7-3.64,10.12-.66,1.96-1.5,3.77-2.24,5.67-1.9,4.83-3.46,9.76-5.97,14.39-2.58,4.76-3.11,10.41-5.88,15.17-1.53,2.63-1.93,5.81-3.88,8.25-.15.18-.39.37-.4.56-.17,4.58-3.5,7.91-4.78,11.91-1.53,4.76-3.52,9.39-4.8,14.28-1.79,6.82-5.12,13.19-7.54,19.87-1.39,3.84-3.2,7.68-5.05,11.41-.97,1.95-.63,4.22-1.8,6.14-.54.88-1.2.95-1.96,1.14.55-7.63,1.85-15.22,1.56-22.91-.06-1.56,1.43-1.93,1.77-3.09-.53-3.97.93-7.36,2.87-10.72.83-1.44-.84-1.8-1.78-2.33-1.5-1.27-1.4-2.99-.82-4.48,2.32-5.92,1.9-12.27,2.97-18.39,1.32-7.58,2.58-15.19,3.68-22.81.22-1.54.04-2.94-.31-4.43-1.52-6.57-2.16-13.29-3.14-19.95,2.31-4.44,5.74-8.06,8.91-11.85,3.93-4.7,7.39-9.74,11.01-14.66,3.91-5.31,7.34-10.95,11.43-16.12.58-.73,1.35-1.4,1.41-2.35.37-5.56,2.44-10.85,2.38-16.5-.03-2.99,1.31-5.86,1.47-8.89.14-2.67.46-5.33-.25-7.96-.62-1.33.24-2.05,1.01-2.99,3.5-4.31,7.73-7.95,11.11-12.37.94-1.23,2.22-1.95,3.77-2.31,2.7-.62,5.2-1.84,7.77-2.78,4.44-1.63,8.82-3.46,13.35-4.85.68-.21,1.38-.09,1.98.35-2.29,5.04-4.63,10.06-6.65,15.22-1.97,5.03-3.62,10.18-5.83,15.12-1.16,2.6.94,4.91.62,7.42Z"/>
        <path class="cls-8" d="m2.15,579.16c2.61-.08,4.87-1.53,6.91-2.69,3.7-2.08,7.88-2.57,11.71-4.16,7.69-3.17,16.01-4.98,24.22-6.58,1.95-.38,3.93-1.58,6.12-1.13,4.63.96,9.26-3.21,13.92-.02.15.1.55.13.62.04,3.23-4.57,7.65,1.51,11.06-1.25,2.84,2.5,6.97,3.42,8.95,6.88,1.28,2.24,1.98,4.82,2.93,7.24.55,1.41.78,2.86.38,4.35-.13.48-.95,1.26-.06,1.33,3.48.27,1.88,2.91,1.65,4.14-.67,3.55,2.17,5.99,2.35,9.18.96,1.49.33,2.87-.86,3.56-3.17,1.85-4.84,5.01-6.59,7.86-2.75,4.49-6.06,8.7-7.94,13.7-.41,1.08-1.19,1.65-2.25,1.95-2.4.75-3.72,3.34-6.27,3.74-1.11.17-2.41,2.32-3.5-.24-.29-.69-.86.22-1.1.56-.6.84-1.58.9-2.17.56-4.11-2.37-8.99-1.57-13.14-1.79-4.8-.25-9.4-1.89-14.29-1.57-4.33.29-8.14-2.62-12.21-3.93-2.29-.73-3.79-4.32-5.61-6.63-3.65-4.62-4.96-10.49-8.67-15-3.17-5.73-4.4-12.18-6.79-18.19-.37-.93-.28-1.52.64-1.94Z"/>
        <path class="cls-8" d="m486.23,582.5c1.68,1.62,3.36,3.25,5.03,4.87.15,2.93-.94,6.64-.01,8.62,1.9,4.04,1.37,8.01,1.43,11.88.11,7.56,2,14.99,1.42,22.57-.02.29.31.6.48.9,1.31,2.68,1.18,5.58,1.24,8.44.57,5.36.83,10.78,1.55,16.07.31,2.27-.64,4.84.86,7.04.3.44.19,1.6-.82,1.94-2.54-3.78-4.83-7.77-7.7-11.28-2.25-2.75-2.86-6.86-6.76-8.31-.49-.18-.73-1.14-1-1.78-2.86-6.85-8.41-11.9-12.15-18.14-1.97-3.29-5.06-5.71-6.9-8.9-4-6.93-8.96-13.1-13.46-19.62-2.08-3.02-4.8-6.06-5.57-10.25-.4-2.17-3.07-4.16-4.82-6.09-4.03-4.45-6.77-9.73-10.18-14.57-4.96-7.05-8.59-14.91-14.02-21.7-4.02-5.02-7.13-10.76-10.88-16.01-2.57-3.61-4.9-7.44-8.17-10.52-.25-.23-.66-.48-.68-.74-.17-3.44-3.27-5.07-4.91-7.54-1.73-2.61-2.67-4.88-1.68-7.84,3.05,3.48,7.05,5.42,11.31,6.94,1.11.4,2.01,1.23,2.56,2.27,2.71,5.06,7.37,8.28,11.51,11.91,2.14,1.88,4.82,3.23,7.24,4.83,1.84,1.22,3.06,3.01,4.7,4.41,6.46,5.49,12.23,11.74,18.3,17.65,4.95,4.81,9.89,9.71,15.64,13.69,2.53,1.75,4.71,4.1,7.13,6.04,6.09,4.88,12.64,9.14,19.3,13.22Z"/>
        <path class="cls-8" d="m563.72,626.19c1.16-2.21-1.18-3.49-1.47-5.4-.64-4.28-1.02-9.02-2.76-12.6-1.85-3.82-1.58-7.62-2.69-11.31-.9-3,1.9-8.14,4.81-9.53,3.61-1.72,7.56-2.8,11.38-2.64,3.85.16,7.95-1.34,11.11-.59,5.97,1.42,12.06-.43,17.93,1.84,2.28.88,5.16,1.91,7.43,1.88,5.01-.06,8.99,2.4,13.4,3.78,3.42,1.07,5.83,7.06,6.16,11.3.32,4.2-.58,8.68,1.75,12.63-1.83,2.52-3.64,5.06-6.84,6.02-1.2-1.2-1.19.39-1.59.77-2.31,2.21-4.57,4.46-8.13,4.35-1.23-.04-.47,1.27-1.07,1.69-2.87,1.81-5.74,3.66-8.6,5.41-5.2,3.18-11.08,5.13-17.46,3.59-.57-.14-1.17-.27-1.6-.65-4.24-3.75-9.84-4.32-14.79-6.39-2.52-1.05-4.96-2.27-6.97-4.17Z"/>
        <path class="cls-40" d="m272.92,724.16c-2-2.61-1.31-5.7-1.33-8.58-.04-6.25.37-12.52.23-18.77-.06-2.59.21-5.05.55-7.58.55-4.01-.86-7.99-.1-12.13.67-3.64-.42-7.45-.24-11.24.24-5.21-.2-10.44-.16-15.68.06-7.59-1.02-15.07-.15-22.82.55-4.89-.45-10.49-.54-15.67-.13-7.95.33-15.95.5-23.94.23-10.51.73-21.02.84-31.54.04-3.63-1.63-7.16-2.1-10.65-.98-7.34-4.97-13.08-8.21-19.27-4.22-8.07-8.62-16.06-12.79-24.16-4.83-9.38-9.5-18.88-14.64-28.13-2.77-5-6.44-9.66-7.84-15.54-.59-2.5-3.66-4.2-4.24-7.11,3.22.83,3.13.84,2.86-2.5-.08-.97-1.2-2.34.55-3.05,2.91,3.35,4.02,7.7,6.38,11.4,3.35,5.26,6.14,10.91,9,16.44,3.5,6.76,7.01,13.53,10.5,20.3,6.1,11.83,12.48,23.52,18.76,35.26.32.6.74,1.14,1.16,1.67.11.14.42.12.79.22.12-1.51.33-2.98.34-4.46.06-7.86.03-15.72.12-23.57.06-4.99-.02-10.01.51-14.95.56-5.26,1.51-10.53,4.68-15.05.64-.91,1.42-1.94,2.41-1.63,1.05.33.8,1.63.87,2.7.24,3.8-.53,7.66-1.48,11.04-1.24,4.41-.4,8.63-.63,12.86-.29,5.31-.97,10.67-.53,16.06.41,4.97.4,10.07-.04,14.95-.45,5,.79,9.86-.11,14.94-.73,4.12-.66,8.67-.23,13,.53,5.43.07,10.86-.26,16.22-.27,4.34.53,8.65-.14,12.95-1.13,7.23-.04,14.53-.75,21.82-.58,6.01,0,12.16.33,18.24.31,5.75-.75,11.39-1.03,17.09-.15,2.91.2,5.72.39,8.54.66,9.95-.28,19.95.52,29.82.73,8.98-.52,17.89.48,26.87.53,4.8.86,9.95-.43,14.87-1.46,1.15-2.99,1.91-4.82.75Z"/>
        <path class="cls-21" d="m230.86,266.17c-.18.36-.36.72-.54,1.08-1.06,9.13.2,18,3.76,26.41,1,2.36,1.13,4.83,2.2,7.17,3.06,6.68,5.8,13.51,7.46,20.71.41,1.8,2.36,2.94,2.18,5.01-1.54,2.31-4.25,2.07-6.45,2.83-2.84.97-5.73,1.82-8.57,2.82-5.69,2.01-8.78,6.64-11.82,11.28-4.06,6.19-8.88,11.79-13.28,17.72-.64.86-1.3,2.04-2.78,1.64-.73-1.1-.12-2.27-.15-3.4-.16-8.05.17-16.09.22-24.14.08-13.19,1.86-26.3,2.76-39.46.08-1.16.01-2.35.2-3.47.43-2.54-.81-3.63-3.05-4.06-.81-1.07-.61-2.15.05-3.18,2.08-3.21,3.89-6.79,8.5-6.87,1.2-.02,1.56-1.69,2.89-1.47.02,0,.13-.21.1-.3-.03-.09-.17-.15-.25-.22,5.49-2.88,11.1-5.59,15.39-10.28.49-.54.78.1,1.17.17Z"/>
        <path class="cls-17" d="m435.41,223.99c1.89-2.35,2.31-5.48,2.33-8.04.04-5.82.15-11.64.23-17.46.06-4.55-.26-9.11-.54-13.66-.44-7.27-.18-14.56-.89-21.83-.83-8.4-1.41-16.82-2.02-25.23-.41-5.61-.77-11.23-.97-16.85-.2-5.56-2.31-10.67-3.49-15.99-1.55-7.04-3.48-14.02-5.65-20.89-1.88-5.96-4.3-11.74-6.76-17.51-1.94-4.54-3.14-9.37-5.58-13.79-4.2-7.58-8.9-14.74-14.69-21.22-2.05-2.3-4.58-4.2-6.08-6.98,1.8-.04,3.09.98,4.14,2.23,3,3.54,6.78,6.21,9.03,10.72,1.32,2.65,4.4,4.97,6.4,7.76,4.65,6.49,7.53,13.8,10.8,21,4.31,9.5,6.75,19.55,9.76,29.42,1.76,5.79,2.34,11.93,3,17.99.33,3.09,1.35,6.11,1.57,9.2.52,7.27,1.37,14.5,1.68,21.8.19,4.42,1.02,8.98,1.38,13.41.34,4.12.31,8.42.27,12.64-.04,3.45,0,6.9,0,10.35.39,0,.79.02,1.18.03.28-5.2.62-10.4.76-15.6.03-1-.07-2.22.82-2.3,1.14-.1,1.61,1.14,1.63,2.24.11,6,.13,11.99-.46,17.97-.49,4.89-.43,9.84-1.06,14.7-.88,6.8-.89,13.69-2.85,20.39-.93,3.19-.55,6.67-1.64,10.01-.74,2.27-1.64,4.51-2.36,6.8-.49,1.55-.23,4.64-3.41,1.8-1.4-1.25-2.26.42-2.01,1.54.42,1.88-.18,3.65-.1,5.47-1.51-1,.07-3.51-2.06-4.19-.9-1.01-.37-2.09.18-2.86,2.68-3.77,4.38-8.05,6.47-12.13.21-.41.56-.73.99-.94Z"/>
        <path class="cls-23" d="m203.27,288.13c3.08-.57,3.62.17,3.65,3.13.07,7.17-.76,14.32-1.47,21.38-.75,7.5-1.39,15.07-1.51,22.53-.08,5.21-1.21,10.56-.36,15.57.71,4.21-.18,8-.36,11.98-.44,3.03-2.32,4.81-5.07,5.83-1.44-.85-1.58-2.31-1.39-3.68,1.02-7.53-.17-15.08.31-22.6.88-13.5-.14-27.13,2.98-40.49.49-2.11.15-4.5.98-6.65-.37-1.23,1.73-1.95.68-3.32,0-.75.01-1.5.02-2.25.49-.49.58-1.43,1.53-1.42Z"/>
        <path class="cls-17" d="m157.69,513.69c1.47,4.67,1.24,9.65,2.58,14.31,1.82,6.35,1.43,12.71-.25,18.81-1.71,6.22-1.72,12.64-3.06,18.9-1,4.63-1.11,9.53-2.53,14.19-.3.98.31,2.23.5,3.36.16,2.17.31,4.33-.23,6.48-.25,1-.28,2.12-1.79,1.85.02-6.34-.78-12.71.15-18.99.38-2.57-.62-4.81-.32-7.38.97-8.26-.07-16.6.46-24.95.32-5.01.24-10.2.36-15.31.03-1.2-.41-2.01-1.49-2.5-.61-.75-.51-1.62.06-2.2,2.02-2.06,3.02-4.81,4.89-6.97.36-.11.58.02.66.39Z"/>
        <path class="cls-20" d="m375.35,14.83c-4.03-.23-7.32-2.48-10.88-3.99-3.06-1.29-5.69-3.23-9.17-4.01-9.97-2.24-19.96-4.38-30.15-4.73-7.6-.26-15.3-.52-22.79,1.4-.92.24-1.53-.14-2.28-.16,3.14-3.23,7.44-2.86,11.3-3.16,7.71-.61,15.43.64,23.13.84,8.45.23,16.18,3.05,23.88,5.61,5.86,1.95,12.17,3.74,16.97,8.21Z"/>
        <path class="cls-34" d="m608.97,502.49c-1.67-2.43-3.76-4.65-4.18-7.75-.22-1.64-1.42-2.38-2.54-3.41-.87-.8-2-2-1.75-3.6,3.32,1.51,5.56,4.31,8.04,6.81,1.21,1.22-.02,2.62.09,3.93.11,1.34.23,2.67.35,4.01Z"/>
        <path class="cls-42" d="m440.38,292.61c-1.32.94-6.84.85-7.77.06-1.42-1.22.69-.88.72-1.76.07-2.14-1.06-3.75-1.62-5.6,2.91,2.41,6.95,3.48,8.66,7.31Z"/>
        <path class="cls-39" d="m237.6,248.34c.77,1.74.63,3.26-.35,5.04-1.7,3.07-4.13,5.84-4.47,9.57-.02.26-.71.46-1.08.69-1.27-1.96.32-3.58.86-5.18,1.2-3.58,2.71-7.08,5.05-10.13Z"/>
        <path class="cls-8" d="m157.17,513.63c-.73,3.5-4.14,5.46-5.09,8.83-1.85.91-1.98,3.54-4.15,4.12-.68-4.04,2.66-6.11,4.37-8.99,1.96-1.24,1.99-4.4,4.78-4.8.06,0,.16.15.21.25.09.17.04.37-.12.58Z"/>
        <path class="cls-28" d="m152.91,591.59c2.49-1.23.68-3.49,1.12-5.22.27-1.04.15-2.18.9-3.11,2.97-.92,3.64,1.19,2.54,2.84-1.93,2.91-3.26,5.76-3.06,9.28.02.33-.51.69-.78,1.04-.24-1.61-.48-3.22-.71-4.83Z"/>
        <path class="cls-11" d="m495.81,639.79c-1.38-2.67-1.21-5.57-1.24-8.44,3.69,2.89,3.78,3.51,1.24,8.44Z"/>
        <path class="cls-4" d="m69.19,423.47c1.57,3.2-.88,5.23-2.2,7.59.47-2.61-.65-5.67,2.2-7.59Z"/>
        <path class="cls-10" d="m97.73,359.92c-.98.89.32,3.72-2.55,3,.13-1.61.32-3.17,2.55-3Z"/>
        <path class="cls-27" d="m566.58,416.51c-.37-1.22-2.76-1.57-1.49-3.49.87,1.01,2.7,1.6,1.49,3.49Z"/>
        <path class="cls-32" d="m329.35,724.18c1.36.39,2.79-1.57,4.12.1-1.42,1.8-2.78,1.32-4.12-.1Z"/>
        <path class="cls-37" d="m142.45,708.1c1.18,1,.06,2.42.65,3.52-3.01-.66-1.24-2.2-.65-3.52Z"/>
        <path class="cls-22" d="m306.32,332.23c5.93-3.23,12-4.83,18.83-2.87,2.89.83,6.09.63,9.04,1.56,1.59-.25,3,.14,4.26,1.12.88.71,1.65,1.54,2.83,1.82,4.42,1.06,6.96,4.82,10.39,7.31,3.76.53,5.27,3.99,7.67,6.18,1.83,1.68,4.37,3.27,4.34,6.38,6.83,7.71,12.82,16.11,19.62,23.86,2.35,2.69,4.26,5.66,7.49,7.4,3.02-.58,4.41,1.29,5.51,3.63,3.82,2.85,7.66,5.68,11.44,8.59.57.44.98.94,1.75.62,1.37.47,2.29,1.39,2.76,2.76-.97,11.07.4,22.17-.65,33.29-.66,7.06.09,14.3-1.38,21.32-.69,3.29-1.08,6.91-4.11,9.25-.54.93-1.43.85-2.08.4-3.26-2.26-7.42-3.3-9.65-6.93-.91-1.48-2.36-1.67-3.74-2.13-8.24-10.05-18.88-17.39-28.94-25.35-3.64-2.88-8.35-3.97-13.03-4.57-1.44-.18-3.12.05-3.96-1.65-1.24-.97-2.45-2.01-4.21-1.48-2.16,1.86-3.78.2-5.5-.83-8.37-3.14-15.4-8.12-20.99-15.11-.47-.59-1.29-.91-1.95-1.35-4.84-2.97-8.18-7.45-11.6-11.8-1.64-2.09-3.08-4.27-5.4-5.72-1.17-.73-2.19-1.74-2.36-3.28.26-1.72-.44-3.2-1.28-4.6-1.25-2.11-1.51-4.4-1.13-6.74.39-2.46,1.78-3.13,3.98-1.93,2.87,1.56,5.14,3.96,7.87,5.74,2.3,1.5,4.77,2.19,7.58,2.88.03-1.85-.94-2.65-2.17-3.39-2.29-1.37-4.32-3.15-6.73-4.35-5.82-2.9-7.81-8.57-10.11-14-.82-1.94.36-3.31,1.53-4.66,1.2-1.39,2.45-.79,3.78-.25,6.99,2.83,14.41,4.54,21.17,7.99.21.11.43.2.66.21,1.32.03,3.09.78,3.65-.93.48-1.48-1.1-2.28-2.24-2.67-7.11-2.45-13.95-5.79-21.59-6.48-3.45-.31-5.52-5.2-3.36-8.03,1.41-1.84,3.2-3.36,4.72-5.13.68-.79,1.57-.72,2.55-.63,3.16.28,6.3.93,9.09,2.29,5.84,2.84,12.38,3.09,18.33,5.44.32.13.69.19,1.03.16.85-.07,2.1.48,2.29-.85.13-.92-.89-1.28-1.66-1.51-3.23-.95-6.39-2.23-9.68-2.86-4.28-.82-8.07-2.92-12.16-4.22-1.55-.49-3.18-1.63-2.53-3.9Z"/>
        <path class="cls-22" d="m198.24,368.4c1.93-1.66,3.47-3.65,4.98-5.68,3.4-4.04,6.58-8.26,9.82-12.43,3.89-4.99,6.74-10.85,11.38-15.12,3.99-3.67,9.32-5.28,14.62-6.55,2.23-.54,4.58-.76,6.58-2.05,3.53-1.96,7.24-2.94,11.29-2.15,6.92-.36,13.82-1.66,20.46,2.07,3.63,2.04,7.94,2.78,11.64,4.94,1.78,1.04,3.35,2.15,3.93,4.06.54,1.78,1.7,1.61,2.98,1.55.75,1.2-.21,1.67-.97,2.16-1.07.7-2.12,1.37-2.95,2.4-2.06,2.54-3.85,2.7-6.45.7-.09-.07-.14-.18-.22-.27-7.86-8.16-17.47-8.76-27.7-6.2-2.28.57-4.6.6-6.85,1.16-.76.19-1.79.37-1.67,1.42.12,1.01,1.16,1.03,1.94,1.09,3.97.29,7.85-.53,11.75-1.1,3.93-.58,7.79-.89,11.57.77,1.28.56,2.69.87,4.07.91,4.42.1,7.63,2.97,11.25,4.86,2,1.05,3.18,5,2.25,6.27-2.27,3.11-5.39,3.85-8.11,1.55-2.52-2.13-4.94-4.63-8.36-4.53-2.77.08-5.54-.36-8.31.04-4.37.62-8.76.95-13.19.97-1.25,0-3.24-.43-3.24,1.62,0,1.88,1.93,1.64,3.23,1.92,3.95.84,7.84-.23,11.75-.47,6.42-.4,12.73-.37,18.83,2.08,1.97.79,3.37,1.75,3.56,4.16.18,2.27,2.23,3.75,3.04,5.81.56,1.42,2.36,2.75.7,4.34-1.55,1.49-3.27,3.14-5.78,1.74-1.55-1.04-2.7-2.53-4.17-3.66-2.32-1.78-4.95-2.85-7.79-2.24-5.67,1.22-11.51,1.43-17.11,2.99-1,.28-2.88-.08-2.71,1.44.19,1.67,2.11,1.78,3.42,1.54,4.69-.85,9.49-.46,14.17-1.37,4.9-.95,9.63,0,14.31,1.39,2.52,2.36,2.6,5.5,2.74,8.61-3.79,6.67-8.85,9.43-15.57,8.48-1.26-.18-2.53-.45-3.49-1.41l.19-1.06c.94-1.67,2.96-2.14,4.06-3.66.5-.7,1.73-1.19.81-2.23-.85-.96-2.09-1.03-3.16-.34-1.23.8-1.77,2.08-1.84,3.53-.04.9.6,1.77.15,2.7-8.28.82-13.71,6.37-19.67,11.35-5.61,4.69-10.81,9.96-17.25,13.61-.17.29-.41.37-.73.24-1.86-.87-3.31.68-4.7,1.21-6.48,2.44-12.85,5.13-19.56,6.98-2.75.76-3.74,4.08-5.86,6.01-3.07,2.78-5.55,6.3-8.49,9.32-.09.1.06.44.1.67-.36,2.07-1.82,3.5-3.23,4.78-3.76,3.43-7,7.31-10.29,11.15-1.18,1.38-2.91,1.83-4.54,2.37-1.42.47-1.83-.45-1.94-1.64-2.06-13.64.16-27.23.93-40.79.35-6.23.81-12.66,2.65-18.76.85-2.82,3-4.77,5.25-6.56-.09-1.12.8-1.6,1.49-2.15,4.46-3.52,8.06-7.78,11.14-12.52.64-.98,1.23-2.3,2.85-2Z"/>
        <path class="cls-9" d="m269.86,386.2c2.56-.1,5.01.69,7.65.5,3.76-.27,6.63-1.78,8.49-4.79.66-1.07,1.71-1.37,2.29-2.29,2.77.48,2.36,3.97,4.64,4.91.25.39.41.92.76,1.14,5.85,3.76,9.01,9.95,13.53,14.89,1.54,1.68,3.68,2.8,4.84,4.89-1.44,5.67-5.21,10.2-7.51,15.42-2.6,5.92-6.75,10.94-8.91,17.13-1.48,4.25-4.51,7.94-6.2,12.13-1.91,4.72-4.96,8.89-6.26,13.93-.53,2.05-2.18,3.83-3,5.94-.49,1.26-1.46.8-1.89-.37-.12-.32-.33-.74-.21-.98,3.14-6.68-.47-12.52-2-18.72-.92-3.71-.82-7.7-1.49-11.57-1.43-8.21-2.5-16.49-3.39-24.78-.49-4.58-1.5-9.26-1.27-13.71.23-4.33-1.1-8.28-1.08-12.45,0-.78.73-.79,1.02-1.24Z"/>
        <path class="cls-36" d="m390.93,455.42c1.8.04,3.02.31,4.35,2.2,2.53,3.57,6.63,5.45,10.82,6.84,1.63,1.56,1.64,3.5,1.07,5.43-1.53,5.24-1.65,10.65-2.35,16-.33,2.56-.66,5.59-2.18,8.04-3.6,2.1-5.75,1.16-6.79-2.94-1.2-4.74-1.71-9.55-1.61-12.32.21,5.43.57,12.96.65,20.5.02,2.11.58,3.84,2.15,5.24,6.04,1.82,10.42,5.88,15.06,10,4.5,3.99,9.46,7.62,14.26,11.34,7.05,5.47,13.08,12.08,19.66,18.08,5.6,5.12,10.44,11.11,17.05,15.17,1.57.96,2.81,2.76,4.48,3.95,3,2.14,5.56,4.97,8.74,6.72,2.92,1.61,5.44,3.73,8.26,5.44,3.22,1.95,3.54,4.61,1.68,7.38-3.04.74-4.77-1.64-6.73-3.09-2.47-1.83-4.26-4.26-7.74-4.91-2.12-.39-3.61-3.03-5.49-4.57-7.16-5.89-14.14-12-21.14-18.09-3.03-2.63-6.05-5.47-8.55-8.44-3.95-4.69-9.4-7.65-13.01-12.35-1.76-2.29-5.63-2.27-5.81-5.86-4.27.45-5.89-3.38-8.42-5.52-2.8-2.37-5.95-4.56-7.46-8.24-1.34-3.26-5.02-3-7.57-4.35-2.61-1.38-4.66-2.86-5.79-5.56-.55-3.91.05-7.81.1-11.71.08-5.58-.15-11.18.64-16.74-1.16-4.97-1.01-9.97-.2-14.95.18-1.1-.06-2.71,1.86-2.7Z"/>
        <path class="cls-14" d="m335.01,421.92c1.93-.38,3.56,1.3,5.5.83.06.8,1.64.33,1.14,2.1-.68,2.45,1.54,4.85,2.65,6.9,4.69,8.66,4.1,19.28-2.24,26.84-3.21,3.83-6.8,7.45-9.36,11.69-2.25,3.71-5.14,6.92-7.53,10.5-2.34,3.52-4.94,6.98-7.37,10.5-3.4,4.94-6.69,9.95-9.96,14.96-4.18,6.42-9.47,11.99-13.96,18.14-2.9,3.98-4.78,8.73-6.88,13.24-1.23,2.64-2.7,5.09-4.34,7.46-.43.63-.69,2.06-1.97,1.42-1.15-.57-1.07-1.85-.74-2.79,1.13-3.23,2.17-6.53,3.72-9.56,3.13-6.13,6.7-12.04,9.77-18.2.76-1.53,1.84-2.65,2.86-3.8,5.39-6.07,7.97-14.03,13.43-19.96,4.06-4.41,6.53-9.85,10.25-14.52,3.84-4.81,7.23-10.17,10.95-15.17,3.04-4.09,6.41-7.95,9.44-12.07.95-1.29,1.15-2.4,1.03-4.07-.49-6.85-3.07-12.99-5.57-19.23-.62-1.53-2.31-3.23-.83-5.22Z"/>
        <path class="cls-8" d="m390.93,455.42c-1.98,4.08-1.24,8.5-1.56,12.78-.12,1.62-.08,3.25-.11,4.88-1.8-4.52-5.51-7.48-8.84-10.72-3.77-3.67-6.89-7.95-11.13-11.23-1.12-.87-2.28-3.21-1.76-5.39-1.6.68-7.17-1.55-7.35-3.54-.24-2.68-2.47-3.78-3.72-4.48-2.88-1.62-4.49-4.04-6.26-6.49-.07-.09-.11-.2-.17-.3-.58-1.03-2.18,2.91-2.1-.34.05-2.28-2-2.01-2.95-2.78-1.72-1.4-1.34-2.3-.27-3.58,3.53,1.37,7.38,1.24,11,2.49,3.44,1.19,6.48,2.79,9.26,5.01,7.76,6.22,15.64,12.3,22.74,19.28,1.26,1.24,2.78,2.47,3.21,4.4Z"/>
        <path class="cls-2" d="m232.42,410.34c.24-.08.48-.16.72-.24,2.36.29,3.16,1.35,2.2,3.75-2.46,6.14-4.8,12.33-7.12,18.52-.89,2.38-1.52,4.87-2.44,7.24-.84,2.17-1.07,4.2.34,6.2.07,1.26-.1,2.6.26,3.77.38,1.24,1.1,2.37-.35,3.28-1.79,1.13-2.18-1.06-3.32-1.5,0-1.62-.83-2.73-2.13-3.57-2.06-3.4-1.94-6.45-.31-10.36,2.1-5.06,3.79-10.39,6-15.42,1.75-3.99,2.01-8.91,6.14-11.68Z"/>
        <path class="cls-5" d="m295.5,642.27c-.73-.96-1.08-1.78-3.07-1.34-2.22.49-4.6-2.25-6.31-4.06-1.79-1.89-.78-6.53,1.15-8.36,3.26-3.1,8.21-2.27,10.32,1.83.29.56.72.75,1.02,1.11,2.19,2.74,2.07,5.52-.65,7.75-1.06.87-1.14,2.24-2.45,3.08Z"/>
        <path class="cls-15" d="m300.74,695.27c.03,3.08-2.67,5.2-6.32,5.59-2.58.27-7.26-4.86-7.33-7.7-.04-1.56,4.93-7.27,6.36-7.28,3.26-.01,7.24,5.12,7.28,9.39Z"/>
        <path class="cls-5" d="m296.77,565.81c.02,2.78-2.53,6.3-4.63,6.37-3.77.14-8.24-3.72-8.33-7.19-.08-3,4.22-7.16,7.53-7.29,2.06-.08,5.4,4.92,5.43,8.11Z"/>
        <path class="cls-14" d="m412.25,400.6c-1.26-.58-2.12-1.56-2.76-2.76,1.52-3.31,4.11-4.47,7.22-2.95,5.25,2.57,9.44,6.72,14.23,9.9,5.75,3.8,10.21,9,15.67,13.1,3.92,2.95,8.02,6.34,11.08,10.49.87,1.18,2.02,1.67,3.74,2.76-3.03-10.73-2.98-21.05-3.02-31.33-.04-9.48.37-18.96.54-28.43.07-4.14,1.05-8.29,1.15-12.28.15-6.01.65-11.79,2.51-17.47.07-.22.06-.46.14-.68,1.02-2.79,5.24-6.67,6.02-5.68,1.82,2.28.55,4.75-.13,7.34-2.29,8.77-3.63,17.67-3.46,26.85.09,5.09-.63,10.25-.63,15.39,0,6.98.46,13.98.05,20.93-.49,8.37.91,16.7.05,25.03-.37,3.53,2.24,5.91,2.92,9.03.28,1.28,6.91,3.53,7.87,2.76,1.75-1.41,2.4-3.69,3.87-5.46,4.07-4.93,7.5-10.38,11.46-15.41,3.22-4.1,6.66-8.07,10.32-11.77,4.01-4.05,7.76-8.36,12.19-12.03,2.33-1.93,4.93-3.34,7.37-5.05,1.17-.82,3.19-1.07,4.24.65,1.03,1.68-.34,2.59-1.42,3.74-4.01,4.25-8.78,7.62-12.73,12.03-3.24,3.62-7.33,6.61-10.4,10.54-2.65,3.38-5.58,6.58-7.91,10.16-3.31,5.09-7.44,9.5-11.32,14.36,10.08,2.56,18.93,7.84,28.24,12.06,6.5,2.96,12.49,6.95,18.53,10.62,4.96,3.01,9.96,6.52,14.89,9.52,4.98,3.02,9.12,6.93,13.87,10.1,4.74,3.16,8.15,8.09,13.47,10.56,1.41.65,1.86,2,2.25,3.23.36,1.13.07,2.4-1.68,2.12-3.26-.51-6.37-1.43-8.26-4.4-1.65-2.59-4.41-3.69-6.58-5.48-3.74-3.09-8.11-5.09-11.91-8.02-2.31-1.78-4.91-3.43-7.55-4.91-2.02-1.13-4.16-2.51-5.93-4.04-3.53-3.06-7.63-5.11-11.78-6.87-1.67-.71-3.26-1.73-4.57-2.63-4.02-2.75-8.51-4.72-12.73-6.86-4.09-2.08-8.11-4.75-12.99-5.76-2.84-.59-5.95-1.9-8.87-3.05-4.08-1.59-8.44-2.44-12.3-4.65-.66-.38-1.43-.35-1.86-1.26-2.3-4.93-7.17-7.44-10.88-11-2.72-2.61-4.91-5.92-7.76-7.97-3.12-2.24-5.85-4.78-8.71-7.26-6.96-6.02-14.03-11.9-21.62-17.12-1.27-.88-2.56-1.62-4.12-.68Z"/>
        <path class="cls-14" d="m493.64,369.59c-5.18,1.15-6.32,6.11-8.36,9.71-5.45,9.58-9.79,19.7-11.26,30.84-1,7.58-1.02,15.11.18,22.65.32,2.02,1.06,5.05-1.13,5.5-2.06.42-2.37-2.72-2.99-4.61-2-6.11-2.22-12.66-1.54-18.71,1.06-9.44,2.59-18.97,7.42-27.66,3.28-5.9,5.73-12.19,9.82-17.74,2.93-3.98,6.57-5.56,10.99-5.97,3-.28,5.33,3.5,3.71,6.08-2.57,4.08-2.91,8.87-4.67,13.2-2.03,5.01-3.67,10.21-5.16,15.42-1.52,5.31-3.47,10.47-4.63,15.93-1.04,4.93-3.55,9.54-5.43,14.29-.21.53-.59,1.08-1.29.92-.75-.18-.69-.89-.64-1.43.59-6.22,1.51-12.4,3.16-18.41,2.16-7.88,4.28-15.82,7.11-23.47,1.55-4.19,2.57-8.63,4.76-12.6.7-1.26.83-2.63-.06-3.92Z"/>
        <path class="cls-8" d="m363.67,353.74c-3.29-4.87-7.85-8.52-12.01-12.56,5.07-8.29,10.43-16.39,15.86-24.45,3.87-5.75,7.89-11.45,11.1-17.68,1.31-2.55,3.27-4.82,4.35-7.64.82-2.12,2.69-1.04,4.2-.56-2.15,4.35-2.24,9.33-4.23,13.76-1.02,2.28-2.51,4.63-2.11,7.2.49,3.16-2.86,5.17-2.09,8.26.39,1.56-1.45,1.4-1.81,2.56-1.61,5.12-4.44,10.04-5.44,15.05-.85,4.23-4.18,7.66-3.65,12.3.05.46-.7,4.83-4.17,3.79Z"/>
        <path class="cls-14" d="m396.29,388.64c-1.81-1.25-3.2-3.14-5.51-3.63,4.58-4,9.21-7.95,13.71-12.03,3.04-2.76,5.79-5.84,9.1-8.32.3-.22.41-.79.47-1.22.99-7.59,2.97-14.94,4.82-22.36,3-11.98,5.89-24.05,6.82-36.42.29-3.8.85-7.47,1.85-11.1.29-1.06.54-2.87,2.32-2.47,1.77.39,1.07,1.92,1.04,3.16-.08,3.27.01,6.54-.05,9.81-.08,4.23-.78,8.38-1.85,12.45-.5,1.89-.75,3.93-.72,5.71.1,6.47-2.8,12.33-3.15,18.76-.27,5.11-2.28,10.19-3.95,15.13-.97,2.88-.15,5.85-1.35,8.72-1.25,2.96-2.22,5.88-5.34,7.38-.29.14-.61.29-.8.53-4.32,5.31-10.19,8.81-15.32,13.16-.9.76-1.63,1.63-2.08,2.73Z"/>
        <path class="cls-5" d="m453.64,510.62c-1.09,1.15-.26,4.36-4.29,4.91-4.44.6-4.37,1.08-7.23-2.37-.15-.18-.27-.38-.45-.52-.76-.58-2.7,1.28-2.43-1.79.29-3.3.94-6.99,3.23-8.29,1.61-.92,4.92-2.3,7.8-.57,2.41,1.45,2.73,3.78,3.54,5.96.18.48-.05,1.11-.16,2.66Z"/>
        <path class="cls-5" d="m421.72,495.85c.48-5.79,2.32-8.1,6.1-7.98,2.91.09,6.18,4.32,5.93,7.68-.23,3.04-3.51,7.22-5.18,6.21-1.99-1.19-4.6-.68-6.13-2.66-.85-1.1-.63-2.36-.71-3.25Z"/>
        <path class="cls-29" d="m397.05,504.41c-2.62.2-3.09-2.13-2.97-3.54.29-3.18-.41-6.28-.11-9.52.48-5.07-.4-10.28-.78-15.42-.04-.59-.25-1.11.6-1.97,1.55,2.08,1.73,4.48,1.39,6.64-.65,4.07,1.14,7.68,1.81,11.46.52,2.87,3.35,2.39,5.64,1.89.57,5.29-1.62,9.38-5.59,10.47Z"/>
        <path class="cls-25" d="m634.89,611.84c-.01,1.93-1.69,2.03-2.9,2.65-.02-1.96.99-2.8,2.9-2.65Z"/>
        <path class="cls-18" d="m265.26,247.52c-4.63-7.23-9.71-14.16-13.32-22.03-2.63-5.75-4.42-11.71-5.66-17.85-2.01-9.9-4.46-19.75-5.62-29.76-.7-6.03-.44-12.46-1.39-18.3-1.31-8.06-.73-16.08-1.09-24.02-.37-8.08-.28-16.51,1.58-24.63,2.91-3.7,6.68-6.43,10.62-8.85,5.03-3.09,10.11-6.14,15.45-8.71,2.38-1.14,4.95-1.15,7.48-1.39,5.42-.52,10.81-1.38,16.27-1.49,2.21-.05,4.41-.03,6.45.99,1.25.95,2.72,1.44,4.22,1.32,4.47-.35,8.74.77,12.97,1.83,6.27,1.57,12.55,3.13,18.87,4.51,2.94.65,5.55,2.25,8.31,3.37,5.98,2.43,12.38,3.85,17.91,7.46,1.84,1.2,4.22,1.81,6.57,1.9,2.52-.09,3.23,2.45,5.02,3.42,1.23.56,1.17,1.49.73,2.53,1.41,2.63,1.28,5.62,1.61,8.41,1.13,9.39,1.76,18.87,2.29,28.3.46,8.28,1.07,16.64.77,24.92-.39,10.71.8,21.37.15,32.08-.36,5.97-.08,12.02-.64,18.02-2.39,6.96-5.8,13.28-11.12,18.52-5.53,5.43-10.85,11.06-17.05,15.78-3.9,2.97-8.12,5.43-12.32,7.86-5.29,3.05-10.61,6.07-16.19,8.61-3.54,1.61-6.99,3.16-11,2.12-.8-.21-1.62.06-2.42.14-8.74.95-15.29-2.6-20.18-9.71-3.88-5.66-8.42-10.76-13.11-15.76-2.6-2.77-4.83-5.93-6.15-9.59Z"/>
        <path class="cls-41" d="m369.91,115.29c-2.24,0-2.79-2.8-4.92-2.97-1.55.16-2.65-.84-3.73-1.63-4.54-3.31-9.79-4.98-14.97-6.88-2.8-1.03-5.24-2.85-8.12-3.79-5.38-1.74-10.73-3.42-16.29-4.69-8.61-1.96-17.35-2.1-26.01-3.22-4.31-1.45-8.69-.57-13.04-.38-2.83.13-5.64.97-8.46.93-7.87-.1-13.8,4.45-20.11,8.06-4.05,2.32-8.18,4.57-11.3,8.25-.76.9-1.87,1.73-3.2,1.94.37-7.41,1.98-14.58,3.45-21.84,1.41-6.96,5.44-12.52,8.28-18.63,2.26-4.86,5.16-9.85,9.74-13.55,1.8-1.45,3.15-3.82,5.17-5.35,6.52-4.95,13.76-8.37,21.97-8.68,3.94-.15,8.17-.38,11.83,2.13,2.87,1.97,6.51,1.75,9.73,2.99,4.07,1.57,7.62,3.76,11.08,6.16,6.64,4.6,12.98,9.65,18.65,15.42,9.03,9.17,17.82,18.59,22.99,30.64,2.21,5.14,5.6,9.68,7.25,15.08Z"/>
        <path class="cls-9" d="m265.26,247.52c6.4,9.46,14.9,17.21,21.45,26.59,4.51,6.46,11.28,8.94,19.2,7.35,1.97-.39,3.68.97,5.74.3,4.64-1.52,8.98-3.59,13.23-5.98,4.49-2.53,9.11-4.81,13.48-7.57,6.09-3.85,12.12-7.72,17.01-13.15,2.92-3.24,6.09-6.26,9.28-9.25,1.89-1.77,3.5-3.72,4.46-6.1,1.41-3.47,3.94-6.36,5.03-9.98,4.62-9.98,9.23-19.97,12.78-30.4.19-.57.54-1.02,1.17-1.17.69.69,1.07,1.44.76,2.48-1.94,6.62-4.15,13.18-5.68,19.9-1.19,5.21-3.56,9.98-4.66,15.28-.99,4.8-3.22,9.5-4.79,14.29-1.73,5.31-3.74,10.55-6,15.65-2.95,6.65-4.83,13.69-7.56,20.43-2.01,4.95-4.17,9.98-5.86,15.14-1.51,4.61-4.14,8.89-6.19,13.36-2.28,4.97-5.04,9.72-7.65,14.54-.54,1-1.33,1.87-2,2.81-1.61.33-3-.13-4.26-1.13-.44-2.46,1.12-4.62,2.24-6.15,2.85-3.88,3.5-8.62,5.95-12.59,3.77-6.1,6.48-12.78,8.89-19.46,2.7-7.46,5.51-14.87,8.53-22.2.27-.66.39-1.34.03-2.01-2.3-.46-1.96,1.74-2.76,2.77-7.46,9.5-15,18.91-24.1,26.95-2.01,1.77-4.01,3.72-5.77,5.56-4.03,4.22-8.77,5.29-14.04,6.07-6.81,1.01-9.83-.44-13.12-6.39-1.91-3.44-4.27-6.59-6.87-9.63-3.36-3.92-6.26-8.28-9.05-12.65-3.92-6.13-8.92-11.54-12.15-18.09-2.5-5.07-6.86-9.36-6.7-15.58Z"/>
        <path class="cls-6" d="m388.07,198.16c-2.75,9.12-6.98,17.65-10.53,26.45-.75,1.86-2.26,3.42-3.41,5.12.2-4.64.83-9.32.48-13.92-.49-6.45-.1-12.91.07-19.29.14-5.35-1.22-10.56-.37-16.06.57-3.65.33-7.93-.43-11.95-.55-2.91-.3-6.07-.26-9.09.07-6.15-.32-12.19-1.37-18.27-.74-4.33.15-8.84-.59-13.28-.55-3.31-1.5-6.62-1.03-10.06,2.95,3.24,3.32,7.66,5.18,11.39,1.93,3.86,2.38,8.3,4.88,11.9,2.05,2.96,1.5,6.61,2.74,9.85,3.81,9.96,6.31,20.33,7.64,30.9.4,3.19,1.61,7.03-.21,9.72-1.45,2.16-2.14,4.28-2.8,6.59Z"/>
        <path class="cls-7" d="m292.94,384.53c-1.95.58-2.52-1.03-3.02-2.21-.43-1.01-.86-1.93-1.62-2.7-.23-3.17-1.1-6.18-2.17-9.15h0c5.95-1.05,6.56-2.28,3.29-7.6-1.14-1.85-2.76-3.33-2.32-5.82.19-1.09-.96-1.06-1.68-1.36-6.67-2.8-13.51-3.2-20.68-2.29-4.2.53-8.57,1.06-12.86.21-1.73-.34-2.55-1.7-2.55-3.21,0-1.51,1.33-2.08,2.73-1.97,6.64.54,13.18-.88,19.82-.95,5.3-.05,9.08,1.15,12.59,4.79,1.56,1.62,7.43-.08,7.27-2.05-.14-1.71-1.29-3.57-2.84-4.9-5-4.3-11.66-4.1-17.45-6.25-1.96-.72-4.88-.75-7.39-.13-4.17,1.02-8.43,1.55-12.74,1.51-1.54-.01-3.47-.16-3.72-1.81-.26-1.76,1.43-2.3,3.09-2.51,7.56-.98,14.94-3.41,22.78-2.04,3.78.66,6.54,2.73,9.39,4.87,1.11.83,1.99,2.01,3.18,2.68,1.85,1.05,3.92,2.99,5.29-.81.72-1.98,3.78-1.64,4.6-3.8,3.51-.25,5.83-3.91,9.64-3.41.19.02.5-.92.75-1.41.46,2.06,1.97,3.09,3.8,3.69,6.91,2.27,13.77,4.69,20.9,6.25,1.34.29,3.11,1.37,2.91,3.05-.23,1.91-2.26,1.49-3.39,1.17-6.39-1.81-13.03-2.63-19.22-5.29-3.31-1.42-7-1.98-10.51-2.94-.95-.26-1.09.52-1.51,1.04-.8.99-1.52,2.24-2.58,2.78-3.92,2.01-1.04,5.4-1.75,8.04-.22.8,1.11.54,1.71.55,8.1.12,15.1,4.2,22.65,6.28,1.05.29,1.95,1.22,2.85,1.95.79.64,1.05,1.48.61,2.49-.42.96-.95,1.22-2.1,1.23-1.65.01-3.16-.07-4.66-.82-6.87-3.41-14.49-4.87-21.4-8.17-.84-.4-1.27-.19-1.69.51-.71,1.22-2.45,1.96-1.59,3.88,2.61,5.81,4.95,11.7,11.53,14.5,2.54,1.08,4.61,3.29,6.9,4.97,1.1.8,1.54,2.05.9,3.03-.73,1.12-2.02.37-3.12.1-5.23-1.26-8.84-5.13-13.07-8-.85-.58-1.55-1.56-2.71-.88-.95.56-.63,1.63-.8,2.52-.49,2.72.56,5.24,2.04,7.09,1.25,1.57.58,2.22-.09,3.28Z"/>
        <path class="cls-9" d="m435.41,223.99c-1.42,4.65-3.9,8.77-6.4,12.87-.6.98-1.46,1.77-1.23,3.06.61,2.1.17,3.12-2.17,4.2-6.89,3.19-13.87,5.88-21.27,7.69-2.46.6-4.62,0-6.53-.59-3.01-.94-1.57-3.72-.55-5.38,1.6-2.62,3.18-5.28,5.19-7.68,4.51-5.41,8.2-11.48,13.4-16.33,4.26-3.97,8.72-4.61,13.71-1.78,2.05,1.16,4.37,1.95,5.86,3.95Z"/>
        <path class="cls-40" d="m256.91,324.42c-3.76.72-7.52,1.43-11.29,2.15-3.5-5.31-4.47-11.58-6.59-17.42-1.23-3.39-3.37-6.51-4.19-9.98-1.7-7.22-6.02-13.84-5.34-21.58.25-2.88-.67-5.62-.39-8.48.1-.99.47-1.45,1.2-1.86,1.28,5.48,2.77,10.9,4.85,16.14,3.12,7.85,6.37,15.67,10.39,23.09,3.37,6.21,7.53,11.98,11.35,17.94Z"/>
        <path class="cls-14" d="m141.34,405.26c-.78.69.75,2-.5,2.39-.95.3-1.72-.68-2.28-1.3-3.41-3.77-6.95-7.35-9.86-11.66-2.16-3.2-5.85-5.72-8.87-8.52-3.06-2.84-7.26-4.23-9.66-7.86-.49-.74-1.57-1.31-.62-2.33.63-.68,1.44-1.18,2.48-.82,2.07.71,4.27,1.21,5.96,2.67,5.51,4.76,11.39,9.14,15.85,15.02.27.36.67.62,1.35.72-1.71-3.1-3.4-6.2-5.12-9.29-4-7.18-8.13-14.29-11.96-21.56-1.24-2.36-1.08-4.74,1.9-6.35,4.8-2.58,8.26-2.8,10.37.65,1.34,2.2,3.04,4.24,4.12,6.49,3.84,7.99,7.57,15.99,9.91,24.68,1.52,5.66,1.85,11.38,3.03,17.47,3.99-3.57,7.51-7.26,11.58-10.2,3.41-2.46,6.02-5.99,10.15-7.48,1.5-.54,2.69-.83,3.96.6,1.66,1.87-.4,2.73-1.08,3.33-3.91,3.49-7.95,6.86-12.14,10.01-1.79,1.35-3.03,3.17-4.41,4.75-4.08,4.65-10.07,7.08-13.68,12.18-.33.47-.76.9-1.24,1.22-7.05,4.79-12.31,11.62-18.86,16.89-5.75,4.62-11.53,9.25-17.13,14.03-8.05,6.86-16.06,13.83-23.52,21.37-3.72,3.75-7.39,7.53-10.7,11.65-.41.51-1.16,1.21-1.63,1.12-5.93-1.14-9.66,3.41-14.33,5.46-3.57,1.57-7.12,3.2-10.71,4.73-.66.28-1.58.8-2.12-.28-.53-1.04.07-1.78.78-2.43,3.38-3.08,6.98-5.87,10.95-8.14,1.51-.87,2.91-1.86,4.33-2.85,1.77-1.23,3.35-2.73,5.94-2.9,3.57-.23,6.07-2.73,8.34-5.53,6.42-7.91,14.67-13.93,21.95-20.96,3.29-3.17,7.34-5.36,10.29-8.96,1.8-2.2,4.59-3.54,6.65-5.56,5.95-5.84,12.92-10.47,18.78-16.48,2.73-2.8,5.52-5.9,9.23-7.9,4.2-2.26,4.89-5.28,2.54-8.05Z"/>
        <path class="cls-26" d="m173.92,451.19c2.57,2.38,4.78.13,5.91-1.32,4.29-5.51,9.28-10.34,14.09-15.35,1.16.84.81,2.09.82,3.2.05,4.37-1.15,8.65-1.43,12.91-.35,5.17-1.81,10.08-2.24,15.17-.19,2.26-.61,4.08-2.34,5.98-4.01,4.4-6.95,9.69-10.41,14.55-4.63,6.51-9.56,12.75-14.38,19.08-2.07,2.72-5.38,4.64-6.25,8.28-.18,0-.35-.01-.52-.06-2.4.37-2.61,3.43-4.88,3.97,2.79-6.27,5.05-12.84,9.64-18.14,3.52-4.07,5.91-8.91,9.12-13.19,3.88-6.58,8.37-12.74,12.88-18.88,1.93-2.63,1.54-5.74,2.11-7.9-.11,2.43-1.13,5.28-3.01,7.83-1.55,2.11-3.68,2.17-5.95,1.89-1.88-.23-2.42-1.56-2.58-3.19-.25-4.95-1.59-9.85-.58-14.85Z"/>
        <path class="cls-8" d="m198.24,368.4c-2.38,3.04-4.83,6.03-7.13,9.14-2.29,3.09-5.32,5.31-8.36,7.53-.61-.1-1.44-.63-1.09-.99,2.04-2.05,1.38-4.78,1.63-7.09.39-3.65,1.45-7.13,1.92-10.69.61-4.59,1.06-9.02,2.7-13.53,1.32-3.62.27-8.03,1.41-12.11.93-3.29,1.61-6.68,1.68-10.31.13-6.49,2.35-12.81,3.46-19.21.56-3.21,2.16-6.22,1.96-9.61-.08-1.35.22-2.82,2.06-3.31,1.48-.39,1.69-2.06,2.54-3.1-.02,8.31-1.75,16.43-2.62,24.65-.59,5.56.51,11.19-.12,16.79-.5,4.47-.65,8.98-.25,13.46.56,6.13-.94,12.27.2,18.38Z"/>
        <path class="cls-5" d="m156.14,479.48c-1.41,2.68-.37,4.61-1.08,6.54-1.56,4.21-6.02,6.11-10.05,3.97-1.35-.72-1.14-2.32-1.77-3.4-1.62-2.76.51-6.04.3-9.24-.08-1.27,2.88-2.51,4.85-3.05,2.59-.7,3.36,2.51,5.57,2.67-.72,1.78,3.41,1.12,2.18,2.5Z"/>
        <path class="cls-5" d="m140,500.2c-.11,3.38-3.53,7.14-6.55,7.21-2.37.05-7.08-5.48-6.89-8.07.36-4.66,3.37-8.22,6.81-8.06,3.16.15,6.75,4.99,6.63,8.92Z"/>
        <path class="cls-13" d="m174.51,466.03c2.93,4.03,6.48,3.72,8.79-.75.93-1.8,2.03-3.46,1.99-5.69-.02-1.07.98-2.15,1.88-3.08-.56,2.48-.77,4.9-.84,7.35-.13,4.07-3.46,6.66-5.56,9.45-2.84,3.78-4.99,8.09-8.3,11.51-.47.49-.95.97-1.42,1.45.21-2.37,2.24-4,2.32-6.62.06-1.86-1.51-3.76.05-5.68.67-.82-.82-2.9,1.74-2.87.62,0-.18-.83-.31-1.3-.35-1.22-1.75-2.39-.34-3.77Z"/>
        <path class="cls-38" d="m99.81,588.76c.06,1.88.22,3.87-2.74,2.8.05-1.77,1.6-2.09,2.74-2.8Z"/>
        <path class="cls-1" d="m347.67,355.33c-.51,1.35-.03,3.15-1.03,3.39-1.36.32-2.97-.47-3.98-1.59-1.64-1.8-2.48-4.09-3.23-6.38-.32-.99.36-1.51.96-2.04.95-.84,2.4-.46,2.88.02,1.9,1.94,3.29,4.31,4.41,6.6Z"/>
        <path class="cls-7" d="m286.13,370.47c-9.59-1.22-19.07-.25-28.55,1.18-1.25.19-2.74-.43-3.93-1.03-.76-.38-1.07-1.47-.92-2.48.1-.67.49-1,1.13-1.1,7.13-1.18,14.22-2.75,21.4-3.41,4.89-.45,8.7,2.23,10.87,6.84,0,0,0,0,0,0Z"/>
        <path class="cls-1" d="m270.07,385.14c-2.17-2.27-.91-4.53.34-6.48.95-1.48,2.77-1.61,4.34-.65,1.44.89,2.8,1.76.59,3.56-1.68,1.36-3.07,3.03-5.28,3.56,0,0,.02,0,.02,0Z"/>
        <path class="cls-35" d="m341.7,180.39c-2.31,2.26-5.15.6-7.62.68-6.62.2-13.29.43-19.91-.47-3.29-.45-4.72-2.15-3.93-5.32,1.5-6.01,5-10.82,10.06-14.15,2.96-1.95,6.62-2.53,10.01-.2.1.07.5-.28.75-.44.62.32,1.36.17,1.98.51,5.1,2.76,9.93,13.59,8.64,19.4Z"/>
        <path class="cls-33" d="m289.2,182.12c-.4-3.2.9-7.43,1.33-11.74.22-2.23,1.81-2.97,3.73-1.56,1.89,1.39,3.21,3.2,3.32,5.73.37,8.07,1.16,16.1,2.65,24.06.45,2.39.27,5-.09,7.43-.55,3.68-3.44,5.65-7.18,5.36-2.7-.22-6.31-5.15-4.87-7.78,1.26-2.29.05-3.98.23-5.92.45-4.78.56-9.59.87-15.57Z"/>
        <path class="cls-35" d="m263.97,161.67c9.32-4.28,14.75.95,17.25,9.26.36,1.21.49,2.48.8,3.71.67,2.61-1.22,3.77-3,3.79-6.82.09-13.65-.23-20.48-.41-.34,0-.68-.14-1.01-.22-4.32-5.54-1.03-13.76,6.44-16.13Z"/>
        <path class="cls-12" d="m317.53,142.37c.9-.65,1.78-2.63,2.44-2.82,2.85-.79,5.01-3.27,8.01-3.32,5.87-.11,11.73-.71,17.6.75,4.51,1.12,6.57,5.16,10.06,7.44.42.28.11,1.09-.26,1.58-.62.83-1.39,1.2-2.39.72-3.27-1.57-6.97-1.07-10.44-2.4-2.53-.98-5.99.59-9.05.77-3.32.2-6.42,1.03-9.57,2.08-3.55,1.18-6.5-1.11-6.4-4.79Z"/>
        <path class="cls-7" d="m299.2,245.5c-4.03-1.39-9.71-2.36-13.49-7.08-1.03-1.29-2.6-3.33-.25-4.96,1.9-1.32,3.54.11,4.57,1.38,4.59,5.68,9.06,6.78,15.71,3.45,1.65-.83,3.43-1.43,5.08-2.1,3.51-1.42,4.52-3.84,4.57-7.11.03-2-.13-3.9,2.19-4.97.91-.42,1.35-.35,2.1.21,2.03,1.51,2.77,3.86,2.09,5.83-1.83,5.34-4.79,9.72-10.46,12.21-3.51,1.54-6.85,2.88-12.13,3.14Z"/>
        <path class="cls-16" d="m248.44,145.94c2.55-5.42,7.08-7.65,11.72-9.23.99-.34,3.37.03,5.09.35,5.03.92,10.31,1.3,13.6,6.02.64.92,1.45,1.97.59,3.38-.8,1.31-2.15,1.71-3.25,1.59-4.96-.54-10-.37-14.76-2.55-4.07-1.86-8.36-.41-13,.45Z"/>
        <path class="cls-19" d="m341.7,180.39c-.55-5.11-1.91-9.88-4.88-14.24-1.59-2.34-3.79-3.82-5.75-5.67,4.09-.44,7.27,1.89,10.6,3.62,5.08,2.63,9.07,6.85,13.99,9.78,1.14.68,1.71,2.69-.14,4.17-1.4,1.11-2.86,1.95-4.56,2.3-2.53.52-5.21-.11-7.68,1.12-.72.35-1.16-.54-1.58-1.08Z"/>
        <path class="cls-31" d="m295.87,92.11c6.06-.81,12.09-.05,18.02.88,7.79,1.22,15.63,2.52,22.97,5.69,2.93,1.26,5.88,2.5,8.76,3.85,3.28,1.54,6.74,3.2,10.16,4.15,3.85,1.07,5.97,4.08,9.2,5.63-2.61,1.09-5-.42-6.84-1.48-4.76-2.74-9.9-4.3-14.94-6.27-6.82-2.67-13.63-5.3-20.79-6.89-3.63-.8-7.41-1.13-10.88-2.37-4.53-1.63-9.19-1.46-13.8-1.94-.98-.1-1.46-.5-1.85-1.26Z"/>
        <path class="cls-3" d="m263.97,161.67c-2.54,1.34-4.32,3.62-5.98,5.76-2.44,3.14-2.31,6.83-.46,10.38-1.95-.27-3.84.5-5.84.11-3.3-.65-4.84-3.27-2.57-5.68,3.77-4,7.03-8.76,12.63-10.68.82-.28,1.51-.54,2.22.11Z"/>
        <path class="cls-1" d="m250.78,189.93c-2.72-.91-4.75-3.11-7.13-4.72-.84-.57-.27-1.92.35-2.37,1.15-.83,3.16-1.26,3.95-.59,1.6,1.35,3.87,1.68,5.08,3.66.56.93,1.3,1.75.91,2.76-.5,1.32-1.96.76-3.16,1.25Z"/>
        <path class="cls-24" d="m357.28,188.38c-.72.57-1.37,1.33-2.18,1.68-1.5.65-3.22,2.81-4.57,1.26-1.32-1.51.15-3.77,1.24-5.25.73-.99,1.76-2.85,3.5-1.95,1.56.8,3.25,1.97,1.99,4.28,0,0,.02-.02.02-.02Z"/>
        <path class="cls-24" d="m357.26,188.41c1.72-1.47,2.8-3.86,5.96-2.91,1.67.5,1.96,1.55,2.15,2.67.29,1.68-1.56,1.56-2.15,1.36-1.95-.65-4.79,3.2-5.94-1.14,0,0-.02.02-.02.02Z"/>
        <path class="cls-30" d="m138.32,392.78c-3.33-8.38-7.05-15.33-11.26-22.08-1.89-3.03-3.27-6.45-4.12-9.99-.14-.6-.25-1.49.65-1.74.65-.18.96.43,1.34.86,3.18,3.53,3.74,8.59,6.97,12.04,3.44,3.68,2.36,8.95,4.82,12.92.93,1.5.72,3.45,2.32,4.76,1.02.83-.77,1.49-.73,3.24Z"/>
        <path class="cls-30" d="m141.63,403.77c-3.07-2.98-1.69-7.14-2.96-10.63,2.17,3.2,2.02,7.06,2.96,10.63Z"/>
      </g>
    </g>
  </g>
</svg>