<?xml version="1.0" encoding="UTF-8"?>
<svg id="Layer_2" data-name="Layer 2" xmlns="http://www.w3.org/2000/svg" viewBox="0 0 1284.54 954.68">
  <defs>
    <style>
      .cls-1 {
        fill: #b02062;
      }

      .cls-1, .cls-2 {
        stroke-width: 0px;
      }

      .cls-2 {
        fill: #a4004b;
      }
    </style>
  </defs>
  <g id="Road_3" data-name="Road 3">
    <g id="Road_2" data-name="Road 2">
      <g>
        <path class="cls-2" d="m1256.73,0s-264.48,132.42-370.89,261.73c-106.41,129.3-145.21,204.49-145.21,204.49l139.2,56.28s103.38-185.96,200.88-254.48c145.03-101.92,203.83-138.73,203.83-138.73L1256.73,0Z"/>
        <path class="cls-2" d="m1012.42,576.22c-82.64-130.23-198.14-141.92-404.71-161.37C353.21,390.88,0,519.14,0,519.14l66.26,145.47s39.15-33.38,263.54-76.53c224.39-43.15,331.65-15.84,331.65-15.84,0,0-12.27,24.24-18.92,50.59-18.4,72.9-4.89,170.11,58.21,251.73,63.1,81.62,216.26,122.92,316.39,15.13,100.12-107.79,77.94-183.23-4.71-313.46Zm-140.13,206.27c-30.02,21.16-91.34,31.54-114.91-56.98-23.57-88.53,17.66-125.36,17.66-125.36,21.26-7.11,56.26-5.39,93.62,45.96,43.87,60.31,47.9,105.17,3.62,136.38Z"/>
        <g>
          <path class="cls-1" d="m885.2,346.17l.6-.32c-.09-.06-.26,0-.6.32Z"/>
          <path class="cls-1" d="m992.42,225.69s.05-.1.07-.15c-.06.09-.07.13-.07.15Z"/>
          <path class="cls-1" d="m907.44,332.75s-.02.02-.02.03c-.02.06-.05.11-.06.16l.09-.19Z"/>
          <path class="cls-1" d="m885.52,356.72c5.84-6.21,8.15-7.2,13.65-14.12,2.85-3.11,5.63-6.65,8.25-9.82.66-2.03,3.56-4.07,4.56-6.27l.95-.36c.34-.76.84-1.57,1.56-2l.07.13c.51-1.13,1.56-2,1.82-2.56l.07.13.91-1.13v.32c1.07-1.81,2.46-3.44,3.84-4.74l-.54-.27c3.15-2.6,3.22-4.5,6.2-6.72l.07.13c1.89-4.47,5.58-4.77,7.62-9.29-.25.56.39,0,.46.14,1.32-1.75,2.79-3.56,1.96-4.34,1.06-1.18,1.12-.74,1.59-.6-.38-.32.38-1.5,1.17-2.45l-.23.56,2.22-2.79-1.17-.1c1.45-1.24,1.18.4,2.2-1.11l-.6-.5c1.84-1.86,3.74-2.22,5.84-3.74,7.18-7.67,13.15-17.47,20.68-23.83l.73.07c.76.43.85-2.85,1.69-2.6l.46-1.11c.33-.13.9-.52.66.02.73-.76.64-.87.95-1.61l1.15-.48c3.07-2.8,4.67-6.09,7.76-9.17,4.31-3.14,10.29-10.98,13.79-15.47,4.59-6.66,13.52-10.82,18.33-17.48.28-.09.58-.76.51-.83,1.83-1.67,3.64-3.37,5.49-5.01,0,0,1.67-1.51,3.78-3.57,2.15-2.02,4.72-4.62,6.58-6.73,1.85-2.13,2.91-3.88,1.92-4.31-.97-.41-4.06.43-10.42,3.73l.02-.26c-3.39,2.4-5.35,4.12-6.81,6.74-1.13-.55-2.55,2.24-3.5,2.63v-.13c-1.22,2.37-4.26,3.05-5.44,5.32,0-.13-.18-.39.21-.8-1.16,1.34-2.72,3.2-3.28,2.83-2.88,3.09-7.24,7.07-8.35,9.76v-.26c-.56,1.6-1.31,1.51-2.24,3-.13,0-.24.06-.26.02-.65,1.7-3.3,3.6-4.01,4.8l-.38-.24-2.21,2.5.93-.84c.59,1.15-2.29,1.31-3.36,3.62-1.66,1.55-1.26,5.08-3.28,6.41-.33,1.21-.02-1.36-.83.17-.51-.39.23-.85-.43-.87-.89,1.42-2.31,1.54-3.35,3.33l-.42-.27c-1.1,2.57-3.84,3.25-4.37,5.14-1.52,2.3-2.32.37-3.49,3.13l-1.24.37c-.89.83.03,1.2-1.1,1.98-.26-.34-1.39,1.04-1.16.19-2.53,1.83-3.41,5.24-6.91,7.49.04,1.2-1.67,2.38-1.63,3.28-.34-.16-2.72,2.99-1.81.77.08-.19.32-.44.41-.33l-.19-.53c-2.21,1.1-2.37,3.45-3.97,5.05.56-.4,1.12-1.09.98-.42l-1.44,1.53-.02-.6-2.25,2.19h.67c-1.21.99-2.21.82-2.81,2.6-.21.85,1.47-.63.52.69-1.61,1.31-4.03,3.26-5.87,5.13.59.2.11.71-.28,1.33l-.43-.27c-1.31,2.54-1.49.04-2.9,2.47l-.1-.41.3,1.24c-.9,2.52-1.66.32-2.47,3.29.66-.88,1.16.34.11,1.21l-.14-.57c-.41.63-.43.94-.83,1.25.1-.5-.37-.64-1.03.24l.03-.95-.7,2.14c-1.44.86-2.62,3.18-3.56,3.23,0,0-2.51,2.36-2.48,3.44.11-.82-1.27.48-1.32-.28-.2,1.01-1.61,3.27-2.72,3.69l.08-.19c-2.99,2.54-3.81,5.51-6.63,7.67.54.26-.91,1.44-.06,1.58-1.83,3.19-5.47,3.95-4.62,6.44-.99,1.31-1.69,1.11-2.33,1.67l.17-.37c-1.89,2.43-2.46,3.12-4.01,4.8-.59,1,.09,1.84-1.45,3.2.12-.77-.37-.1-.88.48.27-.41.26-.63-.62-.06,0,.19-.08.41-.16.61-.03-.02-.08,0-.1-.05-.73,1.06-.49.98-.05.57.03.06.12.08.33.02-1.28.63-2.41,2.8-3.06,2.44-2.41,2.99-3.66,5.54-5.55,8.13-.52.02-.27-.75.23-1.55l-1.39,1.79c-.39-.37.63-1.18,1.01-1.77-2.43,1.45-3.02,4.74-5.71,6.6l-.11.77-.18.1c.17.14-.06.87-.32,1.27-.65.03-.79-.73-1.8.46-1.16.63-2.15,2.79-3.03,4.17.64-.6.65-.22.52.17-.5.6-1.15.63-1.4,1.22l-.52-.36c.65.16-.87,1.96-.87,2.34-.65.03.5-1.18.36-1.56-2.03,2.4-1.01,1.2-3.04,3.59-.75,1.57.65.16.54,1.13-.88,1.19-1.51,2.56-2.91,3.59l.77-.04c-1.51,2.37-2.65,3.58-4.31,4.61-10.23,18.53,1.81,7.37,1.81,7.37,6.31-5.3,7.86-9.53,13.93-17.1Z"/>
        </g>
        <g>
          <path class="cls-1" d="m1125.23,125l.19.16c-.06-.09-.12-.16-.19-.16Z"/>
          <path class="cls-1" d="m1142.04,112.88s-.01-.03-.02-.05c0,.02,0,.04.02.05Z"/>
          <path class="cls-1" d="m1132.13,129.97h0s0,.04.01.06v-.06Z"/>
          <path class="cls-1" d="m1128.01,131.73c1.14-.34,1.97.42,2.78-.58.54-.23.93-.77,1.34-1.18-.22-.85.62-.41.5-1.18l.36.34c-.04-.26-.02-.47.21-.31l.07.12c-.06-.39.21-.31.18-.51l.07.12.13-.16.08.19c.03-.47.25-.66.57-.65l-.34-.47c.82.24.31-.88,1.15-.51l.07.12c-.34-1.61,1.41.3,1.11-1.26.04.19.2.23.27.35.15-.31.36-.56-.29-1.49.19-.11.35.19.62.54-.29-.41-.26-.69-.14-.81l.05.2.29-.42-.62-.71c.36.07.72.9.78.57l-.46-.63c.37-.08,1.23.76,1.85,1.03,1.36-.58,1.38-3.08,3.26-2.8l.41.43c.55.66-.49-1.23.04-.63l-.12-.4c.13.09.3.17.36.37.13-.06.05-.17-.03-.44l.45.32c.7-.03.44-1.12,1.02-1.34,1.24.4,1.65-1.23,1.85-2.18-.01-1.66,3.17.08,3.04-1.76.11.07,0-.2-.07-.27l.84-.59s.97-.77.97-1.88c.01-1.11-.98-2.51-4.7-3.89l-.11-.15c-.69.03-1,.17-.64,1.11-.82-.81-.4.2-.74,0l-.05-.08c.35.88-.98-.11-.68.69-.05-.08-.26-.32-.22-.38-.07.26-.14.65-.59.16-.29.48-1.05.74-.62,1.78l-.1-.16c.32.68-.12.25-.06.67-.07-.06-.11-.08-.13-.11.3.68-.41.49-.34.83l-.29-.33-.26.36.18-.03c.74.98-.74-.38-.47.42-.32.06,1.16,2.34.54,2.07.25.54-.49-.8-.38-.32-.41-.49-.17-.37-.54-.73.03.37-.68-.29-.61.21l-.32-.38c.3.92-.91-.11-.55.7-.02.54-1.1-1.01-.78-.02l-.53-.44c-.19.01.42.72.09.57-.25-.34-.38-.13-.55-.51-.71-.29-.05,1.22-1.14.65.41.72-.09.49.22,1.03-.23-.28-.45.27-.69-.53-.02-.07.02-.08.11.03l-.27-.41c-.78-.56-.12.72-.43.78.17.08.23-.02.37.29l-.26.11-.2-.36-.46.04.35.38c-.31-.09-.88-.75-.63-.04.16.38.55.44.48.7-.42-.12-1.04-.32-1.4-.25.36.45.28.48.27.63l-.3-.4c.12.77-.74-.82-.71-.17l-.18-.3.53.9c.31.99-.74-.74-.24.56.06-.15.69.86.42.78l-.24-.42c-.02.14.07.32-.04.28-.1-.24-.38-.59-.44-.44l-.27-.55.29.87c-.46-.31-.36.41-.81-.1,0,0-.55-.03-.21.64-.19-.43-.49-.44-.73-.92.2.49.17,1.04-.26.65v-.07c-.74-.2-.28,1.11-1.04.79.34.47-.03.34.42.92.02.87-1.52-.8-.42,1.21-.11.22-.5-.31-.66-.35l-.02-.13c-.23.37-.31.45-.59.57,0,.27.55,1.18.18,1.1-.15-.4-.2-.28-.29-.23.02-.09-.05-.23-.31-.4.05.12.07.2.09.27-.02-.03-.04-.05-.06-.09-.06.21.03.31.13.32.03.06.08.12.16.21-.43-.37-.39.28-.79-.32-.33.4-.24,1.23-.45,1.68-.23-.29-.32-.63-.3-.81l-.18.27c-.28-.46-.02-.35,0-.49-.75-.56-.17,1.11-.93.64l.14.41-.06-.05c.12.19.19.5.18.59-.29-.37-.55-.93-.7-.8-.36-.3-.27.43-.33.75.14.01.24.25.28.42-.08.06-.37-.31-.33-.1l-.33-.54c.33.49.09.69.19.93-.28-.38-.07-.43-.22-.74-.32.25-.16.13-.48.38.05.52.33.5.52,1.03-.1.2-.05.68-.43.46l.34.45c-.1.56-.33.61-.82.23-.07,2.65.52,4.09,1.18,4.86.65.77,1.34.86,1.34.86,1.58.54,1.29-1.17,2.21-2.21Z"/>
        </g>
        <g>
          <path class="cls-1" d="m910.92,414.77l-.12.2c.07-.09.12-.16.12-.2Z"/>
          <path class="cls-1" d="m914.8,421.07s.03,0,.05,0c-.02,0-.04,0-.05,0Z"/>
          <path class="cls-1" d="m906.75,420.37h0s-.02.02-.04.03l.04-.03Z"/>
          <path class="cls-1" d="m906.95,419.91c-.07.21-.64.91-.4.63-.05.06.1-.09.2-.16.54-.49.02,0,.49-.39l-.31.27c.16-.13.28-.22.11-.07l-.09.08c.25-.2.11-.07.24-.17l-.1.08.05-.03-.14.11c.27-.2.31-.2.19-.1l.41-.3c-.45.35.45-.24-.1.16l-.11.07c1.2-.69-.77.51.38-.11-.14.08-.24.13-.35.19.14-.06.22-.08,1.15-.55,0,.02-.28.16-.64.34.41-.2.59-.27.62-.27l-.16.07.17-.03.78-.37c-.21.13-.96.45-.75.38l.66-.29c-.1.1-1.09.55-1.58.76-.12.09.26,0,.55-.03.28-.03.46.03-.17.2l-.55.11c-.81.15,1.2-.2.46-.06l.37-.05c-.14.03-.3.06-.48.09-.03.01.1,0,.35-.04l-.5.09c-.39.08.61-.02.42.06-1.05.12-.06.1.52.22.64.08.11.13-.4.12-.51,0-.98-.08-.27.08-.12-.02.15.04.24.05l-.13.05s-.02.04.05.04c.07.01.25.06.63.2.38.16.96.4,1.85.77.9.34,2.13.81,3.95.96l.17.06c.51-.11.65-.26-.25-.59,1.13.23.15-.13.52-.1l.09.02c-.85-.28.77-.12,0-.38.09.02.4.07.42.1-.13-.11-.38-.27.29-.18-.16-.24.18-.53-.89-.74l.19.02c-.72-.12-.11-.1-.48-.2.09,0,.13,0,.17,0-.72-.11-.12-.23-.43-.3h.45s-.11-.16-.11-.16l-.09.06c-1.23,0,.77-.12-.05-.23.14-.13-2.58-.08-1.99-.18-.58,0,.94-.03.49-.06.64-.05.41,0,.91-.05-.31-.04.64-.17.19-.22l.5-.05c-.93-.02.6-.31-.28-.28-.44-.06,1.45-.3.45-.29l.65-.17c.09-.08-.83.1-.52-.02.42-.07.31-.15.72-.18.6-.3-1.02-.11,0-.57-.82.16-.38-.06-.99.07.35-.1-.02-.21.78-.31.07,0,.06.01-.08.05l.48-.12c.85-.38-.58-.08-.49-.23-.14.08-.08.11-.42.19l.02-.12.4-.11.16-.24-.48.19c.22-.16,1.02-.49.3-.33-.4.1-.62.31-.8.29.29-.22.7-.56.77-.75-.53.24-.53.19-.65.21l.46-.2c-.72.14.98-.5.39-.42l.33-.13-.98.4c-.97.31.9-.52-.4-.06.11.01-.98.51-.82.36l.44-.2c-.11.01-.3.09-.22.03.25-.1.64-.31.53-.32l.56-.24-.86.31c.41-.31-.24-.11.34-.48,0,0,.18-.33-.49.02.42-.21.51-.38,1-.64-.48.22-.93.34-.5,0l.06-.02c.33-.5-.9.14-.46-.41-.47.35-.28.08-.86.55-.7.32.94-1.2-.9.2-.15.03.35-.41.4-.52l.11-.06c-.26.01-.31,0-.36-.12-.21.11-1,.83-.89.6.33-.28.25-.24.22-.27.07-.03.19-.14.35-.36-.1.09-.17.14-.22.18.02-.02.04-.04.07-.07-.16.07-.24.17-.26.23-.05.04-.1.1-.18.19.34-.42-.17-.07.34-.6-.28,0-.89.48-1.2.64.23-.29.48-.53.61-.62l-.18.05c.35-.41.26-.21.36-.27.44-.74-.8.54-.42-.16l-.29.32.04-.06c-.14.18-.35.41-.42.46.27-.39.66-.87.57-.89.22-.4-.29.1-.51.28,0,.08-.17.29-.28.42-.04,0,.21-.4.07-.24l.35-.53c-.32.51-.45.5-.6.72.24-.41.27-.32.48-.61-.17-.01-.09,0-.26-.02-.33.38-.3.52-.63.98-.12.08-.4.45-.27.09l-.26.5c-.32.36-.33.3-.13-.23-.77,1.09-1.07,1.63-1.36,2.21-.27.55-.47.99-.6,1.35-.29.69-.42.98-.42.98-.44.86.13-.28.42-.55Z"/>
        </g>
        <g>
          <path class="cls-1" d="m815.24,439.34l.2.32c.03-.1,0-.22-.2-.32Z"/>
          <path class="cls-1" d="m885.69,470.16s.06,0,.09-.01c-.05,0-.08,0-.09.01Z"/>
          <path class="cls-1" d="m823.43,450.84s-.01,0-.01,0c-.03.01-.06.01-.09.03l.11-.02Z"/>
          <path class="cls-1" d="m809.32,444.85c3.69,1.64,4.3,3.05,8.35,4.09,1.82.8,3.89,1.33,5.75,1.9,1.17-.46,2.38.93,3.65.67l.22.6c.44-.09.91-.07,1.17.31l-.07.12c.66-.13,1.17.31,1.49.24l-.07.12.66.2-.18.14c1.06,0,2,.37,2.75.87l.15-.57c1.51,1.33,2.62.48,3.91,1.85l-.08.12c2.6-.59,2.76,2.3,5.39,1.83-.33.06,0,.32-.08.44,1.01.25,2.06.6,2.53-.44.69.31.42.57.34,1.01.19-.46.88-.39,1.43-.18l-.32.07,1.61.52.07-1c.71.61-.25,1.15.62,1.28l.3-.72c1.07.64,1.26,2.01,2.12,3.02,2.2,1.16,4.71,1.85,7.13,2.64,2.42.8,4.74,1.72,6.54,3.32l-.07.62c-.29.81,1.69-.6,1.51.2l.65-.12c.07.2.29.49-.04.55.43.25.5.12.94.04l.25.71c1.58,1.23,3.54,1,5.29,2.11,1.74,2.07,6.36,3.24,9.01,3.96,3.97.56,6.27,5.64,10.37,6.16.05.17.47.08.51,0l3.06,1.78s.94.52,2.21,1.13c1.27.61,2.88,1.29,4.24,1.58,2.71.58,4.48-.38.44-6.67l.17-.12c-1.49-1.35-2.53-2.03-4.17-1.84.36-1.11-1.36-.87-1.59-1.41l.08-.06c-1.47.22-1.82-1.82-3.21-1.66.08-.06.25-.33.5-.22-.81-.26-1.95-.57-1.69-1.19-1.86-.77-4.19-2.35-5.83-1.99l.16-.13c-.98.31-.89-.33-1.79-.38,0-.1-.03-.16,0-.19-1.03.27-2.12-.95-2.83-.97l.16-.42-1.46-.63.49.35c-.73,1-.72-1.23-2.11-1.03-.9-.62-3.09,1.31-3.82.28-.73.28.83-.63-.08-.58.26-.58.51-.19.55-.74-.83-.07-.86-1.15-1.92-1.19l.18-.46c-1.53.27-1.86-1.62-2.99-1.2-1.35-.19-.15-1.71-1.79-1.42l-.18-.83c-.48-.35-.73.56-1.17,0,.22-.37-.59-.66-.08-.86-1.03-1.22-3.07-.4-4.34-2.22-.72.57-1.39-.28-1.93.15.1-.35-1.73-.87-.42-1.12.11-.02.26.06.19.18l.32-.39c-.6-1.3-2.02-.36-2.94-.94.23.28.63.42.23.6l-.89-.47.36-.29-1.26-.84-.02.55c-.56-.54-.44-1.44-1.49-1.12-.51.21.35.91-.42.74-.75-.73-1.88-1.8-2.96-2.44-.12.57-.42.42-.79.39l.16-.47c-1.49.1,0-1.2-1.43-1.22l.25-.27-.74.81c-1.48.43-.17-1.21-1.92-.5.51.13-.21,1.11-.71.65l.34-.38c-.37-.05-.55.09-.73-.1.3-.16.38-.6-.13-.73l.56-.42-1.26.43c-.5-.77-1.86-.65-1.89-1.4,0,0-1.38-.95-2.02-.41.48-.3-.28-.81.17-1.21-.59.31-1.91.22-2.17-.49l.11-.02c-1.5-1.23-3.24-.49-4.52-1.77-.15.56-.84-.06-.92.7-1.86.01-2.36-2.57-3.78-.68-.77-.18-.66-.84-1-1.1l.22-.04c-1.43-.37-1.84-.51-2.83-.96-.59,0-1.05.96-1.87.37.45-.28.05-.35-.29-.48.24.02.37-.1.02-.53-.11.1-.24.13-.35.16,0-.03,0-.06.03-.1-.62-.08-.57.08-.33.24-.04.06-.04.14,0,.28-.39-.74-1.66-.6-1.47-1.3-1.77-.5-3.25-.28-4.78-.55-.03-.41.42-.59.89-.57l-1.06-.25c.2-.5.69-.07,1.04-.06-.9-1.26-2.79-.12-3.93-1.39l-.44.29-.06-.1c-.07.21-.5.38-.73.37-.04-.51.39-1-.32-1.24-.4-.63-1.65-.37-2.47-.39.37.22.15.41-.08.51-.36-.11-.4-.62-.74-.53l.18-.61c-.06.61-1.14.27-1.35.47-.04-.51.68-.18.89-.48-1.43-.45-.71-.23-2.14-.68-.91.18-.06.61-.61,1-.7-.12-1.5.06-2.13-.57l.05.61c-1.39-.03-2.12-.35-2.77-1.17-5.4.54-6.37,1.85-6.02,3.01.35,1.17,2.03,2.19,2.03,2.19,3.22,2.42,5.62,1.54,10.08,2.69Z"/>
        </g>
        <g>
          <path class="cls-1" d="m730.94,562.37l.09.28c.03-.1.02-.2-.09-.28Z"/>
          <path class="cls-1" d="m770.45,584.26s.04,0,.07-.01c-.04,0-.05,0-.07.01Z"/>
          <path class="cls-1" d="m734.52,572.07h0s-.04.02-.06.04l.07-.04Z"/>
          <path class="cls-1" d="m726.64,568.53c2.07.97,2.26,2.22,4.6,2.58,1,.49,2.2.69,3.26.96.81-.61,1.32.54,2.16.13l.03.53c.29-.14.58-.19.68.13l-.07.12c.44-.21.68.13.89.03l-.07.12.38.1-.14.16c.67-.14,1.19.09,1.57.46l.21-.54c.7,1.05,1.57.13,2.11,1.24l-.07.12c1.79-.85,1.26,1.81,3.04,1.08-.22.09-.08.3-.15.42.59.12,1.19.33,1.73-.68.37.21.14.48-.02.89.23-.44.66-.44.96-.31l-.23.09.92.32.29-.92c.32.49-.44,1.07.09,1.11l.37-.69c.54.48.32,1.71.62,2.54,1.13.85,2.57,1.25,3.96,1.75,1.36.53,2.63,1.18,3.35,2.46l-.23.55c-.44.73,1.3-.64.94.07l.47-.15c-.02.18.04.41-.19.49.21.19.3.08.61-.02l-.06.61c.66.98,2.05.65,2.85,1.54.24.86,1.02,1.48,1.96,1.94.93.47,1.97.83,2.75,1.08,1.25.17,1.81,1.32,2.35,2.48.54,1.16,1.11,2.25,2.39,2.46-.03.14.29.06.35-.01l1.39,1.45s.44.41,1.06.92c.62.5,1.44,1.06,2.27,1.31,1.63.48,3.35-.21,3.09-5.46l.17-.1c-.5-1.15-.97-1.73-2.2-1.58.7-.93-.62-.73-.56-1.19l.08-.05c-1.12.18-.57-1.54-1.61-1.41.08-.05.3-.28.43-.19-.47-.22-1.16-.47-.74-1-1.02-.64-2.07-1.98-3.35-1.64l.16-.11c-.8.29-.5-.27-1.11-.29.04-.08.04-.14.06-.17-.82.26-1.14-.77-1.62-.77l.26-.36-.79-.51.21.29c-.85.89-.08-1.05-1.11-.83-.42-.51-2.56,1.26-2.72.39-.59.27.77-.58.14-.51.37-.52.41-.19.62-.67-.55-.03-.22-.98-.93-.97l.27-.42c-1.13.3-.77-1.34-1.67-.92-.86-.1.42-1.51-.79-1.16l.13-.73c-.22-.29-.67.54-.79.05.26-.34-.21-.56.2-.76-.35-1.03-1.99-.17-2.33-1.73-.65.56-.87-.17-1.35.26.17-.32-.93-.67.02-.98.08-.02.16.04.08.15l.33-.37c-.06-1.14-1.28-.19-1.75-.64.08.24.32.33,0,.53l-.48-.36.32-.29-.64-.67-.16.5c-.24-.45.07-1.27-.72-.91-.39.23,0,.8-.47.7-.31-.61-.81-1.49-1.39-1.98-.22.53-.39.42-.62.42l.22-.45c-1.03.22.28-1.1-.67-1l.23-.27-.68.81c-1.09.52.16-1.09-1.17-.29.31.08-.4,1.04-.62.66l.31-.38c-.23-.01-.39.13-.47-.02.23-.17.39-.59.07-.66l.47-.44-.94.51c-.16-.66-1.1-.42-.95-1.1,0,0-.72-.74-1.25-.18.38-.32-.02-.73.36-1.14-.46.35-1.31.39-1.34-.23l.08-.03c-.76-.99-2.05-.11-2.65-1.16-.2.54-.54.03-.73.76-1.21.22-1.1-2.13-2.35-.19-.47-.07-.29-.71-.46-.91l.15-.07c-.87-.17-1.11-.25-1.69-.56-.38.08-.83,1.03-1.27.59.33-.32.08-.34-.12-.41.15-.01.25-.14.09-.5-.09.11-.17.16-.25.2.01-.03,0-.06.03-.1-.39,0-.38.15-.25.27-.03.06-.05.14-.04.27-.14-.64-.98-.34-.76-1.03-1.07-.23-2.05.16-2.99.14.03-.38.34-.62.64-.67l-.65-.08c.19-.5.45-.17.67-.2-.42-1.07-1.77.29-2.34-.75l-.31.34-.03-.08c-.07.21-.36.44-.5.46.03-.48.36-1.02-.07-1.14-.18-.55-1.01-.11-1.52,0,.21.15.05.37-.1.5-.21-.05-.19-.53-.41-.39l.17-.61c-.1.59-.74.44-.9.66.02-.48.45-.28.61-.6-.86-.21-.43-.1-1.29-.31-.59.31-.09.6-.47,1.06-.43,0-.94.29-1.28-.21l-.02.58c-.86.2-1.28.02-1.63-.66-3.37,1.43-4,2.88-3.87,3.93.14,1.06,1.07,1.75,1.07,1.75.87.89,1.67,1,2.59.94.91-.03,1.94-.25,3.24-.07Z"/>
        </g>
        <g>
          <path class="cls-1" d="m709.91,680.35l-.27.48c.11,0,.21-.12.27-.48Z"/>
          <path class="cls-1" d="m741.4,801.95s.08.05.12.06c-.07-.05-.1-.06-.12-.06Z"/>
          <path class="cls-1" d="m701.99,700.4s0-.02,0-.03c-.03-.04-.04-.09-.07-.13l.07.16Z"/>
          <path class="cls-1" d="m703.46,673.29c-.7,3.52-1.15,5.77-1.6,8.04-.5,2.28-.63,4.62-.53,8.34-.04,3.53.24,7.3.65,10.71.47.78.55,1.9.61,3.06.1,1.15.19,2.34.64,3.26l-.4.79c.31.63.55,1.38.36,2.07l-.14-.03c.45.94.42,2.06.65,2.52l-.14-.02.22,1.17-.23-.18c.63,1.64.85,3.39.95,4.95l.55-.22c-.08,3.37,1.25,4.37,1.06,7.43h-.15c1.11,1.69,1.13,3.2,1.14,4.73.04,1.52.08,3.06,1.19,4.8-.28-.43-.25.27-.4.26.52,1.71,1.04,3.54,2.16,3.32.27,1.26-.12,1.11-.51,1.37.49-.12.94.93,1.19,1.91l-.29-.41.82,2.78.79-.77c.09,1.55-1.03.64-.47,2.02l.76-.2c.35,2.09-.53,3.58-.59,5.71,1.73,8.34,5.75,16.74,7.04,24.84l-.44.53c-.76.43,1.94,1.71,1.3,2.26l.7.75c-.05.3,0,.89-.35.51.28.84.41.81.89,1.3l-.14,1.08c.94,3.41,3.14,5.71,4.73,9.04.61,2.22,2.29,5.01,4.31,7.54,2.01,2.55,4.35,4.85,6.07,6.46,5.18,4.25,7.87,12,13.6,15.84.07.24.67.46.73.39,1.44,1.51,2.95,3,4.59,4.44,0,0,.39.31,1.03.83.65.51,1.58,1.2,2.73,1.91,2.23,1.46,5.49,2.81,8.17,3.07,1.33.14,2.48.06,3.22-.21.75-.25,1.07-.62.9-1.12-.16-.53-.86-1.1-1.99-2.01-1.13-.89-2.69-2.11-4.43-4.05l.2-.1c-2.33-1.76-3.68-3.01-5.94-3.67.49-1.08-1.84-1.78-2.12-2.6l.12-.02c-2.02-.71-2.31-3.35-4.22-4.2.12,0,.38-.19.7.11-1.08-.92-2.6-2.15-2.18-2.69-2.46-2.33-5.37-5.95-7.56-6.85h.24c-1.34-.45-1.12-1.12-2.27-1.92.02-.11,0-.22.03-.23-1.41-.55-2.53-2.9-3.42-3.55l.31-.33c-.55-.67-1.12-1.33-1.65-2.02l.5.84c-1.19.45-.57-2.03-2.27-3.12-.86-1.51-4.13-1.61-4.57-3.56-.94-.48,1.2.21.15-.72.53-.36.65.33.93-.22-.92-.96-.46-2.14-1.57-3.33l.41-.28c-1.75-1.44-1.09-3.76-2.41-4.66-1.21-1.81.82-1.87-.9-3.56l.33-1.04c-.23-.92-1.02-.35-1.06-1.45.42-.08-.12-1.36.46-.92-.14-2.44-2.42-4.31-2.21-7.68-.98-.43-.94-2.11-1.67-2.45.32-.17-.77-3.13.44-1.58.1.13.16.4.02.42l.53.08c.43-1.99-1.33-3.07-1.64-4.86-.03.56.19,1.24-.25.86l-.35-1.65.49.24-.38-2.5-.41.46c-.05-1.26.69-1.89-.34-3.07-.54-.51-.39,1.3-.85.07-.05-1.68-.15-4.21-.48-6.28-.51.33-.62-.23-.87-.77l.47-.18c-1.19-2.01.88-1.05-.17-3.07l.38.11-1.15-.33c-1.42-1.72.76-1.28-1.04-3.13.28.83-.98.65-1.01-.45l.53.16c-.23-.56-.47-.71-.46-1.12.33.29.72.03.45-.81l.72.44-1.23-1.42c.22-1.36-.82-3.2-.27-3.85,0,0-.24-2.75-1.1-3.21.56.45.44-1.07,1.06-.75-.64-.59-1.46-2.57-1.07-3.49l.09.14c-.05-3.13-1.67-5.07-1.47-7.91-.55.21-.48-1.28-1.15-.81-1.11-2.75.78-5.37-1.63-6.11-.27-1.28.37-1.6.41-2.28l.15.29c-.43-2.4-.54-3.11-.66-4.91-.28-.88-1.35-.94-1.2-2.58.45.5.33-.16.29-.77.09.38.25.49.48-.32-.14-.1-.23-.27-.31-.43.03,0,.06-.04.1-.03-.21-1-.33-.82-.36-.35-.07-.02-.15.02-.25.18.24-.54.18-1.27.15-1.89,0-.62.03-1.12.39-1.19-.22-3.02-1.08-5.19-1.24-7.73.38-.28.69.32.82,1.06l-.09-1.79c.54.03.28,1.03.37,1.59.94-2.09-.81-4.43.24-6.86l-.38-.55.08-.14c-.22,0-.48-.59-.52-.97.49-.31,1.07.12,1.14-1.11.48-.93.1-2.76.03-4.06-.17.67-.4.42-.52.1.07-.62.58-.9.45-1.4l.63.04c-.62.15-.41-1.69-.63-1.96.51-.27.26,1.02.59,1.22.13-1.23.19-1.53.25-1.83.06-.3.11-.6.33-1.81-.2-1.38-.63.12-1.05-.61.12-1.17-.09-2.4.58-3.63-.22.09-.44.19-.65.28.15-2.25.6-3.53,1.54-4.8,0-.54,0-1.05,0-1.54.02-.48.04-.93.06-1.35.03-.85.04-1.61.02-2.28-.03-1.34-.14-2.31-.31-3-.34-1.36-.95-1.5-1.64-1.13-1.34.81-2.93,3.96-2.93,3.96-.43.77-.85,1.5-1.14,2.23-.28.73-.52,1.44-.73,2.14-.41,1.39-.68,2.74-.91,4.12-.14,1.41-.23,2.86-.37,4.46-.07.8-.15,1.64-.23,2.53-.04.9-.11,1.85-.19,2.87Z"/>
        </g>
        <g>
          <path class="cls-1" d="m814.48,837.31l-.17.16c.08-.07.15-.13.17-.16Z"/>
          <path class="cls-1" d="m818.14,839.82s.01-.03.02-.05l-.02.05Z"/>
          <path class="cls-1" d="m809.17,843.16h0s-.03.02-.05.03l.05-.03Z"/>
          <path class="cls-1" d="m808.5,841.34c.04.54-.72,1.32-.05,1.45.1.24.46.28.71.36.69-.49.22.22.82-.19l-.31.37c.2-.14.36-.22.2,0l-.1.1c.3-.21.2,0,.35-.11l-.1.1h.1s-.15.15-.15.15c.35-.19.45-.14.41.06l.39-.43c-.27.63.58-.22.22.49l-.09.1c1.17-1.01-.36,1.06.76.09-.14.12-.17.24-.26.35.2-.06.35-.05,1.04-.96.05.06-.17.32-.42.68.3-.4.48-.52.55-.51l-.14.14.24-.03.53-.78c-.09.27-.65.95-.45.81l.45-.64c0,.19-.61,1.21-.82,1.76.14.3.62.1,1,0,.39-.1.68-.12.58.61l-.25.53c-.38.77.71-1.07.36-.35l.23-.32c-.05.14-.09.31-.21.47.04.05.1-.07.25-.29l-.18.51c.03.47.63-.38.75-.1-.17,1.11.73.4,1.18-.07.39-.54.42.03.51.58.08.55.2,1.1.59.43-.01.12.08-.14.11-.23l.36.2s.48.17.88-.58c.2-.38.36-.98.46-1.95.1-.96.12-2.29.22-4.07l.03-.18c-.03-.46-.06-.57-.32.33.22-1.13-.06-.14-.01-.51l.02-.09c-.26.85.04-.74-.2.01.02-.09.1-.39.12-.41-.08.13-.2.36-.03-.29-.14.14-.18-.19-.57.81l.06-.18c-.26.67-.08.08-.24.42.02-.08.04-.13.05-.16-.27.66-.17.06-.3.34l.15-.42-.12.07v.1c-.44,1.14.2-.74-.14-.03,0-.16-1.08,2.31-.94,1.72-.26.51.39-.85.17-.46.25-.59.18-.36.36-.83-.17.26.18-.63-.04-.26l.2-.46c-.44.8.15-.66-.26.11-.25.33.6-1.35.1-.51l.27-.61c.02-.11-.39.73-.28.42.19-.38.12-.32.32-.67.25-.62-.58.75-.12-.27-.42.71-.23.26-.55.79.18-.31-.06-.1.38-.74.04-.05.04-.04-.03.08l.25-.42c.43-.82-.34.39-.31.24-.07.15-.03.12-.22.4v-.08s.22-.34.22-.34l.07-.24-.26.44c.11-.24.57-.97.14-.39-.24.33-.34.59-.47.71.14-.32.38-.79.42-.95-.32.48-.32.45-.41.53l.28-.41c-.45.53.62-.91.25-.49l.21-.28-.62.83c-.63.76.59-.85-.27.2.07-.05-.64.89-.55.69l.3-.38c-.08.07-.2.23-.15.14.17-.2.43-.55.36-.5l.38-.47-.58.67c.29-.43-.16.04.25-.5,0,0,.15-.31-.34.26.31-.35.38-.51.74-.92-.35.39-.67.68-.33.24l.04-.04c.32-.48-.62.48-.22-.08-.39.43-.21.17-.7.72-.58.46.93-1.19-.69.42-.12.05.34-.42.41-.52l.09-.08c-.19.08-.22.07-.23,0-.18.13-.96.86-.81.63.32-.27.25-.24.23-.25.06-.03.17-.14.36-.35-.1.08-.16.13-.21.18.02-.02.04-.04.08-.07-.13.07-.23.17-.26.22-.05.04-.11.1-.19.18.38-.39-.1-.06.44-.54-.19.03-.82.46-1.1.56.28-.25.55-.44.68-.51l-.14.04c.42-.34.26-.17.35-.22.63-.6-.77.42-.2-.14l-.35.24.05-.05c-.18.14-.43.31-.5.34.36-.29.86-.65.81-.67.34-.29-.24.06-.47.17-.05.07-.26.21-.4.3-.03-.01.35-.29.17-.19l.51-.37c-.48.35-.56.32-.77.46.38-.28.35-.2.64-.4-.1-.04-.05-.02-.15-.06-.42.23-.49.34-.96.63-.13.03-.52.23-.24-.02l-.46.32c-.42.15-.4.06.05-.29-2.14.87-3.56,1.52-4.38,2.08-.82.55-1.05.97-1.05.97-.81,1.07.73.44,1.38.61Z"/>
        </g>
        <g>
          <path class="cls-1" d="m146.1,531.62l.36.16c-.03-.1-.13-.18-.36-.16Z"/>
          <path class="cls-1" d="m223.06,512.2s.04-.04.06-.07c-.05.03-.06.05-.06.07Z"/>
          <path class="cls-1" d="m159.76,536.52s-.02,0-.02,0c-.02.03-.05.05-.07.08l.08-.08Z"/>
          <path class="cls-1" d="m143.95,539.48c4.18-.64,5.51.16,9.67-1.24,2.05-.39,4.16-1.13,6.12-1.72.75-1.04,2.6-.63,3.55-1.58l.54.36c.33-.33.74-.59,1.19-.43v.14c.5-.49,1.19-.43,1.44-.68v.14s.69-.23.69-.23l-.07.22c.91-.61,1.93-.89,2.88-.93l-.21-.55c2.09.16,2.52-1.18,4.45-.85v.14c1.86-2.02,3.75.16,5.68-1.81-.24.25.19.26.2.4,1.01-.42,2.11-.78,1.85-1.89.77-.17.71.19.91.6-.12-.48.49-.85,1.08-1.03l-.23.26,1.67-.59-.56-.83c.97.04.51,1.06,1.32.62l-.2-.75c1.29-.16,2.31.8,3.67,1.05,5.12-.95,10.02-4.28,15.05-4.18l.36.51c.31.81.97-1.57,1.35-.85l.44-.52c.19.11.56.18.33.44.51-.1.49-.24.78-.59l.68.37c2.09-.13,3.51-1.56,5.65-1.93,2.79.38,7.24-1.87,9.79-3.19,3.47-2.28,8.81-.24,12.31-2.76.16.08.41-.28.38-.37l3.59-.9s4.34-1.16,6.79-2.72c2.45-1.55,2.99-3.47-4.53-4.99l.04-.2c-2.06.13-3.31.38-4.39,1.67-.53-1.05-1.63.34-2.18.11l.02-.1c-.94,1.19-2.64-.01-3.56,1.08.02-.1-.04-.41.22-.5-.79.38-1.86.94-2.11.31-1.94.73-4.8,1.21-5.79,2.59l.04-.2c-.53.9-.91.36-1.63.94-.07-.07-.14-.1-.14-.14-.6.91-2.28.75-2.84,1.22l-.16-.42-1.55.54.62-.07c.12,1.24-1.4-.41-2.33.66-1.11.14-1.51,3.05-2.78,2.77-.38.7.23-1.03-.45-.39-.19-.61.27-.49-.07-.92-.7.5-1.45-.28-2.3.39l-.17-.47c-1.02,1.21-2.54,0-3.15,1.06-1.19.74-1.25-1.2-2.35.1l-.7-.51c-.6.05-.2.91-.92.76-.07-.42-.89-.11-.62-.6-1.62-.26-2.7,1.68-4.89,1.09-.21.91-1.29.68-1.44,1.36-.14-.33-1.94.45-1.06-.59.08-.09.24-.12.27.02v-.51c-1.31-.61-1.84,1-2.96,1.14.36.08.77-.08.57.32l-1.02.19.11-.45-1.55.15.33.44c-.8-.07-1.27-.84-1.91.07-.27.49.86.49.13.84-1.06-.08-2.65-.22-3.94-.06.26.53-.08.59-.4.79l-.16-.47c-1.16,1-.75-.94-1.93-.08l.03-.37-.09,1.1c-.95,1.26-.89-.84-1.88.8.5-.21.51,1-.18.95l.05-.51c-.33.19-.4.41-.66.37.15-.3-.06-.71-.56-.5l.21-.67-.77,1.1c-.89-.31-1.94.61-2.41.03,0,0-1.72.08-1.92.9.22-.53-.73-.48-.6-1.07-.3.61-1.45,1.34-2.09.92l.08-.08c-1.99-.1-3,1.52-4.83,1.26.21.54-.74.45-.35,1.12-1.56,1.13-3.5-.71-3.59,1.66-.76.31-1.06-.3-1.49-.32l.16-.16c-1.43.53-1.85.65-2.96.86-.5.35-.34,1.4-1.38,1.38.22-.48-.16-.31-.53-.23.22-.12.26-.29-.29-.45-.04.14-.12.25-.21.33-.01-.03-.04-.05-.04-.1-.58.29-.44.39-.14.38,0,.07.04.14.16.23-.76-.38-1.76.45-2-.24-1.8.59-2.95,1.63-4.42,2.25-.26-.32.03-.73.44-.97l-1.06.38c-.11-.52.56-.44.87-.62-1.49-.55-2.48,1.45-4.17,1.02l-.22.48-.11-.05c.05.22-.22.59-.43.71-.32-.41-.22-1.05-.97-.85-.69-.3-1.64.6-2.36,1.02.44-.02.36.27.21.47-.37.1-.69-.31-.94-.05l-.17-.61c.28.55-.84.84-.93,1.13-.32-.41.5-.52.51-.89-1.5.39-.75.2-2.24.59-.7.64.28.55,0,1.17-.68.28-1.28.86-2.18.67l.38.49c-1.24.72-2.06.83-3.08.47-9.01,6.62-.78,6.54-.78,6.54,4.2.36,5.89-1.68,10.48-3.15Z"/>
        </g>
        <g>
          <path class="cls-1" d="m249.02,533.38l.34.16c-.03-.1-.12-.18-.34-.16Z"/>
          <path class="cls-1" d="m320.81,509.57s.04-.04.05-.07c-.04.03-.05.05-.05.07Z"/>
          <path class="cls-1" d="m262.38,537.83s-.02,0-.02,0c-.02.03-.04.05-.06.08l.07-.08Z"/>
          <path class="cls-1" d="m247.07,541.23c4.08-.62,5.43.15,9.44-1.39,1.99-.45,4-1.3,5.85-2,.65-1.08,2.47-.77,3.31-1.78l.55.33c.29-.34.66-.64,1.11-.51l.02.14c.43-.52,1.1-.51,1.32-.77l.02.14.64-.27-.05.23c.82-.67,1.77-1.02,2.68-1.14l-.25-.53c2.02,0,2.3-1.36,4.17-1.19l.02.14c1.56-2.15,3.59-.13,5.23-2.23-.2.26.21.24.23.38.92-.49,1.93-.93,1.57-2.02.71-.23.69.14.93.52-.17-.47.38-.88.92-1.1l-.19.27,1.53-.71-.62-.78c.93-.03.59,1.01,1.32.52l-.27-.74c1.21-.26,2.28.63,3.6.79,4.79-1.3,9.17-4.91,13.97-5.11l.38.49c.36.78.79-1.61,1.21-.92l.38-.54c.19.1.55.15.36.42.48-.13.44-.27.7-.63l.68.33c1.98-.25,3.22-1.76,5.23-2.23,2.69.22,6.76-2.24,9.1-3.66,3.14-2.44,8.4-.64,11.56-3.28.16.07.38-.29.34-.38l3.38-1.04s16.28-5.27,1.68-7.75l.02-.2c-1.97.2-3.16.5-4.11,1.83-.57-1.02-1.54.4-2.09.2v-.1c-.82,1.22-2.52.09-3.34,1.21.01-.1-.07-.41.17-.51-.73.41-1.72,1.02-2,.4-1.81.81-4.52,1.42-5.37,2.84l.02-.2c-.45.92-.85.41-1.49,1.02-.07-.07-.14-.09-.14-.13-.51.93-2.13.85-2.63,1.35l-.18-.41-1.45.61.58-.1c.21,1.22-1.37-.34-2.18.78-1.05.2-1.21,3.11-2.45,2.9-.31.71.13-1.03-.47-.36-.23-.6.22-.5-.14-.91-.63.54-1.41-.2-2.17.51l-.2-.46c-.88,1.26-2.43.15-2.93,1.23-1.08.81-1.29-1.12-2.24.24l-.71-.47c-.58.08-.12.91-.82.81-.1-.41-.87-.06-.65-.56-1.57-.16-2.44,1.84-4.59,1.39-.12.91-1.18.76-1.26,1.44-.17-.32-1.82.57-1.06-.52.07-.09.22-.13.26,0l-.04-.5c-1.32-.52-1.68,1.12-2.74,1.33.35.05.73-.13.58.28l-.96.26.06-.46-1.47.25.36.42c-.77-.01-1.29-.75-1.82.2-.22.5.87.43.2.83-1.02-.01-2.56-.04-3.77.22.3.51-.02.59-.31.81l-.2-.46c-1.01,1.08-.81-.88-1.86.06v-.37s.01,1.1.01,1.1c-.78,1.31-.93-.77-1.72.93.46-.25.59.96-.08.96v-.51c-.3.21-.35.44-.6.42.11-.31-.12-.7-.58-.45l.13-.68-.63,1.15c-.88-.24-1.79.76-2.31.22,0,0-1.63.21-1.74,1.03.16-.54-.74-.42-.68-1.01-.23.63-1.25,1.43-1.9,1.07l.07-.09c-1.91.05-2.7,1.74-4.46,1.61.25.52-.66.5-.23,1.13-1.38,1.23-3.38-.46-3.26,1.89-.69.35-1.03-.23-1.44-.22l.14-.17c-1.31.61-1.7.76-2.73,1.03-.44.37-.21,1.41-1.2,1.44.17-.49-.18-.3-.52-.2.2-.13.22-.3-.31-.43-.03.14-.1.25-.17.34-.01-.03-.04-.05-.04-.1-.53.32-.39.41-.11.39,0,.07.05.14.17.23-.75-.34-1.64.52-1.91-.15-1.66.67-2.69,1.72-4.05,2.39-.26-.32,0-.73.37-.98l-.98.41c-.13-.52.5-.45.79-.64-1.43-.51-2.27,1.5-3.89,1.08l-.19.48-.1-.05c.06.22-.19.59-.39.71-.31-.41-.24-1.05-.94-.85-.66-.3-1.53.58-2.21.99.41-.01.34.27.21.47-.35.09-.65-.32-.89-.06l-.17-.61c.26.55-.79.83-.87,1.1-.3-.42.47-.5.49-.87-1.41.34-.7.17-2.11.51-.67.62.25.56,0,1.17-.65.26-1.24.8-2.08.57l.34.51c-1.2.66-1.99.72-2.94.29-4.46,2.94-4.9,4.49-4.06,5.41.83.89,2.88,1.06,2.88,1.06,4.16.65,5.96-1.31,10.45-2.7Z"/>
        </g>
        <g>
          <path class="cls-1" d="m144.56,598.35l.24.2c-.02-.11-.08-.19-.24-.2Z"/>
          <path class="cls-1" d="m196.09,585.57s.02-.04.03-.07c-.03.03-.03.05-.03.07Z"/>
          <path class="cls-1" d="m153.99,604.77h-.01s-.03.04-.04.07l.06-.07Z"/>
          <path class="cls-1" d="m143.02,605.86c2.89-.11,3.82.82,6.71-.07,1.43-.15,2.89-.66,4.24-1.02.51-.94,1.8-.34,2.44-1.18l.39.41c.22-.29.5-.51.82-.3v.14c.34-.43.83-.3.99-.52v.14s.48-.15.48-.15l-.04.21c.62-.5,1.32-.68,1.98-.64l-.17-.56c1.47.36,1.71-.92,3.07-.42v.14c1.21-1.81,2.64.48,3.89-1.29-.15.22.15.27.17.41.68-.33,1.43-.58,1.18-1.7.53-.1.51.25.68.66-.12-.49.29-.8.68-.93l-.14.23,1.12-.45-.45-.86c.68.11.43,1.08.97.71l-.19-.76c.89-.06,1.67.96,2.65,1.32,1.76-.28,3.44-1.17,5.11-1.9,1.67-.76,3.32-1.4,5.1-1.19l.31.52c.31.81.51-1.48.86-.76l.25-.49c.15.11.41.21.29.45.35-.07.32-.21.49-.53l.52.4c1.46-.02,2.3-1.33,3.76-1.6,2.02.5,4.89-1.5,6.5-2.7,1.06-1.04,2.61-1.02,4.16-1.05,1.55-.03,3.12-.07,4.15-1.26.13.08.25-.26.21-.35l2.4-.8s.73-.25,1.63-.71c.9-.45,1.98-1.09,2.71-1.82,1.46-1.47,1.42-3.28-4.14-4.85v-.2c-1.43.09-2.25.31-2.78,1.52-.56-1.02-1.08.29-1.51.06v-.1c-.46,1.12-1.85-.07-2.31.95,0-.1-.1-.4.07-.48-.49.34-1.14.85-1.42.24-1.24.64-3.14,1.02-3.62,2.32v-.2c-.24.85-.59.31-1,.85-.06-.07-.11-.1-.12-.14-.29.85-1.48.63-1.8,1.06l-.17-.41-1,.46.42-.04c.26,1.21-1.03-.45-1.53.54-.75.08-.64,2.89-1.57,2.56-.18.66.02-.99-.37-.4-.21-.6.12-.46-.17-.9-.42.46-1.04-.35-1.55.27l-.18-.47c-.56,1.13-1.76-.14-2.06.86-.74.66-1.01-1.24-1.62-.03l-.54-.54c-.41.01-.04.87-.55.69-.1-.41-.63-.16-.5-.62-1.14-.36-1.69,1.46-3.26.75-.05.87-.82.58-.86,1.24-.13-.34-1.29.31-.79-.65.04-.08.16-.1.19.04l-.04-.5c-.96-.68-1.18.84-1.94.9.25.1.53-.02.43.36l-.69.11.03-.43-1.05.03.27.46c-.55-.12-.94-.92-1.31-.07-.15.46.63.54.16.83-.74-.16-1.84-.42-2.71-.37.22.54-.01.57-.21.74l-.15-.48c-.72.89-.59-.98-1.33-.23v-.36s.01,1.07.01,1.07c-.56,1.15-.67-.9-1.23.63.33-.17.42,1.03-.06.92v-.49c-.22.16-.25.37-.43.31.08-.28-.09-.7-.42-.54l.1-.64-.46,1.01c-.63-.39-1.29.43-1.65-.18,0,0-1.17-.07-1.26.71.12-.5-.52-.53-.47-1.1-.17.57-.92,1.18-1.38.71l.05-.07c-1.36-.3-1.97,1.21-3.23.76.17.56-.49.37-.2,1.06-1.02.97-2.41-1.06-2.4,1.27-.51.22-.73-.41-1.03-.47l.1-.14c-.96.37-1.25.45-1.99.54-.33.29-.2,1.35-.91,1.21.14-.45-.12-.33-.37-.29.15-.09.17-.25-.21-.48-.02.14-.08.23-.13.3,0-.03-.03-.06-.03-.1-.39.22-.29.33-.09.36,0,.07.03.14.11.25-.52-.46-1.2.24-1.37-.46-1.22.37-1.99,1.28-2.99,1.71-.18-.35.02-.71.3-.9l-.72.25c-.08-.53.38-.37.59-.51-1.01-.72-1.68,1.13-2.83.5l-.15.45-.07-.06c.04.22-.15.56-.29.65-.21-.44-.15-1.07-.65-.96-.47-.38-1.11.39-1.61.71.3.04.24.31.14.49-.25.05-.47-.39-.64-.17l-.11-.62c.18.58-.58.72-.64.99-.21-.44.34-.45.36-.81-1.02.19-.51.1-1.53.29-.49.54.18.58-.01,1.16-.47.19-.89.69-1.49.38l.25.53c-.86.54-1.42.54-2.11.05-3.16,2.66-3.38,4.24-2.77,5.17.6.92,2.03,1.18,2.03,1.18,2.89.93,4.13-.87,7.31-1.75Z"/>
        </g>
        <g>
          <path class="cls-1" d="m322.61,541.29l.11.21c-.03-.1-.07-.19-.11-.21Z"/>
          <path class="cls-1" d="m335.84,537.6s0-.03,0-.05c0,.02,0,.04,0,.05Z"/>
          <path class="cls-1" d="m326.71,548.3h0s0,.04,0,.06v-.06Z"/>
          <path class="cls-1" d="m323.87,548.42c.77.08,1.25,1.08,1.86.45.37,0,.67-.35.98-.57-.06-.86.44-.13.45-.87l.2.44c0-.25.04-.43.17-.2l.03.14c0-.38.17-.2.17-.39l.03.14.1-.09.03.2c.07-.42.24-.49.44-.36l-.17-.56c.5.54.31-.66.81,0l.03.14c-.02-1.58.87.84.88-.67,0,.19.1.28.13.42.14-.21.31-.34,0-1.45.14-.02.2.32.33.74-.13-.48-.07-.71.02-.77v.2s.25-.24.25-.24l-.31-.89c.23.22.34,1.1.43.84l-.21-.75c.25.09.69,1.2,1.05,1.7.95.09,1.36-2.09,2.52-.98l.19.56c.24.82-.11-1.29.13-.53v-.4c.06.14.16.28.16.48.1,0,.06-.13.05-.39l.23.49c.45.31.47-.77.88-.66.72.93,1.27-.25,1.58-.94.32-1.42,1.98,1.67,2.27.07.05.11.04-.17.01-.26l.65-.05s3.07-.5-1.07-6.73l-.03-.18c-.46-.35-.7-.39-.68.59-.34-1.1-.31-.04-.49-.38l-.02-.09c.03.91-.62-.6-.61.22-.02-.09-.1-.4-.05-.43-.11.18-.24.48-.42-.16-.3.26-.86.1-.8,1.19l-.03-.18c.06.73-.13.15-.18.54-.03-.08-.05-.12-.06-.16.05.73-.37.22-.4.54l-.12-.43-.25.17.13.06c.29,1.19-.41-.68-.4.14-.23-.1.29,2.56-.06,2.03.06.58-.16-.92-.19-.46-.17-.61-.04-.4-.21-.89-.06.33-.39-.57-.45-.11l-.14-.48c.02.94-.58-.52-.5.36-.12.46-.54-1.38-.52-.38l-.27-.62c-.13-.08.15.82-.05.53-.1-.41-.23-.29-.27-.69-.42-.57-.26,1.05-.88.05.15.81-.15.39-.04,1-.1-.34-.35.03-.37-.77,0-.07.03-.06.07.07l-.11-.48c-.43-.84-.21.58-.43.5.1.14.16.08.2.42l-.19-.02-.07-.41-.32-.16.17.48c-.19-.22-.47-1.04-.42-.31.04.41.3.63.21.82-.26-.29-.65-.73-.9-.81.17.55.11.54.08.67l-.14-.48c-.05.73-.37-1.03-.45-.44l-.07-.34.21,1.02c.06,1.01-.38-.97-.25.4.07-.11.33,1.05.16.87l-.1-.47c-.03.11,0,.31-.07.23-.03-.26-.16-.68-.23-.58l-.1-.6.06.9c-.27-.46-.3.22-.54-.42,0,0-.37-.24-.24.49-.06-.46-.27-.59-.36-1.12.06.52-.04.99-.27.48v-.06c-.47-.46-.34.9-.81.31.17.55-.07.29.16.99-.1.79-.94-1.3-.44.93-.1.16-.3-.47-.4-.57v-.13c-.2.25-.27.29-.47.29-.04.24.23,1.27,0,1.07-.06-.42-.1-.33-.17-.31.02-.07,0-.23-.16-.48.02.13.03.21.03.28,0-.03-.02-.06-.03-.1-.07.17-.01.29.05.34.01.06.04.14.09.25-.25-.5-.29.12-.5-.58-.27.25-.3,1.03-.49,1.37-.13-.35-.15-.69-.11-.85l-.15.18c-.14-.52.03-.33.05-.45-.45-.78-.23.96-.7.26l.06.42-.03-.06c.06.22.08.53.06.61-.16-.44-.28-1.04-.4-.98-.22-.41-.23.3-.3.58.09.06.14.31.15.48-.06.03-.22-.41-.22-.2l-.17-.61c.18.57,0,.66.04.92-.16-.44,0-.42-.08-.76-.24.13-.12.06-.36.19-.01.5.18.57.26,1.12-.09.15-.09.61-.33.28l.19.53c-.11.48-.27.46-.57-.05-.5,4.86,1.28,6.1,1.28,6.1,1,1.01.91-.66,1.6-1.29Z"/>
        </g>
        <g>
          <path class="cls-1" d="m924.48,556.06l-.08.24c.07-.08.11-.17.08-.24Z"/>
          <path class="cls-1" d="m943.05,570.65s.03-.01.05-.03c-.02,0-.04.02-.05.03Z"/>
          <path class="cls-1" d="m922.17,564.42h0s-.03.01-.06.03l.06-.03Z"/>
          <path class="cls-1" d="m918.87,560.74c.78,1.06.33,2.1,1.63,2.64.43.48,1.11.73,1.67,1.03.77-.45.63.52,1.36.2l-.2.45c.25-.11.46-.14.39.13l-.1.1c.37-.16.39.13.57.05l-.1.1.21.09-.16.13c.49-.09.75.09.86.41l.35-.46c.06.89.99.1.93,1.04l-.09.1c1.5-.75.2,1.5,1.67.82-.18.09-.16.26-.25.36.36.08.69.23,1.4-.66.18.16-.07.4-.32.76.31-.39.6-.43.77-.33l-.19.1.52.2.5-.8c.05.39-.66.95-.3.94l.48-.61c.21.36-.34,1.43-.4,2.12,1.04,1.24,3.6.69,3.94,2.67l-.3.51c-.49.7,1.09-.77.66-.1l.37-.21c-.05.15-.07.34-.25.45.11.12.19.01.44-.13l-.18.53c.25.71,1.29.2,1.7.76-.01,1.35,1.78,1.42,2.82,1.44,1.71-.34.88,3.25,2.74,2.76-.04.12.21-.04.26-.12l.86.74s1.08.84,2.23.65c1.16-.19,2.35-1.43,2.67-5.5l.13-.14c-.24-.71-.49-1.01-1.37-.47.6-.99-.34-.38-.24-.77l.06-.07c-.81.52-.2-1.03-.94-.58.06-.07.25-.32.33-.29-.29-.03-.73-.02-.36-.58-.6-.21-1.12-.95-2.06-.31l.13-.14c-.6.46-.3-.08-.72.07.04-.08.05-.13.08-.15-.62.44-.64-.33-.98-.2l.25-.37-.46-.2.09.18c-.77.95.15-.84-.6-.4-.17-.32-2.05,1.66-1.97.97-.47.36.67-.66.21-.45.37-.52.33-.25.58-.7-.37.1.07-.76-.43-.59l.29-.41c-.85.5-.19-.96-.92-.42-.57.09.67-1.34-.24-.81l.27-.63c-.08-.19-.6.58-.56.2.26-.33,0-.42.34-.67.05-.8-1.29.2-1.07-1.04-.6.58-.54.01-.99.44.21-.29-.43-.4.3-.82.06-.03.09,0,0,.12l.33-.36c.3-.93-.79.03-.96-.28-.02.19.11.23-.17.45l-.2-.24.3-.29-.21-.47-.26.44c-.02-.34.46-1.08-.19-.66-.34.25-.25.67-.54.65-.02-.46-.05-1.15-.26-1.5-.33.47-.39.39-.55.42l.3-.4c-.75.29.56-.95-.09-.77l.24-.25-.73.75c-.9.55.49-.93-.66-.12.18.03-.62.91-.64.61l.34-.34c-.15.01-.3.15-.3.02.21-.16.46-.53.29-.56l.46-.4-.79.5c.14-.55-.55-.28-.2-.86,0,0-.18-.57-.74-.07.37-.3.26-.6.67-.98-.43.32-1,.42-.76-.11l.06-.03c-.08-.8-1.24-.01-1.2-.87-.35.46-.36.05-.78.66-.88.23.22-1.77-1.39-.14-.26-.06.12-.59.1-.76l.12-.06c-.47-.15-.58-.21-.8-.47-.27.06-.98.86-1.04.47.35-.26.2-.28.12-.35.1,0,.21-.11.29-.42-.1.09-.18.13-.24.16.02-.03.03-.05.06-.08-.24,0-.3.11-.27.21-.05.05-.09.11-.15.22.2-.54-.44-.32.01-.89-.54-.24-1.33.07-1.87-.02.2-.32.5-.5.7-.52l-.34-.11c.35-.4.35-.11.49-.12.27-.92-1.18.12-1.01-.78l-.35.26.03-.07c-.15.17-.42.33-.52.34.26-.4.71-.81.52-.94.16-.46-.54-.17-.88-.14.04.14-.16.31-.31.4-.1-.06.16-.46-.04-.37l.41-.48c-.36.48-.65.28-.85.45.26-.39.4-.18.65-.43-.38-.26-.19-.13-.58-.39-.5.19-.36.48-.82.81-.24-.05-.7.14-.63-.31l-.31.47c-.6.05-.74-.16-.56-.77-2.66.67-3.83,1.71-4.33,2.59-.49.88-.31,1.6-.31,1.6.09,1.75,1.66.96,3.04,1.59Z"/>
        </g>
        <g>
          <path class="cls-1" d="m983.62,612.35l-.22.07c.1-.02.19-.05.22-.07Z"/>
          <path class="cls-1" d="m984.92,618.35s.03,0,.05,0c-.02,0-.04,0-.05,0Z"/>
          <path class="cls-1" d="m976.12,614.82h0s-.04,0-.06,0h.06Z"/>
          <path class="cls-1" d="m976.5,613.48c-.21.37-1.26.67-.76.92-.05.18.22.29.38.42.84-.09.05.2.77.15l-.46.13c.24-.02.41-.02.16.07l-.14.03c.37-.03.16.07.35.05l-.14.03.07.04-.2.03c.39,0,.43.08.28.18l.57-.12c-.61.28.58.1-.14.38l-.14.03c1.54-.13-.97.48.49.37-.18.01-.29.07-.43.09.18.05.28.12,1.4-.11,0,.06-.34.12-.77.21.49-.1.7-.09.74-.05l-.19.02.19.1.92-.21c-.25.12-1.12.25-.89.27l.77-.16c-.13.13-1.28.42-1.83.63-.25.46,1.79.49.52,1.12l-.57.13c-.84.18,1.26-.15.49.02l.39-.04c-.15.04-.3.1-.5.12-.02.05.11.02.37,0l-.51.15c-.38.24.66.17.49.37-1.03.41.03.58.64.68,1.32.04-1.96,1.07-.46,1.08-.12.03.16,0,.25-.01l-.06.3s-.05,1.42,6.71-1.02l.18-.03c.42-.24.49-.36-.45-.28,1.13-.25.09-.15.45-.26l.09-.02c-.89.08.68-.34-.11-.27.09-.01.4-.08.42-.06-.16-.04-.42-.08.23-.21-.2-.12.06-.4-1.01-.29l.18-.03c-.72.09-.12-.05-.49-.04.09-.02.13-.03.17-.04-.71.08-.15-.16-.46-.15l.44-.09-.13-.1-.08.07c-1.2.23.73-.25-.06-.18.13-.11-2.53.33-1.96.13-.57.07.92-.15.48-.12.63-.13.4-.05.89-.17-.31,0,.62-.23.18-.22l.49-.1c-.91.08.6-.32-.26-.21-.42-.02,1.43-.36.46-.27l.65-.17c.1-.07-.81.13-.51.02.42-.08.32-.13.72-.18.63-.24-.97-.04.1-.42-.81.13-.35-.04-.96.06.35-.08.03-.16.81-.23.06,0,.05,0-.08.04l.48-.09c.89-.27-.53-.05-.41-.17-.15.06-.1.08-.44.13l.05-.09.41-.07.21-.16-.5.12c.25-.11,1.09-.3.37-.22-.4.05-.66.19-.83.16.33-.15.82-.36.94-.49-.56.12-.54.09-.67.09l.49-.1c-.7.03,1.07-.25.51-.25l.34-.06-1.03.18c-.99.1,1-.25-.34-.09.09.02-1.07.24-.87.14l.47-.08c-.11,0-.3.02-.21-.02.26-.03.69-.13.6-.15l.59-.09-.88.1c.49-.16-.16-.13.5-.29,0,0,.3-.19-.43-.08.46-.07.62-.17,1.15-.26-.52.07-.96.06-.42-.09h.06c.53-.26-.81-.1-.16-.37-.57.12-.27-.01-.99.15-.74.01,1.42-.54-.83-.14-.13-.04.51-.18.62-.23h.12c-.21-.09-.23-.12-.2-.21-.23,0-1.27.2-1.03.08.42-.06.33-.07.33-.1.07,0,.22-.02.49-.11-.13.02-.21.03-.28.03.03,0,.06-.01.1-.02-.16-.02-.28.02-.33.05-.06.01-.14.03-.26.06.52-.16-.06-.13.64-.28-.19-.11-.95-.06-1.25-.13.36-.09.69-.12.84-.12l-.15-.06c.53-.11.31-.01.42,0,.83-.27-.89-.04-.13-.31l-.42.06.07-.02c-.22.04-.52.08-.6.08.45-.11,1.06-.21,1.02-.26.43-.14-.25-.09-.51-.1-.07.05-.33.09-.49.11-.02-.03.43-.14.23-.12l.62-.13c-.58.13-.64.05-.9.09.45-.11.4-.03.75-.1-.08-.11-.04-.05-.12-.16-.48.03-.58.13-1.13.21-.13-.03-.57,0-.21-.14l-.54.13c-.45-.02-.4-.09.15-.27-4.62.13-6.13,1.07-6.13,1.07-1.15.55.48.38.98.66Z"/>
        </g>
      </g>
    </g>
  </g>
</svg>