<?xml version="1.0" encoding="UTF-8"?>
<svg id="Layer_2" data-name="Layer 2" xmlns="http://www.w3.org/2000/svg" viewBox="0 0 1364.83 586.81">
  <defs>
    <style>
      .cls-1 {
        fill: #b02062;
      }

      .cls-1, .cls-2 {
        stroke-width: 0px;
      }

      .cls-2 {
        fill: #d11b47;
      }

      .cls-3 {
        fill: none;
        stroke: #a4004b;
        stroke-miterlimit: 10;
        stroke-width: 2.83px;
      }
    </style>
  </defs>
  <g id="Phase_1" data-name="Phase 1">
    <g id="Layer_33" data-name="Layer 33">
      <g>
        <g>
          <path class="cls-2" d="m130.11,37.73s236.92-90.55,353.3,14.34c116.38,104.89,179.48,293,401.1,337.65,236.92,47.74,478.89,0,478.89,0v164.59s-306.34,55.6-505.86,18.08c-199.51-37.52-378.46-229.82-424.02-293.01-99.92-138.61-239-116.18-303.43-68.38l-64.43,47.8L1.82,86.79l128.29-49.07Z"/>
          <path class="cls-3" d="m130.11,37.73s236.92-90.55,353.3,14.34c116.38,104.89,179.48,293,401.1,337.65,236.92,47.74,478.89,0,478.89,0v164.59s-306.34,55.6-505.86,18.08c-199.51-37.52-378.46-229.82-424.02-293.01-99.92-138.61-239-116.18-303.43-68.38l-64.43,47.8L1.82,86.79l128.29-49.07Z"/>
        </g>
        <g>
          <path class="cls-1" d="m264.14,72.11l.59.3c0-.11-.14-.22-.59-.3Z"/>
          <path class="cls-1" d="m405.91,131.66s.1.04.15.05c-.09-.05-.13-.06-.15-.05Z"/>
          <path class="cls-1" d="m286.33,83.29s-.02,0-.03,0c-.05.01-.11.02-.16.03l.19-.03Z"/>
          <path class="cls-1" d="m256.18,78.64c1,.09,1.9.19,2.74.29.83.1,1.59.29,2.31.43,1.43.31,2.68.59,3.95.86,2.52.56,5.08.95,9.22,1.29,3.88.77,8.07,1.24,11.91,1.77.49-.13,1.05-.14,1.65-.09.6.06,1.22.23,1.86.38,1.28.31,2.59.65,3.73.56l.71.66c.78-.07,1.68-.02,2.35.4l-.08.12c1.18-.1,2.35.4,2.94.35l-.08.13,1.34.25-.28.14c2.01.02,3.94.64,5.59,1.29l.02-.6c3.46,1.7,5.14.94,8.21,2.65l-.09.12c2.32-.16,3.86.7,5.4,1.54,1.54.84,3.09,1.69,5.44,1.76-.59-.02.12.36.03.48,1.99.54,4.1,1.2,4.54.14,1.42.52,1.02.75,1.04,1.24.17-.47,1.45-.15,2.55.28l-.57-.03,3.17,1.15-.25-1.13c1.55.95-.02,1.24,1.64,1.7l.28-.73c2.23,1.11,3.09,2.76,5.05,4.21,1.14.49,2.24,1.08,3.38,1.61,1.14.54,2.29,1.05,3.46,1.56,2.34.99,4.7,1.98,7.03,2.96,4.58,2.15,8.99,4.52,12.67,7.35l.05.7c-.27.79,2.8.27,2.69,1.13l1.11.24c.17.29.62.77.07.65.82.56.91.46,1.65.62l.61,1.02c1.54,1.23,3.14,2.07,4.79,2.91.81.43,1.67.81,2.47,1.33.81.51,1.62,1.06,2.42,1.71,1.69,1.89,4.56,3.99,7.6,5.96l1.15.73c.37.26.74.52,1.11.77.74.5,1.47,1,2.17,1.48,1.43.94,2.77,1.82,3.9,2.56,1.67.95,3.22,2.17,4.7,3.53,1.42,1.43,2.75,3.02,4.09,4.59,1.34,1.57,2.68,3.14,4.11,4.58.71.72,1.46,1.38,2.2,2.05.72.68,1.48,1.3,2.28,1.87.09.27.73.54.8.47l4.83,5.16s.37.38.99,1.02c.62.63,1.5,1.5,2.42,2.56,1.88,2.08,4.28,4.59,6.32,6.35,2.04,1.76,3.74,2.78,4.2,1.83.46-.96-.31-3.87-3.32-10.11h.26c-1.12-1.64-2.08-2.97-3.06-4.06-1.03-1.04-2.11-1.84-3.4-2.5.54-1.1-2.19-2.43-2.56-3.35h.13c-2.32-1.11-2.94-4.13-5.16-5.22.13,0,.4-.21.79.17-1.34-1.07-3.25-2.45-2.88-3.02-1.56-1.31-3.34-2.99-5.06-4.46-1.73-1.45-3.34-2.77-4.73-3.15l.26-.03c-1.62-.39-1.56-1.13-3.08-1.9-.01-.12-.08-.23-.04-.25-1.71-.47-3.73-2.89-4.93-3.48l.21-.4-2.56-1.95.87.83c-.54.35-.89-.18-1.4-.91-.51-.73-1.23-1.58-2.41-1.95-1.69-1.41-5.09-.53-6.55-2.33-1.2-.16,1.31-.21-.25-.79.33-.55.84.11.8-.55-1.46-.68-1.73-2.06-3.56-2.85l.22-.46c-2.61-.68-3.69-3.16-5.59-3.36-2.44-1.07-.7-2.2-3.53-2.85l-.55-1.15c-.94-.73-1.14.25-2.07-.73.29-.32-1.21-1.18-.36-1.11-2.22-2.08-5.69-2.14-8.53-5.04-1.14.31-2.61-1.08-3.45-.85.08-.37-3.4-1.96-1.11-1.58.19.04.48.21.4.32l.46-.3c-.74-.97-1.72-1.3-2.73-1.54-1.01-.24-2.06-.4-3.01-.95.51.43,1.31.77.64.82l-1.8-.96.56-.18-2.63-1.56.15.64c-1.22-.89-1.32-1.9-3.14-1.99-.85.03.97,1.24-.5.69-.82-.58-1.83-1.36-2.95-2.06-1.13-.69-2.33-1.38-3.48-1.95-.01.62-.63.33-1.33.17l.12-.49c-2.76-.41-.48-1.39-3.17-1.93l.35-.23-1.05.69c-2.6-.02-.82-1.47-3.79-1.26,1.01.33.05,1.21-1.06.51l.48-.32c-.7-.19-1-.08-1.42-.34.5-.1.47-.58-.56-.86l.89-.32-2.21.15c-1.28-1.01-3.81-1.23-4.18-2.08,0,0-3.03-1.44-3.99-.99.78-.21-.9-1-.23-1.33-.98.2-3.51-.27-4.34-1.04h.21c-3.47-1.62-6.43-1.09-9.49-2.72,0,.6-1.64-.21-1.41.63-.89-.07-1.69-.31-2.42-.6-.74-.26-1.42-.55-2.03-.79-1.24-.48-2.26-.7-3.14.26-1.57-.24-1.71-.95-2.48-1.25l.4-.03c-2.95-.5-3.79-.67-5.94-1.23-1.12-.03-1.5.93-3.39.36.71-.3-.1-.37-.83-.49.48.02.65-.11-.25-.56-.16.1-.38.15-.59.18,0-.03-.04-.07,0-.11-1.25-.07-1.06.1-.5.26-.04.06,0,.15.14.29-1.16-.76-3.52-.58-3.55-1.32-1.85-.24-3.45-.28-4.98-.3-.76,0-1.51-.02-2.25-.03-.75-.01-1.5.03-2.27,0-.29-.41.47-.65,1.38-.69l-2.2-.11c.09-.53,1.29-.16,1.98-.19-2.49-1.16-5.46.25-8.4-.89l-.67.35-.17-.09c-.01.22-.73.45-1.18.47-.38-.51.14-1.07-1.37-1.21-.58-.29-1.43-.34-2.33-.28-.91.09-1.87.27-2.66.36.84.12.55.37.17.51-.76-.03-1.16-.51-1.76-.35l-.03-.63c.26.61-2.02.53-2.31.77-.4-.49,1.2-.34,1.41-.68-3.04-.11-1.52-.05-4.56-.16-1.64.39.27.61-.53,1.12-1.43.05-2.83.41-4.45-.06l.5.59c-2.68.36-4.26.37-6.06-.2-4.98,1.17-7.66,2.15-8.95,2.95-1.28.81-1.17,1.47-.43,1.93,1.45.98,5.28,1.37,5.28,1.37,3.82.61,6.7.45,9.78.18,3.08-.14,6.36-.48,10.93-.45Z"/>
        </g>
        <g>
          <path class="cls-1" d="m723.23,360.8l.37.54c.05-.09-.02-.26-.37-.54Z"/>
          <path class="cls-1" d="m864.94,424.37c.05,0,.11,0,.15-.02-.1,0-.14,0-.15.02Z"/>
          <path class="cls-1" d="m738.97,380.86s-.02-.01-.03-.02c-.06,0-.12-.03-.17-.04l.2.06Z"/>
          <path class="cls-1" d="m712.85,362.14c1.61,1.36,2.93,2.47,4.11,3.46,1.16,1,2.19,1.88,3.22,2.77,2.07,1.76,4.21,3.51,7.94,5.8,3.45,2.35,7.33,4.56,10.82,6.67,2.04.38,4.58,2.77,6.9,3.35l.52.86c.8.2,1.68.53,2.23,1.15l-.11.09c1.2.29,2.23,1.15,2.82,1.3l-.11.1,1.26.68-.31.05c1.94.75,3.83,1.69,5.38,2.75l.15-.58c3.19,2.47,5.04,2.11,7.83,4.5l-.11.1c2.34.43,3.83,1.44,5.33,2.48,1.5,1.04,3.02,2.11,5.44,2.5-.6-.1.09.38-.01.48,2.01.81,4.11,1.75,4.63.74,1.4.71.99.88.99,1.37.21-.46,1.54-.09,2.66.39l-.6-.06,3.27,1.28-.24-1.14c1.58,1.01-.04,1.24,1.67,1.76l.3-.72c2.28,1.19,3.18,2.89,5.23,4.44,4.71,2.19,9.89,3.75,14.88,5.48,5.05,1.58,9.99,3.14,14.31,5.43l.21.7c-.1.9,2.94-.39,3.04.48l1.19-.03c.25.24.84.6.24.61.98.34,1.05.22,1.84.2l.9.84c3.8,1.6,7.38,1.78,11.49,3.06,2.35,1.21,5.95,2.22,9.65,3.04,3.71.79,7.56,1.2,10.35,1.57,1.99.13,3.99.57,6,1.16,2.03.53,4.07,1.17,6.13,1.83,2.06.66,4.13,1.31,6.19,1.8,1.03.24,2.06.47,3.1.58,1.04.11,2.07.16,3.1.13.24.16.96,0,.97-.11l7.29,1.23s.55.08,1.47.22c.92.14,2.2.32,3.66.43,2.93.25,6.56.47,9.35.37,5.63-.19,7.77-1.65-5.15-6.66l.2-.16c-1.95-.45-3.54-.76-5-.89-1.45-.17-2.77-.17-4.2.09-.26-1.21-3.21-.61-4.08-1.12l.1-.08c-2.54.51-4.82-1.46-7.25-1.06.1-.08.21-.36.74-.3-1.7-.16-4.03-.36-4.03-1.04-4.02-.62-9.52-1.92-12.29-1.46l.21-.14c-1.6.37-1.9-.33-3.59-.35-.07-.11-.17-.18-.15-.21-1.74.33-4.63-.96-5.97-.96l.02-.45-3.16-.63,1.15.37c-.71,1.1-2.19-1.28-4.63-1.16-2.06-.73-4.95,1.28-7,.1-1.21.26,1.18-.64-.51-.65.12-.63.84-.18.57-.79-1.62-.13-2.34-1.32-4.35-1.42l.06-.5c-2.72.15-4.42-2.07-6.3-1.74-2.64-.41-1.24-1.94-4.15-1.84l-.81-.96c-1.08-.46-1.06.53-2.2-.17.21-.38-1.46-.82-.61-.97-2.56-1.58-5.94-1.12-9.21-3.48-1.08.49-2.74-.63-3.55-.26.03-.37-3.66-1.38-1.32-1.37.2,0,.51.13.44.25l.42-.37c-1.75-1.59-3.91-1-5.9-1.93.54.39,1.36.68.7.77l-1.86-.82.54-.22-2.72-1.35.19.63c-1.28-.8-1.43-1.79-3.25-1.75-.86.09,1.04,1.16-.47.72-.85-.53-1.92-1.19-3.04-1.88-1.12-.71-2.3-1.43-3.42-2.01-.02.62-.63.32-1.31.15l.13-.49c-2.73-.47-.45-1.4-3.1-1.99l.36-.22-1.07.66c-2.6-.09-.75-1.47-3.75-1.34,1,.35,0,1.2-1.11.47l.51-.3c-.7-.2-1-.13-1.39-.43.5-.04.5-.53-.48-.93l.89-.23-2.17-.09c-1.16-1.15-3.64-1.65-3.9-2.54,0,0-2.82-1.77-3.84-1.44.81-.12-.75-1.08-.04-1.33-1.01.09-3.48-.65-4.1-1.66l.2.04c-3.03-2.29-6.01-2.38-8.64-4.6-.15.58-1.56-.55-1.53.31-.86-.26-1.59-.66-2.24-1.09-.64-.45-1.19-.95-1.71-1.36-1.04-.83-1.93-1.35-3.05-.68-1.43-.71-1.35-1.43-2-1.95l.39.09c-2.66-1.36-3.41-1.79-5.29-2.96-1.06-.38-1.79.46-3.31-.85.76,0,.04-.38-.58-.79.43.2.64.15-.03-.62-.18.04-.41-.01-.61-.06.01-.03,0-.08.03-.1-1.12-.55-1.01-.32-.56.04-.06.04-.06.13.02.33-.79-1.16-3.03-1.92-2.76-2.61-1.61-.94-3.07-1.62-4.48-2.24-1.41-.62-2.77-1.19-4.1-1.99-.07-.51.71-.36,1.52.04l-1.87-1.16c.32-.43,1.21.47,1.82.78-1.64-2.22-4.9-2.4-6.95-4.82l-.77-.02-.11-.16c-.12.19-.86.04-1.28-.17-.08-.63.65-.86-.6-1.71-.36-.53-1.09-.97-1.9-1.38-.8-.43-1.69-.82-2.39-1.2.63.58.25.62-.13.53-.61-.45-.68-1.09-1.27-1.29l.32-.55c-.12.66-1.96-.7-2.34-.66-.06-.63,1.18.4,1.54.23-2.45-1.81-1.23-.9-3.68-2.71-1.58-.61-.13.65-1.09.61-1.22-.78-2.61-1.29-3.68-2.59l.07.76c-2.39-1.35-3.57-2.47-4.63-4.06-9.23-4.69-11.08-4.26-10.6-2.55.49,1.69,3.33,4.6,3.33,4.6,2.71,3.05,5.12,4.96,7.84,6.76,2.77,1.74,5.82,3.42,9.75,6.16Z"/>
        </g>
        <g>
          <path class="cls-1" d="m951.93,426.63l.08.22c-.01-.11-.04-.2-.08-.22Z"/>
          <path class="cls-1" d="m966.59,424.82s0-.03,0-.05c0,.02,0,.04,0,.05Z"/>
          <path class="cls-1" d="m955.1,434.15s0,0,0,0c0,.02,0,.04,0,.06v-.06Z"/>
          <path class="cls-1" d="m952.07,433.87c.81.19,1.14,1.24,1.89.71.39.04.77-.25,1.13-.43.08-.86.49-.07.62-.8l.14.47c.04-.25.11-.42.21-.17v.14c.08-.37.23-.17.26-.36v.14s.14-.08.14-.08v.2c.15-.4.34-.45.53-.3l-.08-.57c.44.6.44-.61.86.12v.14c.25-1.57.8.96,1.06-.54-.03.19.06.29.07.43.18-.19.38-.3.25-1.43.15,0,.16.34.23.78-.06-.5.04-.72.15-.76l-.03.2.3-.21-.17-.93c.2.25.18,1.14.32.89l-.09-.78c.26.13.53,1.28.83,1.83,1,.22,1.79-1.88,2.84-.62l.11.58c.12.85.1-1.29.22-.51l.06-.4c.05.15.13.3.1.5.1.02.09-.12.12-.38l.17.52c.43.37.63-.69,1.05-.53.6,1.02,1.39-.07,1.84-.71.58-1.36,1.82,1.93,2.4.39.04.12.07-.16.06-.26l.7.04s3.34-.06,0-6.82v-.19c-.43-.41-.68-.48-.83.49-.18-1.14-.32-.08-.45-.44v-.09c-.13.91-.56-.68-.68.14,0-.09-.03-.41.01-.43-.14.16-.33.44-.42-.22-.36.22-.93-.03-1.05,1.07v-.19c-.06.73-.17.13-.29.51-.02-.09-.04-.13-.04-.17-.07.73-.43.16-.52.48l-.06-.44-.29.14.12.08c.1,1.22-.32-.74-.45.08-.22-.13-.12,2.58-.4,2.01-.03.58-.02-.94-.12-.48-.08-.63.02-.41-.07-.91-.11.32-.32-.62-.45-.17l-.07-.49c-.13.93-.53-.6-.59.28-.2.44-.34-1.45-.48-.45l-.18-.66c-.12-.1.02.83-.14.52-.04-.42-.19-.32-.17-.73-.35-.63-.45,1-.95-.07.02.83-.22.36-.21.98-.05-.36-.37-.01-.26-.81.01-.07.04-.06.06.08l-.03-.49c-.32-.89-.32.55-.54.43.08.15.16.1.14.44l-.2-.04v-.41s-.32-.21-.32-.21l.1.5c-.17-.24-.32-1.1-.39-.36-.02.41.21.67.08.84-.23-.32-.57-.81-.82-.93.09.57.02.55-.03.68l-.07-.49c-.17.72-.22-1.08-.41-.5l-.02-.35.06,1.04c-.11,1.01-.24-1.01-.34.36.09-.1.17,1.08.03.88l-.03-.48c-.06.11-.05.31-.11.22,0-.26-.06-.7-.15-.6v-.61s-.09.9-.09.9c-.21-.5-.36.17-.5-.49,0,0-.35-.29-.34.45,0-.47-.18-.62-.2-1.16-.02.53-.21.98-.37.44v-.06c-.41-.52-.5.84-.9.2.08.57-.12.28,0,1.01-.24.76-.77-1.42-.63.86-.14.14-.24-.51-.33-.62l.02-.12c-.26.22-.34.25-.55.22-.08.23.03,1.29-.19,1.06.01-.43-.06-.34-.13-.33.04-.07.03-.23-.09-.5,0,.13,0,.21-.02.28,0-.03-.01-.06-.01-.1-.1.16-.06.29,0,.34,0,.06.02.15.05.26-.18-.53-.33.08-.43-.64-.33.21-.49.98-.75,1.29-.08-.37-.05-.7.02-.86l-.19.16c-.06-.53.08-.32.13-.43-.35-.83-.4.92-.79.16v.43s-.04-.07-.04-.07c.03.22,0,.53-.04.61-.1-.46-.12-1.07-.26-1.02-.17-.43-.29.26-.41.53.09.07.09.33.08.5-.07.02-.16-.43-.2-.23l-.08-.63c.1.59-.11.66-.11.92-.1-.46.06-.41.04-.76-.28.09-.14.05-.42.14-.1.49.1.59.09,1.15-.12.14-.2.59-.4.23l.11.55c-.2.46-.36.41-.6-.13-1.35,4.75.33,6.23.33,6.23.89,1.14,1.08-.52,1.91-1.06Z"/>
        </g>
        <g>
          <path class="cls-1" d="m866.45,460.89l.89.38c0-.11-.22-.24-.89-.38Z"/>
          <path class="cls-1" d="m1100.69,479.73c.07-.03.15-.05.21-.09-.15.04-.2.07-.21.09Z"/>
          <path class="cls-1" d="m901.12,474.51s-.04,0-.05,0c-.08,0-.17.01-.25.02h.3Z"/>
          <path class="cls-1" d="m854.06,466.17c12.33,2.3,15.44,3.91,28.33,5.57,6.1,1.09,12.67,1.91,18.67,2.76,2.98-.37,7.85,1.27,11.33,1.12l1.22.69c1.2-.05,2.58.01,3.7.46l-.1.13c1.79-.08,3.7.46,4.59.42l-.1.13,2.11.28-.39.14c3.08.11,6.19.6,8.9,1.22l-.13-.61c5.75,1.6,8.09.75,13.26,2.37l-.09.13c6.93-.45,10.43,2.71,17.57,2.31-.89.05.33.35.23.48,3.21.33,6.64.7,6.85-.41,2.32.35,1.84.62,2.08,1.1.06-.5,2.1-.4,3.92-.2l-.86.08,5.23.52-.9-1.07c2.72.63.55,1.23,3.23,1.36l.07-.78c3.8.65,5.9,2.07,9.55,3.1,15.44,2.15,32.24,1.43,46.67,3.14l.63.61c.26.89,4.03-1.21,4.57-.42l1.69-.38c.47.16,1.47.33.63.51,1.56.04,1.6-.1,2.73-.35.56.18,1.12.37,1.68.53,3.09.15,5.95-.06,8.83-.3,2.89-.31,5.81-.66,9.06-.71,3.92.25,9.56-.09,15.22-.92,5.66-.82,11.34-2,15.45-2.96,5.76-1.53,12.13-2.17,18.55-2.94,6.42-.77,12.85-1.71,18.58-3.82.41.03,1.34-.47,1.31-.57,3.6-.82,7.19-1.65,10.78-2.52,0,0,3.26-.79,7.48-1.97,4.23-1.17,9.42-2.73,13.32-4.18,7.8-2.92,10.46-5.35-10.05-3.61l.22-.25c-5.94,1.09-9.63,1.92-13.42,3.84-.91-.95-4.82,1.07-6.28,1.04l.11-.12c-3.36,1.73-7.5,1.05-10.76,2.59.11-.12.12-.45.9-.64-2.47.72-5.85,1.73-6.18,1.1-5.95,1.51-14.38,2.83-18.06,4.53l.23-.23c-2.08,1.09-2.83.63-5.24,1.38-.15-.07-.33-.08-.31-.12-1.15.54-2.9.86-4.6,1.09-1.71.22-3.36.38-4.31.67l-.19-.42c-1.59.28-3.19.48-4.79.72l1.81-.13c-.48,1.27-3.73-.27-7.13.85-3.27.22-6.42,3.13-9.91,2.8-1.59.7,1.37-1.04-1.04-.41-.12-.63,1.11-.49.45-.95-2.37.51-3.96-.41-6.88.17l-.14-.49c-3.81,1.13-7.27-.39-9.81.53-3.97.48-2.67-1.39-6.8-.45l-1.6-.68c-1.76-.12-1.27.82-3.23.48.12-.42-2.47-.36-1.32-.75-4.4-.81-9.03.73-14.81-.74-1.31.75-4.22.13-5.21.66-.13-.37-5.88-.48-2.53-1.02.29-.04.79,0,.74.14l.43-.46c-3.25-1.17-6.07.11-9.35-.36.96.25,2.26.32,1.37.58l-3.05-.34.67-.35-4.53-.65.58.56c-2.2-.45-2.9-1.43-5.48-.96-1.18.28,2.04.91-.33.82-1.47-.32-3.31-.72-5.24-1.15-1.94-.43-3.98-.84-5.87-1.15.29.61-.73.47-1.8.46l-.06-.51c-4.11.19-1.34-1.27-5.4-1.25l.4-.3-1.19.89c-3.74.49-1.8-1.27-5.99-.49,1.59.14.6,1.19-1.33.7l.56-.41c-1.09-.05-1.48.09-2.19-.11.68-.17.44-.64-1.16-.79l1.15-.44-3.12.45c-2.24-.83-6-.76-6.85-1.57,0,0-4.92-1.07-6.18-.53,1.07-.3-1.65-.9-.78-1.32-1.37.31-5.24.14-6.68-.65l.3-.02c-5.55-1.47-9.76-.78-14.71-2.29.14.61-2.48-.14-1.94.7-5.35-.13-9.31-3.04-11.57-1.1-2.4-.27-2.74-.99-3.95-1.31l.59-.03c-4.5-.55-5.79-.74-9.1-1.33-1.69-.05-2.12.95-5.05.21,1.03-.26-.2-.38-1.31-.56.72.05.96-.07-.45-.58-.23.1-.56.12-.86.14,0-.03-.06-.07-.02-.11-1.88-.16-1.58.03-.72.22-.05.06,0,.15.25.31-1.83-.85-5.36-.84-5.48-1.59-5.6-.75-9.7-.66-14.38-1.14-.46-.45.68-.6,2.04-.52l-3.31-.4c.11-.52,1.94,0,2.97.06-3.77-1.5-8.21-.47-12.67-2l-1.02.26-.26-.11c-.02.22-1.1.36-1.79.32-.57-.57.22-1.06-2.06-1.4-1.72-.74-5.14-.61-7.54-.75,1.26.29.8.47.23.55-1.14-.17-1.72-.74-2.63-.68v-.64c.34.66-3.08.15-3.54.33-.57-.57,1.83-.11,2.17-.41-4.57-.69-2.28-.34-6.85-1.03-2.51.07.35.66-.91,1.02-2.17-.23-4.33-.14-6.73-.92l.69.68c-4.1-.23-6.5-.69-9.13-1.69-30.78-.42-7.33,5.11-7.33,5.11,11.63,3.16,17.99,2.55,32.14,4.42Z"/>
        </g>
        <g>
          <path class="cls-1" d="m223.73,115.55l.22.17c-.04-.1-.1-.18-.22-.17Z"/>
          <path class="cls-1" d="m262.63,110s.03-.03.04-.05c-.03.02-.04.03-.04.05Z"/>
          <path class="cls-1" d="m231.58,121.37h0s-.01.04-.02.07l.03-.07Z"/>
          <path class="cls-1" d="m224.32,122.96c1.94-.38,2.76.53,4.53-.51.94-.18,1.85-.69,2.72-1.08.21-.95,1.19-.32,1.53-1.13l.32.42c.12-.28.29-.49.53-.28l.02.14c.18-.42.53-.28.62-.49l.02.14.31-.14v.21c.36-.5.84-.61,1.3-.53l-.16-.56c1.04.44,1.13-.8,2.1-.22l.02.14c.75-1.73,1.83.73,2.64-.9-.1.2.11.28.12.43.47-.25.98-.43.81-1.56.37-.05.35.3.47.73-.08-.49.21-.74.49-.81l-.1.21.79-.28-.3-.91c.48.21.27,1.12.66.84l-.11-.77c.63.07,1.14,1.19,1.78,1.68,1.22.02,2.41-.51,3.62-.93,1.21-.38,2.42-.61,3.58,0l.13.58c.09.85.55-1.29.68-.5l.24-.4c.08.15.24.31.12.51.24.02.24-.12.41-.38l.28.52c.96.39,1.74-.7,2.76-.48.61.54,1.47.56,2.35.38.88-.18,1.79-.53,2.45-.8.95-.62,1.94-.04,2.9.55.97.59,1.92,1.11,2.92.49.05.13.23-.13.24-.23l1.7.3s.52.06,1.21.08c.69.02,1.55-.05,2.25-.36,1.38-.62,2.27-2.21-.57-6.19l.07-.18c-.94-.6-1.57-.78-2.36.1.02-1.16-.81-.2-1-.6l.03-.09c-.7.82-1.19-.87-1.86-.13.03-.09.07-.41.21-.41-.45.11-1.06.33-1.04-.34-1.05.11-2.48-.31-3.19.73l.05-.18c-.41.71-.49.09-.93.44-.02-.09-.05-.13-.04-.17-.44.7-1.2.07-1.54.36v-.45s-.83.08-.83.08l.3.11c-.13,1.22-.6-.79-1.21,0-.56-.15-1.12,2.55-1.68,1.95-.27.57.23-.93-.17-.49-.02-.64.19-.4.08-.91-.4.3-.66-.65-1.15-.22l-.03-.5c-.63.92-1.24-.61-1.64.26-.65.43-.5-1.46-1.16-.46l-.3-.66c-.3-.1-.18.83-.52.52,0-.42-.44-.32-.26-.73-.79-.62-1.46,1.04-2.53,0-.15.84-.69.38-.8,1.01-.06-.36-1,.01-.51-.8.04-.07.13-.06.13.08l.03-.49c-.65-.88-.98.61-1.55.52.18.14.4.08.28.43h-.52s.07-.43.07-.43l-.8-.16.16.5c-.4-.22-.64-1.07-.98-.3-.15.42.43.64.06.84-.54-.3-1.36-.72-2.02-.78.14.56-.04.56-.2.7l-.09-.49c-.59.78-.4-1.05-1.01-.41v-.35s-.02,1.06-.02,1.06c-.46,1.06-.48-.98-.96.45.25-.12.29,1.07-.07.9v-.49c-.16.12-.19.33-.32.26.07-.27-.05-.7-.31-.57l.08-.63-.36.96c-.47-.44-.98.3-1.26-.34,0,0-.9-.18-.96.58.08-.48-.41-.57-.38-1.13-.12.55-.68,1.08-1.04.6l.04-.07c-1.06-.36-1.46,1.1-2.45.61.16.56-.35.34-.08,1.04-.71.88-1.93-1.09-1.71,1.2-.36.22-.59-.41-.82-.47l.06-.14c-.69.36-.9.44-1.46.52-.22.28.01,1.31-.53,1.2.05-.45-.13-.32-.31-.27.1-.1.09-.26-.22-.46,0,.14-.03.23-.06.31-.01-.03-.03-.05-.03-.1-.26.23-.17.34-.02.36.01.06.04.14.12.24-.46-.44-.86.28-1.09-.4-.86.43-1.3,1.3-1.95,1.82-.19-.33-.12-.7.06-.91l-.49.3c-.15-.51.21-.39.34-.55-.89-.62-1.04,1.24-2.02.72l-.02.45-.07-.05c.07.21,0,.56-.08.66-.25-.41-.33-1.02-.69-.88-.44-.34-.75.48-1.04.86.23,0,.25.27.21.46-.17.08-.43-.32-.5-.08l-.23-.59c.27.53-.26.77-.23,1.04-.26-.4.14-.48.07-.83-.7.32-.35.16-1.05.47-.22.58.28.53.28,1.12-.29.24-.47.77-.99.55l.32.48c-.47.64-.85.74-1.48.38-1.46,3.04-1.05,4.56-.35,5.33.71.78,1.72.82,1.72.82,1.09.23,1.69-.12,2.27-.68.59-.54,1.16-1.29,2.13-1.88Z"/>
        </g>
        <g>
          <path class="cls-1" d="m435.53,89.96l.43.72c.06-.09-.02-.29-.43-.72Z"/>
          <path class="cls-1" d="m574.36,236.05c.06.03.11.08.17.1-.1-.09-.14-.11-.17-.1Z"/>
          <path class="cls-1" d="m451.84,117.38s-.02-.02-.03-.03c-.06-.03-.13-.08-.19-.11l.21.14Z"/>
          <path class="cls-1" d="m423.55,88.87c3.85,3.53,6.04,6.05,8.31,8.54,2.27,2.5,4.6,4.99,8.61,8.71,3.61,3.77,7.68,7.62,11.34,11.23,2.3,1.17,4.69,4.85,7.21,6.44l.43,1.14c.87.55,1.79,1.28,2.3,2.18l-.14.05c1.29.82,2.3,2.18,2.94,2.59l-.14.05,1.29,1.26-.36-.09c2.07,1.6,3.94,3.51,5.44,5.34l.28-.54c3.01,4.09,5.15,4.59,7.73,8.41l-.14.05c5.08,3.09,5.5,7.29,10.64,10.58-.64-.41,0,.43-.14.49,2,1.86,4.07,3.91,4.92,3.16,1.35,1.45.85,1.42.71,1.91.35-.35,1.69.76,2.78,1.86l-.63-.39,3.18,3.11.08-1.28c1.42,1.9-.42,1.23,1.29,2.71l.55-.56c2.13,2.47,2.58,4.68,4.32,7.37,8.76,9.76,19.84,18.7,27.16,28.56l-.06.79c-.47.76,3.22,1.6,2.96,2.48l1.25.77c.16.4.61,1.12-.01.74.87.98.99.91,1.83,1.43l.57,1.39c3.23,4.07,6.97,6.61,10.52,10.75,3.65,5.54,12.73,13.92,17.96,18.77,7.7,6.49,13,17.36,20.96,23.93.13.33.92.78.98.71l6.19,7.01s7.55,8.45,12.85,13.14c5.31,4.68,8.4,5.58-.51-9.61l.29.05c-3.09-4.11-5.19-6.56-8.26-8.55.48-1.19-2.74-3.2-3.27-4.34l.15.02c-2.76-1.72-3.79-5.26-6.4-6.95.15.02.42-.14.9.36-1.59-1.53-3.79-3.57-3.41-4.15-3.66-3.75-8.37-9.36-11.43-11.12l.29.04c-1.83-.92-1.75-1.75-3.47-3.08-.01-.15-.08-.29-.04-.29-1.94-1.05-4.2-4.41-5.56-5.44l.25-.38-2.89-2.99.98,1.21c-1.27.43-1.56-2.83-4.19-4.51-1.8-2.18-5.74-2.48-7.29-5.03-1.37-.63,1.52.27-.22-.96.42-.48.96.44.96-.3-1.61-1.3-1.8-2.91-3.84-4.47l.29-.41c-2.91-1.8-3.75-5.01-5.87-6.03-2.62-2.21-.47-2.67-3.59-4.6l-.44-1.47c-.95-1.18-1.34-.23-2.25-1.68.38-.21-1.2-1.78-.23-1.34-2.1-3.24-5.95-5-8.55-9.43-1.35-.23-2.71-2.41-3.71-2.58.17-.35-3.41-3.72-.91-2.19.21.13.5.46.38.53l.59-.09c-1.28-2.71-3.92-3.44-5.75-5.6.45.72,1.25,1.51.49,1.19l-1.75-1.96.67.12-2.5-3.02v.74c-1.12-1.58-.95-2.66-2.96-3.73-.96-.43.74,1.79-.76.43-1.5-2.1-3.75-5.25-5.88-7.73-.21.62-.8-.04-1.5-.62l.29-.42c-2.88-2.04-.08-1.68-2.84-3.8l.46-.02-1.38.06c-2.85-1.58-.4-1.93-3.75-3.5,1,.93-.36,1.22-1.35-.15l.64-.02c-.71-.6-1.07-.69-1.42-1.21.57.22.71-.27-.29-1.2l1.07.25-2.42-1.27c-1-1.8-3.65-3.64-3.72-4.7,0,0-2.71-3.34-3.93-3.54.93.31-.57-1.53.28-1.41-1.14-.45-3.71-2.53-4.22-3.86l.22.14c-2.95-3.91-6.3-5.47-8.81-9.1-.28.54-1.65-1.34-1.79-.41-3.65-2.75-4.61-6.97-7.38-6.57-1.51-1.39-1.3-2.13-1.95-2.97l.43.27c-2.8-2.64-3.59-3.43-5.53-5.52-1.15-.87-2.07-.3-3.66-2.31.88.3.1-.4-.57-1.08.47.39.71.42.05-.68-.22-.04-.46-.18-.69-.31.02-.03,0-.08.05-.1-1.22-1.04-1.12-.75-.64-.18-.07.02-.09.12-.01.37-.76-1.57-3.23-3.29-2.86-3.94-3.47-3.33-6.41-5.26-9.45-7.89-.06-.58.84-.15,1.77.57l-2.11-1.91c.39-.36,1.37.94,2.07,1.48-1.78-3.02-5.57-4.3-7.91-7.62l-.89-.26-.13-.21c-.15.17-1.01-.21-1.49-.56-.09-.72.76-.76-.71-2.08-.85-1.39-3.45-2.82-5.16-3.97.79.78.34.74-.12.56-.76-.63-.88-1.36-1.59-1.7l.34-.54c-.08.7-2.38-1.19-2.84-1.21-.14-.72,1.45.66,1.86.56-3.11-2.48-1.53-1.26-4.67-3.71-1.96-.94-.07.7-1.21.51-.77-.53-1.58-.98-2.38-1.51-.81-.51-1.62-1.08-2.36-1.87l.21.85c-1.52-.88-2.71-1.6-3.72-2.34-1.01-.74-1.82-1.52-2.66-2.38-3.02-1.33-5.46-2.15-7.34-2.72-1.9-.52-3.26-.76-4.19-.83-1.87-.12-2.07.51-1.47,1.39.56.88,1.86,2,3.01,2.9,1.14.93,2.13,1.66,2.13,1.66,3.85,3.06,6.94,5.07,10.31,7.18,3.38,2.09,7.02,4.31,11.66,8.03Z"/>
        </g>
      </g>
    </g>
  </g>
</svg>