<?xml version="1.0" encoding="UTF-8"?>
<svg id="Layer_2" data-name="Layer 2" xmlns="http://www.w3.org/2000/svg" viewBox="0 0 1403.55 619.82">
  <defs>
    <style>
      .cls-1 {
        fill: #b02062;
      }

      .cls-1, .cls-2 {
        stroke-width: 0px;
      }

      .cls-2 {
        fill: #d11b47;
      }

      .cls-3 {
        fill: none;
        stroke: #a4004b;
        stroke-miterlimit: 10;
        stroke-width: 2.83px;
      }
    </style>
  </defs>
  <g id="Road_3" data-name="Road 3">
    <g id="Road_2" data-name="Road 2">
      <g>
        <g>
          <path class="cls-2" d="m1.74,605.55s200.22,88.59,281.45-199.49c81.23-288.08,189.93-321.1,480.97-209.48,214.31,82.19,614.94,145.14,614.94,145.14l22.83-149.11s-204.88-24.96-407.89-77.6C836,74.03,675.64,3.58,579.69,1.61,216.53-5.84,202.08,207.5,172.51,322.71c-46.98,183.02-129.26,152.98-129.26,152.98L1.74,605.55Z"/>
          <path class="cls-3" d="m1.74,605.55s200.22,88.59,281.45-199.49c81.23-288.08,189.93-321.1,480.97-209.48,214.31,82.19,614.94,145.14,614.94,145.14l22.83-149.11s-204.88-24.96-407.89-77.6C836,74.03,675.64,3.58,579.69,1.61,216.53-5.84,202.08,207.5,172.51,322.71c-46.98,183.02-129.26,152.98-129.26,152.98L1.74,605.55Z"/>
        </g>
        <g>
          <path class="cls-1" d="m407.68,113.13l.48-.03c-.06-.09-.2-.11-.48.03Z"/>
          <path class="cls-1" d="m509.96,88.02s.07-.03.1-.06c-.07.02-.09.04-.1.06Z"/>
          <path class="cls-1" d="m425.44,112.45h-.02s-.05.07-.07.11l.09-.11Z"/>
          <path class="cls-1" d="m407.55,121.89c2.19-1.5,3.87-2,5.42-2.71.79-.34,1.55-.71,2.41-1.19.89-.43,1.86-.97,3.01-1.72,2.31-1.25,4.77-2.59,7.03-3.81.74-1.34,3.11-1.34,4.18-2.55l.7.23c.37-.41.86-.79,1.42-.74l.02.14c.56-.64,1.44-.71,1.73-1l.02.14.84-.36-.08.24c1.11-.79,2.38-1.27,3.56-1.5l-.28-.52c2.61-.22,3.18-1.57,5.61-1.52v.14c.6-.58,1.19-.89,1.79-1.07.6-.16,1.2-.17,1.8-.19,1.21-.03,2.41-.06,3.7-1.14-.32.27.23.25.23.39,1.3-.53,2.75-.89,2.51-2.02,1-.21.89.17,1.12.57-.12-.49.71-.88,1.48-1.08l-.32.27,2.2-.66-.63-.83c1.25,0,.53,1.04,1.63.6l-.17-.76c1.69-.16,2.88.81,4.58,1.08,6.65-.88,13.58-3.91,20.04-3.22l.34.55c.21.84,1.58-1.46,1.91-.7l.69-.46c.22.13.67.25.33.48.68-.03.68-.18,1.14-.48l.78.46c2.7.14,4.87-1.11,7.71-1.14,3.47.78,9.76-.7,13.4-1.52,5.1-1.63,11.3,1.45,16.52-.24.18.11.61-.18.6-.28l4.85-.07s5.88-.12,9.51-.99c3.62-.87,5.06-2.62-4.04-5.96l.12-.19c-2.69-.38-4.39-.42-6.2.58-.33-1.14-2.21-.04-2.85-.38l.06-.1c-1.6.95-3.4-.6-4.94.27.06-.09.08-.41.44-.45-1.14.2-2.7.53-2.82-.13-2.73.31-6.58.22-8.27,1.4l.11-.19c-.96.78-1.29.19-2.38.63-.07-.08-.15-.12-.14-.16-1.04.78-3.17.32-4.03.69l-.09-.44-2.16.26.82.03c-.19,1.24-1.7-.64-3.21.27-1.48-.03-2.77,2.77-4.34,2.31-.68.63.56-.98-.49-.45-.09-.63.47-.44.15-.93-1.04.39-1.81-.5-3.09.05l-.1-.49c-1.63,1.05-3.31-.34-4.37.63-1.73.58-1.34-1.35-3.09-.2l-.79-.6c-.8-.03-.48.88-1.39.66,0-.43-1.15-.21-.68-.67-2.07-.41-3.92,1.38-6.68.63-.46.9-1.84.59-2.18,1.26-.12-.35-2.65.31-1.28-.67.12-.08.34-.1.35.04l.11-.51c-1.63-.7-2.65.86-4.14.97.46.09,1.04-.05.7.35l-1.38.16.22-.45-2.08.09.36.46c-1.04-.1-1.54-.89-2.55,0-.44.48,1.06.52.04.85-1.39-.13-3.48-.24-5.22-.07.27.53-.19.6-.64.8l-.15-.48c-1.67,1.03-.88-.96-2.56-.05l.09-.38-.26,1.12c-1.4,1.32-1.09-.82-2.59.9.69-.24.57,1-.34.98l.11-.52c-.46.21-.57.44-.92.41.23-.32,0-.72-.69-.48l.34-.69-1.14,1.16c-1.16-.29-2.62.8-3.21.24,0,0-2.3.25-2.61,1.1.33-.56-.94-.41-.74-1.03-.22.33-.72.7-1.27.95-.55.27-1.14.42-1.56.25l.11-.1c-2.66.23-4.04,1.98-6.46,2.1.28.51-.98.62-.46,1.22-2.02,1.49-4.67.03-4.68,2.48-.97.52-1.39-.01-1.96.09l.2-.21c-1.84.95-2.38,1.19-3.81,1.72-.62.49-.31,1.5-1.64,1.85.23-.57-.25-.26-.71-.05.27-.2.3-.38-.43-.36-.03.16-.13.29-.23.41-.02-.03-.05-.04-.06-.09-.71.5-.52.55-.14.44,0,.07.07.13.23.18-1.03-.12-2.21,1.08-2.62.47-.56.31-1.07.62-1.53.97-.45.36-.87.72-1.27,1.07-.8.71-1.55,1.41-2.41,2.04-.39-.21-.12-.74.36-1.16l-1.26.84c-.25-.47.61-.68.97-1-1,.05-1.72.68-2.46,1.35-.71.71-1.44,1.44-2.54,1.67l-.15.59h-.14c.12.19-.11.7-.34.93-.5-.23-.56-.92-1.44-.33-.47.04-.95.38-1.38.86-.42.49-.82,1.06-1.19,1.48.52-.28.51.04.41.33-.41.32-.93.12-1.14.52l-.41-.48c.51.36-.73,1.32-.73,1.64-.52-.2.42-.8.31-1.16-1.67,1.29-.83.64-2.5,1.93-.56,1.1.52.34.46,1.12-.68.73-1.12,1.68-2.22,2.11l.63.2c-1.11,1.52-2,2.13-3.29,2.55-1.66,3.23-2.27,5.18-2.32,6.34-.04,1.17.47,1.58,1.16,1.56,1.39.02,3.46-1.44,3.46-1.44,1.12-.64,1.95-1.35,2.73-2.02.8-.65,1.48-1.36,2.15-2.12.68-.76,1.32-1.61,2.11-2.49.82-.84,1.76-1.74,2.92-2.72Z"/>
        </g>
        <g>
          <path class="cls-1" d="m575.92,80.58l.17.17c-.06-.09-.12-.16-.17-.17Z"/>
          <path class="cls-1" d="m590.82,79.93s.02-.02.04-.04c-.02.01-.03.03-.04.04Z"/>
          <path class="cls-1" d="m580.97,86.79h0s0,.04.02.06v-.06Z"/>
          <path class="cls-1" d="m579.35,86.94c.5,0,1.12.93,1.22.35.21.01.28-.29.4-.5-.23-.84.23-.09.11-.8l.2.44c-.04-.24-.04-.41.07-.18l.04.13c-.05-.36.07-.18.05-.36l.04.14.05-.08.04.2c-.01-.41.1-.45.24-.3l-.15-.56c.35.59.18-.61.53.1l.02.14c0-1.57.53.98.58-.5-.01.18.05.3.06.44.1-.18.21-.28.12-1.42.1,0,.11.35.15.78-.04-.5.03-.71.1-.74l-.02.19.21-.18-.09-.94c.14.27.08,1.15.18.92l-.03-.78c.18.15.3,1.33.43,1.9.28.17.58-.21.93-.49.33-.25.69-.34.83.37l-.09.58c-.16.84.39-1.21.25-.43l.15-.37c-.02.15-.02.32-.09.5.05.05.08-.09.18-.33l-.07.53c.1.46.57-.51.73-.22-.08,1.12.69.33,1.25-.02.5-.49.5.12.42.68-.06.57-.16,1.04.41.58-.06.11.13-.09.19-.17l.23.33s.26.34,1.06,0c.4-.18.95-.51,1.65-1.18.68-.68,1.53-1.69,2.26-3.46l.14-.12c.01-.63-.15-.9-.97-.34.69-.92-.19-.3-.04-.65l.06-.07c-.73.56.01-.92-.65-.42.06-.07.24-.33.3-.31-.24.02-.58.11-.23-.46-.47-.08-.86-.69-1.6.14l.1-.16c-.47.57-.23,0-.54.26.03-.08.04-.13.06-.16-.46.57-.47-.1-.72.12l.17-.41-.34-.04.07.14c-.51,1.11.07-.81-.45-.15-.17-.22-1.28,2.24-1.25,1.62-.27.51.38-.85.1-.48.2-.61.19-.36.32-.85-.23.24-.04-.7-.35-.36l.14-.48c-.49.8-.29-.75-.68.04-.35.34.18-1.48-.32-.6l.04-.68c-.1-.14-.26.79-.32.44.1-.41-.1-.37.06-.75-.2-.71-.78.83-1.01-.34-.2.8-.34.29-.48.89.03-.36-.39-.11-.08-.86.03-.06.06-.04.04.1l.08-.48c-.15-.95-.49.47-.7.31.06.17.15.13.06.46l-.21-.08.07-.41-.31-.26.02.51c-.14-.27-.17-1.14-.37-.43-.09.4.12.69-.04.84-.19-.37-.5-.89-.78-1.03.03.57-.04.55-.11.67l-.02-.5c-.27.7-.14-1.09-.42-.53v-.35s-.02,1.04-.02,1.04c-.2.99-.2-1.03-.4.33.1-.09.13,1.09-.02.88v-.48c-.07.1-.08.31-.13.21.02-.26-.03-.7-.14-.6l.02-.61-.13.91c-.21-.49-.4.18-.54-.48,0,0-.4-.28-.37.46,0-.47-.22-.61-.25-1.16-.02.53-.21.98-.42.46v-.07c-.52-.47-.52.91-1.03.32.15.56-.11.29.12,1-.15.77-1.07-1.25-.53.97-.11.17-.34-.45-.46-.54v-.13c-.24.27-.31.32-.54.35-.03.25.33,1.24.06,1.08-.1-.42-.14-.31-.21-.28.02-.08-.02-.23-.22-.45.04.13.05.21.05.28-.01-.03-.02-.05-.04-.1-.06.19.01.3.09.33.02.06.06.13.12.24-.33-.45-.31.17-.61-.48-.28.32-.2,1.08-.32,1.47-.2-.31-.29-.64-.28-.81l-.13.23c-.25-.47-.03-.34-.02-.46-.65-.63-.06,1.03-.72.49l.16.4-.05-.05c.12.19.22.49.22.57-.28-.38-.56-.92-.68-.82-.35-.32-.18.38-.16.68.11.02.23.25.3.4-.05.06-.35-.3-.28-.1l-.37-.51c.36.47.21.64.34.87-.31-.35-.14-.39-.33-.69-.22.23-.11.12-.32.35.16.47.38.46.66.94-.03.18.14.59-.22.39l.39.4c.09.49-.03.53-.53.21.44,1.15.98,1.95,1.48,2.57.51.62.97,1.06,1.36,1.36.77.63,1.18.83,1.18.83.54.34.53.21.43-.12-.09-.31-.28-.8-.22-1.12Z"/>
        </g>
        <g>
          <path class="cls-1" d="m267.86,277.45l-.26-.02c.09.06.19.08.26.02Z"/>
          <path class="cls-1" d="m250.4,300.76s.02.03.03.05c0-.02-.02-.04-.03-.05Z"/>
          <path class="cls-1" d="m258.89,276.65h0s-.02-.04-.03-.06l.03.06Z"/>
          <path class="cls-1" d="m262.45,272.5c-.96,1.07-2.1.77-2.52,2.22-.49.52-.73,1.28-1.03,1.92.49.78-.55.75-.23,1.49l-.48-.17c.11.26.14.49-.15.44l-.1-.09c.16.39-.15.44-.07.63l-.1-.09-.11.24-.13-.16c.08.52-.14.83-.49.98l.47.34c-.96.14-.19,1.11-1.19,1.12l-.1-.1c.67,1.61-1.64.34-1.07,1.92-.07-.2-.26-.16-.36-.25-.13.41-.33.79.54,1.52-.2.21-.42-.05-.78-.3.38.32.38.65.26.84l-.08-.2-.29.61.8.51c-.43.09-.94-.67-.97-.27l.6.5c-.42.27-1.51-.28-2.25-.29-1.51,1.29-1.27,4.16-3.48,4.78l-.52-.29c-.71-.49.7,1.17.03.75l.19.41c-.16-.04-.37-.04-.46-.24-.15.14-.04.23.09.5l-.56-.14c-.8.42-.38,1.54-1.02,2.13-1.47.25-1.72,2.44-1.73,3.71.17.99-.71,1.45-1.53,2.03-.81.57-1.71,1.17-1.31,2.26-.13,0,.07.24.16.28l-.65,1.39s-.04.11-.11.29c-.06.18-.15.44-.18.75-.08.62-.11,1.4.14,2.05.25.65.76,1.14,1.73,1.25.97.12,2.4-.16,4.4-.77l.17.08c.3-.26.5-.47.53-.71.05-.24-.07-.5-.43-.88,1.11.32.3-.47.71-.49l.08.05c-.68-.71.96-.5.38-1.16.08.05.36.18.34.27-.01-.31-.07-.77.55-.51.15-.68.78-1.39.08-2.28l.15.11c-.51-.57.07-.34-.11-.77.08.03.13.03.16.05-.48-.6.31-.77.16-1.12l.39.22.19-.54-.19.13c-1.01-.71.88.04.43-.72.34-.23-1.7-2.05-.96-2.08-.37-.49.68.67.47.17.53.35.26.34.72.56-.09-.41.79-.02.63-.56l.42.27c-.47-.9,1.04-.32.52-1.07-.05-.63,1.38.62.88-.36l.65.25c.21-.1-.57-.62-.18-.61.33.27.45-.03.69.32.85-.01-.08-1.43,1.23-1.29-.55-.63.05-.6-.37-1.08.29.21.5-.52.85.28.03.07-.02.11-.13.02l.35.34c.97.27.07-.89.44-1.11-.2-.01-.27.14-.46-.15l.29-.25.27.32.54-.28-.44-.26c.38-.04,1.1.43.74-.26-.22-.36-.69-.24-.63-.56.49-.06,1.26-.15,1.68-.41-.47-.33-.37-.42-.38-.59l.39.31c-.21-.83.96.56.85-.17l.24.26-.71-.77c-.47-.98.95.48.23-.77-.06.21-.9-.63-.58-.68l.33.36c0-.17-.11-.33.02-.34.15.23.51.48.57.28l.37.49-.43-.86c.58.11.39-.66.98-.32,0,0,.66-.27.18-.86.27.39.63.24.98.66-.3-.46-.32-1.1.24-.9l.02.07c.9-.2.19-1.46,1.13-1.53-.47-.34,0-.41-.63-.81-.15-.97,1.95-.04.3-1.64.09-.32.65.04.84-.01l.05.13c.21-.57.29-.72.6-1.03-.05-.3-.87-.97-.44-1.13.26.35.29.18.38.06,0,.11.11.23.45.24-.09-.1-.13-.18-.16-.25.03.02.05.03.09.06.02-.29-.11-.33-.22-.27-.05-.04-.12-.08-.24-.13.59.12.38-.59.98-.19.29-.7,0-1.53.09-2.2.35.15.54.46.56.69l.12-.44c.44.3.12.38.13.56,1.01.05-.14-1.37.86-1.45l-.29-.33h.08c-.19-.11-.37-.39-.39-.5.44.18.91.58,1.05.31.52.04.17-.69.11-1.1-.15.11-.35-.07-.45-.22.06-.14.51.02.39-.18l.55.31c-.54-.25-.36-.67-.55-.84.45.16.23.4.52.61.25-.56.12-.28.38-.84-.26-.51-.55-.24-.96-.64.03-.3-.22-.74.27-.84l-.54-.17c-.14-.66.03-.91.69-.97-.61-1.37-1.27-2.21-1.9-2.74-.63-.53-1.23-.77-1.73-.84-1.01-.16-1.67.23-1.67.23-.84.31-.93.77-.89,1.37.01.59.19,1.33-.02,2.13Z"/>
        </g>
        <g>
          <path class="cls-1" d="m772.11,141.43l.18.36c.05-.1.02-.22-.18-.36Z"/>
          <path class="cls-1" d="m848.1,168.31s.06-.01.09-.03c-.06,0-.08.01-.09.03Z"/>
          <path class="cls-1" d="m779.94,154.27h-.02s-.07,0-.11,0h.12Z"/>
          <path class="cls-1" d="m765.35,146.04c3.56,2.11,3.95,3.65,8.22,5.43,1.89,1.13,4.22,1.99,6.35,2.78.68-.18,1.38.09,2.1.39.71.31,1.52.57,2.24.45l.34.62c.5-.08,1.08-.13,1.46.25l-.06.13c.76-.18,1.47.23,1.84.11l-.06.13.84.1-.18.17c1.25-.16,2.42-.03,3.41.26l-.02-.59c2.07.88,2.93-.27,4.63.68l-.04.14c1.19-.65,2.02-.28,2.79.12.79.41,1.47.82,2.65.39-.3.11.03.32-.03.45.96.09,1.98.35,2.38-.71.7.26.45.54.39.99.17-.47.85-.44,1.42-.24l-.33.08c.54.15,1.09.33,1.64.5l.06-1c.74.62-.25,1.15.66,1.3l.31-.72c1.12.67,1.3,2.07,2.2,3.14,4.74,2.64,10.86,3.15,15,6.27v.63c-.23.84,1.75-.66,1.64.14l.69-.16c.1.2.36.48.02.55.49.22.56.1,1.01,0l.35.71c1.86,1.14,3.92.8,5.98,1.73,2.19,1.95,7.39,2.54,10.34,2.81,4.27-.07,8.03,4.46,12.51,4,.11.15.51-.04.53-.13,1.24.34,2.49.66,3.74.96,0,0,1.14.28,2.66.5,1.52.22,3.41.42,4.91.26,3.02-.29,4.28-1.75-1.86-6.51l.13-.16c-1.93-.84-3.16-1.19-4.74-.58.03-1.18-1.62-.46-2.01-.94l.06-.08c-1.42.58-2.34-1.29-3.69-.81.07-.08.17-.38.44-.33-.88-.07-2.11-.12-2.01-.78-2.08-.33-4.8-1.4-6.38-.74l.14-.15c-.93.48-.98-.17-1.91-.06-.02-.1-.07-.16-.05-.19-1.01.46-2.37-.59-3.1-.5l.09-.44-1.62-.39.57.27c-.58,1.11-.97-1.11-2.36-.73-1.02-.49-2.99,1.71-3.92.75-.72.36.77-.72-.17-.58.18-.61.5-.25.46-.8-.88.02-1.06-1.05-2.16-.98l.13-.48c-1.55.4-2.12-1.46-3.24-.95-1.42-.1-.33-1.71-2-1.3l-.27-.82c-.52-.32-.7.61-1.21.07.19-.38-.66-.63-.15-.86-1.15-1.18-3.22-.26-4.62-2.08-.72.59-1.45-.25-2,.19.09-.34-1.82-.86-.48-1.12.11-.02.27.06.2.18l.32-.39c-.67-1.3-2.09-.37-3.06-.95.24.28.66.42.25.61l-.93-.49.37-.29-1.31-.87-.02.55c-.58-.56-.46-1.46-1.54-1.16-.52.2.37.92-.43.73-.78-.74-1.94-1.88-3.11-2.6-.13.57-.45.4-.84.35l.17-.47c-1.62.02-.03-1.22-1.61-1.32l.26-.27-.78.8c-1.62.39-.27-1.25-2.19-.56.59.14-.14,1.12-.74.66l.34-.38c-.42-.05-.61.09-.84-.09.32-.16.36-.61-.24-.74l.59-.43c-.47.14-.93.3-1.39.46-.7-.78-2.28-.53-2.49-1.27,0,0-.47-.2-1.02-.3-.55-.1-1.16-.11-1.44.23.46-.39-.57-.74-.19-1.22-.59.43-2.07.67-2.56.06l.11-.05c-2.02-.79-3.53.45-5.11-.42,0,.58-.82.17-.7.93-.9.26-1.6-.24-2.16-.52-.56-.28-1-.4-1.56.64-.77-.07-.73-.74-1.06-.94l.2-.07c-1.38-.24-1.79-.33-2.76-.76-.57.01-1.05.96-1.86.36.46-.27.06-.34-.28-.5.24.04.37-.08.04-.53-.11.09-.24.12-.36.14,0-.03,0-.06.03-.1-.62-.12-.58.05-.34.22-.04.05-.05.14-.02.28-.36-.75-1.64-.71-1.4-1.41-1.74-.67-3.3-.65-4.84-1.17.02-.41.51-.52.98-.43l-1.06-.42c.26-.47.72.04,1.08.11-.77-1.41-2.87-.58-3.91-2.05l-.5.21-.05-.11c-.1.2-.57.3-.82.25.02-.52.52-.94-.21-1.3-.34-.71-1.74-.64-2.6-.8.37.28.12.44-.12.5-.37-.17-.37-.69-.75-.65l.24-.59c-.11.6-1.26.12-1.5.29-.02-.52.75-.09.99-.37-1.54-.64-.75-.35-2.33-.94-1.01.1-.08.61-.68.96-.76-.2-1.62-.05-2.34-.69l.08.62c-1.5-.09-2.29-.33-3.1-1.15-.72.08-1.38.29-1.93.44-.56.17-1.03.31-1.44.53-.82.41-1.35.8-1.7,1.17-.69.74-.7,1.4-.33,1.9.61,1.06,2.16,1.59,2.16,1.65.77.46,1.43.69,2.11.92.34.1.67.17,1.01.21.34.07.69.13,1.05.17,1.44.15,3.1.32,5.28,1.11Z"/>
        </g>
        <g>
          <path class="cls-1" d="m1284.72,258.76l.06.25c.02-.1.02-.2-.06-.25Z"/>
          <path class="cls-1" d="m1312.83,264.95s.02-.02.04-.05c-.02.01-.03.03-.04.05Z"/>
          <path class="cls-1" d="m1287.21,267.41h0s-.03.03-.04.05l.05-.05Z"/>
          <path class="cls-1" d="m1281.67,265.43c1.42.64,1.57,1.79,3.22,1.73.72.26,1.57.21,2.32.25.54-.74.95.21,1.52-.38l.05.5c.2-.2.4-.32.48-.04l-.04.13c.29-.3.48-.04.62-.19l-.04.13h.27s-.09.18-.09.18c.45-.29.83-.23,1.12.02l.1-.57c.56.8,1.09-.32,1.56.58l-.04.14c1.15-1.31,1.05,1.31,2.2.08-.14.15-.02.3-.06.44.42-.07.85-.07,1.11-1.18.28.08.15.4.09.84.11-.49.4-.64.62-.62l-.14.17.66-.03.08-.95c.27.34-.17,1.14.2.99l.17-.76c.42.25.44,1.47.76,2.13,1.78.74,4.19-.78,5.62.94l-.05.59c-.15.85.74-1.14.64-.35l.28-.34c.02.16.11.35-.03.51.18.07.21-.06.4-.29l.09.56c.65.56,1.48-.31,2.21.05.7,1.26,2.65.64,3.77.28,1.66-.96,2.63,2.71,4.36,1.56.02.13.2-.12.22-.21l1.3.38s6.34,1.57,2.84-6.35l.07-.18c-.63-.59-1.06-.77-1.74.05.15-1.15-.57-.23-.66-.63l.03-.09c-.61.78-.76-.9-1.34-.21.03-.09.11-.39.21-.39-.34.08-.81.25-.7-.41-.77.02-1.73-.49-2.41.47l.07-.18c-.41.65-.37.03-.74.33,0-.09-.01-.14,0-.17-.44.64-.87-.07-1.17.18l.07-.44-.6-.02.2.14c-.32,1.18-.28-.84-.87-.15-.36-.23-1.32,2.32-1.61,1.65-.31.52.36-.88-.02-.51.12-.63.22-.36.25-.88-.35.24-.34-.74-.78-.39l.09-.49c-.65.79-.73-.83-1.22-.04-.56.3-.01-1.51-.71-.67l-.05-.7c-.19-.15-.32.77-.49.41.1-.41-.23-.39,0-.76-.39-.76-1.27.69-1.74-.56-.33.77-.57.22-.82.8.06-.35-.69-.21-.13-.89.05-.06.1-.03.07.11l.15-.47c-.2-.99-.83.34-1.19.11.08.18.25.18.07.48l-.35-.15.16-.39-.49-.35-.03.51c-.21-.31-.12-1.18-.57-.54-.22.36.1.73-.21.82-.28-.42-.7-1.05-1.12-1.3-.08.57-.2.52-.35.61l.09-.49c-.63.57.06-1.11-.54-.68l.12-.33-.35.99c-.65.87,0-1.06-.78.15.21-.04-.15,1.09-.34.83l.16-.46c-.15.07-.24.26-.3.14.13-.24.19-.67-.01-.64l.26-.56-.55.78c-.16-.57-.75-.04-.71-.72,0,0-.52-.46-.82.23.22-.42-.07-.67.15-1.17-.27.47-.82.79-.88.2l.05-.05c-.55-.71-1.33.49-1.78-.32-.1.57-.35.19-.44.93-.79.57-.8-1.73-1.55.44-.31.05-.22-.6-.34-.75l.1-.1c-.58.06-.74.04-1.12-.1-.25.17-.52,1.2-.82.86.21-.38.05-.34-.08-.37.1-.04.16-.19.05-.51-.05.12-.11.19-.16.25,0-.03,0-.06.02-.1-.26.09-.25.23-.16.31-.02.06-.03.14-.03.27-.1-.58-.65-.12-.51-.83-.7,0-1.36.62-1.98.76.02-.38.23-.67.43-.77l-.43.04c.13-.52.3-.25.44-.32-.26-.96-1.17.61-1.53-.3l-.21.38-.02-.08c-.05.22-.25.48-.34.54.03-.47.26-1.05-.02-1.08-.11-.49-.66.07-1,.25.13.11.02.35-.08.5-.14-.02-.11-.49-.26-.32l.14-.62c-.09.59-.51.54-.62.77.03-.47.31-.34.42-.67-.56-.08-.28-.04-.84-.11-.4.39-.09.59-.36,1.09-.29.06-.64.42-.85-.02l-.04.56c-.59.3-.86.17-1.05-.46-4.7,3.52-2.26,5.85-2.26,5.85,1.13,1.56,2.26.16,4.06.15Z"/>
        </g>
      </g>
    </g>
  </g>
</svg>