<?xml version="1.0" encoding="UTF-8"?>
<svg id="Layer_2" data-name="Layer 2" xmlns="http://www.w3.org/2000/svg" viewBox="0 0 1357.46 880.85">
  <defs>
    <style>
      .cls-1 {
        fill: #b02062;
      }

      .cls-1, .cls-2 {
        stroke-width: 0px;
      }

      .cls-2 {
        fill: #a4004b;
      }
    </style>
  </defs>
  <g id="Phase_1" data-name="Phase 1">
    <g id="Layer_32" data-name="Layer 32">
      <g>
        <path class="cls-2" d="m30.69,1.41s-9.21-6.72,106.15,9.14c149.84,20.6,325.91,227.11,325.91,388.89s-200.41,232.95-370.86,232.95c-45.77,0-43.57,0-43.57,0v-132.99h37.95c153.59,0,200.41-62.61,200.41-136.2s-65.56-193.46-207.91-193.46-48.3,0-48.3,0l.22-168.35Z"/>
        <g>
          <path class="cls-1" d="m119.41,57.96l.72.28c0-.11-.18-.21-.72-.28Z"/>
          <path class="cls-1" d="m272.95,155.28c.06.02.11.06.16.08-.1-.07-.14-.08-.16-.08Z"/>
          <path class="cls-1" d="m145.31,70.79s-.02,0-.03-.01c-.06,0-.13,0-.19,0h.22Z"/>
          <path class="cls-1" d="m110.38,64.83c4.73.19,7.68.72,10.64,1.2,2.96.54,5.93.95,10.67,1.64,1.12.25,2.25.48,3.4.7l1.73.32c.58.12,1.14.28,1.72.41,1.15.27,2.29.54,3.42.81.57.13,1.13.26,1.69.39.55.14,1.09.33,1.63.49,2.29-.1,5.62,1.83,8.21,2.2l.74.81c.9.1,1.92.34,2.64.91l-.11.11c1.35.19,2.59,1.04,3.26,1.14l-.11.1,1.47.62-.33.06c1.11.32,2.23.68,3.25,1.19,1.02.5,1.99,1.06,2.88,1.62l.12-.59c.92.67,1.73,1.14,2.48,1.53.75.39,1.42.73,2.09,1.05,1.34.64,2.63,1.27,4.18,2.61l-.12.09c2.58.7,4.15,2.04,5.73,3.36,1.58,1.33,3.1,2.77,5.71,3.66-.65-.23.06.41-.06.49,2.11,1.24,4.24,2.76,4.96,1.85,1.44,1.07.97,1.15.89,1.64.28-.4,1.68.32,2.8,1.17l-.63-.24,3.28,2.32-.05-1.23c1.53,1.52-.27,1.24,1.48,2.3l.46-.63c2.24,1.93,2.83,3.98,4.69,6.2,8.96,7.72,19.83,14.76,27.25,23.17l-.02.77c-.41.78,3.14,1.09,2.93,1.96l1.23.57c.17.36.63.99.02.7.87.82.99.73,1.8,1.11l.61,1.25c3.26,3.44,6.94,5.34,10.52,8.79,3.74,4.78,12.81,11.49,18.03,15.35,7.65,5.08,13.3,14.66,21.24,19.75.15.29.91.61.98.53l6.29,5.75s30.7,27.69,11.93,1.52h.28c-3.19-3.44-5.32-5.46-8.35-6.89.38-1.2-2.79-2.63-3.36-3.64h.14c-2.72-1.23-3.9-4.44-6.47-5.67.14,0,.4-.2.88.21-1.59-1.22-3.81-2.84-3.47-3.44-3.69-3.04-8.47-7.69-11.46-8.92h.28c-1.78-.62-1.76-1.42-3.46-2.44-.02-.14-.09-.26-.05-.27-1.89-.73-4.22-3.6-5.57-4.39l.22-.4-2.9-2.43.99,1.01c-1.18.59-1.63-2.47-4.21-3.7-1.82-1.82-5.58-1.55-7.18-3.77-1.33-.42,1.46.05-.26-.88.38-.52.93.29.9-.42-1.6-1.01-1.86-2.52-3.86-3.72l.26-.43c-2.85-1.31-3.8-4.25-5.87-4.93-2.59-1.75-.57-2.48-3.63-3.9l-.49-1.34c-.96-1-1.29-.04-2.21-1.3.35-.26-1.22-1.54-.28-1.24-2.15-2.79-5.88-3.96-8.56-7.83-1.29-.04-2.69-1.93-3.66-1.95.14-.35-3.44-3.08-.98-1.97.21.1.5.37.38.45l.56-.16c-1.36-2.42-3.9-2.75-5.78-4.53.48.62,1.28,1.25.54,1.07l-1.78-1.62h.65s-2.57-2.5-2.57-2.5l.05.71c-1.16-1.34-1.09-2.39-3.08-3.11-.95-.26.84,1.59-.69.53-.79-.88-1.78-1.99-2.85-3.13-1.09-1.12-2.25-2.28-3.38-3.28-.14.62-.76.1-1.48-.33l.23-.45c-2.92-1.45-.24-1.59-3.09-3.1l.44-.1-1.3.31c-2.87-.96-.59-1.78-3.95-2.62,1.07.68-.18,1.23-1.3.14l.6-.15c-.75-.42-1.1-.43-1.5-.85.57.09.63-.4-.44-1.08h1.04s-2.45-.68-2.45-.68c-1.17-1.53-3.97-2.63-4.21-3.62,0,0-.77-.63-1.69-1.25-.92-.62-1.98-1.22-2.58-1.15.93.05-.83-1.28,0-1.4-1.16-.12-3.96-1.39-4.7-2.52l.23.07c-1.77-1.44-3.58-2.22-5.29-3.02-1.7-.82-3.39-1.52-5.04-2.77-.11.6-1.86-.68-1.73.22-1.02-.32-1.89-.81-2.7-1.28-.82-.46-1.55-.96-2.23-1.37-1.36-.83-2.5-1.35-3.65-.63-1.77-.69-1.87-1.36-2.74-1.86l.47.06c-1.7-.59-2.8-.97-3.77-1.34-.48-.19-.94-.37-1.44-.57-.5-.18-1.03-.37-1.66-.59-1.34-.22-1.88.72-4.04-.29.86-.15-.09-.39-.93-.68.56.12.77.03-.25-.62-.19.07-.46.07-.71.07,0-.03-.04-.07,0-.11-1.48-.25-1.27-.05-.62.18-.05.05-.02.15.15.31-1.33-.93-4.15-1.09-4.15-1.84-2.17-.56-4.12-.67-5.96-.8-1.84-.1-3.56-.27-5.41-.37-.36-.43.55-.63,1.65-.6l-2.63-.27c.1-.53,1.55-.08,2.37-.06-3.01-1.37-6.54-.06-10.12-1.15l-.79.37-.21-.09c0,.22-.85.47-1.39.51-.49-.5.1-1.09-1.72-1.14-1.42-.53-4.1.06-5.97.29,1.01.09.68.34.24.5-.9,0-1.42-.46-2.12-.26l-.09-.63c.35.58-2.36.65-2.69.91-.52-.46,1.39-.42,1.62-.77-3.62.1-1.81.03-5.43.18-1.91.52.37.59-.54,1.16-1.69.19-3.32.68-5.27.41l.64.53c-3.14.59-5.03.65-7.2.23-11.59,3.13-12.67,4.83-10.91,5.66,1.78.84,6.42.9,6.42.9,4.64.27,8.08-.06,11.73-.55,3.65-.48,7.51-1.16,12.9-1.34Z"/>
        </g>
        <g>
          <path class="cls-1" d="m347.48,220.73l-.16.18c.09-.06.16-.12.16-.18Z"/>
          <path class="cls-1" d="m354.57,234.33s.03,0,.05,0c-.02,0-.04,0-.05,0Z"/>
          <path class="cls-1" d="m342.04,226.8h0s-.04,0-.06.02l.06-.02Z"/>
          <path class="cls-1" d="m341.08,224.12c.17.77-.64,1.52.14,1.91.11.35.53.54.82.77.81-.3.25.39.96.2l-.37.31c.24-.07.43-.08.24.11l-.12.07c.37-.1.24.11.42.06l-.12.07.12.08-.18.08c.42-.04.54.11.46.34l.5-.3c-.39.62.72.14.2.79l-.12.06c1.54-.39-.62,1.05.86.72-.18.04-.25.16-.38.22.24.09.41.22,1.42-.31.05.13-.26.27-.64.49.44-.23.68-.22.76-.14l-.19.04.29.2.81-.49c-.16.27-1,.57-.73.6l.69-.36c-.03.28-1.02.94-1.44,1.39.1.95,2.33.99,1.44,2.34l-.52.28c-.77.37,1.25-.31.54.05l.4-.07c-.13.09-.26.21-.45.24,0,.1.14.04.4,0l-.45.31c-.24.49.84.36.79.79-.83.84.42,1.23,1.14,1.49,1.46.2-1.46,2.15.15,2.31-.11.06.17.03.26,0l.1.65s.17.77,1.09.99c.92.21,2.61-.05,5.58-2.4l.18-.04c.31-.52.32-.79-.66-.74,1.08-.42,0-.34.33-.55l.09-.02c-.92.07.53-.71-.29-.67.09-.02.39-.13.42-.08-.19-.11-.52-.24.11-.48-.31-.32-.21-.96-1.31-.82l.18-.05c-.73.12-.17-.14-.57-.16.08-.04.12-.07.15-.08-.72.11-.27-.39-.6-.4l.41-.17-.21-.26-.04.15c-1.15.42.62-.51-.2-.42.06-.26-2.52.58-2.05.15-.57.13.89-.28.43-.25.59-.25.4-.09.85-.32-.34-.02.5-.49.03-.5l.45-.2c-.93.13.41-.7-.45-.5-.48-.07,1.28-.76.28-.61l.57-.37c.05-.15-.79.26-.54,0,.39-.17.24-.29.64-.39.48-.55-1.11-.15-.25-.97-.78.27-.42-.11-1.01.1.32-.16-.11-.38.69-.51.07-.01.07.03-.06.08l.45-.19c.74-.6-.64-.15-.6-.4-.12.13-.04.19-.37.28l-.03-.21.39-.14.08-.38-.44.26c.17-.25.92-.68.2-.51-.39.11-.55.43-.77.36.23-.33.56-.83.58-1.13-.5.28-.51.21-.65.2l.44-.23c-.74.08.93-.59.32-.58l.32-.14-.96.42c-.99.24.86-.59-.46-.21.12.05-.95.55-.82.34l.44-.19c-.12-.02-.31.06-.25-.03.25-.08.63-.31.51-.36l.57-.22-.88.24c.38-.38-.3-.29.26-.66,0,0,.13-.45-.55-.16.44-.16.5-.41,1-.62-.5.17-.99.16-.56-.2h.06c.31-.62-1-.2-.56-.83-.49.3-.31-.01-.93.39-.8.07.98-1.31-1.06-.26-.19-.07.37-.43.43-.56l.12-.03c-.31-.16-.37-.22-.44-.44-.25.02-1.16.55-1.04.26.39-.17.28-.19.25-.25.08,0,.22-.06.41-.29-.12.06-.2.08-.27.1.03-.02.05-.03.09-.06-.19-.03-.29.06-.31.14-.06.03-.12.08-.21.15.4-.39-.22-.28.39-.67-.34-.22-1.1-.05-1.5-.15.3-.23.61-.35.78-.35l-.23-.11c.45-.29.33-.06.45-.06.59-.68-1.02.02-.51-.66l-.39.18.05-.05c-.19.12-.48.23-.56.24.37-.29.9-.59.8-.7.31-.35-.37-.16-.67-.14-.02.11-.25.23-.41.3-.05-.05.31-.35.11-.28l.52-.36c-.48.35-.64.2-.87.32.36-.3.4-.13.7-.31-.22-.21-.11-.11-.32-.32-.48.14-.48.36-.98.61-.18-.05-.62.09-.39-.25l-.43.36c-.5.03-.54-.12-.17-.59-2.41.53-3.72,1.38-4.44,2.06-.73.68-.87,1.21-.87,1.21-.61,1.27.92.63,1.75,1.08Z"/>
        </g>
        <g>
          <path class="cls-1" d="m119.43,547.03l.25.27c.01-.11-.05-.21-.25-.27Z"/>
          <path class="cls-1" d="m189.42,545.1s.04-.04.05-.07c-.04.03-.05.05-.05.07Z"/>
          <path class="cls-1" d="m129.36,556.3h-.02s-.06.03-.08.05l.1-.05Z"/>
          <path class="cls-1" d="m114.92,553.62c3.74.87,4.6,2.09,8.62,2.22,1.88.35,3.94.37,5.81.46.98-.72,2.44.27,3.56-.32l.35.52c.39-.2.83-.32,1.16-.03l-.04.14c.58-.31,1.16-.03,1.45-.19l-.04.14h.66s-.13.19-.13.19c.98-.28,1.95-.24,2.79.01l-.02-.58c1.78.81,2.54-.36,4.14.52l-.03.14c2.17-1.39,3.26,1.23,5.49-.13-.28.17.1.3.08.44,1-.14,2.07-.19,2.11-1.33.72.04.58.37.67.82,0-.5.64-.7,1.2-.73l-.26.19,1.62-.15-.31-.95c.85.28.21,1.15,1.04.93v-.78c1.17.15,1.88,1.32,3.05,1.88,2.42.12,4.91-.41,7.34-.87,2.43-.47,4.8-.87,7.12-.47l.27.56c.2.85,1.06-1.44,1.34-.67l.46-.46c.17.13.5.25.27.48.49-.04.48-.18.78-.49l.6.45c1.97.07,3.4-1.19,5.4-1.43,2.62.62,6.86-1.56,9.18-2.89.78-.59,1.68-.91,2.65-1.11.96-.21,1.99-.33,3.03-.43,1.04-.09,2.07-.29,3.04-.58.97-.29,1.86-.76,2.57-1.5.16.06.34-.33.3-.41,1.08-.44,2.14-.93,3.19-1.44,0,0,.24-.12.63-.32.39-.21.93-.5,1.51-.89,1.17-.76,2.58-1.77,3.45-2.84.89-1.05,1.29-2.05.57-2.73-.73-.71-2.55-1.02-6-1.04l-.02-.2c-.88.24-1.56.47-2.1.83-.55.33-.97.78-1.29,1.48-.7-.94-1.33.57-1.88.4v-.1c-.61,1.25-2.31.27-2.92,1.41,0-.1-.1-.4.1-.51-.63.43-1.49,1.05-1.79.46-.79.43-1.79.8-2.7,1.2-.91.41-1.69.92-2.08,1.6l.02-.2c-.4.89-.78.37-1.37.95-.07-.07-.13-.1-.13-.14-.47.92-1.98.73-2.46,1.18l-.16-.42-1.36.5.54-.06c.14,1.24-1.25-.44-2.06.57-.98.08-1.34,2.98-2.5,2.6-.36.66.22-1-.4-.42-.16-.62.25-.46-.04-.92-.64.45-1.28-.39-2.06.21l-.13-.48c-.96,1.11-2.25-.26-2.84.74-1.1.62-1.02-1.33-2.08-.18l-.57-.6c-.53-.03-.25.87-.88.63-.02-.43-.77-.23-.49-.68-1.38-.5-2.54,1.28-4.38.32-.3.85-1.21.44-1.44,1.09-.08-.35-1.75.1-.83-.77.08-.07.23-.07.23.07l.08-.5c-1.05-.83-1.75.63-2.73.55.3.14.68.08.45.43h-.91s.17-.43.17-.43c-.45-.05-.91-.1-1.36-.17l.21.5c-.68-.24-.94-1.1-1.66-.34-.33.42.65.66-.04.85-.9-.3-2.24-.8-3.38-.95.11.57-.19.55-.51.68l-.04-.5c-1.2.71-.44-1.08-1.63-.54l.11-.35-.32,1.04c-1.09.98-.57-1.04-1.79.3.48-.08.21,1.1-.38.88l.16-.48c-.33.1-.44.3-.65.19.2-.25.12-.7-.36-.63l.33-.59-.92.86c-.68-.54-1.81.08-2.07-.61,0,0-1.48-.41-1.86.32.32-.45-.49-.66-.23-1.19-.41.5-1.58.87-2.01.28l.09-.06c-1.65-.68-2.95.59-4.42-.24.02.58-.76.2-.62.95-1.65.6-2.73-1.77-3.53.45-.73.05-.8-.61-1.16-.77l.18-.1c-1.37.04-1.76.01-2.76-.15-.52.17-.73,1.21-1.6.85.34-.38-.04-.35-.37-.39.22-.04.31-.18-.1-.52-.08.12-.18.19-.28.24,0-.03-.01-.06,0-.1-.58.08-.5.22-.24.31-.02.06,0,.15.06.27-.51-.61-1.63-.16-1.61-.89-1.7-.06-3.01.53-4.46.6-.11-.39.27-.67.7-.76h-1.01c.08-.54.62-.23.94-.29-1.06-1.03-2.56.51-3.84-.49l-.35.38-.07-.08c-.03.22-.39.48-.6.52-.13-.49.17-1.06-.52-1.14-.48-.53-1.58-.01-2.33.12.37.14.21.37.02.51-.35-.04-.47-.53-.77-.37l.06-.63c.04.61-1,.49-1.17.73-.12-.49.6-.31.74-.65-1.39-.16-.69-.08-2.08-.24-.81.35.04.61-.4,1.1-.67.02-1.38.35-2.06-.15l.15.59c-1.29.23-2.02.04-2.75-.65-9.87,2.98-2.94,5.82-2.94,5.82,3.4,1.81,5.53.52,9.9.77Z"/>
        </g>
        <g>
          <path class="cls-1" d="m209.41,558.84l.15.19c-.04-.1-.09-.18-.15-.19Z"/>
          <path class="cls-1" d="m226.99,548.81s-.01-.03-.02-.05c0,.02,0,.04.02.05Z"/>
          <path class="cls-1" d="m215.33,564.97h0s0,.04,0,.06v-.06Z"/>
          <path class="cls-1" d="m210.77,566c1.23-.11,1.91.78,2.96-.07.6-.14,1.11-.62,1.6-.96-.06-.88.71-.32.73-1.1l.31.39c0-.27.06-.47.27-.28l.05.13c0-.4.27-.28.27-.48l.05.13.16-.14.05.2c.11-.47.37-.62.69-.58l-.27-.52c.79.34.46-.83,1.26-.37l.06.13c-.11-1.65,1.39.46,1.32-1.14.01.2.17.25.23.38.2-.29.45-.52-.09-1.52.2-.09.33.23.57.6-.24-.44-.17-.71-.04-.83l.02.21.35-.39-.54-.78c.36.11.62.97.73.65l-.39-.68c.39-.04,1.16.88,1.76,1.2.73-.23,1.17-1,1.65-1.63.48-.65,1-1.18,1.96-.99l.38.45c.51.69-.41-1.27.09-.64l-.09-.41c.12.1.3.18.34.38.14-.06.06-.18,0-.45l.44.34c.72,0,.53-1.12,1.14-1.32,1.25.43,1.76-1.23,1.99-2.19.03-.84.83-.81,1.62-.83.79-.02,1.6-.06,1.53-1,.11.06,0-.2-.07-.28l.85-.63s.25-.2.49-.55c.24-.35.48-.85.47-1.41,0-1.14-1.09-2.44-4.85-3.71l-.11-.15c-.68.04-.97.19-.59,1.11-.83-.8-.39.2-.74.01l-.06-.08c.37.87-.97-.1-.65.69-.05-.08-.26-.31-.22-.38-.06.25-.12.64-.58.15-.28.47-1.02.72-.59,1.75l-.1-.16c.31.68-.12.24-.06.66-.06-.06-.11-.09-.13-.12.29.69-.41.48-.35.82l-.29-.34-.26.35.18-.02c.72,1-.72-.4-.48.4-.32.05,1.08,2.37.47,2.08.23.55-.46-.82-.37-.34-.39-.51-.16-.38-.51-.75.01.37-.66-.32-.61.19l-.3-.39c.27.93-.9-.17-.57.67-.05.53-1.04-1.07-.77-.07l-.5-.47c-.18,0,.38.74.06.57-.23-.36-.36-.16-.51-.55-.68-.34-.12,1.2-1.15.54.36.75-.12.48.15,1.04-.21-.29-.45.23-.64-.58-.01-.07.03-.08.1.04l-.24-.43c-.73-.62-.16.7-.48.73.16.09.23,0,.34.32l-.26.08-.17-.38h-.45s.31.4.31.4c-.3-.12-.8-.83-.61-.1.12.4.51.49.42.74-.4-.16-.99-.42-1.34-.4.31.48.23.51.21.65l-.26-.43c.04.77-.65-.89-.67-.25l-.14-.32.43.95c.21,1.01-.64-.82-.29.53.08-.14.58.93.33.82l-.19-.44c-.03.14.04.33-.07.27-.07-.25-.31-.63-.39-.49l-.21-.57.19.9c-.42-.36-.39.35-.78-.21,0,0-.53-.1-.27.61-.13-.45-.42-.5-.61-1.01.14.51.05,1.05-.32.6v-.07c-.68-.31-.4,1.05-1.09.62.26.51-.07.33.29.97-.1.87-1.37-1.03-.58,1.12-.14.2-.44-.39-.59-.46v-.13c-.28.33-.38.39-.66.46-.04.26.35,1.25,0,1.11-.08-.42-.15-.31-.24-.27.03-.08,0-.23-.24-.45.03.13.04.21.04.28-.01-.03-.03-.05-.04-.09-.09.2-.02.31.07.33.02.06.06.13.12.23-.36-.44-.42.21-.71-.46-.39.33-.43,1.17-.72,1.57-.17-.33-.2-.68-.14-.85l-.22.22c-.19-.5.05-.34.09-.47-.62-.7-.36,1.05-1.01.44l.06.43-.05-.06c.08.21.09.53.06.62-.21-.42-.35-1.02-.53-.92-.29-.37-.34.36-.46.66.13.04.18.3.19.47-.09.05-.29-.38-.3-.17l-.21-.6c.22.55-.05.69,0,.94-.2-.43.02-.43-.06-.77-.36.18-.18.09-.54.27-.06.52.22.56.29,1.11-.14.18-.19.65-.51.36l.23.51c-.22.52-.45.52-.85.04-.67,2.56-.46,4.12,0,5.01.46.9,1.14,1.14,1.14,1.14,1.48.87,1.61-.87,2.77-1.72Z"/>
        </g>
      </g>
    </g>
  </g>
  <g id="Phase_2" data-name="Phase 2">
    <g id="Layer_32_copy" data-name="Layer 32 copy">
      <g>
        <path class="cls-2" d="m118.31,689.85s448.29,57,596.31-67.76c148.02-124.76,205.11-277.42,351.02-334.31,145.91-56.89,291.81-35.74,291.81-35.74v174.35s-203-39.02-327.76,79.4c-124.76,118.42-121.92,226.62-301.23,305.44-187.42,82.38-318.35,75.18-476.94,60.39-147.4-13.75-167.05-16.04-167.05-16.04l33.83-165.74Z"/>
        <g>
          <path class="cls-1" d="m1189.28,287.49l-.64-.16c.02.11.19.18.64.16Z"/>
          <path class="cls-1" d="m1048.88,341.69s-.06.09-.08.13c.07-.08.08-.11.08-.13Z"/>
          <path class="cls-1" d="m1164.56,282.49s.02,0,.03,0c.05-.03.11-.05.15-.08l-.18.08Z"/>
          <path class="cls-1" d="m1195.88,279.46c-8.23.68-10.53-.14-18.98,1.29-4.06.39-8.36,1.14-12.31,1.74-1.78,1.06-5.2.62-7.35,1.59l-.92-.37c-.74.33-1.62.61-2.43.44l.03-.14c-1.11.5-2.43.45-2.98.7l.03-.15-1.39.24.22-.23c-1.96.64-4.03.95-5.88,1.03l.23.55c-4.01-.07-5.25,1.34-8.9,1.17l.02-.15c-2.1,1.15-3.9,1.2-5.73,1.3-1.83.07-3.69.2-5.82,1.42.53-.3-.31-.24-.3-.38-2.07.67-4.3,1.32-4.04,2.42-1.52.4-1.33,0-1.64-.38.14.48-1.12,1.04-2.3,1.4l.49-.34c-1.12.35-2.22.79-3.33,1.18l.94.7c-1.85.29-.8-.96-2.43-.21l.26.74c-2.47.7-4.31.03-6.88.44-4.97,1.75-9.82,4.47-14.31,7.39-4.5,2.92-8.72,5.94-13.02,8.22l-.69-.23c-.67-.59-1.39,2.6-2.15,2.18l-.66.98c-.34.07-.97.33-.64-.16-.85.59-.78.72-1.21,1.38l-1.2.25c-3.48,2.15-5.52,5.1-8.96,7.55-4.66,2.3-11.53,9.02-15.49,12.89-5.28,5.81-14.46,8.72-19.76,14.79-.28.06-.63.69-.57.77l-5.76,4.41s-27.79,21.57-2.42,10.56l-.03.26c3.4-2.11,5.42-3.58,6.98-6.02,1.05.63,2.63-1.93,3.59-2.22v.13c1.34-2.2,4.36-2.52,5.7-4.59-.01.13.14.41-.27.76,1.24-1.17,2.91-2.81,3.42-2.37,3.08-2.66,7.72-5.94,9.09-8.39l-.02.26c.71-1.49,1.44-1.28,2.51-2.59.13.01.25-.02.25.02.82-1.56,3.63-3.01,4.46-4.06l.34.3,2.46-2.08-1,.67c-.43-1.22,2.39-.91,3.72-2.98,1.81-1.23,1.89-4.75,4.04-5.68.49-1.12-.17,1.32.83-.03.44.47-.34.78.3.92,1.06-1.22,2.45-1.11,3.71-2.66l.37.34c1.44-2.3,4.18-2.46,4.98-4.18,1.82-1.93,2.29.09,3.85-2.33l1.25-.1c.99-.61.17-1.16,1.39-1.66.19.39,1.5-.69,1.14.08,2.71-1.16,4.22-4.21,8-5.33.24-1.14,2.1-1.74,2.31-2.57.27.23,3.29-1.88,1.86-.14-.12.15-.41.3-.46.17l.03.55c2.29-.27,3.07-2.39,5.01-3.23-.62.15-1.34.57-1.01.02l1.76-.85-.17.55,2.71-1.05-.58-.29c1.39-.39,2.19.19,3.37-1.1.51-.66-1.52-.09-.2-.84,1.89-.47,4.74-1.02,7.08-1.7-.41-.47.22-.66.82-.99l.24.45c2.23-1.5,1.23.7,3.51-.58l-.11.4.34-1.19c1.95-1.63,1.48.6,3.61-1.39-.97.36-.77-.93.52-1.06l-.18.55c.65-.29.82-.54,1.3-.57-.33.37-.04.72.94.39l-.52.75,1.67-1.33c1.58.12,3.77-1.04,4.52-.5,0,0,.81-.09,1.69-.3.88-.2,1.85-.48,2.14-.92-.55.58,1.24.4.84,1.03.72-.69,3.1-1.55,4.18-1.17l-.18.09c3.72-.08,6.12-1.8,9.53-1.6-.23-.56,1.56-.48,1.03-1.15,3.34-1.2,6.46.67,7.42-1.76,1.56-.31,1.93.31,2.76.32l-.36.17c2.92-.54,3.78-.66,5.98-.87,1.07-.35,1.12-1.42,3.11-1.4-.59.49.21.32.94.24-.46.12-.59.29.41.46.12-.15.32-.25.51-.34.01.03.05.05.04.1,1.21-.29.98-.4.4-.39.02-.07-.04-.14-.23-.24,1.34.39,3.55-.45,3.78.25,3.67-.6,6.22-1.65,9.26-2.29.39.33-.29.74-1.17.99l2.16-.39c.04.53-1.22.45-1.87.64,2.69.56,5.25-1.49,8.38-1.05l.58-.49.19.05c-.04-.22.61-.6,1.05-.73.48.41.1,1.07,1.6.87,1.24.31,3.36-.62,4.89-1.05-.85.02-.61-.27-.27-.47.75-.1,1.24.31,1.8.04l.15.62c-.37-.56,1.89-.87,2.14-1.16.48.41-1.12.54-1.27.91,3.01-.41,1.51-.21,4.52-.62,1.56-.66-.36-.56.34-1.2,1.41-.29,2.74-.89,4.42-.7l-.58-.49c2.62-.74,4.23-.87,6.09-.52,19.37-6.86,3.47-6.67,3.47-6.67-7.98-.31-11.83,1.78-21.11,3.31Z"/>
        </g>
        <g>
          <path class="cls-1" d="m980.36,406.98l-.2-.13c.08.08.15.13.2.13Z"/>
          <path class="cls-1" d="m971.97,415.49s.02.03.03.04c0-.02-.02-.03-.03-.04Z"/>
          <path class="cls-1" d="m973.52,402.74s0,0,0,0c-.01-.02-.02-.03-.03-.05l.03.05Z"/>
          <path class="cls-1" d="m975.67,401.48c-.65.25-1.53-.4-1.68.37-.28.16-.34.57-.47.88.5.7-.27.29.1.91l-.39-.29c.13.21.2.38-.03.24l-.1-.1c.19.32-.03.24.07.4l-.1-.1-.03.12-.13-.15c.16.38.07.51-.15.49l.42.4c-.67-.25.1.68-.63.33l-.1-.1c.84,1.32-1.12-.36-.34.92-.1-.16-.22-.2-.32-.3,0,.23-.06.42.75,1.22-.09.07-.32-.18-.64-.48.35.35.43.57.38.66l-.11-.17-.07.31.7.63c-.29-.09-.84-.79-.77-.53l.55.55c-.25.03-1.16-.73-1.7-1-.79.31.03,2.32-1.45,1.86l-.44-.39c-.62-.6.76,1.04.18.5l.22.34c-.12-.09-.28-.17-.38-.34-.08.03.02.13.16.36l-.44-.32c-.51-.08.03.84-.34.92-1.04-.49-.85.73-.74,1.44.49,1.33-2.41-.6-1.81.86-.1-.07.06.16.13.23l-.48.31s-2.14,1.67,4.33,5.25l.12.14c.54.11.74.04.23-.77.84.79.26-.09.57.12l.06.07c-.5-.76.79.25.36-.44.06.07.28.3.27.34-.01-.19-.07-.5.42-.03.1-.34.62-.43,0-1.33l.12.14c-.43-.59.03-.18-.14-.53.07.06.11.08.13.11-.42-.59.18-.33.03-.62l.32.31.1-.25h-.13c-.84-.89.67.41.24-.28.23,0-1.56-2.04-1.01-1.74-.35-.46.61.71.38.31.45.45.24.32.62.66-.13-.3.6.32.4-.09l.36.35c-.5-.78.72.2.2-.5-.15-.43,1.14.95.6.11l.53.42c.14.01-.54-.63-.24-.47.3.3.33.15.57.48.63.31-.34-.99.66-.41-.54-.63-.08-.39-.49-.86.26.25.25-.17.69.5.03.06,0,.07-.09-.04l.33.36c.77.53-.14-.58.08-.59-.15-.08-.17,0-.37-.27l.16-.06.27.31h.33s-.38-.33-.38-.33c.27.1.91.69.49.09-.24-.33-.56-.41-.59-.61.35.14.88.35,1.13.32-.42-.39-.37-.41-.41-.54l.36.35c-.34-.63.83.72.58.19l.23.26-.7-.77c-.57-.83.8.66,0-.44,0,.12-.8-.75-.58-.67l.32.36c-.03-.11-.16-.27-.07-.22.16.21.48.51.48.39l.39.46-.52-.73c.45.28.12-.31.64.14,0,0,.41.05-.07-.51.29.36.51.39.87.8-.32-.42-.49-.86-.04-.52l.03.05c.61.2-.2-.9.47-.59-.42-.4-.1-.27-.64-.77-.33-.71,1.41.72-.14-.97,0-.17.48.28.61.32l.06.11c.03-.29.06-.36.22-.44-.1-.22-.84-.98-.55-.9.26.33.25.23.29.19.02.07.12.19.38.34-.08-.1-.13-.17-.17-.23.02.02.04.04.07.07-.04-.17-.14-.25-.21-.26-.04-.05-.1-.1-.2-.18.45.32.17-.22.69.28.08-.32-.3-.99-.33-1.36.28.24.48.52.53.67l.02-.22c.38.38.15.29.19.4.75.47-.32-.9.41-.51l-.27-.33.06.04c-.16-.16-.34-.41-.36-.49.35.31.76.76.82.66.38.25.02-.34-.07-.61-.1,0-.27-.21-.37-.34.03-.05.38.25.27.08l.45.44c-.44-.4-.35-.56-.51-.76.35.31.22.35.46.61.12-.21.06-.1.18-.31-.25-.42-.44-.41-.79-.84,0-.16-.24-.55.11-.37l-.42-.37c-.16-.45-.03-.49.47-.19-2.14-4.31-4.17-4.63-4.17-4.63-1.3-.45-.37.92-.57,1.74Z"/>
        </g>
        <g>
          <path class="cls-1" d="m863.36,534.48l-.21-.12c.08.07.16.12.21.12Z"/>
          <path class="cls-1" d="m854.06,544.88s.02.03.03.04c0-.02-.02-.03-.03-.04Z"/>
          <path class="cls-1" d="m856.11,530.81s0,0,0,0c-.01-.02-.02-.03-.03-.05l.03.05Z"/>
          <path class="cls-1" d="m858.47,529.14c-.7.36-1.64-.22-1.83.64-.31.21-.39.67-.53,1.02.51.69-.31.36.09.98l-.41-.26c.13.21.2.38-.04.26l-.1-.1c.2.32-.04.26.06.42l-.1-.1-.04.13-.13-.15c.16.39.06.55-.18.55l.44.38c-.72-.18.09.73-.69.44l-.1-.1c.87,1.32-1.2-.23-.39,1.05-.1-.16-.24-.18-.34-.28,0,.25-.08.46.77,1.23-.1.09-.34-.16-.68-.44.37.33.44.56.4.66l-.11-.17-.08.34.74.59c-.31-.06-.88-.74-.82-.47l.58.52c-.27.06-1.23-.63-1.81-.86-.86.45-.04,2.51-1.62,2.22l-.46-.37c-.65-.56.78,1.02.17.52l.22.34c-.13-.08-.29-.15-.4-.31-.09.05.02.14.17.36l-.46-.29c-.55-.01.01.91-.4,1.05-1.11-.39-.94.91-.84,1.67.49,1.37-2.59-.32-1.98,1.19-.11-.06.06.16.13.23l-.53.4s-2.35,2.11,4.52,5.11l.13.14c.58.04.8-.06.27-.87.88.74.28-.14.62.05l.06.07c-.51-.76.85.16.4-.52.06.07.29.28.28.33,0-.21-.06-.54.45-.1.11-.39.68-.56.05-1.45l.13.14c-.45-.58.04-.2-.14-.56.07.05.11.08.14.1-.43-.59.2-.39.05-.68l.34.29.12-.28-.14.02c-.88-.85.72.35.27-.33.25-.04-1.62-2-1.04-1.75-.36-.46.63.69.4.29.48.42.25.32.65.63-.13-.31.64.27.44-.15l.37.33c-.52-.78.77.12.23-.57-.15-.45,1.2.87.64.04l.56.38c.15,0-.56-.61-.24-.48.31.29.35.12.6.44.67.25-.34-1.03.72-.53-.56-.61-.08-.41-.5-.87.27.23.28-.22.72.45.04.06,0,.07-.1-.03l.35.35c.82.47-.14-.61.1-.66-.16-.07-.18.02-.39-.24l.17-.09.28.3.36-.04-.4-.31c.28.08.96.62.52.03-.25-.32-.59-.37-.62-.58.38.1.94.26,1.21.19-.44-.37-.38-.4-.43-.53l.37.33c-.35-.64.87.67.62.12l.24.25-.73-.74c-.59-.82.84.61,0-.47,0,.13-.84-.7-.61-.64l.34.34c-.03-.12-.17-.27-.06-.23.17.2.5.48.51.36l.4.45-.54-.73c.48.24.14-.35.68.06,0,0,.45,0-.06-.55.3.35.54.35.91.75-.34-.41-.5-.86-.03-.56l.04.05c.65.13-.19-.95.52-.71-.44-.38-.1-.28-.67-.75-.33-.72,1.5.59-.12-1.03,0-.19.51.23.65.26l.07.11c.04-.32.08-.39.25-.51-.1-.22-.88-.95-.57-.9.27.33.26.22.31.17.02.08.13.19.4.31-.09-.1-.14-.16-.17-.22.02.02.05.04.08.07-.04-.18-.15-.26-.22-.26-.05-.05-.11-.1-.21-.16.48.28.19-.26.73.21.1-.36-.3-1.04-.32-1.43.3.23.5.5.55.65l.03-.24c.4.36.15.29.19.41.8.41-.32-.94.45-.61l-.28-.33.06.04c-.17-.15-.35-.4-.38-.48.37.28.8.72.87.6.41.22.04-.38-.06-.65-.11,0-.29-.19-.39-.32.03-.06.41.22.29.05l.47.42c-.46-.38-.36-.56-.53-.75.37.28.23.35.48.6.14-.24.07-.12.21-.36-.25-.43-.46-.38-.82-.8,0-.18-.25-.56.13-.42l-.45-.34c-.16-.47-.02-.53.51-.27-2.18-4.39-4.36-4.46-4.36-4.46-1.39-.31-.43,1.06-.67,1.97Z"/>
        </g>
        <g>
          <path class="cls-1" d="m291.98,820.96l1.38.35c-.01-.11-.36-.23-1.38-.35Z"/>
          <path class="cls-1" d="m638.6,755.28c.1-.06.21-.12.29-.17-.21.1-.28.15-.29.17Z"/>
          <path class="cls-1" d="m346.79,830.77s-.05,0-.08,0c-.12.02-.26.05-.37.07l.45-.07Z"/>
          <path class="cls-1" d="m274.19,826.54c4.73.53,8.58,1.06,12.02,1.5,3.44.44,6.46.82,9.49,1.2,6.09.67,12.28,1.32,22.2,1.49,1.18.06,2.37.12,3.57.17,1.2.02,2.41.05,3.62.07,2.42.03,4.86.06,7.29.09,4.87-.05,9.71-.15,14.34-.29,2.19-.49,5.22-.59,8.36-.68,3.14-.04,6.38-.31,8.95-.8l2.05.35c1.77-.35,3.86-.63,5.68-.58l-.1.15c2.64-.62,5.67-.7,6.97-1.01l-.1.15,3.23-.38-.53.25c4.6-.99,9.37-1.61,13.6-2.08l-.44-.51c4.52-.45,7.56-1.12,10.48-1.75,2.92-.67,5.7-1.36,9.76-1.84l-.08.16c9.71-3.67,15.99-2.6,25.9-5.92-1.24.41.6.2.52.35,4.66-1.04,9.66-1.76,9.6-2.9,3.46-.38,2.85.03,3.35.41-.07-.49,2.91-1.02,5.63-1.25l-1.24.29c2.59-.27,5.19-.51,7.8-.71l-1.6-.85c4.19.03,1.12,1.08,5.1.64l-.09-.78c5.79-.14,9.24.92,14.92,1.19,5.88-.25,11.92-.74,17.98-1.66,6.06-.92,12.13-2.3,17.95-4.02,11.69-3.41,22.63-7.85,33.02-11.16l1.11.2c.7.65,5.12-3.37,6.18-2.93l2.21-1.29c.72-.12,2.17-.51,1.07.13,2.19-.82,2.19-.97,3.66-1.83l2.53-.42c8.74-2.97,15.66-6.79,24.77-10.13,11.25-3.24,31.31-12.15,42.87-17.31,8.04-3.86,17.18-6.94,26.31-10.34,9.12-3.39,18.26-7.15,26.08-12.12.58-.18,1.82-1.17,1.76-1.25,2.48-1.33,4.97-2.64,7.39-4.09l3.66-2.12c1.21-.72,2.4-1.49,3.6-2.24,0,0,1.08-.69,2.87-1.83,1.77-1.18,4.19-2.91,6.94-4.86,5.38-4.08,11.79-9.46,16.1-14.21,1.12-1.13,2.07-2.28,2.88-3.3.81-1.02,1.49-1.92,1.98-2.66,1-1.49,1.27-2.35.55-2.3-.73.05-2.47,1.02-5.48,3.15-3.05,2.1-7.53,5.22-13.91,9.27l.19-.4c-3.67,2.56-6.65,4.65-9.35,6.53-1.35.95-2.58,1.91-3.8,2.85-1.23.92-2.42,1.88-3.6,2.91-1.39-.39-6.38,3.72-8.38,4.47l.12-.18c-2.16,1.74-4.76,2.91-7.3,4.09-2.59,1.1-5.14,2.2-7.34,3.73.14-.17.11-.49,1.19-1.07-3.39,1.84-8.05,4.36-8.6,3.85-8.27,4.09-20.32,8.78-25.46,11.97l.31-.33c-2.87,1.95-4.04,1.73-7.43,3.48-.22,0-.49.05-.46,0-3.18,2.03-10.02,4.06-12.7,5.44l-.34-.34-6.84,2.79,2.6-.92c-.44,1.49-5.48,1.32-10.18,4.01-4.72,1.68-8.54,6.07-13.6,7.41-2.1,1.44,1.7-1.66-1.6.1-.35-.55,1.47-1,.39-1.13-3.28,1.61-5.8,1.57-9.83,3.61l-.35-.4c-5.13,2.98-10.54,3.42-13.86,5.65-5.48,2.59-4.31.1-9.82,3.3l-2.52.27c-2.55.88-1.5,1.47-4.4,2.26.01-.46-3.64,1.06-2.16.05-6.53,1.83-12.41,5.92-21.08,7.75-1.53,1.42-5.87,2.32-7.04,3.32-.16-.13-2.28.49-3.79.86-1.51.36-2.41.48-.16-.56.39-.17,1.11-.37,1.1-.23l.43-.64c-4.99.51-8.51,2.89-13.33,3.7,1.45-.1,3.31-.58,2.13.03-1.48.3-2.97.56-4.46.8l.85-.57c-2.22.31-4.45.59-6.69.8l.99.38c-3.32.19-4.56-.55-8.23.53-1.66.57,3.21.38-.28.88-4.49.07-11.24-.09-17.04.02.57.55-.99.6-2.59.79l-.21-.49c-6.15.99-2.31-1-8.45-.11l.52-.38-1.57,1.13c-5.51,1.36-3.09-.86-9.2,1.02,2.45-.32,1.25.98-1.78,1.06l.72-.55c-1.66.26-2.2.55-3.32.57.97-.37.45-.77-2.01-.38l1.58-.8c-1.52.47-3.04.99-4.54,1.5-3.67,0-9.17,1.69-10.74,1.32,0,0-1.91.29-4.01.74-2.1.45-4.38,1.05-5.16,1.6,1.4-.78-2.76-.05-1.7-.83-1.83.94-7.43,2.63-9.81,2.58l.42-.16c-4.26.64-7.78,1.59-11.21,2.43-3.44.78-6.79,1.52-10.6,1.83.44.55-3.61.79-2.51,1.38-3.88.88-7.51,1.02-10.49,1.19-2.99.11-5.32.35-6.64,1.62-3.59.47-4.31-.1-6.18-.11l.85-.17c-3.37.31-5.55.5-7.51.64-1.96.15-3.71.26-6.23.29-2.5.3-2.86,1.38-7.38,1.26,1.45-.47-.39-.32-2.08-.29,1.08-.09,1.41-.23-.81-.5-.31.13-.79.21-1.24.28-.02-.03-.11-.06-.06-.1-2.81.16-2.32.29-1.02.34-.06.06.05.15.45.26-2.93-.53-8.16.07-8.5-.66-4.23,0-7.87.14-11.33.31-3.46.13-6.75.21-10.29.2-.77-.41.89-.66,2.95-.72l-5.01-.09c.07-.53,2.89-.18,4.44-.22-1.48-.28-2.98-.41-4.52-.45-1.54-.06-3.11-.06-4.72-.05-3.21,0-6.56.08-10.01-.64l-1.48.3-.41-.1c0,.23-1.59.4-2.63.38-.95-.55.16-1.07-3.29-1.33-2.69-.67-7.77-.53-11.37-.62,1.92.27,1.27.47.42.55-1.73-.16-2.67-.71-4.03-.67l-.1-.65c.62.67-4.57.13-5.24.32-.93-.57,2.72-.1,3.19-.4-6.92-.73-3.46-.36-10.38-1.09-3.74.02.6.67-1.23,1.01-3.27-.28-6.51-.22-10.2-1.07l1.11.71c-6.17-.37-9.83-.9-13.87-2.01-23.08-.84-25.7.32-22.54,1.77,3.16,1.43,12.1,3.09,12.1,3.09,8.9,1.84,15.73,2.65,23.03,3.28,3.65.27,7.42.55,11.61.87,4.2.29,8.84.63,14.23,1.1Z"/>
        </g>
        <g>
          <path class="cls-1" d="m768.31,665.49l.2.13c-.08-.07-.16-.12-.2-.13Z"/>
          <path class="cls-1" d="m773.88,658.86s-.02-.02-.03-.04c.01.02.02.03.03.04Z"/>
          <path class="cls-1" d="m775.13,669.58s0,0,0,0c.02.02.02.03.04.04l-.04-.05Z"/>
          <path class="cls-1" d="m773.51,670.49c.51-.16,1.42.45,1.39-.2.21-.11.18-.46.23-.71-.57-.63.18-.23-.28-.78l.4.28c-.16-.19-.25-.34-.02-.2l.1.09c-.23-.28-.02-.2-.14-.34l.1.09v-.1s.15.14.15.14c-.22-.34-.16-.44.04-.4l-.45-.37c.63.26-.23-.59.48-.23l.1.09c-1-1.18,1.05.38.11-.76.12.14.24.18.34.28-.05-.2-.03-.35-.9-1.09.07-.05.32.18.66.46-.38-.33-.49-.52-.47-.59l.13.15v-.26s-.75-.59-.75-.59c.27.1.89.73.78.51l-.59-.51c.21,0,1.16.7,1.69.97.62-.21-.5-1.97.89-1.47l.46.36c.66.55-.87-.94-.25-.44l-.26-.3c.13.09.28.17.4.31.06-.02-.04-.11-.21-.31l.44.3c.46.1-.2-.71.11-.76,1.01.49.6-.56.35-1.17-.69-1.16,2.22.68,1.4-.6.1.07-.08-.14-.16-.2l.35-.23s1.52-1.27-4.84-4.77l-.13-.13c-.49-.13-.65-.09-.04.64-.89-.73-.21.06-.52-.14l-.07-.06c.59.68-.74-.27-.22.35-.07-.06-.3-.27-.3-.31.05.17.16.43-.35,0-.01.29-.45.32.27,1.13l-.13-.13c.5.53.01.15.23.46-.07-.05-.11-.08-.14-.1.48.53-.09.27.1.52l-.34-.29-.04.2h.12c.92.83-.67-.39-.15.23-.2,0,1.77,1.84,1.24,1.55.4.42-.67-.65-.4-.29-.49-.41-.28-.29-.68-.61.17.26-.59-.31-.33.05l-.38-.32c.6.7-.67-.22-.07.41.22.38-1.19-.89-.54-.14l-.55-.39c-.12-.02.6.57.3.41-.32-.28-.32-.15-.59-.44-.61-.31.5.86-.49.3.6.57.15.34.6.76-.28-.23-.19.13-.7-.47-.04-.05-.02-.06.08.04l-.36-.33c-.78-.51.24.5.05.5.15.08.15.01.38.26l-.12.04-.3-.29-.29-.03.4.31c-.25-.11-.93-.65-.44-.11.28.29.57.39.64.56-.34-.14-.84-.36-1.05-.35.44.36.4.38.47.48l-.38-.32c.43.56-.87-.67-.55-.2l-.25-.24.76.71c.66.74-.83-.62.1.37-.03-.1.85.69.64.61l-.35-.33c.05.1.2.24.1.19-.18-.19-.52-.46-.5-.37l-.43-.42.6.66c-.45-.27-.04.25-.58-.16,0,0-.37-.08.16.44-.33-.33-.53-.37-.92-.74.37.38.6.76.14.44l-.04-.05c-.57-.21.36.78-.29.47.44.37.14.24.72.7.43.62-1.37-.71.32.83.04.15-.47-.27-.59-.31l-.08-.09c.03.25.02.3-.1.36.13.19.93.89.66.81-.3-.3-.27-.22-.29-.19-.03-.06-.15-.17-.4-.31.09.09.15.15.19.2-.03-.02-.05-.04-.08-.07.07.15.18.23.24.24.05.04.11.09.21.16-.46-.3-.1.17-.66-.29,0,.27.47.86.57,1.18-.3-.23-.52-.47-.6-.61l.02.18c-.41-.35-.19-.25-.25-.35-.75-.45.46.79-.25.4l.3.3-.06-.04c.17.15.38.37.42.44-.37-.29-.82-.7-.85-.62-.39-.24.05.29.18.52.09.02.28.2.39.32-.02.04-.39-.24-.25-.09l-.48-.41c.46.37.42.5.6.68-.37-.29-.26-.31-.52-.55-.06.17-.03.08-.1.25.3.38.46.38.85.77.04.14.32.49-.02.31l.44.34c.23.4.13.42-.37.13,2.74,3.81,4.57,4.23,4.57,4.23,1.22.47.13-.76.14-1.44Z"/>
        </g>
        <g>
          <path class="cls-1" d="m727.32,745.79l.54-.09c-.07-.08-.22-.09-.54.09Z"/>
          <path class="cls-1" d="m815.27,656.59s.02-.09.02-.13c-.03.08-.03.11-.02.13Z"/>
          <path class="cls-1" d="m747.84,740.76s-.02.01-.02.02c-.02.04-.05.08-.07.13l.09-.14Z"/>
          <path class="cls-1" d="m726.16,755.18c2.99-1.65,4.91-2.67,6.88-3.68,1.95-1.04,3.9-2.14,6.68-4.35,2.77-1.94,5.52-4.3,8.1-6.37.77-1.57,3.4-2.69,4.42-4.4l.86-.08c.35-.59.83-1.19,1.49-1.39l.06.13c.52-.88,1.49-1.39,1.74-1.82l.06.13.86-.77-.03.28c1.07-1.32,2.32-2.49,3.58-3.34l-.47-.36c2.86-1.63,2.96-3.3,5.66-4.64l.06.13c.89-1.76,2.11-2.57,3.37-3.38,1.25-.81,2.53-1.62,3.41-3.45-.22.46.35.08.42.21,1.16-1.32,2.46-2.66,1.68-3.49.94-.86,1-.46,1.42-.26-.35-.35.27-1.29.95-2.01l-.18.46,1.87-2.14-1.06-.27c1.25-.88,1.08.54,1.93-.65l-.57-.54c1.57-1.37,3.27-1.41,5.11-2.46,3.02-2.93,5.61-6.48,8.29-9.81,2.59-3.42,5.14-6.75,8.2-9.29l.68.11c.78.43.35-2.49,1.15-2.23l.25-.96c.28-.11.74-.43.61.05.54-.64.45-.75.61-1.38l.97-.38c2.35-2.38,3.35-5.17,5.51-7.91,1.66-1.38,3.45-3.82,5.09-6.42,1.62-2.61,2.95-5.46,3.98-7.5.61-1.51,1.5-2.9,2.54-4.25.99-1.38,2.1-2.72,3.22-4.07,2.21-2.72,4.55-5.41,5.45-8.67.21-.13.24-.74.15-.79l3.01-5.18s.22-.4.58-1.05c.36-.66.86-1.58,1.35-2.67,1-2.16,2.16-4.87,2.81-7.05,1.31-4.4.5-6.55-7.54,1.5l-.1-.21c-.92,1.33-1.63,2.43-2.13,3.5-.53,1.05-.86,2.07-.99,3.26-1.18-.25-1.38,2.25-2.07,2.72l-.05-.11c-.18,2.14-2.58,3.16-2.83,5.19-.04-.11-.29-.3-.09-.69-.57,1.25-1.34,2.98-1.96,2.73-1.56,2.88-4.15,6.64-4.4,8.97l-.08-.22c-.05,1.39-.77,1.35-1.2,2.67-.11.01-.2.07-.23.03-.12,1.48-2.01,3.24-2.34,4.29l-.41-.19-1.35,2.23.62-.76c.83.98-1.71,1.21-2.18,3.18-1.15,1.34-.02,4.39-1.59,5.54-.05,1.05-.3-1.18-.71.15-.54-.34.03-.73-.57-.76-.51,1.22-1.76,1.32-2.34,2.87l-.44-.25c-.51,2.2-2.91,2.68-3.06,4.3-.99,1.93-2.04.21-2.64,2.56l-1.06.26c-.67.68.23,1.05-.67,1.67-.29-.32-1.08.83-1.01.1-2.01,1.41-2.38,4.29-5.24,5.96.19,1.05-1.2,1.94-1.06,2.73-.32-.17-2.08,2.37-1.53.51.05-.16.23-.35.33-.25l-.23-.48c-1.83.76-1.78,2.74-3.06,3.96.47-.28.91-.82.85-.25l-1.15,1.17-.08-.53-1.82,1.64.6.1c-1,.71-1.92.42-2.29,1.91-.12.73,1.26-.37.53.67-.66.48-1.49,1.07-2.36,1.69-.88.62-1.78,1.29-2.55,1.96.55.26.15.64-.17,1.12l-.4-.3c-1.02,2.02-1.34-.2-2.45,1.71l-.11-.38.34,1.14c-.66,2.08-1.46,0-2.02,2.5.54-.67,1.05.5.16,1.09l-.15-.53c-.33.49-.34.76-.69.96.07-.42-.35-.63-.92.02v-.82s-.56,1.74-.56,1.74c-1.26.48-2.26,2.3-3.09,2.16,0,0-2.17,1.59-2.12,2.55.08-.71-1.11.17-1.17-.51-.15.86-1.35,2.58-2.36,2.69l.07-.15c-2.66,1.56-3.39,3.98-5.89,5.24.47.36-.82,1.06-.07,1.39-.41.6-.92,1.04-1.44,1.4-.53.35-1.08.6-1.55.86-.94.52-1.58,1.05-1.26,2.26-.92.9-1.52.54-2.11.86l.16-.29c-1.76,1.65-2.29,2.11-3.71,3.18-.56.73,0,1.68-1.46,2.42.16-.64-.32-.19-.8.16.27-.28.27-.47-.53-.23,0,.17-.1.34-.19.48-.03-.02-.07-.02-.08-.07-.71.71-.49.71-.09.48.02.07.1.11.29.12-1.16.18-2.3,1.75-2.83,1.25-1.15.96-2.05,1.91-2.89,2.84-.84.93-1.62,1.83-2.59,2.64-.45-.15-.15-.75.36-1.27l-1.39,1.11c-.3-.45.66-.83,1.05-1.22-2.24.48-3.1,3.16-5.59,3.9l-.19.64-.16.02c.13.18-.16.75-.42,1.02-.55-.19-.58-.91-1.57-.2-.52.08-1.06.52-1.58,1.05-.54.51-1.06,1.1-1.53,1.55.62-.3.58.04.42.33-.51.34-1.06.13-1.36.55l-.39-.5c.52.37-1.01,1.39-1.07,1.73-.54-.21.59-.85.53-1.22-2.05,1.35-1.03.68-3.08,2.03-.86,1.1.52.38.27,1.18-.92.72-1.65,1.7-2.98,2.08l.65.25c-1.65,1.5-2.84,2.07-4.4,2.32-5.94,6.03-6,7.83-4.48,8.12,1.51.27,4.56-.99,4.56-.99,3.14-1.09,5.27-2.39,7.38-4,2.08-1.66,4.17-3.58,7.34-5.82Z"/>
        </g>
        <g>
          <path class="cls-1" d="m819.33,698.82l.26.05c-.08-.07-.17-.1-.26-.05Z"/>
          <path class="cls-1" d="m839.86,672.86s-.02-.03-.03-.05c0,.03.02.04.03.05Z"/>
          <path class="cls-1" d="m828.65,700.1h0s.01.05.02.07l-.02-.07Z"/>
          <path class="cls-1" d="m823.66,704.8c1.4-1.16,2.52-.8,3.42-2.48.65-.61,1.09-1.48,1.56-2.22-.36-.87.74-.86.53-1.69l.48.18c-.07-.29-.06-.54.24-.5l.1.1c-.11-.43.24-.5.19-.71l.1.1.15-.27.12.17c0-.58.28-.94.67-1.12l-.46-.36c1.05-.21.35-1.24,1.43-1.3l.1.1c-.51-1.74,1.8-.47,1.37-2.18.05.21.26.16.36.26.18-.46.44-.89-.41-1.65.23-.24.45.03.81.28-.38-.33-.34-.68-.19-.9l.07.22.37-.69-.81-.5c.47-.13.94.67,1.02.23l-.6-.5c.48-.32,1.59.2,2.38.15,1.73-1.54,1.69-4.68,4.06-5.56l.53.27c.72.47-.67-1.23.02-.83l-.17-.43c.17.03.39,0,.47.22.16-.17.05-.26-.06-.54l.58.1c.86-.54.47-1.75,1.17-2.46,1.56-.4,1.89-2.86,1.95-4.27-.13-1.08.75-1.7,1.64-2.4.88-.69,1.72-1.49,1.38-2.64.13-.02-.07-.26-.16-.3l.68-1.61s.17-.51.28-1.2c.13-.69.14-1.58-.13-2.3-.26-.72-.79-1.25-1.76-1.32-.98-.08-2.4.34-4.41,1.2l-.17-.08c-.66.64-.86,1.05-.12,1.85-1.13-.27-.32.57-.74.63l-.08-.05c.68.75-1,.67-.44,1.37-.08-.05-.37-.18-.35-.28,0,.36.07.88-.56.65-.12.81-.91,1.66-.16,2.61l-.15-.12c.51.59-.09.39.08.86-.09-.02-.14-.02-.17-.04.48.62-.35.9-.21,1.28l-.4-.2-.24.62.21-.16c1.02.69-.92.04-.47.86-.34.3,1.68,2.12.91,2.22.36.5-.68-.67-.49-.14-.54-.34-.25-.35-.73-.55.07.44-.84.1-.7.68l-.42-.26c.45.95-1.11.45-.59,1.24.02.69-1.41-.55-.95.48l-.68-.21c-.23.13.57.62.14.65-.33-.26-.47.07-.7-.29-.88.09.01,1.56-1.37,1.51.54.64-.09.67.32,1.15-.3-.2-.56.6-.88-.24-.03-.07.03-.12.13-.03l-.35-.35c-1.01-.22-.12.97-.52,1.24.21,0,.29-.17.48.13l-.32.29-.26-.33-.59.34.45.26c-.4.07-1.14-.39-.81.34.21.38.72.21.63.57-.53.1-1.33.24-1.8.55.47.33.36.43.35.62l-.39-.31c.16.88-.97-.55-.91.23l-.23-.26.69.79c.41,1.03-.96-.47-.32.85.08-.23.9.64.55.71l-.32-.37c-.02.18.09.35-.05.37-.14-.24-.5-.5-.58-.27l-.35-.51.39.9c-.6-.09-.46.73-1.07.39,0,0-.72.32-.27.93-.25-.41-.64-.23-.98-.67.27.48.23,1.18-.34.98l-.02-.07c-.97.24-.34,1.56-1.34,1.66.46.36-.04.44.58.86.05,1.05-2.04.04-.51,1.76-.14.34-.67-.05-.88,0l-.04-.14c-.29.61-.4.76-.75,1.09,0,.33.78,1.06.3,1.21-.22-.38-.28-.2-.39-.08.02-.12-.08-.25-.43-.28.08.11.11.2.13.27-.03-.02-.05-.03-.08-.06-.07.3.06.35.19.3.04.05.11.09.23.14-.59-.15-.49.61-1.05.15-.41.72-.23,1.64-.46,2.33-.33-.19-.47-.53-.45-.77l-.21.45c-.4-.36-.05-.41-.03-.59-1.03-.15-.12,1.45-1.16,1.42l.23.38-.08-.02c.17.15.3.46.29.58-.41-.24-.8-.72-1-.45-.51-.1-.32.7-.36,1.13.18-.09.34.13.41.3-.1.13-.51-.1-.44.12l-.48-.41c.49.34.2.75.35.96-.41-.24-.13-.46-.37-.72-.39.53-.2.27-.59.8.12.58.49.35.79.84-.11.31.02.83-.5.85l.49.28c-.06.73-.34.94-1.03.86.54,6.28,4.06,4.8,4.06,4.8,2.06-.47,1.42-2.21,2.44-4.02Z"/>
        </g>
        <g>
          <path class="cls-1" d="m1136.53,361.83l.51.11c-.03-.1-.17-.16-.51-.11Z"/>
          <path class="cls-1" d="m1252.23,336.77s.07-.04.1-.07c-.07.03-.1.05-.1.07Z"/>
          <path class="cls-1" d="m1156.04,364.93h-.02s-.07.06-.1.09l.13-.09Z"/>
          <path class="cls-1" d="m1132.9,370.25c6.1-1.32,7.96-.71,14.1-2.73,3-.69,6.12-1.73,9.01-2.58,1.18-1.16,3.83-.97,5.3-2.06l.75.31c.51-.37,1.13-.69,1.76-.58v.14c.76-.56,1.76-.58,2.14-.85v.15s1.01-.31,1.01-.31l-.13.24c1.39-.73,2.9-1.13,4.28-1.26l-.24-.54c3.02-.04,3.79-1.45,6.56-1.31v.15c2.93-2.26,5.41-.16,8.47-2.34-.38.27.25.25.24.4,1.52-.52,3.17-.97,2.94-2.08,1.14-.23,1,.15,1.25.54-.11-.49.83-.9,1.71-1.13l-.37.28,2.51-.72-.7-.81c1.41-.03.59,1.05,1.83.54l-.18-.76c1.9-.26,3.24.66,5.17.85,7.57-1.26,15.27-4.86,22.56-4.86l.42.52c.3.82,1.69-1.62,2.11-.9l.74-.54c.26.11.77.18.4.44.76-.11.75-.25,1.25-.61l.91.37c3.06-.14,5.4-1.65,8.58-2.01,3.96.38,10.89-1.86,14.89-3.12,2.77-1.14,5.99-1.11,9.2-1.12,3.27-.03,6.33-.04,9.05-1,.19.1.64-.21.63-.3,1.71-.09,3.38-.07,5,.06,0,0,.37.02.97.06.59.07,1.43.13,2.33.29,1.83.27,3.89.84,5.46,1.44.38.16.76.3,1.12.4.34.12.65.23.94.27.58.08,1.06,0,1.29-.46.21-.43.24-1.27-.32-2.59-.57-1.31-1.83-3.1-4.33-4.9l.21-.12c-.79-.43-1.54-.66-2.24-.92-.7-.21-1.36-.35-1.98-.45-.62-.06-1.22-.07-1.81-.03-.58.08-1.15.21-1.72.41-.32-1.18-2.68-.17-3.42-.5l.07-.1c-1.9.95-4.08-.47-5.83.55.06-.1.06-.42.48-.49-1.33.3-3.08.83-3.28.18-3.06.66-7.33,1.06-9.11,2.43l.1-.21c-.99.89-1.42.34-2.6.92-.08-.08-.18-.1-.17-.14-1.09.91-3.51.71-4.43,1.18l-.14-.43-2.39.52.92-.06c-.1,1.26-1.95-.45-3.56.65-1.66.14-2.86,3.1-4.66,2.81-.7.71.54-1.04-.58-.39-.15-.62.49-.49.09-.94-1.13.51-2.06-.3-3.44.4l-.15-.48c-1.74,1.25-3.71.03-4.82,1.12-1.89.77-1.59-1.2-3.46.13l-.92-.51c-.9.06-.47.93-1.5.8-.02-.43-1.29-.09-.8-.6-2.32-.22-4.28,1.79-7.38,1.26-.47.94-2.02.75-2.36,1.45-.15-.34-2.92.53-1.45-.56.13-.09.38-.13.39.01l.1-.52c-1.83-.57-2.89,1.1-4.55,1.29.52.06,1.15-.11.79.31l-1.53.24.23-.47-2.3.23.41.43c-1.16-.02-1.72-.79-2.82.18-.48.51,1.18.45.05.85-1.54-.03-3.86-.08-5.77.17.3.52-.21.61-.71.84l-.16-.47c-1.85,1.11-.96-.91-2.82.06l.1-.38-.3,1.13c-1.57,1.35-1.18-.8-2.88.95.77-.25.6.99-.41.99l.14-.52c-.51.22-.65.45-1.02.43.26-.32.02-.72-.75-.47l.4-.7-1.29,1.19c-1.26-.25-2.93.79-3.55.24,0,0-2.53.23-2.93,1.08.39-.56-1-.43-.74-1.04-.52.65-2.31,1.49-3.19,1.13l.13-.09c-2.91.1-4.58,1.87-7.24,1.78.25.54-1.15.54-.65,1.18-2.41,1.32-5.05-.33-5.45,2.11-1.14.4-1.52-.19-2.15-.15l.25-.18c-2.15.71-2.79.89-4.43,1.24-.76.42-.63,1.48-2.15,1.59.37-.53-.21-.3-.75-.17.33-.15.4-.33-.38-.42-.07.15-.21.27-.33.37-.01-.03-.05-.05-.04-.1-.87.37-.68.46-.25.41,0,.07.05.14.21.22-1.08-.29-2.62.69-2.91.02-2.69.85-4.46,2.09-6.66,2.94-.35-.3.1-.75.72-1.06l-1.58.55c-.12-.52.85-.54,1.32-.77-2.14-.34-3.74,1.85-6.18,1.68l-.36.53-.15-.03c.06.22-.36.64-.68.8-.44-.37-.25-1.05-1.36-.72-.99-.2-2.44.88-3.53,1.43.64-.09.51.22.28.44-.55.16-.99-.2-1.37.1l-.22-.59c.37.51-1.28,1.01-1.42,1.32-.44-.36.76-.62.8-1-2.21.66-1.1.33-3.31,1-1.06.78.37.52-.05,1.2-1.01.4-1.92,1.11-3.22,1.07l.53.43c-1.85.95-3.04,1.22-4.51,1.05-6.69,4.24-7.02,5.96-5.7,6.61,1.32.65,4.31.25,4.31.25,6.06-.43,8.58-2.79,15.31-5.07Z"/>
        </g>
        <g>
          <path class="cls-1" d="m399.85,793.99l-.14-.2c.03.1.08.18.14.2Z"/>
          <path class="cls-1" d="m382.83,798.2s0,.03,0,.05c0-.02,0-.04,0-.05Z"/>
          <path class="cls-1" d="m395,787.31h0s0-.04,0-.06v.06Z"/>
          <path class="cls-1" d="m398.32,786.9c-.91.01-1.46-.95-2.17-.26-.43.04-.79.41-1.15.66.06.87-.52.17-.54.91l-.22-.43c0,.25-.05.44-.2.21l-.03-.14c-.01.38-.21.21-.21.4l-.03-.14-.12.1-.03-.2c-.09.43-.3.51-.53.39l.17.55c-.57-.52-.4.68-.96.04l-.03-.14c-.06,1.61-.98-.82-1.08.71.01-.19-.1-.28-.13-.42-.17.22-.38.36-.11,1.47-.16.03-.22-.31-.34-.73.12.48.03.72-.08.78v-.2s-.3.25-.3.25l.29.9c-.25-.22-.32-1.11-.45-.84l.19.76c-.3-.09-.73-1.2-1.11-1.7-1.1-.08-1.82,2.11-3.08.96l-.16-.57c-.19-.84-.02,1.3-.21.53l-.04.41c-.06-.14-.16-.29-.14-.49-.11-.01-.09.13-.11.4l-.21-.5c-.49-.33-.65.76-1.13.63-.72-.98-1.53.18-2.02.84-.63,1.4-2.05-1.85-2.67-.29-.04-.12-.08.16-.06.26l-.77-.02s-.93.03-1.41.89c-.48.86-.58,2.58,1.29,5.95v.19c.5.4.79.47.98-.5.19,1.14.38.07.53.43v.09c.16-.91.66.66.81-.16,0,.09.04.41-.02.43.17-.17.4-.46.5.2.43-.24,1.12-.02,1.25-1.13v.19c.06-.74.21-.14.33-.53.02.09.04.13.05.16.07-.73.51-.19.6-.52l.08.44.34-.16-.15-.07c-.15-1.22.4.72.52-.11.27.11.05-2.59.4-2.05.02-.59.06.94.16.47.12.63-.01.41.12.9.12-.33.4.59.54.13l.1.49c.12-.95.65.54.68-.35.21-.46.47,1.41.59.4l.25.64c.15.08-.07-.83.14-.54.07.42.25.3.24.71.46.58.48-1.06,1.14-.05-.08-.83.24-.39.18-1.01.09.35.45-.03.37.78,0,.07-.05.06-.07-.07l.07.48c.44.85.34-.6.61-.51-.11-.14-.19-.08-.2-.42h.24s.04.43.04.43l.39.16-.16-.49c.22.22.47,1.05.5.3,0-.41-.31-.63-.17-.83.3.29.75.72,1.06.8-.16-.55-.08-.55-.03-.68l.12.48c.14-.74.37,1.04.53.43l.06.34-.17-1.03c.03-1.02.39.97.36-.41-.1.11-.32-1.05-.12-.88l.08.48c.05-.12.03-.32.11-.24.02.26.15.68.24.57l.07.6v-.91c.3.46.41-.24.65.4,0,0,.45.23.35-.51.04.46.29.58.37,1.12-.04-.53.13-1.01.39-.51v.07c.56.43.5-.95,1.05-.38-.17-.55.11-.3-.14-1,.18-.8,1.11,1.24.61-.99.14-.17.35.45.48.54v.13c.26-.27.35-.32.61-.34.06-.25-.23-1.27.05-1.09.05.42.12.32.2.3-.03.08,0,.23.19.47-.02-.13-.02-.21-.02-.28.01.03.02.05.03.1.09-.18.03-.3-.05-.34-.02-.06-.05-.14-.1-.25.3.48.37-.15.6.53.35-.29.41-1.08.65-1.46.15.34.18.68.12.85l.19-.21c.16.51-.04.34-.08.46.55.73.31-1.01.88-.36l-.07-.42.04.06c-.07-.21-.09-.53-.07-.61.19.43.34,1.02.49.94.27.39.29-.33.38-.63-.11-.04-.17-.3-.18-.47.07-.04.27.38.27.17l.21.59c-.22-.55,0-.68-.05-.93.2.43,0,.42.1.76.3-.17.15-.08.46-.25.02-.51-.23-.55-.33-1.1.11-.17.11-.63.41-.34l-.24-.51c.13-.51.32-.51.7-.04.26-2.52-.2-4.01-.69-4.88-.49-.87-1.02-1.12-1.02-1.12-1.19-.88-1.03.79-1.82,1.52Z"/>
        </g>
      </g>
    </g>
  </g>
</svg>