<?xml version="1.0" encoding="UTF-8"?>
<svg id="Layer_2" data-name="Layer 2" xmlns="http://www.w3.org/2000/svg" xmlns:xlink="http://www.w3.org/1999/xlink" viewBox="0 0 1244.94 5705.55">
  <defs>
    <style>
      .cls-1 {
        stroke-width: 2.13px;
      }

      .cls-1, .cls-2, .cls-3, .cls-4 {
        fill: none;
      }

      .cls-1, .cls-3 {
        stroke: #63002d;
        stroke-linecap: round;
        stroke-linejoin: round;
      }

      .cls-5 {
        fill: #c64777;
      }

      .cls-5, .cls-2 {
        stroke-width: 0px;
      }

      .cls-6 {
        clip-path: url(#clippath);
      }

      .cls-3 {
        stroke-width: 2.83px;
      }

      .cls-4 {
        stroke: #c64777;
        stroke-miterlimit: 10;
        stroke-width: 14.17px;
      }
    </style>
    <clipPath id="clippath">
      <rect class="cls-2" x="39.88" y="983.33" width="1117.17" height="4722.21"/>
    </clipPath>
  </defs>
  <g id="Phase_4" data-name="Phase 4">
    <g id="Layer_46" data-name="Layer 46">
      <path class="cls-4" d="m595.52,0v1053.58c0,152.54-37.64,244.42-191.19,467.95-65.36,95.14-99.47,170.85-99.47,170.85"/>
    </g>
  </g>
  <g id="Layer_59" data-name="Layer 59">
    <g class="cls-6">
      <g>
        <path class="cls-5" d="m1191.83,1277.94s33.24-1.28,22.91,21.37c-10.33,22.65-33.3,32.91-33.3,32.91,0,0,5.77,13.8-13.15,44.19-18.92,30.39-28.11,31.06-40.69,32.55-12.58,1.49-26.37-13.29-26.37-13.29,0,0,3.77,32.86-2.9,60.88-6.66,28.02-17.49,30.8-23.98,33.68-6.49,2.88-18.19-2.33-18.19-2.33,0,0,7.86,27.22-4.37,43.39-12.23,16.17-34.04,22.23-34.04,22.23,0,0,9.19,22.81,0,44-9.19,21.19-25.45,24.06-25.45,24.06,0,0,11.79,15.03-6.3,41.86-18.1,26.84-45.61,29.56-45.61,29.56,0,0,20.75,24.33,3.59,50.34-17.16,26.02-40.86,27.91-40.86,27.91,0,0,6.81,21.43-12.37,40.31-19.18,18.88-32.01,13.79-32.01,13.79,0,0,6.91,18.69-10.3,34.96-17.21,16.26-36.44,12.42-34.28,13.51,2.16,1.09,1.71,15.47-10.87,17.71-12.58,2.25-21.75-1.63-21.75-1.63,0,0-5.67,15.93-15.77,19.34-10.1,3.41-19.31-.19-19.31-.19,0,0-.22,17.62-14,19.33s-19.47-3.25-19.47-3.25c0,0,5.39,11.42-12.13,14.97-17.52,3.54-30.29-4.51-30.29-4.51,0,0,3.72,5.11-11.07,9.95s-29.76-6.93-29.76-6.93c0,0,4.72,4.71-8.57,10.26-13.29,5.55-21.36-3.33-21.36-3.33,0,0,3.73,5.15-12.97,16.45-16.69,11.3-33.38-5.27-33.38-5.27,0,0,2.8,11.43-18.55,16.24-21.36,4.82-32.97-6.35-32.97-6.35,0,0-1.42,11.17-21.18,15.21-19.76,4.04-19.57-4.74-19.57-4.74,0,0-2.2,3.84-17.37,3.39-15.17-.45-12.02-11.16-12.02-11.16,0,0-.45,4.37-11.68,2.83s-11.73-15.42-11.73-15.42c0,0-8.03,11.93-19.26,5.27-11.23-6.67-10.82-24.46-10.82-24.46,0,0-6.02,4.75-16.02.26-10-4.48-6.93-14.67-6.93-14.67,0,0-6.28-1.2-7.28-7.73-1.01-6.53.79-7.61.79-7.61,0,0-9.05-3.08-15.21-10.87s-4.02-11.25-4.02-11.25c0,0-17.25-24.98-18.39-29.23-1.14-4.24-.64-6.59-.64-6.59,0,0-5.01-4.8-6.01-10.81-1-6.01-1-10.87-1-10.87,0,0-3.61-5.97-3.65-10.41l-.04-4.44s-4.39-3.12-5.76-9.73c-1.37-6.61,1.29-11.42,1.29-11.42,0,0-5.4-5.75-4.67-11.04.73-5.29,2.53-8.37,2.53-8.37,0,0-4.55-4.62-4.34-10.63s2.99-7.38,2.99-7.38c0,0-1-14.73,1.35-20.47,2.34-5.75,4.81-12.4,4.81-12.4,0,0-4.23-4.29-2.68-8.43s6.01-8.61,6.01-8.61l3.41-12.42,3.73-.4s-1.31,13.19-1.31,19.83-3.6,9.46-3.6,9.46c0,0,7.34,1.35,6.93,7.56s-5.09,13.02-5.09,13.02c0,0,3.63,4.41,1.76,9.62-1.88,5.21,5.44,9.21,3.28,15.22-2.15,6.01,5.7,7.16,5.68,14.4-.02,7.24-2.43,16.48-2.23,16.97s5.21,2.07,6.01,10.1c.8,8.02,3.81,3.28,8.81,12.36s3.14,11.17,3.14,11.17c0,0,3.62-1.91,7.85,3.21,4.23,5.12,1.03,11.33,1.03,11.33,0,0,5.81-1.82,8.02,3.6,2.2,5.42,0,8.82,0,8.82,0,0,7.12-1,10.97,3.61,3.85,4.6,3.45,8.81,3.45,8.81,0,0,9.25-7.88,16.94-1.94,7.7,5.94,7.5,8.55,7.5,8.55,0,0,10.58-3.52,17.37,1.31,6.79,4.83,10.07,9.93,10.07,9.93,0,0,8.47.36,12.62,3.28,4.15,2.92,4.88,3.84,4.88,3.84,0,0,9-1.51,16.3-.73,7.3.78,21.28,6.14,21.28,6.14,0,0,9.85-1.79,16.66.31,6.81,2.11,9,8.43,9,8.43,0,0,2.68-6.7,18.97-9.67,16.3-2.98,30.84,2.38,30.84,2.38,0,0,2.67-10.54,14.47-13.6,11.8-3.06,35.07.22,35.07.22l10.71,1.66s14.67-12.85,26.34-14.85c11.67-2,19.76-.95,19.76-.95,0,0,3.63-5.29,7.44-5.34,3.81-.05,8.11-.92,8.11-.92,0,0,5.31-13.04,15.35-17.82,10.04-4.79,25.03-5.81,25.03-5.81,0,0,1.46-5.69,7.86-15.39,6.4-9.7,8.17-10.55,8.17-10.55,0,0,.29-11.78,10.12-14.25s14.38-1.99,14.38-1.99c0,0,.7-4.13,12.25-7.66,11.55-3.52,17.44-.28,17.44-.28l4.87-16.87s-4.11-12.54-1.79-20.72c2.31-8.17,13.99-13.2,13.99-13.2,0,0-7.8-10.02-2.5-17.54,5.29-7.52,30.83-24.31,30.83-24.31,0,0-9.6-18.59,9.62-48.48,19.22-29.89,37.15-29.29,37.15-29.29,0,0-12.48-30.61,3.3-51.91,15.79-21.3,26.86-22.72,26.86-22.72,0,0-5.72-19.58,6.35-44.66,12.08-25.08,38.48-32.59,38.48-32.59,0,0-9.93-26.97,8.01-47.62,17.94-20.65,30.67-20.36,30.67-20.36,0,0-16.51-23.49,8.23-41.97,24.74-18.48,29.73-17.44,29.73-17.44,0,0-5.84-25.24,14.44-35.76,20.27-10.52,32.4-10.66,32.4-10.66,0,0-4.67-53.55,41.32-72.93,45.99-19.38,58.48,4.34,58.48,4.34l4.57,8.68s-4.05-2.35,15.62-8.84c19.67-6.49,35.29-13.72,35.29-13.72l19.38,42.04-51.69,19.07Z"/>
        <path class="cls-3" d="m1191.83,1277.94s33.24-1.28,22.91,21.37c-10.33,22.65-33.3,32.91-33.3,32.91,0,0,5.77,13.8-13.15,44.19-18.92,30.39-28.11,31.06-40.69,32.55-12.58,1.49-26.37-13.29-26.37-13.29,0,0,3.77,32.86-2.9,60.88-6.66,28.02-17.49,30.8-23.98,33.68-6.49,2.88-18.19-2.33-18.19-2.33,0,0,7.86,27.22-4.37,43.39-12.23,16.17-34.04,22.23-34.04,22.23,0,0,9.19,22.81,0,44-9.19,21.19-25.45,24.06-25.45,24.06,0,0,11.79,15.03-6.3,41.86-18.1,26.84-45.61,29.56-45.61,29.56,0,0,20.75,24.33,3.59,50.34-17.16,26.02-40.86,27.91-40.86,27.91,0,0,6.81,21.43-12.37,40.31-19.18,18.88-32.01,13.79-32.01,13.79,0,0,6.91,18.69-10.3,34.96-17.21,16.26-36.44,12.42-34.28,13.51,2.16,1.09,1.71,15.47-10.87,17.71-12.58,2.25-21.75-1.63-21.75-1.63,0,0-5.67,15.93-15.77,19.34-10.1,3.41-19.31-.19-19.31-.19,0,0-.22,17.62-14,19.33s-19.47-3.25-19.47-3.25c0,0,5.39,11.42-12.13,14.97-17.52,3.54-30.29-4.51-30.29-4.51,0,0,3.72,5.11-11.07,9.95s-29.76-6.93-29.76-6.93c0,0,4.72,4.71-8.57,10.26-13.29,5.55-21.36-3.33-21.36-3.33,0,0,3.73,5.15-12.97,16.45-16.69,11.3-33.38-5.27-33.38-5.27,0,0,2.8,11.43-18.55,16.24-21.36,4.82-32.97-6.35-32.97-6.35,0,0-1.42,11.17-21.18,15.21-19.76,4.04-19.57-4.74-19.57-4.74,0,0-2.2,3.84-17.37,3.39-15.17-.45-12.02-11.16-12.02-11.16,0,0-.45,4.37-11.68,2.83s-11.73-15.42-11.73-15.42c0,0-8.03,11.93-19.26,5.27-11.23-6.67-10.82-24.46-10.82-24.46,0,0-6.02,4.75-16.02.26-10-4.48-6.93-14.67-6.93-14.67,0,0-6.28-1.2-7.28-7.73-1.01-6.53.79-7.61.79-7.61,0,0-9.05-3.08-15.21-10.87s-4.02-11.25-4.02-11.25c0,0-17.25-24.98-18.39-29.23-1.14-4.24-.64-6.59-.64-6.59,0,0-5.01-4.8-6.01-10.81-1-6.01-1-10.87-1-10.87,0,0-3.61-5.97-3.65-10.41l-.04-4.44s-4.39-3.12-5.76-9.73c-1.37-6.61,1.29-11.42,1.29-11.42,0,0-5.4-5.75-4.67-11.04.73-5.29,2.53-8.37,2.53-8.37,0,0-4.55-4.62-4.34-10.63s2.99-7.38,2.99-7.38c0,0-1-14.73,1.35-20.47,2.34-5.75,4.81-12.4,4.81-12.4,0,0-4.23-4.29-2.68-8.43s6.01-8.61,6.01-8.61l3.41-12.42,3.73-.4s-1.31,13.19-1.31,19.83-3.6,9.46-3.6,9.46c0,0,7.34,1.35,6.93,7.56s-5.09,13.02-5.09,13.02c0,0,3.63,4.41,1.76,9.62-1.88,5.21,5.44,9.21,3.28,15.22-2.15,6.01,5.7,7.16,5.68,14.4-.02,7.24-2.43,16.48-2.23,16.97s5.21,2.07,6.01,10.1c.8,8.02,3.81,3.28,8.81,12.36s3.14,11.17,3.14,11.17c0,0,3.62-1.91,7.85,3.21,4.23,5.12,1.03,11.33,1.03,11.33,0,0,5.81-1.82,8.02,3.6,2.2,5.42,0,8.82,0,8.82,0,0,7.12-1,10.97,3.61,3.85,4.6,3.45,8.81,3.45,8.81,0,0,9.25-7.88,16.94-1.94,7.7,5.94,7.5,8.55,7.5,8.55,0,0,10.58-3.52,17.37,1.31,6.79,4.83,10.07,9.93,10.07,9.93,0,0,8.47.36,12.62,3.28,4.15,2.92,4.88,3.84,4.88,3.84,0,0,9-1.51,16.3-.73,7.3.78,21.28,6.14,21.28,6.14,0,0,9.85-1.79,16.66.31,6.81,2.11,9,8.43,9,8.43,0,0,2.68-6.7,18.97-9.67,16.3-2.98,30.84,2.38,30.84,2.38,0,0,2.67-10.54,14.47-13.6,11.8-3.06,35.07.22,35.07.22l10.71,1.66s14.67-12.85,26.34-14.85c11.67-2,19.76-.95,19.76-.95,0,0,3.63-5.29,7.44-5.34,3.81-.05,8.11-.92,8.11-.92,0,0,5.31-13.04,15.35-17.82,10.04-4.79,25.03-5.81,25.03-5.81,0,0,1.46-5.69,7.86-15.39,6.4-9.7,8.17-10.55,8.17-10.55,0,0,.29-11.78,10.12-14.25s14.38-1.99,14.38-1.99c0,0,.7-4.13,12.25-7.66,11.55-3.52,17.44-.28,17.44-.28l4.87-16.87s-4.11-12.54-1.79-20.72c2.31-8.17,13.99-13.2,13.99-13.2,0,0-7.8-10.02-2.5-17.54,5.29-7.52,30.83-24.31,30.83-24.31,0,0-9.6-18.59,9.62-48.48,19.22-29.89,37.15-29.29,37.15-29.29,0,0-12.48-30.61,3.3-51.91,15.79-21.3,26.86-22.72,26.86-22.72,0,0-5.72-19.58,6.35-44.66,12.08-25.08,38.48-32.59,38.48-32.59,0,0-9.93-26.97,8.01-47.62,17.94-20.65,30.67-20.36,30.67-20.36,0,0-16.51-23.49,8.23-41.97,24.74-18.48,29.73-17.44,29.73-17.44,0,0-5.84-25.24,14.44-35.76,20.27-10.52,32.4-10.66,32.4-10.66,0,0-4.67-53.55,41.32-72.93,45.99-19.38,58.48,4.34,58.48,4.34l4.57,8.68s-4.05-2.35,15.62-8.84c19.67-6.49,35.29-13.72,35.29-13.72l19.38,42.04-51.69,19.07Z"/>
      </g>
      <path class="cls-1" d="m1070.07,1299.31s38.51,5.93,81.83-.37c26.38-3.84,36.21-19.12,36.21-19.12"/>
      <path class="cls-1" d="m1022.02,1345.73s21.94,27.71,88.9,9.78c66.96-17.93,70.51-23.29,70.51-23.29"/>
      <path class="cls-1" d="m1087.65,1360.26s.68,11.63,3.06,19.17c2.38,7.55,10.51,16.24,10.51,16.24"/>
      <path class="cls-1" d="m984.06,1405.13s7.37,15.14,44.71-1.41c37.34-16.56,61.17-27.06,61.17-27.06"/>
      <line class="cls-1" x1="1046.93" y1="1395.67" x2="1056.16" y2="1487.89"/>
      <line class="cls-1" x1="945.39" y1="1473.11" x2="1047.25" y2="1438.36"/>
      <path class="cls-1" d="m1017.75,1550.36c-1.86-5.46-21.44-94.62-21.44-94.62"/>
      <line class="cls-1" x1="900.56" y1="1550.36" x2="1005.34" y2="1503.05"/>
      <line class="cls-1" x1="870.39" y1="1624.99" x2="970.08" y2="1574.94"/>
      <path class="cls-1" d="m992,1617.75c-6.59-10.25-42.59-89.45-42.59-89.45"/>
      <line class="cls-1" x1="940.39" y1="1692.99" x2="915.1" y2="1602.54"/>
      <path class="cls-1" d="m903.11,1771.24c-.53-7.74-10.3-114.36-14.77-124.89-4.46-10.53-15.77-22.46-15.77-22.46"/>
      <path class="cls-1" d="m823.62,1702.76s10.8,6.39,36.16-2.24c25.36-8.63,35.14-11.39,35.14-11.39"/>
      <path class="cls-1" d="m858.73,1825.35s-.04-58.05-4.99-78.97-13.05-40.81-13.05-40.81"/>
      <path class="cls-1" d="m795.29,1744.6s4.25,9.29,18.86,11.04c14.61,1.74,19.3.69,29.15-5.52l9.85-6.21"/>
      <path class="cls-1" d="m814.15,1873.81s5.72-54.82,5.08-74.62c-.63-19.8,0-43.67,0-43.67"/>
      <path class="cls-1" d="m783.1,1778.52s8.1,4.59,14.6-4.15c6.5-8.74,10.13-20.11,10.13-20.11"/>
      <path class="cls-1" d="m778.23,1795.39s-5.45,32.38-3.99,50.11c1.45,17.73,7.31,44.39,7.31,44.39"/>
      <path class="cls-1" d="m748.53,1803.33s-16.31,12.82-15.91,45.74,13.84,59.97,13.84,59.97"/>
      <path class="cls-1" d="m708,1845.5s-6.23,23.47-5.15,39.76c1.09,16.29,7.33,34.45,7.33,34.45"/>
      <path class="cls-1" d="m667.62,1869.13c-.37,2.25-8.01,16.8-5.82,32.14,2.19,15.34,5.82,30.44,5.82,30.44"/>
      <path class="cls-1" d="m652.07,1875.39s-19.78,16.99-24.8,39.36c-3.13,13.95,2.47,23.85,2.47,23.85"/>
      <path class="cls-1" d="m605.98,1891.19c-1.25,2.88-9.2,11.45-10.71,31.92-1.51,20.47,4.56,22.42,4.56,22.42"/>
      <path class="cls-1" d="m550.78,1952.86s-9.78-23.92.06-37.59c9.84-13.67,29.51-20.87,38.62-21.83,9.12-.96,15.35-2.25,15.35-2.25"/>
      <path class="cls-1" d="m545.73,1926.54s-2.49-6.95-2.49-12.98,2.49-10.65,2.49-10.65c0,0-29.67,2.31-45.02,22.21-15.35,19.89,0,39.75,0,39.75"/>
      <path class="cls-1" d="m461.85,1973.02s-14.07-19.07.88-39.13c14.95-20.06,32.7-22.75,32.7-22.75"/>
      <path class="cls-1" d="m431.82,1969.3s-12.24-21.12,3.86-42.62c16.1-21.49,34.58-25.23,34.58-25.23"/>
      <path class="cls-1" d="m408.91,1954.67s-5.08-13.73,7.07-30.13c12.14-16.4,27.86-22.77,27.86-22.77"/>
      <path class="cls-1" d="m378.32,1937.52s5.9-19.95,20.19-28.2c14.29-8.25,25.73-11.65,25.73-11.65"/>
      <path class="cls-1" d="m358.24,1921.13s3.29-14.88,15.15-22.58,22.95-10.4,31.82-10.98l8.87-.58"/>
      <path class="cls-1" d="m350.84,1907.48s3.14-15.05,16.8-23.33c14.8-8.97,19.04-5.87,19.04-5.87"/>
      <path class="cls-1" d="m346.12,1902.91s-1.14-11.72,9.26-23.92c7.27-8.53,7.92-7.93,7.92-7.93"/>
      <path class="cls-1" d="m329.65,1885.65s-.4-11.36,8.26-19c8.66-7.64,10.97-8,10.97-8"/>
      <path class="cls-1" d="m323.62,1873.79s-4.31-12.08,2.05-19.36c6.35-7.28,13.59-8.4,13.59-8.4"/>
      <path class="cls-1" d="m310.62,1849.83s2.53-4.24,8.79-9.39c6.26-5.16,8.1-5.85,8.1-5.85"/>
      <path class="cls-1" d="m304.61,1827.01s-1.72-3.8,3.22-8.28c4.94-4.48,12.87-7.27,12.87-7.27"/>
      <path class="cls-1" d="m301.31,1811.45s.29-4.14,3.3-7.5c3.02-3.36,9.41-5.89,9.41-5.89"/>
      <path class="cls-1" d="m295.45,1792.14s.24-4.48,7.16-8.56c6.91-4.08,11.41-5.6,11.41-5.6"/>
      <line class="cls-1" x1="294.32" y1="1772.62" x2="308.59" y2="1766.35"/>
      <line class="cls-1" x1="291.97" y1="1754.73" x2="305.14" y2="1743.3"/>
      <path class="cls-1" d="m299.96,1721.85c1.39-.93,2.65-1.95,2.65-1.95"/>
      <line class="cls-1" x1="301.46" y1="1704.8" x2="306.77" y2="1702.11"/>
      <g>
        <path class="cls-5" d="m1164.05,1829.68s-40.24-3.5-57.45,6.69c-17.21,10.2-29.09,25.59-29.09,25.59,0,0-21.26-1.46-34.8,9.95-13.54,11.41-16.18,26.79-16.18,26.79,0,0-23.17,1.04-34.9,18.24-11.73,17.21-12.11,29.02-12.11,29.02,0,0-20.74-5.13-35.59,7.17-14.86,12.3-14.06,34.79-14.06,34.79,0,0-20.41-8.99-33.28,1.86-12.87,10.85-17.15,27.23-17.15,27.23,0,0-17.62-2.49-30.92,8.16-13.3,10.65-8.61,31.1-8.61,31.1,0,0-18.12-14.75-50.5,0-32.39,14.75-27.82,25.57-27.82,25.57,0,0-13.17.33-28.03,8.44-14.86,8.11-19.07,35.81-19.07,35.81,0,0-18.53-2.53-29.74,0-24.9,5.63-34.3,32.67-34.3,32.67,0,0,5.16-2.09-22.89,2.13-28.04,4.22-29.47,28.69-29.47,28.69,0,0-8.58-.23-38.01,2.67-29.43,2.89-37.85,28.19-37.85,28.19,0,0-19.25-3.68-46.91,3.46s-32.14,29.72-32.14,29.72c-13.58-4.28-16.71-6.78-32.02,0-27.52,12.19-22.63,26.28-22.63,26.28,0,0-9.46-8.75-38.03,0-20.23,6.2-33.53,25.87-33.53,25.87,0,0-10.58-6.04-31.77-6.54-21.19-.5-30.31,19.19-30.31,19.19,0,0-8.64-8.78-34.44-1.44-17.56,5-31.24,25.85-31.24,25.85,0,0-25.66-19.86-65.29-8.33-21.48,6.25-32.73,28.9-32.73,28.9,0,0-6.37-9.18-42.63-8.98-36.26.21-47.15,22.82-47.15,22.82l5.66,162.28s29,10.59,41.49,10.59,52.58-28.69,52.58-28.69c0,0-1.73,12.15,26.34,12.15s67.16-46.06,67.16-46.06c0,0,18.55,6.54,39.34,12.72,20.79,6.17,56.91-50.93,56.91-50.93,0,0-10.35,6.73,19.88,7.11,30.23.38,51.3-30.2,51.3-30.2,0,0,7.47,3.93,35.79,0,28.31-3.93,45.31-46.7,45.31-46.7,0,0,16.01,23.95,39.92,0,0,0,55.12,3.06,66.87-24.98l11.75-28.04s18.45,21.28,36.38-24.17c0,0,44.46,21.61,64.55-31.19,0,0,35.55,13.88,57.14-20.42,0,0,23.04,14.94,52.13-24.15,0,0,35.86,13.59,61.84-41.54,0,0,52.86,14.55,70.03-33.72,0,0,63.99-7.25,75.73-58.43,0,0,54.34,4.16,60.99-48.32,0,0,32.95,6.67,36.34-30.78,0,0,33.67,2.71,38.22-43.36,0,0,28.18,25.14,39.99-25.82s30.48-69.86,30.48-69.86l-21.49-45.09Z"/>
        <path class="cls-3" d="m1164.05,1829.68s-40.24-3.5-57.45,6.69c-17.21,10.2-29.09,25.59-29.09,25.59,0,0-21.26-1.46-34.8,9.95-13.54,11.41-16.18,26.79-16.18,26.79,0,0-23.17,1.04-34.9,18.24-11.73,17.21-12.11,29.02-12.11,29.02,0,0-20.74-5.13-35.59,7.17-14.86,12.3-14.06,34.79-14.06,34.79,0,0-20.41-8.99-33.28,1.86-12.87,10.85-17.15,27.23-17.15,27.23,0,0-17.62-2.49-30.92,8.16-13.3,10.65-8.61,31.1-8.61,31.1,0,0-18.12-14.75-50.5,0-32.39,14.75-27.82,25.57-27.82,25.57,0,0-13.17.33-28.03,8.44-14.86,8.11-19.07,35.81-19.07,35.81,0,0-18.53-2.53-29.74,0-24.9,5.63-34.3,32.67-34.3,32.67,0,0,5.16-2.09-22.89,2.13-28.04,4.22-29.47,28.69-29.47,28.69,0,0-8.58-.23-38.01,2.67-29.43,2.89-37.85,28.19-37.85,28.19,0,0-19.25-3.68-46.91,3.46s-32.14,29.72-32.14,29.72c-13.58-4.28-16.71-6.78-32.02,0-27.52,12.19-22.63,26.28-22.63,26.28,0,0-9.46-8.75-38.03,0-20.23,6.2-33.53,25.87-33.53,25.87,0,0-10.58-6.04-31.77-6.54-21.19-.5-30.31,19.19-30.31,19.19,0,0-8.64-8.78-34.44-1.44-17.56,5-31.24,25.85-31.24,25.85,0,0-25.66-19.86-65.29-8.33-21.48,6.25-32.73,28.9-32.73,28.9,0,0-6.37-9.18-42.63-8.98-36.26.21-47.15,22.82-47.15,22.82l5.66,162.28s29,10.59,41.49,10.59,52.58-28.69,52.58-28.69c0,0-1.73,12.15,26.34,12.15s67.16-46.06,67.16-46.06c0,0,18.55,6.54,39.34,12.72,20.79,6.17,56.91-50.93,56.91-50.93,0,0-10.35,6.73,19.88,7.11,30.23.38,51.3-30.2,51.3-30.2,0,0,7.47,3.93,35.79,0,28.31-3.93,45.31-46.7,45.31-46.7,0,0,16.01,23.95,39.92,0,0,0,55.12,3.06,66.87-24.98l11.75-28.04s18.45,21.28,36.38-24.17c0,0,44.46,21.61,64.55-31.19,0,0,35.55,13.88,57.14-20.42,0,0,23.04,14.94,52.13-24.15,0,0,35.86,13.59,61.84-41.54,0,0,52.86,14.55,70.03-33.72,0,0,63.99-7.25,75.73-58.43,0,0,54.34,4.16,60.99-48.32,0,0,32.95,6.67,36.34-30.78,0,0,33.67,2.71,38.22-43.36,0,0,28.18,25.14,39.99-25.82s30.48-69.86,30.48-69.86l-21.49-45.09Z"/>
      </g>
      <path class="cls-1" d="m1077.52,1861.97s20.9-2.67,40.78,6.49c19.87,9.16,38.75,10.04,38.75,10.04"/>
      <line class="cls-1" x1="1115.08" y1="1970.45" x2="1133.89" y2="1871.92"/>
      <line class="cls-1" x1="1026.54" y1="1898.71" x2="1124.02" y2="1923.65"/>
      <line class="cls-1" x1="1076.87" y1="2013.8" x2="1079.45" y2="1913.96"/>
      <line class="cls-1" x1="979.53" y1="1945.97" x2="1077.52" y2="1961.73"/>
      <line class="cls-1" x1="1040.52" y1="2044.59" x2="1035.53" y2="1954.97"/>
      <line class="cls-1" x1="929.87" y1="1987.93" x2="1037.54" y2="1990.95"/>
      <path class="cls-1" d="m979.53,2092.9s9.19-51.08,6.63-71.53c-2.56-20.45-3.09-33.45-3.09-33.45"/>
      <line class="cls-1" x1="876.95" y1="2017.01" x2="986.16" y2="2030.8"/>
      <path class="cls-1" d="m903.8,2151.33s12.62-5.02,17.77-56.83,5.96-71.1,5.96-71.1"/>
      <path class="cls-1" d="m839.91,2056.27s26.53-4.35,47.9,2.06c21.37,6.41,36.61,5.98,36.61,5.98"/>
      <path class="cls-1" d="m833.77,2185.05s28.41-15.11,34.89-58.32c6.48-43.21,8.3-71.89,8.3-71.89"/>
      <path class="cls-1" d="m761.59,2081.85s25.03,14.97,54.89,17.85c29.87,2.88,55.81,2.28,55.81,2.28"/>
      <path class="cls-1" d="m771.92,2226.58s25.54-33.3,36.67-50.22c11.13-16.93,11.25-48.95,3.82-65.86-7.44-16.91-7.9-12.6-7.9-12.6"/>
      <path class="cls-1" d="m714.49,2126.09s30.46-2.74,62.14.07c25.39,2.25,39.66,5.29,40.73,5.37"/>
      <path class="cls-1" d="m650.45,2158.77s36.78.99,64.04,3.23c34.67,2.85,47.89,9.28,47.89,9.28"/>
      <path class="cls-1" d="m719.79,2250.74s24.16-36.69,38.96-70.57c16.96-38.84,9.9-54.49,9.9-54.49"/>
      <path class="cls-1" d="m662.65,2271.15s44.45-76.88,51.84-89.74c7.39-12.86,8.95-19.42,8.95-19.42"/>
      <path class="cls-1" d="m598.09,2189.58s74.3,4.12,85.21,5.57c10.91,1.46,23.11,2.11,23.11,2.11"/>
      <path class="cls-1" d="m522.23,2220.44c5.19,2.28,5.31,7.96,44.32,6.67,39.01-1.28,120.84.25,120.84.25"/>
      <path class="cls-1" d="m596.4,2301.26c.78-.99,17.15-32.17,22.6-44.64,5.46-12.47,11.3-32.72,11.3-32.72"/>
      <path class="cls-1" d="m562.25,2325s14.27-75.39,14.27-82.02,3.5-15.62,3.5-15.62"/>
      <line class="cls-1" x1="443.18" y1="2253.62" x2="566.15" y2="2291.79"/>
      <path class="cls-1" d="m485.05,2377.24s22.69-39.11,32.63-58.82c9.94-19.71,10.14-38.52,10.14-38.52"/>
      <line class="cls-1" x1="388.53" y1="2279.9" x2="517.68" y2="2318.42"/>
      <path class="cls-1" d="m443.18,2379.52c9.34-9.9,16.68-35.16,22.5-50.95,5.82-15.79,6.95-25.64,6.95-25.64"/>
      <path class="cls-1" d="m432.64,2293.05s-21.25,54.13-31.44,86.46c-10.19,32.33-39.12,46.7-39.12,46.7l27.89-54.33.79-3.45"/>
      <line class="cls-1" x1="537.05" y1="2227.36" x2="576.53" y2="2242.98"/>
      <path class="cls-1" d="m254.89,2318.42s95.58,37.96,110.12,44.98c14.53,7.01,25.76,5.05,25.76,5.05l14.77-2.09"/>
      <path class="cls-1" d="m290.91,2449.3s18.81-28.16,21.28-49.47c2.48-21.3,4.55-55.46,4.55-55.46"/>
      <line class="cls-1" x1="189.21" y1="2342.83" x2="312.53" y2="2396.84"/>
      <path class="cls-1" d="m189.21,2492.44s44.94-67.66,49.11-90.61c4.17-22.95,0-37.49,0-37.49"/>
      <path class="cls-1" d="m91.2,2363.39c4.24.86,95.33,46,108.08,59.87,12.75,13.87,19.76,20.73,19.76,20.73"/>
      <path class="cls-1" d="m101.15,2521.42s26.38-38.38,38.87-77.43c12.5-39.05,12.03-50.2,12.03-50.2"/>
      <path class="cls-1" d="m16.7,2396.84c.97-.89,126.4,31.55,126.4,31.55"/>
      <path class="cls-1" d="m10.12,2538.88s51.5-69.5,55.66-89.57c4.16-20.07,9.77-38.22,9.77-38.22"/>
      <line class="cls-1" x1="316.98" y1="2305.77" x2="418.39" y2="2330.47"/>
    </g>
  </g>
</svg>