<?xml version="1.0" encoding="UTF-8"?>
<svg id="Layer_2" data-name="Layer 2" xmlns="http://www.w3.org/2000/svg" viewBox="0 0 1716.22 1352.86">
  <defs>
    <style>
      .cls-1 {
        fill: #b02062;
      }

      .cls-1, .cls-2, .cls-3 {
        stroke-width: 0px;
      }

      .cls-2 {
        fill: #d11b47;
      }

      .cls-4 {
        fill: none;
        stroke: #a4004b;
        stroke-miterlimit: 10;
        stroke-width: 2.83px;
      }

      .cls-3 {
        fill: #a4004b;
      }
    </style>
  </defs>
  <g id="Phase_3" data-name="Phase 3">
    <g>
      <path class="cls-2" d="m105.52,520.72s51.49,143.92,215.46,201.61c163.96,57.69,682.28,70.08,682.28,70.08l21.89,220.28s-662.21-31.49-853.93-149.05C43.19,785.14,1.58,663.34,1.58,663.34l103.94-142.62Z"/>
      <path class="cls-4" d="m105.52,520.72s51.49,143.92,215.46,201.61c163.96,57.69,682.28,70.08,682.28,70.08l21.89,220.28s-662.21-31.49-853.93-149.05C43.19,785.14,1.58,663.34,1.58,663.34l103.94-142.62Z"/>
    </g>
    <path class="cls-3" d="m893.94,741.78s-144.02-107.58-292.39-34.7c-114.67,56.33-141.26,182.65-109.15,305.62,24.66,94.42,118.13,147.45,193.37,154.76,90.03,8.75,173.96-30.87,173.96-30.87l128.52,8.6s-15.27,74.76,113.93,151.89c132.38,79.02,249.04,60.67,388.24,26.69,139.2-33.98,225.79-95.28,225.79-95.28l-95.36-147.83s-124.67,53.05-244.56,74.83c-156.2,28.38-186.25-50.43-253.19-100-79.7-59.02-164.29-96.36-164.29-96.36l-214.83,35.94-60.1,18.42s-91.85-74.22-55.57-144.78c68.94-134.07,189.84-8.51,189.84-8.51l75.79-118.43Z"/>
    <g>
      <path class="cls-2" d="m1102.85,815.83s80.63-10.87,136.22,62.36c58.92,77.61,51.2,185.57-4.58,249.31-55.78,63.74-246.79,149.45-374.73,39.8-127.94-109.66-155.53-273.7-127.94-386.59,27.6-112.89,84.61-220.6,238.98-347.09C1132.51,301.13,1575.91,2.04,1575.91,2.04l68.96,124.13s-461.39,318.65-585.1,424.19c-82.44,70.33-135.38,184.84-156.1,292.81-20.73,107.97,62.3,185.19,62.3,185.19l136.88-212.53Z"/>
      <path class="cls-4" d="m1102.85,815.83s80.63-10.87,136.22,62.36c58.92,77.61,51.2,185.57-4.58,249.31-55.78,63.74-246.79,149.45-374.73,39.8-127.94-109.66-155.53-273.7-127.94-386.59,27.6-112.89,84.61-220.6,238.98-347.09C1132.51,301.13,1575.91,2.04,1575.91,2.04l68.96,124.13s-461.39,318.65-585.1,424.19c-82.44,70.33-135.38,184.84-156.1,292.81-20.73,107.97,62.3,185.19,62.3,185.19l136.88-212.53Z"/>
    </g>
    <path class="cls-3" d="m99.96,43.02s479.21,146.4,688.44,305.85c216.79,165.2,295.03,318.16,318.16,394.01,49.22,161.45-64.04,308.57-64.04,308.57,0,0-42.49,23.58-95.37-43.13-52.88-66.71-36.18-95.34-36.18-95.34,0,0,56.34-15.64,26.28-132.69-30.07-117.05-174.67-254.57-273.11-323.16-92.5-64.45-258.48-147.39-404.17-202.52-114.16-43.2-194.77-57.06-194.77-57.06L99.96,43.02Z"/>
    <g>
      <path class="cls-1" d="m973.53,762.24l-.11.49c.1-.03.16-.17.11-.49Z"/>
      <path class="cls-1" d="m978.88,874.48s.02.08.03.11c0-.08-.02-.1-.03-.11Z"/>
      <path class="cls-1" d="m969.73,780.67s0-.02,0-.02c-.03-.03-.05-.07-.08-.1l.09.12Z"/>
      <path class="cls-1" d="m965.17,758.98c.74,2.82.77,4.72,1.01,6.58.21,1.87.54,3.73,1.46,6.6.5,2.83,1.38,5.77,2.09,8.49,1.15,1.14.66,3.63,1.64,5.06l-.37.69c.33.5.6,1.1.43,1.68h-.14c.49.73.43,1.67.68,2.04h-.14s.23.95.23.95l-.23-.14c.64,1.34.82,2.79.81,4.09l.56-.19c-.3,2.82,1.03,3.67.58,6.24l-.14-.02c.98,1.47.81,2.75.65,4.03-.16,1.28-.33,2.56.53,4.12-.22-.39-.28.2-.43.18.29,1.47.52,3.06,1.66,3,.08,1.09-.28.91-.71,1.08.5-.04.75.9.82,1.75l-.21-.38.28,2.43.92-.53c-.21,1.31-1.13.39-.85,1.62l.78-.05c-.07,1.81-1.21,2.91-1.7,4.65-.07,3.6.31,7.32.63,11,.2,3.67.2,7.3-.59,10.62l-.6.26c-.85.08,1.13,1.91.33,2.12l.33.8c-.17.21-.37.66-.53.26-.09.72.05.74.27,1.28l-.59.73c-.65,2.79.29,5.29-.31,8.24-.75,1.73-1.07,4.28-1.18,6.91-.14,2.62-.22,5.31-.22,7.28.1,1.41-.09,2.82-.43,4.24-.39,1.41-.95,2.82-1.48,4.23-1.11,2.82-2.07,5.65-2.07,8.52-.16.15,0,.67.09.69l-1.33,4.96s-.09.38-.24,1c-.14.63-.34,1.5-.59,2.49-.49,1.98-1.01,4.45-1.16,6.42-.29,3.91.87,6,6.96-2.31l.14.18c.62-1.32,1.08-2.42,1.34-3.45.23-1.04.24-2.02.02-3.1,1.19-.02.68-2.27,1.2-2.84l.08.08c-.45-1.91,1.58-3.36,1.19-5.19.07.08.39.19.31.57.12-1.24.19-2.96.86-2.91.39-2.94,1.56-6.93.8-8.98l.16.16c-.54-1.19.11-1.4-.06-2.65.1-.05.15-.13.19-.11-.52-1.27.42-3.4.27-4.38h.45s.26-2.32.26-2.32l-.23.85c-1.16-.47,1.05-1.64.43-3.43.34-1.56-2.16-3.49-1.38-5.04-.48-.84.85.78.54-.42.64.03.34.58.88.34-.17-1.17.87-1.8.6-3.26h.5c-.73-1.93.92-3.44.16-4.74-.27-1.93,1.57-1.17.75-3.23l.73-.73c.17-.85-.78-.66-.38-1.58.42.08.43-1.17.79-.6.77-2.12-.78-4.39.44-7.17-.8-.64-.26-2.04-.87-2.51.37-.07.15-2.84.88-1.24.06.14.04.38-.1.36l.48.2c.99-1.6-.5-2.94-.35-4.53-.16.47-.11,1.1-.45.68l.06-1.48.41.31.23-2.21-.51.31c.26-1.08,1.12-1.48.39-2.68-.41-.54-.68,1.03-.85-.1.16-.72.4-1.63.55-2.59.15-.96.27-1.96.31-2.89-.57.19-.57-.3-.71-.81l.5-.08c-.78-1.93,1.06-.77.42-2.69l.35.15-1.06-.46c-1.07-1.69.99-1.01-.45-2.87.12.76-1.08.43-.91-.53l.49.21c-.12-.52-.34-.68-.27-1.03.29.29.71.12.56-.65l.64.47-1.01-1.39c.42-1.16-.38-2.88.25-3.4,0,0,.12-2.44-.67-2.92.5.44.56-.91,1.13-.58-.57-.58-1.15-2.38-.72-3.17l.08.13c.22-2.8-1.36-4.56-.99-7.09-.56.19-.41-1.14-1.1-.72-.51-1.21-.3-2.41-.3-3.38.02-.97-.12-1.71-1.32-1.98-.31-1.12.3-1.43.32-2.04l.16.25c-.54-2.1-.67-2.72-.89-4.31-.36-.75-1.4-.68-1.45-2.13.51.37.31-.19.2-.71.14.32.31.4.44-.35-.15-.07-.26-.21-.35-.33.03-.01.05-.04.1-.04-.33-.85-.43-.67-.4-.25-.07,0-.14.04-.23.19.34-1.02-.57-2.53.12-2.78-.75-2.6-1.79-4.34-2.64-6.43.3-.33.75.1,1.05.7l-.52-1.51c.52-.11.52.81.75,1.26.38-2.04-1.8-3.58-1.58-5.92l-.52-.34.04-.15c-.22.06-.63-.34-.78-.64.37-.42,1.05-.25.75-1.31.11-.48-.09-1.07-.4-1.66-.33-.59-.74-1.18-1.03-1.69.1.61-.21.49-.44.28-.17-.52.19-.95-.13-1.3l.59-.23c-.51.37-1.03-1.2-1.33-1.32.36-.43.63.7,1.01.73-.69-2.1-.34-1.05-1.03-3.14-.79-.99-.51.38-1.2,0-.41-.95-1.12-1.79-1.1-3.04l-.42.53c-1-1.71-1.35-2.81-1.23-4.23-4.5-6.08-6.21-6.19-6.78-4.89-.59,1.31-.08,4.08-.08,4.08.31,2.83,1.11,4.76,2.1,6.79.93,2.05,2.1,4.17,3.26,7.28Z"/>
    </g>
    <g>
      <path class="cls-1" d="m991.81,953.61l.23.09c-.08-.07-.17-.11-.23-.09Z"/>
      <path class="cls-1" d="m1003.26,939.49s-.02-.03-.03-.05c0,.02.02.03.03.05Z"/>
      <path class="cls-1" d="m999.64,956.42s0,0,0,0c.01.02.02.03.03.05l-.03-.05Z"/>
      <path class="cls-1" d="m996.83,958.85c.83-.57,1.83-.07,2.12-1.13.37-.31.5-.86.69-1.31-.51-.71.38-.48,0-1.13l.43.23c-.13-.22-.19-.41.07-.31l.1.09c-.2-.33.07-.31-.03-.48l.1.09.06-.17.14.15c-.15-.42-.02-.63.25-.68l-.46-.35c.79.06-.04-.83.82-.66l.11.09c-.86-1.37,1.33.03.54-1.31.1.17.25.17.35.26.03-.3.13-.55-.75-1.28.13-.13.37.11.72.37-.39-.32-.45-.57-.38-.7l.11.17.12-.42-.78-.54c.34,0,.92.69.88.38l-.61-.49c.31-.13,1.33.49,1.96.63,1.01-.71.27-2.95,2.04-2.94l.49.33c.68.53-.79-1.04-.15-.57l-.22-.35c.14.07.32.11.43.29.1-.07,0-.16-.15-.39l.49.24c.62-.1.07-1.06.55-1.31,1.22.23,1.15-1.26,1.1-2.13-.42-1.51,2.89-.16,2.34-1.8.11.05-.05-.18-.13-.24l.63-.58s2.85-2.96-4.62-5.06l-.13-.13c-.65.07-.91.23-.38,1.07-.92-.69-.33.22-.69.07l-.07-.07c.51.78-.94-.02-.5.7-.06-.07-.31-.27-.28-.33-.01.25.01.62-.51.2-.16.48-.82.79-.19,1.7l-.13-.13c.45.59-.06.24.1.62-.07-.05-.12-.07-.15-.09.43.6-.26.5-.12.81l-.35-.27-.16.36.16-.05c.92.81-.77-.27-.33.45-.28.1,1.64,2.01,1.01,1.84.36.46-.65-.68-.43-.25-.5-.4-.25-.32-.68-.61.12.33-.7-.18-.51.27l-.39-.31c.51.81-.86.02-.32.72.12.5-1.27-.78-.72.09l-.6-.33c-.17.04.58.6.23.51-.32-.28-.38-.07-.64-.39-.73-.15.29,1.14-.87.77.58.6.05.46.48.91-.29-.22-.33.32-.78-.38-.04-.06,0-.08.11.01l-.36-.33c-.88-.39.1.68-.18.79.17.04.2-.06.42.2l-.2.14-.29-.3-.41.12.43.29c-.31-.03-1.02-.53-.58.07.26.32.63.31.64.55-.42-.04-1.04-.11-1.34.03.46.34.39.39.43.53l-.39-.31c.34.68-.92-.6-.69-.02l-.25-.24.75.72c.59.84-.9-.54-.05.56.01-.15.89.65.62.63l-.35-.33c.03.13.16.28.05.26-.17-.2-.52-.46-.54-.32l-.41-.45.54.74c-.51-.19-.19.44-.76.07,0,0-.5.09.02.63-.31-.35-.58-.3-.96-.69.34.41.48.91-.02.65l-.03-.06c-.72-.02.13,1.07-.66.94.46.35.08.31.69.74.31.78-1.63-.38.04,1.18-.02.22-.55-.17-.7-.17l-.07-.11c-.08.39-.12.48-.33.64.09.24.9.93.55.94-.28-.33-.28-.2-.33-.14-.02-.08-.13-.2-.42-.29.09.1.14.17.17.23-.03-.02-.05-.03-.08-.06.02.21.14.27.23.25.05.04.12.09.22.15-.52-.23-.24.35-.81-.1-.14.44.24,1.15.23,1.61-.31-.21-.52-.48-.56-.65l-.06.28c-.41-.34-.15-.31-.18-.44-.86-.31.27,1.03-.57.81l.28.33-.07-.03c.17.14.36.4.38.48-.39-.26-.83-.69-.92-.53-.44-.18-.08.45,0,.75.12-.03.3.16.4.3-.04.08-.44-.18-.32,0l-.49-.39c.48.35.35.58.53.77-.39-.26-.22-.36-.48-.6-.18.31-.09.16-.27.47.25.45.48.35.85.77-.01.21.23.61-.19.52l.47.31c.14.52-.03.62-.6.43,2.05,4.69,4.5,4.32,4.5,4.32,1.54.07.58-1.33.94-2.45Z"/>
    </g>
    <g>
      <path class="cls-1" d="m973.55,668.22l-.05.46c.1-.05.14-.18.05-.46Z"/>
      <path class="cls-1" d="m1002.19,766.12s.04.06.07.09c-.03-.06-.05-.08-.07-.09Z"/>
      <path class="cls-1" d="m972.32,685.58v-.02s-.07-.05-.1-.07l.1.09Z"/>
      <path class="cls-1" d="m964.99,666.74c1.01,2.46,1.32,4.16,1.78,5.81.44,1.66,1,3.3,2.27,5.74.9,2.46,2.18,4.96,3.26,7.28,1.26.81,1.21,3.14,2.39,4.23l-.25.69c.4.38.76.87.69,1.42l-.14.02c.6.57.69,1.43.99,1.71l-.14.02.38.82-.24-.08c.83,1.07,1.27,2.33,1.5,3.5l.52-.29c.21,2.59,1.65,3.06,1.67,5.46l-.14.02c2.4,2.23.4,4.63,2.7,7-.29-.3-.24.24-.38.25.57,1.25,1.1,2.61,2.19,2.29.29.95-.1.88-.48,1.13.48-.15.92.62,1.16,1.35l-.29-.29.79,2.09.78-.69c.07,1.21-1.02.61-.48,1.63l.75-.23c.31,1.61-.56,2.86-.68,4.53.72,3.2,1.95,6.38,3.09,9.54,1.07,3.18,1.96,6.36,2,9.47l-.51.39c-.8.3,1.59,1.37.86,1.77l.53.61c-.11.23-.18.67-.44.37.1.65.24.63.59,1.04l-.38.8c.11,2.61,1.63,4.55,1.89,7.28-.24,1.71.17,4.03.78,6.34.6,2.32,1.34,4.66,1.91,6.37.51,1.18.74,2.47.83,3.79.06,1.33-.02,2.71-.1,4.09-.17,2.76-.24,5.5.73,7.96-.1.18.21.58.31.56l.37,4.66s.04.35.1.93c.07.58.17,1.39.28,2.32.23,1.84.59,4.11,1.13,5.84,1.08,3.43,2.89,4.77,5.73-4.24l.19.1c.12-1.32.18-2.39.06-3.34-.13-.95-.44-1.79-1-2.63,1.12-.4-.11-2.14.2-2.78l.1.05c-1.05-1.48.39-3.34-.57-4.77.1.05.42.04.48.39-.28-1.09-.74-2.57-.09-2.74-.53-2.62-.69-6.37-2.01-7.9l.2.09c-.87-.85-.3-1.23-.84-2.25.08-.07.11-.15.15-.15-.87-.94-.59-3.04-1.03-3.83l.43-.13-.43-2.07.03.79c-1.25-.07.52-1.71-.56-3.07-.11-1.44-3.03-2.4-2.71-3.96-.69-.59,1.03.44.4-.52.62-.15.48.41.93.05-.49-.96.33-1.8-.32-2.98l.48-.15c-1.21-1.46,0-3.22-1.08-4.14-.76-1.6,1.21-1.44-.12-3l.51-.83c-.05-.78-.92-.36-.78-1.27.42-.04.11-1.13.6-.73.22-2.04-1.82-3.61-1.31-6.35-.93-.35-.75-1.71-1.45-1.96.34-.15-.54-2.51.55-1.3.09.11.13.32,0,.34l.51.05c.57-1.64-1.16-2.44-1.38-3.87-.05.45.14.99-.28.71l-.28-1.31.47.17-.28-1.99-.42.4c0-1.01.75-1.57-.23-2.44-.52-.38-.43,1.07-.84.12.02-1.35-.01-3.37-.34-5.01-.51.31-.61-.13-.85-.54l.46-.19c-1.16-1.5.87-.93-.15-2.46l.38.05-1.13-.15c-1.39-1.24.75-1.12-1.03-2.42.27.64-.96.63-.99-.25l.52.07c-.23-.43-.47-.52-.47-.84.33.19.71-.06.42-.7l.72.27-1.24-.99c.18-1.12-.92-2.46-.4-3.06,0,0-.35-2.18-1.21-2.43.57.28.37-.93.99-.77-.67-.38-1.58-1.84-1.28-2.64l.1.1c-.27-2.53-2.12-3.75-2.2-6.08-.51.29-.6-.92-1.2-.4-1.42-1.92-.04-4.44-2.45-4.43-.48-.93.07-1.34-.01-1.89l.2.19c-.86-1.77-1.08-2.29-1.54-3.67-.46-.6-1.48-.32-1.73-1.62.55.23.28-.23.1-.68.18.26.36.3.38-.4-.16-.04-.28-.13-.39-.23.03-.02.04-.05.09-.05-.44-.7-.51-.52-.42-.15-.07,0-.13.07-.2.22.19-.98-.91-2.16-.28-2.52-1.08-2.19-2.38-3.53-3.46-5.27.25-.35.75-.05,1.11.43l-.7-1.27c.5-.2.61.64.89,1,.11-1.91-2.2-2.9-2.27-5.05l-.55-.21.02-.14c-.2.1-.66-.19-.85-.44.31-.45.99-.42.57-1.32.11-.91-1.11-1.95-1.78-2.78.16.54-.15.48-.4.33-.22-.44.08-.9-.26-1.16l.55-.31c-.46.42-1.13-.91-1.44-.97.3-.45.69.53,1.06.49-.89-1.78-.45-.89-1.34-2.67-.88-.76-.46.43-1.17.2-.51-.8-1.29-1.43-1.4-2.57l-.36.55c-1.15-1.39-1.57-2.35-1.59-3.66-4.94-4.84-6.63-4.7-7.08-3.42-.46,1.29.29,3.75.29,3.75.57,2.54,1.52,4.21,2.69,5.91,1.14,1.71,2.52,3.46,3.99,6.1Z"/>
    </g>
    <g>
      <path class="cls-1" d="m612.23,1071.71h.29c-.09-.06-.19-.08-.29,0Z"/>
      <path class="cls-1" d="m641.63,1040.35s0-.04,0-.07c-.01.03,0,.05,0,.07Z"/>
      <path class="cls-1" d="m622.37,1071.16h0s0,.05.02.08l-.02-.08Z"/>
      <path class="cls-1" d="m617.01,1077.47c1.46-1.64,2.69-1.45,3.63-3.53.71-.8,1.2-1.86,1.72-2.77-.38-.92.84-1.09.65-1.99l.52.12c-.06-.31-.04-.6.29-.6l.1.1c-.09-.46.29-.6.24-.83l.1.1.18-.33.11.18c.03-.66.37-1.09.81-1.34l-.47-.34c1.16-.37.49-1.44,1.67-1.65l.1.1c-.4-1.91,2.01-.7,1.72-2.57.03.23.27.15.36.25.25-.53.58-1.03-.26-1.81.28-.3.49,0,.85.25-.37-.34-.28-.73-.08-.99l.04.24.5-.78-.81-.51c.53-.17.92.7,1.08.2l-.57-.53c.58-.39,1.7.14,2.56.07,1.05-.85,1.75-2.11,2.51-3.29.79-1.16,1.67-2.2,3.04-2.56l.48.35c.61.59-.35-1.39.26-.88l-.05-.48c.16.06.4.06.43.3.22-.16.13-.26.1-.59l.57.2c1.06-.39,1.04-1.78,2.03-2.34,1.72-.05,2.99-2.43,3.78-3.79.39-1.15,1.6-1.43,2.8-1.69,1.2-.27,2.35-.57,2.78-1.75.13.06.11-.27.05-.34l1.63-1.02s.48-.33,1.06-.82c.58-.49,1.26-1.17,1.63-1.91.73-1.47.35-3.26-4.69-4.13l-.06-.18c-1.17.24-1.8.56-1.87,1.77-.77-.87-.8.43-1.23.28l-.04-.09c-.02,1.11-1.56.21-1.61,1.23-.03-.09-.21-.35-.1-.46-.29.4-.65,1-1.08.48-.79.83-2.25,1.53-2.15,2.82l-.08-.18c.13.82-.35.42-.48.99-.07-.05-.13-.07-.15-.1.1.84-.94.9-1.03,1.37l-.3-.33-.63.64.32-.14c.69,1.02-1.02-.17-1,.86-.56.28.72,2.73-.14,2.68.15.63-.41-.88-.46-.25-.43-.47-.1-.44-.52-.75-.13.51-.97-.03-1.1.65l-.34-.36c.07,1.15-1.43.4-1.2,1.36-.26.79-1.35-.77-1.26.46l-.67-.3c-.32.14.38.76-.1.77-.27-.33-.57.06-.68-.38-1.06.08-.56,1.83-2.12,1.76.4.76-.33.78-.03,1.34-.27-.24-.83.71-.93-.27,0-.08.07-.14.16-.03l-.29-.4c-1.1-.24-.44,1.16-.97,1.48.24-.01.38-.21.5.14l-.45.35-.21-.38-.77.43.44.28c-.48.11-1.2-.4-1.01.44.14.43.77.2.57.62-.64.14-1.59.38-2.18.79.46.35.31.47.27.69l-.38-.33c-.01,1.02-.98-.55-1.1.37l-.21-.29.63.85c.26,1.16-1.01-.44-.53,1.02.14-.27.9.64.5.76l-.29-.39c-.06.21.04.4-.12.43-.11-.26-.47-.52-.61-.24l-.31-.55.28,1.01c-.67-.03-.64.92-1.26.6,0,0-.87.47-.45,1.12-.22-.44-.69-.18-1-.64.23.52.08,1.33-.52,1.19v-.08c-1.12.44-.58,1.88-1.71,2.15.47.34-.09.52.56.89-.07,1.19-2.28.43-.73,2.13-.18.42-.74.07-.98.18l-.03-.16c-.37.76-.5.96-.93,1.41-.01.38.79,1.06.26,1.34-.23-.4-.3-.17-.42,0,.03-.14-.07-.27-.46-.23.08.11.11.21.13.29-.03-.02-.05-.03-.09-.06-.09.36.05.4.19.3.05.05.12.08.24.12-.65-.05-.56.81-1.17.41-.48.93-.34,1.94-.6,2.8-.36-.14-.51-.5-.48-.78l-.24.57c-.43-.32-.05-.46-.03-.68-1.12.08-.16,1.72-1.3,1.94l.24.39h-.09c.18.13.32.46.31.6-.45-.17-.88-.63-1.1-.27-.57.01-.36.9-.39,1.4.2-.15.37.06.45.24-.1.18-.56.02-.48.27l-.53-.34c.54.27.23.81.4,1.02-.45-.16-.15-.49-.42-.73-.42.73-.21.37-.63,1.09.15.63.54.26.88.75-.12.39.04.95-.53,1.12l.55.19c-.04.85-.32,1.19-1.06,1.3.46,3.52,1.67,4.55,2.71,4.74,1.05.19,1.95-.46,1.95-.46,2.13-1.09,1.34-2.84,2.37-5.14Z"/>
    </g>
    <g>
      <path class="cls-1" d="m604.26,1048.03h.3c-.09-.07-.19-.09-.3,0Z"/>
      <path class="cls-1" d="m639.84,1018.96s.02-.04.02-.07c-.02.03-.02.05-.02.07Z"/>
      <path class="cls-1" d="m614.61,1047.46h0s0,.05.02.08v-.08Z"/>
      <path class="cls-1" d="m608.96,1053.89c.71-.88,1.45-1.23,2.07-1.66.63-.43,1.17-.92,1.69-1.97.77-.8,1.31-1.86,1.89-2.79-.33-.96.93-1.07.8-2l.52.14c-.04-.32,0-.61.34-.59l.09.1c-.06-.48.34-.59.31-.83l.09.11.21-.33.1.19c.08-.68.48-1.09.95-1.32l-.44-.38c1.22-.3.65-1.43,1.87-1.56l.09.11c-.19-1.98,2.13-.53,2.07-2.46,0,.24.25.18.33.29.32-.51.72-.99-.01-1.86.33-.28.49.04.82.34-.33-.38-.17-.77.07-1v.24s.64-.73.64-.73l-.75-.61c.57-.11.83.81,1.07.32l-.5-.6c.65-.33,1.71.33,2.58.37,1.2-.72,2.14-1.88,3.13-2.97,1.02-1.04,2.14-1.94,3.59-2.07l.41.44c.49.7-.05-1.44.45-.82l.06-.49c.15.09.39.14.36.38.26-.11.19-.24.23-.56l.53.31c1.16-.18,1.44-1.6,2.59-1.93.88.16,1.77-.28,2.59-.92.82-.62,1.61-1.38,2.18-1.97.36-.51.86-.77,1.42-.9.57-.11,1.22-.07,1.85-.05,1.28.06,2.48.05,3.28-.95.11.09.19-.22.16-.32l1.93-.51s.14-.05.38-.13c.23-.09.56-.21.93-.35.74-.28,1.63-.72,2.26-1.31.62-.59.99-1.34.64-2.24-.36-.9-1.43-1.97-3.83-3.16v-.19c-1.27-.14-2.04-.01-2.52,1.16-.47-1.06-.96.19-1.34-.07v-.1c-.4,1.07-1.67-.23-2.07.75,0-.09-.1-.4.05-.47-.43.32-.99.82-1.26.2-1.07.62-2.8.94-3.09,2.24l-.02-.19c-.12.85-.48.34-.78.88-.06-.07-.11-.1-.12-.13-.15.85-1.23.68-1.46,1.12l-.21-.39-.83.49.37-.06c.42,1.15-1-.4-1.26.65-.65.17,0,2.87-.86,2.64-.01.65-.19-.95-.4-.34-.31-.56,0-.46-.34-.85-.27.48-.99-.22-1.3.43l-.26-.43c-.22,1.16-1.56.15-1.58,1.16-.47.75-1.2-1.01-1.42.25l-.62-.42c-.36.09.21.83-.3.75-.2-.37-.6-.04-.62-.5-1.11-.08-1,1.78-2.59,1.48.24.83-.52.74-.33,1.36-.23-.28-1.01.6-.91-.41.01-.08.1-.13.18,0l-.21-.45c-1.09-.39-.7,1.13-1.32,1.39.25.02.44-.17.49.2l-.53.31-.14-.41-.88.35.4.34c-.51.05-1.16-.55-1.14.33.06.46.75.3.47.7-.7.06-1.72.21-2.41.58.41.4.24.52.15.74l-.33-.37c-.2,1.05-.92-.66-1.2.28l-.17-.31.5.94c.07,1.22-.97-.54-.73,1,.19-.27.82.74.38.82l-.24-.43c-.1.21-.02.41-.2.43-.07-.28-.4-.58-.59-.3l-.23-.6.13,1.07c-.69-.08-.8.9-1.4.52,0,0-.97.43-.64,1.13-.16-.47-.69-.23-.95-.73.16.56-.12,1.38-.71,1.2v-.09c-1.21.4-.84,1.93-2.05,2.17.45.37-.16.53.46.95-.22,1.22-2.4.38-.99,2.2-.23.43-.77.05-1.02.16v-.17c-.47.79-.63.99-1.11,1.45-.05.39.71,1.12.15,1.41-.2-.42-.29-.18-.43-.01.04-.15-.05-.29-.45-.24.07.12.1.22.11.31-.03-.02-.05-.03-.08-.06-.12.38.02.42.18.32.04.05.12.09.24.12-.66-.05-.64.84-1.23.42-.56.98-.51,2.03-.81,2.94-.36-.14-.49-.52-.45-.82l-.28.61c-.42-.33-.02-.49.01-.72-1.16.11-.26,1.81-1.43,2.08l.23.4h-.09c.18.13.31.47.29.62-.46-.17-.87-.63-1.12-.25-.59.03-.41.96-.45,1.49.2-.17.37.05.45.23-.11.2-.57.04-.5.3l-.54-.33c.54.26.21.85.38,1.06-.46-.15-.15-.51-.41-.75-.45.79-.22.4-.67,1.19.14.66.55.25.89.74-.13.42.02.99-.56,1.2l.56.17c-.04.89-.31,1.27-1.07,1.43.51,3.66,1.78,4.6,2.83,4.73,1.07.12,1.96-.59,1.96-.59,1.07-.61,1.37-1.35,1.55-2.24.21-.87.27-1.92.79-3.11Z"/>
    </g>
    <path class="cls-3" d="m592.16,846.66c10.49-19.05,25.59-35.49,43.67-47.57,5.07-3.39,10.36-6.42,15.84-9.1,1.73-.85.22-3.44-1.51-2.59-19.89,9.73-37.28,24.3-50.49,42.05-3.72,5-7.09,10.24-10.09,15.7-.93,1.69,1.66,3.21,2.59,1.51h0Z"/>
    <g>
      <path class="cls-1" d="m608.6,835.74l.37-.13c-.09-.06-.21-.04-.37.13Z"/>
      <path class="cls-1" d="m669.52,782.09s.04-.05.05-.08c-.04.04-.05.06-.05.08Z"/>
      <path class="cls-1" d="m622.2,830.45s-.01.01-.01.01c0,.04,0,.07,0,.1v-.11Z"/>
      <path class="cls-1" d="m612.37,842.99c2.58-3.32,4.11-3.59,6.27-7.35,1.29-1.6,2.41-3.51,3.54-5.17-.09-1.29,1.63-2.07,1.78-3.4l.65-.04c.05-.46.22-.92.67-1.05l.09.11c.09-.68.68-1.04.73-1.38l.09.11.41-.58.07.22c.35-1.03,1.03-1.83,1.77-2.41l-.49-.33c1.77-1.06,1.38-2.39,3.15-3.18l.09.11c.41-2.71,3.18-1.86,3.76-4.51-.08.33.3.12.38.24.64-.86,1.38-1.72.6-2.56.57-.54.7-.19,1.08.06-.35-.36,0-.97.42-1.41l-.07.33,1.16-1.32-.89-.46c.86-.44.95.68,1.45-.09l-.54-.57c1.06-.75,2.42-.36,3.71-.75,2.03-1.55,3.8-3.54,5.69-5.36.94-.91,1.93-1.75,2.95-2.5,1.03-.73,2.14-1.31,3.3-1.7l.5.37c.54.65.39-1.77.98-1.21l.25-.63c.21.04.58,0,.45.32.44-.25.38-.37.55-.79l.74.15c1.93-.67,2.84-2.47,4.81-3.3,2.71-.33,6.49-3.27,8.8-4.91.77-.67,1.69-1.08,2.69-1.37,1-.27,2.08-.38,3.15-.51,1.06-.15,2.15-.19,3.15-.44,1-.25,1.95-.59,2.79-1.2.16.08.4-.27.37-.37,1.16-.31,2.33-.55,3.51-.78,0,0,1.05-.26,2.44-.61,1.38-.35,3.08-.88,4.37-1.44,1.28-.6,2.15-1.35,1.8-2.28-.35-.9-1.92-2.08-5.75-3.2l.06-.2c-1.08-.02-1.97,0-2.73.19-.76.21-1.4.58-2,1.21-.5-1.06-1.73.27-2.29.06l.02-.1c-1.01,1.21-2.78.01-3.75,1.14.02-.1-.05-.42.22-.52-.83.42-1.93,1.05-2.2.44-1.02.41-2.26.8-3.36,1.32-1.1.5-2.08,1.05-2.52,1.83l.02-.21c-.46.97-.9.49-1.58,1.17-.08-.06-.15-.08-.16-.12-.52.97-2.25,1.1-2.75,1.68l-.23-.39-1.51.81.62-.18c.33,1.19-1.51-.15-2.26,1.13-1.11.4-.92,3.3-2.22,3.35-.22.78,0-1.06-.54-.26-.33-.55.16-.54-.28-.88-.58.67-1.52.09-2.21.97l-.28-.41c-.71,1.46-2.53.74-2.86,1.95-.98,1.06-1.58-.76-2.29.85l-.84-.26c-.59.25.07.93-.69,1.04-.2-.38-.92.19-.8-.36-1.67.35-2.11,2.56-4.42,2.87.12.93-1,1.16-.9,1.85-.26-.26-1.7,1.2-1.24-.12.04-.11.19-.21.27-.09l-.18-.47c-1.52-.03-1.39,1.73-2.4,2.33.37-.09.71-.41.67.05l-.89.62-.08-.46c-.47.27-.95.54-1.41.83l.49.25c-.77.3-1.54-.18-1.76.95-.05.57,1.01.04.48.7-1.04.4-2.57,1.05-3.68,1.84.48.34.19.57,0,.9l-.37-.34c-.6,1.46-1.14-.47-1.81.91l-.14-.34.43,1.02c-.26,1.59-1.21-.28-1.32,1.67.35-.44.95.61.3.93l-.21-.47c-.21.33-.16.57-.41.67-.02-.35-.4-.59-.74-.13l-.15-.7-.14,1.38c-.94.21-1.41,1.58-2.13,1.34,0,0-1.46,1.04-1.21,1.84-.09-.57-.89,0-1.09-.57.06.69-.56,1.95-1.33,1.98l.02-.12c-1.77,1.09-1.74,3.03-3.42,3.93.49.32-.37.82.34,1.13-.67,1.85-3.32,1.6-2,3.56-.44.72-1.05.41-1.41.68l.03-.23c-.84,1.34-1.1,1.71-1.87,2.58-.19.59.58,1.32-.25,1.98-.13-.52-.32-.14-.56.17.1-.24.02-.39-.51-.16.06.14.06.27.04.4-.03-.02-.06-.02-.09-.05-.28.6-.1.59.12.39.04.05.12.08.27.08-.84.2-1.11,1.5-1.74,1.13-1.02,1.67-1.27,3.21-1.97,4.69-.41-.07-.46-.57-.3-1.04l-.56,1.01c-.43-.32.13-.72.25-1.07-1.5.61-.95,2.78-2.5,3.64l.16.52-.11.04c.19.12.23.59.16.83-.51-.08-.88-.63-1.3.04-.73.26-.82,1.6-1.07,2.42.31-.32.45-.06.48.19-.21.34-.72.27-.72.63l-.55-.32c.58.2-.04,1.21.09,1.48-.51-.07,0-.73-.23-1.01-.83,1.35-.42.67-1.24,2.03-.06.97.58.2.82.84-.3.69-.33,1.54-1.11,2.05l.62.08c-.39,1.41-.88,2.08-1.86,2.57-.81,5.61.27,6.87,1.5,6.74,1.23-.12,2.64-1.61,2.64-1.61,3.17-2.74,2.88-5.35,5.18-9.57Z"/>
    </g>
    <g>
      <path class="cls-1" d="m301.99,224.72l.56.51c.03-.1-.09-.26-.56-.51Z"/>
      <path class="cls-1" d="m467.59,301.73c.06,0,.12.03.18.03-.12-.04-.16-.04-.18-.03Z"/>
      <path class="cls-1" d="m324.15,243.59s-.02-.01-.03-.02c-.06,0-.14-.02-.19-.02l.23.04Z"/>
      <path class="cls-1" d="m291.01,227.59c8.65,4.3,10.52,6.36,19.79,10.16,4.3,2.08,9.03,3.99,13.32,5.83,2.36.16,5.57,2.56,8.24,3.01l.72.86c.92.16,1.95.45,2.67,1.07l-.11.1c1.38.24,2.67,1.07,3.35,1.19l-.11.1,1.51.63-.34.06c2.3.64,4.51,1.63,6.37,2.69l.08-.6c3.88,2.5,5.9,2.11,9.32,4.54l-.11.1c5.37.79,7.04,4.4,12.53,5.33-.68-.12.14.39.03.5,2.32.89,4.75,1.92,5.26.9,1.63.77,1.18.94,1.21,1.44.2-.46,1.71.01,3,.57l-.67-.1,3.73,1.54-.32-1.19c1.83,1.14.01,1.27,1.97,1.92l.3-.72c2.62,1.38,3.7,3.18,6.06,4.91,10.66,5.29,23.1,8.86,32.54,14.79l.19.74c-.17.87,3.3.14,3.35,1.04l1.33.19c.26.29.88.76.22.67,1.06.54,1.15.42,2.04.55l.93,1.02c4.07,2.37,8.12,3.14,12.5,5.44,4.9,3.52,15.4,7.43,21.45,9.71,8.71,2.79,16.65,10.46,25.56,13.33.22.24,1.03.35,1.07.26l7.52,3.91s9.15,4.68,15.21,6.82c6.06,2.14,9.04,1.74-3.34-8.45l.27-.07c-3.95-2.49-6.52-3.89-9.81-4.49.06-1.26-3.36-1.82-4.17-2.64l.13-.04c-2.93-.48-4.89-3.28-7.69-3.79.14-.03.33-.29.9-.03-1.84-.76-4.39-1.76-4.23-2.42-4.35-1.95-10.18-5.15-13.39-5.52l.27-.08c-1.88-.11-2.07-.88-3.98-1.4-.06-.12-.16-.23-.12-.25-2.01-.19-5.02-2.3-6.53-2.69l.1-.44-3.44-1.54,1.23.69c-.97.89-2.24-1.92-5.05-2.39-2.24-1.24-5.78.07-7.91-1.61-1.39-.03,1.41-.36-.49-.78.22-.6.97.02.75-.65-1.81-.52-2.48-1.89-4.73-2.48l.13-.49c-3.09-.46-4.82-3-6.99-3.06-2.96-.94-1.24-2.22-4.56-2.7l-.84-1.14c-1.2-.68-1.24.33-2.48-.61.26-.34-1.6-1.12-.62-1.11-2.84-2.06-6.74-2.11-10.38-5.04-1.24.33-3.11-1.08-4.04-.82.04-.38-4.13-1.98-1.47-1.61.23.04.58.21.49.33l.48-.31c-1.96-1.93-4.48-1.52-6.75-2.73.62.47,1.56.85.8.87l-2.13-1.06.62-.17-3.12-1.71.23.67c-1.47-.97-1.66-2.01-3.74-2.17-.97,0,1.2,1.31-.53.69-1.96-1.29-4.89-3.22-7.52-4.6.01.64-.7.28-1.5.05l.12-.49c-3.14-.69-.59-1.48-3.65-2.29l.4-.2-1.18.6c-2.97-.28-.94-1.57-4.35-1.66,1.16.44.07,1.24-1.22.41l.55-.27c-.81-.26-1.15-.2-1.61-.52.56-.03.53-.52-.62-.97l1.01-.2-2.5-.18c-1.42-1.23-4.3-1.84-4.69-2.77,0,0-3.39-1.93-4.51-1.63.9-.09-.97-1.15-.19-1.38-1.13.05-4.01-.81-4.86-1.81l.23.04c-3.76-2.36-7.16-2.45-10.46-4.73-.08.6-1.84-.56-1.68.33-4.02-1.05-6.14-4.49-8.43-3.03-1.74-.67-1.78-1.41-2.6-1.92l.45.08c-3.24-1.29-4.17-1.69-6.5-2.83-1.27-.34-1.9.54-3.89-.66.86-.07-.04-.39-.82-.76.53.17.75.1-.16-.63-.2.05-.46.02-.7-.02,0-.03-.03-.08.02-.11-1.38-.47-1.2-.25-.62.09-.06.04-.04.14.1.34-1.13-1.12-3.81-1.72-3.67-2.45-4.02-1.67-7.15-2.29-10.55-3.55-.21-.51.69-.45,1.71-.15l-2.39-.95c.25-.48,1.47.34,2.23.57-2.41-2.07-6.08-1.85-9-4.08l-.85.07-.16-.15c-.08.21-.94.15-1.45,0-.26-.64.48-.96-1.14-1.68-1.08-1-3.71-1.47-5.48-2.01.87.49.47.59.01.56-.81-.36-1.08-1-1.79-1.1l.19-.61c.07.69-2.37-.39-2.78-.29-.26-.64,1.42.21,1.77-.02-3.25-1.44-1.63-.72-4.88-2.16-1.92-.36.06.69-.99.81-1.57-.59-3.24-.88-4.83-2.03l.32.76c-3.04-.93-4.72-1.77-6.41-3.18-23.19-5.69-7.09,3.58-7.09,3.58,7.86,4.99,12.87,5.51,23.02,9.72Z"/>
    </g>
    <g>
      <path class="cls-1" d="m1258.76,1198.1l.33.43c.04-.1-.03-.24-.33-.43Z"/>
      <path class="cls-1" d="m1381.81,1210.22s.07-.05.1-.07c-.08.03-.1.06-.1.07Z"/>
      <path class="cls-1" d="m1274.03,1212.76s-.02,0-.03,0c-.05,0-.1,0-.15.01h.17Z"/>
      <path class="cls-1" d="m1249.86,1201.38c1.47.97,2.68,1.76,3.73,2.52,1.07.72,2.01,1.36,2.95,2,1.92,1.22,3.95,2.36,7.41,3.57,3.21,1.37,6.78,2.43,10.05,3.29.89-.15,1.95.15,3.05.48,1.09.33,2.22.68,3.23.56l.59.65c.69-.08,1.47-.04,2.04.36l-.07.13c1.03-.14,2.05.31,2.56.24l-.07.13,1.16.2-.24.15c1.74-.05,3.44.29,4.92.72l-.02-.59c3.11,1.21,4.47.19,7.27,1.37l-.06.13c1.94-.52,3.35-.06,4.79.36,1.44.44,2.9.87,4.87.32-.49.14.18.32.12.45,1.76,0,3.64.04,3.75-1.09,1.27.11,1.01.44,1.14.89.03-.5,1.14-.64,2.13-.6l-.47.16h2.85s-.5-.97-.5-.97c1.48.35.32,1.17,1.77,1.01l.02-.78c2.06.27,3.23,1.49,5.23,2.14,8.38.63,17.35-1.32,25.06.1l.34.59c.15.86,2.15-1.26,2.44-.47l.91-.39c.25.15.79.32.34.51.84.03.86-.11,1.46-.37l.9.53c3.33.39,6.14-.7,9.67-.66,2.14.44,5.23.26,8.33-.28,3.1-.53,6.2-1.45,8.43-2.21,3.07-1.28,6.61-1.66,10.21-2.41,3.57-.73,7.23-1.86,9.89-4.22.26,0,.63-.54.57-.62,1.83-1.05,3.64-2.15,5.35-3.43,0,0,1.58-1.13,3.41-2.91.93-.87,1.87-1.95,2.77-3.04.85-1.14,1.65-2.27,2.2-3.37.59-1.06.9-2.07,1-2.79.09-.72-.09-1.18-.6-1.28-.52-.1-1.38.17-2.64.85-.64.33-1.42.73-2.29,1.24-.92.46-1.91,1.07-3.13,1.65l-.04-.23c-2.41,1.83-3.87,2.9-4.99,4.9-.92-.71-2.1,1.34-2.91,1.42v-.12c-1.12,1.74-3.61,1.32-4.85,2.79.02-.11-.08-.41.27-.61-1.08.72-2.62,1.69-2.98,1.1-2.76,1.44-6.97,2.48-8.67,3.98l.09-.22c-.94,1-1.43.46-2.61,1.13-.09-.07-.19-.1-.18-.14-1.09.97-3.62.84-4.59,1.29l-.14-.43c-.83.15-1.66.33-2.5.47l.96-.03c-.17,1.26-2.01-.49-3.75.48-1.72.03-3.32,2.86-5.21,2.38-.84.63.71-.98-.57-.45-.08-.63.58-.44.22-.93-1.26.37-2.12-.53-3.67-.05l-.08-.5c-2.02.99-3.89-.55-5.24.34-2.13.43-1.44-1.46-3.65-.48l-.86-.67c-.95-.11-.68.83-1.74.5.07-.42-1.33-.34-.71-.74-2.39-.67-4.88.91-8.03-.23-.69.82-2.28.32-2.79.93-.08-.36-3.18-.09-1.39-.85.15-.06.42-.05.4.09l.22-.49c-1.79-.94-3.27.47-5.04.3.52.17,1.22.14.75.47l-1.65-.09.35-.41-2.45-.29.33.52c-1.2-.29-1.6-1.16-2.96-.47-.62.38,1.12.72-.15.84-1.6-.39-3.97-.99-6-1.23.17.58-.38.54-.95.63l-.04-.5c-2.19.58-.74-1.13-2.9-.69l.21-.34-.62,1.01c-1.99.87-.97-1.1-3.2.11.85-.03.33,1.12-.71.84l.3-.46c-.59.07-.79.24-1.17.12.36-.23.23-.68-.62-.67l.61-.56-1.67.76c-1.2-.6-3.2-.15-3.65-.87,0,0-.65-.14-1.39-.21-.74-.07-1.56-.06-1.9.28.58-.4-.85-.74-.38-1.23-.74.46-2.81.61-3.54-.05l.16-.04c-2.88-.96-5.18.04-7.71-1.11.02.59-1.32.03-1.11.82-1.43.08-2.61-.52-3.59-.91-.98-.41-1.78-.57-2.52.43-1.27-.15-1.34-.87-1.94-1.14l.32-.04c-2.34-.4-3.01-.55-4.68-1.09-.9-.04-1.35.98-2.78.25.61-.25-.03-.37-.59-.55.38.05.54-.06-.11-.57-.14.09-.33.12-.5.13,0-.03-.02-.07.01-.11-.98-.16-.86.02-.44.21-.04.05-.03.14.07.3-.81-.81-2.71-.89-2.59-1.61-1.42-.4-2.68-.64-3.89-.86-1.22-.2-2.37-.42-3.56-.78-.11-.45.56-.53,1.27-.38l-1.66-.56c.23-.48,1.04.11,1.58.23-1.55-1.59-4.27-.94-6.1-2.74l-.64.15-.1-.13c-.1.2-.72.22-1.08.12-.09-.57.52-.94-.55-1.47-.61-.85-2.44-1.12-3.66-1.53.54.41.22.52-.12.52-.52-.3-.57-.89-1.07-.96l.28-.57c-.11.63-1.67-.29-2-.19-.04-.57,1.01.16,1.32-.06-2.07-1.22-1.03-.61-3.05-1.91-1.33-.34-.15.62-.97.73-1.03-.53-2.17-.87-3-1.96v.7c-2.02-.93-2.95-1.89-3.72-3.23-3.79-1.78-6.05-2.8-7.41-3.03-1.36-.24-1.74.25-1.7,1.02.08.78.65,1.85,1.21,2.73.55.89,1.12,1.54,1.12,1.54,1.06,1.38,2.08,2.53,3.19,3.43,1.09.92,2.19,1.71,3.4,2.4,1.19.72,2.45,1.4,3.87,2.1,1.39.75,2.96,1.51,4.72,2.47Z"/>
    </g>
    <g>
      <path class="cls-1" d="m850.55,730.87l-.39.28c.1.04.23-.01.39-.28Z"/>
      <path class="cls-1" d="m832.33,835.27s.04.07.06.09c-.03-.07-.04-.09-.06-.09Z"/>
      <path class="cls-1" d="m836.56,743.1s0-.02,0-.02c0-.04,0-.09-.01-.13v.15Z"/>
      <path class="cls-1" d="m846.54,722.9c-.8,1.25-1.45,2.26-2.04,3.18-.6.9-1.13,1.7-1.65,2.49-1.04,1.61-2.06,3.27-3.14,6.16-1.2,2.68-2.17,5.67-3.14,8.36.22,1.54-1.28,3.53-1.16,5.28l-.66.43c.05.6-.01,1.27-.44,1.71l-.12-.08c.07.9-.44,1.71-.4,2.15l-.12-.08-.27.97-.13-.22c-.14,1.47-.48,2.91-1.02,4.11l.59.06c-1.4,2.5-.52,3.8-1.96,6.01l-.13-.07c.27,1.72-.24,2.87-.79,4.05-.55,1.17-1.11,2.36-.77,4.12-.09-.44-.33.1-.46.04-.18,1.51-.45,3.1.66,3.35-.26,1.06-.54.8-1,.85.49.09.53,1.07.42,1.92l-.12-.42-.25,2.44,1.01-.3c-.49,1.22-1.19.12-1.18,1.38l.77.12c-.46,1.73-1.81,2.58-2.67,4.21-.69,3.57-.65,7.38-.83,11.06-.01,3.71-.04,7.32-.96,10.66l-.61.27c-.89.1,1.24,1.91.44,2.14l.38.79c-.15.22-.32.68-.51.28-.04.73.1.75.35,1.27l-.54.77c-.41,2.87.48,5.31.48,8.31-.46,1.83-.36,4.45-.05,7.08.34,2.64,1.09,5.27,1.55,7.18.46,1.33.63,2.75.66,4.22.1,1.46.09,2.97.07,4.49-.02,1.52-.02,3.05.12,4.54.08.74.16,1.48.36,2.18.2.7.46,1.39.79,2.04-.08.2.29.62.39.59l.99,5.08s.08.38.22,1.02c.14.63.34,1.52.68,2.49.63,1.96,1.5,4.36,2.41,6.11.91,1.75,1.87,2.85,2.71,2.25.84-.6,1.55-2.91,2.02-7.8l.21.07c-.15-1.37-.32-2.47-.62-3.43-.26-.97-.65-1.8-1.31-2.61,1.06-.55-.36-2.22-.14-2.92l.1.04c-1.22-1.45-.03-3.48-1.12-4.9.1.04.41.02.5.38-.35-1.12-.84-2.65-.19-2.85-.59-2.72-.96-6.58-2.21-8.22l.2.1c-.82-.93-.24-1.3-.72-2.39.08-.07.12-.16.16-.15-.82-1.03-.44-3.22-.84-4.08l.44-.1-.33-2.19v.83c-1.27-.19.57-1.72-.27-3.27.09-1.5-2.68-2.92-2.16-4.53-.61-.73.96.62.47-.48.64-.06.42.51.92.2-.35-1.09.57-1.82.07-3.15l.49-.07c-.94-1.75.67-3.32-.2-4.49-.39-1.82,1.49-1.2.53-3.1l.68-.72c.12-.8-.82-.6-.49-1.48.42.07.35-1.12.75-.58.75-1.98-.69-4.14.59-6.72-.79-.63-.21-1.93-.8-2.41.36-.04.24-2.67.91-1.11.06.13.03.36-.11.33l.48.22c1-1.42-.21-2.77.09-4.25-.21.42-.24,1.02-.53.59l.23-1.38.38.33.48-2.03-.54.22c.38-.98,1.28-1.22.7-2.45-.34-.57-.79.86-.83-.22.25-.65.56-1.47.88-2.32.34-.85.67-1.75.9-2.59-.59.07-.49-.39-.53-.88l.5.03c-.37-1.93,1.19-.48.96-2.36l.31.22-.94-.66c-.69-1.8,1.17-.68.16-2.73-.04.73-1.14.13-.77-.71l.43.32c-.02-.51-.18-.71,0-1.01.19.34.65.29.73-.43l.48.59-.56-1.51c.74-.92.49-2.7,1.25-2.97,0,0,.83-2.13.23-2.82.35.55.8-.62,1.24-.15-.38-.7-.41-2.5.35-3.02l.02.14c1.26-2.31.47-4.43,1.77-6.46-.58-.07.06-1.15-.73-1.07,0-.63.15-1.18.37-1.67.23-.49.54-.91.77-1.31.47-.79.69-1.46-.25-2.24.25-1.07.93-1.05,1.23-1.54l.03.29c.5-1.99.67-2.56,1.22-3.98.05-.79-.93-1.29-.16-2.46.22.56.36.02.56-.45-.06.33.04.47.56-.04-.09-.13-.1-.3-.11-.45.03,0,.07,0,.1.02.19-.84,0-.75-.2-.41-.05-.04-.14-.04-.3.03.84-.61.91-2.29,1.62-2.12.41-1.21.62-2.31.79-3.38.17-1.06.31-2.09.67-3.1.44-.06.53.53.39,1.14l.53-1.42c.48.24-.1.91-.2,1.37,1.56-1.25.82-3.7,2.45-5.26l-.19-.58.12-.08c-.2-.09-.27-.66-.2-.97.55-.06.95.5,1.38-.45.38-.27.58-.82.73-1.44.17-.61.28-1.28.43-1.81-.35.47-.49.19-.51-.11.24-.47.8-.51.82-.96l.58.25c-.62-.1.1-1.5-.03-1.79.55-.04-.04.9.21,1.19.96-1.86.48-.93,1.44-2.79.13-1.21-.62-.12-.84-.86.37-.93.46-2,1.34-2.8l-.66.03c.58-1.83,1.27-2.73,2.42-3.5.9-3.54,1.14-5.73.98-6.97-.15-1.24-.71-1.52-1.4-1.38-1.37.32-3.24,2.5-3.24,2.5-2.03,2.07-3.13,3.94-4.05,6.05-.85,2.16-1.57,4.52-3,7.57Z"/>
    </g>
    <g>
      <path class="cls-1" d="m1088.63,1032.37l.47.05c-.05-.1-.18-.14-.47-.05Z"/>
      <path class="cls-1" d="m1157.4,955.93s0-.08-.01-.11c0,.07,0,.1.01.11Z"/>
      <path class="cls-1" d="m1107.06,1031.59h-.02c-.02.05-.05.08-.07.12l.09-.12Z"/>
      <path class="cls-1" d="m1086.48,1041c5.63-1.86,7.55-1.56,12.91-4.71,1.32-.66,2.64-1.43,3.94-2.21,1.28-.82,2.51-1.69,3.71-2.48.74-1.38,3.16-2.06,4.12-3.53l.79.05c.33-.5.76-1.02,1.36-1.13l.05.13c.46-.78,1.34-1.15,1.57-1.54l.06.13.78-.64-.02.26c.96-1.14,2.07-2.11,3.21-2.77l-.45-.39c2.61-1.21,2.59-2.83,4.99-3.88l.07.13c.71-1.6,1.78-2.27,2.89-2.94,1.1-.68,2.28-1.32,2.89-3.02-.16.42.33.09.41.21.94-1.19,2.01-2.4,1.2-3.21.78-.76.88-.39,1.3-.19-.37-.34.12-1.18.67-1.83l-.12.42,1.52-1.92-1.02-.27c1.07-.77,1.08.52,1.74-.54l-.6-.5c1.27-1.25,2.83-1.29,4.41-2.26,1.23-1.34,2.27-2.86,3.33-4.39,1.03-1.54,1.94-3.18,2.9-4.74.93-1.59,1.82-3.18,2.83-4.65.97-1.49,1.97-2.91,3.15-4.16l.66.05c.82.33-.17-2.25.64-2.07l.05-.87c.24-.11.61-.43.59,0,.39-.61.27-.7.3-1.27l.85-.41c1.7-2.33,1.96-4.93,3.43-7.53,2.62-2.73,4.41-9.4,5.26-13.21.19-1.39.67-2.72,1.29-4.03.59-1.32,1.32-2.63,2.06-3.95,1.42-2.65,2.83-5.36,2.88-8.26.17-.14.04-.67-.06-.69.53-1.62,1.01-3.25,1.48-4.89,0,0,.1-.37.26-.99.16-.62.38-1.49.56-2.49.39-1.99.81-4.47.79-6.43,0-1.96-.33-3.37-1.35-3.24-1.03.11-2.67,1.8-5.43,5.84l-.15-.16c-.53,1.26-.92,2.3-1.12,3.28-.21.97-.24,1.88-.02,2.91-1.19-.01-.67,2.12-1.21,2.63l-.07-.08c.39,1.83-1.65,3.05-1.35,4.8-.07-.09-.36-.21-.27-.56-.2,1.14-.45,2.73-1.11,2.6-.64,2.69-2.24,6.19-1.84,8.22l-.13-.18c.32,1.19-.37,1.26-.42,2.44-.1.03-.17.08-.2.06.29,1.29-1.07,3.03-1.14,3.96l-.43-.12-.74,2.06.4-.72c1.02.74-1.33,1.23-1.27,2.99-.76,1.27,1.1,3.83-.15,4.98.19.92-.55-.99-.64.2-.59-.24-.13-.64-.72-.6-.2,1.11-1.36,1.31-1.56,2.7l-.47-.17c.03,1.97-2.1,2.59-1.87,4.02-.47,1.79-1.86.34-1.92,2.43l-.94.29c-.49.63.43.9-.28,1.51-.34-.26-.84.79-.93.14-.78.69-1.12,1.65-1.53,2.67-.42,1.01-.91,2.09-2.12,2.86.38.92-.76,1.75-.48,2.45-.34-.14-1.51,2.16-1.33.49.02-.14.15-.32.26-.23l-.31-.42c-1.57.72-1.14,2.48-2.1,3.61.38-.26.69-.76.74-.24l-.85,1.07-.17-.47c-.46.5-.91,1.01-1.4,1.49l.58.09c-.82.63-1.72.38-1.83,1.7,0,.65,1.12-.33.6.61-.54.42-1.22.95-1.92,1.51-.71.55-1.43,1.14-2.03,1.74.54.25.23.58.02,1.02l-.41-.28c-.63,1.83-1.23-.2-2.01,1.47l-.15-.35.46,1.04c-.35,1.86-1.34-.06-1.56,2.18.41-.58,1.03.5.28,1l-.2-.49c-.25.43-.22.68-.52.84.02-.38-.4-.59-.84-.03l-.1-.75-.3,1.57c-1.09.38-1.79,2-2.56,1.82,0,0-1.85,1.28-1.71,2.17.01-.64-1,.07-1.12-.57-.06.77-1.01,2.26-1.91,2.27l.06-.13c-2.27,1.2-2.73,3.42-4.96,4.26.44.39-.69.88,0,1.28-1.38,2.08-4.31,1.34-3.65,3.71-.8.73-1.34.31-1.85.54l.14-.25c-1.55,1.27-2.03,1.6-3.3,2.38-.5.59-.01,1.58-1.31,2.04.15-.58-.28-.23-.71.02.24-.22.24-.4-.47-.31-.01.16-.09.3-.17.43-.02-.03-.06-.03-.07-.08-.64.56-.45.59-.08.44.02.07.09.12.25.16-1.02-.02-2.06,1.28-2.51.7-1.05.68-1.89,1.38-2.67,2.08-.78.7-1.52,1.41-2.41,1.97-.38-.23-.08-.74.4-1.13l-1.27.76c-.22-.49.63-.65.99-.94-.99,0-1.7.58-2.45,1.19-.75.61-1.54,1.27-2.66,1.29l-.22.56-.14-.02c.1.2-.21.67-.47.85-.45-.31-.4-1-1.33-.57-.46-.05-.96.23-1.46.6-.51.34-1.02.78-1.48,1.08.56-.12.48.18.31.42-.48.19-.92-.14-1.22.18l-.26-.58c.39.49-1.03,1.07-1.13,1.38-.43-.34.61-.66.61-1.03-1.9.76-.94.41-2.87,1.08-.9.78.37.51.04,1.19-.89.41-1.68,1.12-2.85,1.09l.5.43c-1.65.93-2.76,1.11-4.1.88-1.51,1.02-2.74,1.73-3.65,2.43-.92.68-1.54,1.25-1.93,1.74-.78.97-.6,1.56-.02,1.97,1.19.77,4.1.6,4.1.6,5.89-.08,8.42-2.42,14.58-5.15Z"/>
    </g>
    <g>
      <path class="cls-1" d="m1022.53,488.71l.61-.29c-.08-.07-.26-.02-.61.29Z"/>
      <path class="cls-1" d="m1142.81,382.1s.07-.09.09-.13c-.07.08-.09.11-.09.13Z"/>
      <path class="cls-1" d="m1045.44,476.78l-.02.02c-.02.05-.06.11-.07.16l.1-.18Z"/>
      <path class="cls-1" d="m1022.37,499.25c6.05-5.91,8.43-6.71,14.23-13.28,3.02-2.88,6.01-6.2,8.81-9.17.77-1.98,3.83-3.74,4.98-5.85l.97-.27c.4-.72.95-1.49,1.71-1.85l.06.14c.6-1.08,1.71-1.85,2-2.39l.06.14.99-1.04-.04.31c1.21-1.72,2.75-3.17,4.23-4.33l-.51-.32c3.36-2.26,3.61-4.14,6.77-6.05l.06.14c2.29-4.25,6.02-4.1,8.51-8.35-.31.53.39.05.45.19,1.49-1.58,3.14-3.2,2.4-4.07,1.18-1.05,1.19-.6,1.64-.41-.34-.37.55-1.43,1.45-2.27l-.3.52,2.53-2.47-1.15-.24c1.58-1.04,1.12.54,2.31-.82l-.54-.57c2.05-1.6,3.97-1.72,6.22-2.95,4.03-3.3,7.88-7.11,11.72-10.8,3.88-3.64,7.81-7.1,11.97-9.68l.7.18c.68.54,1.27-2.67,2.06-2.29l.63-1.01c.34-.08.97-.37.65.13.83-.63.76-.76,1.18-1.43l1.21-.29c3.46-2.26,5.51-5.3,9.06-7.8,2.38-1.18,5.34-3.48,8.21-5.98,2.88-2.49,5.72-5.12,7.78-7.07,1.38-1.46,3.01-2.73,4.75-3.92,1.76-1.17,3.65-2.24,5.53-3.32,3.78-2.15,7.51-4.37,10.39-7.31.29-.06.68-.68.62-.75l6.1-4.24s1.82-1.33,4.2-3.07c2.37-1.75,5.26-3.99,7.32-5.92,4.12-3.85,4.98-6.52-8.35-1.56l.04-.26c-3.62,1.96-5.79,3.37-7.53,5.79-1.03-.68-2.8,1.87-3.79,2.12l.02-.13c-1.51,2.18-4.61,2.4-6.09,4.46.02-.13-.13-.42.31-.76-1.33,1.16-3.1,2.8-3.6,2.33-3.26,2.64-8.16,5.86-9.65,8.34l.03-.26c-.78,1.5-1.51,1.29-2.65,2.62-.13-.01-.25.02-.26-.02-.89,1.58-3.79,3.04-4.68,4.1l-.34-.3-2.57,2.1,1.04-.68c.41,1.23-2.47.91-3.86,3.03-1.87,1.27-2.02,4.83-4.22,5.8-.52,1.14.19-1.34-.84.04-.44-.47.36-.79-.29-.93-1.1,1.25-2.51,1.15-3.83,2.73l-.38-.34c-1.49,2.35-4.27,2.61-5.09,4.39-1.85,2.03-2.34,0-3.93,2.54l-1.28.17c-1.01.68-.15,1.18-1.4,1.78-.21-.38-1.53.81-1.18,0-2.77,1.43-4.14,4.67-7.93,6.38-.14,1.19-2,2.1-2.1,2.99-.32-.21-3.13,2.55-1.9.5.11-.17.38-.38.45-.26l-.11-.55c-2.35.75-2.83,3.09-4.64,4.44.61-.31,1.26-.93,1.03-.28l-1.63,1.32.06-.6-2.53,1.86.66.11c-1.33.8-2.31.49-3.14,2.17-.33.81,1.55-.43.43.75-1.79,1.06-4.43,2.69-6.49,4.31.56.27.02.72-.44,1.29l-.39-.32c-1.62,2.36-1.49-.15-3.18,2.09l-.05-.42.15,1.26c-1.2,2.38-1.69.12-2.86,2.95.76-.79,1.12.48-.03,1.2l-.07-.58c-.49.57-.54.88-.97,1.14.15-.49-.29-.68-1.05.12l.14-.94-.93,2.05c-1.52.69-2.96,2.87-3.9,2.81,0,0-2.76,2.06-2.84,3.14.2-.8-1.32.34-1.29-.42-.31.98-1.96,3.06-3.09,3.38l.1-.18c-3.22,2.24-4.32,5.11-7.33,6.99.51.31-1.05,1.34-.21,1.57-2.14,2.98-5.78,3.46-5.15,6-1.09,1.23-1.77.96-2.46,1.47l.2-.36c-2.08,2.27-2.71,2.9-4.38,4.45-.66.95-.06,1.83-1.68,3.08.17-.77-.36-.12-.91.42.3-.39.3-.61-.61-.1,0,.19-.11.4-.21.59-.03-.02-.08,0-.09-.05-.8,1-.55.94-.09.57.02.07.12.09.33.04-1.32.54-2.59,2.62-3.21,2.22-2.59,2.83-4.03,5.26-6.05,7.74-.52,0-.23-.77.31-1.53l-1.48,1.71c-.37-.39.69-1.15,1.1-1.72-2.5,1.32-3.26,4.57-6.04,6.27l-.15.76-.18.09c.17.15-.11.87-.38,1.25-.65,0-.75-.77-1.82.37-1.2.56-2.29,2.67-3.21,4.03.66-.58.65-.19.51.19-.53.58-1.17.58-1.44,1.16l-.51-.38c.64.19-.94,1.92-.95,2.31-.64,0,.54-1.16.42-1.54-2.12,2.31-1.06,1.16-3.17,3.47-.81,1.54.64.19.49,1.15-.93,1.15-1.6,2.5-3.04,3.46h.78c-1.58,2.31-2.73,3.49-4.42,4.47-5.32,9.12-4.88,10.95-3.15,10.52,1.74-.43,4.79-3.12,4.79-3.12,3.19-2.54,5.19-4.86,7.18-7.45,2.01-2.57,4.01-5.42,7.17-9.05Z"/>
    </g>
  </g>
</svg>