<?xml version="1.0" encoding="UTF-8"?>
<svg id="Layer_2" data-name="Layer 2" xmlns="http://www.w3.org/2000/svg" viewBox="0 0 1378.12 451">
  <defs>
    <style>
      .cls-1 {
        fill: #b02062;
      }

      .cls-1, .cls-2 {
        stroke-width: 0px;
      }

      .cls-2 {
        fill: #a4004b;
      }
    </style>
  </defs>
  <g id="Phase_2" data-name="Phase 2">
    <g id="Layer_32_copy" data-name="Layer 32 copy">
      <g>
        <path class="cls-2" d="m1306.84,274.12s-422.92-159.24-595.8-72.14c-172.88,87.1-263.77,222.4-418.88,243.96C137.05,467.51,0,413.16,0,413.16l40.36-169.62s188.45,84.96,337.24-1.36c148.79-86.32,171.07-192.24,363.76-227.4,201.4-36.75,327.1.56,477.96,51.67,140.21,47.5,158.8,54.28,158.8,54.28l-71.28,153.4Z"/>
        <g>
          <path class="cls-1" d="m185.43,328.62l.38.22c0-.11-.11-.2-.38-.22Z"/>
          <path class="cls-1" d="m280.75,319.58s.06-.04.08-.07c-.06.03-.08.05-.08.07Z"/>
          <path class="cls-1" d="m200.49,335.96h-.02s-.07.04-.1.06l.12-.06Z"/>
          <path class="cls-1" d="m180.95,335.91c5.12.2,6.51,1.22,11.82.64,2.54-.01,5.23-.37,7.7-.6,1.14-.88,3.25-.17,4.6-.95l.56.45c.47-.27,1.02-.46,1.51-.23l-.02.14c.69-.4,1.51-.23,1.86-.43l-.02.14.86-.11-.14.21c1.22-.44,2.5-.56,3.65-.46l-.13-.57c2.46.49,3.26-.77,5.5-.15l-.02.14c2.64-1.71,4.44.7,7.16-.97-.34.21.18.29.16.43,1.29-.27,2.68-.47,2.61-1.61.95-.06.81.29.97.72-.05-.5.76-.78,1.5-.88l-.32.22,2.11-.37-.5-.9c1.15.16.39,1.12,1.45.79l-.09-.78c1.57,0,2.6,1.1,4.17,1.53,3.16-.15,6.37-.93,9.53-1.55,3.16-.66,6.27-1.2,9.27-.87l.33.55c.22.84,1.44-1.47,1.77-.72l.63-.48c.21.13.63.23.32.47.63-.05.63-.19,1.04-.51l.74.44c2.53.07,4.49-1.21,7.1-1.4,1.64.31,3.89,0,6.14-.53,2.25-.53,4.49-1.32,6.12-1.87,2.26-1.01,4.91-.91,7.56-.88,2.66.04,5.34.09,7.62-1.11.18.09.54-.26.51-.35l4.44-.73s1.35-.22,3.08-.67c1.73-.44,3.86-1.06,5.43-1.8,3.15-1.47,4.03-3.38-4.72-5.21l.07-.2c-2.48.05-3.99.25-5.47,1.49-.48-1.08-1.99.26-2.62,0l.04-.1c-1.3,1.15-3.14-.15-4.4.9.04-.1.01-.41.33-.49-1,.33-2.36.83-2.56.18-2.42.6-5.89.92-7.29,2.23l.08-.2c-.78.86-1.15.3-2.09.82-.07-.08-.15-.11-.14-.15-.86.86-2.84.58-3.58,1.01l-.12-.43-1.93.42.74-.02c-.06,1.25-1.59-.51-2.89.48-1.35.04-2.31,2.92-3.78,2.53-.57.67.44-1.01-.48-.42-.12-.63.4-.46.07-.93-.92.44-1.68-.41-2.8.2l-.12-.49c-1.43,1.12-3.02-.25-3.94.75-1.55.62-1.27-1.32-2.81-.13l-.74-.58c-.73-.01-.4.89-1.24.67,0-.43-1.04-.2-.63-.66-1.87-.43-3.52,1.38-6.02.56-.42.88-1.66.54-1.97,1.2-.11-.35-2.39.23-1.14-.71.11-.08.31-.09.31.05l.1-.51c-1.45-.75-2.39.78-3.74.78.41.12.93.02.62.39l-1.25.07.21-.44-1.87-.04.31.48c-.93-.16-1.34-.99-2.28-.16-.42.45.93.59-.01.85-1.24-.21-3.11-.55-4.67-.56.2.56-.22.58-.63.73l-.1-.49c-1.57.84-.7-1.03-2.28-.33l.11-.36-.33,1.08c-1.38,1.12-.88-.95-2.39.54.64-.15.4,1.06-.41.92l.16-.5c-.43.14-.56.36-.86.28.24-.28.08-.71-.56-.57l.38-.63-1.15.98c-.99-.44-2.43.33-2.87-.32,0,0-2.05-.17-2.46.61.37-.49-.76-.58-.48-1.14-.48.56-2.01,1.12-2.67.6l.11-.07c-2.34-.41-3.88,1.04-5.99.49.13.57-.98.33-.66,1.05-2.1.88-3.99-1.28-4.63,1.05-.97.17-1.18-.47-1.69-.56l.23-.13c-1.81.28-2.34.33-3.7.35-.67.26-.72,1.33-1.95,1.12.37-.44-.12-.34-.57-.32.29-.08.37-.24-.24-.5-.08.13-.2.22-.32.29,0-.03-.03-.06-.02-.1-.75.18-.61.3-.26.35-.01.07.02.15.13.26-.81-.51-2.19.12-2.32-.6-2.27.25-3.87,1.09-5.77,1.41-.23-.37.21-.71.75-.87l-1.34.17c0-.54.76-.33,1.18-.45-1.63-.83-3.28.95-5.18.2l-.38.43-.11-.07c.01.22-.4.54-.68.62-.28-.46,0-1.08-.94-1.02-.74-.43-2.08.27-3.05.53.52.07.36.33.14.5-.47.02-.74-.44-1.1-.24l-.05-.63c.19.59-1.21.66-1.38.92-.27-.46.72-.41.83-.76-1.87.08-.93.04-2.8.12-.99.49.19.59-.28,1.15-.88.13-1.74.58-2.75.22l.32.55c-1.65.44-2.65.37-3.76-.2-6.17,2.27-6.86,3.82-5.97,4.81.89.99,3.35,1.41,3.35,1.41,2.45.62,4.31.53,6.28.22,1.97-.33,4.06-.87,6.97-1.13Z"/>
        </g>
        <g>
          <path class="cls-1" d="m104.45,364.35l.55.31c0-.11-.13-.22-.55-.31Z"/>
          <path class="cls-1" d="m252.42,361.6s.09-.05.13-.08c-.09.04-.12.06-.13.08Z"/>
          <path class="cls-1" d="m126.33,375s-.02,0-.03,0c-.05.02-.11.02-.16.04l.19-.04Z"/>
          <path class="cls-1" d="m96.21,370.34c3.91.88,6.37,1.48,8.88,2.12,2.51.6,5.07,1.17,9.21,1.49,3.93.52,8.15.74,12.01,1.04,1.9-.6,5.06.42,7.28-.1l.8.54c.77-.18,1.65-.28,2.38.04l-.06.14c1.14-.28,2.38.04,2.95-.1l-.06.14,1.36.04-.25.18c1.97-.2,3.97-.18,5.73.09l-.12-.59c3.74.82,5.18-.32,8.55.61l-.05.14c2.18-.64,3.87-.38,5.58-.08,1.71.29,3.45.6,5.68-.1-.56.17.23.3.19.44,2.05-.14,4.23-.2,4.27-1.34,1.49.04,1.21.37,1.41.81,0-.5,1.28-.73,2.44-.78l-.53.2,3.33-.23-.67-.93c1.77.24.46,1.14,2.15.88l-.04-.78c2.44.11,3.9,1.27,6.28,1.8,4.93,0,10.01-.73,15-1.25,4.98-.65,9.87-1.25,14.49-.93l.46.55c.26.86,2.38-1.55,2.81-.79l1.02-.51c.31.12.96.21.45.46.98-.08.99-.22,1.67-.56l1.11.41c3.91-.06,7.08-1.37,11.14-1.81,2.5.18,6.02-.32,9.54-1.03,3.52-.74,7.03-1.84,9.59-2.58,1.78-.65,3.69-1.02,5.66-1.26,1.97-.29,4-.47,6.04-.65,4.08-.39,8.23-.67,11.76-2.38.27.06.83-.36.8-.46l6.84-1.58,1.37-.34c.85-.22,2.04-.52,3.37-.96,2.66-.84,5.92-1.96,8.34-3.07,4.86-2.23,6.22-4.37-7.01-4.29l.11-.23c-1.88.3-3.39.59-4.72,1.01-1.34.38-2.49.88-3.64,1.65-.69-1.02-3.04.64-3.99.49l.06-.11c-2.03,1.42-4.77.45-6.75,1.73.06-.11.04-.42.53-.56-1.54.5-3.65,1.2-3.92.58-3.74.97-9.06,1.85-11.29,3.35l.13-.21c-1.25.96-1.78.43-3.26,1.08-.1-.07-.22-.09-.21-.13-1.38.98-4.4.91-5.57,1.44l-.16-.42-3,.65,1.14-.11c-.19,1.28-2.41-.33-4.48.76-2.08.15-3.8,3.14-6.04,2.86-.94.72.77-1.06-.7-.39-.14-.62.66-.5.19-.95-1.46.52-2.55-.28-4.33.42l-.14-.48c-2.3,1.22-4.64-.11-6.14.94-2.45.7-1.84-1.27-4.32,0l-1.08-.55c-1.12.02-.71.91-1.97.73.03-.43-1.59-.16-.91-.64-2.84-.39-5.58,1.42-9.35.61-.73.89-2.62.55-3.17,1.22-.12-.35-3.71.24-1.69-.7.17-.08.49-.09.48.05l.21-.51c-2.15-.73-3.78.72-5.86.7.62.13,1.44.05.91.41l-1.94.03.38-.43-2.89-.09.42.49c-1.42-.19-1.95-1.03-3.51-.23-.7.44,1.36.62-.12.85-.95-.12-2.13-.27-3.38-.43-1.25-.17-2.56-.31-3.76-.37.24.57-.41.56-1.07.69l-.09-.5c-2.54.74-.96-1.08-3.47-.48l.22-.35-.65,1.05c-2.27,1.03-1.24-1.01-3.77.39,1-.1.48,1.09-.76.9l.31-.49c-.68.12-.91.31-1.37.21.41-.25.21-.7-.79-.63l.67-.59-1.9.86c-1.47-.54-3.8.08-4.39-.61,0,0-3.15-.37-3.89.36.64-.45-1.09-.65-.58-1.19-.83.51-3.26.91-4.2.29l.19-.05c-3.54-.73-6.14.5-9.31-.34.12.58-1.56.19-1.18.95-.84.14-1.63.11-2.37,0-.74-.12-1.42-.32-2.03-.46-1.23-.28-2.21-.34-2.9.75-1.52,0-1.75-.67-2.52-.85l.37-.09c-2.84-.03-3.66-.08-5.76-.29-1.07.14-1.33,1.2-3.19.73.65-.35-.13-.36-.83-.44.46-.02.61-.15-.28-.54-.14.12-.35.17-.54.22,0-.03-.04-.06-.02-.11-1.18.02-1,.17-.46.29-.03.06,0,.15.16.28-1.16-.68-3.39-.34-3.46-1.07-3.53-.25-6.15.3-9.1.14-.28-.42.45-.65,1.31-.67l-2.09-.16c.09-.53,1.23-.13,1.88-.15-2.34-1.21-5.19.13-7.97-1.08l-.66.33-.16-.09c-.02.22-.72.43-1.16.44-.34-.52.19-1.06-1.24-1.24-.53-.31-1.34-.36-2.21-.35-.86,0-1.79.06-2.55.06.78.22.48.43.11.53-.72-.11-1.05-.64-1.63-.54l.04-.63c.18.64-1.97.3-2.27.51-.32-.53,1.17-.2,1.41-.52-2.86-.45-1.43-.22-4.29-.67-1.61.2.17.64-.66,1.05-1.37-.12-2.77.08-4.24-.57l.38.64c-2.61-.06-4.1-.48-5.69-1.38-9.86.25-11.23,1.52-10.08,2.79,1.15,1.25,4.82,2.45,4.82,2.45,3.62,1.39,6.48,1.92,9.56,2.22,3.1.24,6.4.3,10.91.88Z"/>
        </g>
        <g>
          <path class="cls-1" d="m559.88,183.97l.71-.19c-.07-.08-.27-.06-.71.19Z"/>
          <path class="cls-1" d="m700.49,76.56s.09-.09.12-.13c-.09.08-.12.11-.12.13Z"/>
          <path class="cls-1" d="m586.54,174.44s-.02.02-.03.02c-.03.05-.08.11-.11.16l.14-.18Z"/>
          <path class="cls-1" d="m556.72,194.66c8.11-4.89,10.79-5.45,18.55-11.48,1.91-1.34,3.84-2.8,5.74-4.28,1.87-1.51,3.73-3.01,5.5-4.44,1.23-1.96,4.73-3.67,6.31-5.8l1.08-.23c.55-.73,1.26-1.5,2.11-1.85l.04.14c.8-1.11,2.09-1.86,2.49-2.41l.04.14,1.21-1.05-.09.33c1.56-1.72,3.36-3.24,5.09-4.41l-.5-.34c3.86-2.3,4.35-4.26,7.92-6.22l.05.14c2.93-4.4,6.82-4.31,9.89-8.76-.38.56.4.05.46.19,1.73-1.67,3.64-3.38,2.94-4.27,1.35-1.11,1.32-.64,1.78-.45-.33-.38.7-1.51,1.73-2.41l-.36.55,2.89-2.64-1.19-.23c1.76-1.12,1.14.55,2.52-.9l-.52-.58c2.3-1.72,4.35-1.88,6.85-3.21,9.06-7.09,17.4-16.43,26.72-21.83l.73.18c.68.55,1.56-2.8,2.37-2.4l.76-1.06c.37-.09,1.06-.39.68.13.94-.66.88-.79,1.38-1.49l1.3-.31c1.92-1.2,3.54-2.51,5.15-3.91,1.61-1.39,3.23-2.81,5.25-4.06,5.25-2.44,13.68-9.03,18.68-12.73,1.71-1.37,3.65-2.53,5.7-3.59,2.06-1.05,4.27-1.9,6.45-2.81,2.17-.93,4.41-1.71,6.52-2.67,1.06-.47,2.09-.99,3.08-1.53,1.01-.51,1.99-1.08,2.91-1.7.31,0,.88-.57.83-.65,1.24-.54,2.47-1.09,3.71-1.61l3.76-1.48s.57-.23,1.5-.62c.93-.39,2.23-.96,3.73-1.52,2.98-1.17,6.63-2.73,9.43-3.97,2.78-1.3,4.63-2.54,3.86-3.32-.38-.39-1.42-.66-3.35-.75-.96-.05-2.15-.05-3.59,0-.72.03-1.51.06-2.35.12-.84.09-1.75.2-2.72.3l.13-.25c-2.22.57-4.03,1.08-5.6,1.69-1.55.67-2.87,1.44-4.14,2.47-.9-.86-3.53,1.28-4.63,1.41l.05-.13c-2.16,1.97-5.55,1.69-7.63,3.57.05-.13-.03-.44.51-.73-1.69,1.01-3.97,2.43-4.4,1.9-1.03.56-2.17,1.15-3.34,1.75-1.15.64-2.33,1.29-3.45,1.94-2.24,1.3-4.24,2.6-5.25,3.84l.08-.26c-1.11,1.48-1.85,1.2-3.3,2.48-.13-.02-.27,0-.27-.04-1.25,1.51-4.56,2.89-5.67,3.94l-.32-.33-3.07,2.03,1.22-.65c.24,1.27-2.77.84-4.56,2.98-2.18,1.24-2.81,4.88-5.25,5.87-.69,1.17.36-1.38-.9.03-.41-.49.48-.82-.2-.97-1.31,1.28-2.82,1.15-4.4,2.78l-.36-.35c-1.83,2.44-4.84,2.69-5.91,4.52-2.17,2.11-2.5.01-4.42,2.67l-1.38.19c-1.14.72-.27,1.23-1.66,1.86-.19-.4-1.7.87-1.25.02-3.06,1.54-4.85,4.89-8.99,6.77-.24,1.24-2.29,2.24-2.46,3.17-.32-.22-3.51,2.74-2.06.57.13-.19.43-.41.5-.29l-.07-.57c-2.54.86-3.24,3.28-5.27,4.73.68-.34,1.41-.99,1.11-.32l-1.84,1.41.11-.62-2.82,2,.69.09c-1.47.87-2.48.58-3.49,2.34-.41.86,1.67-.48.4.77-1.97,1.16-4.89,2.92-7.2,4.64.57.27-.04.75-.57,1.35l-.39-.32c-1.9,2.48-1.56-.13-3.53,2.24l-.02-.44.05,1.31c-1.46,2.51-1.79.15-3.25,3.13.86-.83,1.14.48-.13,1.26l-.02-.61c-.56.6-.64.93-1.12,1.2.21-.51-.25-.7-1.12.13l.23-.98-1.17,2.13c-1.67.73-3.39,3.01-4.37,2.94,0,0-3.1,2.15-3.29,3.27.29-.84-1.42.35-1.31-.44-.41,1.03-2.35,3.19-3.6,3.49l.13-.19c-3.64,2.27-5.11,5.24-8.51,7.1.5.34-1.26,1.37-.41,1.63-2.6,3.07-6.55,3.33-6.23,6.01-1.33,1.22-1.99.91-2.79,1.39l.26-.36c-2.53,2.21-3.29,2.83-5.29,4.32-.85.94-.35,1.91-2.29,3.05.32-.77-.36-.16-1.03.35.39-.38.42-.6-.62-.16-.04.2-.19.41-.32.59-.03-.02-.08-.01-.09-.06-1.02.96-.75.92-.2.57.01.07.11.1.34.08-1.48.44-3.19,2.47-3.77,1.99-3.29,2.59-5.23,5.01-7.93,7.23-.54-.08-.06-.82.68-1.51l-1.94,1.53c-.29-.45.98-1.07,1.54-1.59-2.91.96-4.44,4.23-7.76,5.48l-.36.75-.21.06c.13.18-.34.86-.72,1.21-.66-.12-.57-.91-1.97.06-.68.19-1.44.77-2.21,1.45-.77.66-1.54,1.43-2.22,2.01.85-.44.73-.06.47.3-.71.47-1.38.34-1.83.86l-.41-.49c.6.32-1.54,1.74-1.67,2.13-.66-.14.9-1.05.9-1.46-2.85,1.88-1.42.96-4.31,2.76-1.32,1.34.59.34.13,1.26-1.32.93-2.45,2.12-4.23,2.75l.78.18c-2.41,1.9-4.05,2.71-6.11,3.22-2.18,1.91-3.92,3.33-5.19,4.55-1.28,1.2-2.12,2.13-2.61,2.84-1,1.41-.62,1.91.34,1.99,1.92.12,6.17-1.62,6.17-1.62,8.63-3.23,11.96-6.98,20.81-13.11Z"/>
        </g>
        <g>
          <path class="cls-1" d="m745.27,92.83l.38.11c-.04-.1-.15-.16-.38-.11Z"/>
          <path class="cls-1" d="m824.04,70.99s.05-.04.07-.07c-.05.03-.06.05-.07.07Z"/>
          <path class="cls-1" d="m759.63,96.13s-.02,0-.02,0c-.02.03-.04.05-.06.08l.08-.09Z"/>
          <path class="cls-1" d="m744.09,100.94c4.1-1.22,5.54-.55,9.55-2.45,2.02-.6,4.07-1.56,5.98-2.35.65-1.13,2.57-.86,3.44-1.89l.58.32c.3-.35.7-.65,1.16-.53l.02.14c.46-.53,1.16-.53,1.39-.8l.02.14.67-.28-.06.23c.87-.69,1.89-1.03,2.84-1.14l-.25-.53c2.12.02,2.48-1.34,4.44-1.14l.02.14c1.76-2.15,3.79-.03,5.66-2.1-.23.26.21.25.22.39,1-.47,2.1-.88,1.81-1.98.77-.21.72.16.94.56-.14-.48.47-.86,1.06-1.06l-.22.26,1.68-.64-.59-.81c.99,0,.54,1.04,1.35.58l-.22-.75c1.31-.2,2.36.74,3.73.96,2.58-.52,5.12-1.59,7.65-2.55,2.54-.92,5.07-1.69,7.61-1.61l.35.52c.29.81,1.03-1.54,1.39-.81l.47-.51c.19.11.56.2.32.45.52-.08.5-.22.81-.56l.67.39c2.12-.05,3.61-1.47,5.8-1.71,2.8.51,7.42-1.49,10.12-2.59,1.84-1.03,4.08-.91,6.32-.79,2.24.12,4.47.18,6.37-.86.15.1.45-.23.43-.32l3.72-.5s1.12-.18,2.58-.48c1.46-.3,3.26-.76,4.6-1.37,2.67-1.22,3.56-3.07-3.89-5.53l.06-.2c-2.13-.15-3.44-.04-4.71,1.13-.41-1.1-1.71.16-2.25-.12l.03-.1c-1.1,1.08-2.71-.3-3.78.69.03-.1,0-.42.28-.48-.85.3-2.01.77-2.19.12-2.07.56-5.06.77-6.2,2.09l.06-.2c-.63.86-.97.3-1.75.83-.06-.08-.13-.11-.13-.15-.69.86-2.4.59-3.02,1.02l-.13-.43-1.63.43.64-.03c.03,1.24-1.41-.51-2.44.53-1.15.09-1.74,2.97-3.02,2.63-.43.68.29-1.01-.44-.41-.16-.62.3-.47-.02-.93-.75.47-1.47-.35-2.38.28l-.15-.48c-1.11,1.17-2.61-.08-3.29.96-1.25.71-1.23-1.23-2.42.04l-.7-.53c-.63.03-.24.9-.98.74-.06-.42-.92-.14-.62-.62-1.66-.29-2.83,1.66-5.08,1.05-.23.91-1.35.67-1.52,1.35-.14-.34-2.01.43-1.08-.6.08-.09.25-.12.28.02l.02-.51c-1.36-.62-1.92,1.02-3.07,1.17.37.07.8-.08.59.32l-1.05.2.11-.46-1.6.17.34.44c-.82-.06-1.31-.83-1.97.09-.28.49.89.48.13.84-1.1-.08-2.74-.18-4.06.03.27.52-.08.6-.4.81l-.17-.47c-1.18,1.04-.79-.92-2-.01l.03-.37-.08,1.1c-.95,1.29-.94-.81-1.93.86.51-.23.55.99-.17.96l.04-.51c-.34.2-.4.43-.67.4.15-.31-.08-.71-.59-.47l.19-.68-.77,1.15c-.92-.27-1.98.71-2.48.16,0,0-1.77.17-1.94.99.21-.54-.77-.44-.66-1.03-.29.63-1.45,1.41-2.12,1.04l.08-.09c-2.06.04-3.01,1.74-4.91,1.6.25.53-.74.5-.3,1.14-1.53,1.23-3.64-.41-3.58,1.96-.75.37-1.1-.2-1.55-.18l.15-.18c-1.43.66-1.85.82-2.97,1.13-.48.39-.23,1.42-1.29,1.51.18-.51-.19-.3-.56-.17.21-.14.24-.31-.34-.42-.03.15-.11.26-.18.36-.01-.03-.04-.05-.05-.09-.57.35-.42.44-.11.4,0,.07.06.14.18.22-.81-.3-1.76.64-2.07-.02-1.79.79-2.87,1.93-4.29,2.75-.29-.29-.05-.73.35-1.02l-1.04.52c-.17-.51.52-.51.82-.73-1.58-.36-2.37,1.77-4.15,1.56l-.17.51-.11-.03c.08.21-.15.62-.35.77-.37-.36-.35-1.02-1.09-.72-.75-.22-1.6.82-2.28,1.35.44-.08.4.21.28.43-.37.15-.74-.2-.96.09l-.26-.58c.35.5-.75.96-.79,1.26-.38-.36.44-.59.41-.96-1.47.61-.74.31-2.21.92-.63.74.35.5.17,1.16-.66.38-1.18,1.04-2.12.99l.45.43c-1.16.91-1.96,1.16-3.04.98-4.04,4.03-3.95,5.67-2.89,6.31,1.07.64,3.12.28,3.12.28,4.23-.35,5.6-2.61,10-4.72Z"/>
        </g>
        <g>
          <path class="cls-1" d="m1157.01,111.52l.4.4c.03-.1-.06-.24-.4-.4Z"/>
          <path class="cls-1" d="m1281.71,149.5s.09,0,.14-.02c-.09,0-.12,0-.14.02Z"/>
          <path class="cls-1" d="m1173.05,126.03s-.02,0-.03-.01c-.05,0-.1,0-.15,0h.17Z"/>
          <path class="cls-1" d="m1148.56,116.01c6.39,2.74,7.72,4.41,14.6,6.56,3.18,1.31,6.69,2.38,9.87,3.45,1.79-.22,4.12,1.56,6.13,1.57l.51.71c.69,0,1.46.12,1.98.6l-.09.12c1.04,0,1.98.6,2.5.6l-.09.12,1.12.36-.26.11c1.72.24,3.36.84,4.73,1.55l.09-.59c2.84,1.78,4.39,1.08,6.88,2.86l-.09.12c4.05-.1,5.16,3.08,9.29,3.1-.51,0,.09.35,0,.47,1.72.48,3.53,1.07,3.96.02,1.21.48.86.71.86,1.18.17-.47,1.3-.26,2.25.07h-.5s2.77.89,2.77.89l-.2-1.08c1.34.8-.04,1.21,1.41,1.53l.26-.74c1.93.9,2.67,2.45,4.4,3.73,3.96,1.68,8.33,2.86,12.67,3.96,4.33,1.11,8.6,2.12,12.51,3.63l.24.65c0,.88,2.49-.81,2.66.01l1.01-.23c.24.19.78.45.28.56.87.17.92.03,1.58-.13l.86.66c3.4.88,6.42.14,9.91.72,2.06.77,5.06,1.11,8.06,1.37,1.5.12,3,.27,4.43.36,1.41.14,2.75.23,3.87.37,3.22.1,6.38,1.62,9.41,3.24,3.04,1.64,5.96,3.37,9.15,4.12.14.19.74.19.78.1l2.58,1.39,2.54,1.47s1.53.9,3.54,2.08c2.03,1.15,4.47,2.68,6.5,3.68,2,1.03,3.61,1.52,3.93.53.28-.96-.6-3.54-4.38-8.29l.23-.07c-1.28-1.18-2.43-2.01-3.52-2.68-1.12-.62-2.2-1.03-3.46-1.21.23-1.18-2.41-1.49-2.96-2.17l.11-.05c-2.26-.18-3.57-2.61-5.76-2.72.11-.05.28-.32.72-.15-1.43-.45-3.38-1.03-3.23-1.68-3.33-1.22-7.98-3.07-10.47-2.64l.2-.14c-1.44.35-1.63-.38-3.12-.36-.05-.1-.14-.17-.12-.2-1.52.32-4-.82-5.17-.76v-.45s-2.75-.4-2.75-.4l1.01.28c-.56,1.14-1.95-1.15-4.07-.63-1.85-.42-4.06,2.04-5.89,1.24-.97.47.9-.84-.5-.55.02-.64.68-.33.38-.87-1.37.16-2.12-.88-3.8-.63v-.5c-2.25.68-3.94-1.08-5.43-.4-2.22.13-1.25-1.64-3.6-1l-.75-.8c-.92-.26-.81.7-1.79.2.14-.4-1.24-.59-.56-.86-2.16-1.09-4.92-.08-7.68-2.01-.88.62-2.28-.31-2.95.13.02-.36-3.05-1.02-1.1-1.22.17-.02.42.08.36.2l.35-.4c-1.44-1.41-3.28-.52-4.94-1.24.45.33,1.14.51.58.68l-1.56-.61.47-.27-2.28-1.06.15.6c-1.07-.66-1.17-1.62-2.73-1.43-.73.16.86,1.05-.42.75-1.43-.9-3.56-2.27-5.49-3.17-.02.61-.55.38-1.14.28l.11-.49c-2.36-.16-.38-1.32-2.67-1.6l.31-.25-.92.76c-2.24.2-.65-1.35-3.23-.9.86.24,0,1.18-.94.58l.43-.35c-.6-.12-.86,0-1.2-.24.43-.11.43-.59-.43-.83l.77-.35-1.89.23c-1.03-.94-3.18-1.07-3.44-1.9,0,0-2.49-1.31-3.36-.84.69-.23-.69-.94-.09-1.29-.86.23-3.01-.13-3.61-.96h.17c-2.76-1.66-5.34-1.2-7.74-2.86-.08.59-1.37-.24-1.29.58-3.01-.36-4.47-3.31-6.28-1.56-1.29-.36-1.29-1.06-1.89-1.42h.34c-2.41-.72-3.09-.96-4.81-1.67-.95-.12-1.46.82-2.93-.02.65-.2-.01-.37-.59-.59.4.08.57-.02-.1-.58-.15.08-.35.09-.53.1,0-.03-.02-.07.02-.11-1.02-.23-.9-.04-.47.18-.05.05-.04.14.06.31-.81-.89-2.82-1.04-2.69-1.76-2.98-.96-5.33-1.05-7.86-1.72-.14-.45.55-.54,1.3-.41l-1.77-.53c.21-.5,1.1.09,1.67.19-1.74-1.59-4.54-.81-6.66-2.47l-.65.21-.12-.12c-.07.21-.72.29-1.1.22-.17-.57.41-1-.79-1.42-.78-.78-2.76-.81-4.08-1.05.64.33.33.49-.01.53-.6-.21-.78-.78-1.31-.77l.17-.61c.02.64-1.78,0-2.1.16-.17-.57,1.07-.02,1.34-.3-2.41-.86-1.2-.43-3.61-1.28-1.44-.04.02.65-.79.93-1.17-.31-2.42-.32-3.58-1.17l.21.68c-2.27-.4-3.51-.94-4.73-2.02-17.37-1.75-5.54,4.55-5.54,4.55,5.76,3.52,9.54,3.22,17.07,5.62Z"/>
        </g>
      </g>
    </g>
  </g>
</svg>