<?xml version="1.0" encoding="UTF-8"?>
<svg id="Layer_2" data-name="Layer 2" xmlns="http://www.w3.org/2000/svg" viewBox="0 0 1364.83 586.81">
  <defs>
    <style>
      .cls-1 {
        fill: #b02062;
      }

      .cls-1, .cls-2 {
        stroke-width: 0px;
      }

      .cls-2 {
        fill: #d11b47;
      }

      .cls-3 {
        fill: none;
        stroke: #a4004b;
        stroke-miterlimit: 10;
        stroke-width: 2.83px;
      }
    </style>
  </defs>
  <g id="Phase_2" data-name="Phase 2">
    <g id="Layer_32_copy" data-name="Layer 32 copy">
      <g>
        <g>
          <path class="cls-2" d="m130.11,37.73s236.92-90.55,353.3,14.34c116.38,104.89,179.48,293,401.1,337.65,236.92,47.74,478.89,0,478.89,0v164.59s-306.34,55.6-505.86,18.08c-199.51-37.52-378.46-229.82-424.02-293.01-99.92-138.61-239-116.18-303.43-68.38l-64.43,47.8L1.82,86.79l128.29-49.07Z"/>
          <path class="cls-3" d="m130.11,37.73s236.92-90.55,353.3,14.34c116.38,104.89,179.48,293,401.1,337.65,236.92,47.74,478.89,0,478.89,0v164.59s-306.34,55.6-505.86,18.08c-199.51-37.52-378.46-229.82-424.02-293.01-99.92-138.61-239-116.18-303.43-68.38l-64.43,47.8L1.82,86.79l128.29-49.07Z"/>
        </g>
        <g>
          <path class="cls-1" d="m342.15,98.31l.92.56c.02-.11-.2-.28-.92-.56Z"/>
          <path class="cls-1" d="m537.63,270.16c.07.05.14.11.2.14-.13-.11-.18-.14-.2-.14Z"/>
          <path class="cls-1" d="m375.44,121.88s-.03-.02-.05-.03c-.08-.03-.18-.05-.26-.08l.31.1Z"/>
          <path class="cls-1" d="m328.1,101.68c1.62.47,3.1.9,4.45,1.33,1.34.48,2.57.92,3.72,1.33,2.32.8,4.28,1.72,6.3,2.51,2.01.81,3.99,1.74,6.33,2.65,1.16.48,2.4,1,3.75,1.57.68.27,1.39.55,2.13.85.74.31,1.51.63,2.31.97,6.06,2.8,12.55,5.81,18.31,8.97,3.15.79,7.45,4.34,10.94,5.73l.96,1.17c1.2.49,2.54,1.18,3.47,2.1l-.14.07c1.8.73,3.45,2.13,4.33,2.53l-.15.07,1.94,1.27-.44-.06c1.48.78,2.91,1.69,4.26,2.64,1.35.95,2.65,1.91,3.79,2.91l.15-.62c2.39,2.22,4.24,3.43,5.98,4.67,1.75,1.22,3.44,2.41,5.45,4.58l-.15.06c6.7,3.54,8.26,8.31,14.86,12.36-.83-.51.1.5-.05.55,2.72,2.23,5.47,4.79,6.31,3.99,1.86,1.77,1.27,1.7,1.2,2.25.34-.37,2.08,1.04,3.54,2.42l-.8-.51c1.42,1.29,2.81,2.61,4.2,3.93l-.13-1.47c1.97,2.36-.27,1.36,1.96,3.27l.53-.57c2.84,3.14,3.72,5.73,6.08,9.1,11.35,12.6,24.81,25.18,34.02,38.2v.91c-.45.78,3.8,2.53,3.59,3.5l1.49,1.16c.22.5.8,1.44.06.86,1.08,1.33,1.21,1.27,2.2,2.04l.78,1.75c4.05,5.42,8.52,9.15,13,14.69,4.68,7.24,16.08,18.72,22.78,25.18,2.46,2.18,4.78,4.66,7.05,7.28,2.31,2.6,4.6,5.31,6.89,8.06l1.72,2.05,1.78,2c1.2,1.32,2.4,2.63,3.63,3.9,1.23,1.26,2.46,2.51,3.75,3.67,1.31,1.14,2.64,2.22,3.99,3.23.24.39,1.26.95,1.32.88,1.5,1.4,2.97,2.83,4.49,4.2l4.62,4.07s.71.61,1.88,1.62c1.17,1.01,2.8,2.42,4.76,3.89,1.94,1.49,4.12,3.15,6.3,4.75.55.4,1.09.79,1.63,1.19.56.37,1.11.73,1.66,1.08,1.09.7,2.15,1.37,3.15,1.97,3.98,2.4,6.92,3.77,6.84,2.52-.04-.63-.83-1.91-2.59-4.03-.88-1.06-2.01-2.33-3.41-3.83-.7-.74-1.47-1.56-2.3-2.44-.81-.9-1.69-1.88-2.63-2.92l.35.04c-2.44-2.24-4.45-4.02-6.37-5.5-1.87-1.55-3.65-2.82-5.69-3.95.22-1.36-4.06-3.6-4.93-4.96l.17.03c-3.55-2.1-5.61-6.16-8.97-8.26.17.04.44-.12,1.11.48-2.13-1.87-5.07-4.41-4.75-5.03-1.24-1.15-2.57-2.45-3.94-3.77-1.34-1.35-2.71-2.74-4.04-4.07-2.66-2.65-5.22-4.97-7.06-6.23l.34.09c-2.21-1.33-2.26-2.28-4.41-4.07-.04-.17-.14-.34-.09-.35-2.38-1.48-5.4-5.75-7.08-7.19l.24-.4-3.67-3.95,1.27,1.56c-1.39.3-2.14-3.54-5.29-5.98-2.28-2.86-6.81-3.92-8.82-7.22-1.61-1.01,1.75.61-.35-1.17.43-.48,1.13.7,1.06-.16-1.96-1.83-2.34-3.74-4.8-5.96l.29-.42c-3.47-2.68-4.73-6.6-7.23-8.22-3.17-3.11-.79-3.22-4.5-6.11l-.64-1.8c-1.19-1.58-1.54-.55-2.7-2.43.41-.17-1.53-2.33-.39-1.61-2.71-4.2-7.21-7.07-10.63-12.75-1.55-.54-3.33-3.35-4.49-3.74.16-.37-4.27-5.03-1.26-2.74.26.2.61.63.48.69h.66c-1.73-3.42-4.87-4.75-7.2-7.61.6.93,1.6,1.99.7,1.48l-2.22-2.61.78.26c-1.07-1.33-2.13-2.67-3.23-3.98l.1.86c-1.49-2.03-1.45-3.26-3.89-4.86-1.16-.67,1.09,2.22-.81.37-1.98-2.72-5.02-6.76-7.89-9.96-.14.69-.92-.16-1.83-.93l.26-.45c-3.67-2.78-.37-1.98-3.95-4.8l.53.04-1.58-.11c-3.57-2.19-.83-2.3-5.02-4.5,1.34,1.19-.16,1.37-1.59-.32l.73.04c-.94-.78-1.37-.92-1.9-1.54.71.31.76-.24-.6-1.41l1.29.39-3.08-1.69c-1.54-2.19-5.07-4.48-5.4-5.72,0,0-.99-1.01-2.18-2.04-1.19-1.03-2.55-2.11-3.28-2.25,1.16.39-1.08-1.77-.06-1.6-1.46-.55-5-3.05-6-4.56l.29.16c-2.29-2.26-4.54-3.85-6.75-5.34-2.18-1.53-4.34-2.93-6.43-4.95-.13.61-2.38-1.45-2.22-.41-5.2-2.92-7.98-7.52-11.04-6.83-2.32-1.38-2.37-2.21-3.48-3.08l.6.25c-2.16-1.33-3.6-2.11-4.85-2.89-1.25-.77-2.37-1.46-3.98-2.44-1.74-.76-2.5-.03-5.3-1.91,1.16.16-.08-.44-1.18-1.05.73.33,1.03.32-.28-.73-.27,0-.62-.1-.95-.21,0-.04-.04-.09.01-.11-1.91-.89-1.65-.6-.83-.07-.07.03-.04.14.17.39-1.63-1.56-5.38-2.8-5.28-3.58-2.85-1.38-5.4-2.34-7.83-3.23-2.44-.85-4.76-1.65-7.24-2.51-.4-.57.86-.41,2.33.06l-3.5-1.32c.23-.48,2.1.54,3.21.88-1.89-1.24-4.09-1.96-6.4-2.63-2.33-.62-4.7-1.35-7.05-2.54l-1.16.05-.27-.17c-.06.22-1.26.13-2.01-.05-.56-.67.4-1.04-2.09-1.77-.91-.51-2.33-.88-3.83-1.19-1.51-.3-3.14-.46-4.46-.69,1.38.45.86.58.22.58-1.25-.31-1.85-.97-2.87-1.01l.03-.64c.35.69-3.44-.12-3.96.02-.62-.62,2.04.05,2.44-.22-5.08-1.07-2.53-.61-7.64-1.51-2.81-.04.39.68-1.01.98-2.41-.37-4.82-.2-7.52-1l.8.68c-1.14-.07-2.16-.11-3.1-.16-.94-.05-1.8-.13-2.6-.23-1.61-.23-3.04-.48-4.55-.85-4.27.23-7.55.79-10.04,1.19-2.49.53-4.18,1-5.28,1.42-2.19.85-2.01,1.51-.77,1.94,1.21.47,3.42.78,5.32.97,1.9.21,3.5.38,3.5.38,6.38.73,11.17,1.13,16.32,1.47,2.57.22,5.24.38,8.19.78,1.48.17,3.04.37,4.69.68,1.65.31,3.42.56,5.28,1.04Z"/>
        </g>
        <g>
          <path class="cls-1" d="m610.96,354.21l-.08.23c.07-.08.11-.17.08-.23Z"/>
          <path class="cls-1" d="m626.99,368.68s.03-.01.05-.02c-.02,0-.04.01-.05.02Z"/>
          <path class="cls-1" d="m608.46,362.32h0s-.03.02-.05.03l.06-.03Z"/>
          <path class="cls-1" d="m605.63,359.17c.68.91.21,1.94,1.37,2.32.36.42.96.59,1.45.83.74-.49.54.44,1.23.1l-.22.44c.24-.12.43-.16.34.1l-.1.1c.35-.18.34.1.52.01l-.1.1.18.07-.15.13c.46-.12.68.05.75.34l.37-.45c-.03.83.9.05.75.94l-.1.1c1.46-.76.01,1.4,1.44.72-.18.08-.17.24-.27.35.32.06.6.2,1.37-.64.14.15-.11.38-.39.72.33-.37.61-.41.75-.32l-.18.09.46.19.57-.76c0,.37-.73.89-.4.88l.52-.58c.15.34-.5,1.35-.65,2,.77,1.16,3.21.72,3.18,2.59l-.37.46c-.58.63,1.13-.67.62-.07l.38-.18c-.08.14-.13.32-.31.41.07.12.17.02.43-.1l-.27.48c.1.67,1.14.25,1.4.8-.28,1.25,1.33,1.44,2.26,1.56,1.65-.16.04,3.09,1.82,2.83-.06.11.19-.02.27-.08l.58.79s.74.91,1.83.9c1.08-.02,2.55-.93,3.89-4.7l.15-.11c-.04-.71-.21-1.04-1.15-.66.8-.84-.23-.41-.04-.76l.08-.06c-.87.37.06-1.01-.74-.7.07-.05.31-.27.37-.23-.27-.07-.68-.12-.21-.6-.52-.28-.85-1.07-1.86-.58l.15-.11c-.66.36-.26-.11-.69-.02.05-.07.07-.11.1-.14-.67.34-.54-.39-.88-.3l.31-.32-.39-.24.05.19c-.91.82.31-.78-.48-.45-.11-.32-2.23,1.38-2.02.73-.51.3.75-.57.28-.41.44-.46.35-.21.67-.61-.37.06.2-.72-.29-.6l.34-.36c-.89.4-.02-.93-.8-.48-.55.04.85-1.23-.1-.8l.36-.59c-.04-.19-.66.51-.56.15.3-.3.07-.4.42-.62.16-.76-1.25.11-.87-1.08-.65.52-.51-.03-1,.37.24-.27-.35-.42.4-.78.06-.03.09.01-.01.11l.36-.33c.41-.89-.76-.01-.88-.32-.04.18.07.23-.22.42l-.16-.24.32-.26-.15-.46-.3.41c.03-.33.56-1.02-.1-.65-.35.22-.32.64-.59.61.04-.44.08-1.11-.07-1.46-.36.45-.42.37-.57.39l.33-.38c-.74.26.64-.9-.01-.75l.26-.23-.77.7c-.91.51.56-.89-.62-.14.17.04-.69.86-.67.58l.36-.33c-.14,0-.3.14-.28.02.22-.15.49-.5.33-.54l.48-.38-.8.47c.18-.53-.5-.27-.12-.84,0,0-.13-.56-.7-.07.38-.28.3-.58.71-.94-.44.31-.98.4-.72-.11l.06-.03c-.02-.77-1.19,0-1.09-.83-.36.45-.34.05-.78.65-.84.23.31-1.72-1.31-.1-.25-.05.15-.58.14-.74l.12-.06c-.44-.13-.54-.19-.74-.43-.26.07-.96.86-1.01.49.34-.27.2-.28.13-.34.09,0,.21-.11.29-.42-.1.09-.17.13-.24.16.02-.03.03-.05.06-.08-.23,0-.29.12-.27.22-.04.05-.09.11-.15.22.21-.53-.4-.29.05-.86-.5-.2-1.26.14-1.77.08.2-.32.49-.51.68-.54l-.32-.09c.34-.41.33-.13.47-.15.27-.9-1.13.2-.95-.69l-.34.27.02-.07c-.14.17-.41.35-.5.37.25-.4.68-.83.5-.94.16-.46-.51-.12-.84-.06.04.13-.15.31-.29.41-.09-.05.15-.45-.03-.35l.39-.5c-.34.49-.62.33-.81.5.25-.4.38-.21.62-.47-.36-.22-.18-.11-.55-.33-.47.23-.34.49-.77.86-.23-.03-.65.2-.59-.24l-.29.48c-.56.11-.69-.07-.54-.67-2.49.94-3.54,2.09-4,2.99-.45.9-.3,1.55-.3,1.55.06,1.62,1.49.67,2.74,1.12Z"/>
        </g>
        <g>
          <path class="cls-1" d="m375.81,82.56l.13.29c.03-.1,0-.21-.13-.29Z"/>
          <path class="cls-1" d="m423.68,108.94s.05,0,.07,0c-.04,0-.06,0-.07,0Z"/>
          <path class="cls-1" d="m380.86,92.72h-.01s-.05.02-.07.03l.08-.03Z"/>
          <path class="cls-1" d="m371.16,88.64c2.56,1.09,2.88,2.39,5.72,2.89,1.24.57,2.68.85,3.97,1.2.91-.58,1.62.65,2.58.28l.08.56c.33-.12.68-.16.81.18l-.07.12c.5-.18.81.18,1.06.09l-.07.12.46.13-.15.15c.78-.1,1.41.18,1.9.6l.19-.55c.92,1.14,1.86.25,2.61,1.45l-.08.12c2.03-.75,1.65,1.99,3.68,1.38-.25.07-.06.3-.14.42.71.17,1.42.44,1.97-.56.46.25.21.51.06.93.23-.44.73-.41,1.1-.24l-.26.08,1.1.42.25-.94c.41.54-.42,1.08.21,1.17l.37-.69c.68.55.54,1.83.97,2.73,1.4,1,3.11,1.57,4.76,2.22,1.62.7,3.15,1.52,4.11,2.96l-.21.56c-.43.74,1.43-.55,1.09.18l.52-.11c0,.19.08.45-.18.5.26.22.35.11.7.04v.65c.85,1.12,2.41.91,3.41,1.96.36.95,1.32,1.71,2.43,2.31,1.1.61,2.31,1.12,3.23,1.48.71.17,1.26.58,1.72,1.1.45.54.81,1.21,1.18,1.87.72,1.33,1.48,2.58,2.93,2.98-.02.15.33.1.39.03l1.69,1.76s.13.13.36.34c.23.2.55.48.91.81.74.63,1.7,1.36,2.64,1.73,1.85.73,3.67.17,2.91-5.67l.18-.09c-.65-1.33-1.22-2.02-2.59-2,.69-.94-.75-.88-.74-1.37l.09-.05c-1.23.06-.78-1.75-1.92-1.73.08-.05.31-.27.46-.16-.55-.3-1.34-.64-.93-1.17-1.2-.81-2.5-2.39-3.9-2.16l.17-.1c-.87.22-.59-.35-1.28-.43.03-.09.03-.15.06-.17-.89.19-1.36-.96-1.91-1.02l.26-.37-.94-.63.27.34c-.87.87-.19-1.15-1.34-1.01-.52-.59-2.78,1.08-3.05.13-.64.23.82-.55.11-.53.37-.52.45-.16.64-.66-.62-.09-.34-1.08-1.15-1.14l.27-.42c-1.26.21-1-1.51-2-1.15-.99-.2.34-1.57-1.01-1.33l.07-.77c-.28-.33-.71.51-.9-.02.26-.33-.29-.61.16-.79-.5-1.14-2.29-.37-2.83-2.07-.7.53-1.01-.26-1.53.14.16-.32-1.13-.8-.06-1.04.09-.02.18.06.1.17l.34-.36c-.17-1.22-1.49-.32-2.08-.84.11.26.4.38.05.56l-.58-.43.34-.27-.8-.76-.13.51c-.32-.49-.03-1.34-.91-1.02-.43.21.08.85-.48.7-.42-.67-1.08-1.64-1.79-2.21-.21.54-.41.41-.68.39l.22-.45c-1.17.14.23-1.13-.87-1.11l.24-.26-.72.79c-1.22.45.09-1.13-1.38-.41.37.11-.36,1.05-.66.64l.33-.37c-.27-.04-.44.1-.54-.06.26-.16.4-.58.03-.68l.51-.42-1.04.46c-.25-.71-1.32-.52-1.21-1.23,0,0-.9-.83-1.48-.29.42-.31-.09-.76.32-1.16-.51.33-1.49.3-1.59-.34l.09-.03c-.98-1.08-2.41-.26-3.21-1.39-.19.55-.63,0-.8.74-1.4.13-1.47-2.27-2.78-.36-.56-.1-.4-.75-.62-.97l.17-.06c-1.04-.24-1.33-.33-2.03-.69-.44.06-.89,1.01-1.45.53.37-.31.07-.34-.17-.43.18,0,.29-.13.07-.51-.09.1-.19.15-.28.19,0-.03,0-.06.03-.1-.46-.02-.44.13-.27.26-.03.06-.05.14-.03.27-.22-.67-1.19-.41-.98-1.11-1.29-.3-2.41.04-3.53-.03,0-.39.36-.62.71-.65l-.78-.12c.18-.5.52-.15.78-.17-.59-1.12-2.08.21-2.84-.89l-.35.33-.04-.09c-.07.21-.39.43-.56.44,0-.49.35-1.02-.17-1.16-.26-.57-1.21-.16-1.81-.08.26.16.09.38-.08.5-.26-.06-.27-.55-.52-.42l.16-.61c-.07.6-.85.41-1.02.63-.01-.49.51-.27.68-.58-1.04-.25-.52-.13-1.56-.38-.68.29-.07.6-.48,1.05-.51-.03-1.1.26-1.55-.27l.02.59c-1.02.17-1.54-.02-2-.73-3.94,1.32-4.61,2.77-4.37,3.84.24,1.08,1.41,1.82,1.41,1.82,1.11.93,2.09,1.08,3.2,1.06,1.09,0,2.31-.17,3.89.08Z"/>
        </g>
      </g>
    </g>
  </g>
</svg>