<?xml version="1.0" encoding="UTF-8"?>
<svg id="Layer_2" data-name="Layer 2" xmlns="http://www.w3.org/2000/svg" xmlns:xlink="http://www.w3.org/1999/xlink" viewBox="0 0 628.66 741.03">
  <defs>
    <style>
      .cls-1 {
        fill: url(#linear-gradient);
      }

      .cls-1, .cls-2, .cls-3, .cls-4, .cls-5 {
        stroke-width: 0px;
      }

      .cls-2 {
        fill: #a80f54;
      }

      .cls-3 {
        fill: #63002d;
      }

      .cls-4 {
        fill: #c64777;
      }

      .cls-5, .cls-6 {
        fill: #d11b47;
      }

      .cls-6 {
        stroke: #63002d;
        stroke-miterlimit: 10;
        stroke-width: 2.83px;
      }
    </style>
    <linearGradient id="linear-gradient" x1="-45.71" y1="103.2" x2="734.6" y2="615.65" gradientUnits="userSpaceOnUse">
      <stop offset="0" stop-color="#a4004b"/>
      <stop offset="1" stop-color="#c67795"/>
    </linearGradient>
  </defs>
  <g id="Phase_4" data-name="Phase 4">
    <g>
      <path class="cls-6" d="m18.85,89.3s-3.14-57.66-.08-64.14c3.05-6.48,17.04-16.14,17.04-16.14l62.79-5.81s25.55,10.16,27.18,9.98,11.58,9.58,14.43,13.2c2.85,3.61,8.29,19.87,8.29,19.87,0,0,2.23,14.39.89,16.72-1.33,2.33-10.07,9.66-10.07,9.66l-75.93,17.01-44.54-.35Z"/>
      <path class="cls-5" d="m115.66,140.35l34.16,3.6,8.51,1.07,14.71,19.89,14.65,34.03s4.49,42.53,4.96,43.77-3.37,54.25-3.37,54.25l-19.57,36.9s-4.91,7.69-15.57,6.78-57.96-.24-57.96-.24c0,0-18.81-28.41-19.33-33.52s12.33-24.81,12.33-24.81c0,0,12.53-23.14,13.7-26.54,1.17-3.4,10.83-41.36,10.83-41.36,0,0,1.52-53.14,1.93-55.48s.02-18.35.02-18.35Z"/>
      <path class="cls-5" d="m161.33,149.07l44.59-5.15,28.87-3.58s20.04,5.93,21.41,6.64c1.36.71,16.69,9.28,16.69,9.28,0,0,7.39,9.86,5.99,13.93-1.4,4.07-1.89,35.2-1.89,35.2,0,0-6.74,6.97-10.55,8.78-3.81,1.81-12.67-2.89-12.67-2.89,0,0-11.86-13.9-17.08-12.35-5.21,1.55-15.65-2.39-18.5-1.91s-20.45,3.79-23.27,3.79-18.29-5.22-18.29-5.22l-15.3-46.53Z"/>
      <path class="cls-5" d="m261.37,257.23l1.37,49.66-.06,49.49-5.54,43.79-6.59,14.66,10.82,16.71s25.9,13.82,32.15,13.9,28.76,0,28.76,0c0,0,20.16-30.13,18.59-33-1.57-2.86-1.49-51.68-1.49-51.68l-11.72-60.33-20.61-44.89h-11.29l-34.38,1.69Z"/>
      <path class="cls-5" d="m331.27,300.43l19.94-29.94s18.42,4.82,18.06,5.72c-.36.91,11.43,7.16,13.24,9.25s9.44,13.34,10.84,14.97c1.4,1.63,0,18.41,0,18.41,0,0,.59,17.44-2.18,16.2-2.77-1.24-12.74-12.57-14.56-14.39-1.81-1.81-14.33-6.84-16.02-7.01-1.69-.17-19.64,5.54-19.64,5.54l-2.39,2.13-2.29,2.64-5.01-23.52Z"/>
      <path class="cls-4" d="m389.64,346.37c1.53-.25,12.62-12.51,12.62-12.51l24.56,6.86,7.22,11.27,7.29,31.35,5.63,39.39-8.02,45.81-12.08,17.01s-2.15,3.14-11.02,3.96c-8.87.83-26.61-.16-28.83-3-2.22-2.83-4.28-9.54-4.28-9.54l15.37-14.91s2.25-4.99,4.18-11.64c1.92-6.65,4.7-21.62,4.7-21.62l-4.7-29.38s-8.52-38.62-8.29-38.72-4.33-14.33-4.33-14.33Z"/>
      <path class="cls-4" d="m485.49,374.53l-1.85,10.47v51.56s-3.68,45.55-3.68,45.55c0,0-10.21,16.17-10.83,18.86-.63,2.68-13.34,7.52-10.61,8.84,2.73,1.33,7.97,9.99,7.97,9.99l13.1,4.84s12.17-.86,12.18-3.99,13.32-18.75,13.32-18.75l5.45-27.46s-.17-34.19-1.43-37.98-2.11-32.05-2.11-32.05c0,0,2.7-2.74-.44-9.14-3.14-6.39-6.92-15.34-6.92-15.34l-14.16-5.4Z"/>
      <path class="cls-4" d="m545.02,445.6s-3.14,11.48-2.69,13.14-8.03,42.69-8.03,42.69l-26.45,30.05-8.21,3.89s10.7,11,10.89,11.04,10.22.82,10.22.82l15.98-14.2,13.46-16.37s10.14-35.18,12.17-36.84,3.7-5.35,4.26-11.27c.55-5.92-6.18-18.95-6.18-18.95l-15.42-3.99Z"/>
      <path class="cls-4" d="m533.36,558.97l22.86-14.58s21.07-28.93,21.84-29.29,6.34-5.29,6.34-5.29c0,0-.79,1.3,3.34,2.15,4.13.85,3.86,9.56,3.22,12.67-.64,3.12-.96,12.72-3.22,17.49-2.26,4.77-13.99,16.6-16.99,19.55s-17.77,10.41-17.77,10.41c0,0-12.79,1.84-15.73.34s-3.89-13.45-3.89-13.45Z"/>
      <path class="cls-4" d="m552.21,586.28c3.64-1.25,22.36-7.82,23.69-8.6,1.33-.78,25.88-11.04,25.88-11.04,0,0,2.92,9.46,3.29,12.21s1.83,9.17-.83,11.3c-2.65,2.14-12.67,9.49-19.85,11.37-7.17,1.88-21.49,7.01-23.95,4.45-2.46-2.57-.37-2.67-2.91-6.89-2.54-4.22-5.33-12.8-5.33-12.8Z"/>
      <path class="cls-4" d="m578.06,617.95s17.07-1.47,19.45-2.66c2.37-1.19,14.11-9.69,13.11-4.18s-2.9,11.34-2.9,11.34c0,0-8.07,8.64-10.3,8.91s-11.15,1.92-11.15,1.92c0,0-4.28-1.77-8.2-4.43-3.92-2.66,0-10.9,0-10.9Z"/>
      <path class="cls-4" d="m586.16,650.28c.76-.11,1.59-.22,2.48-.34,8.52-1.15,21.63-2.78,21.97-1.83.38,1.04,6.37,13.88,6.37,13.88,0,0-14.58,6.83-19.47,6.4-4.89-.43-13.53-4.64-13.53-4.64"/>
      <path class="cls-4" d="m590.43,682.07c2.61-.86,31.25-12.4,31.68-11.12s-5.13,12.4-5.13,12.4c0,0,7.01,5.62-2.48,5.8-9.49.18-7.73,2.73-15.87,1.37-8.15-1.36-11.15,1.87-10.89-1.37s2.7-7.08,2.7-7.08Z"/>
      <path class="cls-4" d="m594.11,706.17c6.63,1.98,27.15,3.97,27.15,3.97l-4.28,9.55s-9.45,8.98-15.2,7.27c-5.75-1.71-6.97.43-8.29-8.12s0-9.8,0-9.8l.61-2.87Z"/>
      <g>
        <g>
          <path class="cls-1" d="m620.26,701.55c2.68-4.02,1.41-10.14-2.65-12.76,6.72-4.67,4.38-17.25-3.57-19.19,4.5.81,6.55-5.9,4.77-10.11s-5.42-7.89-5.31-12.46c.06-2.58,1.35-4.96,1.9-7.48.96-4.43-.55-9.32-3.84-12.43-1.49-1.41-3.43-2.66-3.84-4.67-.42-2.05.92-3.98,1.89-5.83,3.94-7.44,2.04-17.51-4.36-22.99,4.16-7.98.13-19.12-8.18-22.58,4.98-3.72,2.92-13.18-3.16-14.5,5.27-7.49,3.87-18.89-3.06-24.87,4.93-8.5,2.88-20.4-4.61-26.77-1.77-1.5-3.84-2.77-5.02-4.77-1.49-2.53-1.25-5.67-1.36-8.61-.17-4.75-1.5-9.66-4.79-13.09s-8.83-4.94-12.98-2.62c2.03-7.01,3.28-14.72.5-21.47s-10.9-11.71-17.57-8.75c3.75-10.33.63-22.79-7.54-30.14-8.17-7.35-20.89-9.14-30.77-4.32.5-8.65.85-17.74-2.95-25.53s-13.23-13.55-21.25-10.26c-3.76-10.47-8.98-20.42-15.44-29.48-3.34-4.68-7.89-9.55-13.64-9.34-3.29.12-6.34,1.95-9.63,2.03-7.72.18-5.67-9.37-8.07-13.82-2.9-5.37-9.67-8.77-15.35-10.16-8.45-2.07-17.36-2.27-25.89-.57,2.02-23.19-20.07-45.4-43.27-43.52,6.03-18.1-4.66-38.63-20.71-48.95-16.05-10.32-36.06-12.33-55.12-11.68,5.02-12.5,6.26-26.49,3.5-39.67-1.04-5-2.72-10.01-5.99-13.93-5.05-6.05-13.09-8.62-20.8-10.25-17.01-3.6-34.69-4.05-51.87-1.3-24.74,3.95-4.5-18.23-5.21-32.55-.68-13.73-10.5-25.38-21.54-33.56-8.71-6.45-20.07-11.59-30.17-7.64,12.3-17.34,3.33-43.39-14.09-55.56C111.78,3.24,89,1.99,67.84,3.98c-17.7,1.66-36.04,5.68-49.61,17.17l2.2,243.47c12.41,18.55,38.63,20.03,60.94,19.6-12.61,17.02-.58,43.27,18.52,52.41,19.1,9.14,41.63,5.93,62.3,1.28-4.33,19.11-5.73,40.89,5.97,56.6,8.8,11.82,23.68,17.92,38.36,19.18,14.68,1.26,29.36-1.77,43.7-5.16-2.53,12.41,8.98,23.17,20.32,28.81,14.97,7.44,31.82,11.06,48.53,10.43-.29,13.67,10.5,25.85,23.37,30.45,12.87,4.6,27.22,2.84,40.27-1.25,11.22,11.28,29.5,14.83,44.13,8.58,1.44,16.37,23.41,26.72,36.95,17.4-4.88,4.34-2.62,13.04,2.68,16.84,5.31,3.8,12.27,4.11,18.8,4.27-1.86,2.05-3.72,4.1-5.58,6.15,5.82,6.43,16.35,7.95,23.75,3.42-.58,3.17-1.16,6.34-1.75,9.51,5.81,3.08,12.48,4.51,19.04,4.08-2.82,2.1-4.39,5.78-3.95,9.28,5.44,3.24,11.5,5.42,17.76,6.39-1.51,2.47-3.03,4.95-4.54,7.42,0,1.47,16.99,5.97,19.02,7.31,7.95,5.26,7.67,12.21,4.99,19.98,3.35,1.35,6.79,2.75,9.46,5.19s4.49,6.15,3.67,9.67c2.57.34,5.04,1.4,7.05,3.04-3.15,2.57-3.19,8.07-.07,10.69,2.23,1.87,6.02,3.03,5.82,5.94-2.09.25-4.89,1.55-4.15,3.52.24.65.84,1.09,1.41,1.5,1.85,1.31,3.69,2.61,5.54,3.92-2.99.97-6.7,3.27-5.62,6.22.4,1.09,1.39,1.84,2.33,2.52,1.67,1.21,3.34,2.42,5.01,3.63-3.54,3.24-4.33,8.73-2.96,13.33s4.57,8.43,8.04,11.74c-2.23.06-3.36,2.97-2.72,5.1.64,2.13,2.36,3.73,3.64,5.56,2.55,3.64.04,4.44-.17,7.47-.24,3.4.34,4.41,1.71,7.71,2.84,6.83,1.52,8.74.1,15.91-.61,3.08,1.75,6.14,4.63,7.39,2.88,1.26,6.15,1.16,9.29,1.03-1.09,2.75.8,5.96,3.41,7.37,2.61,1.4,5.7,1.46,8.66,1.49,1.73.02,3.6-.01,4.97-1.07.7-.54,1.19-1.3,1.58-2.09,1.2-2.42,1.28-5.79-.88-7.4-.85-.64-1.98-.94-2.64-1.77-1.67-2.09.81-4.89,1.48-7.49.92-3.57-1.84-7.06-2.02-10.75-.08-1.72-.07-4.12-1.78-4.37"/>
          <path class="cls-3" d="m621.55,702.31c3-5.1,1.55-11.36-3.19-14.81v2.59c7.63-5.84,5.44-19.18-3.93-21.93l-.4,2.95c5.8.5,7.84-6.66,6.5-11.24s-5.65-7.97-5.53-12.83c.1-4.43,2.7-7.95,1.97-12.55-.58-3.66-2.44-6.63-5.13-9.12-1.47-1.36-2.96-2.19-2.48-4.92.23-1.34,1.43-2.74,1.98-3.97.68-1.5,1.18-3.05,1.47-4.67,1.27-7.08-1.2-14.39-6.5-19.23l.23,1.82c4.31-8.99.46-20.45-8.72-24.64l.3,2.36c5.75-4.88,3.34-14.99-3.82-17l.9,2.2c5.53-8.36,4.09-19.92-3.3-26.69l.23,1.82c2.97-5.46,3.67-11.83,1.94-17.81-.82-2.84-2.17-5.52-3.99-7.85-2.45-3.13-7.08-5.08-8.24-9.04-1.03-3.5-.3-7.39-1.04-10.99-.62-3.02-1.85-6-3.82-8.4-3.82-4.65-10.15-6.47-15.64-3.83l2.2,1.69c2.31-8.23,3.92-18.2-1.36-25.68-3.9-5.52-10.97-8.93-17.55-6.39l1.85,1.85c3.76-11.09.64-24.21-8.33-31.95s-21.67-9.07-32.19-4.21l2.26,1.3c.56-9.92,1.04-21.33-5.28-29.71-4.77-6.33-13.02-10.37-20.81-7.53l1.85,1.05c-4.12-11.27-9.66-22.45-17.14-31.9-2.86-3.61-6.55-7.14-11.29-7.87s-12.13,4.46-15.29.29c-2.04-2.69-1.48-6.91-2.58-10.01-1.44-4.04-5.1-7.09-8.74-9.13-10.25-5.74-23.59-5.86-34.83-3.76l1.9,1.45c1.74-24.25-20.51-46.62-44.77-45.02l1.45,1.9c5.62-17.82-3.44-36.91-17.62-47.95-16.72-13.02-39.19-15.21-59.66-14.57l1.45,1.9c3.69-9.45,5.43-19.59,4.89-29.74-.45-8.47-1.97-18.05-7.4-24.86s-13.8-9.38-21.82-11.1c-10.69-2.28-21.69-3.32-32.62-3.1-5.17.1-10.33.48-15.46,1.14-3.8.49-8.16,1.77-11.99.81-5.29-1.32-2.35-8.11-1.13-11.54,1.87-5.27,4.25-10.46,5.02-16.04,1-7.25-1.63-14.83-5.36-20.96-4.83-7.95-11.96-14.58-19.71-19.66-8.32-5.44-18.52-9.2-28.33-5.7l1.69,2.2c13.55-19.77,2.04-47.07-16.63-58.94-11.93-7.58-26.15-10.48-40.11-10.99s-29.01.85-42.78,4.49c-6.57,1.74-13.02,4.16-18.94,7.53-2.59,1.48-8.7,4.33-9.41,7.42-.33,1.43.03,3.36.04,4.81.08,9.35.17,18.7.25,28.05.29,32.4.59,64.81.88,97.21.28,30.48.55,60.97.83,91.45.06,6.92-.12,13.9.19,20.82.21,4.77,6.38,9.18,9.95,11.7,9.75,6.88,22.06,9.18,33.73,10.06,6.24.47,12.51.49,18.77.38l-1.3-2.26c-11.56,16.19-2.83,38.37,11.48,49.68,19.82,15.67,48.27,11.3,71.03,6.22l-1.85-1.85c-3.92,17.56-5.87,37.74,3.61,53.95,9.6,16.42,28.91,23.56,47.14,23.99,13.24.31,26.31-2.46,39.13-5.48l-1.85-1.85c-2.42,14.02,9.62,24.78,21.01,30.51,15.21,7.64,32.31,11.16,49.29,10.63l-1.5-1.5c-.01,12.88,8.54,24.13,19.75,29.85,14.2,7.25,31.07,5.31,45.78.79l-1.46-.39c11.91,11.61,30.17,15.29,45.59,8.96l-1.9-1.45c1.95,17.6,24.24,28.51,39.21,18.7l-1.82-2.36c-4.62,4.62-3.65,11.93.31,16.69,5.31,6.39,14.58,6.78,22.24,6.98l-1.06-2.56c-1.86,2.05-3.72,4.1-5.58,6.15-.55.61-.58,1.51,0,2.12,6.64,6.91,17.26,8.4,25.57,3.66l-2.2-1.69c-.58,3.17-1.16,6.34-1.75,9.51-.12.63.07,1.38.69,1.69,6.2,3.15,12.85,4.62,19.8,4.29l-1.06-2.56c-2.58,2.16-6.5,8.23-3.8,11.52,1.53,1.86,5.66,2.99,7.9,3.86,3.36,1.3,6.82,2.2,10.37,2.79l-.9-2.2c-1.01,1.65-2.02,3.3-3.03,4.95-.55.89-1.73,2.12-1.72,3.23,0,.96.76,1.51,1.48,1.98,2.83,1.83,6.7,2.63,9.87,3.67,3.35,1.09,7.24,1.82,9.99,4.14,5.46,4.6,4.75,10.98,2.71,17.11-.28.83.33,1.55,1.05,1.85,5.47,2.22,13.24,5.75,12.09,13.01-.12.74.18,1.7,1.05,1.85,2.53.44,4.64,1.35,6.69,2.89l-.3-2.36c-2.46,2.35-3.43,5.78-2.44,9.08.43,1.43,1.26,2.72,2.37,3.73,1.58,1.43,5.22,2.46,5.38,4.88l1.1-1.45c-2.27.42-5.34,1.61-5.34,4.37,0,3.34,5.54,5.73,7.78,7.31l.36-2.74c-2.92,1.06-7.05,3.09-6.91,6.81s5.64,6.41,8.27,8.31l-.3-2.36c-8.48,8.6-2.04,20.26,5.08,27.19l.66-2.51c-5.4,1.03-4.19,7.26-1.8,10.5,1.33,1.81,3.07,3.26,2.44,5.61-.31,1.15-.82,2.05-.97,3.27-.38,3.06.63,5.54,1.74,8.31,1.3,3.25,1.92,6.15,1.28,9.62-.53,2.85-1.85,5.9-1.03,8.81,1.87,6.66,9.51,7.21,15.22,7.01l-1.45-1.9c-1.73,6.27,4.21,10.05,9.69,10.6,5.83.58,12-.09,12.67-7.14.24-2.54-.62-4.37-2.41-6.06-.71-.68-2.33-1.54-2.4-2.68-.05-.86,1.12-2.68,1.45-3.54.41-1.09.71-2.17.7-3.34-.03-3.5-1.85-6.84-2.25-10.32-.25-2.15-.62-3.85-2.81-4.64-1.82-.66-2.6,2.24-.8,2.89.98.35.78,4.03.97,4.96.42,2.01,1.46,3.87,1.78,5.9.55,3.52-3.25,6.79-1.78,10.23.59,1.36,1.67,1.69,2.71,2.57,2.61,2.19,2.54,6.92-1.27,8.15-4.38,1.41-15.13-.33-13.36-6.78.25-.91-.47-1.93-1.45-1.9-3.1.11-6.7.36-9.47-1.31-3.99-2.41-2.79-6.02-2.01-9.77s.77-7.21-.6-10.93c-.83-2.27-2.07-4.39-2.18-6.86-.1-2.12.95-3.48,1.26-5.42.27-1.66-.36-3.11-1.26-4.48-1.16-1.77-6.56-7.54-1.81-8.45,1.12-.22,1.43-1.76.66-2.51-5.86-5.7-12.33-15.6-5.08-22.95.73-.74.47-1.79-.3-2.36-1.57-1.14-3.66-2.24-5.01-3.63-1-1.03-1.66-2.45-.74-4.02.48-.83,2.87-1.69,3.67-1.98,1.26-.45,1.44-1.98.36-2.74-1.24-.88-2.78-1.69-3.88-2.74-2.27-2.17-2.01-2.95.72-3.45.61-.11,1.14-.84,1.1-1.45-.16-2.46-1.53-3.82-3.5-5.17-1.54-1.06-3.16-1.85-4.05-3.57-1.21-2.34-.47-5.07,1.36-6.82.76-.73.44-1.8-.3-2.36-2.25-1.69-4.63-2.71-7.41-3.19l1.05,1.85c1.45-9.18-6.92-13.76-14.18-16.7l1.05,1.85c2.84-8.53,2.16-18.68-7.44-22.47-3.62-1.43-7.4-2.45-11.07-3.7-1.64-.56-3.37-1.07-4.91-1.86-.16-.08-.7-.27-.75-.41.23.67.94-.2,1.15-.35,1.33-.96,2.55-4.17,3.41-5.57.47-.76.06-2.04-.9-2.2-6.19-1.05-11.95-3.09-17.4-6.24l.74,1.3c-.23-3.37.93-6.05,3.51-8.22.99-.83.19-2.62-1.06-2.56-6.43.31-12.54-.96-18.29-3.88l.69,1.69c.58-3.17,1.16-6.34,1.75-9.51.23-1.25-1-2.38-2.2-1.69-7.16,4.09-16.23,2.75-21.94-3.19v2.12c1.86-2.05,3.72-4.1,5.58-6.15.87-.96.27-2.53-1.06-2.56-5.98-.16-12.73-.26-17.78-3.91-4.43-3.2-6.97-10.3-2.64-14.63,1.18-1.18-.36-3.31-1.82-2.36-12.88,8.45-32.98-.61-34.69-16.11-.09-.85-.9-1.86-1.9-1.45-14.46,5.93-31.46,2.74-42.67-8.19-.38-.37-.95-.54-1.46-.39-13.59,4.17-29.2,6.28-42.52-.02-10.74-5.08-19.23-15.5-19.22-27.73,0-.79-.69-1.53-1.5-1.5-15.16.47-30.32-2.34-44.19-8.53-11.07-4.95-25.64-14.74-23.21-28.81.19-1.13-.66-2.12-1.85-1.85-23.79,5.6-51.96,10.5-72.88-5.78-19.33-15.05-18.12-41.42-13.31-62.99.25-1.14-.7-2.1-1.85-1.85-21.28,4.75-47.79,9.12-66.88-4.53-14.17-10.13-23.33-31.44-12.24-46.96.67-.94-.23-2.28-1.3-2.26-12.27.22-24.85.03-36.73-3.41-5.69-1.64-11.23-4.12-15.88-7.83-2.25-1.8-4.2-3.88-5.98-6.14-.48-.61-.72-.46-.85-.93-.41-1.39-.03-3.49-.04-4.92l-.1-10.92c-.25-27.21-.49-54.42-.74-81.63-.29-32.37-.59-64.73-.88-97.1-.1-11.39-.21-22.78-.31-34.17l-.09-10.28c0-1.08-.45-3.15-.04-4.17.13-.32-.25.91.24.08.19-.33,3.45-2.24,4.2-2.74,3.09-2.05,6.38-3.82,9.78-5.3,6.41-2.8,13.23-4.62,20.1-5.9,13.79-2.57,28.33-3.53,42.29-1.94s27.95,6.17,37.84,16.13c8.4,8.46,13.85,20.5,13.28,32.54-.28,5.84-2.15,11.3-5.45,16.12-.72,1.05.48,2.64,1.69,2.2,9.49-3.39,19.15.69,27.03,6.08,7.18,4.91,13.82,11.26,18.18,18.85,3.69,6.44,5.65,13.83,3.82,21.14-1.3,5.2-3.64,10.06-5.21,15.17-.98,3.21-2.1,7.47.23,10.39,2.91,3.65,8.92,2.69,12.87,2.11,10.59-1.56,21.24-2.11,31.93-1.37,9.63.67,19.92,1.91,28.97,5.49,5.34,2.12,9.92,5.49,12.66,10.64,2.53,4.76,3.62,10.4,4.21,15.71,1.24,11.17-.39,22.39-4.47,32.84-.35.91.55,1.93,1.45,1.9,19.21-.6,39.96,1.23,56.13,12.66,14.26,10.08,23.73,28.73,18.26,46.07-.28.89.49,1.96,1.45,1.9,22.73-1.5,43.4,19.3,41.77,42.02-.08,1.05,1.01,1.61,1.9,1.45,11.3-2.11,26.37-2.08,35.78,5.63,3.4,2.79,4.38,5.79,5.11,9.89.48,2.71,1.01,5.73,3.26,7.58,2.89,2.38,6.74,1.36,9.99.45,6.51-1.83,10.78.24,14.99,5.3,7.55,9.07,13.04,20.43,17.07,31.44.26.71,1.03,1.34,1.85,1.05,7.53-2.75,15.43,2.04,19.09,8.68,4.26,7.73,3.69,17.15,3.21,25.66-.07,1.23,1.3,1.74,2.26,1.3,9.56-4.41,21.58-2.83,29.34,4.45s10.1,18.51,6.77,28.32c-.35,1.02.79,2.25,1.85,1.85,6-2.32,12.35,1.28,15.23,6.71,3.54,6.67,1.93,14.78,0,21.66-.38,1.34,1.07,2.24,2.2,1.69,7-3.37,13.17,3,14.81,9.36,1.29,5.01-.38,10.98,2.93,15.37,1.46,1.94,3.6,3.16,5.35,4.81,2.27,2.14,3.94,4.86,4.95,7.81,1.87,5.46,1.43,11.4-1.33,16.47-.31.57-.26,1.36.23,1.82,6.45,5.91,7.65,15.76,2.83,23.06-.54.82,0,1.95.9,2.2,5.14,1.44,6.48,8.61,2.5,11.99-.69.59-.54,1.97.3,2.36,7.6,3.47,11.31,12.9,7.64,20.53-.28.58-.28,1.35.23,1.82,5.25,4.79,7.42,12.45,4.97,19.22-1.03,2.86-3.64,5.66-2.9,8.93.69,3,3.73,4.47,5.47,6.76,2.56,3.39,2.9,7.43,1.69,11.41-1.01,3.33-1.95,6.25-.84,9.69.99,3.07,3.08,5.6,4.45,8.49s1.55,9.28-3,8.89c-1.73-.15-1.97,2.48-.4,2.95,6.66,1.95,8.85,12.13,3.21,16.45-.94.72-.97,1.88,0,2.59,3.41,2.49,4.22,7.12,2.11,10.71-.98,1.67,1.61,3.18,2.59,1.51h0Z"/>
        </g>
        <path class="cls-3" d="m20.27,27.62v-2.46c0-.38-.17-.79-.44-1.06s-.69-.46-1.06-.44-.79.14-1.06.44-.44.65-.44,1.06v2.46c0,.38.17.79.44,1.06s.69.46,1.06.44.79-.14,1.06-.44.44-.65.44-1.06h0Z"/>
        <path class="cls-3" d="m3.19,93.2c18.86,1.59,37.84,1.58,56.69-.04,18.67-1.6,37.35-4.61,55.47-9.44,9.4-2.5,18.54-5.96,26.23-12.06,1.35-1.07,1.12-3.39,0-4.51-1.33-1.33-3.16-1.07-4.51,0-6.26,4.96-13.95,7.78-21.55,9.91-8.61,2.41-17.41,4.26-26.21,5.83-18.11,3.24-36.49,4.93-54.88,5.1-10.42.1-20.85-.3-31.23-1.17-1.72-.14-3.19,1.57-3.19,3.19,0,1.85,1.47,3.04,3.19,3.19h0Z"/>
        <path class="cls-3" d="m98.09,87.84c12.26,25.63,16.22,54.28,15.48,82.47-.37,14.22-1.89,28.4-4.18,42.44-1.18,7.22-2.55,14.4-4.07,21.55-1.25,5.88-2.6,11.74-4.49,17.46s-4.36,11.48-8.13,16.74c-3.22,4.5-8.05,8.59-13.21,10.5-1.61.6-2.71,2.16-2.23,3.92.43,1.55,2.3,2.83,3.92,2.23,11.8-4.37,19.02-14.62,23.64-25.87,2.27-5.52,3.91-11.29,5.27-17.09,1.65-7.03,3.05-14.13,4.33-21.24,2.65-14.78,4.58-29.72,5.3-44.73s.19-29.7-1.96-44.4-6.04-28.77-11.91-42.27c-.72-1.66-1.48-3.3-2.26-4.93s-2.96-1.96-4.36-1.14c-1.59.93-1.89,2.8-1.14,4.36h0Z"/>
        <path class="cls-3" d="m112.89,136.62c3.14,4.12,7.69,6.11,12.66,7.16,5.71,1.2,11.57,1.88,17.35,2.59,11.99,1.46,24.05,2.29,36.13,2.46,3.43.05,6.85.05,10.28,0,1.6-.03,3.11-.06,4.52-.93,1.97-1.22,2.4-3.38,1.46-5.4-.73-1.56-2.98-1.96-4.36-1.14-1.6.94-1.87,2.8-1.14,4.36l.11.23-.44-1.61.9-1.79.18-.1.25-.03h-.49c-.65,0-1.31.03-1.96.04-1.39.02-2.77.03-4.16.03-2.61,0-5.22-.03-7.83-.09-5.3-.12-10.6-.36-15.89-.73-10.37-.72-20.75-1.87-31-3.63-2.21-.38-4.42-.84-6.53-1.62-1.6-.59-3.54-1.73-4.52-3.03-1.04-1.37-2.75-2.09-4.36-1.14-1.35.79-2.19,2.98-1.14,4.36h0Z"/>
        <path class="cls-3" d="m163.72,149.06c4.1,0,4.11-6.38,0-6.38s-4.11,6.38,0,6.38h0Z"/>
        <path class="cls-3" d="m156.08,147.28c17.51,19.32,27.84,43.92,32.56,69.43,2.38,12.89,3.32,26.13,3.05,39.37-.29,14.46-1.72,29.05-6.36,42.81-4.9,14.56-13.07,27.97-23.44,39.26-1.16,1.27-1.25,3.26,0,4.51,1.18,1.18,3.34,1.27,4.51,0,9.83-10.71,17.69-23.07,23.07-36.58,5.66-14.22,7.74-29.41,8.43-44.62.62-13.75-.09-27.53-2.2-41.13s-5.58-26.45-10.81-38.89-12.25-24.43-21.04-34.93c-1.06-1.27-2.15-2.51-3.25-3.73s-3.33-1.18-4.51,0c-1.27,1.27-1.16,3.23,0,4.51h0Z"/>
        <path class="cls-3" d="m192.98,196.95c-1.76,2.18-1.39,4.87,1.03,6.42,1.88,1.21,4.04.97,6.15.8,4.32-.36,8.59-1.05,12.9-1.53s8.51-.81,12.7-.23c3.68.51,6.88,1.68,9.97,3.62,13.36,8.36,16.9,25.84,18.87,40.55,2.42,18.09,2.62,36.47,3.36,54.68s1.85,36.64,1.54,54.96c-.15,8.97-.66,17.97-1.92,26.86-1.2,8.42-3.07,16.86-6.77,24.57-.91,1.9-1.93,3.76-3.01,5.57-2.11,3.53,3.4,6.74,5.51,3.22,9.25-15.45,11.42-33.76,12.29-51.42.89-18.21-.14-36.45-.88-54.64-.75-18.27-1.04-36.63-2.73-54.84-.82-8.85-1.92-17.81-4.2-26.42-2.07-7.83-5.37-15.37-10.69-21.56-5.04-5.86-11.91-10.11-19.6-11.28-8.71-1.33-17.3.55-25.96,1.4-1.07.11-2.14.19-3.21.25-.23.01-.46.02-.69.04-.6.05,0,.07,0,.07.03-.01-.68-.06-.15,0l-.13-.08c-.84-.54-.58.23.79,2.32l-.82,1.41.17-.21c1.08-1.34,1.31-3.2,0-4.51-1.12-1.12-3.42-1.35-4.51,0h0Z"/>
        <path class="cls-3" d="m261.37,260.42c9.13-.56,18.27-1.35,27.42-1.65,4.29-.14,8.38.25,12.52,1.39,3.79,1.05,7.72,2.3,11.24,4.08,1.78.9,3.48,1.98,4.74,3.55,1.09,1.36,1.62,2.87,1.58,4.5h6.38c0-.2,0-.41.01-.61.08-4.11-6.3-4.11-6.38,0,0,.2,0,.41-.01.61-.08,4.11,6.26,4.1,6.38,0,.13-4.63-2.51-8.71-6.09-11.44s-7.95-4.17-12.14-5.6c-4.58-1.56-9.28-2.68-14.13-2.87s-9.78.31-14.64.61l-16.87,1.04c-1.72.11-3.19,1.39-3.19,3.19,0,1.64,1.46,3.3,3.19,3.19h0Z"/>
        <path class="cls-3" d="m329.92,302.68c9.08-9.75,16.65-20.86,22.31-32.92.73-1.56.44-3.44-1.14-4.36-1.38-.81-3.63-.42-4.36,1.14-5.43,11.58-12.59,22.27-21.31,31.63-2.8,3,1.7,7.52,4.51,4.51h0Z"/>
        <path class="cls-3" d="m306.69,256.41l-1.25.63c-.37.2-.67.47-.89.82-.28.31-.47.67-.57,1.08-.13.42-.15.85-.06,1.27.02.42.15.82.38,1.19l.5.65c.4.4.87.67,1.41.82l.85.11c.58,0,1.11-.15,1.61-.44l1.25-.63c.37-.2.67-.47.89-.82.28-.31.47-.67.57-1.08.13-.42.15-.85.06-1.27-.02-.42-.15-.82-.38-1.19l-.5-.65c-.4-.4-.87-.67-1.41-.82l-.85-.11c-.58,0-1.11.15-1.61.44h0Z"/>
        <path class="cls-3" d="m298.31,258.22c17.94,17.14,26.63,41.01,31.81,64.85,2.83,13.02,4.87,26.28,6.28,39.52,1.58,14.76,2.12,29.94-.65,44.52-2.68,14.1-8.26,27.87-17.92,38.64-1.15,1.28-1.26,3.25,0,4.51,1.17,1.17,3.36,1.29,4.51,0,19.78-22.04,23.39-52.9,21.05-81.31-1.18-14.37-3.32-28.77-6.14-42.91-2.5-12.53-5.81-24.94-10.77-36.74-5.57-13.25-13.21-25.62-23.65-35.6-2.97-2.84-7.48,1.67-4.51,4.51h0Z"/>
        <path class="cls-3" d="m339.03,325.56c3.48-4.57,8.9-7.6,14.65-8.64,5.44-.98,11.21.39,16.07,3.22,11.18,6.52,16.78,18.87,19.45,31.35,1.53,7.15,2.24,14.44,3.04,21.7.87,7.93,1.74,15.86,2.61,23.79s1.78,16.19,2.66,24.28,1.96,15.76,1.43,23.67c-.47,6.95-2.57,13.99-7.04,19.09-2.21,2.52-4.47,4.14-7.55,5.53-3.52,1.6-6.68,4.15-5.89,8.41.31,1.69,2.37,2.66,3.92,2.23,1.78-.49,2.54-2.22,2.23-3.92.06.32-.15.71.06.3-.14.27-.4.56-.05.22.09-.09.65-.56.32-.31.31-.23.65-.43.99-.61,1.33-.74,2.76-1.26,4.07-2.03,2.77-1.62,5.24-3.8,7.23-6.31,4.5-5.67,6.87-12.37,7.78-19.5,1.02-8.08.02-16.24-.86-24.28s-1.83-16.69-2.75-25.03-1.83-16.69-2.75-25.03c-.86-7.84-1.62-15.73-3.23-23.46-2.85-13.68-9.13-27.04-21.22-34.83-5.45-3.51-12.04-5.54-18.55-5.1-6.96.48-13.63,3.35-18.72,8.13-1.27,1.19-2.37,2.52-3.42,3.91s-.22,3.57,1.14,4.36c1.64.96,3.32.23,4.36-1.14h0Z"/>
        <path class="cls-3" d="m393.92,336.65c4.15-7.26,5.55-15.62,4.27-23.85-.27-1.7-2.4-2.65-3.92-2.23-1.82.5-2.49,2.21-2.23,3.92.98,6.29-.36,13.23-3.63,18.94-.86,1.49-.35,3.49,1.14,4.36s3.51.36,4.36-1.14h0Z"/>
        <path class="cls-3" d="m391.9,344.22c3.81-3.83,9-6.4,14.21-7.01,5.5-.65,10.75.61,15.43,3.51,4.94,3.07,8.08,7.68,10.39,13.1,2.58,6.06,4.66,12.37,6.4,18.72,3.52,12.85,5.42,26.09,5.64,39.41.2,12.53-.94,24.98-4.07,37.1-3.32,12.84-8.94,25.19-17.77,35.2-1.14,1.29-1.27,3.24,0,4.51,1.16,1.16,3.37,1.3,4.51,0,17.6-19.94,23.6-47.38,23.73-73.36.07-14.4-1.76-28.86-5.41-42.78-1.78-6.81-4-13.53-6.68-20.04-1.33-3.21-2.75-6.42-4.81-9.24-1.93-2.64-4.18-4.89-6.8-6.84-11.9-8.8-28.89-7.25-39.27,3.2-2.9,2.92,1.61,7.43,4.51,4.51h0Z"/>
        <path class="cls-3" d="m432.86,343.13l-1.08.98c-.56.51-.97,1.5-.93,2.25s.24,1.36.68,1.93c.41.53.99.99,1.66,1.14.78.18,1.79.18,2.46-.32,1.24-.93,2.4-1.91,3.41-3.09s1.91-2.42,2.63-3.78c.4-.75.55-1.63.32-2.46-.2-.74-.78-1.54-1.47-1.91-.74-.39-1.64-.59-2.46-.32-.77.25-1.51.73-1.91,1.47-.46.87-.99,1.69-1.59,2.47l.5-.65c-.89,1.15-1.92,2.19-3.07,3.08l.65-.5c-.08.06-.15.12-.23.17l3.86,5.01,1.08-.98c.59-.53.93-1.48.93-2.25s-.35-1.72-.93-2.25-1.41-.97-2.25-.93-1.61.35-2.25.93h0Z"/>
        <path class="cls-3" d="m477.27,375.92c1.87,18.68,2.93,37.44,3.14,56.21.11,9.22.1,18.46-.32,27.67-.39,8.52-1.38,17.1-4.46,25.11-2.75,7.16-7.54,13.97-14.13,18.08-3.48,2.16-.28,7.68,3.22,5.51,6.65-4.14,11.76-10.36,15.13-17.39,3.83-7.97,5.5-16.65,6.24-25.42.8-9.41.76-18.92.73-28.35s-.28-19.19-.75-28.77c-.53-10.9-1.35-21.79-2.43-32.66-.17-1.71-1.34-3.19-3.19-3.19-1.59,0-3.36,1.46-3.19,3.19h0Z"/>
        <path class="cls-3" d="m501.94,413.29c3.02,16.23,6.04,32.56,5.93,49.13-.05,7.99-.56,16.09-1.9,23.97-1.23,7.19-3.24,14.32-6.89,20.67s-8.64,11.58-15.2,14.82c-1.54.76-1.97,2.95-1.14,4.36.92,1.57,2.81,1.91,4.36,1.14,13.62-6.73,21.21-21.16,24.29-35.46,1.77-8.22,2.48-16.7,2.77-25.09s-.22-17.38-1.28-26.02c-1.2-9.8-2.98-19.52-4.79-29.22-.32-1.69-2.36-2.66-3.92-2.23-1.78.49-2.54,2.22-2.23,3.92h0Z"/>
        <path class="cls-3" d="m501.26,536.34c6.83-4.49,13.7-9.03,19.76-14.55,5.05-4.6,9.42-9.97,12.98-15.79,7.11-11.58,11.07-25.09,11.49-38.66.24-7.65-.71-15.39-2.84-22.75-1.14-3.94-7.29-2.26-6.15,1.7,3.48,12.04,3.46,24.82.31,36.91s-9.42,23.45-18.41,32.29c-6.09,5.98-13.25,10.67-20.36,15.34-1.44.95-2.05,2.82-1.14,4.36.84,1.43,2.92,2.09,4.36,1.14h0Z"/>
        <path class="cls-3" d="m521.16,550.85c10.32-7.95,20.24-16.85,28.12-27.28,7.09-9.38,12.02-20.48,14.44-31.97,1.39-6.6,1.99-13.36,1.72-20.1-.07-1.72-1.42-3.19-3.19-3.19-1.67,0-3.26,1.46-3.19,3.19.45,11.11-1.53,22.19-5.83,32.47s-11.52,19.69-19.74,27.78c-4.91,4.83-10.09,9.39-15.54,13.6-1.36,1.05-2.09,2.74-1.14,4.36.78,1.34,2.99,2.2,4.36,1.14h0Z"/>
        <path class="cls-3" d="m533.36,562.16c5.45-.32,9.91-3.14,14.11-6.41s8.55-6.82,12.57-10.51c7.57-6.94,13.97-15.16,18.72-24.28,1.36-2.61,2.57-5.3,3.68-8.03,1.18-2.91,2.2-5.81,2.47-8.96.15-1.72-1.57-3.19-3.19-3.19-1.85,0-3.04,1.47-3.19,3.19-.2,2.36-1.22,4.69-2.09,6.87-.78,1.96-1.67,3.89-2.61,5.77-2.08,4.15-4.5,8.12-7.23,11.87-5.83,8-13.3,14.42-20.95,20.61-3.58,2.89-7.67,6.42-12.29,6.69-1.72.1-3.19,1.39-3.19,3.19,0,1.65,1.46,3.29,3.19,3.19h0Z"/>
        <path class="cls-3" d="m534.31,574.1c2.98.34,5.96.69,8.94,1.03s5.84.65,8.78.29c5.75-.71,10.46-4.01,15.09-7.23,8.8-6.12,17.61-13.05,22.57-22.8,2.77-5.43,4.36-11.53,3.8-17.65-.16-1.72-1.35-3.19-3.19-3.19-1.6,0-3.35,1.46-3.19,3.19.88,9.59-4.1,18.31-10.75,24.91-3.43,3.41-7.27,6.36-11.21,9.15s-7.92,6.03-12.61,7.1c-2.79.64-5.77.25-8.58-.07-3.22-.37-6.44-.74-9.66-1.12-1.71-.2-3.19,1.61-3.19,3.19,0,1.89,1.47,2.99,3.19,3.19h0Z"/>
        <path class="cls-3" d="m551.36,584.93c8.25,2.37,16.69-.51,24.3-3.7s14.57-7.04,20.02-13.01c3.04-3.32,5.4-7.08,6.98-11.3.6-1.61-.67-3.5-2.23-3.92-1.79-.49-3.32.61-3.92,2.23-2.99,7.97-10.09,13.6-17.47,17.45-4.04,2.1-8.31,3.9-12.67,5.25s-8.87,2.13-13.31.86c-3.95-1.13-5.64,5.02-1.7,6.15h0Z"/>
        <path class="cls-3" d="m559.6,603.02c9.45,1.48,19.33,2.96,28.62-.21,7.86-2.68,14.6-7.94,19.09-14.92.93-1.45.3-3.52-1.14-4.36-1.54-.9-3.43-.31-4.36,1.14-3.62,5.63-9.31,10.04-15.64,12.11-8.08,2.65-16.66,1.37-24.86.09-1.7-.27-3.43.43-3.92,2.23-.42,1.51.52,3.65,2.23,3.92h0Z"/>
        <path class="cls-3" d="m569.13,614c6,2.55,12.36,4.2,18.89,4.46,5.75.22,11.72-1.02,16.01-5.09,2.98-2.83-1.53-7.33-4.51-4.51s-7.56,3.42-11.88,3.2c-5.2-.26-10.5-1.53-15.29-3.57-1.58-.67-3.42-.47-4.36,1.14-.78,1.34-.45,3.69,1.14,4.36h0Z"/>
        <path class="cls-3" d="m576.45,632.45c6.5,4.75,15.44,5.19,22.57,1.66,1.5-.74,2.03-2.99,1.14-4.36-.99-1.53-2.76-1.94-4.36-1.14-.17.08-1.1.49-.59.29-.37.15-.74.28-1.11.4-.75.24-1.52.44-2.29.58-.19.04-.39.06-.58.1.32-.06.25-.03-.03,0-.39.04-.79.07-1.18.09-.84.04-1.68.02-2.52-.05-.2-.02-.39-.04-.59-.06-.5-.05.46.1-.03,0-.39-.09-.78-.14-1.16-.23-.77-.17-1.53-.4-2.27-.67-.19-.07-.37-.14-.55-.21-.47-.19.4.19-.05-.03-.36-.17-.71-.34-1.06-.53-.74-.4-1.44-.85-2.12-1.35-1.35-.99-3.61-.27-4.36,1.14-.88,1.66-.3,3.31,1.14,4.36h0Z"/>
        <path class="cls-3" d="m583.97,651.3c-.34-.03-.17-.02.07.04.88.24-.23-.15.25.07.43.2.84.45,1.23.7.76.48,1.49,1,2.29,1.43,1.92,1.02,3.95,1.63,6.1,1.92,4.12.55,8.44-.34,11.94-2.6,1.4-.9,2.11-2.87,1.14-4.36-.9-1.4-2.86-2.11-4.36-1.14-.35.23-.71.45-1.08.64-.18.1-.37.19-.56.28-.88.43.27-.09-.25.11-.78.3-1.59.53-2.41.7-.06.01-.66.12-.35.07.36-.06-.44.05-.51.05-.42.03-.84.05-1.26.05s-.84-.03-1.26-.05c-.22-.01-.44-.04-.09,0-.26-.03-.52-.08-.77-.14-.82-.17-1.63-.4-2.41-.71-.49-.19.37.18-.1-.05-.19-.09-.38-.18-.56-.28-.42-.22-.82-.47-1.22-.73-1.86-1.2-3.59-2.16-5.83-2.39-1.66-.17-3.26,1.59-3.19,3.19.08,1.87,1.41,3.01,3.19,3.19h0Z"/>
        <path class="cls-3" d="m582.14,664.25c3.15,3.77,8.66,4.14,13.21,4.38,5.4.29,10.81-.18,16.11-1.21,1.69-.33,2.66-2.35,2.23-3.92-.49-1.77-2.23-2.56-3.92-2.23-4.43.87-8.94,1.2-13.46,1.03-2.01-.07-3.96-.18-5.68-.53s-2.92-.75-3.98-2.03-3.37-1.14-4.51,0c-1.31,1.31-1.11,3.18,0,4.51h0Z"/>
        <path class="cls-3" d="m584.55,680.54c7,3.67,15.76,3.45,22.45-.84,1.4-.9,2.1-2.87,1.14-4.36-.9-1.4-2.86-2.11-4.36-1.14-.68.43-1.37.83-2.1,1.18-.18.09-.36.17-.55.25.3-.13.28-.12-.07.02-.38.13-.75.27-1.14.39-.77.24-1.55.42-2.34.56-.2.03-.4.07-.59.09.35-.05.33-.05-.05,0-.35.02-.7.06-1.05.07-.75.03-1.51.02-2.26-.03-.12,0-1.33-.15-.65-.05-.4-.06-.79-.13-1.18-.22-.78-.17-1.56-.39-2.31-.65-.11-.04-1.2-.5-.63-.24-.37-.17-.72-.35-1.08-.53-1.48-.77-3.53-.43-4.36,1.14-.78,1.47-.43,3.54,1.14,4.36h0Z"/>
        <path class="cls-3" d="m590.11,692.23c5.14,1.97,10.68,2.92,16.19,2.86,1.67-.02,3.27-1.45,3.19-3.19s-1.4-3.21-3.19-3.19c-1.33.02-2.66-.03-3.99-.14-.57-.05-1.13-.11-1.7-.18.76.09-.43-.07-.56-.09-.28-.05-.56-.09-.84-.14-2.53-.46-5-1.17-7.4-2.08-1.56-.6-3.57.66-3.92,2.23-.41,1.82.56,3.28,2.23,3.92h0Z"/>
        <path class="cls-3" d="m594.03,706.17c6.77,2.97,14.03,3.86,21.31,2.53,1.65-.3,2.72-2.39,2.23-3.92-.57-1.76-2.16-2.55-3.92-2.23-.44.08-.89.16-1.33.22.53-.07-.45.04-.49.05-.79.08-1.57.13-2.36.15-1.47.04-2.93-.04-4.39-.19-1.08-.11.58.11-.49-.06-.39-.06-.78-.13-1.17-.2-.72-.14-1.43-.3-2.14-.49-.76-.2-1.52-.43-2.26-.69-.32-.11-.64-.23-.95-.35-.21-.08-.42-.16-.63-.25.24.11.18.08-.17-.08-1.52-.67-3.5-.5-4.36,1.14-.73,1.38-.49,3.65,1.14,4.36h0Z"/>
        <path class="cls-3" d="m248.02,219.98c5.74,2.32,12.25,1.69,17.83-.73s10-7.01,12.36-12.72c.85-2.06-.92-4.76-2.97-5.23-2.48-.56-4.32.76-5.23,2.97.41-.99-.03.02-.11.17-.12.24-.25.48-.38.72-.29.52-.61,1.02-.95,1.51-.07.1-.65.81-.25.35s-.21.23-.29.32c-.39.45-.8.87-1.24,1.28-.2.19-.4.37-.6.54-.12.11-.99.79-.15.15-.43.33-.88.64-1.33.93-.5.32-1.02.62-1.55.9-.24.13-.48.25-.73.37-.17.08-1.17.45-.18.1-1.08.39-2.14.76-3.27,1.01-.26.06-.53.11-.8.16-.23.04-1.26.1-.16.04-.54.03-1.08.1-1.62.12-.59.02-1.19,0-1.78-.03-.27-.02-.54-.06-.81-.07,1.09.05.09,0-.15-.04-1.18-.22-2.31-.56-3.42-1.01-2.07-.83-4.76.91-5.23,2.97-.56,2.46.76,4.34,2.97,5.23h0Z"/>
      </g>
      <g>
        <path class="cls-2" d="m623.01,703.16c3.5-5.95,1.68-13.13-3.79-17.13v5.51c8.75-6.7,6.56-21.82-4.33-25.02l-.85,6.26c6.95.6,9.74-7.79,8.12-13.38-1.22-4.22-5.57-7.84-5.47-12.38.05-2.43,1.43-4.77,1.87-7.15.37-1.97.37-3.88.04-5.85-.65-3.93-2.68-7.19-5.56-9.86-1.01-.93-2.24-1.57-2.05-3.28.13-1.14,1.33-2.54,1.81-3.57.76-1.62,1.32-3.31,1.64-5.07,1.38-7.66-1.17-15.62-6.94-20.88l.5,3.86c4.68-9.76.73-22.35-9.33-26.95l.65,5.01c6.75-5.72,3.73-17.49-4.57-19.83l1.91,4.68c5.92-8.97,4.35-21.48-3.56-28.74l.5,3.86c3.18-5.85,3.97-12.69,2.11-19.11-.9-3.12-2.4-6.06-4.43-8.59-2.27-2.84-6.66-4.78-7.81-8.29s-.31-7.45-1.04-10.99c-.67-3.25-2.04-6.38-4.13-8.97-4.34-5.37-11.58-7.27-17.82-4.26l4.68,3.6c2.43-8.66,3.99-19.12-1.53-26.98-4.28-6.1-12.16-9.99-19.46-7.16l3.92,3.92c3.94-11.62.63-25.49-8.76-33.59s-22.98-9.67-34.23-4.47l4.8,2.75c.58-10.26.94-21.88-5.51-30.56-5.14-6.92-14.21-11.41-22.72-8.3l3.92,2.23c-4.22-11.55-9.88-22.99-17.57-32.64-3.17-3.97-7.26-7.68-12.49-8.37-2.71-.36-5.16.27-7.76,1-1.96.55-4.67,1.79-6.2-.05-1.87-2.23-1.34-6.71-2.28-9.44-1.54-4.47-5.5-7.88-9.51-10.14-10.67-5.98-24.43-6.12-36.13-3.93l4.04,3.08c1.8-25.12-21.34-48.37-46.46-46.71l3.08,4.04c5.8-18.39-3.45-38.14-18.05-49.6-17.03-13.37-39.93-15.72-60.85-15.07l3.08,4.04c3.74-9.57,5.5-19.91,4.96-30.19-.47-8.94-2.13-18.9-7.9-26.05s-14.26-9.76-22.57-11.53c-10.83-2.31-21.99-3.38-33.07-3.16-5.17.1-10.33.49-15.46,1.14-3.49.44-8.01,1.89-11.55.87-3.75-1.08-.84-6.97.05-9.47,1.87-5.28,4.21-10.46,5.02-16.04,1.12-7.7-1.56-15.73-5.53-22.26-4.98-8.2-12.33-15.03-20.32-20.26-8.67-5.67-19.42-9.51-29.63-5.87l3.6,4.68c14.08-20.54,2.16-48.92-17.23-61.25C116.65,3.58,102.11.62,87.87.1c-14.35-.52-29.32.87-43.22,4.55-6.71,1.77-13.31,4.26-19.34,7.7-3.14,1.79-9.8,4.94-10.25,8.88-.18,1.56.03,3.25.04,4.81.08,9.35.17,18.7.25,28.05.29,32.4.59,64.81.88,97.21.28,30.48.55,60.97.83,91.45.06,6.93-.03,13.89.19,20.82.17,5.43,6.71,10.28,10.79,13.16,9.99,7.05,22.63,9.39,34.59,10.29,6.24.47,12.51.49,18.77.38l-2.75-4.8c-11.99,16.8-3.09,39.93,11.74,51.73,20.31,16.15,49.27,11.88,72.67,6.65l-3.92-3.92c-4.02,18.01-5.94,38.63,3.78,55.25,9.9,16.94,29.78,24.39,48.6,24.83,13.38.31,26.62-2.49,39.58-5.54l-3.92-3.92c-2.56,14.83,9.6,26.29,21.79,32.41,15.48,7.77,32.86,11.4,50.14,10.86l-3.19-3.19c-.01,13.45,8.86,25.32,20.59,31.31,14.62,7.47,31.91,5.62,47.08.96l-3.1-.82c12.3,12,31.27,15.94,47.23,9.4l-4.04-3.08c2.08,18.78,25.61,30.74,41.75,20.15l-3.86-5.01c-5.28,5.28-4.28,13.65.31,19.08,5.68,6.71,15.29,7.26,23.43,7.47l-2.25-5.44c-1.86,2.05-3.72,4.1-5.58,6.15-1.17,1.3-1.24,3.22,0,4.51,7.16,7.45,18.67,9.03,27.62,3.92l-4.68-3.6c-.58,3.17-1.16,6.34-1.75,9.51-.25,1.33.14,2.93,1.47,3.6,6.46,3.28,13.4,4.87,20.65,4.52l-2.25-5.44c-3.16,2.64-7.63,10.41-3.63,14.04,2.17,1.97,5.77,3.12,8.47,4.17,3.36,1.3,6.82,2.2,10.37,2.79l-1.91-4.68c-2.1,3.43-7.85,9.35-2.66,12.47,3.06,1.84,6.91,2.74,10.27,3.84,3.1,1.01,6.78,1.66,9.25,3.71,5.02,4.16,4.13,9.92,2.28,15.47-.59,1.77.7,3.3,2.23,3.92,4.43,1.8,11.87,4.87,10.91,10.94-.25,1.57.38,3.61,2.23,3.92,2.41.41,4.33,1.25,6.29,2.72l-.65-5.01c-2.89,2.76-4,6.86-2.88,10.73.5,1.71,1.5,3.27,2.8,4.47.91.85,4.81,2.52,4.89,3.69l2.34-3.08c-3.18.58-6.72,2.54-6.55,6.22.19,4.1,5.69,6.5,8.58,8.54l.76-5.83c-3.68,1.33-8.28,3.88-8.15,8.43s5.83,7.4,9.11,9.77l-.65-5.01c-9.17,9.3-2.74,21.97,5.08,29.58l1.41-5.33c-6.81,1.3-5.64,9.18-2.55,13.32.89,1.19,2.2,2.28,2.09,3.76-.08,1.15-.94,2.46-1.09,3.69-.4,3.3.57,5.98,1.77,8.98s1.86,5.56,1.28,8.73-1.96,6.48-1.03,9.71c2.14,7.46,10.27,8.49,16.84,8.25l-3.08-4.04c-3.93,14.27,24.54,18.97,25.68,3.91.22-2.85-.76-5.89-3.24-7.52-.16-.11-1.58-.68-1.62-.77-.17-.44,1.1-2.7,1.28-3.14.55-1.35.94-2.72.93-4.19-.03-3.54-1.85-6.82-2.25-10.32-.34-2.96-1.05-5.18-4.05-6.27-3.87-1.4-5.53,4.76-1.7,6.15-1.27-.46-.41,2.82-.21,3.78.43,1.99,1.53,3.88,1.78,5.9.48,3.81-3.4,6.61-1.61,10.63.74,1.66,2.09,2.06,3.31,3.17,1.57,1.42,1.3,4.12-.87,5.06-1.47.64-4.57.17-6.11-.04-2.34-.31-6.01-1.6-5.17-4.66.53-1.94-.99-4.11-3.08-4.04-2.71.1-6.19.46-8.62-1.08-3.16-2.01-1.87-4.83-1.24-7.86.86-4.13.87-7.83-.6-11.83-.77-2.11-1.98-4.13-2.12-6.41-.12-1.91.85-3.2,1.2-4.97.42-2.1-.28-4.04-1.43-5.78-.63-.96-4.83-5.59-2.82-5.97,2.39-.46,3.03-3.75,1.41-5.33-5.14-5-11.59-13.96-5.08-20.56,1.55-1.58,1-3.82-.65-5.01-1.39-1.01-3.98-2.24-5.01-3.63-.52-.69-.86-.45-.4-1.37.32-.64,2.33-1.33,2.93-1.55,2.68-.97,3.05-4.21.76-5.83-1.06-.75-2.63-2.4-3.88-2.74-.51-.61-1.06-.54-1.66.18.63-.29,1.29-.47,1.98-.55,1.29-.24,2.43-1.78,2.34-3.08-.21-3.1-1.84-4.93-4.33-6.63-2.76-1.88-5.67-4.57-2.35-7.74,1.62-1.55.94-3.82-.65-5.01-2.34-1.76-4.92-2.86-7.81-3.36l2.23,3.92c1.63-10.26-7.11-15.44-15.36-18.78l2.23,3.92c2.98-8.94,2.22-19.3-7.26-23.98-2.96-1.46-6.35-2.27-9.48-3.29-1.89-.62-3.79-1.23-5.65-1.93-.48-.18-1.3-.7-1.82-.74-1.09-.08-.4-1.04.2.95l-.32,2.46c1.51-2.47,3.03-4.95,4.54-7.42.99-1.62.13-4.34-1.91-4.68-6.06-1.02-11.67-2.99-17-6.07l1.58,2.75c-.2-2.98.73-5.11,3.02-7.02,2.11-1.77.4-5.57-2.25-5.44-6.13.29-11.95-.86-17.43-3.65l1.47,3.6c.58-3.17,1.16-6.34,1.75-9.51.49-2.66-2.12-5.06-4.68-3.6-6.51,3.72-14.71,2.47-19.89-2.92v4.51c1.86-2.05,3.72-4.1,5.58-6.15s.58-5.37-2.25-5.44c-5.57-.15-12.03-.16-16.76-3.55-3.61-2.59-6.06-8.52-2.47-12.11,2.5-2.5-.77-7.04-3.86-5.01-11.7,7.68-30.57-.34-32.15-14.65-.2-1.8-1.92-3.94-4.04-3.08-13.91,5.71-30.21,2.8-41.03-7.76-.8-.78-2.01-1.15-3.1-.82-13.13,4.03-28.32,6.22-41.22.15-10.21-4.81-18.39-14.62-18.38-26.27,0-1.68-1.46-3.24-3.19-3.19-14.85.46-29.74-2.23-43.34-8.3-10.2-4.55-24.71-13.73-22.44-26.9.41-2.4-1.4-4.52-3.92-3.92-23.22,5.47-50.96,10.45-71.41-5.48-18.73-14.59-17.35-40.35-12.7-61.22.54-2.43-1.49-4.47-3.92-3.92-20.82,4.65-46.91,9.06-65.57-4.36-13.45-9.67-22.17-29.9-11.64-44.65,1.43-2-.49-4.84-2.75-4.8-17.6.32-39.41.38-53.24-12.32-1.64-1.5-2.98-3.16-4.37-4.87-.08-.1.03,1.09-.14.64-.11-.29,0-.81-.01-1.12-.06-1.69-.03-3.39-.05-5.09-.15-17-.31-33.99-.46-50.99-.23-25.61-.46-51.23-.7-76.84-.22-24.11-.44-48.23-.65-72.34-.07-8.19-.15-16.38-.22-24.57-.03-3.7.63-8.2-.11-11.85-.03-.16,0-.36,0-.53l-.93,2.25C38.59,8.42,65.81,5.57,88.48,6.5c22.25.92,46.13,9.41,54.62,31.86,3.9,10.31,3.82,21.7-2.55,30.99-1.53,2.24,1.03,5.6,3.6,4.68,9.08-3.24,18.21.77,25.73,5.91,6.94,4.75,13.36,10.91,17.57,18.24,3.46,6.04,5.36,12.98,3.65,19.84-1.3,5.2-3.64,10.06-5.21,15.17-1.18,3.84-2.19,8.66.66,12.03,3.47,4.1,9.84,3.23,14.52,2.54,10.44-1.53,20.95-2.04,31.48-1.31,9.47.65,19.64,1.87,28.52,5.43,4.93,1.98,9.13,5.11,11.65,9.87,2.38,4.49,3.42,9.85,3.98,14.86,1.24,11.04-.38,22.07-4.41,32.39-.75,1.92,1.16,4.1,3.08,4.04,18.92-.59,39.35,1.15,55.28,12.43,13.65,9.67,22.71,27.57,17.48,44.16-.59,1.89,1.04,4.17,3.08,4.04,21.86-1.44,41.65,18.48,40.08,40.33-.16,2.23,2.16,3.43,4.04,3.08,10.68-2,25.18-2.04,34.13,5.19,3.22,2.6,3.99,5.29,4.67,9.15.54,3.06,1.25,6.19,3.7,8.33,3.32,2.9,7.78,1.96,11.63.88,2.55-.72,4.85-1.34,7.4-.23,2.38,1.04,4.32,3.12,5.95,5.09,7.34,8.86,12.71,19.96,16.63,30.69.55,1.52,2.2,2.86,3.92,2.23,6.84-2.5,13.86,1.88,17.18,7.91,4.1,7.44,3.44,16.63,2.98,24.81-.15,2.62,2.77,3.69,4.8,2.75,8.85-4.09,20.13-2.53,27.29,4.19s9.48,17.4,6.33,26.68c-.74,2.17,1.68,4.79,3.92,3.92,5.3-2.05,10.8,1.11,13.32,5.94,3.27,6.27,1.63,13.93-.17,20.36-.8,2.85,2.27,4.76,4.68,3.6,5.97-2.88,10.99,3.15,12.33,8.35s-.3,11.08,3.1,15.77c1.52,2.1,3.75,3.4,5.61,5.15,2.06,1.94,3.59,4.39,4.51,7.06,1.74,5.02,1.38,10.5-1.16,15.17-.65,1.2-.56,2.9.5,3.86,5.92,5.43,6.99,14.31,2.56,21.01-1.15,1.74.01,4.15,1.91,4.68,3.99,1.12,4.74,6.63,1.75,9.17-1.47,1.24-1.14,4.19.65,5.01,6.71,3.06,10.33,11.36,7.04,18.22-.59,1.24-.6,2.86.5,3.86,4.81,4.39,6.84,11.37,4.54,17.58-1.21,3.28-3.77,6.08-2.9,9.83.78,3.34,3.86,4.8,5.77,7.34,4.97,6.59-1.74,13.42.55,20.53,1.04,3.23,3.25,5.83,4.62,8.9.76,1.7,1.42,6.61-1.54,6.35-3.67-.32-4.2,5.28-.85,6.26,5.13,1.51,7.31,9.91,2.81,13.36-1.99,1.52-2.07,4,0,5.51,2.67,1.95,3.11,5.67,1.5,8.4-2.08,3.55,3.43,6.76,5.51,3.22h0Z"/>
        <path class="cls-3" d="m20.27,27.62v-2.46c0-.38-.17-.79-.44-1.06s-.69-.46-1.06-.44-.79.14-1.06.44-.44.65-.44,1.06v2.46c0,.38.17.79.44,1.06s.69.46,1.06.44.79-.14,1.06-.44.44-.65.44-1.06h0Z"/>
        <path class="cls-3" d="m3.19,93.2c18.86,1.59,37.84,1.58,56.69-.04,18.67-1.6,37.35-4.61,55.47-9.44,9.4-2.5,18.54-5.96,26.23-12.06,1.35-1.07,1.12-3.39,0-4.51-1.33-1.33-3.16-1.07-4.51,0-6.26,4.96-13.95,7.78-21.55,9.91-8.61,2.41-17.41,4.26-26.21,5.83-18.11,3.24-36.49,4.93-54.88,5.1-10.42.1-20.85-.3-31.23-1.17-1.72-.14-3.19,1.57-3.19,3.19,0,1.85,1.47,3.04,3.19,3.19h0Z"/>
        <path class="cls-3" d="m98.09,87.84c12.26,25.63,16.22,54.28,15.48,82.47-.37,14.22-1.89,28.4-4.18,42.44-1.18,7.22-2.55,14.4-4.07,21.55-1.25,5.88-2.6,11.74-4.49,17.46s-4.36,11.48-8.13,16.74c-3.22,4.5-8.05,8.59-13.21,10.5-1.61.6-2.71,2.16-2.23,3.92.43,1.55,2.3,2.83,3.92,2.23,11.8-4.37,19.02-14.62,23.64-25.87,2.27-5.52,3.91-11.29,5.27-17.09,1.65-7.03,3.05-14.13,4.33-21.24,2.65-14.78,4.58-29.72,5.3-44.73s.19-29.7-1.96-44.4-6.04-28.77-11.91-42.27c-.72-1.66-1.48-3.3-2.26-4.93s-2.96-1.96-4.36-1.14c-1.59.93-1.89,2.8-1.14,4.36h0Z"/>
        <path class="cls-3" d="m112.89,136.62c3.14,4.12,7.69,6.11,12.66,7.16,5.71,1.2,11.57,1.88,17.35,2.59,11.99,1.46,24.05,2.29,36.13,2.46,3.43.05,6.85.05,10.28,0,1.6-.03,3.11-.06,4.52-.93,1.97-1.22,2.4-3.38,1.46-5.4-.73-1.56-2.98-1.96-4.36-1.14-1.6.94-1.87,2.8-1.14,4.36l.11.23-.44-1.61.9-1.79.18-.1.25-.03h-.49c-.65,0-1.31.03-1.96.04-1.39.02-2.77.03-4.16.03-2.61,0-5.22-.03-7.83-.09-5.3-.12-10.6-.36-15.89-.73-10.37-.72-20.75-1.87-31-3.63-2.21-.38-4.42-.84-6.53-1.62-1.6-.59-3.54-1.73-4.52-3.03-1.04-1.37-2.75-2.09-4.36-1.14-1.35.79-2.19,2.98-1.14,4.36h0Z"/>
        <path class="cls-3" d="m163.72,149.06c4.1,0,4.11-6.38,0-6.38s-4.11,6.38,0,6.38h0Z"/>
        <path class="cls-3" d="m156.08,147.28c17.51,19.32,27.84,43.92,32.56,69.43,2.38,12.89,3.32,26.13,3.05,39.37-.29,14.46-1.72,29.05-6.36,42.81-4.9,14.56-13.07,27.97-23.44,39.26-1.16,1.27-1.25,3.26,0,4.51,1.18,1.18,3.34,1.27,4.51,0,9.83-10.71,17.69-23.07,23.07-36.58,5.66-14.22,7.74-29.41,8.43-44.62.62-13.75-.09-27.53-2.2-41.13s-5.58-26.45-10.81-38.89-12.25-24.43-21.04-34.93c-1.06-1.27-2.15-2.51-3.25-3.73s-3.33-1.18-4.51,0c-1.27,1.27-1.16,3.23,0,4.51h0Z"/>
        <path class="cls-3" d="m192.98,196.95c-1.76,2.18-1.39,4.87,1.03,6.42,1.88,1.21,4.04.97,6.15.8,4.32-.36,8.59-1.05,12.9-1.53s8.51-.81,12.7-.23c3.68.51,6.88,1.68,9.97,3.62,13.36,8.36,16.9,25.84,18.87,40.55,2.42,18.09,2.62,36.47,3.36,54.68s1.85,36.64,1.54,54.96c-.15,8.97-.66,17.97-1.92,26.86-1.2,8.42-3.07,16.86-6.77,24.57-.91,1.9-1.93,3.76-3.01,5.57-2.11,3.53,3.4,6.74,5.51,3.22,9.25-15.45,11.42-33.76,12.29-51.42.89-18.21-.14-36.45-.88-54.64-.75-18.27-1.04-36.63-2.73-54.84-.82-8.85-1.92-17.81-4.2-26.42-2.07-7.83-5.37-15.37-10.69-21.56-5.04-5.86-11.91-10.11-19.6-11.28-8.71-1.33-17.3.55-25.96,1.4-1.07.11-2.14.19-3.21.25-.23.01-.46.02-.69.04-.6.05,0,.07,0,.07.03-.01-.68-.06-.15,0l-.13-.08c-.84-.54-.58.23.79,2.32l-.82,1.41.17-.21c1.08-1.34,1.31-3.2,0-4.51-1.12-1.12-3.42-1.35-4.51,0h0Z"/>
        <path class="cls-3" d="m261.37,260.42c9.13-.56,18.27-1.35,27.42-1.65,4.29-.14,8.38.25,12.52,1.39,3.79,1.05,7.72,2.3,11.24,4.08,1.78.9,3.48,1.98,4.74,3.55,1.09,1.36,1.62,2.87,1.58,4.5h6.38c0-.2,0-.41.01-.61.08-4.11-6.3-4.11-6.38,0,0,.2,0,.41-.01.61-.08,4.11,6.26,4.1,6.38,0,.13-4.63-2.51-8.71-6.09-11.44s-7.95-4.17-12.14-5.6c-4.58-1.56-9.28-2.68-14.13-2.87s-9.78.31-14.64.61l-16.87,1.04c-1.72.11-3.19,1.39-3.19,3.19,0,1.64,1.46,3.3,3.19,3.19h0Z"/>
        <path class="cls-3" d="m329.92,302.68c9.08-9.75,16.65-20.86,22.31-32.92.73-1.56.44-3.44-1.14-4.36-1.38-.81-3.63-.42-4.36,1.14-5.43,11.58-12.59,22.27-21.31,31.63-2.8,3,1.7,7.52,4.51,4.51h0Z"/>
        <path class="cls-3" d="m306.69,256.41l-1.25.63c-.37.2-.67.47-.89.82-.28.31-.47.67-.57,1.08-.13.42-.15.85-.06,1.27.02.42.15.82.38,1.19l.5.65c.4.4.87.67,1.41.82l.85.11c.58,0,1.11-.15,1.61-.44l1.25-.63c.37-.2.67-.47.89-.82.28-.31.47-.67.57-1.08.13-.42.15-.85.06-1.27-.02-.42-.15-.82-.38-1.19l-.5-.65c-.4-.4-.87-.67-1.41-.82l-.85-.11c-.58,0-1.11.15-1.61.44h0Z"/>
        <path class="cls-3" d="m298.31,258.22c17.94,17.14,26.63,41.01,31.81,64.85,2.83,13.02,4.87,26.28,6.28,39.52,1.58,14.76,2.12,29.94-.65,44.52-2.68,14.1-8.26,27.87-17.92,38.64-1.15,1.28-1.26,3.25,0,4.51,1.17,1.17,3.36,1.29,4.51,0,19.78-22.04,23.39-52.9,21.05-81.31-1.18-14.37-3.32-28.77-6.14-42.91-2.5-12.53-5.81-24.94-10.77-36.74-5.57-13.25-13.21-25.62-23.65-35.6-2.97-2.84-7.48,1.67-4.51,4.51h0Z"/>
        <path class="cls-3" d="m339.03,325.56c3.48-4.57,8.9-7.6,14.65-8.64,5.44-.98,11.21.39,16.07,3.22,11.18,6.52,16.78,18.87,19.45,31.35,1.53,7.15,2.24,14.44,3.04,21.7.87,7.93,1.74,15.86,2.61,23.79s1.78,16.19,2.66,24.28,1.96,15.76,1.43,23.67c-.47,6.95-2.57,13.99-7.04,19.09-2.21,2.52-4.47,4.14-7.55,5.53-3.52,1.6-6.68,4.15-5.89,8.41.31,1.69,2.37,2.66,3.92,2.23,1.78-.49,2.54-2.22,2.23-3.92.06.32-.15.71.06.3-.14.27-.4.56-.05.22.09-.09.65-.56.32-.31.31-.23.65-.43.99-.61,1.33-.74,2.76-1.26,4.07-2.03,2.77-1.62,5.24-3.8,7.23-6.31,4.5-5.67,6.87-12.37,7.78-19.5,1.02-8.08.02-16.24-.86-24.28s-1.83-16.69-2.75-25.03-1.83-16.69-2.75-25.03c-.86-7.84-1.62-15.73-3.23-23.46-2.85-13.68-9.13-27.04-21.22-34.83-5.45-3.51-12.04-5.54-18.55-5.1-6.96.48-13.63,3.35-18.72,8.13-1.27,1.19-2.37,2.52-3.42,3.91s-.22,3.57,1.14,4.36c1.64.96,3.32.23,4.36-1.14h0Z"/>
        <path class="cls-3" d="m393.92,336.65c4.15-7.26,5.55-15.62,4.27-23.85-.27-1.7-2.4-2.65-3.92-2.23-1.82.5-2.49,2.21-2.23,3.92.98,6.29-.36,13.23-3.63,18.94-.86,1.49-.35,3.49,1.14,4.36s3.51.36,4.36-1.14h0Z"/>
        <path class="cls-3" d="m391.9,344.22c3.81-3.83,9-6.4,14.21-7.01,5.5-.65,10.75.61,15.43,3.51,4.94,3.07,8.08,7.68,10.39,13.1,2.58,6.06,4.66,12.37,6.4,18.72,3.52,12.85,5.42,26.09,5.64,39.41.2,12.53-.94,24.98-4.07,37.1-3.32,12.84-8.94,25.19-17.77,35.2-1.14,1.29-1.27,3.24,0,4.51,1.16,1.16,3.37,1.3,4.51,0,17.6-19.94,23.6-47.38,23.73-73.36.07-14.4-1.76-28.86-5.41-42.78-1.78-6.81-4-13.53-6.68-20.04-1.33-3.21-2.75-6.42-4.81-9.24-1.93-2.64-4.18-4.89-6.8-6.84-11.9-8.8-28.89-7.25-39.27,3.2-2.9,2.92,1.61,7.43,4.51,4.51h0Z"/>
        <path class="cls-3" d="m432.86,343.13l-1.08.98c-.56.51-.97,1.5-.93,2.25s.24,1.36.68,1.93c.41.53.99.99,1.66,1.14.78.18,1.79.18,2.46-.32,1.24-.93,2.4-1.91,3.41-3.09s1.91-2.42,2.63-3.78c.4-.75.55-1.63.32-2.46-.2-.74-.78-1.54-1.47-1.91-.74-.39-1.64-.59-2.46-.32-.77.25-1.51.73-1.91,1.47-.46.87-.99,1.69-1.59,2.47l.5-.65c-.89,1.15-1.92,2.19-3.07,3.08l.65-.5c-.08.06-.15.12-.23.17l3.86,5.01,1.08-.98c.59-.53.93-1.48.93-2.25s-.35-1.72-.93-2.25-1.41-.97-2.25-.93-1.61.35-2.25.93h0Z"/>
        <path class="cls-3" d="m477.27,375.92c1.87,18.68,2.93,37.44,3.14,56.21.11,9.22.1,18.46-.32,27.67-.39,8.52-1.38,17.1-4.46,25.11-2.75,7.16-7.54,13.97-14.13,18.08-3.48,2.16-.28,7.68,3.22,5.51,6.65-4.14,11.76-10.36,15.13-17.39,3.83-7.97,5.5-16.65,6.24-25.42.8-9.41.76-18.92.73-28.35s-.28-19.19-.75-28.77c-.53-10.9-1.35-21.79-2.43-32.66-.17-1.71-1.34-3.19-3.19-3.19-1.59,0-3.36,1.46-3.19,3.19h0Z"/>
        <path class="cls-3" d="m501.94,413.29c3.02,16.23,6.04,32.56,5.93,49.13-.05,7.99-.56,16.09-1.9,23.97-1.23,7.19-3.24,14.32-6.89,20.67s-8.64,11.58-15.2,14.82c-1.54.76-1.97,2.95-1.14,4.36.92,1.57,2.81,1.91,4.36,1.14,13.62-6.73,21.21-21.16,24.29-35.46,1.77-8.22,2.48-16.7,2.77-25.09s-.22-17.38-1.28-26.02c-1.2-9.8-2.98-19.52-4.79-29.22-.32-1.69-2.36-2.66-3.92-2.23-1.78.49-2.54,2.22-2.23,3.92h0Z"/>
        <path class="cls-3" d="m501.26,536.34c6.83-4.49,13.7-9.03,19.76-14.55,5.05-4.6,9.42-9.97,12.98-15.79,7.11-11.58,11.07-25.09,11.49-38.66.24-7.65-.71-15.39-2.84-22.75-1.14-3.94-7.29-2.26-6.15,1.7,3.48,12.04,3.46,24.82.31,36.91s-9.42,23.45-18.41,32.29c-6.09,5.98-13.25,10.67-20.36,15.34-1.44.95-2.05,2.82-1.14,4.36.84,1.43,2.92,2.09,4.36,1.14h0Z"/>
        <path class="cls-3" d="m521.16,550.85c10.32-7.95,20.24-16.85,28.12-27.28,7.09-9.38,12.02-20.48,14.44-31.97,1.39-6.6,1.99-13.36,1.72-20.1-.07-1.72-1.42-3.19-3.19-3.19-1.67,0-3.26,1.46-3.19,3.19.45,11.11-1.53,22.19-5.83,32.47s-11.52,19.69-19.74,27.78c-4.91,4.83-10.09,9.39-15.54,13.6-1.36,1.05-2.09,2.74-1.14,4.36.78,1.34,2.99,2.2,4.36,1.14h0Z"/>
        <path class="cls-3" d="m533.36,562.16c5.45-.32,9.91-3.14,14.11-6.41s8.55-6.82,12.57-10.51c7.57-6.94,13.97-15.16,18.72-24.28,1.36-2.61,2.57-5.3,3.68-8.03,1.18-2.91,2.2-5.81,2.47-8.96.15-1.72-1.57-3.19-3.19-3.19-1.85,0-3.04,1.47-3.19,3.19-.2,2.36-1.22,4.69-2.09,6.87-.78,1.96-1.67,3.89-2.61,5.77-2.08,4.15-4.5,8.12-7.23,11.87-5.83,8-13.3,14.42-20.95,20.61-3.58,2.89-7.67,6.42-12.29,6.69-1.72.1-3.19,1.39-3.19,3.19,0,1.65,1.46,3.29,3.19,3.19h0Z"/>
        <path class="cls-4" d="m534.31,570.92c3.06.35,6.12.71,9.18,1.06,3.15.36,6.36.73,9.47.1,3.89-.78,7.29-3.03,10.57-5.27,6.85-4.69,13.68-9.63,18.9-16.09s8.71-14.71,7.88-22.97"/>
        <path class="cls-3" d="m551.36,584.93c8.25,2.37,16.69-.51,24.3-3.7s14.57-7.04,20.02-13.01c3.04-3.32,5.4-7.08,6.98-11.3.6-1.61-.67-3.5-2.23-3.92-1.79-.49-3.32.61-3.92,2.23-2.99,7.97-10.09,13.6-17.47,17.45-4.04,2.1-8.31,3.9-12.67,5.25s-8.87,2.13-13.31.86c-3.95-1.13-5.64,5.02-1.7,6.15h0Z"/>
        <path class="cls-3" d="m559.6,603.02c9.45,1.48,19.33,2.96,28.62-.21,7.86-2.68,14.6-7.94,19.09-14.92.93-1.45.3-3.52-1.14-4.36-1.54-.9-3.43-.31-4.36,1.14-3.62,5.63-9.31,10.04-15.64,12.11-8.08,2.65-16.66,1.37-24.86.09-1.7-.27-3.43.43-3.92,2.23-.42,1.51.52,3.65,2.23,3.92h0Z"/>
        <path class="cls-3" d="m569.13,614c6,2.55,12.36,4.2,18.89,4.46,5.75.22,11.72-1.02,16.01-5.09,2.98-2.83-1.53-7.33-4.51-4.51s-7.56,3.42-11.88,3.2c-5.2-.26-10.5-1.53-15.29-3.57-1.58-.67-3.42-.47-4.36,1.14-.78,1.34-.45,3.69,1.14,4.36h0Z"/>
        <path class="cls-3" d="m576.45,632.45c6.5,4.75,15.44,5.19,22.57,1.66,1.5-.74,2.03-2.99,1.14-4.36-.99-1.53-2.76-1.94-4.36-1.14-.17.08-1.1.49-.59.29-.37.15-.74.28-1.11.4-.75.24-1.52.44-2.29.58-.19.04-.39.06-.58.1.32-.06.25-.03-.03,0-.39.04-.79.07-1.18.09-.84.04-1.68.02-2.52-.05-.2-.02-.39-.04-.59-.06-.5-.05.46.1-.03,0-.39-.09-.78-.14-1.16-.23-.77-.17-1.53-.4-2.27-.67-.19-.07-.37-.14-.55-.21-.47-.19.4.19-.05-.03-.36-.17-.71-.34-1.06-.53-.74-.4-1.44-.85-2.12-1.35-1.35-.99-3.61-.27-4.36,1.14-.88,1.66-.3,3.31,1.14,4.36h0Z"/>
        <path class="cls-3" d="m583.97,651.3c-.34-.03-.17-.02.07.04.88.24-.23-.15.25.07.43.2.84.45,1.23.7.76.48,1.49,1,2.29,1.43,1.92,1.02,3.95,1.63,6.1,1.92,4.12.55,8.44-.34,11.94-2.6,1.4-.9,2.11-2.87,1.14-4.36-.9-1.4-2.86-2.11-4.36-1.14-.35.23-.71.45-1.08.64-.18.1-.37.19-.56.28-.88.43.27-.09-.25.11-.78.3-1.59.53-2.41.7-.06.01-.66.12-.35.07.36-.06-.44.05-.51.05-.42.03-.84.05-1.26.05s-.84-.03-1.26-.05c-.22-.01-.44-.04-.09,0-.26-.03-.52-.08-.77-.14-.82-.17-1.63-.4-2.41-.71-.49-.19.37.18-.1-.05-.19-.09-.38-.18-.56-.28-.42-.22-.82-.47-1.22-.73-1.86-1.2-3.59-2.16-5.83-2.39-1.66-.17-3.26,1.59-3.19,3.19.08,1.87,1.41,3.01,3.19,3.19h0Z"/>
        <path class="cls-3" d="m582.14,664.25c3.15,3.77,8.66,4.14,13.21,4.38,5.4.29,10.81-.18,16.11-1.21,1.69-.33,2.66-2.35,2.23-3.92-.49-1.77-2.23-2.56-3.92-2.23-4.43.87-8.94,1.2-13.46,1.03-2.01-.07-3.96-.18-5.68-.53s-2.92-.75-3.98-2.03-3.37-1.14-4.51,0c-1.31,1.31-1.11,3.18,0,4.51h0Z"/>
        <path class="cls-3" d="m584.55,680.54c7,3.67,15.76,3.45,22.45-.84,1.4-.9,2.1-2.87,1.14-4.36-.9-1.4-2.86-2.11-4.36-1.14-.68.43-1.37.83-2.1,1.18-.18.09-.36.17-.55.25.3-.13.28-.12-.07.02-.38.13-.75.27-1.14.39-.77.24-1.55.42-2.34.56-.2.03-.4.07-.59.09.35-.05.33-.05-.05,0-.35.02-.7.06-1.05.07-.75.03-1.51.02-2.26-.03-.12,0-1.33-.15-.65-.05-.4-.06-.79-.13-1.18-.22-.78-.17-1.56-.39-2.31-.65-.11-.04-1.2-.5-.63-.24-.37-.17-.72-.35-1.08-.53-1.48-.77-3.53-.43-4.36,1.14-.78,1.47-.43,3.54,1.14,4.36h0Z"/>
        <path class="cls-3" d="m590.11,692.23c5.14,1.97,10.68,2.92,16.19,2.86,1.67-.02,3.27-1.45,3.19-3.19s-1.4-3.21-3.19-3.19c-1.33.02-2.66-.03-3.99-.14-.57-.05-1.13-.11-1.7-.18.76.09-.43-.07-.56-.09-.28-.05-.56-.09-.84-.14-2.53-.46-5-1.17-7.4-2.08-1.56-.6-3.57.66-3.92,2.23-.41,1.82.56,3.28,2.23,3.92h0Z"/>
        <path class="cls-3" d="m594.03,706.17c6.77,2.97,14.03,3.86,21.31,2.53,1.65-.3,2.72-2.39,2.23-3.92-.57-1.76-2.16-2.55-3.92-2.23-.44.08-.89.16-1.33.22.53-.07-.45.04-.49.05-.79.08-1.57.13-2.36.15-1.47.04-2.93-.04-4.39-.19-1.08-.11.58.11-.49-.06-.39-.06-.78-.13-1.17-.2-.72-.14-1.43-.3-2.14-.49-.76-.2-1.52-.43-2.26-.69-.32-.11-.64-.23-.95-.35-.21-.08-.42-.16-.63-.25.24.11.18.08-.17-.08-1.52-.67-3.5-.5-4.36,1.14-.73,1.38-.49,3.65,1.14,4.36h0Z"/>
        <path class="cls-3" d="m248.02,219.98c5.74,2.32,12.25,1.69,17.83-.73s10-7.01,12.36-12.72c.85-2.06-.92-4.76-2.97-5.23-2.48-.56-4.32.76-5.23,2.97.41-.99-.03.02-.11.17-.12.24-.25.48-.38.72-.29.52-.61,1.02-.95,1.51-.07.1-.65.81-.25.35s-.21.23-.29.32c-.39.45-.8.87-1.24,1.28-.2.19-.4.37-.6.54-.12.11-.99.79-.15.15-.43.33-.88.64-1.33.93-.5.32-1.02.62-1.55.9-.24.13-.48.25-.73.37-.17.08-1.17.45-.18.1-1.08.39-2.14.76-3.27,1.01-.26.06-.53.11-.8.16-.23.04-1.26.1-.16.04-.54.03-1.08.1-1.62.12-.59.02-1.19,0-1.78-.03-.27-.02-.54-.06-.81-.07,1.09.05.09,0-.15-.04-1.18-.22-2.31-.56-3.42-1.01-2.07-.83-4.76.91-5.23,2.97-.56,2.46.76,4.34,2.97,5.23h0Z"/>
      </g>
    </g>
  </g>
</svg>