<?xml version="1.0" encoding="UTF-8"?>
<svg id="Layer_2" data-name="Layer 2" xmlns="http://www.w3.org/2000/svg" viewBox="0 0 855.66 565.15">
  <defs>
    <style>
      .cls-1 {
        fill: #898f31;
        stroke-width: 0px;
      }
    </style>
  </defs>
  <g id="BG">
    <path class="cls-1" d="m143.93,384.7c127.69,46.02,213.84,109.81,342.26,153.74,65.81,22.51,136.61,24.56,206.14,26.4,26.52.7,54.06,1.21,78.33-9.49,50.84-22.41,69.49-84.16,78.32-139.01,9.71-60.34,13.3-127.1-21.25-177.51-19.3-28.15-48.43-47.84-77.55-65.64C616.58,91.5,467.7,34.89,313.57,7.15c-26.88-4.84-54.23-8.82-81.45-6.45-51.1,4.44-97.39,30.66-141.83,56.28-28.33,16.33-57.84,33.78-74.9,61.68-21.9,35.81-18.55,82.62-1.75,121.09,16.79,38.47,45.31,70.42,73.35,101.65"/>
  </g>
</svg>