<?xml version="1.0" encoding="UTF-8"?>
<svg id="Layer_2" data-name="Layer 2" xmlns="http://www.w3.org/2000/svg" viewBox="0 0 219.69 607">
  <defs>
    <style>
      .cls-1 {
        fill: #fbd2a0;
      }

      .cls-1, .cls-2, .cls-3, .cls-4, .cls-5, .cls-6, .cls-7, .cls-8, .cls-9, .cls-10, .cls-11, .cls-12, .cls-13, .cls-14, .cls-15, .cls-16, .cls-17, .cls-18, .cls-19, .cls-20, .cls-21, .cls-22, .cls-23, .cls-24, .cls-25, .cls-26, .cls-27, .cls-28, .cls-29, .cls-30, .cls-31, .cls-32, .cls-33, .cls-34, .cls-35, .cls-36, .cls-37, .cls-38, .cls-39, .cls-40, .cls-41, .cls-42, .cls-43, .cls-44, .cls-45, .cls-46, .cls-47, .cls-48, .cls-49, .cls-50, .cls-51, .cls-52, .cls-53, .cls-54, .cls-55, .cls-56, .cls-57, .cls-58, .cls-59, .cls-60, .cls-61, .cls-62, .cls-63, .cls-64, .cls-65, .cls-66, .cls-67, .cls-68, .cls-69, .cls-70, .cls-71 {
        stroke-width: 0px;
      }

      .cls-2 {
        fill: #ee8638;
      }

      .cls-3 {
        fill: #fe5164;
      }

      .cls-4 {
        fill: #fefefe;
      }

      .cls-5 {
        fill: #baa3c1;
      }

      .cls-6 {
        fill: #c75a2a;
      }

      .cls-7 {
        fill: #fefbfb;
      }

      .cls-8 {
        fill: #fbd4a3;
      }

      .cls-9 {
        fill: #fe4e62;
      }

      .cls-10 {
        fill: #fe5063;
      }

      .cls-11 {
        fill: #f8e7fb;
      }

      .cls-12 {
        fill: #36294f;
      }

      .cls-13 {
        fill: #f08837;
      }

      .cls-14 {
        fill: #bb1855;
      }

      .cls-15 {
        fill: #442f69;
      }

      .cls-16 {
        fill: #f08f44;
      }

      .cls-17 {
        fill: #b91655;
      }

      .cls-18 {
        fill: #782835;
      }

      .cls-19 {
        fill: #b68c93;
      }

      .cls-20 {
        fill: #bba4c1;
      }

      .cls-21 {
        fill: #772835;
      }

      .cls-22 {
        fill: #c55625;
      }

      .cls-23 {
        fill: #7e5563;
      }

      .cls-24 {
        fill: #432e68;
      }

      .cls-25 {
        fill: #f8f5f7;
      }

      .cls-26 {
        fill: #fd5164;
      }

      .cls-27 {
        fill: #975b65;
      }

      .cls-28 {
        fill: #772734;
      }

      .cls-29 {
        fill: #37294f;
      }

      .cls-72 {
        stroke: #a4004b;
        stroke-width: 4.25px;
      }

      .cls-72, .cls-73 {
        fill: none;
        stroke-miterlimit: 10;
      }

      .cls-30 {
        fill: #fe7f82;
      }

      .cls-31 {
        fill: #dfcde5;
      }

      .cls-32 {
        fill: #d01d43;
      }

      .cls-33 {
        fill: #b81555;
      }

      .cls-34 {
        fill: #fb4d61;
      }

      .cls-73 {
        stroke: #432e69;
      }

      .cls-35 {
        fill: #bb1755;
      }

      .cls-36 {
        fill: #c65724;
      }

      .cls-37 {
        fill: #f8e7fa;
      }

      .cls-38 {
        fill: #fefcfa;
      }

      .cls-39 {
        fill: #b9a2c0;
      }

      .cls-40 {
        fill: #c75825;
      }

      .cls-41 {
        fill: #c65825;
      }

      .cls-42 {
        fill: #f09247;
      }

      .cls-43 {
        fill: #dfcce4;
      }

      .cls-44 {
        fill: #e6d4ea;
      }

      .cls-45 {
        fill: #ba1756;
      }

      .cls-46 {
        fill: #f9e8fb;
      }

      .cls-47 {
        fill: #b4899c;
      }

      .cls-48 {
        fill: #432e69;
      }

      .cls-49 {
        fill: #db8958;
      }

      .cls-50 {
        fill: #fe5064;
      }

      .cls-51 {
        fill: #f08737;
      }

      .cls-52 {
        fill: #b91555;
      }

      .cls-53 {
        fill: #669faa;
      }

      .cls-54 {
        fill: #fbd3a2;
      }

      .cls-55 {
        fill: #c65726;
      }

      .cls-56 {
        fill: #c55524;
      }

      .cls-57 {
        fill: #dfcde4;
      }

      .cls-58 {
        fill: #fdfdfd;
      }

      .cls-59 {
        fill: #b91857;
      }

      .cls-60 {
        fill: #fc5265;
      }

      .cls-61 {
        fill: #fbd3a1;
      }

      .cls-62 {
        fill: #442e69;
      }

      .cls-63 {
        fill: #4b6fb4;
      }

      .cls-64 {
        fill: #5a84ae;
      }

      .cls-65 {
        fill: #d18c7c;
      }

      .cls-66 {
        fill: #baa4c1;
      }

      .cls-67 {
        fill: #fad4a3;
      }

      .cls-68 {
        fill: #decce4;
      }

      .cls-69 {
        fill: #dfcee5;
      }

      .cls-70 {
        fill: #d98553;
      }

      .cls-71 {
        fill: #c55624;
      }
    </style>
  </defs>
  <g id="Layer_50" data-name="Layer 50">
    <g>
      <path class="cls-46" d="m0,159.79c.49-1.44.96-2.89,1.49-4.32,1.04-2.82,2.36-5.52,3.34-8.37.94-2.73,2.17-5.35,3.27-8.02.15-.37.22-.79.41-1.14,1.96-3.64,3.15-7.59,4.65-11.42,1.53-3.92,3.33-7.74,5.17-11.53.81-1.67.81-3.49,1.43-5.17.34-.34.61-.85.8-1.18,1.25-2.16,2.4-4.39,3.42-6.69.9-2.03,1.49-4.2,2.9-6.01.62-.79,1.3-1.37,2.11-1.94,2.57-1.82,5.06-3.78,7.87-5.22,1.72-.89,3.26-2.14,5.17-2.68.38-.02.65.16.83.49.15.32.24.66.24,1-.06,4.95,1.83,9.51,2.85,14.24.68,3.19,1.56,6.35,1.89,9.6.25,2.51-.15,4.94-1.99,6.9-.83.35-1.24-.1-1.67-.75-3.14-4.72-5.63-9.79-8.06-14.89-.84-1.75-1.56-3.58-2.44-5.33-.31-.61-.59-1.25-1.48-1.53-.09,1.59.51,2.88,1.08,4.16,1.26,2.84,2.29,5.77,3.67,8.55,1.95,3.92,3.97,7.8,6.49,11.4.39.56.8,1.14,1.02,1.8.46.79.4,1.51.1,2.42-1.24,3.75-2.57,7.47-3.92,11.17-1.69,4.62-2.73,9.47-5.03,13.87-3.02,3.2-5.62,6.78-8.69,9.96-1.08,1.12-2.46,2.11-3.06,3.82-.41,1.18-1.76,1.9-2.59,2.95-1.41,1.79-2.48,3.87-4.35,5.3-.73.56-1.33,1.3-2.34,1.38-.98-.42-2.46-.07-2.62-1.73-.1.25-.19.54-.56.35-.23-1.17-.98-1.62-2.04-2.24-2.73-1.6-5.16-3.7-7.73-5.58-1.12-.82-.47-2.49-1.62-3.27,0-.12,0-.23,0-.35Z"/>
      <path class="cls-28" d="m164.72,583.67c-.61,2.54-3.49,4.75-6.16,4.77-4,.04-7.95.72-11.9,1.27-3.65.51-7.28,1.12-10.97,1.14-.39,0-.68-.02-.68.47h-.35c-1.03-.95-2.43-.66-3.5-.59-5.6.35-11.01-.64-16.34-2.06-2.78-.74-5.46-1.91-8.15-2.99-2-.8-2.79-2.42-2.51-4.62.08-.62.08-1.24.11-1.86.92-.95,1.73-.13,2.48.23,3.68,1.75,7.42,3.22,11.45,4.1,2.73.59,5.48,1.14,8.19,1.8,1.34.33,2.73.44,4.1.39,2.01-.07,3.99.26,5.99.35,3.31.16,6.55-.21,9.39-2.13.81-.55,1.63-.78,2.6-.67,2.21.25,4.47-.1,6.65.52,1.03-.4,2.08.25,3.11-.06,1.91-.25,3.87.02,5.77-.46.27-.07.54.14.71.39Z"/>
      <path class="cls-48" d="m162.96,495.71c-.35.47-.82.8-.39,1.58.71,1.29.97,2.9,1.88,3.99,1.65,1.99.81,3.8.12,5.69-.42,1.17-.38,2.77-2.23,2.83-.46-.13-.65-.5-.68-.91-.14-1.68-1.25-2.31-2.69-2.72-3.48-.98-6.85-2.34-10.49-2.66-2.11-1.07-4.35-1.94-6.29-3.33-.23-.17-.45-.37-.73-.44-4.26-1.07-8.43-2.94-12.83-2.75-2.03.09-4.36.32-6.35,1.41-1.96,1.08-4.09,1.76-6.22,2.42-1.58.49-2.91,1.54-4.51,1.98-2.53.17-4.4,1.73-6.42,2.98-1.52.94-2.94,2.12-4.8,2.38-.55-.43-1.04-.97-1.54-1.43-.97-.9-1.11-2.47-.8-3.63.69-2.55-.38-4.81-.77-7.17-.51-3.05-1.69-5.94-2.11-9.06-.23-1.73-.25-3.93-.99-5.11-1.14-1.81-1.03-3.76-1.53-5.53-.6-2.16-1-4.49-1.42-6.76-.48-2.59-.73-5.27-1.93-7.71-.31-.64-.05-1.45-.32-2.24-.62-1.85-1.15-3.78-1.35-5.72-.34-3.2-1.32-6.29-2.11-9.34-.49-1.89-.56-3.91-1.38-5.78-.82-1.87-.96-4.03-1.47-6.04-1.06-4.18-2-8.39-3.32-12.49-.72-2.23-1.42-4.5-2.04-6.72-.56-2-1.29-4.15-1.06-6.39.16-1.51-.89-2.77-1.07-4.26-.35-2.93-1.44-5.69-1.82-8.65-.28-2.19-1.35-4.26-1.64-6.51-.25-1.93-.39-3.94-1.05-5.73-1.28-3.48-1.48-7.17-2.45-10.7-.96-3.5-1.47-7.12-2.39-10.63-.79-3.02-1.44-6.09-1.97-9.14-.71-4.01-1.93-7.88-2.57-11.9-.39-2.43-1.14-4.86-1.53-7.3-.63-3.9-1.64-7.72-2.32-11.6-.45-2.52-.9-5.08-1.54-7.58-.62-2.42-.78-4.94-1.2-7.41-.61-3.6-1.25-7.19-1.72-10.81-.37-2.85-1.14-5.65-1.62-8.49-.16-.93-.14-1.91-.21-2.86-.06-.76-.28-1.43-.39-2.14-.25-1.53-.25-3.12-.2-4.68.07-1.94-.58-3.91.18-5.83-1.54-1.07-1.24-2.8-1.43-4.29-.32-2.45.47-4.83.93-7.19.74-3.87,1.38-7.76,2.54-11.55.86-2.8,1.32-5.72,2-8.58.62-2.59,1.25-5.18,1.97-7.74.85-3.05,1.8-6.06,2.73-9.09.1-.32.31-.59.48-.89.11.03.27.07.29.16.7,3.31,3.62,4.2,6.09,5.51,3.59,1.9,7.45,3.22,11.12,4.92,1.93.89,4.01,1.29,5.83,2.19,4.36,2.16,9.14,2.84,13.62,4.52,1.34.5,2.8.57,4.21.79.16.02.32.06.47.12,2.16.94,4.39,1.42,6.75,1.01,1.09.02,2.07.69,3.19.53.96-.26,1.75.12,2.5.66-.93,1.09-.7,2.26-.53,3.58.42,3.13.83,6.28,1.43,9.37.88,4.46,1.36,8.98,2.11,13.46.78,4.65,1.8,9.25,2.32,13.94.22,1.94.93,3.8,1.24,5.74.09.53.46,1.2-.3,1.51-.65.26-1.15-.13-1.71-.51-2.3-1.56-4.36-3.44-6.77-4.89-2.09-1.26-3.94-2.95-5.91-4.43-.7-.53-1.42-1-2.24-1.26-.55-.17-1.05.02-1.35.51-.28.46-.07.9.23,1.27.4.51.95.85,1.49,1.17,3.93,2.3,7.5,5.13,11.23,7.73,1.4.97,2.47,2.42,4.28,2.83.56.12.91.7.68,1.38-.89.12-1.24.42-1.24,1.53,0,3.79.16,7.59.27,11.37.09,2.96.62,5.95.67,8.92.05,2.97,1.06,5.75,1.13,8.71.08,3.31.57,6.62.85,9.93-.45,2.29-1.51,4.29-2.89,6.14-.4.53-.93,1.13-.44,1.86.48.7,1.22.48,1.89.35.72-.14,1.4-.52,2.17-.39.8,3.83,1.19,7.74,2.24,11.55.2-.45,0-1.29.95-1.08.42.61.4,1.42.89,2.01.53,1.33-.43,2.44-.58,3.67-.18,1.5-.13,3.04-.62,4.5-1.01.26-.82,1.09-.6,1.68.51,1.4.51,2.82.49,4.26-.04,2.01.8,3.96.51,6-.03.23,0,.5.15.66,1.39,1.47.99,3.49,1.61,5.16.79,2.08,1.03,4.32,2.09,6.32,1.01,1.93,1.46,4.1,1.93,6.23.16.74.26,1.47.62,2.14,2.35,4.36,3.5,9.09,4.54,13.89.71,3.27,1.07,6.68,2.94,9.61,1.31.92,1.66,2.4,1.93,3.8.51,2.63,1.46,5.13,1.99,7.75.09.45.44.8.61,1.23.47,3.1,2.03,5.9,2.37,9.06.19,1.73.91,3.43,1.53,5.09.7,1.89,1.36,3.79,1.58,5.8.31,2.76,1.47,5.31,1.82,8.05-.08,1.08.69,1.92.82,2.94.03.16.05.33.07.49,0,1.26,1.05,2.33.69,3.66-.84.59-1.41-.02-1.97-.49-4.66-3.89-9.93-6.8-15.38-9.38-1.51-.71-2.54-1.95-3.69-3.07-2.58-2.51-4.29-5.71-6.66-8.38-.75-.84-.95-1.96-1.35-2.98-.19-.49-.41-1.05-1.06-.95-.67.11-.86.7-.93,1.31-.09.85.27,1.58.72,2.27,2.06,3.13,4.08,6.36,6.66,9.02,2.21,2.28,4.12,4.79,6.2,7.15,3.49,3.96,6.93,7.99,10.13,12.21,2.35,3.1,4.47,6.43,7.39,9.09.98.89,1.5,2.14,2.32,3.18,1.34,1.68,2.78,3.23,4.35,4.67.43.52.66,1.11.67,1.79.48,1.57,1.08,3.05,2.43,4.1Z"/>
      <path class="cls-30" d="m45.69,118.21c1.62-2.65,2.07-5.37,1.39-8.51-.49-2.3-1.21-4.58-1.31-7.01-.05-1.3-.69-2.7-1.18-4-.53-1.42-.43-2.93-.99-4.32-1-2.47-1.17-5.07-.96-7.7.58-1.05.96-2.19,1.47-3.27,1.28-2.72,3.81-3.82,6.2-5.13.2-.11.45-.06.65.07-.19,2.16-1.58,3.86-2.26,5.84-.17.48-.51.9-.63,1.41-.14.55-.44,1.23.16,1.58.66.39,1.23-.09,1.59-.64.76-1.16,1.5-2.34,1.75-3.72.21-1.14.43-2.26,1-3.29.47-.85.17-1.55-.44-2.18-.45-.9-.08-1.66.38-2.43.8-1.34,1.3-2.79,1.67-4.3.49-1.81,1.31-3.42,3.35-3.71,2.44-.34,3.97,1.11,5.16,3.04.77,1.42.69,2.85.03,4.28-.5,1.21-1.33,2.25-1.81,3.48-.32.84-.41,1.63.49,2.05.85.39,1.44-.06,1.99-.81.64-.87.73-2.25,2.1-2.51.86.26,1.07,1.05,1.2,1.75.44,2.34,2.06,3.74,3.82,5.06.97.7,1.37,1.81,1.44,2.85.19,2.49,1.27,4.67,2.09,6.93.87,2.39.84,4.71.2,7.1-1.08.17-.69-.72-.88-1.09,0,1.09-.25,2.27-.82,3.33-2.08,3.81-2.76,8.17-4.71,12.03-.18.36-.19.78-.19,1.19.04,5.29-.09,10.57-.31,15.86-.11,2.57-.33,5.15-.31,7.73.02,2.71-.56,5.38-.55,8.1.01,3.38-.37,6.75-.55,10.13-.14,2.57-.66,5.13-.91,7.71-.4,4.12-.53,8.26-.79,12.39-.24,3.91-.83,7.78-1.09,11.68-.22,3.33-.06,6.68-.44,10-.2,1.71-.45,3.42-.01,5.13-.06,2.38.04,4.76-.5,7.11-.12.49-.09,1.03-.52,1.41-.95,2.18-1.93,4.36-2.83,6.56-.35.85-1.04,1.53-1.58,2.07-2.3,2.26-4.19,5.05-7.34,6.33.76-2.14.45-4.51,1.4-6.62.19-.42.29-.88.28-1.34-.03-1.07-.15-2.16-1.39-2.49-1.32-.35-1.27,1.04-1.84,1.63-.32.33-.33.84-.35,1.31-.12,2.88-.84,5.68-1.33,8.51-.18,1.07.23,1.02.88,1.09.29.74-.24.81-.75,1-2.97,1.14-5.94,1.32-9.1.67-3.22-.67-6.52-.94-9.48-2.54-.45-.24-1.04-.43-1.05-1.03-.02-1.85-1.49-2.45-2.72-3.22-.53-.33-1.15-.49-1.52-1.06.38-.38.11-.59-.14-.94-1.37-1.96-3.21-3.58-4.13-5.85-1.01-2.49-1.58-5.03-1.06-7.72.85-3.44,1.62-6.9,2.5-10.31.74-2.85,1.39-5.76,2.46-8.54.72-1.86.97-3.88,1.83-5.7,1.04-2.43.87-5.23,2.29-7.54-.26-.07-.56-.03-.77-.26.47-2.04,1.35-3.95,2.05-5.91,1.15-3.18,2-6.45,3.21-9.61,1.08-2.82,1.77-5.8,2.86-8.63.46-1.2.57-2.54,1.34-3.63,1.07-2.86,2.38-5.63,3-8.67.42-2.07,1.49-3.99,2.19-6.01,1.16-3.33,2.24-6.68,3.38-10.01.26-.77,1-1.44.37-2.35.61-1.21.22-2.78,1.4-3.78Z"/>
      <path class="cls-51" d="m155.11,584.06c-2.49-.15-4.98-.37-7.47-.41-1.42-.02-2.4,1.24-3.7,1.73-1.62.61-3.24.74-4.91,1.01-2.99.49-5.87-.62-8.85-.16-1.16.18-2.68-.07-3.95-.52-.65-.23-1.31-.51-1.97-.47-2.36.16-4.36-1.16-6.6-1.47-3.13-.43-5.93-1.85-8.84-2.97-1.45-.56-2.66-2.18-4.53-1.6-3.16-3.22-3.1-5.52-1.18-9.98,1.87-4.33,4.33-8.22,8.12-10.97,3.11-2.26,6.53-4.19,10.7-3.83,1.07.09,2.07-.61,3.25-.59,2.96.03,5.32,1.43,7.71,2.86,1.67.28,2.51,1.73,3.72,2.66.06,1.81.73,3.37,2.05,4.59,1.08.99,1.41,2.41,1.89,3.63.82,2.1,1.97,4.06,2.23,6.46.21,1.87.48,3.82.88,5.7.11.51.28,1,.54,1.45.24.41.51.83,1.07.64.51-.17.74-.66.62-1.11-.6-2.18-.44-4.45-.9-6.65-.57-2.76-1.8-5.3-2.47-8.03.51-.59,1.12-.6,1.66-.13,1.03.89,2.39,1.04,3.55,1.66.46.24,1.11.64,1.5-.09.36-.68,0-1.27-.59-1.6-2.14-1.23-4.21-2.73-6.9-2.36-.29.04-.57.05-.85-.03-1.42-1.5-2.71-3.11-4.29-4.45.09-1.49,1.5-1.45,2.35-2.05.97-.32,1.72-1.16,2.8-1.25,1.87.36,3.71,1.05,5.67.57,1.34.54,2.57,1.26,3.66,2.19,1.76,1.49,3.51,1.72,5.63.65,2-1.02,3.23-.87,4.86.61.3.27.58.57.68.97.15.57.25,1.2-.35,1.55-.58.33-.94-.16-1.28-.56-.22-.26-.35-.6-.91-.92-.03,1.13-.22,2.12.94,2.67.89.42,1.12,1.09.92,1.98-.22,1.01.08,1.78.96,2.38,1.07.73,1.08,1.67.38,2.68-3.53.57-5.34,3.16-6.64,6.06-.63,1.41-.83,3.15-.45,4.73.28,1.15.14,2.01-.72,2.78Z"/>
      <path class="cls-68" d="m152.6,516.5c.33.1.46.39.44.66-.26,2.99,1.3,5.62,1.67,8.51.51,4.03,1.41,8.01,2.12,12.02.16.92,1.12,1.63.67,2.69-.38.83-1.14.85-1.75.54-1.28-.65-2.72-.69-4.08-1.28-.22,1.04,1.27,2.14-.07,3.11-.76.02-1.47.91-2.28.15-.44-1.05-.68-2.18-.99-3.27-.47-1.68-1.38-2.56-3.04-2.76-.51-.06-.89-.44-1.49-.67.88,1.98,1.62,3.9,2.42,5.78.31.73.58,1.39-.15,2.01-.7.22-1.33-.01-1.95-.3-1.4-2.11-2.24-4.5-3.23-6.8-.75-1.73-1.52-3.35-3.78-3.68.21.99.65,1.89,1.16,2.75,1.15,1.93,1.71,4.13,2.74,6.11.29.56.37,1.21.06,1.83-.28.38-.63.57-1.11.48-.79-.48-1.41-1.17-2.04-1.84-1.36-2.99-2.79-5.95-4.08-8.96-.85-2-2.5-2.61-4.18-3.49.83,1.81,1.35,3.73,2.42,5.4,1.49,2.32,2.52,4.86,3.51,7.42-.44.8-.39,1.75-.75,2.57-.66.42-.76-.2-.96-.55-2.79-4.63-5.01-9.55-7.26-14.45-.64-1.39-2.4-2.61-3.95-2.56-1.23.04-1.39-.99-1.84-1.75-1.29-1.15-1.53-2.91-2.45-4.28-.41-.61-.68-1.31-1.01-1.97-.51-.79-1.63-1.32-1.05-2.56,1.49-.83,3.19-.96,4.81-1.25,8.51-1.52,17.07-2,25.71-1.06,2.04.22,3.88.88,5.78,1.45Z"/>
      <path class="cls-28" d="m17.95,209.41c-.51,3.77.36,7.16,2.86,10.05,1.07,1.23,1.59,2.92,3.1,3.79.09.05.14.35.08.44-.35.46-.72-.2-1.09,0-.51-.26-.82-.7-1.55-.8-1.57-.23-2.3-1.79-2.89-3.04-.5-1.08-.34-.44-.63,0-.15.23-.53-.05-.7-.24-1.98-2.2-4.58-3.68-6.71-5.69-.98-.93-2.38-1.59-2.41-3.29-.03-1.53-.29-3.1.23-4.54.48-1.33.25-2.49-.15-3.71-.09-.26-.23-.72-.12-.8.56-.43.25.42.49.39,1-.13.39-1.24.96-1.64-1.21-1.32-.24-2.84-.25-4.22,0-1.79-.03-3.65.52-5.41-.04-1.65.13-3.28.36-4.91.07-1.66-.43-3.39.65-4.95.05-.07-.6-.99-.3-1.58,1.03-2.04.33-4.44,1.34-6.49.24-.48-.57-.93-.33-1.53.99-.39,1.5.69,2.35.8.2.02.41.34.73.29.68.86,2.26.2,2.66,1.55.46.8.36,1.66.26,2.51-.32,2.64-.19,5.29-.1,7.93.16,5.34.29,10.68.54,16.02.14,3.03-.16,6.06.13,9.08Z"/>
      <path class="cls-39" d="m61.62,212.81c.25-2.76.49-5.52.74-8.28.29-2.56.96-5.08.91-7.69,0-.34.12-.69.29-.98.58-1,1-1.98.77-3.23-.1-.58.05-1.4.83-1.74,1.11.94,1.09,2.34,1.34,3.57.52,2.59,1,5.19,1.59,7.75.92,4.01,1.75,8.03,2.59,12.05.74,3.53,1.47,7.07,2.5,10.53.08.28.09.56-.06.83-1.39.06-2.3-.98-3.16-1.72-1.95-1.69-4.14-3.04-6.07-4.73-.95-.83-1.88-1.67-2.31-2.92-.02-.48-.44-1.03.02-1.42.83-.71.24-1.35,0-2.02Z"/>
      <path class="cls-21" d="m61.6,216.26c3.35,3.7,7.73,6.14,11.44,9.4.62,1.87,2.48,2.39,3.88,3.3,2.37,1.53,4.95,2.74,7.59,3.76.51.49,1.08.73,1.79.41.23-.01.48,0,.67.11,4.05,2.41,8.59,3.62,12.92,5.34.37.15.71.38,1.02.63.19.17.33.37.3.65-1.09.55-2.11-.14-3.08-.35-4.7-1-9.21-2.69-13.82-4.03-1.9-.55-4.11-.98-5.71-2.07-2.75-1.88-5.9-2.72-8.83-4.08-2.83-1.32-5.49-2.89-8.22-4.35-1.45-.78-1.17-2.3-1.67-3.49.18-1.87.94-3.56,1.71-5.24Z"/>
      <path class="cls-46" d="m120.81,526.17c.85.36,1.19,2.29,2.63.87.73,1.45,2.77,1.11,3.47,2.86,1.46,3.64,3.23,7.16,4.95,10.7.83,1.71,1.85,3.32,2.78,4.98,1.46.93.59,2.09.33,3.2.17,1.29.7,2.35,1.58,3.34,1.32,1.49,2.34,3.2,2.61,5.24-.72.67-2.09.47-2.35,1.75,0,.27-.11.43-.41.31-1.55-.41-2.2-2.01-3.52-2.73,1.21-.24.46-1.05.3-1.45-1.12-2.77-2.36-5.49-3.52-8.24-1.11-2.63-2-5.37-3.33-7.88-1.24-2.32-2-4.83-3.27-7.14-.99-1.79-1.92-3.71-2.26-5.81Z"/>
      <path class="cls-12" d="m116.39,517.58c-.31,1.04,1.24,1.31.97,2.34-2-.37-3.4-1.89-5.18-2.72-2.97-1.39-5.79-3.13-8.53-4.94-1.46-.97-2.9-2.16-3.32-4.08,2.96-1.81,5.88-3.68,8.9-5.39.58-.33,1.46-.59,2.25-.23-.9,2.54.54,6.39,2.77,7.4.2.12.49.38.33.51-1.06.84-.49,1.58.08,2.34.12.74.47,1.38.88,2-.04,1.03.97,1.73.86,2.78Z"/>
      <path class="cls-10" d="m47.51,229.85c-.56.04-.97,1-1.5.49-.45-.42.21-1.02.3-1.54.48-2.85,1.1-5.71,1.19-8.59.05-1.56,1.3-2.2,1.66-3.45.14-.5,2.61.53,2.64,1.28.04.89.53,1.78.1,2.67-.77,1.6-.92,3.33-1.03,5.07-.05.79-.73,1.29-.99,1.99-.79.69-1.57,1.39-2.36,2.08Z"/>
      <path class="cls-27" d="m10.03,185.77c.44,1.1-.49,2.4.51,3.42-.67.27-.96.77-.87,1.49-.54-.26-.81-.82-.6-1.26.59-1.2.39-2.41.36-3.66-.01-.47.39.13.6,0Z"/>
      <path class="cls-46" d="m159.61,77.64c1.58.08,2.55,1.28,3.62,2.16,3.28,2.69,6.71,5.18,10.33,7.36,3.16,1.9,5.75,4.58,8.9,6.39,1.87,1.08,3.2,2.73,5.1,3.71,1.56.81,2.59,2.34,4.12,3.31,2.18,1.39,4.06,3.26,6.13,4.84,2.17,1.66,4.3,3.45,6.15,5.37,1.84,1.91,4.04,3.85,4.64,6.74.07.33.13.76.36.96,3.38,2.92,2.21,7.07,2.91,10.71.42,2.19.74,4.4,1.04,6.6.34,2.47.55,4.97.86,7.44.31,2.47,1.02,4.9,1.68,7.32.4,1.47-.33,2.98.25,4.38,1.13,2.73.87,5.69,1.41,8.52.77,4.02,1.39,8.1,1.61,12.18.21,4,.56,8,.93,11.98.14,1.46.02,2.7-.54,3.99-.14.31-.38.4-.68.44-3.38-1.71-7.02-2.66-10.65-3.64-.88-.9-2.03-1.47-2.84-2.48-.37-.47-.97-.76-1.65-.83-2.47-.24-4.85-.88-7.21-1.6-2.15-.66-4.41-.94-6.51-1.65-2.86-.96-5.41-.19-8.05.56-.28.08-.54.2-.83.21-.93-.15-1.14-.71-.42-1.25.79-.59,1.33-1.48,2.17-1.95,1.22-.69,1.26-1.71,1.04-2.83-.47-2.28-1.42-4.4-2.47-6.43-1.51-2.92-2.54-6.05-4.07-8.93-2.03-3.82-3.15-8.05-5.47-11.72-.9-1.42-1.34-3.05-1.92-4.6-.84-2.21-2.14-4.2-2.94-6.41-.34-.94-1.04-1.66-1.69-2.38-.28-.31-.66-.5-1.08-.25-.36.21-.32.57-.3.92.11,1.73.88,3.23,1.8,4.63.96,1.46,1.02,2.96.73,4.63-.45,2.54-.74,5.13-.95,7.7-.48,5.79-1.16,11.56-1.83,17.32-.43,3.68-1.1,7.34-1.48,11.04-.28,2.74-.55,5.49-.89,8.23-.13,1.03.04,2.08.62,3,.64.92,1.5,1.48,2.59,1.78.86.24,1.76.44,2.37,1.21.4.72.68,1.44-.04,2.14-2.76.15-4.77,1.96-6.75,3.49-2.3,1.78-4.96,2.67-7.52,3.74-1.92.8-3.78,1.78-5.8,2.43-2.56.82-5.13,1.62-7.65,2.54-2,.73-3.98,1.5-6.01,2.14-3.66,1.17-7.26,2.55-11.03,3.3-2.12.42-3.01-.46-2.88-2.64.06-.94-.14-1.84-.26-2.75-.11-.93.07-1.8.98-2.21,2.48-1.11,4.73-2.61,6.89-4.21,2.16-1.61,4.14-3.46,6.18-5.23,2.35-2.05,4.05-4.7,6.46-6.7,1.27-1.05,1.95-2.65,3.05-3.9.74-.84,1.38-1.84,2.17-2.66,2.1-2.18,2.88-5.1,4.28-7.67.24-.45.38-1.17-.1-1.43-.72-.39-.91.44-1.21.87-3.21,4.58-6.15,9.36-10.01,13.44-3.5,3.71-6.92,7.47-10.96,10.69-2.85,2.28-6.18,3.53-9.13,5.51-.38.25-.87.31-1.3.47-1.15.44-1.69-.06-2-1.17-.42-1.5.07-2.98.05-4.47-.02-1.48-.08-2.95-.22-4.43-.12-1.31.4-1.95,1.83-2.13,2.39-.31,4.68-1.18,6.97-1.92.6-.2.92-.83.92-1.37,0-.64-.7-.65-1.21-.72-1.09-.13-2.04.32-2.98.75-1.2.55-1.72.05-1.9-1.11-.22-1.35.21-2.64.39-3.93.5-3.58,1.14-7.14,1.64-10.72.49-3.48,1-6.95,1.43-10.44.43-3.53.59-7.07.85-10.61.03-.41.12-.8.22-1.19.68-2.28,1.36-4.56,1.66-6.93.04-1.02.36-1.95,1.15-2.62,1.06-.91,1.54-2.11,1.91-3.41.69-2.43,1.47-4.84,2.61-7.1.52-1.03.2-2.32,1.04-3.24,1.42-.24,2.55.57,3.73,1.1,3.42,1.54,6.84,3.04,10.45,4.07,2.31.66,2.84.45,4.14-1.52,1.91-2.91,2.91-6.21,4.12-9.43.76-2.03,1.48-4.1,2.45-6.06,1.36-2.75,2.28-5.67,3.2-8.57.36-1.14.99-2.06,1.49-3.07,1.21-2.44,1.72-5.11,2.67-7.64.83-2.22.52-4.74.16-7.15-.67-4.56-1.94-8.99-3-13.46-.12-.49-.27-1.01.02-1.51Z"/>
      <path class="cls-12" d="m139.62,418.7c-.44-.1-.74-.39-.83-.8-.57-2.4-1.53-4.66-1.93-7.16-.56-3.53-1.53-7.05-2.73-10.46-.7-1.99-1.62-3.88-2.46-5.8-.77-1.76-1.01-3.78-1.55-5.67-.23-.82-.46-1.59-.83-2.35-.47-.97-1.53-1.79-.92-3.11.08-.16,0-.51-.13-.64-1.02-1.02-1.01-2.34-1.26-3.65-.24-1.26.1-2.82-1.38-3.68-.2-.12-.3-.64-.25-.95.43-2.76-.81-5.42-.44-8.21.16-1.23-.85-2.46-.64-3.85.21-1.38.65-.39,1.04-.17,1.93.41,2.67.22,3.3-1.45.76-2.03,1.85-3.92,2.4-6.04.26-1.03.74-1.95,1.98-2.11.17,0,.32.05.48.11.97.51.55,1.27.32,1.96-.92,2.72-1.32,5.6-2.4,8.28-.32.79-.62,1.87.42,2.27.92.35,1.81-.24,2.32-1.1,1.35-2.28,2.79-4.49,3.41-7.14.35-1.49,1.01-2.91,2.21-3.99.16-.03.32-.02.49.02.49.17.93.45,1.43.58.65.17,1.04.12,1.45-.66.86-1.66,2.66-2.68,3.25-4.59.22-.7.6-1.36.81-2.08.43-1.09,1.27-1.71,2.36-2.02,1.98-1.37,2.8-3.46,3.38-5.65.78-2.93,1.56-5.91,1.83-8.9.29-3.27.94-6.47,1.39-9.7.46-3.35.77-6.71,1.19-10.06.2-1.63-.04-3.32.45-4.92.58-1.9.73-3.92,1.71-5.7.86-.56,1.24-.04,1.23.7-.01,2.31.62,4.55.56,6.87-.09,3.25.82,6.45.46,9.75,1.28-1.66,3.04-2.7,4.4-4.18,2.34-2.53,4.67-5.05,6.97-7.61,1.65-1.84,3.51-3.48,5.17-5.28,1.42-1.55,3.23-2.79,4.27-4.69.52-.94,1.5-1.42,2.28-2.08,1.47-1.23,2.5-2.85,3.88-4.15.67-.63,1.34-1.32,2.41-.99.11.13.23.25.34.38.26.69-.08,1.42.14,2.11-.48.74-.17,1.55-.15,2.3.12,4.86-.59,9.69-.9,14.52-.13,1.98.45,4.02-.3,6.18-.6,1.74,0,4.11-.37,6.12-.62,3.39-.49,6.84-.69,10.23-.22,3.61-.56,7.23-.7,10.86-.13,3.5-.51,7.01-.95,10.51-.34,2.73-.43,5.52-.71,8.28-.21,2.07-.62,4.14-.39,6.23.09.84-.18,1.57-.38,2.33-.88,3.46-.88,7.01-1.23,10.53-.15,1.47-.57,2.85-.95,4.27-.26.99-.53,2.17-.44,3.11.17,1.89-.29,3.68-.66,5.4-.68,3.21-1.11,6.49-2.03,9.64-.21.71-.17,1.4-.24,2.1-.16,1.65-1.66,2.25-2.67,2.9-4.83,3.14-8.95,7.29-14.1,9.95-1.52,1.88-3.76,1.61-5.77,1.74-.62.04-1.78.33-2.3-.68.36-2.32.31-4.69.93-6.99.86-3.18,1.1-6.45,1.41-9.72.22-2.29.85-4.52,1.11-6.82.6-5.39,1.33-10.77,1.85-16.16.43-4.46.62-8.96.86-13.44.22-4.25.17-8.51.13-12.75-.04-4.94-.05-9.89-.34-14.83-.23-3.85-.25-7.72-.56-11.57-.03-.4,0-.81-.17-1.19-.11-.27-.26-.55-.6-.54-.34.01-.48.28-.55.57-.12.56-.25,1.14-.24,1.71.14,5.4-.02,10.81.56,16.21.24,2.26-.34,4.56-.2,6.88.15,2.69.1,5.4.22,8.1.12,2.75-.34,5.49-.4,8.25-.12,5.58-.72,11.14-1.23,16.7-.33,3.49-.97,6.95-1.31,10.44-.41,4.23-1.31,8.39-1.72,12.62-.34,3.6-1.53,7.06-1.97,10.65-.09.73-.1,1.49-.34,2.21-.41.42-.94.38-1.45.33-3.65-.38-7.25-.97-10.58-2.64-.43-.22-1-.64-1.43-.24-.46.43-.27,1.04.04,1.58.52.9.65,1.81-.07,2.69Z"/>
      <path class="cls-30" d="m159.64,299.46c-.12,1.33-.35,2.86-.89,3.86-1.65,3.05-.73,6.37-1.45,9.51-.48,2.06-.86,4.39-.83,6.46.05,3.46-1.25,6.64-1.29,10.07-.03,2.04-.29,4.36-1.25,6.4-.66,1.42-.3,3.12-1.06,4.5-.87,1.59-1.32,3.55-3.34,4.25-.8-.5-.42-1.19-.31-1.84.08-.47.14-.98-.42-1.15-.59-.18-.99.19-1.21.7-.55,1.31-.59,2.66-.19,4.02-.15,1.89-1.14,3.4-2.24,4.83-.64.83-1.31,1.64-1.94,2.48-.9,1.2-2.07.63-2.99-.32.96-2.45,2.39-4.72,2.77-7.39.09-.61.42-1.48-.3-1.69-.77-.23-1.22.66-1.37,1.27-.63,2.54-1.95,4.94-1.54,7.68-1.7,2.54-2.11,5.63-3.56,8.27-.64,1.17-1.28,2.34-2.06,3.41-.69.94-1.88,1.41-2.86.84-.79-.46-.71-1.51-.43-2.56.62-2.28,1.87-4.38,1.84-6.87,0-.65.64-1.38.89-2.12.17-.52.04-.87-.31-1.2.15-.78.5-1.49.6-2.29-.22.75-.44,1.49-.67,2.24-1.27.13-1.47,1.15-1.83,2.1-.91,2.35-1.67,4.77-2.96,6.95-.71,1.2-2.16,1.31-3.14.33-.09-2.37.17-4.68,1.11-6.88.18-.41.2-.75-.09-1.09,1.12-4.73,2.25-9.46,3.2-14.24.16-.79.47-1.56.82-2.28.83-1.65.46-2.99-.92-4.22-.73,2.3-3.02,3.43-3.97,5.54-1.16.74-1.67,2.23-3.05,2.72-.39.51-1.04.31-1.52.55-.97.47-1.91.79-2.77-.14-.93-1.02-.05-1.9.47-2.57,1.35-1.75,2.27-3.67,2.91-5.76.93-1.62.92-3.5,1.41-5.24.45-1.61.75-3.28,1.61-4.75,1.56-3.84,3.19-7.66,4.81-11.47,1.7-3.98,3.19-8.06,4.91-12.03,1.34-1.36,1.72-3.33,3-4.74.36-.4.3-.98.39-1.49.45-2.48.97-4.98,1.72-7.36.8-2.57,1.27-5.32,2.38-7.71,2.61-5.66,3.9-11.76,6.33-17.47,1.07-2.52,1.39-5.36,2.45-7.85,1.5-3.52,1.94-7.35,3.52-10.81.99-2.16,1.35-4.54,2.36-6.67,1.78-3.74,2.19-7.92,3.86-11.68,1.15-2.91,2.05-5.92,3.26-8.82,1.47-4.65,4.71-8.19,7.55-11.97.45-.6.81-1.26,1.14-1.93.92-1.9.8-2.55-.64-4.12-.22-.38-.4-.77-.74-1.09-.58-.54-.3-.97.26-1.31,1.41,1.4,3.47,1.61,5.09,2.84,1.33,1.01,2.53,2.92,4.72,2.58.22-.03.47.1.63.26,2.75,2.75,6.57,3.8,9.66,6.04,1.34.97,3.25,1.27,4.77,2.22.58.36,1.03.79,1.55,1.17.74.54,1.44,1.36,2.59,1.15.45-.09.85.24,1.17.62q1.59,1.85,3.65.57c.21-.13.43-.12.64.03-.5,1.64-1.12,3.31-2.39,4.41-.66.57-.79,1.47-.86,1.8-.5,2.28-2.3,3.81-3.07,5.77-.72,1.85-1.64,3.54-2.61,5.21-1.66,2.84-2.83,5.95-4.78,8.62-.93,1.27-1.46,2.71-1.97,4.16-.25.72-.95.95-1.36,1.5-.95,1.29-.91,2.93-1.74,4.31-.95,1.58-1.64,3.33-2.58,4.95-.65,1.11-1.01,2.39-1.49,3.6-1.72,3.05-2.8,6.38-4.48,9.47-2.06,3.77-4.06,7.61-6.17,11.35-3.07,5.43-6.55,10.62-10.4,15.54-.68.87-1.05,1.91-1.1,3.04-.04,1.06-.31,2.04-.91,2.92Z"/>
      <path class="cls-48" d="m159.64,299.46c.47-2.8.64-5.6,3-7.81,1.52-1.42,2.28-3.62,3.58-5.31,2.38-3.11,4.32-6.51,6.22-9.89,1.53-2.72,3.33-5.34,4.53-8.19,1.25-2.97,3.36-5.51,4.09-8.72.22-.95.89-1.73,1.63-2.39.97,3.26,2.04,6.51,3.16,9.7,1.3,3.71,1.95,7.57,3.24,11.28.78,2.25,1.41,4.79,1.45,7.35,0,.63.53,1.4.55,2.19-1.43.32-2.41,1.33-3.18,2.41-1.21,1.7-3.08,2.74-4.28,4.32-1.34,1.76-3.28,2.91-4.38,4.83-.54.94-1.51,1.4-2.24,2.09-2.55,2.42-4.58,5.29-7.07,7.73-1.97,1.94-3.55,4.27-5.86,5.86-1.04.71-1.65,1.83-2.49,2.78-1.04-1.48-.25-3.03-.4-4.5-.42-3.97-.25-8.01-.97-11.97-.08-.44.07-.74.16-1.12.11-.46-.03-.98-.75-.64Z"/>
      <path class="cls-9" d="m205.56,212.8c-.51,0-.61.45-.87.74-1.09,1.2-3.05.82-3.55-.71-.14-.44-.43-.91-.73-.82-1.39.43-2.51-.38-3.14-1.2-.69-.9-1.71-.98-2.43-1.65-.91-.84-2-1.36-3.3-1.27-.23.02-.4.04-.6-.16-1.86-1.92-4.14-3.08-6.68-3.85-.59-.18-.85-1-1.48-1.37-1.03-.6-1.65-1.88-3.29-1.39-.34.1-1.98-1.01-2.06-1.49-.2-1.29-2.57-.18-1.9-1.97-.05-.02-.11-.06-.16-.06-1.85.12-3.05-1.1-4.35-2.12-1.35-1.14-2.04-2.61-2.13-4.35-.02-.35.37-.55.69-.69.34-.11.73-.16,1.02-.02,2.73,1.31,5.66.63,8.5.88,1.33.12,2.74.53,3.92-.56.11-.11.37-.16.5-.08,1.44.89,3.11-.01,4.61.62,1.18.49,2.34-.34,3.54-.3.3,0,.64-.23.99-.12,2.12.62,4.25.21,6.38.22,1.78.01,3.64-.09,5.44.23,1.32.24,2.73-.72,4.01.28.54.92.55,2.13.1,2.82-1.14,1.75-.5,3.54-.6,5.3-.57,1.23-.26,2.63-.07,3.76.45,2.66-.61,4.91-1.52,7.12-.29.69-.19,1.63-.83,2.21Z"/>
      <path class="cls-31" d="m159.61,77.64c.81,3.34,1.57,6.68,2.44,10,.71,2.72,1.06,5.5,1.3,8.28.19,2.27-.64,4.4-1.41,6.54-.86,2.41-1.91,4.72-2.88,7.06-1.15,2.76-1.96,5.71-3.09,8.51-.88,2.17-1.99,4.28-2.62,6.53-.72,2.57-2.04,4.86-2.85,7.39-.49,1.52-1.56,2.89-2.52,4.21-.47.65-1.28.83-2.19.63-3.6-.78-6.98-2.14-10.32-3.64-1.76-.79-3.45-1.74-5.37-2.13-.68-.06-1.43-.03-.65-1.05,1.53-2.01,2.82-4.2,4.5-6.1.47-.53.41-1.36,1.1-1.71.9-.31,1.41.31,1.91.86,1.95,2.12,3.92,4.22,5.79,6.41,1.01,1.18,2.2,2.14,3.34,3.2,1.55-2.45,2.4-5.2,3.6-7.79,2.05-4.42,3.43-9.12,5.14-13.68,1.42-3.78,3.2-7.39,4.56-11.19.43-1.22.64-2.37.53-3.7-.32-3.72-.73-7.5-1.81-11-1.01-3.27-1.01-7.03-3.68-9.73-.85-.86-.91-1.97,0-2.96.55-.26,1.1-.62,1.71-.15.31.92,1.04,1.57,1.69,2.17.94.86,1.33,1.93,1.8,3.01Z"/>
      <path class="cls-13" d="m151.23,459.27c-.91-3.88-1.76-7.77-2.77-11.62-.57-2.2-1.71-4.29-2.02-6.51-.38-2.72-1.85-5.15-1.88-7.9,0-.75-1.04-1.11-.52-1.91.52-1.4,1.67-1.9,3.02-2.11,1.11.77,1.41,2.15,2.28,3.12,1.16,1.29,2.42,2.43,3.85,3.37.92.6,1.95.98,3.1.74.39-.08.83-.2,1.19-.06,2.89,1.14,4.14-.83,5.48-2.77.41-.6.54-1.75,1.77-1.33.39,1.39.76,2.77-.73,3.79-.24.16-.19.37-.18.6.08,1.86.15,3.73.22,5.59-.13.36-.56.71-.74.46-.7-.99-1.92-.9-2.79-1.53-2.49-1.78-5-1.1-7.46.15-.42.21-.8.54-.66,1.08.14.56.63.62,1.1.58.51-.05,1.02-.07,1.52-.25,1.4-.49,2.82-.42,4.22,0,1.45.44,2.74,1.45,4.39,1.15.21-.04.32.29.42.5-.37.56-.19,1.12.01,1.68-.31.67-.73,1-1.5.63-3.19-1.57-6.35-.93-9.51.16-.45.16-.73.38-.65.84.09.53.52.78,1,.78.8,0,1.6-.15,2.39-.29,2.87-.49,5.56.21,8.25,1.03,0,1.02,0,2.04,0,3.07-.64.64-1.16.1-1.68-.19-3.06-1.7-5.99-.85-8.9.41-.41.18-.63.51-.55.97.08.45.39.68.82.77.71.14,1.34-.16,2-.36,2.16-.68,4.32-.85,6.23.64.66.52,1.66.07,2.11.93.57,1.68.28,3.49.73,5.19-.27.4-.51.49-.96.14-3.68-2.84-7.65-3.56-11.96-1.57-.21.1-.42.18-.64.05Z"/>
      <path class="cls-51" d="m152.02,462.4c-.02-.12-.03-.23-.05-.35.99-1.78,2.7-2.02,4.43-1.83,3.05.34,5.95,1.13,8.17,3.52.59.63,1.19,1.45,2.29,1.21,1.27.35,1.14,1.63,1.55,2.5,1.11,2.29,2.09,4.65,3.02,7.03,1.32,3.37.74,6.49-1.46,9.34-.16.73-.6,1.03-1.33.9-1.6-1.8-2.87-3.86-4.36-5.76-3.71-4.74-7.09-9.74-10.97-14.35-.58-.69-.91-1.45-1.29-2.21Z"/>
      <path class="cls-8" d="m164.74,432.28c-1.68.83-1.86,2.92-3.31,3.97-.38.28-.57.88-1.17.85-1.86-.08-3.85.19-5.56-.37-3.6-1.18-6.03-3.84-7.56-7.31-1.73-2.32-.98-5.88,1.49-7.06,2.73-.09,3.8,2.04,5.08,3.85.36.51.59,1.12.98,1.62.58.91.73,2.05,1.65,3.04.32-.9.52-1.77.92-2.54.35-.66.78-1.27,1.17-1.91.95-1.57,2.2-2.7,4.13-2.86.8.65,1.96.34,2.74,1.07,1.46,1.36,1.67,3.61.44,5.41-.47.69-.91,1.38-1,2.23Z"/>
      <path class="cls-51" d="m162.71,570.52c.28-1.05.77-2.01-.85-2.62-.97-.36-1.05-1.54-.71-2.58.19-.56.35-1.05-.46-1.39-1.13-.46-1.99-2.6-1.57-3.66.21-.53.61-.5.94-.14.31.33.53.74.78,1.12.24.36.39,1.06.94.72.45-.28.3-.95.04-1.43-.79-1.45-3.38-2.04-4.81-1.12-1.97,1.28-4.47,1.1-6.06-.51-1.02-1.03-2.45-1.38-3.53-2.28,1-1.02,1.5-2.62,3.24-2.78.5.59.07,1.42.43,1.97.51.78,1.37,1.49,2.29,1.06.87-.4,1.69-.12,2.51-.31,1.51-.41,2.95-.1,4.37.44.49,1.08,1.83.54,2.62,1.61,1.05,1.44,1.25,2.78,1.02,4.31-.1.7-.18,1.35.07,2,1.21,3.2,2.09,6.47,2.71,9.86.39,2.16.95,4.15.4,6.37-.22.89-.75,1.3-1.33,1.66-.39.24-.78.42-1.03.82-2.17.21-4.34.44-6.52.37-.43-.05-.8-.19-.74-.73.26-2.44.37-4.96,1.52-7.16.78-1.5,1.78-3.12,4.01-2.74.57.1,1.09-.29,1.65-.42.54-.12.7-.54.67-1.05-.04-.55-.34-.81-.89-.81-.63,0-1.27-.05-1.71-.61Z"/>
      <path class="cls-68" d="m148.94,422.47c-3.18,1.65-2.16,4.39-1.81,6.96-1.15.43-2.1,1.18-3.08,1.89-1.44-1.66-1.14-3.91-1.97-5.77-.99-2.23-.53-4.98-2.47-6.85.62-1.54-.97-2.72-.61-4.34.22-.96.31-.85.97-.54,3.93,1.81,8.04,2.89,12.37,3.13.23.01.45,0,.68-.01.85-.71,1.8-.52,2.75-.32,2.76.49,5.44.38,7.96-1.01-1.05,1.53-1,3.37-1.39,5.08.15.23.13.49-.17.47-.49-.02-.76-.46-1.11-.74-2.78-2.18-5.9-2.54-9.23-1.66-1.5.4-2.59,1.2-2.57,2.95,0,.28-.12.56-.34.77Z"/>
      <path class="cls-9" d="m156.12,72.46c-.55.09-1.11.18-1.66.27-.27.04-.48-.08-.67-.24-1.16-1.64-.87-4.42.62-6.11.68-.36,1.46-.28,2.18-.49,2.63-.76,3.99-2.71,3.8-5.61-.08-1.26-.31-2.5-.7-3.73-.49-1.58-1.25-2.82-3.01-3.17-.19-.31-.19-.63-.09-.96.61-.98,1.53-.83,2.46-.7.47.06,1.08.49,1.31-.27.19-.63-.25-1.05-.74-1.42-.91-.66-2-.21-2.96-.54-.43-2.07.08-3.59,1.36-4.22.6-.29,1.16-.39,1.66.17.81.71,1.94.77,2.68,1.78,1.11,1.53,1.42,3.18,1.68,4.93.35,2.37-.42,4.73-.04,7.09-.34.3-.87.32-.85,1.07.1,4.13-2.24,7.26-4.52,10.35-.58.79-1.67,1.2-2.53,1.79Z"/>
      <path class="cls-59" d="m116.39,517.58c-.53-.86-1.27-1.64-1.08-2.78,1.68-1.38,3.78-1.55,5.78-1.84,4.09-.59,8.2-.93,12.33-1.23,4.84-.34,9.62.08,14.42.31,1.23.06,2.55.19,3.58,1.07.85.68,1.43,1.49,1.14,2.66.11.23-.4.5.04.72-.34.32-.72.57-1.17.24-2.27-1.69-4.99-1.3-7.53-1.53-3.71-.34-7.46-.5-11.17-.11-4.27.45-8.6.52-12.79,1.74-1.13.33-2.38.44-3.56.75Z"/>
      <path class="cls-12" d="m152.56,515.78c-.29-.86-.55-1.74-1.22-2.41-.18-1.34-1.95-.86-2.29-2.02.55-.66,2.07-.8,1.2-2.23-.73-1.48-.82-3.2-1.8-4.58-.3-.42-.11-.87.05-1.3,1.7-.56,3.14.53,4.7.83,2.02.39,3.94,1.26,5.94,1.74,1.87.44,2.94,1.38,2.92,3.38,0,.21.17.42.26.63-.37,1.8-1.52,2.64-3.28,3-2.37.48-4.48,1.66-6.5,2.97Z"/>
      <path class="cls-41" d="m148.94,422.47c-.34-3.01.91-3.7,3.34-4.28,3.42-.82,6.68-.24,9.46,2.17.14.12.24.58.62.32.75.92.46,1.91.2,2.89-2.51.77-3.66,2.93-4.97,4.91-1.2.98-2.16-.07-3.21-.37-.89-.6-.97-1.71-1.55-2.54-1.03-1.45-2.23-2.52-3.88-3.1Z"/>
      <path class="cls-46" d="m160.27,557.03c-1.5.35-2.98-.67-4.48-.06-.58-.93-.96-1.97-1.17-3.01-.45-2.25-1.51-4.31-1.88-6.58-.38-1.64-.09-3.43-1.13-4.91.57-.91-.14-1.59-.44-2.32-.18-.45-.34-.89.1-1.24.49-.39.65.33.92.36,1.81.21,3.31,1.88,5.31,1.1.02,3.24,1.3,6.25,1.77,9.41.23,1.55.67,3.08,1.12,4.59.28.93.35,1.79-.12,2.65Z"/>
      <path class="cls-43" d="m207.99,199.72c-.77-1.24-.92-2.84-.42-3.89.68-1.41.79-2.73.74-4.17-.41-1.12-.68-2.26-.5-3.46.79-.38,1.43.18,2.14.34,2.57.58,5.01,1.55,7.48,2.42.63.22.56.83,1,1.07.39,1.57-.07,2.26-1.77,2.91-1.97.75-4.09,1.48-5.71,3.02-.85.8-2.38.49-2.96,1.76Z"/>
      <path class="cls-18" d="m168.6,484.57c.61.02.91-.51,1.37-.76,1.12.85.48,2.02.23,2.84-.61,2.09-1.45,4.13-2.42,6.09-.79,1.59-2.45,2.14-4.1,2.44-.43.08-.57.22-.72.52-1.66.05-1.55-1.63-2.35-2.41.78-.63-.71-.89-.24-1.48,3.97-.76,5.16-4.7,7.85-6.91.13-.11.24-.25.39-.34Z"/>
      <path class="cls-40" d="m166.86,464.95c-.15.43-.21,1.02-.89.51-.46-.34-.99-.62-1.36-1.04-1.85-2.13-4.21-3.06-6.94-3.6-2.19-.43-3.99-.06-5.7,1.23-.13-.96-.91-1.74-.74-2.78,2.34-1.89,4.98-1.91,7.72-1.2.81.21,1.6.59,2.41.63,1.51.08,2.18,1.5,3.43,1.95.11,1.71,1.54,2.79,2.06,4.31Z"/>
      <path class="cls-54" d="m164.07,455.46c-1.05-.06-1.93-.32-2.9-.95-1.69-1.09-3.73-.92-5.58-.09-.62.28-1.21.29-1.83.34-.88.06-1.26-.49-1.41-1.21-.17-.8.24-1.27,1-1.56,3.38-1.3,6.73-2.14,10,.27.15.11.45.03.68.03,1.56,1.3,1.56,1.67.04,3.17Z"/>
      <path class="cls-54" d="m164.04,449.23c-1.16.69-2.21-.09-3.19-.41-2.27-.74-4.46-.25-6.64.11-.84.14-1.43-.05-2.04-.43-.56-.35-.42-.86-.19-1.37.32-.7.83-.58,1.49-.72,1.55-.34,2.98-1.13,4.69-1.09,1.57.04,3.1.26,4.45.98.72.39,1.02.13,1.46-.22-.22,1.05,1.44,2.11-.02,3.15Z"/>
      <path class="cls-1" d="m164.05,444.39c-2.79.39-5.02-2.1-7.9-1.51-.97.2-1.88.68-2.97.55-.67-.08-1.09-.2-1.31-.81-.23-.64.05-1.1.6-1.42,2.28-1.31,5.69-2.51,8.51-.21.79.65,2.19.27,2.63,1.54.15-.09.29-.18.44-.27.62.71.19,1.42,0,2.14Z"/>
      <path class="cls-53" d="m191.59,290.15c-.61-.67-.35-1.39-.14-2.11.77.66.43,1.39.14,2.11Z"/>
      <path class="cls-24" d="m95.49,29.83c-.71-1.55.06-2.97.5-4.37.41-1.31.54-2.83,2.15-3.5.49-.2-.14-.52-.31-.75-1.27-1.85-1.24-2.9.25-4.49.82-.88.89-1.98.76-3.01-.32-2.63,1.28-4.05,2.93-5.72,1.76-1.78,3.94-2.89,6.04-3.88,1.77-.84,3.84-1.5,5.93-1.6.97-.05,1.93-.13,2.9-.22.73-.06,1.26-.34,1.44-1.16.28-1.26,1.55-1.02,2.25-1.04,3.16-.07,6.29-.28,9.49.25,2.27.37,4.26,1.41,6.47,1.81.62.11,1.14.34,1.79.05,3.14-1.41,5.7.03,8.03,1.9,1.17.93,2.13,2.14,3.09,3.32.63.77,1.82.97,2.71,1.58,2.22,1.5,4.14,3.25,5.59,5.5.41.64.94,1.46.35,2.24-.47.62,0,.83.31,1.05,2.03,1.43,3.38,3.42,4.57,5.53.74,1.31,1.12,2.61.13,4.11-1.12,1.71-.46,3.74-.52,5.64-.01.34.1.7-.31.89-1.17-2.48-1.14-2.43-3.58-.98-1.77,1.05-3.42,2.27-5.1,3.45-.51.36-.98.8-1.67.79-.43-.17-.69-.54-.63-.94.23-1.58-.51-2.53-1.8-3.33-.74-.46-1.12-1.34-1.01-2.27.15-1.18-.4-1.84-1.49-1.86-3.17-.07-5.03-2.14-6.83-4.33.2,2.04.22,2.34-2.61,2.78-2.94.46-5.95.08-8.9-.4-1.21-.2-2.18-.54-2.92.99-.45.93-1.63,1.45-2.77,1.55-1.43.13-2.87.36-4.31.15-2.9-.43-5.85-.54-8.67-1.38-.84-.25-1.03-.09-1.24.75-.81,3.31-2.76,6.05-4.65,8.8-.31.45-.7.96-1.4.82.45-2.44-1.21-3.76-2.74-5.13-.95-.86-1.75-1.83-2.54-2.83-.41-.52-.88-1.05-1.68-.75Z"/>
      <path class="cls-28" d="m62.37,70.06c-.73-.94-1.46-1.96-2.57-2.42-2.28-.97-4.51-.29-5.18,3.07-1.56,1.4-3.51,2.16-5.3,3.15-2.77,1.53-5.51,3.16-7.39,5.69-1.08,1.45-1.78,3.41-.38,5.29.3.41.57.88.36,1.44-2.17,1.67-4.7,2.75-7.05,4.12-2.05,1.19-3.64,2.91-5.69,4.09-2.93,1.68-3.67,4.9-4.77,7.87-.77,2.07-2.01,3.95-2.98,5.95-.3.62-1.27.9-.98,1.86.01.04-.42-.27-.68-.33-.44-1.93.6-3.66.74-5.52.21-2.71.75-5.39,1.24-8.07.41-2.26,1.01-4.49,1.41-6.75.09-.53.75-.55.66-1.09.08-.6.35-1.14.46-1.73.46-3.68,2.71-6.39,5.3-8.66,1.83-1.6,4.04-2.85,6.28-3.97,1.79-.89,3.5-2.05,5.38-2.67,3.29-1.09,6.41-2.58,9.63-3.8,2.9-1.1,5.88-2.03,8.7-3.39.83-.4,1.79-.59,2.71-.76,1.11-.21,1.66-1.14,1.57-1.93-.26-2.34.67-4.46.9-6.7.17-1.67.53-3.33.78-5,.15-1.01,1.84-2.23,2.88-2.01.25.06.41-.04.63-.13,2.41-.98,5.01-1.3,7.5-.96,1.77.24,3.58,1.23,5.02,2.34.81.63.88,2.21,1.34,3.33.75,1.81,1.71,3.52,2.33,5.4.34,1.03,1.31,1.75,2.62,1.6.89-.11,1.66.25,2.34.81.56-.09.9.27,1.09.68,1.12,2.37,2.69,4.47,4.04,6.7-.78,1.34-1.83,2.38-3.26,3.02-2.41.74-4.9,1.12-7.31,1.84-.38.11-.8.09-1.18.24-3.47,1.3-7.15,1.93-10.62,3.19-1.45.53-2.81,1.28-4.42,1.12-1.41-.48-1.32-1.95-1.75-2.97-.59-1.37-1.27-2.34-2.72-2.78-.63-.19-1.33-.45-1.67-1.14Z"/>
      <path class="cls-29" d="m151.7,37.09c2.29-1.62,4.48-3.38,6.93-4.76.83-.46,1.55-1.54,2.57-1.02.97.49.78,1.68.81,2.64-.07,3.11-.24,6.19-1.16,9.2-.26.85-.5,1.66-1.15,2.29-1.59-.17-2.33.48-2.76,2.28-.15.62-.16,1.23-.15,1.85.43.92.37,1.85.04,2.78.02.34.03.67.05,1.01.35.46.38.98.3,1.52-.43,2.24-.38,4.56-1.13,6.74-.38,1.09-.87,2.11-2.33,1.29-1.05-1.47-.85-3.28-.78-4.83.09-1.93-.25-3.85.12-5.8.25-1.32.04-2.73.56-4.05.28-.71.17-1.41-.24-2.14-1.44-2.5-1.59-5.36-2.08-8.12-.06-.33.05-.69.4-.88Z"/>
      <path class="cls-9" d="m95.09,67.61c-1.52-1.84-2.83-3.8-3.76-6.01-.23-.54-.76-.96-1.15-1.43.46-1.48.14-2.87-.46-4.25-.21-.49-.32-1.06-.33-1.6-.04-3.02-.44-6.1.68-9,.44-1.13,1.23-2.31,2.48-2.75.68-.24,1.29-.58,1.94-.86,1.21.43,2.49.59,3.55,1.48,1.48,1.25,1.78,2.5.76,4.31-.6.24-.77-.35-1.12-.59-1.57-1.09-3.76-.88-4.66.45-.24.35-.47.76-.16,1.11.41.47.73,0,.96-.28,1.09-1.35,2.14-.6,3.18.05.57.36.95.87.84,1.58-.12.74-.77.52-1.25.61-1.37.26-2.4,1.77-2.59,3.47-.46,4.17,1.1,7.3,4.68,9.44.4,2.01.64,4.01-.58,5.87-.24.09-.48.09-.73.04-.81-.47-1.89-.55-2.28-1.62Z"/>
      <path class="cls-29" d="m98.62,47.5c1.14-2.56-.1-3.83-2.52-5-.54-.26-1.25-.18-1.62-.79.37-.16,1.01.29.86-.81-.5-3.68-.5-7.39.15-11.07.78-.86,1.7-.2,1.95.27.88,1.68,2.37,2.74,3.64,4.01,1.28,1.27,2.5,2.49,1.46,4.49-.82,3.52-.31,7.09-.39,10.63-.04,2.07-.3,4.11-.5,6.15-.13,1.35.37,2.77-.35,4.07-.43.78-.63,1.82-1.91,1.51-.43-.25-.84-.55-1.16-.94-.36-2.71-.21-5.41.09-8.11.45-1.45-.64-3.01.3-4.43Z"/>
      <path class="cls-19" d="m24.27,86.66c.75.82,0,1.24-.46,1.73-.44-.74-.26-1.31.46-1.73Z"/>
      <path class="cls-68" d="m17.02,174.15c-.61-.4-1-1.13-1.96-.96-.49.09-.81-.3-.6-.88,1.95-.78,3.13-2.38,4.39-3.95,1.33-1.66,2.39-3.56,4.14-4.85.32-.24.63-.43.74-.89.46-1.95,2.13-2.93,3.42-4.21.95-.94,2.03-1.94,2.69-2.95,1.58-2.4,3.66-4.3,5.5-6.43-.62,2-.83,4.1-1.74,6.05-.84,1.78-1.26,3.75-1.88,5.62-1.6,4.81-3.2,9.62-4.83,14.42-.19.56-.6,1.06-.9,1.58-.33.86-.99.71-1.56.42-2.38-1.23-4.85-2.22-7.41-2.98Z"/>
      <path class="cls-56" d="m41.91,86.28c-1.23-1.72-1.89-3.4-1.07-5.66.44-1.22,1.23-2.01,1.98-2.79,1.62-1.7,3.65-3.16,5.63-4.19,1.98-1.03,3.9-2.43,6.16-2.94-.61,1.58-1.09,3.23-1.88,4.72-.35.67-.46,1.21-.38,1.88-.31.61-.84.91-1.48,1.06-1.66.8-3.24,1.76-4.68,2.89-1.61,1.26-2.3,3.13-2.77,5.04-.17.68-.4.52-.79.38-.13-.35-.44-.34-.73-.39Z"/>
      <path class="cls-69" d="m45.69,118.21c-.69,1.18.03,2.88-1.4,3.78-2.28-3.05-4.01-6.43-5.95-9.69-1.46-2.44-2.61-5.06-3.66-7.62-1.08-2.63-2.44-5.2-3.12-8-.13-.54-.02-1.13.45-1.39.44-.24.88.16,1.17.51,1.17,1.43,2.02,3.12,2.57,4.8.62,1.88,1.71,3.48,2.43,5.28,1.69,4.22,4.35,7.91,6.51,11.88.26.47.62.43,1.01.46Z"/>
      <path class="cls-40" d="m162.71,570.52c.5.08,1.02.3,1.5.23.98-.15,1.61.13,1.59,1.16-.01.81-.2,1.24-1.29,1.66-1.12.43-2.19-.24-3.32.59-2.57,1.89-2.7,4.67-3.04,7.31-.09.72-.85,1.77.05,2.57-1.03.42-2.06-.05-3.1.02.99-1.97-.12-4.05.38-6.1.66-2.72,2.84-6.45,5.9-7.61.51-.19.87.24,1.32.17Z"/>
      <path class="cls-68" d="m163.74,215.97c-1.07,2.28-1.08,4.96-2.69,7.06-.3.39-.26,1.04-.38,1.57-1.43,1.95-3.72,2.71-5.56,4.09-2.52,1.9-5.27,3.42-7.97,5-2.22,1.3-4.64,2.45-7.26,2.89-.25.04-.47-.06-.72.19-1.65,1.6-4.03,1.43-5.96,2.45-2.25,1.19-4.83,1.53-7.22,2.38-.93.33-1.85.68-2.85.34-.22-.06-.44-.13-.68-.05-2.07.68-2.16.7-2.52-1.33-.58-3.29-.59-6.63-.88-9.95-.24-2.8-.46-5.61-.87-8.39-.19-1.29.04-2.53.1-3.79.04-.91.3-2.2-.86-2.3-1.11-.09-1.17,1.28-1.22,2.11-.2,3.28.27,6.54.45,9.81.16,2.98.73,5.93.61,8.94-.06,1.48.2,2.98.25,4.47.02.45.19.92-.21,1.31-.7.39-1.37.11-2.04-.08-.49-.19-1.03-.28-1.4-.7-.85.15-1.5-.85-2.39-.43-4.01-1-6.82-3.81-9.87-6.34-3.88-3.21-7.19-6.96-10.56-10.63-3.11-3.38-5.94-6.99-8.57-10.78-1.54-2.21-3.24-4.33-4.57-6.67-2.14-3.78-4.83-7.3-5.8-11.66-.04-.17-.08-.34-.18-.49-.4-.61-.71-1.62-1.56-1.34-.99.33-.39,1.28-.22,1.94.65,2.54,2.11,4.73,3.24,7.05,1.53,3.15,3.1,6.31,5.28,9.1,3.46,4.45,6.29,9.37,10.07,13.57,3.69,4.09,7.64,7.93,11.57,11.79.59.58,1.83,1.18.44,2.23-3.55-1.65-7.43-2.46-10.94-4.21-1.19-.59-2.39-1.17-3.58-1.75-.65.09-1.26,0-1.8-.4-1.44-.49-2.78-1.33-4.09-1.9-1.35-.58-2.93-1.2-4-1.99-1.18-.87-3.75-.87-3.29-3.42-1.42-4.44-2.2-9.02-3.21-13.56-.7-3.14-1.29-6.31-2.07-9.44-.66-2.66-1.11-5.42-1.65-8.13-.24-1.2-.66-2.36-1-3.54-.47-1.99.25-3.91.3-5.87.05-1.8.24-3.61.51-5.38.3-1.95.72-3.89.98-5.85.32-2.38.42-4.79.96-7.14.24-.48.61-.94.3-1.53-.36-1.29-.4-2.5.78-3.43.92.25,1.45.93,1.77,1.75,1.72,4.44,4,8.61,6.15,12.84,1.31,2.57,3.15,4.87,4.2,7.52,1.56,3.94,4.39,7.15,5.96,11.06.97,2.43,2.56,4.48,4.8,5.93.44.38.48.9.46,1.43-.3,6.71.98,13.14,3.32,19.41.71,1.89,1.35,3.79,2.37,5.55.95,1.64,2.07,3.04,3.95,3.64,2.47.78,4.6,2.37,7.18,2.9,1.02.21,1.56.11,2.06-.88,1.29-2.58,2.09-5.36,3.28-7.98.35-.77.39-1.57-.4-2.19-.22-.18-.41-.47-.4-.75.08-2.03-1.34-3.47-2.01-5.2-.36-.94-1.11-1.81-.59-2.93,1.61.06,3.07.59,4.42,1.65.46-1.4.08-2.65.05-3.89-.02-.83-.67-.59-1.16-.57-1.31.06-2.57.71-3.92.31-1.01-1.03-1.08-2.19-.48-3.44.8-.58.91-1.46.89-2.32-.04-2.47.26-4.93.29-7.4.01-1.26-.08-2.17-1.6-2.18-.22,0-.4-.21-.54-.39-.24-.93-.05-1.88-.15-2.82-.07-.66.21-1.09.98-.94.22.07-.05-.02.16.06,3.57,1.23,3.98.85,4.46-2.8.51-3.97,1.07-7.95,1.77-11.9.6-3.36.93-6.76,1.55-10.13.36-1.92.68-3.96.36-5.98-.11-1.1.54-1.91,1.03-2.79.76-.79,1.32-1.67,1.47-2.79.12-.89.54-1.48,1.57-1.31.18,2.77-.76,5.46-.55,8.26.14,1.86-.51,3.7-.67,5.58-.28,3.4-1.05,6.73-1.38,10.14-.28,2.94-1,5.84-1.43,8.77-.2,1.37-.6,2.73-.47,4.15.08.9.21,1.26,1.24.72.99-.51,2.05-1.01,3.29-.87.86.1,1.75.25,1.88,1.17.11.84-.76,1.45-1.4,1.67-2.54.85-5,1.9-7.75,2.11-1.69.13-1.07,1.98-.84,2.64.69,1.93-.18,3.77.12,5.62.03.16-.06.34-.08.51-.37,2.55.51,3.44,2.59,2.15,3.05-1.89,6.49-3,9.25-5.61,1.99-1.88,4.32-3.54,6.26-5.51,2.67-2.71,5.16-5.61,7.58-8.55,2.74-3.32,5.05-6.96,7.4-10.56.28-.43.6-.9,1.22-.82.86.11.49.91.7,1.39.1.23.06.61-.07.83-1.63,2.93-2.63,6.2-5.05,8.72-1.4,1.46-2.84,3-3.69,4.92-.02.05-.06.11-.1.14-2.56,1.68-4.1,4.39-6.34,6.41-1.64,1.48-3.22,3.03-4.9,4.48-2.77,2.38-5.7,4.5-9.06,5.95-1.04.45-1.19,1.17-1.03,2.05.21,1.12.45,2.21.2,3.37-.25,1.12.48,1.66,1.44,1.67.95,0,1.94-.15,2.85-.43,2.78-.85,5.58-1.64,8.32-2.53,1.66-.54,3.43-1.18,5.11-1.86,2.47-.99,5.02-1.82,7.55-2.66,1.85-.61,3.73-1.23,5.49-2.16,1.97-1.04,4.07-1.87,6.18-2.57.74-.24,1.39-.48,1.92-1,1.76-1.73,4.19-2.49,6.01-4.15.58-.53,1.44-.15,2.17-.12.45,2.19-.62,4.11-1.13,6.12-.07.26-.38.5-.34.78.49,2.97-1.6,5.6-1.12,8.6.11.69.29,1.46.17,2.21Z"/>
      <path class="cls-12" d="m113.88,242.01c.54-.17.99.03,1.41.34.97.53.98,1.52,1.08,2.41.79,6.62,2.23,13.14,3.18,19.74.37,2.55.47,5.15,1.1,7.67.1.41-.01,1.07.59,1.09.55.02.89-.47,1.13-.95.34-.7.36-1.44.26-2.2-.91-7.08-1.79-14.16-2.76-21.23-.27-1.95-1.06-3.92-.3-5.95.78-.81,2.03-.36,2.84-1.09,1.08,1.98,1.14,4.19,1.27,6.34.22,3.46,1.15,6.82,1.36,10.27.26,4.43,1.45,8.74,1.59,13.19.07,2.22-.84,3.71-2.98,4.52-2.24.85-1.89.84-1.74,3.28.26,4.02,1.97,7.69,2.26,11.69.11,1.45,1.75,2.26,3.01,3.03,2.42,1.47,4.5,3.38,6.69,5.16.37.3.54.74.71,1.17-.53,2-1.57,3.78-2.44,5.63-.2.43-.26.85-.36,1.29-.47,2.08-1.85,3.78-2.42,5.82-.66,2.38-2.21,4.39-2.74,6.81-.33,1.5-1.7,2.54-1.75,4.15-.81-.13-.75-.75-.74-1.33.05-2.23.09-4.5-.05-6.67-.2-3.3.09-6.63-.38-9.9-.33-2.31-.06-4.58-.05-6.87,0-1.97-.44-3.62-2.24-4.74-.54-.34-1.17-.77-1.3-1.54-.24-.31-.43-.81-.74-.91-3.24-1.09-5.35-3.78-8.1-5.57-2.89-1.88-5.78-3.77-8.67-5.66-.81-.53-1.21-1.29-.98-2.21.2-.78,1.05-.88,1.69-1.01.77-.15,1.53.54,1.89.89,1.84,1.75,4.2,2.78,5.99,4.63.94.97,2.75,1.11,3.61,2.35,1.05,1.52,3.33,1.38,4.11,3.25.2.48.88.43,1.49.2-1.37-4.42-1.86-9.02-2.67-13.56-.85-4.78-1.65-9.57-2.28-14.38-.52-3.9-1.4-7.74-1.87-11.66-.2-1.69-.18-3.49-.86-5.16-.39-.96-.19-2.01,1.12-2.34Z"/>
      <path class="cls-68" d="m148.52,503.23c.18,1.54,1.36,2.71,1.55,4.26.07.55.29,1.09.44,1.64-.98.43-1.72-.38-2.51-.63-4.82-1.55-9.72-1.72-14.73-1.54-2.47.09-4.92.27-7.36.58-2.51.32-4.95.86-7.39,1.57-1.41.41-2.85.76-4.29,1.12-.47-.11-1.07.25-1.39-.35-1.04-1.95-2.23-3.83-2.21-6.17,0-.66.5-.81.83-1.15,1.14-.73,2.38-1.34,3.58-1.85,1.34-.58,2.79-1.04,4.2-1.47,1.38-.42,2.53-1.39,3.83-1.67,1.88-.41,3.95-1.45,5.57-1.2,3.25.51,6.58.96,9.78,2.11,2.55.92,4.9,2.09,7.3,3.27.95.47,1.73,1.26,2.8,1.49Z"/>
      <path class="cls-12" d="m159.54,490.12c-2.19-1.61-3.78-3.84-5.46-5.89-4.29-5.23-8.25-10.72-12.4-16.06-1.13-1.46-2.71-2.59-3.71-4.12-2.07-3.18-4.77-5.87-7.25-8.63-3.04-3.36-5.5-7.08-8.21-10.63-.74-.97-1.23-2.09-.73-3.35.24-.6.6-1.2,1.34-1.18.7.02,1.06.5,1.29,1.18,1.51,4.35,4.85,7.44,7.58,10.96,3.08,3.98,7.88,5.13,11.92,7.54,1.04.62,1.98,1.23,2.85,2.11,1.03,1.05,2.64,1.37,3.77,2.48.65.64,1.22,1.58,2.32,1.66.82.06.71.78.85,1.28.43,1.53.34,3.19.98,4.66,1.01,2.33.77,4.99,1.98,7.25.46.85.25,1.81.48,2.69.5,1.94.91,3.92,2.23,5.56.58.72.97,1.6.17,2.48Z"/>
      <path class="cls-71" d="m159.54,490.12c.06-1-.29-1.78-.83-2.67-1.2-1.98-2.08-4.14-2.06-6.55,0-.11.02-.25-.03-.33-1.38-2.4-1.27-5.21-2.14-7.76-.59-1.72-.82-3.56-1.22-5.34-.1-.43,0-.93-.41-1.26.09-1.35-.94-2.45-.83-3.8,2.47,2.99,4.94,5.96,7.15,9.15,1.55,2.24,3.45,4.24,4.98,6.49,1.47,2.18,3.48,4.01,4.45,6.53-.02.23.04.57-.08.66-2.25,1.75-3.45,4.43-5.73,6.2-.95.73-1.72-.17-2.43.39-.41-.5-.19-1.31-.82-1.7Z"/>
      <path class="cls-20" d="m100.74,239.34c.62-.77.11-1.15-.45-1.69-1.91-1.85-3.88-3.62-5.61-5.68-.83-.99-2.23-1.87-3.14-2.82-1.39-1.46-2.81-2.97-4.1-4.57-2.28-2.82-4.51-5.73-6.47-8.74-2.43-3.73-5.31-7.18-7.12-11.37-1.36-3.15-3.18-6.11-4.33-9.39-.29-.83-.3-1.63.38-1.99.79-.42,1.33.29,1.95.88.95.91.76,2.1,1.09,3.11.6,1.87,1.66,3.46,2.54,5.14,1.57,2.97,3.03,6.09,5.15,8.64,2.03,2.43,3.64,5.13,5.67,7.54,2.36,2.79,4.79,5.52,7.15,8.31,1.93,2.28,4.02,4.48,6.2,6.41,2.63,2.33,5.25,4.78,8.23,6.74,1.12.73,2.71.49,3.6,1.73-1.16.41-2.09-.48-3.16-.57-2.28-.27-4.54-.67-6.72-1.42,0,0-.04.39-.33.27,0,0-.06,0-.06,0-.16-.17-.31-.35-.47-.52Z"/>
      <path class="cls-12" d="m125.2,339.06c.25-1.91,2.18-2.62,2.99-4.14.13-.25.41-.45.57-.77.26-.53-.25-1.46.6-1.55.28-.03.58.91.99,1.28,1.89,1.7.51,3.39.03,5.08-.62,2.18-.88,4.48-1.57,6.59-.57,1.75-.31,3.66-1.3,5.3-.61,1.02-.06,2.51-1.2,3.38-.92-.47-.55-1.37-.67-2.1-.6-.11-.87-.45-.83-1.08.06-1.03-.27-2.08-.23-3.05.12-2.69-.02-5.37.13-8.05.02-.36.28-.62.49-.89Z"/>
      <path class="cls-23" d="m101.26,239.86c.48-.8,1.67-.51,1.88-.4,1.63.9,3.59.62,5.18,1.55-2.48.41-4.88.35-7.06-1.15Z"/>
      <path class="cls-46" d="m68.54,76.66c2.15-.15,3.97-1.55,5.98-1.84,2.36-.34,4.45-1.35,6.71-1.9,3.61-.87,7.17-1.99,10.83-2.67.87,1.26-.3,2.13-.79,2.91-.96,1.5-1.28,3.03-1.67,4.74-.68,2.97-.71,5.95-.92,8.92-.32,4.47-.67,8.95-.91,13.43-.25,4.65-.5,9.3-.68,13.95-.13,3.22-.14,6.44,0,9.66.1,2.28,1.05,3.28,3.15,2.66,1.77-.52,3.4-.22,5.1-.1,4.35.32,8.7.76,13.04,1.2,1.09.59,1.5,1.75,2.25,2.63.13.26.28.54.26.82-.26,3.45,1.79,6.09,3.13,8.97,1.14,2.45,2.83,4.65,3.21,7.42-.09,1.82-1.23,3.3-1.66,5-1.87,3.48-4.64,6.3-6.88,9.5-2.73,3.91-5.54,7.75-7.84,11.96-.87,1.59-2.23,2.97-2.7,4.76-.57,2.19-2.08,3.95-2.61,6.14-.83,1.39-1.16,1.51-2.35.57-5.33-4.25-9.97-9.14-14-14.66-2.47-3.39-4.54-7.03-6.84-10.52-.51-.77-.9-1.61-1.28-2.45-.07-.16-.19-.34-.15-.49.76-2.74.63-5.64,1.41-8.38.08-.28.21-.55.21-.83-.09-3.68.65-7.29.84-10.94.16-3.06.6-6.1.59-9.16-.02-4.93.05-9.87-.13-14.81-.15-4.06-.31-8.13-.11-12.19.01-.29.07-.57.28-.79.63-3.27.16-6.41-1.25-9.39-.98-2.08-1.14-4.35-1.77-6.51-.11-.37-.27-.62-.64-.72-1.02-2.19-1.77-4.44-1.8-6.88Z"/>
      <path class="cls-71" d="m74,100.17c.32,2.83-.21,5.69.11,8.48.32,2.86-.33,5.72.38,8.56.2.8-.16,1.73-.15,2.6.03,3.24.49,6.53.05,9.69-.33,2.38-.39,4.77-.55,7.12-.24,3.68-1.01,7.31-.86,11.01.03.7-.24,1.32-.46,1.97-.25.73-.61,1.43-.31,2.33.56,1.67-1.01,3.01-.94,4.68.01.31.14.73,0,1.09.22,1.12-.65,1.74-1.16,2.52-.55.43-.7,1.13-1.09,1.67-.64,1.08-1.02,2.2-.47,3.45-.83.27-.63.84-.42,1.42-.24,2.18-.43,4.36-.74,6.53-.19,1.36-.41,2.72-.19,4.09.07.46-.22.51-.45.75-.33.33-.83.85-.56,1.31.98,1.71-.27,3.35-.22,5.06.07,2.03-.31,4.36-.85,6.49-.11.87-.87,1.7-.16,2.64.1.14.06.48-.04.65-1.63,2.69-1.55,5.7-1.62,8.67-.02.74-.85.92-.93,1.57-.83-1.1-.49-2.49-.36-3.54.44-3.72.3-7.47.63-11.17.22-2.42.15-4.89.78-7.34.34-1.31.24-2.91.32-4.38.23-4.69.39-9.4.93-14.07.25-2.15.7-4.37.79-6.47.11-2.76.45-5.52.5-8.29.04-2.44.02-4.91.46-7.35.28-1.59.04-3.28.34-4.86.5-2.7-.15-5.39.3-8.11.39-2.37.12-4.84.13-7.27.01-2.16.02-4.32,0-6.48,0-.61.24-1.09.48-1.62,1.01-2.24,1.79-4.57,2.53-6.92.4-1.28.89-2.56,1.54-3.72.74-1.32,1.01-2.77,1.44-4.17.72.2.39,1.03.83,1.39Z"/>
      <path class="cls-9" d="m17.95,209.41c-.6-.39-.56-.99-.54-1.59.13-4.5-.05-8.99-.3-13.48-.16-2.9.12-5.83-.12-8.73-.2-2.34-.09-4.67-.18-7-.03-.86.24-1.67.19-2.51.68-.18,1.17.26,1.45.7,1.06,1.71,2.66,2.97,3.68,4.74.66,1.14,1.83,2,2.48,3.22-.6,1.93-1.36,3.83-1.75,5.81-.36,1.84-1.18,3.52-1.56,5.38-.48,2.36-1.08,4.75-1.75,7.09-.61,2.1-1.07,4.25-1.6,6.37Z"/>
      <path class="cls-45" d="m24.6,184.76c-1.2-1.03-2.23-2.19-3.18-3.49-1.33-1.83-2.56-3.79-4.44-5.17.24-.65.14-1.3.03-1.95,2.67-.25,4.72,1.37,6.98,2.36.67.29,1.25.83,1.99.21.5.02.94.1.67.79-.93,2.35-.9,4.97-2.05,7.26Z"/>
      <path class="cls-22" d="m68.54,76.66c.6,2.29,1.2,4.59,1.8,6.88-1.67-1.17-3.36-2.28-3.88-4.48-.2-.87-.34-1.82-1.03-2.51-.82-.4-1.39-1.23-2.48-1.18-.58.03-.97-.5-.66-1.2.66-1.36.56-2.73.08-4.12,1.23.26,2.18,1.17,3.45,1.4.67.12.7,1.02.98,1.58.6,1.19.83,2.57,1.73,3.61Z"/>
      <path class="cls-3" d="m50.89,78.36c.29-.63.9-.82,1.48-1.06,1.19.21,1.17,1.18.81,1.85-1.28,2.4-1.23,5.26-2.87,7.56-.68.96-1.52,1.14-2.22,1.01-1.06-.2-.79-1.32-.5-2.01,1.04-2.48,2.19-4.91,3.3-7.36Z"/>
      <path class="cls-10" d="m62.29,74.18c.1.45.26,1.07.78.88,1.5-.52,1.83.61,2.36,1.5-1,.61-1.34,1.78-1.71,2.69-.66,1.61-2.02,1.35-2.74.97-.73-.39-1.22-1.51-.48-2.77.62-1.05,1.3-2.12,1.79-3.26Z"/>
      <path class="cls-67" d="m151.61,542.48c1.03.82,1.59,1.8,1.32,3.19-.1.52.06,1.09.1,1.64,0,2.49-1,4.62-2.45,6.57-1.21.73-1.79,2.2-3.15,2.76-2.05.74-3.93-.08-5.83-.65-.53.15-.9-.17-1.19-.51-1.67-1.97-3.83-3.52-5.01-5.89-.23-.46-.61-.66-1.02-.87.72-.99.99-2.03.27-3.14.11-.96-.3-2.05.72-2.77.78-1.21,1.71-1.25,2.77-.37.72.48,1.47.93,1.76,1.83,1.63,1.26,1.96,3.31,3.01,4.93.43.66.68,1.45,1.35,2.17,1.22-2.23,2.21-4.5,3.02-6.85.67-.69,1.13-1.64,2.27-1.69.72.1,1.31-.6,2.06-.35Z"/>
      <path class="cls-36" d="m136.41,559.41c.14-.1.27-.21.41-.31,2.14.66,2.81,2.77,4.14,4.22.91.68,1.67,1.46,1.67,2.71,2.05,3.95,3.16,8.15,3.29,12.59.02.68.42,1.18.5,1.8.13.99-.28,1.68-1.17,2.01-.91.33-1.07-.48-1.44-1.05-.37-.56-.59-1.16-.59-1.77.02-2.47-.78-4.81-1.08-7.23-.21-1.73-1.49-3.29-2.06-5.04-.75-2.31-2.7-3.92-3.69-6.12-.3-.67-.1-1.22.01-1.82Z"/>
      <path class="cls-61" d="m144.57,558.17c2.17.57,4.18,1.03,5.77,2.53.67.62.79,1.34.2,1.97-.51.55-1.13.76-1.97.19-1.7-1.16-3.61-1.87-5.73-1.37-1.06.25-1.67-.61-2.5-.9-.19-.07-.53-.58-.19-.89.4-.35.29-1.13,1.13-1.12,1.15,0,2.32.18,3.3-.4Z"/>
      <path class="cls-1" d="m142.63,566.03c-.56-.9-1.11-1.81-1.67-2.71,2-.57,3.75-.26,5.55.96.81.55,1.97.67,2.77,1.49.5.51.74,1.04.54,1.68-.21.7-.35,1.41-1.49.79-1.44-.79-3.21-.91-4.42-2.18-.44-.46-.85,0-1.27-.03Z"/>
      <path class="cls-6" d="m134.37,548.72c.42.15.96-.74,1.28.14,1.12,3.1,3.91,4.8,5.94,7.14-.81.45-1.61.9-2.42,1.35-1.04-2.35-2.42-4.51-4-6.52-.53-.68-.39-1.47-.8-2.11Z"/>
      <path class="cls-46" d="m138.13,542.45c-.99-.37-1.93-.39-2.77.36-1.19-1.93-1.72-4.23-2.97-6.04-1.29-1.86-1.85-4.01-2.99-5.9-.15-.25-.96-.55-.22-.99.41-.25.72-.4,1.42-.11,3.11,1.3,3.8,4.27,5.11,6.81.97,1.88,1.83,3.82,2.43,5.86Z"/>
      <path class="cls-55" d="m147.45,544.58c.04,1.89-1.12,3.39-1.77,5.03-.37.92-.94,1.79-1.2,3.1-1.85-2.87-3.09-5.73-4.58-8.44.34-.14.67-.28,1.01-.43.95-.85,2-.89,3.12-.4.69.14,1.38.28,2.07.43.81-.45,1.14.02,1.36.71Z"/>
      <path class="cls-11" d="m144.01,543.44c-1.04.13-2.08.27-3.12.4-.35-2.64-1.81-4.86-2.79-7.26-.38-.93-1.01-1.75-1.25-2.76-.1-.4-.77-.79-.25-1.16.33-.24.86.01,1.37.21,3.22,1.23,3.37,4.48,4.54,6.95.54,1.14,1.9,2.07,1.51,3.62Z"/>
      <path class="cls-46" d="m147.45,544.58c-.48-.18-.77-.73-1.36-.71.44-1.42-.72-2.39-1.05-3.6-.37-1.36-1.1-2.63-1.66-3.94-.1-.24-.35-.51-.02-.76.38-.3.59-.1.82.24.63.93,1.76.72,2.64,1.02.68.23,1.17.51,1.34,1.15.43,1.63,1.43,3.1,1.39,4.86-.7.59-1.4,1.17-2.1,1.75Z"/>
      <path class="cls-47" d="m84.42,232.98c.59.16,1.31-.26,1.8.4-.82.86-1.32.3-1.8-.4Z"/>
      <path class="cls-63" d="m114.24,510.22c1.85-1.63,4.32-1.64,6.51-2.21,2.78-.72,5.7-1.1,8.6-1.35.73-.06,1.45.04,2.16-.07,3.1-.49,6.22-.19,9.3,0,2.87.18,5.73.84,8.52,1.64.52.15.55.92,1.19.88.71,2.2.64,2.31-1.31,2.13-.41.4-.88.2-1.3.07-3.42-1.04-6.99-1.16-10.5-1.63-2.09-.28-4.25.11-6.36.3-2.96.27-5.96.42-8.87,1.21-2.16.59-4.21,1.53-6.46,1.82-.38.05-.77.32-1.14-.03-1.64-1.38-1.71-1.87-.35-2.49.04-.02.07-.09.07-.14,0-.05-.05-.1-.08-.14Z"/>
      <path class="cls-68" d="m114.6,513c4.77-1.42,9.47-3.02,14.54-3.23,2.41-.1,4.85-.23,7.26-.54,1.59-.2,3.13.3,4.7.4,2.74.18,5.47.79,8.11,1.63.32.46.8.56,1.31.67.77.17,1.26.56.82,1.44-2.09-1.01-4.38-.96-6.61-1.12-3.1-.23-6.24-.51-9.32-.27-2.24.17-4.49.24-6.73.51-3.12.38-6.26.6-9.35,1.26-1.36.29-2.69.69-4.03,1.05-.6-.45-1.1-.95-.71-1.8Z"/>
      <path class="cls-68" d="m161.3,193.42c-1.05-.99-1.05-2.33-.8-3.52.3-1.44.49-2.95.59-4.34.15-2.01.62-4.03.5-6.03-.08-1.26.35-2.37.49-3.54.61-4.98,1.34-9.94,1.78-14.94.38-4.28,1.11-8.52,1.52-12.8.1-1.11.18-2.19.4-3.29.21-1.07,0-2.11-.69-3.11-1.06-1.53-1.82-3.21-2.08-5.11-.09-.65-.09-1.22.45-1.46.48-.21,1.19-.32,1.59.25.65.94,1.52,1.71,1.99,2.8,1.17,2.75,2.46,5.45,3.57,8.22,1.44,3.57,3.36,6.91,4.83,10.48,1.69,4.08,3.48,8.15,5.42,12.11,1.29,2.64,2.52,5.23,3.1,8.14.21,1.08-.15,1.61-.91,2.1-1.02.65-1.65,1.74-2.73,2.36-.5.29.06.49.37.59.1.24.04.49-.15.61-3.38,2.29-6.41,5.1-10.1,6.92-.26.13-.55.16-.83.21-2.48.83-4.85,1.99-7.38,2.69-.42.12-.31.92-.95.66Z"/>
      <path class="cls-48" d="m117,147.34c-.93-2.64-2.27-5.07-3.58-7.53-.98-1.83-1.89-3.71-2.71-5.62-.53-1.22.06-2.58-.23-3.86,1.07-1.49,2.6-2.1,4.35-2.3.54,0,1.07.02,1.61.05,1.99.54,3.98.64,5.96-.05,2.92.01,4.73-1.88,6.63-3.72,1.38-1.34,3.18-2.02,5.03-2.5.41-.11.95-.18.98.54-.47,2.01-2.08,3.32-3.19,4.92-.75,1.07-1.14,2.52-2.45,3.19.23.19.46.39.69.58.13,1.57-.37,3.01-1.04,4.37-1.24,2.56-1.88,5.33-2.89,7.97-.28.73-.84,1.04-1.24,1.52-.61.74-1.03,1.47-1.05,2.42-1.62.77-3.1-.23-4.64-.39-.84-.09-1.56-.16-2.23.4Z"/>
      <path class="cls-17" d="m169.67,189.65c2.5-1.12,4.75-2.6,6.87-4.35,1.31-1.09,2.78-1.99,4.17-2.97,2.83-1.02,5.55-1.85,8.75-.97,2.49.69,5.16,1.09,7.59,1.91,2.64.89,5.68.48,7.93,2.28.98.79,2.37,1.27,2.84,2.65.66,1.08.53,2.28.5,3.46-2.63.01-5.27.03-7.9.03-1.25,0-2.51-.1-3.75,0-1.5.11-2.91-.07-4.37-.44-.27-.07-1.43-.03-2.13.28-1,.44-2.02.64-2.94-.23-1.55,1.67-3.47-1.54-5.13.42-.41.49-1.56.19-2.39-.07-1.65-.52-3.41-.02-5.06-.03-1.84-.02-3.3-.85-4.98-.99-.67-.33-.63-.65,0-.98Z"/>
      <path class="cls-4" d="m163.74,215.97c-1.26-1.45-.44-3.19-.47-4.75-.02-.99.23-2.19.77-3.23.36-.69.6-1.42.17-2.38-.53-1.19.91-2.09,1.06-3.39.15-1.27.44-2.66.88-3.95.81-.69-.01-1.39,0-2.09,1.95.09,3.78.68,5.58,1.38,1.65,1.25,1.95,2.9.75,4.72-.98,1.48-2.16,2.84-3.11,4.34-1.4,2.22-3.2,4.15-4.48,6.46-.52.93-.01,2.25-1.17,2.89Z"/>
      <path class="cls-12" d="m117,147.34c.02-1.12.63-1.27,1.58-1.06,1.76.39,3.53.7,5.29,1.05-.45,2.32-.71,4.7-1.68,6.89-.6.35-1.16.53-1.19,1.55-.03.98-.46,2.1-1.55,2.65-.36.15-.83.1-.95-.18-.75-1.77-2.48-2.84-3.24-4.59-.17-.38-.28-.76.02-1.14.24-1.84,1.3-3.4,1.72-5.17Z"/>
      <path class="cls-5" d="m171.75,197.56c-1.99.08-3.74-.85-5.58-1.38-1.39-.66-3.07-.64-4.27-1.78-.3-.29-.56-.56-.59-.98.6-1.04,1.76-1.56,2.69-1.76,2.01-.42,3.66-1.73,5.68-2.01-.34.32-.14.65,0,.98-.91.74-.31,1.88,0,2.26.65.81.82,1.79,1.36,2.61.03.29-.69.68.08.85.73.17.55.74.64,1.21Z"/>
      <path class="cls-73" d="m155.78,416.61c-.86.58-1.86-.04-2.75.32-.45-1.99.41-3.84.62-5.75.35-3.27,1.81-6.38,1.44-9.75-.08-.69.33-1.17.45-1.76.75-3.67.78-7.43,1.4-11.09.59-3.51.99-7.03,1.35-10.56.4-3.88.61-7.77.99-11.65.21-2.09-.13-4.27.15-6.38.52-3.86-.11-7.71,0-11.57.12-4.24.4-8.5-.18-12.73-.48-3.52.23-7.06-.26-10.58-.08-.59.21-1.23.25-1.86.05-.69.2-1.36.98-1.36.71,0,1.11.57,1.17,1.28.11,1.41.24,2.82.3,4.24.18,4.86.27,9.73.54,14.58.15,2.7-.41,5.41.26,8.16.35,1.44-.3,3.2-.18,4.84.36,4.7-.06,9.38-.37,14.05-.23,3.38-.17,6.8-.89,10.17-.48,2.24-.37,4.61-.71,6.89-.67,4.46-1,8.95-1.88,13.4-.61,3.11-.42,6.44-1.34,9.53-.75,2.5-.25,5.17-1.34,7.57Z"/>
      <path class="cls-26" d="m139.8,353.11c-1.1-.93-.53-2.19-.29-3.12.36-1.4,1.02-2.74,1.16-4.22,0-.05.04-.11.06-.16.47-.99,1.03-2.39,2.13-2.11,1.15.3.61,1.67.52,2.71-.2,2.26-1.68,4.02-2.18,6.15-.09.38-.39.86-.96.87-.15-.04-.29-.08-.44-.12Z"/>
      <path class="cls-60" d="m147.4,346.24c-.84-1.1-.87-3.91.05-4.72.44-.38,1.06-.97,1.67-.55.6.41,1.07,1.1.5,1.92-.36.53-.29,1.07-.09,1.62-.76.52-1.6.94-2.13,1.74Z"/>
      <path class="cls-48" d="m134.58,300.5c-2.19-1.8-4.24-3.82-6.62-5.33-1.33-.85-2.42-1.99-3.81-2.72-.34-.18-.78-.38-.68-.88.62-2.94-.95-5.48-1.48-8.21-.34-1.75-.53-3.52-.83-5.28-.22-1.29.64-1.71,1.59-2.08,3.35-1.32,3.2-1.9,3.27-5.39.08-3.86-1.32-7.45-1.22-11.3.07-2.77-.84-5.55-1.22-8.33-.4-2.97-.7-5.96-1.04-8.94.08-.39.29-.57.7-.46.82.34,1.58.02,2.29-.31,1.33-.62,2.66-1.13,4.18-.94.24.03.52-.21.77-.35,1.94-1.08,3.85-2.21,6.19-2.13.08,0,.15-.17.24-.23,1.72-1.11,3.75-1.44,5.57-2.26,2.93-1.32,5.74-2.87,8.5-4.57,2-1.24,3.79-2.87,6.03-3.84,1-.43,2.45-.84,2.93-2.21.15-.42.48-.09.72-.13-1.03,2.75-1.47,5.72-2.56,8.39-1.62,3.99-2.7,8.16-4.37,12.12-.94,2.21-1.19,4.69-2.1,6.95-1.21,3.02-1.81,6.23-2.92,9.26-1.31,3.57-2.82,7.07-3.83,10.74-1.11,4.04-2.95,7.81-4.14,11.85-1.11,3.79-1.79,7.66-2.91,11.42-.38,1.27-1.47,2.42-2.19,3.65-.31.53-.72,1.01-1.08,1.51Z"/>
      <path class="cls-64" d="m133.24,352.83c-.09-.2-.32-.5-.26-.6.49-.75.21-1.84,1.08-2.4.03-.02.24.11.24.17.07,1.09-.17,2.09-1,2.87,0,0-.07-.05-.07-.05Z"/>
      <path class="cls-46" d="m135.04,122.35c-2.34-.31-4.07,1.05-5.77,2.27-1.29.92-2.25,2.29-3.49,3.3-.95.77-2.22-.08-3.31.3-.37-.99-.03-1.73.74-2.41,1.72-1.51,2.93-3.5,4.59-5.06.37-.34.12-.6.14-.9,1.62-1.97,3.27-3.89,4.69-6.04,1.98-3,4.22-5.82,6.37-8.71,1.47-1.97,2.77-4.06,4.08-6.15,1.33-2.14,2.33-4.47,3.82-6.5,1.16-2.16,2.26-4.42,3.57-6.43,2.44-3.77,1.89-7.88,2.27-11.9.09-.98.12-1.72,1.31-1.74.14.11.28.23.41.34-.46,1.16-.33,2.11.62,3.09.83.85,1.56,1.84,1.76,3.17.44,2.88,2.07,5.55,2.35,8.35.35,3.49,1.34,6.91,1.26,10.43-.04,1.9-1.17,3.54-1.84,5.27-.94,2.43-2.22,4.7-2.96,7.25-.76,2.63-2.15,5.07-3.03,7.67-.81,2.39-1.58,4.8-2.57,7.12-1.23,2.86-2.53,5.68-3.87,8.67-3.39-3.7-6.61-7.21-9.83-10.74-.36-.4-.72-.74-1.31-.67Z"/>
      <path class="cls-16" d="m150.61,427.06c1.25,2.12,2.46,4.16,3.83,6.49-1.86-.29-2.51-1.82-3.66-2.57-1.16-.76-.89-2.38-.17-3.92Z"/>
      <path class="cls-2" d="m154.37,428.11c1.15-.57,2.07.84,3.21.37-.25.81-.51,1.62-.73,2.44-.08.31.09.76-.37.83-.4.06-.51-.3-.66-.63-.45-1.02-.96-2.01-1.45-3.01Z"/>
      <path class="cls-38" d="m160.44,429.81c.48-.84.97-1.67,1.43-2.53.25-.47.59-.71,1.11-.52.6.22.51.79.37,1.17-.4,1.09-1.08,2-2.09,2.64-.22.31-.5.46-.78.13-.22-.25-.58-.57-.04-.89Z"/>
      <path class="cls-42" d="m160.44,429.81c.15.39.11.99.82.76.24.61-.14,1.12-.34,1.61-.3.76-1.09,1.45-1.75,1.22-.67-.23-.06-1.45.14-1.59.71-.54-.34-2.02,1.13-2.01Z"/>
      <path class="cls-44" d="m150.57,553.88c.52-1.28,1.06-2.54,1.54-3.83.34-.9.61-1.83.91-2.74.53,2.19,1.61,4.22,1.97,6.47.17,1.08,1.06,1.99.8,3.2-1.13-.24-2.1.84-3.13.55-1.77-.49-2.53-1.77-2.08-3.64Z"/>
      <path class="cls-30" d="m154.04,72.38c-.72.4-1,.88-.97,1.82.08,2.95-.12,5.89-.8,8.79-.66,2.84-2.5,5.06-3.8,7.57-.34.66-.51,1.55-1.27,1.98-2.72.7-4.66,2.69-6.77,4.32-3.05,2.36-6.16,4.62-9.58,6.37-1.45.74-3.28.96-4.87.66-1.29-.24-2.62-.47-3.89-.49-4.92-.1-8.7-2.28-12.03-5.75-3.01-3.14-6.36-5.95-9.21-9.26-2.45-3.19-2.56-6.96-2.7-10.74-.07-1.89-.04-3.78.14-5.65.1-1.06-.2-2-.37-2.99.99-1.78.39-3.75.7-5.61-.79-1.74-.7-2.1.68-2.85.83.67,1.3-.23,1.33-.59.1-1.1.41-2.19.49-3.29.12-1.7.1-3.5.48-5.24.36-1.63.19-3.41.09-5.11-.12-2.03.36-4.06-.2-6.08-.21-.77.73-1.07,1.04-1.64,2.27-2.63,3.87-5.66,5.38-8.77.42-.87-.63-2.2.7-2.46.78-.15,1.69.49,2.56.66,3.77.73,7.55,1.43,11.42,1.03,1.12-.12,2.47-.59,2.68-1.61.41-1.99,1.97-1.41,2.76-1.2,3.1.83,6.24.6,9.36.73,1.33.06,2.19-1.14,2.58-3.06,1.31,1.61,2.73,3.07,4.57,4.08.84.46,1.75.17,2.6.37,1.12.27,1.95.72,1.55,2.06-.4,1.34.37,2.24,1.36,2.63,1.36.54,1.6,1.36,1.36,2.61-.09.49-.15,1.01.28,1.41.43,3.25.58,6.58,2.49,9.44.26.38.19.66.05,1.09-1.02,3.03-.85,6.16-.81,9.29.02,1.96-.03,3.92.31,5.87.55.27.98.62.98,1.3,0,.83-.27,1.62-.29,2.45-.71,1.91-1.65,3.81-.38,5.85Z"/>
      <path class="cls-35" d="m154.42,66.53c-.57-.79-.14-1.57.03-2.35.18-.26.46-.29.74-.37,2.11-.57,2.92-1.7,2.71-3.88-.16-1.65-.49-3.27-1.08-4.83.02-.58.04-1.16.06-1.74.95-.27,1.74.03,2.22.84,1.28,2.17,1.96,4.57,1.7,7.04-.4,3.81-2.11,5.1-6.37,5.29Z"/>
      <path class="cls-14" d="m156.82,52.35c-.27-.92-.23-1.85-.04-2.78,1.54-.88,3.81-.13,4.13,1.39.09.43.19.92-.21,1.29-.4.37-.82.28-1.26.05-.88-.47-1.76-.37-2.62.06Z"/>
      <path class="cls-57" d="m108.39,127.88c-2.8.04-5.54-.53-8.31-.75-2.62-.21-5.24-.38-7.86-.64-1.08-.11-2.11.6-3.38.51-1.83-.14-2.18-1.24-2.2-2.46-.11-4.55-.33-9.12.04-13.63.3-3.69.35-7.4.72-11.09.26-2.62.32-5.32.48-7.98.23-3.79.34-7.59.8-11.36.38-3.09.67-6.3,2.96-8.78.39-.43.48-.9.42-1.43,1.39-.45,1.93-1.87,3.04-2.65.72.46,1.45.92,2.17,1.37-1.31,1.61-2.43,3.36-3.56,5.09-.93,1.42-1.57,3.13-1.7,4.84-.35,4.65-.55,9.31-.7,13.98-.11,3.49-.58,6.98-.78,10.48-.34,5.92-.52,11.84-.65,17.77-.01.51-.11,1.15.42,1.41.44.22.89-.21,1.23-.47,2.18-1.6,4.23-3.35,6.31-5.08.84-.7,1.78-1.26,2.93-1.33,1.48,2.43,3.22,4.69,4.59,7.17.65,1.18,1.7,2.02,2.28,3.2.3.59.9,1.08.77,1.85Z"/>
      <path class="cls-58" d="m79.57,59.41c-.28.49-.38,1.13-1.18.84-1.47-.52-2.84,0-4.24.44-.93.29-1.91.45-2.88.61-.37.06-.73-.21-.58-.58,1.16-2.92.52-6.14,1.52-9.09.28-.82.61-1.37,1.51-1.2.89.17,1.96-.54,2.51,1.14.64,1.94,1.45,3.89,2.49,5.71.35.62-.03,1.64.85,2.13Z"/>
      <path class="cls-34" d="m156.81,55.09c1.52,1.84,1.7,4.06,1.42,6.25-.29,2.17-1.64,3.03-3.78,2.83,0-.59-.48-.93-.72-1.39,1.41.48,1.81-.51,2.02-1.52.42-2.04.72-4.11,1.07-6.17Z"/>
      <path class="cls-46" d="m100.76,115.78c-3.28,1.38-5.53,4.14-8.27,6.24-.7.54-1.71.5-2.23,1.43-.18.32-.48-.36-.61-.73-.65-1.8.02-3.62-.06-5.44-.22-5.17.3-10.35.55-15.52.17-3.58.81-7.2.81-10.79,0-4.14.4-8.23.69-12.33.13-1.84.79-3.71,2.01-5.28.84-1.07,1.56-2.25,2.29-3.4.33-.51.67-.94,1.32-.99.22.01.44.03.66.04,1.46,1.35.84,3.14.69,4.64-.17,1.73.06,3.4.13,5.08.03.88-.17,1.76,0,2.65.42,2.17.71,4.38,2.2,6.17.16.19.11.55.16.83,1.29,1.17.84,3.05,1.77,4.36.98,1.28.77,2.96,1.47,4.36,1.34,2.66,2.43,5.43,3.53,8.2,1.61,4.04,3.04,8.15,4.53,12.23.59,1.61,1.04,3.29,2.05,4.74.46.66.34,1.43.24,2.18-.9.94-1.45.04-1.96-.46-2.42-2.36-5.02-4.5-7.78-6.45-.37-.26-.73-.56-1.15-.73-.83-.89-1.84-1.24-3.04-1.04Z"/>
      <path class="cls-35" d="m99.3,60.56c-1.3.69-.52,1.88-.68,2.85-2.19-.2-5.05-4.3-4.98-5.96.06-1.2-.22-2.34-.17-3.53.12-2.43,1.74-4.07,4.1-3.97.02-1.56-1.38-1.67-2.28-2.16-.71-.38-1.04.5-1.4.96-.36.47-.59,1.09-1.3.45-.67-.61-.55-1.44-.16-1.99,1.49-2.13,4.8-1.94,6.19.28-.08,1.51.42,3.02-.02,4.53-.13.33-.34.7-.65.76-1.68.37-1.53,1.63-1.34,2.81.25,1.59.83,3.08,1.83,4.38.42,0,.71.18.86.59Z"/>
      <path class="cls-34" d="m98.44,59.98c-1.72-1.03-1.83-2.85-2.27-4.54-.57-2.17.78-2.87,2.43-3.41.78.28.09,1,.06,1.08-.87,2.28.31,4.6-.22,6.86Z"/>
      <path class="cls-48" d="m115.28,152.51c.85,2.35,2.6,4.06,4.17,5.91-.32.92-.99,1.7-1.11,2.7-.54,1.88-1.17,3.71-2.07,5.45-1.83,3.54-3.14,7.34-4.05,11.13-1.04,4.35-2.01,8.8-2.22,13.34-.02.34.01.7-.3.95-.92.12-.47.89-.5,1.3-.05.74.2,1.49-.12,2.22,1.19,1.66.17,3.46.29,5.19.17,2.45.16,4.91.62,7.33-.16,1.06,0,2.08.45,3.05.51.85.83,1.76.72,2.77.41,2.15,1.3,4.08,2.61,5.83.23.3.42.67.3,1.12-.23.87-.11,1.47.77,2.12.95.7.23,1.89-.15,2.67-1.19,2.44-1.99,5.03-3.17,7.48-.65,1.36-1.07,1.54-2.52,1.12-3.06-.9-5.78-2.49-8.7-3.64-1.53-.61-2.05-1.97-2.67-3.15-2.78-5.3-4.38-10.96-5.31-16.89-.49-3.17-.42-6.32-.58-9.49-.34-2.38.21-4.7.71-6.97.33-1.5.05-3.15,1-4.51.5-1.65,1.19-3.22,1.78-4.83-.15-.62.13-1.22.43-1.63,1.55-2.1,1.92-4.73,3.28-6.93,1.76-2.84,3.48-5.7,5.25-8.53,3.21-5.14,7.42-9.54,10.57-14.71.11-.18.35-.29.53-.43Z"/>
      <path class="cls-46" d="m93.86,189.61c-.93,1.9-.81,4.02-1.28,6.03-.42,1.77-.58,3.6-.85,5.4-1.3-.12-2.14-1.16-2.78-1.98-1.8-2.33-2.81-5.16-4.23-7.73-.95-1.7-2.29-3.18-3.02-5.02-1.06-2.7-2.68-5.07-4.15-7.55-1.21-2.04-2.03-4.32-3.27-6.34-1.19-1.95-1.66-4.2-2.9-6.1-.92-1.41-.92-3.32-2.38-4.43-.26-.85.09-1.42.84-1.81.35-.16.53.07.68.32,1.8,3.07,3.63,6.12,5.51,9.14,1.95,3.14,4.13,6.13,6.47,8.9,2.87,3.4,6.2,6.49,9.83,9.16.72.53,1.32,1.1,1.53,2Z"/>
      <path class="cls-46" d="m109.7,191.99c-.48-1.79.24-3.52.34-5.27.18-3.07,1.15-6.04,1.65-9.07.39-2.33,1.45-4.72,2.39-7.01,1.22-2.96,2.49-5.9,3.75-8.84.11-.25.33-.45.51-.67.12.19.38.39.35.55-.37,2.41.07,4.99-.95,7.21-.48,1.05-.02,1.86-.19,2.78-.43,2.28-.58,4.65-1.05,6.87-.58,2.77-.64,5.61-1.37,8.33-.43,1.58-.24,3.25-.64,4.85-.17.68-.45,1.17-1.01,1.16-1.31-.01-2.74.32-3.78-.89Z"/>
      <path class="cls-12" d="m119.79,242.91c-.2,2.6.56,5.1.81,7.65.46,4.69,1.39,9.31,1.69,14.02.1,1.56.64,3.1.67,4.7.06,3.11.08,3.11-2.27,5.21-.65-3.14-1.61-6.1-1.45-9.26.05-.95-.23-1.99-.5-2.72-.75-2-.77-4.09-.88-6.08-.11-1.99-.89-3.77-1.17-5.69-.27-1.84-.21-3.74-.68-5.57-.24-.94-.35-1.91-.72-2.82.69-.01,1.32.47,2.03.23.87-.24,1.76-.62,2.47.33Z"/>
      <path class="cls-66" d="m119.79,242.91c-.82-.11-1.64-.22-2.47-.33-.3-2.06-.41-4.12-.45-6.2-.05-2.82-.61-5.63-.67-8.43-.06-2.58-.84-5.12-.35-7.75.23-1.23-.46-2.61.5-3.76.26-.32-.11-1.18.85-.93.62.16,1.12.23,1.41,1,.5,1.31-.14,2.55,0,3.84.31,2.67.21,5.41.72,8.03.28,1.42.18,2.82.3,4.2.25,2.84.38,5.68.8,8.51.16,1.08.33,1.37,1.27.61.41-.33.96-.75,1.52-.13-.23.15-.47.31-.7.46-.78.71-1.86.47-2.74.87Z"/>
      <path class="cls-37" d="m110,208.04c-.8-.44-.83-1.37-.8-1.98.13-2.9-.78-5.8.04-8.71.16-.55-.09-1.22-.15-1.84.49.43,1.1.13,1.65.26.68.16.97.42.92,1.15-.2,3.27-.39,6.55-.51,9.82-.03.85-.27,1.3-1.15,1.3Z"/>
      <path class="cls-37" d="m111.16,213.86c-.69-.81-.79-1.77-.72-2.77,1.61.12,3.13-.49,4.71-.59.24-.02.43-.31.68.04.43.6.17,4.78-.42,5.56-1.04-1.48-2.95-1.25-4.26-2.23Z"/>
      <path class="cls-65" d="m68.12,166.76c-.48-.3-.95-.59-.67-1.3.3-.76.74,0,1.09-.12-.01.51.16,1.07-.42,1.42Z"/>
      <path class="cls-31" d="m93.86,189.61c-2.43-2.14-4.95-4.19-7.28-6.44-1.87-1.81-3.92-3.48-5.41-5.67-1.43-2.09-3.37-3.88-4.55-6.03-1.6-2.92-3.83-5.43-5.13-8.51-.43-1.01-1.09-1.92-1.65-2.88.47-.79.95-1.59,1.42-2.38,1.5,2.43,2.94,4.89,4.52,7.27,3.24,4.9,6.61,9.67,10.84,13.83,2.22,2.19,4.56,4.22,6.84,6.33.88.82,1.36.57,1.75-.4.09.2.3.51.24.57-1.19,1.2-.78,2.98-1.6,4.31Z"/>
      <path class="cls-12" d="m100.76,115.78c1.36-1.24,2.15-.03,3.04.72,3.63,2.31,6.28,5.63,9.07,8.8.49.56,1.04,1.07,1.55,1.6.35.36.92.73.34,1.35-.33.2-.53.71-.99.58-1.18-.33-1.82.34-2.33,1.22-.27.46-.57.5-.98.27-1.09-.48-1.23-1.77-2.08-2.45-1.96-2.62-3.77-5.34-5.46-8.14-.78-1.29-2.01-2.33-2.17-3.96Z"/>
      <path class="cls-49" d="m137.23,546.71c.13-.31.18-.74.42-.9.38-.25.58.24.79.45.99.99,1.01,2.41,1.54,3.61.24.54-.59.72-.69.48-.53-1.3-2.25-1.93-2.06-3.65Z"/>
      <path class="cls-70" d="m147.29,552.68c.78-1.86,1.31-3.82,2.5-5.6.61,2.16-.29,4.27-2.5,5.6Z"/>
      <path class="cls-9" d="m114.53,124.45c-.61-3.21-2.5-5.94-3.37-9.06-.4-1.45-1.19-2.8-1.57-4.25-.74-2.78-2.2-5.27-3.01-8.02-.9-3.08-3.11-5.69-3.34-9.05-.02-.22-.45-.78-.65-1.2.77-.52,1.19.1,1.57.56,2.66,3.25,5.71,6.13,8.48,9.27,1.97,2.23,4.21,4.23,6.15,6.5,1.67,1.95,3.43,3.82,5.08,5.78,1.4,1.66,3.21,2.98,4.19,4.99-.07.31.73.18.33.64-1.54,1.77-3.01,3.6-4.66,5.26-.71.71-.97,1.5-1.26,2.35-2.03,1.09-4.09.86-6.16.15-.86-1.19-1.38-2.52-1.77-3.92Z"/>
      <path class="cls-48" d="m114.53,124.45c1.17,1.04,1.44,2.5,1.77,3.92-.53.25-1.02.03-1.53-.11-.06-.95-.95-1.21-1.46-1.78-3.05-3.44-5.98-6.99-9.51-9.98,1.77.6,3.05,1.95,4.47,3.05,1.76,1.35,3.33,2.94,4.98,4.43.36.33.64.88,1.27.48Z"/>
      <path class="cls-33" d="m128.06,119.97c-1.54-.78-2.49-2.28-3.43-3.53-1.6-2.13-3.92-3.54-5.22-5.97-.79-1.48-2.34-2.55-3.52-3.83-4.1-4.4-8.21-8.81-12.29-13.24-.3-.33-.58-.53-1.01-.53-1.05-1.31-.74-3.07-1.49-4.48,1.92,1.13,2.92,3.19,4.61,4.53,2.8,2.22,5.14,4.93,7.93,7.19,2.24,1.81,4.64,2.27,7.22,2.74,1.73.32,3.5.35,5.24.64,2.08.35,4.27-.32,6.25-1.52,3.81-2.31,7.26-5.1,10.82-7.74,1.05-.78,2.1-1.56,3.36-2.03.47-.18.61-.1.67.34-1.33,2.1-2.5,4.32-3.68,6.48-1.54,2.81-3.38,5.36-5.35,7.8-1.74,2.16-3.12,4.55-4.83,6.72-1.27,1.61-2.43,3.32-3.68,4.97-.47.62-.94,1.11-1.6,1.45Z"/>
      <path class="cls-52" d="m121.75,73.15c.68-2.82,1.36-5.65,2.05-8.47.29-1.21.49-2.46.92-3.63.28-.77.74-1.6,1.92-1.19,1.11.39,2.33.43,2.51,2.07.25,2.28.23,4.54.09,6.81-.13,2.2-.3,4.39-.47,6.58-.05.71.02,1.39-.96,1.71-1.17.38-2.31,1.92-3.45,1.11-1.38-.97-2.37-2.57-2.45-4.46,0-.16.05-.33.07-.5-.07-.02-.15-.03-.22-.05Z"/>
      <path class="cls-62" d="m120.57,49.88c-3.99-1.06-8.13-.41-12.18-1.08-1.51-.25-1.42-1.3-1.84-2.07-.48-.89.48-1.2,1.02-1.66,3.02-2.57,6.19-2.47,9.6-.79,1.44.72,3.1.94,4.46,1.95.7.52,2.01.6,1.51,1.8-.41.98-1.15,2.02-2.57,1.85Z"/>
      <path class="cls-62" d="m141.27,49.79c-2.41.25-4.65.18-6.85.67-1.31.29-2.43.04-3.25-1.21-.54-.83-.41-1.48.33-1.89,3.03-1.68,6.21-3.02,9.62-3.65,2.55-.47,4.33,1.34,6.21,2.62.88.6-.19,2.9-1.41,3.13-1.6.31-3.19.61-4.65.33Z"/>
      <path class="cls-32" d="m132.52,89.78c-1.1,1.97-2.93,2.73-5.03,2.76-2.02.03-4.05-.31-6.07-.29-2.22.02-3.63-1.13-4.76-2.84.66-1.33,2.05-1.59,3.22-1.82,3.88-.77,7.73-.63,11.39,1.11.52.25,1.07.44,1.26,1.07Z"/>
      <path class="cls-62" d="m132.52,89.78c-3.85-2.17-7.99-2.63-12.26-1.88-1.25.22-2.4,1-3.6,1.52.02-2.23,2.54-5.8,4.67-6.63,1.84,1.28,3.83,1.54,5.98.95.58-.16,1.19-.4,1.83-.2,1.67,1.15,2.61,2.91,3.72,4.52.47.68-.22,1.16-.35,1.73Z"/>
      <path class="cls-15" d="m120.82,61.41c-.39,1.27-1.25,1.17-2.4,1.17-2.01,0-3.97-.35-5.95-.55-.89-.09-1.64-.46-2.18-1.2-.64-.78-.61-1.66-.13-2.42,2.18-3.42,5.68-4.62,9.05-1.33,1.17,1.15,1.83,2.6,1.6,4.32Z"/>
      <path class="cls-15" d="m143.81,61.53c-.5.68-1.2,1.03-2.01,1.18-2.41.42-4.86.42-7.27.71-1.25.15-.49-1.22-1.25-1.31-.12-2.4.92-4.17,2.94-5.38,3.11-1.87,5.56-.57,7.55,2.09.61.82.76,1.81.04,2.72Z"/>
      <path class="cls-7" d="m143.81,61.53c0-2.22-1.93-4.91-3.75-5.19-2.72-.42-5.72,1.62-6.37,4.31-.12.49-.28.96-.41,1.45-1.11-.39-.25-1.2-.22-1.68.18-3.43,2.22-5.82,5.29-5.79,2.62.02,5.25.65,7.51,2.11.59.38,1.21.67,1.81.85.85.26,1.24.74,1.29,1.51.05.82-.17,1.63-1.11,1.81-1.33.26-2.55,1.32-4.02.62Z"/>
      <path class="cls-7" d="m120.82,61.41c-.51-1.04-.6-2.21-1.28-3.24-1.31-2-3.22-2.73-5.32-2.43-1.6.23-2.83,1.48-3.74,2.98-.47.77.19,1.45-.19,2.11-.91.46-4.69-.4-4.93-1.26-.28-.97-.55-1.98.94-2.58,2.17-.87,4.13-2.23,6.49-2.67,2.83-.52,5.9-.59,7.3,2.11.8,1.54,1.46,3.18.74,4.98Z"/>
      <path class="cls-10" d="m141.65,68.61c-1.31-.37-2.7-.72-4.05-1.17-.48-.16-.92-.59-.78-1.2.14-.61.61-1.1,1.22-1.03,2.06.26,4.15-.1,6.19.45.7.19.81.51.81,1.06,0,.6-.13,1.4-.7,1.42-.92.04-1.74.44-2.7.47Z"/>
      <path class="cls-50" d="m111.81,64.82c1.32-.19,2.67-.1,3.99-.26.53-.07,1.11-.2,1.37.37.28.65-.18,1.15-.72,1.36-1.79.72-3.51,1.69-5.54,1.65-1.07-.02-2.16-.36-2.2-1.42-.05-1.09,1.01-1.53,2.1-1.57.34,0,.67-.09,1.01-.14Z"/>
      <path class="cls-25" d="m129.14,83.53c-2.27.76-4.53,1.55-6.89.22-.44-.25-.88-.39-.93-.96,1.21-.98,2.65-.96,4.1-1.08,1.66-.14,2.68.81,3.71,1.83Z"/>
    </g>
    <path class="cls-72" d="m104.12,605.28c20.19-14.73,64.75-3.49,87.8-13.95s-20.74-9.6-36.82-7.26-70.54.7-75.53-13.25,86.45,2.42,104.46-1.15-49.86-6.57-62.11-15.23,44.1,15.62,62.11-11.3-93.58,24.44-115.84-47.42,52.62-34.4,82.58-64.73-.28-83.09-.28-83.09"/>
    <path class="cls-72" d="m130.38,338.96c-.87,1.04-32-7.86-55.69,1.86"/>
  </g>
</svg>