<?xml version="1.0" encoding="UTF-8"?>
<svg id="Layer_2" data-name="Layer 2" xmlns="http://www.w3.org/2000/svg" viewBox="0 0 877.42 239.22">
  <defs>
    <style>
      .cls-1 {
        fill: #757f28;
      }

      .cls-1, .cls-2 {
        stroke-width: 0px;
      }

      .cls-2 {
        fill: #9ba137;
      }
    </style>
  </defs>
  <g id="Landscape3">
    <g>
      <path class="cls-2" d="m820.66,195.75c-3.14-9.79-10.05-20.58-28.99-26.67-9.19-2.95-19.18-2.12-28.75-.88-13.63,1.77-27.07,5.05-39.99,9.76,8.66-4.6,16.79-10.19,24.18-16.64,1.72-1.5,3.47-3.15,4.16-5.32,1.46-4.57-2.39-9.25-6.71-11.34-6.01-2.91-13.37-2.52-19.26.57,5.51-4.84,10.24-10.58,13.91-16.93,1.92-3.33,3.46-7.84.93-10.74-1.56-1.8-4.14-2.24-6.52-2.45-8.06-.71-16.25.06-24.03,2.25-3,.84-6.16,2.19-8.59,4.13,5.36-10.55,7.5-22.75,5.88-34.49-1.3-9.48-7.52-20.35-17.05-19.57-8.81.71-13.37,10.62-16.12,19.01.95-18.17,7.43-36.41,3.6-54.2-1.31-6.07-4.21-12.31-9.72-15.16-7.45-3.84-16.63-.06-23.18,5.18-13.06,10.46-20.83,26.16-26.31,41.97-4.51,13.03-7.76,26.5-9.67,40.15-3.59,25.61-2.49,44.25.34,64.69-.87-3.79-1.89-7.54-3.06-11.21-7.25-22.72-30.37-32.82-47.81-11.9-9.02,10.82-11.78,25.37-14.24,39.23-1.04-15.52-3.14-33.08-15.64-42.34-5.09-3.77-11.37-5.64-17.64-6.57-23.05-3.43-47.59,5.72-62.78,23.39.79-10.38-8.28-20.46-18.69-20.78-10.41-.31-20.07,9.2-19.91,19.61-8.21-11.36-28.73-9.55-34.81,3.07-36.88-36.03-91.61-49.44-143.01-45.29-51.4,4.15-100.21,24.02-146.37,47-11.05,5.5-20.83,10.45-30.19,20.2-2.7-8.43-11.33-14.53-20.15-16.1-10.21-1.83-20.62.97-30.62,3.75,6.86-7.95,13.72-15.91,20.58-23.86,4.21-4.89,8.69-10.53,8.22-17.02-.51-7.03-7.13-12.43-13.99-13.37-6.86-.94-13.73,1.66-19.77,5.09-5.66,3.2-10.88,7.18-15.54,11.76,4.55-5.2,8.64-10.78,10.84-17.32,3.06-9.1,1.38-20.62-6.41-26.05-2.87-2-6.3-3.02-9.73-3.63-17.83-3.19-38.64,6.4-43.39,24.21,3.02-19.26,3.99-38.86,2.89-58.33-.5-8.95-1.88-18.78-8.52-24.65-7.35-6.51-18.33-5.75-27.96-4.25-12.14,1.9-24.73,4.64-34.23,12.56-9.37,7.81-14.51,19.64-18.46,31.3-5.38,15.85-9.2,32.26-11.38,48.88.24-34-15.21-67.77-40.91-89.43-3.33-2.81-6.85-5.44-10.75-7.34-14.35-6.99-32.01-2.96-45.18,6.14-13.17,9.1-34.32,26.92-40.2,50.92v179H824.96v-60h-4.31Z"/>
      <path class="cls-1" d="m648.35,65.82c-4.69,15.58-8,31.53-9.98,47.68s-2.57,32.53-1.74,48.81c.47,9.19,1.4,18.36,2.74,27.46.17,1.14,1.61,1.76,2.62,1.48,1.22-.33,1.65-1.47,1.48-2.62-2.33-15.78-3.26-31.77-2.86-47.72.4-16.03,2.16-32.02,5.29-47.75,1.76-8.84,3.95-17.59,6.55-26.22.79-2.63-3.31-3.75-4.1-1.13h0Z"/>
      <path class="cls-1" d="m684.89,111.82c-8.39,25.52-17.28,51.1-30.69,74.49-3.76,6.57-7.88,12.93-12.38,19.02-.68.92-.15,2.37.76,2.91,1.08.63,2.22.16,2.91-.76,16.2-21.9,27.02-47.15,36.09-72.69,2.57-7.25,5.01-14.54,7.41-21.84.86-2.61-3.25-3.72-4.1-1.13h0Z"/>
      <path class="cls-1" d="m689.3,161.59c9.69.68,19.25-4.11,24.74-12.07.65-.95.18-2.36-.76-2.91-1.05-.62-2.26-.19-2.91.76-4.67,6.77-12.91,10.54-21.07,9.97-1.15-.08-2.13,1.03-2.13,2.13,0,1.22.98,2.05,2.13,2.13h0Z"/>
      <path class="cls-1" d="m644.28,210.9c6.4.31,12.5-2.24,18.29-4.65s10.9-4.85,16.14-7.69c10.33-5.58,20.08-12.22,29.1-19.73,5.09-4.24,9.94-8.77,14.52-13.56,1.89-1.98-1.11-4.99-3.01-3.01-15.78,16.49-34.77,29.77-55.68,38.93-6.03,2.64-12.65,5.77-19.38,5.45-2.74-.13-2.73,4.12,0,4.25h0Z"/>
      <path class="cls-1" d="m5.37,204.65c-2.4-4.31-1.39-10.23,2.31-13.51.62-.55,1.41-1.06,2.24-.94,1.01.15,1.64,1.18,1.97,2.14,1.71,5.05-1.85,11.2-7.09,12.23"/>
      <path class="cls-1" d="m13.59,201.74c1.04-1.82,2.2-3.76,4.12-4.6s4.74.15,4.87,2.25c.09,1.3-.84,2.43-1.82,3.29-4.4,3.89-11.02,5.07-16.5,2.94"/>
      <path class="cls-1" d="m577.57,207.56c-.18-.43-.45-.88-.3-1.32,4.33-13.09,2.98-27.95-3.63-40.05-3.54.71-4.42,5.32-4.29,8.93.44,12.25,6.25,32.07,7.25,33.07s1.15-.2.97-.63Z"/>
      <path class="cls-1" d="m562.74,202.49c-5.95-4.68-9.67-12.09-9.86-19.66-.03-1.04.3-2.4,1.34-2.46,6.05,5.83,9.23,14.51,8.37,22.86"/>
      <path class="cls-1" d="m740.57,209.29c4.38-6.65,10.58-12.09,17.76-15.54.87-.42,1.79-.82,2.75-.74,2.2.18,3.45,2.88,2.91,5.02-.54,2.13-2.28,3.73-4.02,5.09-5.73,4.48-12.36,7.81-19.37,9.74-.25-.59-.5-1.19-.74-1.78"/>
      <path class="cls-1" d="m758.86,215.38c3.1-5.69,8.4-10.15,14.53-12.25,1.05-.36,2.17-.65,3.26-.41s2.09,1.17,2.05,2.28c-.03.98-.81,1.75-1.55,2.39-3.38,2.94-7.08,5.53-11,7.69-1.84,1.01-3.91,1.96-5.97,1.53s-3.71-2.95-2.55-4.7"/>
      <path class="cls-1" d="m423.43,189.99c-.71-6.43-1.21-12.89-1.52-19.36-.04-.91-.07-1.86.33-2.68s1.38-1.43,2.23-1.1c.79.3,1.12,1.22,1.34,2.03,1.61,6.03,1.95,12.4,1,18.56-.18,1.19-1.22,2.74-2.19,2.03"/>
      <path class="cls-1" d="m430.09,190.02c.36-4.42.72-8.84,1.08-13.26.3-3.66.74-7.65,3.33-10.25.2-.2.44-.4.72-.39.26.01.47.2.65.38,3.31,3.44,2.78,9.14.6,13.39-2.18,4.25-5.67,7.68-8.08,11.8"/>
      <path class="cls-1" d="m418.94,200.14c-.4,1.06-2,.21-2.62-.74-4.5-6.84-6.98-15-7.06-23.19,6.22,6.77,9.58,16.08,9.13,25.25"/>
    </g>
  </g>
</svg>