<?xml version="1.0" encoding="UTF-8"?>
<svg id="Layer_2" data-name="Layer 2" xmlns="http://www.w3.org/2000/svg" viewBox="0 0 1275.69 258.5">
  <defs>
    <style>
      .cls-1 {
        fill: #3e674d;
        stroke-width: 0px;
      }
    </style>
  </defs>
  <g id="Landscape_1" data-name="Landscape 1">
    <g>
      <path class="cls-1" d="m65.57,125.63c-1.15-23.86,14.34-45.33,31.63-61.82,32.39-30.9,76.43-52.57,120.96-47.98,15.01,1.55,29.59,5.99,43.64,11.47,12.32,4.8,24.55,10.58,34.15,19.68,19.26,18.27,24.67,46.38,29.08,72.55,1.79-18.47,17.57-34.33,35.9-37.24,18.32-2.91,37.71,6.68,47.47,22.46s9.89,36.74,1.33,53.2c14.69-14.1,33.14-24.25,52.92-29.11,11.43-2.81,24.67-3.49,33.8,3.94,8.27,6.73,10.85,18.61,9.13,29.13-1.71,10.52-7.02,20.07-12.23,29.36,6.62-6.57,9.92-15.97,16.74-22.32,8.71-8.11,21.42-9.8,33.25-11.1,11.28-1.24,23.18-2.4,33.54,2.25,19.76,8.86,19.01,29.69,15.26,47.9-.89,4.32-1.64,8.96-3.05,13.14-2.45,7.25-3.52,6.58-11.67,8.08-14.87,2.73-29.82,5.09-44.8,7.12-60.04,8.15-120.62,11.13-181.12,13.31-50.33,1.81-100.7,3.06-150.98,6.21-40.25,2.53-81.51,6.18-120.23-5.13C41.58,239.43,5.35,209.14.36,169.11c-.55-4.44-.68-9.11,1.15-13.19,1.77-3.93,5.16-6.85,8.44-9.63,16.26-13.78,36.69-28.5,56.98-21.96"/>
      <path class="cls-1" d="m1275.14,30.57c2.54-5.67-4.19-10.93-9.92-13.34-14.88-6.26-30.41-10.98-46.26-14.06-23.58-4.58-49.04-5.28-70.58,5.35s-37.55,35.1-32.21,58.52c-7.56-1.87-12.15-9.33-18.39-13.99-9.64-7.21-23.33-7.31-34.36-2.5s-19.71,13.85-26.61,23.72c-5.12,7.32-9.58,15.97-8.29,24.81,1.29,8.84,10.82,16.74,19.06,13.29-33.98,12.44-69.21,31.43-83.04,64.86-2.87,6.92-4.56,15.27-.54,21.6,3.38,5.32,9.85,7.67,15.95,9.26,10.69,2.78,21.69,4.28,32.73,4.82,12.52.61,25.06-.02,37.55-1.08,47.34-4.04,94.12-14.46,138.7-30.88,25.15-9.26,51.38-22.05,63.74-45.83,17.22-33.12,1.92-76.86,21.27-108.78"/>
    </g>
  </g>
</svg>