<?xml version="1.0" encoding="UTF-8"?>
<svg id="Layer_2" data-name="Layer 2" xmlns="http://www.w3.org/2000/svg" viewBox="0 0 877.42 239.22">
  <defs>
    <style>
      .cls-1 {
        fill: #757f28;
        stroke-width: 0px;
      }
    </style>
  </defs>
  <g id="Landscape2">
    <g>
      <path class="cls-1" d="m49.24,216.06c-11.08-14.24-21.52-28.98-31.28-44.15C7.42,155.5-2.69,136.7.65,117.48c.49-2.81,1.35-5.73,3.42-7.69,6.15-5.84,15.87.78,21.54,7.09,19.45,21.61,38.9,43.23,58.35,64.84-7.16-17.1-14.34-34.24-19.41-52.08-4.08-14.37-6.2-31.48,3.57-42.77,1.95-2.25,4.46-4.23,7.41-4.65,5.85-.83,10.6,4.44,14.01,9.25,15.98,22.56,29.04,47.2,38.72,73.1-2-8.7-4.01-17.39-6.01-26.09-1.67-7.27-3.35-14.84-1.69-22.11s7.75-14.11,15.2-14.03c9.47.1,15.39,10.44,17.31,19.71s2.24,19.64,8.58,26.68c-6.15-11.53-4.46-26.75,4.06-36.65,2.23-2.6,5.38-4.99,8.76-4.43,3.1.51,5.23,3.31,6.88,5.98,6.01,9.74,9.9,20.77,11.34,32.13-2.48-7.26-4.6-14.98-3.2-22.52s7.34-14.75,14.99-15.18c4.49,11.2,8.98,22.4,13.47,33.6-2.79-7.04-5.63-14.47-4.61-21.97s7.41-14.85,14.94-14.07c6.69,12.06,10.6,25.65,11.34,39.43-4.78-22.48-3.64-46.19,3.25-68.12,1.66-5.28,3.75-10.62,7.63-14.56,3.88-3.95,9.95-6.19,15.1-4.17,7.74,3.03,9.4,13.05,9.89,21.34.73,12.45,1.46,24.89,2.19,37.34.58,9.91,1.1,20.24-2.8,29.38-5.14,12.07-16.93,19.76-28.23,26.43-40.76,24.03-83.76,44.27-128.26,60.37-8.29,3-16.78,5.88-25.59,6.15-8.82.27-17.52-2.11-25.72-5.35-9.7-3.84-20.5-12.3-17.6-22.32"/>
      <path class="cls-1" d="m309.86,169.02c-1.38-13.97-2.75-28.15-.32-41.98,1.6-9.08,5.06-18.1,10.57-25.4,4.55-6.02,13.64-5.58,17.59.84,11.01,17.9,18.03,38.26,20.28,59.16-2.86-26.11-2.58-71.05,19.6-74.44,17.86-2.73,37.31,25.24,40.62,43-10.09-21.26-2.62-53,17.38-57s34.46,37.65,38.33,54.14c-3.02-13.66-2.99-27.99.1-41.64,2.47-10.92,10.71-23.58,21.59-20.92,7.88,1.92,11.53,10.8,14,18.52,3.48,10.89,6.97,21.77,10.45,32.66-.25-18.36.31-38.87,14.35-51.34,1.94-1.72,4.17-3.13,6.64-3.89,9.98-3.06,16.51,4.83,20.96,12.3,8.74,14.68,14.67,31.03,17.36,47.9,3.37-13.93,2.2-28.66,5.58-42.59,3.46-14.24,14.09-28.7,28.92-28.69,1.87,0,3.76.28,5.48,1.01,6.44,2.72,6.34,8.65,6.07,13.93-1.25,24.13-2.5,48.26-3.75,72.39,1.31-19.39,3.43-38.72,6.36-57.92,1.67-10.97,3.69-22.12,8.98-31.87,4.77-8.81,12.53-16.39,22.19-19.05,9.66-2.66,21.16.51,26.68,8.87,5.35,8.12,4.23,18.73,2.72,28.34-7.36,46.95-19.15,93.21-35.15,137.97-1.03,2.88-2.17,5.89-4.52,7.85-2.28,1.9-5.34,2.5-8.26,3.02-44.01,7.81-89.01,11.68-133.47,7.02-24.18-2.53-48.03-7.56-71.72-13.02-43.42-10-86.81-21.56-126.97-40.84"/>
      <path class="cls-1" d="m713.82,163.94c-10.89-34.14-21.9-69.06-21.01-104.88.24-9.86,4.79-22.73,14.61-21.8,2.86.27,5.45,1.82,7.72,3.58,18.43,14.3,20.21,41.76,34.82,59.95-6.03-24.19-9.25-49.07-9.58-74-.09-7.17.79-15.67,7.03-19.19,8.73-4.93,18.65,4.21,23.85,12.77,7.52,12.38,13.42,25.75,17.51,39.64-3.65-19.24-6.5-41.64,6.62-56.18,2.32-2.57,5.96-4.89,9.05-3.32,1.92.97,2.89,3.13,3.65,5.15,4.48,11.9,6.76,24.63,6.7,37.35-3.89-9.41-.41-20.82,6.88-27.93,7.29-7.11,17.69-10.32,27.87-10.67,6.78-.23,14.04.9,19.09,5.42,6.13,5.49,7.49,14.45,8.08,22.65,3.78,52.33-8.19,104.37-20.08,155.47-3.47,14.93-7.91,31.3-20.69,39.77-6.31,4.18-13.99,5.86-21.55,6.18-32.65,1.4-61.26-20.5-85.63-42.28-10.06-8.99-20.87-20.69-18.39-33.95"/>
    </g>
  </g>
</svg>