<?xml version="1.0" encoding="UTF-8"?>
<svg id="Layer_2" data-name="Layer 2" xmlns="http://www.w3.org/2000/svg" viewBox="0 0 1128.4 2429.33">
  <defs>
    <style>
      .cls-1 {
        fill: #82872e;
      }

      .cls-1, .cls-2 {
        stroke-width: 0px;
      }

      .cls-3 {
        fill: none;
        stroke: #82872e;
        stroke-linecap: round;
        stroke-linejoin: round;
        stroke-width: 8.5px;
      }

      .cls-2 {
        fill: #9ba137;
      }
    </style>
  </defs>
  <g id="BG">
    <rect class="cls-2" width="1126" height="2429.33"/>
    <path class="cls-1" d="m950.13,561.09c-38.92,26.94-74.05,38.05-112.55,65.66-19.73,14.15-34.95,34.16-49.85,53.85-5.68,7.51-11.52,15.35-13.65,24.68-4.46,19.53,8.41,38.25,21.44,52.65,14.34,15.84,31.68,31.3,52.5,32.2,11.62.51,22.99-3.66,33.85-8.22,49.81-20.95,95.98-51.73,135.42-90.26,6.88-6.72,13.62-13.76,18.62-22.13,9.38-15.72,11.87-34.76,14.13-53.13,1.44-11.71,2.83-24-1.2-34.96-5.16-14.06-18.54-23.2-32.44-26.66-13.9-3.46-28.46-2.12-42.73-.77"/>
    <path class="cls-1" d="m199.66,714.66c-18.4-4.33-29.2-11.22-47.82-15.29-9.54-2.09-20.9-1.64-32.06-1.19-4.26.17-8.69.38-13.14,1.91-9.33,3.21-15.39,10.88-19.52,17.61-4.54,7.41-8.41,15.53-5.3,21.31,1.74,3.22,5.48,5.32,9.32,7.2,17.6,8.6,38.9,14,62.48,15.86,4.11.32,8.34.54,12.86-.01,8.49-1.04,17.27-4.67,25.72-8.2,5.39-2.26,11.02-4.66,15.16-8.21,5.31-4.55,7.07-10.19,6.25-14.69s-3.86-8.09-6.87-11.6"/>
    <path class="cls-1" d="m285.26,802.31c-18.4-4.33-29.2-11.22-47.82-15.29-9.54-2.09-20.9-1.64-32.06-1.19-4.26.17-8.69.38-13.14,1.91-9.33,3.21-15.39,10.88-19.52,17.61-4.54,7.41-8.41,15.53-5.3,21.31,1.74,3.22,5.48,5.32,9.32,7.2,17.6,8.6,38.9,14,62.48,15.86,4.11.32,8.34.54,12.86-.01,8.49-1.04,17.27-4.67,25.72-8.2,5.39-2.26,11.02-4.66,15.16-8.21,5.31-4.55,7.07-10.19,6.25-14.69s-3.86-8.09-6.87-11.6"/>
    <path class="cls-1" d="m926.66,175.75c11.37-15.09,22.03-22.2,33.26-37.61,5.75-7.89,9.92-18.46,14-28.86,1.56-3.97,3.15-8.11,3.54-12.8.82-9.83-3.76-18.47-8.26-24.96-4.95-7.14-10.83-13.95-17.37-13.43-3.65.29-7.08,2.87-10.34,5.63-14.96,12.65-28.49,29.97-39.68,50.8-1.95,3.63-3.85,7.42-5.17,11.78-2.47,8.19-2.68,17.69-2.85,26.85-.11,5.84-.18,11.97,1.41,17.18,2.03,6.69,6.48,10.58,10.93,11.63,4.45,1.06,8.96-.28,13.39-1.61"/>
    <path class="cls-1" d="m811.96,218.8c11.37-15.09,22.03-22.2,33.26-37.61,5.75-7.89,9.92-18.46,14-28.86,1.56-3.97,3.15-8.11,3.54-12.8.82-9.83-3.76-18.47-8.26-24.96-4.95-7.14-10.83-13.95-17.37-13.43-3.65.29-7.08,2.87-10.34,5.63-14.96,12.65-28.49,29.97-39.68,50.8-1.95,3.63-3.85,7.42-5.17,11.78-2.47,8.19-2.68,17.69-2.85,26.85-.11,5.84-.18,11.97,1.41,17.18,2.03,6.69,6.48,10.58,10.93,11.63s8.96-.28,13.39-1.61"/>
    <g>
      <line class="cls-3" x1="92.33" y1="104.14" x2="108.38" y2="58.25"/>
      <line class="cls-3" x1="70.29" y1="117.52" x2="50.26" y2="73.22"/>
      <line class="cls-3" x1="79.22" y1="115.85" x2="79.22" y2="76.7"/>
      <path class="cls-3" d="m57.03,124.65c-1.98-6.63-15.53-27.2-15.53-27.2"/>
      <line class="cls-3" x1="66.34" y1="84.41" x2="60.28" y2="43.61"/>
    </g>
    <g>
      <line class="cls-3" x1="164.64" y1="813.02" x2="180.69" y2="767.13"/>
      <line class="cls-3" x1="142.6" y1="826.41" x2="122.57" y2="782.11"/>
      <line class="cls-3" x1="151.53" y1="824.74" x2="151.53" y2="785.58"/>
      <path class="cls-3" d="m129.34,833.54c-1.98-6.63-15.53-27.2-15.53-27.2"/>
      <line class="cls-3" x1="138.65" y1="793.3" x2="132.59" y2="752.49"/>
    </g>
    <g>
      <line class="cls-3" x1="844.31" y1="317.12" x2="860.36" y2="271.23"/>
      <line class="cls-3" x1="822.27" y1="330.51" x2="802.24" y2="286.21"/>
      <line class="cls-3" x1="831.2" y1="328.83" x2="831.2" y2="289.68"/>
      <path class="cls-3" d="m809.01,337.64c-1.98-6.63-15.53-27.2-15.53-27.2"/>
      <line class="cls-3" x1="818.32" y1="297.39" x2="812.26" y2="256.59"/>
    </g>
    <g>
      <line class="cls-3" x1="227.04" y1="1321.37" x2="261.97" y2="1175.93"/>
      <line class="cls-3" x1="179.05" y1="1363.8" x2="135.44" y2="1223.4"/>
      <line class="cls-3" x1="198.48" y1="1358.5" x2="198.48" y2="1234.41"/>
      <path class="cls-3" d="m150.18,1386.39c-4.31-21.01-33.81-86.2-33.81-86.2"/>
      <line class="cls-3" x1="170.45" y1="1258.86" x2="157.25" y2="1129.55"/>
    </g>
    <g>
      <line class="cls-3" x1="1089.21" y1="1783.99" x2="1124.15" y2="1638.55"/>
      <line class="cls-3" x1="1041.23" y1="1826.42" x2="997.62" y2="1686.02"/>
      <line class="cls-3" x1="1060.66" y1="1821.12" x2="1060.66" y2="1697.03"/>
      <path class="cls-3" d="m1012.35,1849.01c-4.31-21.01-33.81-86.2-33.81-86.2"/>
      <line class="cls-3" x1="1032.62" y1="1721.48" x2="1019.42" y2="1592.17"/>
    </g>
  </g>
</svg>