<?xml version="1.0" encoding="UTF-8"?>
<svg id="Layer_3" data-name="Layer 3" xmlns="http://www.w3.org/2000/svg" viewBox="0 0 323.9 105.24">
  <polygon points="69.79 54.86 105.11 54.86 105.11 52.65 69.79 52.81 69.79 54.86" fill="#6d6038"/>
  <rect x="100.91" y="52.81" width="4.2" height="51.18" fill="#6d6038"/>
  <path d="M127.93.44l-3.12,34.97-2.72-.21L123.83.13l4.1.3ZM128.19,35.79l4.83-34.78c-1.32-.17-2.64-.34-3.97-.49l-3.49,34.94,2.63.33ZM131.55,36.35l6.55-34.49c-1.28-.23-2.55-.46-3.83-.67l-5.25,34.71,2.53.45ZM134.87,37.06l8.25-34.13-3.69-.84-7,34.4,2.43.56ZM138.14,37.94l9.94-33.67-3.53-1-8.74,34.01,2.33.66ZM141.37,38.98l11.6-33.14-3.37-1.14-10.45,33.52,2.22.76ZM144.55,40.18l13.23-32.52-3.2-1.26-12.14,32.94,2.11.84ZM147.66,41.54l14.83-31.82-3.04-1.37-13.8,32.28,2,.91ZM150.71,43.05l16.39-31.05-2.86-1.46-15.42,31.54,1.89.97ZM153.67,44.71l17.9-30.2-2.69-1.55-16.99,30.72,1.78,1.02ZM156.56,46.51l19.37-29.28-2.52-1.61-18.52,29.83,1.67,1.07ZM159.35,48.46l20.79-28.29-2.34-1.67-20,28.86,1.56,1.1ZM162.04,50.54l22.16-27.24-2.17-1.71-21.43,27.81,1.44,1.13ZM164.63,52.75l23.47-26.12-2-1.74-22.8,26.7,1.33,1.15ZM167.11,55.09l24.72-24.93-1.84-1.75-24.11,25.53,1.22,1.16ZM169.47,57.54l25.91-23.69-1.67-1.76-25.35,24.29,1.11,1.16ZM171.71,60.11l27.04-22.39-1.51-1.75-26.54,22.99,1.01,1.16ZM173.82,62.79l28.11-21.04-1.36-1.73-27.66,21.62.91,1.15ZM175.79,65.56l29.11-19.63-1.2-1.71-28.71,20.21.8,1.13ZM177.62,68.43l30.04-18.17c-.34-.57-.7-1.12-1.06-1.67l-29.69,18.74c.23.37.48.73.71,1.11ZM179.3,71.38l30.9-16.66c-.28-.55-.61-1.09-.91-1.63l-30.6,17.21c.2.36.43.71.61,1.08ZM180.84,74.41l31.69-15.11c-.23-.54-.52-1.05-.78-1.57l-31.43,15.65c.17.35.37.68.52,1.04ZM182.23,77.51l32.4-13.52c-.19-.51-.43-1.01-.65-1.51l-32.18,14.03c.15.33.31.65.43,1ZM183.45,80.68l33.03-11.89c-.16-.49-.35-.96-.54-1.44l-32.85,12.38c.12.31.26.62.36.95ZM184.52,83.9l33.58-10.24c-.12-.46-.27-.91-.43-1.35l-33.44,10.7c.1.3.21.59.28.89ZM185.21,86.34c.08.28.16.55.22.84l33.02-8.29v3.99l-32.44,6.84c.06.26.12.51.16.77l32.28-6.42v4.02l-31.81,5.04c.05.23.09.47.11.71l31.7-4.69v4.06l-31.35,3.36c.03.21.06.42.07.64l31.28-3.06v4.13l-31.07,1.76c.01.19.04.38.04.57l31.03-1.51v4.21l-30.96.22.02.5h30.94s4.19,0,4.19,0V35.19h.04S224.09.11,224.09.11l-1.44-.04v-.07h-4.19v77.54l-33.24,8.8ZM117.18,104.02h4.19V35.19h.04S122.81.11,122.81.11l-1.44-.04v-.07h-4.19v104.02ZM226.09,35.41L229.2.44l-4.1-.3-1.74,35.07,2.72.21ZM229.47,35.79l4.83-34.78c-1.32-.17-2.64-.34-3.97-.49l-3.49,34.94,2.63.33ZM232.82,36.35l6.55-34.49c-1.28-.23-2.55-.46-3.83-.67l-5.25,34.71,2.53.45ZM236.14,37.06l8.25-34.13-3.69-.84-7,34.4,2.43.56ZM239.42,37.94l9.94-33.67-3.53-1-8.74,34.01,2.33.66ZM242.65,38.98l11.6-33.14-3.37-1.14-10.45,33.52,2.22.76ZM245.82,40.18l13.23-32.52-3.2-1.26-12.14,32.94,2.11.84ZM248.94,41.54l14.83-31.82-3.04-1.37-13.8,32.28,2,.91ZM251.98,43.05l16.39-31.05-2.86-1.46-15.42,31.54,1.89.97ZM254.95,44.71l17.9-30.2-2.69-1.55-16.99,30.72,1.78,1.02ZM257.83,46.51l19.37-29.28-2.52-1.61-18.52,29.83,1.67,1.07ZM260.62,48.46l20.79-28.29-2.34-1.67-20,28.86,1.56,1.1ZM263.31,50.54l22.16-27.24-2.17-1.71-21.43,27.81,1.44,1.13ZM265.9,52.75l23.47-26.12-2-1.74-22.8,26.7,1.33,1.15ZM268.38,55.09l24.72-24.93-1.84-1.75-24.11,25.53,1.22,1.16ZM270.74,57.54l25.91-23.69-1.67-1.76-25.35,24.29,1.11,1.16ZM272.98,60.11l27.04-22.39-1.51-1.75-26.54,22.99,1.01,1.16ZM275.09,62.79l28.11-21.04-1.36-1.73-27.66,21.62.91,1.15ZM277.06,65.56l29.11-19.63-1.2-1.71-28.71,20.21.8,1.13ZM278.89,68.43l30.04-18.17c-.34-.57-.7-1.12-1.06-1.67l-29.69,18.74c.23.37.48.73.71,1.11ZM280.58,71.38l30.9-16.66c-.28-.55-.61-1.09-.91-1.63l-30.6,17.21c.2.36.43.71.61,1.08ZM282.11,74.41l31.69-15.11c-.23-.54-.52-1.05-.78-1.57l-31.43,15.65c.17.35.37.68.52,1.04ZM283.5,77.51l32.4-13.52c-.19-.51-.43-1.01-.65-1.51l-32.18,14.03c.15.33.31.65.43,1ZM284.73,80.68l33.03-11.89c-.16-.49-.35-.96-.54-1.44l-32.85,12.38c.12.31.26.62.36.95ZM285.8,83.9l33.58-10.24c-.12-.46-.27-.91-.43-1.35l-33.44,10.7c.1.3.21.59.28.89ZM286.7,87.17l34.05-8.55c-.09-.43-.21-.85-.33-1.27l-33.94,8.98c.08.28.16.55.22.84ZM287.45,90.49l34.43-6.85c-.07-.39-.15-.78-.24-1.17l-34.35,7.25c.06.26.12.51.16.77ZM288.03,93.83l34.73-5.14c-.04-.36-.1-.71-.17-1.07l-34.68,5.5c.05.23.09.47.11.71ZM288.45,97.21l34.94-3.42c-.02-.32-.06-.64-.1-.96l-34.91,3.74c.03.21.06.42.07.64ZM288.7,100.61l35.07-1.7c0-.28-.04-.57-.05-.85l-35.05,1.99c.01.19.04.38.04.57ZM288.79,104.02h35.11l-.02-.74-35.11.25.02.5Z" fill="#6d6038"/>
  <g>
    <path d="M105.06,52.71h-35.22c-.03.43,0,.87-.06,1.3l35.12,2.57c.12-1.29.12-2.58.15-3.87Z" fill="#6d6038"/>
    <path d="M104.84,57.41l-35.08-3.12c0,.21-.05.42-.07.63-.03.21-.04.42-.09.63l34.76,5.68c.12-.63.19-1.27.27-1.9.08-.64.17-1.27.21-1.91Z" fill="#6d6038"/>
    <path d="M104.21,62.08l-34.66-6.25c-.05.41-.18.81-.25,1.22l34.11,8.76c.29-1.24.6-2.47.8-3.72Z" fill="#6d6038"/>
    <path d="M103.16,66.69l-33.95-9.36c-.06.2-.11.39-.17.59-.07.19-.14.39-.2.58l33.19,11.77.6-1.78c.19-.6.35-1.2.53-1.81Z" fill="#6d6038"/>
    <path d="M101.71,71.19l-32.97-12.39c-.08.19-.15.37-.22.56-.07.19-.17.37-.25.55l32.01,14.69c.25-.56.52-1.12.75-1.7l.68-1.73Z" fill="#6d6038"/>
    <path d="M99.85,75.54l-31.71-15.31c-.2.35-.35.72-.57,1.06l30.57,17.49c.62-1.05,1.16-2.14,1.71-3.23Z" fill="#6d6038"/>
    <path d="M97.6,79.69l-30.21-18.1c-.09.17-.22.33-.32.5-.1.17-.21.34-.33.49l28.9,20.13c.35-.49.68-.99,1-1.5.32-.51.66-1.01.96-1.53Z" fill="#6d6038"/>
    <path d="M95,83.62l-28.46-20.74c-.11.17-.23.31-.36.47-.13.15-.23.32-.37.46l27,22.61c.39-.45.74-.92,1.11-1.38.37-.47.73-.93,1.07-1.42Z" fill="#6d6038"/>
    <path d="M92.06,87.3l-26.5-23.2c-.24.31-.53.56-.79.86l24.9,24.9c.81-.84,1.63-1.67,2.39-2.56Z" fill="#6d6038"/>
    <path d="M88.8,90.7l-24.33-25.47c-.27.28-.57.51-.85.77l22.61,27c.88-.75,1.75-1.5,2.57-2.31Z" fill="#6d6038"/>
    <polygon points="85.25 93.79 63.3 66.26 62.86 66.61 62.4 66.93 82.52 95.83 83.91 94.84 85.25 93.79" fill="#6d6038"/>
    <path d="M81.44,96.57l-19.41-29.39-.47.3c-.15.1-.32.18-.48.28l17.48,30.57c.48-.28.98-.55,1.45-.85l1.42-.91Z" fill="#6d6038"/>
    <path d="M77.4,98.99l-16.69-31.01c-.33.15-.64.35-.98.48l14.69,32.01c1.02-.44,1.99-.97,2.98-1.47Z" fill="#6d6038"/>
    <path d="M73.14,101.04l-13.83-32.39c-.33.12-.66.27-1,.38l11.77,33.19c1.03-.36,2.04-.77,3.05-1.19Z" fill="#6d6038"/>
    <path d="M68.71,102.69l-10.84-33.51c-.33.12-.68.19-1.01.3l8.75,34.11c1.04-.29,2.08-.56,3.1-.91Z" fill="#6d6038"/>
    <path d="M64.15,103.94l-7.77-34.35c-.33.09-.68.13-1.02.2l5.67,34.76c1.04-.18,2.09-.36,3.12-.61Z" fill="#6d6038"/>
    <polygon points="59.5 104.77 54.85 69.86 54.34 69.93 53.83 69.97 56.4 105.09 57.95 104.97 59.5 104.77" fill="#6d6038"/>
    <polygon points="54.81 105.19 53.3 70 52.78 70.02 52.52 70.03 52.27 70.02 51.75 105.23 52.52 105.24 53.28 105.23 54.81 105.19" fill="#6d6038"/>
    <path d="M50.12,105.19l1.6-35.18-1-.07-3.61,35.03c1,.09,2.01.17,3.01.22Z" fill="#6d6038"/>
    <path d="M45.43,104.76l4.73-34.9c-.33-.02-.64-.11-.97-.16l-6.71,34.57c.98.17,1.96.37,2.94.48Z" fill="#6d6038"/>
    <polygon points="40.78 103.91 48.64 69.58 48.17 69.48 47.71 69.34 37.94 103.18 39.35 103.57 40.78 103.91" fill="#6d6038"/>
    <path d="M36.23,102.65l10.93-33.48c-.3-.11-.6-.19-.89-.32l-12.76,32.82c.89.36,1.81.67,2.72.97Z" fill="#6d6038"/>
    <path d="M31.8,100.99l13.91-32.36c-.28-.14-.57-.24-.84-.39l-15.64,31.55c.84.43,1.71.8,2.58,1.19Z" fill="#6d6038"/>
    <path d="M27.55,98.93l16.76-30.97-.79-.46-18.39,30.04c.8.48,1.6.94,2.41,1.39Z" fill="#6d6038"/>
    <path d="M23.5,96.5l19.48-29.34c-.26-.16-.49-.35-.74-.52l-20.98,28.29c.74.53,1.48,1.07,2.24,1.57Z" fill="#6d6038"/>
    <path d="M19.7,93.71l22.02-27.48c-.24-.17-.45-.39-.68-.57l-23.39,26.32c.68.58,1.34,1.19,2.05,1.73Z" fill="#6d6038"/>
    <path d="M16.16,90.61l24.39-25.41c-.22-.19-.42-.41-.62-.62l-25.63,24.16c.6.64,1.21,1.27,1.86,1.87Z" fill="#6d6038"/>
    <path d="M12.92,87.2l26.56-23.13-.28-.32-.26-.34-27.66,21.8c.27.34.53.68.81,1.01l.84.98Z" fill="#6d6038"/>
    <path d="M9.98,83.51l28.52-20.67c-.16-.23-.34-.45-.48-.69l-29.48,19.26c.45.72.95,1.4,1.44,2.09Z" fill="#6d6038"/>
    <path d="M7.39,79.58l30.25-18.03c-.13-.24-.28-.47-.4-.72l-31.08,16.57c.38.74.81,1.45,1.23,2.18Z" fill="#6d6038"/>
    <path d="M5.15,75.42l31.75-15.24c-.1-.25-.21-.49-.33-.73l-32.43,13.73,1.01,2.24Z" fill="#6d6038"/>
    <path d="M3.3,71.07l33-12.31c-.1-.24-.16-.5-.26-.74L2.52,68.79c.26.76.5,1.52.79,2.27Z" fill="#6d6038"/>
    <path d="M1.86,66.57l33.97-9.27c-.08-.24-.12-.5-.18-.75L1.29,64.28c.18.77.34,1.53.57,2.29Z" fill="#6d6038"/>
    <path d="M.82,61.95l34.67-6.17-.07-.37c-.02-.12-.03-.25-.05-.38L.47,59.68c.05.38.1.76.16,1.14l.2,1.14Z" fill="#6d6038"/>
    <path d="M.2,57.28l35.09-3.04c-.01-.25-.05-.5-.05-.75L.05,55.03c.02.75.1,1.5.15,2.24Z" fill="#6d6038"/>
    <path d="M0,52.59l35.22.08c.01-.25.02-.49.02-.74L.05,50.39l-.05,2.2Z" fill="#6d6038"/>
    <path d="M.22,47.89l35.07,3.21c0-.24.06-.47.08-.71L.47,45.75c-.08.71-.2,1.43-.24,2.14Z" fill="#6d6038"/>
    <polygon points=".87 43.22 35.51 49.56 35.57 49.22 35.65 48.88 1.29 41.15 1.06 42.18 .87 43.22" fill="#6d6038"/>
    <path d="M1.93,38.61l33.93,9.44c.07-.21.11-.44.19-.65L2.52,36.63c-.23.65-.4,1.32-.59,1.98Z" fill="#6d6038"/>
    <path d="M3.4,34.12l32.94,12.47c.08-.2.16-.41.24-.61L4.14,32.24l-.75,1.88Z" fill="#6d6038"/>
    <path d="M5.26,29.78l31.68,15.39c.1-.19.2-.38.3-.57L6.16,28.02l-.9,1.75Z" fill="#6d6038"/>
    <path d="M7.52,25.63l30.16,18.18c.11-.18.23-.35.34-.53L8.54,24.01c-.34.54-.7,1.07-1.03,1.62Z" fill="#6d6038"/>
    <path d="M10.13,21.7l28.41,20.81c.11-.18.25-.33.38-.49L11.27,20.22c-.38.49-.78.97-1.13,1.49Z" fill="#6d6038"/>
    <polygon points="13.08 18.03 39.53 41.29 39.72 41.06 39.93 40.85 14.31 16.69 13.68 17.35 13.08 18.03" fill="#6d6038"/>
    <path d="M16.35,14.64l24.26,25.53c.14-.13.28-.28.43-.4L17.65,13.44c-.45.38-.87.79-1.3,1.2Z" fill="#6d6038"/>
    <path d="M19.9,11.55l21.89,27.59c.15-.11.29-.24.45-.35L21.27,10.5c-.46.34-.91.7-1.36,1.05Z" fill="#6d6038"/>
    <polygon points="23.72 8.79 43.05 38.23 43.52 37.93 25.13 7.89 23.72 8.79" fill="#6d6038"/>
    <polygon points="27.77 6.38 44.39 37.43 44.86 37.19 29.23 5.63 27.77 6.38" fill="#6d6038"/>
    <polygon points="32.03 4.34 45.78 36.76 46.26 36.57 33.51 3.75 32.03 4.34" fill="#6d6038"/>
    <path d="M36.47,2.7l10.76,33.53c.16-.06.32-.09.48-.14L37.94,2.25c-.49.14-.99.28-1.47.44Z" fill="#6d6038"/>
    <path d="M41.03,1.46l7.69,34.37c.16-.04.31-.08.48-.1L42.49,1.15c-.49.08-.97.2-1.46.31Z" fill="#6d6038"/>
    <polygon points="45.68 .64 50.24 35.56 50.71 35.49 47.11 .46 45.68 .64" fill="#6d6038"/>
    <polygon points="50.37 .23 51.8 35.42 52.27 35.41 51.75 .2 50.37 .23" fill="#6d6038"/>
    <polygon points="55.07 .25 53.37 35.42 53.82 35.46 56.41 .34 55.07 .25" fill="#6d6038"/>
    <path d="M59.76.69l-4.83,34.88c.14,0,.28.05.42.07L61.04.88c-.43-.07-.85-.15-1.28-.2Z" fill="#6d6038"/>
    <path d="M64.4,1.55l-7.94,34.31c.14.02.27.06.4.1L65.61,1.84c-.4-.11-.8-.21-1.21-.29Z" fill="#6d6038"/>
    <path d="M68.94,2.82l-10.99,33.46c.12.04.25.07.37.12L70.08,3.2c-.37-.14-.76-.25-1.14-.38Z" fill="#6d6038"/>
    <polygon points="73.36 4.49 59.4 36.82 59.75 36.97 74.42 4.95 73.36 4.49" fill="#6d6038"/>
    <polygon points="77.61 6.56 60.79 37.5 61.1 37.67 78.58 7.1 77.61 6.56" fill="#6d6038"/>
    <polygon points="81.66 9 62.11 38.29 62.39 38.49 82.53 9.6 81.66 9" fill="#6d6038"/>
    <path d="M85.47,11.8l-22.11,27.42c.09.06.17.14.25.21l22.62-26.99c-.26-.21-.5-.44-.77-.64Z" fill="#6d6038"/>
    <polygon points="88.99 14.91 64.53 40.26 64.77 40.47 89.67 15.57 88.99 14.91" fill="#6d6038"/>
  </g>
</svg>