<?xml version="1.0" encoding="UTF-8"?>
<svg id="Layer_3" data-name="Layer 3" xmlns="http://www.w3.org/2000/svg" viewBox="0 0 379.38 123.27">
  <polygon points="81.75 64.26 123.12 64.26 123.12 61.67 81.75 61.85 81.75 64.26" fill="#fff8e8"/>
  <rect x="118.2" y="61.85" width="4.92" height="59.95" fill="#fff8e8"/>
  <path d="M149.84.51l-3.65,40.96-3.19-.24L145.05.16l4.8.35ZM150.15,41.93l5.66-40.73c-1.55-.2-3.1-.4-4.65-.58l-4.09,40.92,3.08.39ZM154.08,42.57l7.67-40.4c-1.5-.27-2.99-.54-4.49-.79l-6.15,40.66,2.97.53ZM157.97,43.41l9.67-39.97-4.32-.98-8.2,40.3,2.85.66ZM161.81,44.44l11.64-39.44-4.14-1.17-10.23,39.83,2.73.78ZM165.59,45.66l13.59-38.81-3.95-1.33-12.25,39.26,2.6.89ZM169.31,47.07l15.5-38.09-3.75-1.48-14.22,38.59,2.48.98ZM172.96,48.65l17.37-37.27-3.56-1.6-16.16,37.81,2.35,1.06ZM176.52,50.42l19.2-36.37-3.35-1.72-18.06,36.95,2.22,1.14ZM180,52.37l20.97-35.38-3.15-1.81-19.91,35.99,2.09,1.2ZM183.37,54.48l22.69-34.3-2.95-1.89-21.7,34.94,1.95,1.25ZM186.65,56.76l24.35-33.14-2.75-1.95-23.43,33.8,1.82,1.29ZM189.8,59.2l25.95-31.9-2.54-2-25.1,32.58,1.69,1.33ZM192.83,61.79l27.49-30.59-2.35-2.04-26.7,31.28,1.56,1.35ZM195.74,64.53l28.95-29.21-2.15-2.05-28.23,29.9,1.43,1.36ZM198.5,67.4l30.35-27.75-1.96-2.06-29.7,28.45,1.31,1.36ZM201.13,70.41l31.68-26.23-1.77-2.05-31.09,26.92,1.18,1.36ZM203.6,73.54l32.93-24.64-1.59-2.03-32.4,25.33,1.06,1.34ZM205.9,76.79l34.1-22.99-1.41-2-33.63,23.67.94,1.32ZM208.05,80.15l35.19-21.28c-.4-.66-.82-1.31-1.24-1.96l-34.78,21.95c.27.43.56.86.83,1.3ZM210.02,83.61l36.2-19.52c-.33-.65-.71-1.27-1.07-1.91l-35.84,20.16c.24.42.5.83.71,1.26ZM211.82,87.16l37.12-17.7c-.27-.63-.61-1.23-.91-1.84l-36.82,18.33c.2.41.43.8.61,1.22ZM213.44,90.79l37.95-15.84c-.23-.6-.51-1.18-.77-1.77l-37.7,16.44c.17.39.37.77.51,1.17ZM214.88,94.5l38.69-13.93c-.18-.57-.41-1.12-.63-1.68l-38.48,14.5c.15.37.3.73.42,1.11ZM216.13,98.27l39.34-11.99c-.14-.54-.32-1.06-.5-1.59l-39.17,12.53c.12.35.24.69.33,1.05ZM216.94,101.13c.1.32.19.65.25.98l38.68-9.72v4.67l-38,8.02c.08.3.14.6.19.91l37.81-7.52v4.71l-37.26,5.91c.05.27.1.55.13.83l37.13-5.49v4.76l-36.72,3.94c.03.25.07.5.08.75l36.64-3.59v4.83l-36.39,2.07c.01.22.05.44.04.67l36.35-1.77v4.93l-36.26.26.02.58h36.24s4.9,0,4.9,0V41.21h.05S262.48.12,262.48.12l-1.69-.04v-.08h-4.9v90.82l-38.94,10.3ZM137.26,121.84h4.9V41.21h.05S143.85.12,143.85.12l-1.69-.04v-.08h-4.9v121.84ZM264.82,41.47l3.65-40.96-4.8-.35-2.04,41.07,3.19.24ZM268.78,41.93l5.66-40.73c-1.55-.2-3.1-.4-4.65-.58l-4.09,40.92,3.08.39ZM272.7,42.57l7.67-40.4c-1.5-.27-2.99-.54-4.49-.79l-6.15,40.66,2.97.53ZM276.59,43.41l9.67-39.97-4.32-.98-8.2,40.3,2.85.66ZM280.43,44.44l11.64-39.44-4.14-1.17-10.23,39.83,2.73.78ZM284.22,45.66l13.59-38.81-3.95-1.33-12.24,39.26,2.6.89ZM287.94,47.07l15.5-38.09-3.75-1.48-14.22,38.59,2.48.98ZM291.58,48.65l17.37-37.27-3.56-1.6-16.16,37.81,2.35,1.06ZM295.15,50.42l19.2-36.37-3.35-1.72-18.06,36.95,2.22,1.14ZM298.62,52.37l20.97-35.38-3.15-1.81-19.91,35.99,2.09,1.2ZM302,54.48l22.69-34.3-2.95-1.89-21.7,34.94,1.95,1.25ZM305.27,56.76l24.35-33.14-2.75-1.95-23.43,33.8,1.82,1.29ZM308.42,59.2l25.95-31.9-2.54-2-25.1,32.58,1.69,1.33ZM311.46,61.79l27.49-30.59-2.35-2.04-26.7,31.28,1.56,1.35ZM314.36,64.53l28.95-29.21-2.15-2.05-28.23,29.9,1.43,1.36ZM317.13,67.4l30.35-27.75-1.96-2.06-29.7,28.45,1.31,1.36ZM319.75,70.41l31.68-26.23-1.77-2.05-31.09,26.92,1.18,1.36ZM322.22,73.54l32.93-24.64-1.59-2.03-32.4,25.33,1.06,1.34ZM324.53,76.79l34.1-22.99-1.41-2-33.63,23.67.94,1.32ZM326.67,80.15l35.19-21.28c-.4-.66-.82-1.31-1.24-1.96l-34.78,21.95c.27.43.56.86.83,1.3ZM328.64,83.61l36.2-19.52c-.33-.65-.71-1.27-1.07-1.91l-35.84,20.16c.24.42.5.83.71,1.26ZM330.44,87.16l37.12-17.7c-.27-.63-.61-1.23-.91-1.84l-36.82,18.33c.2.41.44.8.61,1.22ZM332.06,90.79l37.95-15.84c-.23-.6-.51-1.18-.77-1.77l-37.7,16.44c.17.39.37.77.51,1.17ZM333.5,94.5l38.69-13.93c-.18-.57-.41-1.12-.63-1.68l-38.48,14.5c.15.37.3.73.42,1.11ZM334.76,98.27l39.34-11.99c-.14-.54-.32-1.06-.5-1.59l-39.17,12.53c.12.35.24.69.33,1.05ZM335.82,102.11l39.89-10.02c-.11-.5-.24-.99-.38-1.48l-39.76,10.52c.1.32.19.65.25.98ZM336.69,105.99l40.33-8.02c-.08-.46-.17-.92-.28-1.37l-40.24,8.49c.08.3.14.6.19.91ZM337.37,109.91l40.68-6.02c-.05-.42-.12-.84-.19-1.25l-40.62,6.44c.05.27.1.55.13.83ZM337.86,113.86l40.93-4.01c-.02-.38-.07-.75-.12-1.13l-40.89,4.39c.03.25.07.5.08.75ZM338.16,117.84l41.08-2c0-.33-.04-.67-.06-1l-41.06,2.33c.01.22.05.44.04.67ZM338.26,121.84h41.12l-.02-.87-41.12.29.02.58Z" fill="#fff8e8"/>
  <g>
    <path d="M123.06,61.74h-41.25c-.03.51,0,1.02-.07,1.52l41.14,3.02c.14-1.51.14-3.02.18-4.54Z" fill="#fff8e8"/>
    <path d="M122.8,67.24l-41.09-3.66c0,.25-.05.49-.08.74-.04.24-.04.5-.1.73l40.71,6.65c.14-.74.22-1.49.32-2.23.09-.75.19-1.49.24-2.24Z" fill="#fff8e8"/>
    <path d="M122.06,72.72l-40.6-7.33c-.06.48-.21.95-.3,1.43l39.96,10.26c.34-1.45.7-2.89.94-4.36Z" fill="#fff8e8"/>
    <path d="M120.84,78.11l-39.77-10.96c-.07.23-.12.46-.2.69-.08.23-.16.45-.23.68l38.88,13.79.7-2.09c.22-.7.41-1.41.62-2.11Z" fill="#fff8e8"/>
    <path d="M119.13,83.38l-38.61-14.51c-.09.22-.18.44-.26.66-.09.22-.2.43-.29.65l37.49,17.21c.3-.66.6-1.32.88-1.99l.8-2.02Z" fill="#fff8e8"/>
    <path d="M116.96,88.48l-37.15-17.94c-.23.41-.41.84-.67,1.24l35.81,20.48c.73-1.23,1.36-2.51,2.01-3.78Z" fill="#fff8e8"/>
    <path d="M114.32,93.34l-35.38-21.2c-.11.2-.25.39-.37.59-.12.2-.24.4-.39.58l33.85,23.58c.41-.57.8-1.16,1.18-1.75.38-.59.77-1.18,1.12-1.79Z" fill="#fff8e8"/>
    <path d="M111.27,97.94l-33.34-24.29c-.12.19-.27.37-.42.55-.15.18-.27.37-.43.54l31.63,26.48c.46-.52.87-1.08,1.3-1.62.43-.55.86-1.09,1.26-1.66Z" fill="#fff8e8"/>
    <path d="M107.83,102.25l-31.04-27.17c-.28.36-.63.66-.92,1l29.17,29.17c.94-.99,1.91-1.96,2.79-3Z" fill="#fff8e8"/>
    <path d="M104.01,106.23l-28.49-29.83c-.31.32-.66.6-1,.9l26.48,31.63c1.02-.88,2.05-1.76,3.01-2.7Z" fill="#fff8e8"/>
    <polygon points="99.86 109.86 74.14 77.61 73.63 78.02 73.08 78.4 96.66 112.25 98.29 111.09 99.86 109.86" fill="#fff8e8"/>
    <path d="M95.4,113.11l-22.73-34.42-.55.35c-.18.12-.38.21-.56.33l20.48,35.81c.57-.33,1.14-.65,1.7-1l1.66-1.06Z" fill="#fff8e8"/>
    <path d="M90.66,115.95l-19.55-36.32c-.39.18-.75.41-1.14.56l17.21,37.49c1.19-.52,2.33-1.14,3.49-1.73Z" fill="#fff8e8"/>
    <path d="M85.67,118.35l-16.2-37.94c-.39.15-.77.32-1.17.45l13.79,38.88c1.21-.42,2.39-.91,3.58-1.39Z" fill="#fff8e8"/>
    <path d="M80.48,120.28l-12.7-39.25c-.39.14-.79.22-1.18.35l10.25,39.96c1.21-.34,2.44-.66,3.63-1.06Z" fill="#fff8e8"/>
    <path d="M75.14,121.75l-9.1-40.23c-.39.11-.8.16-1.19.24l6.64,40.71c1.22-.22,2.44-.42,3.65-.71Z" fill="#fff8e8"/>
    <polygon points="69.69 122.72 64.25 81.83 63.65 81.91 63.05 81.96 66.06 123.1 67.88 122.95 69.69 122.72" fill="#fff8e8"/>
    <polygon points="64.2 123.21 62.43 82 61.82 82.01 61.52 82.02 61.22 82.01 60.62 123.26 61.51 123.27 62.41 123.26 64.2 123.21" fill="#fff8e8"/>
    <path d="M58.7,123.2l1.87-41.21-1.18-.08-4.22,41.03c1.17.1,2.35.2,3.53.26Z" fill="#fff8e8"/>
    <path d="M53.21,122.7l5.54-40.88c-.38-.03-.75-.13-1.13-.18l-7.86,40.5c1.15.2,2.29.43,3.45.56Z" fill="#fff8e8"/>
    <polygon points="47.77 121.71 56.97 81.5 56.42 81.38 55.88 81.22 44.44 120.85 46.1 121.32 47.77 121.71" fill="#fff8e8"/>
    <path d="M42.43,120.24l12.8-39.22c-.35-.12-.7-.22-1.04-.37l-14.95,38.45c1.04.43,2.12.78,3.19,1.14Z" fill="#fff8e8"/>
    <path d="M37.25,118.29l16.29-37.9c-.32-.16-.67-.28-.99-.46l-18.32,36.96c.98.51,2.01.94,3.02,1.4Z" fill="#fff8e8"/>
    <path d="M32.27,115.88l19.64-36.28-.93-.54-21.53,35.18c.93.56,1.88,1.1,2.83,1.63Z" fill="#fff8e8"/>
    <path d="M27.53,113.03l22.81-34.37c-.3-.19-.57-.41-.87-.61l-24.57,33.14c.87.62,1.73,1.26,2.62,1.84Z" fill="#fff8e8"/>
    <path d="M23.08,109.77l25.8-32.19c-.29-.2-.53-.45-.8-.67l-27.4,30.83c.79.68,1.57,1.39,2.4,2.03Z" fill="#fff8e8"/>
    <path d="M18.93,106.13l28.56-29.76c-.26-.23-.49-.48-.72-.73l-30.02,28.3c.71.75,1.42,1.49,2.17,2.19Z" fill="#fff8e8"/>
    <path d="M15.13,102.14l31.1-27.09-.33-.38-.31-.4-32.4,25.53c.31.4.62.8.95,1.19l.99,1.15Z" fill="#fff8e8"/>
    <path d="M11.69,97.82l33.4-24.21c-.18-.27-.4-.53-.56-.81l-34.53,22.57c.53.84,1.12,1.64,1.69,2.45Z" fill="#fff8e8"/>
    <path d="M8.65,93.21l35.43-21.12c-.15-.28-.33-.55-.47-.84L7.21,90.66c.45.87.95,1.7,1.44,2.55Z" fill="#fff8e8"/>
    <path d="M6.03,88.34l37.19-17.85c-.12-.29-.25-.57-.39-.86L4.85,85.72l1.18,2.62Z" fill="#fff8e8"/>
    <path d="M3.87,83.24l38.65-14.42c-.11-.29-.19-.58-.3-.87L2.95,80.58c.3.89.59,1.79.92,2.66Z" fill="#fff8e8"/>
    <path d="M2.18,77.97l39.79-10.86c-.1-.28-.14-.58-.22-.88L1.51,75.29c.21.9.4,1.8.67,2.68Z" fill="#fff8e8"/>
    <path d="M.96,72.57l40.61-7.23-.08-.44c-.02-.15-.03-.29-.05-.44L.55,69.9c.06.45.11.89.18,1.34l.23,1.33Z" fill="#fff8e8"/>
    <path d="M.24,67.09l41.1-3.56c-.01-.29-.06-.58-.06-.88L.06,64.46c.03.88.11,1.75.18,2.63Z" fill="#fff8e8"/>
    <path d="M0,61.6l41.25.1c.01-.29.02-.58.02-.87L.06,59.02l-.06,2.57Z" fill="#fff8e8"/>
    <path d="M.26,56.1l41.08,3.75c0-.28.07-.55.1-.83L.55,53.59c-.1.84-.23,1.67-.29,2.51Z" fill="#fff8e8"/>
    <polygon points="1.02 50.62 41.59 58.05 41.66 57.65 41.75 57.26 1.51 48.2 1.24 49.41 1.02 50.62" fill="#fff8e8"/>
    <path d="M2.26,45.23l39.74,11.06c.08-.25.12-.51.22-.76L2.95,42.91c-.27.76-.46,1.55-.69,2.32Z" fill="#fff8e8"/>
    <path d="M3.98,39.96l38.58,14.61c.1-.24.19-.48.28-.72L4.85,37.76l-.87,2.2Z" fill="#fff8e8"/>
    <path d="M6.17,34.88l37.1,18.03c.12-.22.24-.45.35-.67L7.22,32.82l-1.05,2.05Z" fill="#fff8e8"/>
    <path d="M8.8,30.02l35.33,21.29c.13-.21.27-.41.4-.62L10.01,28.12c-.4.63-.81,1.26-1.2,1.9Z" fill="#fff8e8"/>
    <path d="M11.87,25.42l33.28,24.37c.13-.21.3-.38.44-.57L13.19,23.68c-.45.58-.91,1.14-1.33,1.74Z" fill="#fff8e8"/>
    <polygon points="15.33 21.12 46.3 48.37 46.53 48.1 46.77 47.85 16.76 19.55 16.03 20.32 15.33 21.12" fill="#fff8e8"/>
    <path d="M19.15,17.15l28.42,29.9c.17-.16.32-.33.51-.47L20.67,15.75c-.53.45-1.02.93-1.52,1.41Z" fill="#fff8e8"/>
    <path d="M23.31,13.53l25.64,32.32c.18-.13.35-.28.53-.41L24.91,12.3c-.54.4-1.07.82-1.6,1.23Z" fill="#fff8e8"/>
    <polygon points="27.78 10.3 50.43 44.78 50.97 44.43 29.44 9.24 27.78 10.3" fill="#fff8e8"/>
    <polygon points="32.53 7.47 51.99 43.84 52.55 43.56 34.23 6.6 32.53 7.47" fill="#fff8e8"/>
    <polygon points="37.52 5.08 53.62 43.06 54.19 42.84 39.25 4.39 37.52 5.08" fill="#fff8e8"/>
    <path d="M42.72,3.16l12.6,39.28c.18-.07.38-.11.56-.17L44.44,2.64c-.58.17-1.16.32-1.72.52Z" fill="#fff8e8"/>
    <path d="M48.06,1.71l9,40.26c.18-.04.37-.1.56-.12L49.77,1.35c-.57.1-1.14.23-1.71.36Z" fill="#fff8e8"/>
    <polygon points="53.51 .75 58.85 41.65 59.4 41.58 55.18 .54 53.51 .75" fill="#fff8e8"/>
    <polygon points="59 .27 60.68 41.49 61.22 41.48 60.62 .23 59 .27" fill="#fff8e8"/>
    <polygon points="64.51 .29 62.52 41.49 63.04 41.53 66.07 .39 64.51 .29" fill="#fff8e8"/>
    <path d="M70,.8l-5.66,40.86c.17.01.33.06.49.08L71.5,1.04c-.5-.08-.99-.18-1.49-.23Z" fill="#fff8e8"/>
    <path d="M75.43,1.81l-9.3,40.19c.16.03.31.06.47.11L76.85,2.16c-.47-.13-.94-.24-1.42-.34Z" fill="#fff8e8"/>
    <path d="M80.75,3.3l-12.87,39.19c.14.05.3.08.44.14L82.08,3.74c-.44-.16-.89-.3-1.33-.45Z" fill="#fff8e8"/>
    <polygon points="85.93 5.26 69.58 43.13 69.98 43.3 87.16 5.8 85.93 5.26" fill="#fff8e8"/>
    <polygon points="90.91 7.68 71.2 43.92 71.57 44.13 92.04 8.31 90.91 7.68" fill="#fff8e8"/>
    <polygon points="95.65 10.54 72.75 44.85 73.08 45.09 96.67 11.24 95.65 10.54" fill="#fff8e8"/>
    <path d="M100.11,13.82l-25.89,32.11c.11.07.2.17.3.25l26.5-31.61c-.3-.25-.59-.51-.9-.75Z" fill="#fff8e8"/>
    <polygon points="104.23 17.47 75.59 47.15 75.87 47.41 105.03 18.24 104.23 17.47" fill="#fff8e8"/>
  </g>
</svg>