<?xml version="1.0" encoding="UTF-8"?>
<svg id="Layer_3" data-name="Layer 3" xmlns="http://www.w3.org/2000/svg" viewBox="0 0 679.24 312.56">
  <g>
    <polygon points="145.9 160.63 219.74 160.63 219.74 156 145.9 156.33 145.9 160.63" fill="#fff8e8"/>
    <rect x="210.97" y="156.33" width="8.78" height="107" fill="#fff8e8"/>
    <path d="M267.45,46.85l-6.51,73.11-5.69-.43,3.64-73.31,8.56.63ZM268,120.77l10.11-72.7c-2.76-.35-5.53-.72-8.3-1.03l-7.31,73.04,5.5.69ZM275.02,121.92l13.69-72.11c-2.67-.48-5.34-.97-8.01-1.41l-10.98,72.58,5.3.94ZM281.95,123.42l17.25-71.34-7.7-1.76-14.63,71.93,5.09,1.17ZM288.81,125.25l20.78-70.4-7.38-2.08-18.27,71.09,4.87,1.39ZM295.56,127.43l24.25-69.28-7.04-2.37-21.86,70.07,4.65,1.58ZM302.2,129.94l27.67-67.99-6.7-2.63-25.39,68.87,4.42,1.75ZM308.71,132.78l31.01-66.53-6.35-2.86-28.85,67.49,4.19,1.9ZM315.07,135.93l34.26-64.91-5.99-3.06-32.24,65.94,3.96,2.03ZM321.27,139.4l37.43-63.14-5.62-3.23-35.53,64.23,3.72,2.14ZM327.3,143.18l40.5-61.22-5.26-3.37-38.73,62.35,3.49,2.24ZM333.13,147.24l43.46-59.15-4.9-3.49-41.82,60.33,3.25,2.31ZM338.77,151.6l46.32-56.94-4.54-3.57-44.8,58.15,3.02,2.37ZM344.18,156.22l49.06-54.6-4.19-3.63-47.66,55.83,2.79,2.41ZM349.36,161.1l51.68-52.13-3.84-3.67-50.39,53.37,2.56,2.43ZM354.3,166.24l54.17-49.53-3.49-3.68-53.01,50.77,2.33,2.43ZM358.98,171.61l56.54-46.81-3.16-3.66-55.48,48.05,2.11,2.42ZM363.39,177.2l58.77-43.98-2.84-3.63-57.83,45.21,1.9,2.4ZM367.51,183l60.86-41.03-2.52-3.57-60.02,42.25,1.68,2.36ZM371.33,188.99l62.81-37.98c-.71-1.18-1.47-2.33-2.21-3.5l-62.08,39.17c.49.77,1.01,1.53,1.47,2.31ZM374.86,195.17l64.61-34.83c-.6-1.16-1.28-2.27-1.91-3.41l-63.97,35.99c.42.75.89,1.48,1.27,2.25ZM378.07,201.51l66.26-31.59c-.49-1.12-1.09-2.19-1.63-3.29l-65.71,32.71c.36.73.78,1.42,1.09,2.17ZM380.96,207.99l67.74-28.26c-.4-1.07-.9-2.11-1.37-3.16l-67.28,29.34c.31.69.65,1.37.91,2.08ZM383.53,214.61l69.06-24.86c-.33-1.02-.73-2.01-1.12-3l-68.69,25.88c.26.66.54,1.31.74,1.98ZM385.77,221.34l70.21-21.4c-.26-.96-.57-1.89-.89-2.83l-69.91,22.36c.22.62.43,1.23.59,1.87ZM387.21,226.43c.17.58.34,1.16.45,1.75l69.04-17.34v8.34l-67.82,14.31c.14.53.25,1.07.33,1.62l67.48-13.43v8.4l-66.5,10.55c.1.49.18.98.23,1.48l66.27-9.8v8.5l-65.54,7.03c.06.44.12.89.14,1.34l65.4-6.4v8.63l-64.95,3.69c.02.4.08.79.08,1.19l64.87-3.15v8.8l-64.72.46.03,1.04h64.69s8.75,0,8.75,0V119.49h.09s2.93-73.34,2.93-73.34l-3.02-.07v-.15h-8.75v162.1l-69.5,18.39ZM244.98,263.41h8.75V119.49h.09s2.93-73.34,2.93-73.34l-3.02-.07v-.15h-8.75v217.47ZM472.66,119.96l6.51-73.11-8.56-.63-3.64,73.31,5.69.43ZM479.73,120.77l10.11-72.7c-2.76-.35-5.53-.72-8.3-1.03l-7.31,73.04,5.5.69ZM486.74,121.92l13.69-72.11c-2.67-.48-5.34-.97-8.01-1.41l-10.98,72.58,5.3.94ZM493.68,123.42l17.25-71.34-7.7-1.76-14.63,71.93,5.09,1.17ZM500.53,125.25l20.78-70.4-7.38-2.08-18.27,71.09,4.87,1.39ZM507.29,127.43l24.25-69.28-7.04-2.37-21.86,70.07,4.65,1.58ZM513.92,129.94l27.67-67.99-6.7-2.63-25.39,68.87,4.42,1.75ZM520.43,132.78l31.01-66.53-6.35-2.86-28.85,67.49,4.19,1.9ZM526.79,135.93l34.27-64.91-5.99-3.06-32.24,65.94,3.96,2.03ZM533,139.4l37.43-63.14-5.62-3.23-35.53,64.23,3.72,2.14ZM539.02,143.18l40.5-61.22-5.26-3.37-38.73,62.35,3.49,2.24ZM544.86,147.24l43.46-59.15-4.9-3.49-41.82,60.33,3.25,2.31ZM550.49,151.6l46.32-56.94-4.54-3.57-44.79,58.15,3.02,2.37ZM555.91,156.22l49.06-54.6-4.19-3.63-47.66,55.83,2.78,2.41ZM561.09,161.1l51.68-52.13-3.84-3.67-50.4,53.37,2.56,2.43ZM566.03,166.24l54.17-49.53-3.49-3.68-53.01,50.77,2.33,2.43ZM570.7,171.61l56.54-46.81-3.16-3.66-55.49,48.05,2.11,2.42ZM575.11,177.2l58.77-43.98-2.84-3.63-57.83,45.21,1.9,2.4ZM579.23,183l60.86-41.03-2.52-3.57-60.02,42.25,1.68,2.36ZM583.06,188.99l62.81-37.98c-.71-1.18-1.47-2.33-2.21-3.5l-62.08,39.17c.49.77,1.01,1.53,1.47,2.31ZM586.58,195.17l64.61-34.83c-.6-1.16-1.28-2.27-1.91-3.41l-63.97,35.99c.42.75.89,1.48,1.28,2.25ZM589.8,201.51l66.25-31.59c-.49-1.12-1.09-2.19-1.63-3.29l-65.71,32.71c.36.73.78,1.42,1.09,2.17ZM592.69,207.99l67.74-28.26c-.4-1.07-.9-2.11-1.37-3.16l-67.28,29.34c.31.69.65,1.37.91,2.08ZM595.26,214.61l69.06-24.86c-.33-1.02-.73-2.01-1.12-3l-68.69,25.88c.26.66.54,1.31.74,1.98ZM597.49,221.34l70.21-21.4c-.26-.96-.57-1.89-.89-2.83l-69.91,22.36c.22.62.43,1.23.59,1.87ZM599.39,228.18l71.19-17.88c-.19-.89-.43-1.77-.69-2.65l-70.96,18.78c.17.58.34,1.16.45,1.75ZM600.95,235.11l71.99-14.32c-.14-.82-.31-1.64-.5-2.45l-71.82,15.15c.14.53.25,1.07.33,1.62ZM602.16,242.11l72.61-10.74c-.09-.75-.21-1.49-.35-2.24l-72.5,11.5c.1.49.18.98.23,1.48ZM603.04,249.16l73.05-7.15c-.04-.67-.13-1.34-.21-2.01l-72.98,7.83c.06.44.12.89.14,1.34ZM603.56,256.27l73.31-3.56c0-.6-.07-1.19-.11-1.79l-73.28,4.16c.02.4.08.79.08,1.19ZM603.74,263.41h73.4l-.03-1.55-73.4.52.03,1.04Z" fill="#fff8e8"/>
    <g>
      <path d="M219.64,156.14h-73.63c-.06.91,0,1.82-.12,2.72l73.43,5.38c.25-2.7.26-5.4.32-8.1Z" fill="#fff8e8"/>
      <path d="M219.19,165.95l-73.34-6.52c0,.45-.09.88-.15,1.32-.07.44-.08.88-.18,1.31l72.66,11.87c.25-1.32.39-2.65.57-3.98.16-1.33.35-2.66.43-3.99Z" fill="#fff8e8"/>
      <path d="M217.87,175.72l-72.46-13.08c-.11.86-.37,1.69-.53,2.55l71.31,18.31c.61-2.58,1.25-5.16,1.68-7.78Z" fill="#fff8e8"/>
      <path d="M215.68,185.36l-70.98-19.56c-.13.41-.22.83-.35,1.23-.15.4-.28.81-.41,1.21l69.39,24.62,1.26-3.73c.39-1.25.74-2.51,1.1-3.77Z" fill="#fff8e8"/>
      <path d="M212.63,194.76l-68.92-25.9c-.16.39-.32.78-.46,1.18-.15.39-.36.77-.52,1.16l66.91,30.72c.53-1.18,1.08-2.35,1.57-3.55l1.42-3.61Z" fill="#fff8e8"/>
      <path d="M208.75,203.85l-66.3-32.01c-.41.73-.73,1.5-1.19,2.21l63.91,36.56c1.3-2.19,2.42-4.48,3.58-6.76Z" fill="#fff8e8"/>
      <path d="M204.05,212.54l-63.15-37.85c-.2.36-.45.69-.67,1.05-.22.35-.43.71-.69,1.03l60.41,42.09c.74-1.02,1.42-2.07,2.1-3.13.67-1.06,1.37-2.11,2-3.19Z" fill="#fff8e8"/>
      <path d="M198.61,220.75l-59.51-43.35c-.22.35-.49.66-.74.98-.26.32-.48.66-.77.96l56.45,47.26c.81-.93,1.55-1.93,2.33-2.89.76-.97,1.53-1.94,2.24-2.96Z" fill="#fff8e8"/>
      <path d="M192.46,228.44l-55.4-48.49c-.5.64-1.12,1.18-1.65,1.79l52.06,52.06c1.68-1.77,3.41-3.49,4.99-5.36Z" fill="#fff8e8"/>
      <path d="M185.65,235.55l-50.85-53.24c-.56.57-1.18,1.07-1.78,1.61l47.26,56.46c1.83-1.57,3.66-3.14,5.38-4.82Z" fill="#fff8e8"/>
      <polygon points="178.24 242.02 132.34 184.46 131.41 185.19 130.44 185.87 172.52 246.28 175.43 244.21 178.24 242.02" fill="#fff8e8"/>
      <path d="M170.27,247.82l-40.57-61.44-.98.63c-.32.22-.67.38-1,.58l36.55,63.91c1.01-.59,2.04-1.16,3.03-1.78l2.96-1.9Z" fill="#fff8e8"/>
      <path d="M161.81,252.88l-34.89-64.83c-.69.32-1.34.73-2.04,1l30.71,66.91c2.12-.93,4.16-2.03,6.22-3.08Z" fill="#fff8e8"/>
      <path d="M152.91,257.17l-28.91-67.71c-.7.26-1.38.57-2.09.8l24.61,69.39c2.16-.75,4.27-1.62,6.38-2.48Z" fill="#fff8e8"/>
      <path d="M143.64,260.63l-22.67-70.05c-.69.25-1.41.39-2.11.63l18.3,71.32c2.17-.61,4.35-1.17,6.48-1.89Z" fill="#fff8e8"/>
      <path d="M134.11,263.23l-16.24-71.81c-.7.2-1.42.28-2.13.42l11.86,72.67c2.18-.39,4.36-.75,6.52-1.28Z" fill="#fff8e8"/>
      <polygon points="124.39 264.98 114.68 191.99 113.61 192.14 112.53 192.21 117.9 265.64 121.15 265.38 124.39 264.98" fill="#fff8e8"/>
      <polygon points="114.59 265.85 111.42 192.29 110.35 192.31 109.81 192.33 109.27 192.31 108.19 265.93 109.79 265.96 111.39 265.93 114.59 265.85" fill="#fff8e8"/>
      <path d="M104.78,265.84l3.34-73.55-2.1-.15-7.54,73.24c2.1.18,4.2.36,6.3.46Z" fill="#fff8e8"/>
      <path d="M94.98,264.94l9.89-72.96c-.69-.05-1.34-.23-2.02-.33l-14.02,72.28c2.05.36,4.09.77,6.15,1.01Z" fill="#fff8e8"/>
      <polygon points="85.26 263.17 101.68 191.4 100.7 191.19 99.74 190.9 79.32 261.64 82.27 262.47 85.26 263.17" fill="#fff8e8"/>
      <path d="M75.73,260.54l22.84-69.99c-.62-.22-1.25-.39-1.85-.67l-26.68,68.62c1.87.76,3.78,1.39,5.69,2.04Z" fill="#fff8e8"/>
      <path d="M66.48,257.06l29.07-67.64c-.58-.29-1.19-.5-1.76-.82l-32.7,65.97c1.76.91,3.58,1.68,5.39,2.5Z" fill="#fff8e8"/>
      <path d="M57.59,252.76l35.05-64.75-1.66-.96-38.44,62.8c1.66,1,3.35,1.96,5.05,2.91Z" fill="#fff8e8"/>
      <path d="M49.14,247.67l40.72-61.34c-.53-.33-1.02-.74-1.55-1.08l-43.85,59.14c1.55,1.1,3.09,2.24,4.68,3.28Z" fill="#fff8e8"/>
      <path d="M41.19,241.86l46.04-57.46c-.51-.36-.94-.81-1.43-1.2l-48.91,55.04c1.42,1.22,2.8,2.48,4.29,3.62Z" fill="#fff8e8"/>
      <path d="M33.79,235.36l50.98-53.12c-.46-.4-.87-.86-1.29-1.3l-53.57,50.5c1.26,1.34,2.54,2.66,3.88,3.91Z" fill="#fff8e8"/>
      <path d="M27,228.24l55.52-48.36-.59-.67-.55-.71-57.83,45.57c.56.71,1.11,1.42,1.69,2.12l1.77,2.05Z" fill="#fff8e8"/>
      <path d="M20.87,220.53l59.62-43.21c-.33-.49-.71-.94-1-1.45l-61.63,40.28c.94,1.51,1.99,2.93,3.02,4.38Z" fill="#fff8e8"/>
      <path d="M15.44,212.3l63.25-37.69c-.27-.51-.59-.98-.84-1.5L12.88,207.75c.8,1.55,1.7,3.04,2.57,4.55Z" fill="#fff8e8"/>
      <path d="M10.77,203.61l66.38-31.85c-.22-.52-.45-1.02-.69-1.53l-67.8,28.71,2.11,4.67Z" fill="#fff8e8"/>
      <path d="M6.91,194.51l68.98-25.73c-.2-.51-.34-1.04-.53-1.55L5.26,189.76c.54,1.59,1.05,3.19,1.65,4.76Z" fill="#fff8e8"/>
      <path d="M3.88,185.1l71.03-19.39c-.18-.51-.26-1.04-.39-1.56L2.7,180.32c.37,1.6.72,3.21,1.19,4.78Z" fill="#fff8e8"/>
      <path d="M1.72,175.46l72.49-12.9-.15-.78c-.04-.26-.06-.53-.1-.79L.98,170.7c.11.8.2,1.59.33,2.39l.41,2.38Z" fill="#fff8e8"/>
      <path d="M.43,165.68l73.35-6.35c-.02-.52-.11-1.04-.11-1.56L.11,160.99c.05,1.56.2,3.13.31,4.69Z" fill="#fff8e8"/>
      <path d="M0,155.87l73.63.18c.02-.52.04-1.03.04-1.55L.11,151.28l-.11,4.59Z" fill="#fff8e8"/>
      <path d="M.47,146.06l73.32,6.7c0-.5.13-.99.17-1.48L.98,141.58c-.18,1.49-.41,2.99-.51,4.48Z" fill="#fff8e8"/>
      <polygon points="1.81 136.29 74.24 149.55 74.35 148.83 74.53 148.13 2.7 131.96 2.21 134.12 1.81 136.29" fill="#fff8e8"/>
      <path d="M4.03,126.66l70.93,19.74c.15-.45.22-.92.4-1.35L5.26,122.52c-.47,1.36-.83,2.76-1.23,4.15Z" fill="#fff8e8"/>
      <path d="M7.1,117.27l68.86,26.07c.18-.43.34-.85.5-1.29L8.66,113.34l-1.56,3.93Z" fill="#fff8e8"/>
      <path d="M11.01,108.19l66.22,32.18c.21-.4.42-.8.62-1.2L12.88,104.52l-1.87,3.67Z" fill="#fff8e8"/>
      <path d="M15.71,99.51l63.06,38c.23-.38.48-.74.71-1.11l-61.63-40.28c-.72,1.13-1.45,2.24-2.14,3.39Z" fill="#fff8e8"/>
      <path d="M21.18,91.31l59.4,43.5c.23-.37.53-.68.79-1.03l-57.82-45.58c-.8,1.03-1.62,2.04-2.37,3.11Z" fill="#fff8e8"/>
      <polygon points="27.35 83.64 82.63 132.27 83.04 131.79 83.49 131.33 29.91 80.83 28.61 82.21 27.35 83.64" fill="#fff8e8"/>
      <path d="M34.18,76.55l50.73,53.37c.3-.28.58-.58.9-.84l-48.9-55.04c-.94.8-1.83,1.66-2.72,2.51Z" fill="#fff8e8"/>
      <path d="M41.61,70.09l45.76,57.68c.32-.24.62-.51.94-.74l-43.85-59.14c-.97.71-1.9,1.47-2.85,2.2Z" fill="#fff8e8"/>
      <polygon points="49.59 64.32 90.01 125.86 90.98 125.23 52.54 62.43 49.59 64.32" fill="#fff8e8"/>
      <polygon points="58.06 59.27 92.8 124.19 93.79 123.68 61.1 57.71 58.06 59.27" fill="#fff8e8"/>
      <polygon points="66.97 55 95.71 122.79 96.72 122.4 70.05 53.77 66.97 55" fill="#fff8e8"/>
      <path d="M76.24,51.57l22.5,70.11c.32-.13.67-.2,1-.3l-20.42-70.74c-1.03.3-2.07.58-3.08.93Z" fill="#fff8e8"/>
      <path d="M85.79,48.99l16.07,71.85c.33-.08.66-.17.99-.21l-14.02-72.28c-1.02.17-2.03.41-3.04.64Z" fill="#fff8e8"/>
      <polygon points="95.51 47.27 105.04 120.28 106.02 120.14 98.49 46.9 95.51 47.27" fill="#fff8e8"/>
      <polygon points="105.31 46.43 108.3 119.99 109.27 119.97 108.2 46.35 105.31 46.43" fill="#fff8e8"/>
      <polygon points="115.14 46.45 111.59 119.99 112.51 120.07 117.93 46.64 115.14 46.45" fill="#fff8e8"/>
      <path d="M124.94,47.37l-10.1,72.93c.3.02.59.1.88.14l11.89-72.66c-.89-.14-1.77-.31-2.67-.41Z" fill="#fff8e8"/>
      <path d="M134.63,49.17l-16.59,71.73c.28.05.56.12.83.2l18.29-71.32c-.84-.23-1.68-.44-2.53-.62Z" fill="#fff8e8"/>
      <path d="M144.13,51.82l-22.97,69.95c.26.09.53.15.78.25l24.56-69.41c-.78-.29-1.58-.53-2.37-.79Z" fill="#fff8e8"/>
      <polygon points="153.37 55.33 124.18 122.92 124.91 123.23 155.57 56.29 153.37 55.33" fill="#fff8e8"/>
      <polygon points="162.26 59.65 127.08 124.33 127.74 124.7 164.28 60.77 162.26 59.65" fill="#fff8e8"/>
      <polygon points="170.73 64.75 129.85 125.99 130.44 126.41 172.54 66.01 170.73 64.75" fill="#fff8e8"/>
      <path d="M178.68,70.6l-46.21,57.32c.19.13.35.3.53.45l47.29-56.43c-.53-.45-1.05-.91-1.61-1.34Z" fill="#fff8e8"/>
      <polygon points="186.04 77.11 134.92 130.09 135.41 130.55 187.47 78.48 186.04 77.11" fill="#fff8e8"/>
    </g>
  </g>
  <g>
    <path d="M8.17,24.18c-1.46,0-2.74-.42-3.84-1.25-1.1-.83-1.96-2.01-2.58-3.52-.62-1.52-.93-3.31-.93-5.39s.31-3.82.93-5.33,1.5-2.7,2.65-3.55c1.15-.85,2.53-1.28,4.14-1.28,1.95,0,3.51.53,4.7,1.6,1.19,1.07,1.91,2.57,2.17,4.52h-3.23c-.19-1.01-.59-1.81-1.22-2.41-.63-.6-1.44-.9-2.43-.9-1.51,0-2.67.65-3.48,1.96-.8,1.31-1.21,3.1-1.21,5.39s.43,4.19,1.28,5.46c.85,1.26,1.96,1.89,3.32,1.89.92,0,1.67-.27,2.27-.81.6-.54,1.06-1.24,1.38-2.09.32-.85.51-1.75.59-2.71h-4.12v-2.47h7.13v10.55h-2.75l-.2-2.64h-.17c-.37.86-.9,1.57-1.57,2.13s-1.62.84-2.83.84Z" fill="#fff8e8"/>
    <path d="M19.02,23.85l5.86-19.64h3.54l5.86,19.64h-3.23l-1.32-4.71h-6.17l-1.32,4.71h-3.23ZM26.57,8.42l-2.33,8.33h4.83l-2.33-8.33h-.17Z" fill="#fff8e8"/>
    <path d="M37.68,23.85V4.21h3.14l4.07,8.87,4.07-8.87h3.14v19.64h-2.83v-13.97l-3.2,7.01h-2.36l-3.2-6.99v13.94h-2.83Z" fill="#fff8e8"/>
    <path d="M55.5,23.85l5.86-19.64h3.54l5.86,19.64h-3.23l-1.32-4.71h-6.17l-1.32,4.71h-3.23ZM63.04,8.42l-2.33,8.33h4.83l-2.33-8.33h-.17Z" fill="#fff8e8"/>
    <path d="M75.22,23.85V4.21h2.97v16.97h9.68v2.67h-12.65Z" fill="#fff8e8"/>
    <path d="M93.85,23.85v-2.64h4.26V6.85h-4.21v-2.64h11.39v2.64h-4.21v14.36h4.26v2.64h-11.5Z" fill="#fff8e8"/>
    <path d="M111.66,23.85V4.21h12.54v2.67h-9.57v5.72h8.73v2.64h-8.73v5.95h9.57v2.67h-12.54Z" fill="#fff8e8"/>
    <path d="M129.93,23.85V4.21h2.97v16.97h9.68v2.67h-12.65Z" fill="#fff8e8"/>
  </g>
  <g>
    <path d="M246.19,23.85V4.21h3.14l4.07,8.87,4.07-8.87h3.14v19.64h-2.83v-13.97l-3.2,7.01h-2.36l-3.2-6.99v13.94h-2.83Z" fill="#fff8e8"/>
    <path d="M264.01,23.85l5.86-19.64h3.54l5.86,19.64h-3.23l-1.32-4.71h-6.17l-1.32,4.71h-3.23ZM271.55,8.42l-2.33,8.33h4.83l-2.33-8.33h-.17Z" fill="#fff8e8"/>
    <path d="M288.39,23.85v-7.46l-6.48-12.18h3.39l4.57,9.03,4.57-9.03h3.39l-6.48,12.18v7.46h-2.97Z" fill="#fff8e8"/>
    <path d="M300.48,23.85l5.86-19.64h3.54l5.86,19.64h-3.23l-1.32-4.71h-6.17l-1.32,4.71h-3.23ZM308.03,8.42l-2.33,8.33h4.83l-2.33-8.33h-.17Z" fill="#fff8e8"/>
    <path d="M326.54,24.18c-1.38,0-2.6-.25-3.63-.76-1.04-.5-1.85-1.22-2.44-2.16-.59-.94-.89-2.05-.91-3.34h3.14c.02.99.36,1.84,1.02,2.54.66.7,1.59,1.05,2.79,1.05,1.1,0,1.96-.26,2.58-.77.62-.51.93-1.18.93-2.01,0-.69-.18-1.27-.55-1.73-.36-.46-.93-.87-1.7-1.23-.77-.36-1.76-.74-2.97-1.14-1.63-.52-2.82-1.25-3.59-2.17-.77-.93-1.15-2.06-1.15-3.41,0-1.55.56-2.81,1.68-3.76,1.12-.95,2.67-1.43,4.63-1.43s3.44.49,4.6,1.47c1.16.98,1.76,2.34,1.8,4.08h-3.17c0-.47-.13-.92-.39-1.36-.26-.44-.64-.8-1.12-1.09-.49-.29-1.08-.43-1.8-.43-.88-.02-1.62.19-2.22.63-.6.44-.9,1.03-.9,1.78,0,.92.36,1.63,1.09,2.15.73.51,1.92,1.04,3.56,1.58,1.03.34,1.94.74,2.74,1.22.79.48,1.42,1.08,1.88,1.82s.69,1.68.69,2.82c0,1.05-.26,2-.79,2.85s-1.28,1.53-2.26,2.03c-.98.51-2.17.76-3.55.76Z" fill="#fff8e8"/>
    <path d="M343.09,23.85V6.87h-5.27v-2.67h13.52v2.67h-5.27v16.97h-2.97Z" fill="#fff8e8"/>
    <path d="M357.07,23.85v-2.64h4.26V6.85h-4.21v-2.64h11.39v2.64h-4.21v14.36h4.26v2.64h-11.5Z" fill="#fff8e8"/>
  </g>
  <g>
    <path d="M605.45,304.79v-2.36c1.93-1.53,3.61-2.95,5.06-4.24,1.45-1.29,2.59-2.53,3.41-3.73.82-1.2,1.23-2.41,1.23-3.65,0-1.03-.29-1.84-.87-2.43-.58-.59-1.37-.88-2.36-.88-1.14,0-2.02.36-2.64,1.08-.62.72-.93,1.58-.93,2.57h-2.89c.02-1.38.31-2.54.87-3.48.56-.94,1.32-1.65,2.29-2.13s2.06-.73,3.3-.73c2,0,3.54.54,4.63,1.61s1.63,2.51,1.63,4.31c0,1.14-.25,2.24-.74,3.3-.5,1.06-1.15,2.06-1.95,3.02s-1.7,1.86-2.68,2.72c-.98.86-1.97,1.68-2.96,2.47h8.87v2.55h-13.27Z" fill="#fff8e8"/>
    <path d="M631.54,305.12c-1.52,0-2.84-.41-3.97-1.23-1.13-.82-2.01-2-2.62-3.52s-.93-3.32-.93-5.4.31-3.9.93-5.42,1.49-2.68,2.62-3.51c1.13-.82,2.45-1.23,3.97-1.23s2.86.41,3.98,1.23c1.12.82,1.99,1.99,2.61,3.51s.93,3.32.93,5.42-.31,3.88-.93,5.4-1.49,2.7-2.61,3.52c-1.12.82-2.45,1.23-3.98,1.23ZM627.05,294.97c0,1.05.09,2,.28,2.86s.45,1.61.79,2.24l4.91-12.15c-.47-.22-.96-.34-1.49-.34-1.31,0-2.38.66-3.23,1.98s-1.26,3.12-1.26,5.4ZM631.54,302.38c.88,0,1.66-.3,2.33-.9.67-.6,1.2-1.45,1.59-2.57.38-1.11.58-2.43.58-3.94,0-1.05-.09-2-.28-2.86-.19-.86-.45-1.6-.79-2.22l-4.91,12.15c.47.22.96.34,1.49.34Z" fill="#fff8e8"/>
    <path d="M644.73,304.79v-2.36c1.93-1.53,3.61-2.95,5.06-4.24,1.45-1.29,2.59-2.53,3.41-3.73.82-1.2,1.23-2.41,1.23-3.65,0-1.03-.29-1.84-.87-2.43-.58-.59-1.37-.88-2.36-.88-1.14,0-2.02.36-2.64,1.08-.62.72-.93,1.58-.93,2.57h-2.89c.02-1.38.31-2.54.87-3.48.56-.94,1.32-1.65,2.29-2.13s2.06-.73,3.3-.73c2,0,3.54.54,4.63,1.61s1.63,2.51,1.63,4.31c0,1.14-.25,2.24-.74,3.3-.5,1.06-1.15,2.06-1.95,3.02s-1.7,1.86-2.68,2.72c-.98.86-1.97,1.68-2.96,2.47h8.87v2.55h-13.27Z" fill="#fff8e8"/>
    <path d="M671.21,305.12c-1.38,0-2.55-.26-3.51-.77-.95-.51-1.73-1.21-2.31-2.09-.59-.88-1.02-1.88-1.29-3.02-.27-1.13-.41-2.32-.41-3.58,0-2.17.3-4.07.91-5.7.61-1.63,1.48-2.89,2.62-3.8,1.14-.91,2.52-1.36,4.12-1.36,1.33,0,2.45.24,3.35.72.91.48,1.62,1.13,2.13,1.96.51.83.83,1.78.94,2.85h-2.78c-.19-.88-.61-1.57-1.26-2.08s-1.46-.76-2.41-.76c-1.25,0-2.34.59-3.25,1.78-.92,1.19-1.43,3.04-1.54,5.57h.17c.39-.71,1.01-1.34,1.87-1.88.85-.54,1.87-.81,3.04-.81s2.18.27,3.11.8c.94.53,1.68,1.28,2.23,2.23.55.95.83,2.06.83,3.31,0,1.18-.27,2.27-.8,3.28-.53,1.01-1.29,1.82-2.27,2.43-.98.61-2.15.91-3.49.91ZM671.02,302.43c1.14,0,2.06-.35,2.76-1.07.7-.71,1.05-1.62,1.05-2.72s-.35-2.02-1.05-2.74c-.7-.72-1.62-1.08-2.76-1.08s-2.07.36-2.79,1.07c-.72.71-1.08,1.62-1.08,2.72s.36,1.99,1.08,2.72c.72.73,1.65,1.09,2.79,1.09Z" fill="#fff8e8"/>
  </g>
</svg>