<?xml version="1.0" encoding="UTF-8"?>
<svg id="Layer_2" data-name="Layer 2" xmlns="http://www.w3.org/2000/svg" viewBox="0 0 1153.08 621.65">
  <defs>
    <style>
      .cls-1, .cls-2 {
        fill: #77b2bd;
      }

      .cls-1, .cls-3, .cls-4 {
        stroke-width: 0px;
      }

      .cls-2 {
        stroke: #77b2bd;
        stroke-miterlimit: 10;
      }

      .cls-3 {
        fill: #489eaa;
      }

      .cls-4 {
        fill: #7ab8c2;
      }
    </style>
  </defs>
  <g id="Layer_18" data-name="Layer 18">
    <path class="cls-2" d="m134.58,112.15c109-26,198.5,65.5,236.5,112.5l38,47s17-77,62-67,49,85,12,125l-37,40s107-116,155-93,43,65,5,103-60,28-60,28c0,0,49-13,96,12s48,46,48,46c0,0,12-91,99-121s110-4,110-4c0,0-70-35-70-75s55-38,55-38c0,0-123.44-110.53,28-198,151.5-87.5,240.55,49.88,240.5,49.75v541.75H27.58S-80.3,163.41,134.58,112.15Z"/>
    <path class="cls-3" d="m960.45,187.44c8.11,35.43,6.2,64.07,14.89,99.36,4.45,18.09,14.23,34.33,23.88,50.26,3.68,6.08,7.55,12.35,13.47,16.27,12.4,8.21,29.02,3.48,42.65-2.47,15-6.54,30.56-15.4,36.92-30.48,3.55-8.42,3.77-17.83,3.57-26.97-.93-41.92-9.72-83.66-25.77-122.39-2.8-6.76-5.86-13.49-10.33-19.28-8.39-10.87-21-17.51-33.2-23.81-7.78-4.02-15.98-8.14-24.74-7.95-11.24.25-21.3,7.78-27.54,17.13-6.24,9.35-9.31,20.4-12.29,31.23"/>
    <path class="cls-3" d="m265.39,560.58c34.19,12.32,57.26,29.4,91.65,41.17,17.62,6.03,36.58,6.58,55.2,7.07,7.1.19,14.47.32,20.97-2.54,13.61-6,18.61-22.53,20.97-37.22,2.6-16.16,3.56-34.03-5.69-47.53-5.17-7.54-12.97-12.81-20.77-17.58-35.78-21.87-75.64-37.03-116.91-44.46-7.2-1.3-14.52-2.36-21.81-1.73-13.68,1.19-26.08,8.21-37.98,15.07-7.59,4.37-15.49,9.05-20.06,16.52-5.86,9.59-4.97,22.12-.47,32.42,4.5,10.3,12.13,18.86,19.64,27.22"/>
    <g>
      <polyline class="cls-4" points="188.8 290.21 186.68 289.49 186.65 290.94 189.41 295.3 184.95 292.11 183.76 292.34 184.53 294.65 182.59 294.08 183.29 296.33 185.26 299.99 180.61 296.45 179.32 296.55 181.15 300.09 180.5 300.92 180.08 301.99 177.97 301.17 175.12 299.49 179 305.46 173.63 300.89 175.84 304.98 173.49 303.85 170.94 302.44 175.16 308.95 173.13 308.18 171.41 307.74 172.77 310.96 169.93 309.18 168.01 308.49 168 310.08 166.48 309.85 164.22 308.73 163.58 309.54 163.45 311.01 163.82 313.09 160.8 310.98 163.66 316.18 162.27 316.09 160.76 315.85 161.23 318.09 158.4 316.18 159.4 319.11 159.33 320.68 156.95 319.31 156.8 320.8 154.13 319.03 153.21 319.51 154.29 322.59 151.47 320.62 152.97 324.25 148.8 320.48 152.46 326.99 147.88 322.66 147.38 323.7 146.32 324 145.21 324.22 144.21 324.61 146.29 329.08 146.77 331.41 143.13 328.29 143.34 330.28 141.03 328.9 139.29 328.28 140.59 331.74 138.39 330.51 140.55 335.12 137.91 333.29 136.53 333.16 137.23 335.81 136.55 336.61 136.82 338.68 132.7 334.88 134.84 339.45 130.15 334.89 129.74 336.05 131.76 340.46 131.9 342.34 128.64 339.7 129.7 342.82 126.5 340.27 128 343.95 123.73 340.01 123.64 341.59 126.42 346.94 125.48 347.39 122.92 345.72 123.83 348.58 121.56 347.3 120.04 347 120.48 349.25 120.41 350.82 116.69 347.7 114.38 346.41 113.56 347.03 117.14 353.25 116.21 353.71 111.83 349.83 112.89 352.81 111.54 352.77 110.49 353.09 111.34 355.78 107.26 352.37 110.8 358.34 109.78 358.71 109.13 359.51 107.71 359.39 105.68 358.54 104.62 358.86 105.09 361.02 101.82 358.72 101.41 359.83 103.33 363.66 98.95 360.12 100.85 363.9 101.74 366.48 98.91 364.78 99.18 366.63 96.78 365.45 94.1 363.98 93.04 364.34 92.49 365.28 94.91 369.51 91.14 366.88 94.15 371.7 92.39 371.29 92.68 373.11 91.06 372.86 88.09 371.18 87.67 372.24 89.89 376.08 88.6 376.2 87.66 376.7 84.56 374.97 82.67 374.5 84.52 377.87 84.18 379 82.69 378.95 81.49 379.21 83.48 382.66 83.06 383.66 78.34 380.5 80.52 384.02 78.05 383.1 76.83 383.39 75.18 383.3 74.49 384.1 77.37 388.04 76.22 388.39 76.4 389.89 74.9 389.95 70.92 387.96 74.87 392.58 74.29 393.41 72.47 393.25 68.05 391.05 72.35 395.75 71.96 396.74 69.8 396.36 70.94 398.51 70.15 399.18 64.75 396.45 68.38 400.39 63.68 398.25 66.45 401.52 64.19 401.17 61.6 400.61 65.12 404.33 64.02 404.81 63.79 405.9 57.89 403.15 60.31 406.03 56.99 405.07 58.27 407.17 61.82 410.72 60.05 410.79 56.38 409.66 53.89 409.32 59.93 414.36 57.05 413.77 52.83 412.36 51.76 412.93 52.4 414.55 54.13 416.82 50.54 415.86 50.82 417.24 53.49 420.04 54.01 421.55 50.3 420.56 47.78 420.29 51.1 423.43 48.44 423.08 48.97 424.58 48.02 425.23 44.97 424.69 50.71 429.14 47.27 428.38 49.53 430.84 47.37 430.81 45.53 430.97 46 432.41 41.22 430.95 47.49 435.59 45.18 435.5 41.98 434.93 41.16 435.66 43.52 438.13 42.1 438.54 38.97 438.02 41.62 440.63 41.32 441.65 41.03 442.67 36.12 441.2 39.53 444.21 39.16 445.19 36.26 444.81 37.1 446.43 33.78 445.83 36.85 448.65 34.33 448.48 35.26 450.13 35.14 451.23 33.43 451.48 36.13 454.06 32.45 453.29 32.45 454.44 30.24 454.47 29.53 455.28 32.52 457.91 31.85 458.72 31.96 459.9 26.78 458.62 31.72 462.01 27.95 461.45 26.46 461.95 28.21 463.82 24.61 463.49 24.07 464.44 29.76 467.68 30.53 469 28.54 469.35 23.85 468.92 24.56 470.24 25.26 471.53 26.46 472.92 25.42 473.7 26.47 474.98 23.97 475.5 22.58 476.31 26.83 478.06 20.67 478.22 28.16 480.18 23.22 480.67 24.33 481.79 25.71 482.88 24.01 483.81 23.62 484.83 27.32 485.81 24.8 486.84 24.22 487.88 23.8 488.93 22.08 490.13 22.91 491.1 26.56 491.66 27.51 492.51 28.12 493.38 27.2 494.53 26.81 495.61 28.97 496.13 28.36 497.26 29.48 497.97 28.47 499.25 28.58 500.24 28.24 501.39 25.81 503.28 28.01 503.59 26.95 505.07 25.16 506.9 31.13 505.57 28.78 507.66 29.98 508.24 30.31 509.2 33.37 508.84 31.29 510.97 32.53 511.47 32.83 512.44 30.54 514.85 29.92 516.39 34.14 515.16 33.49 516.72 37.06 515.74 37.52 516.61 38.33 517.26 38.84 518.1 36.96 520.54 38.8 520.51 39.33 521.36 35.72 525.16 38.71 524.28 41.45 523.53 41.06 525.07 42.27 525.42 42.86 526.23 43.39 527.09 41.38 529.99 42.39 530.5 44.65 529.96 42.5 533.1 46.3 531.23 44.58 534.04 47.11 533.2 44.44 536.92 50.58 532.81 49.69 534.97 50.02 536.03 47.28 539.96 52.21 536.76 49.25 540.94 52.64 539.14 50.9 542.23 50.67 543.9 55.69 540.46 53.3 544.25 55.59 543.44 57.75 542.73 56.78 545.16 57.08 546.33 60.87 543.9 59.09 547.22 58.4 549.45 59.84 549.43 61.06 549.65 61.35 550.86 61.39 552.37 64.89 550.01 63.16 553.52 65.55 552.35 65.63 553.84 66.95 553.87 68.03 554.18 68.55 555.16 69.84 555.2 69.26 557.6 70.32 557.93 69.18 561.17 72.61 558.32 75.37 556.24 75.09 558.36 75.82 559.09 76.9 559.29 75.51 563.26 75.86 564.69 80 560.02 79.49 562.8 78.34 566.81 82.22 562.14 80.85 566.73 81.11 568.53 83.98 565.27 86.11 563.22 84.54 568.91 86.73 566.64 88.48 565.12 88.27 568.28 90.33 565.79 89.52 570.96 90.75 570.7 92.4 569.01 93.98 567.23 93.33 573.45 95.61 568.8 96.07 571.37 97.32 570.5 97.72 574.25 99.12 572.4 100.39 570.8 101.29 572.2 102.35 572.19 103.62 567.52 104.4 574.94 105.53 575.01 106.5 570.03 107.59 571.58 108.29 567.76 109.54 570.59 110.63 571.13 111.98 573.13 112.66 570.9 114.09 572.76 114.84 571.26 115.06 567.86 117.48 573 118.39 572.26 118.69 569.65 118.95 567.2 119.15 564.82 121.26 567.74 123.34 570.29 122.79 566.16 124.1 566.69 125.2 566.67 126.42 566.89 128.38 568.64 128.41 566.29 127.58 562.34 131.34 567.5 130.18 563.04 132.58 565.38 130.7 559.78 133 561.89 135.18 563.68 133.64 558.94 137.48 563.53 136.2 559.34 137.56 559.64 138.5 559.23 139 558.1 141.14 559.64 139.13 554.46 141.95 557.06 143.62 557.79 142.69 554.37 144.01 554.54 144.91 554.05 145.07 552.4 148.32 555.56 148.92 554.59 148.81 552.52 149.04 551 152.01 553.65 153.06 553.37 154.31 553.37 154.31 551.51 152.68 547.24 155.67 549.84 154.69 546.56 156.55 547.47 156.45 545.5 158.85 547.18 160.99 548.46 158.61 543.24 160.57 544.25 160.42 542.26 163.58 544.95 161.37 540.05 166.22 545.09 164.29 540.63 165.57 540.65 165.55 538.88 165.99 537.74 170.26 541.83 170.22 540.04 168.2 535.57 173.02 540.35 170.54 535.29 171.93 535.44 171.67 533.4 174.38 535.27 175.9 535.57 174.05 531.47 178.91 536.1 175.47 529.96 176.33 529.4 178.08 529.98 177.71 527.86 180.13 529.28 182.43 530.53 179.89 525.68 184.94 530.36 183.02 526.32 184.16 526.1 185.15 525.68 187.97 527.52 185.63 523.03 185.58 521.36 187.68 522.3 191.39 525.17 188.87 520.53 188.75 518.79 191.6 520.59 190.7 517.94 191.33 517.09 193.25 517.77 195.74 519.11 194.23 515.77 195.99 516.25 197.37 516.26 196.54 513.75 201.28 517.6 199.65 514.19 198.89 511.77 198.66 509.97 204.31 514.76 203.38 512.18 201.34 508.37 202.83 508.5 205.3 509.69 207.91 511.03 207.59 509.14 205.81 505.69 205.82 504.19 211.54 508.84 211.44 507.22 208.84 502.93 211.76 504.54 210.67 501.89 212.33 502.14 211.79 500.1 211.5 498.31 216.89 502.44 216.3 500.34 215.32 497.85 214.29 495.33 218.58 498.25 220.08 498.3 218.85 495.59 219.3 494.59 221.82 495.66 222.95 495.33 221.02 491.95 223.87 493.33 221.56 489.61 225.89 492.42 226.82 491.89 223.6 487.31 227.82 489.98 229.32 489.98 228.56 487.82 226.33 484.26 228.38 484.8 232.71 487.49 232.92 486.26 229.91 482.01 233.02 483.52 230.94 480.17 232.72 480.42 231.69 478.07 233.09 477.98 234.28 477.68 236.64 478.45 237.74 478.05 240.54 479.2 236.64 474.28 236.44 472.73 241.18 475.6 243.15 475.96 240.49 472.22 244.48 474.38 242.08 470.89 242.96 470.29 245.72 471.33 243.6 468.12 243.58 466.74 248.74 469.83 246.57 466.61 249.86 468.07 249.52 466.41 247.17 463.08 249.77 463.93 250.19 462.93 250.39 461.76 250.15 460.22 251.15 459.71 253.72 460.5 254.8 460.05 251.31 455.86 255.64 458.07 252.62 454.29 255.64 455.41 255.58 454.04 259.5 455.87 254.93 450.9 255.36 449.93 256.38 449.44 262.42 452.89 262.37 451.53 263.78 451.33 258.89 446.2 264.1 448.95 264.34 447.82 263.07 445.55 265.46 446.08 264.41 443.98 263.47 441.97 265.02 441.86 266.06 441.35 264.47 438.88 267.82 440.1 267.94 438.9 269.14 438.51 269.57 437.54 269.23 436.01 269.16 434.7 271 434.77 271.57 433.93 270.13 431.64 272.89 432.36 274.57 432.29 276.19 432.17 277.85 432.06 272.51 427.15 274.58 427.34 275.49 426.72 275.46 425.49 281.13 427.96 276.55 423.79 276.6 422.63 276.71 421.52 277.89 421.06 277.83 419.86 279.75 419.82 279.05 418.26 284.83 420.36 279.12 416.02 284.22 417.64 280.1 414.31 285.18 415.79 287.59 415.83 287.18 414.45 284.58 412.07 282.43 409.98 284.36 409.75 289.7 410.94 287.31 408.8 289.91 408.72 285.48 405.88 285.65 404.88 286.95 404.28 288.25 403.65 292.75 404.07 292.67 402.92 290.48 401.13 292.06 400.51 288.8 398.49 287.86 397.18 289.2 396.49 292.07 396.18 294.57 395.72 289.46 393.43 291.7 392.9 294.3 392.41 288.74 390.18 294.6 390.32 289.86 388.35 293.51 388 291.56 386.6 292.95 385.8 290.05 384.3 294.22 383.92 296.85 383.26 294.57 381.88 291.28 380.39 296.96 380.09 295.73 378.89 292.83 377.51 297.61 377 294.92 375.67 291.7 374.31 292.95 373.41 291.82 372.28 292.31 371.3 294.21 370.43 296.83 369.6 299.22 368.73 295.33 367.42 298.05 366.56 295.82 365.38 292.62 364.16 294.23 363.22 292.3 362.09 296.58 361.28 298.47 360.33 299.19 359.32 298.91 358.27 296.87 357.15 295.67 356.07 297.01 355.08 292.55 353.9 299.75 353.1 299.43 352.05 295.15 350.89 297.34 349.91 299.17 348.93 292.79 347.73 295.98 346.78 296.38 345.76 293.52 344.66 295.11 343.67 295.89 342.65 297.77 341.65 300.07 340.66 293.5 339.5 296.15 338.51 296.78 337.48 298.82 336.45 294.79 335.4 300.09 334.35 294.1 333.34 294.84 332.31 295.91 331.26 299.62 330.13 293.84 329.26 299.51 328.01 294.4 327.19 297.47 325.99 296.87 324.98 299.59 323.73 296.71 322.9 296.28 321.89 293.63 321.13 294.92 319.96 294.18 319.02 293.03 318.15 295.61 316.72 297.17 315.39 292.29 315.23 297.43 313.16 297.85 311.96 291.24 312.42 291.14 311.43 294.02 309.61 292.13 309.08 290.28 308.62 294.39 306.18 292.59 305.7 292.98 304.43 295.25 302.35 294 301.69 292.27 301.29 292.28 300.11 292.12 298.98 289.96 298.95 288.8 298.43 285.95 298.99 289.68 295.43 284.46 297.7 289.17 293.16 283.6 295.99 284.72 293.9 285.98 291.56 282.21 293.44 281.67 292.63 280.52 292.39 280.86 290.72 278.68 291.58 282.7 285.81 282.15 284.78 277.4 288.74 277.25 287.39 277.84 285 278.53 282.3 276.5 283.31 275.56 282.84 274.12 283.16 272.05 284.61 273.82 279.6 272.74 279.32 269.66 282.9 268.32 283.41 268.13 281.55 266.54 282.7 267.73 277.43 264.54 282.57 265.34 277.75 264.08 278.21 262.6 279.45 263.22 274.03 261.71 275.35 259.76 278.59 258.84 278.19 257.61 279.23 257.38 275.38 256.42 274.85 255.55 273.59 254.12 276.17 253.6 272.01 252.24 274.64 251.41 272.19 250.18 274.39 249.09 275.27 248.03 275.98 247.05 275.07 246 276.97 245 275.25 244 276.54 242.94 274.98 242.03 277.6 240.99 276.88 240.05 277.8 238.87 275.51 238.11 278.52 236.91 276.39 235.91 276.67 234.85 276.29 233.81 276.19 232.93 277.29 231.44 274 230.75 276.4 229.93 277.82 229.31 280.23 227.73 276.98 227.28 280.26 226.25 280.25 225.41 281.2 223.61 277.23 222.83 278.56 220.94 274.32 220.2 275.87 219.39 277.03 218.04 275.65 217.32 277.19 216.92 280.22 216.17 281.57 214.89 280.49 214.2 282.1 212.59 279.54"/>
      <path class="cls-1" d="m189.19,288.76l-2.11-.71c-.95-.32-1.88.52-1.9,1.45-.02,1.34.1,2.07.8,3.19s1.42,2.25,2.13,3.38l2.05-2.05-3.27-2.34c-.38-.27-.77-.64-1.19-.85-.75-.37-1.57-.08-2.35.08s-1.29,1.12-1.05,1.85l.77,2.31,1.85-1.85-1.94-.57c-1.08-.32-2.18.76-1.85,1.85.7,2.28,1.69,4.17,2.82,6.27l2.05-2.05c-1.12-.86-2.25-1.71-3.37-2.57-.4-.3-.81-.72-1.26-.96-.64-.34-1.37-.17-2.07-.12-1.16.09-1.84,1.2-1.3,2.26.61,1.18,1.22,2.36,1.83,3.55l.23-1.82c-.65.83-1.06,1.58-1.45,2.56l1.85-1.05-1.32-.51c-.23-.09-.47-.17-.69-.27-.13-.06.46.27.02-.03-.83-.56-1.75-1.03-2.62-1.54-1.25-.74-2.89.77-2.05,2.05,1.3,1.99,2.59,3.98,3.89,5.97l2.36-1.82c-1.79-1.52-3.58-3.05-5.37-4.57-1.27-1.08-3.2.26-2.36,1.82.73,1.36,1.47,2.73,2.2,4.09l2.05-2.05c-1.66-.81-3.28-1.65-4.9-2.54-1.26-.69-2.9.74-2.05,2.05,1.41,2.17,2.81,4.34,4.22,6.51l1.69-2.2c-1.25-.48-2.45-.88-3.74-1.21-.99-.25-2.31.73-1.85,1.85s.9,2.14,1.35,3.21l2.2-1.69c-1.71-1.07-3.22-1.93-5.11-2.62-.94-.34-1.89.54-1.9,1.45l-.02,1.59,1.9-1.45c-.34-.05-.69-.14-1.04-.16-.7-.04.08.15-.43-.07-.66-.29-1.3-.65-1.95-.97-.54-.27-1.39-.3-1.82.23-.79.99-1.14,1.7-1.18,3-.03.94.23,1.9.39,2.82l2.2-1.69c-1.01-.7-2.01-1.41-3.02-2.11-1.29-.9-2.73.82-2.05,2.05.95,1.73,1.91,3.47,2.86,5.2l1.3-2.26c-.28-.02-.56-.04-.84-.05-.13,0-.85-.06-.21,0-.48-.06-.96-.15-1.44-.23-1.15-.18-2.09.65-1.85,1.85.15.75.31,1.49.46,2.24l2.2-1.69c-.94-.64-1.88-1.28-2.82-1.92-1.06-.72-2.62.48-2.2,1.69.27.79.52,1.58.81,2.36.05.14.11.29.15.44.08.34,0-.6-.02-.03-.01.44-.04.89-.06,1.33l2.26-1.3-2.38-1.37c-1.06-.61-2.15.19-2.26,1.3l-.14,1.49,2.26-1.3c-.89-.59-1.78-1.18-2.67-1.77-.46-.3-1.05-.24-1.51,0l-.92.48c-.55.29-.9,1.1-.69,1.69.36,1.03.72,2.06,1.08,3.08l2.2-1.69c-.94-.66-1.88-1.32-2.81-1.98-1.01-.71-2.7.49-2.2,1.69s.99,2.42,1.49,3.64l2.51-1.46c-1.39-1.26-2.78-2.51-4.17-3.77-1.24-1.12-3.22.29-2.36,1.82,1.22,2.17,2.44,4.34,3.67,6.5l2.36-1.82c-1.53-1.44-3.06-2.89-4.58-4.33-.65-.61-1.92-.6-2.36.3l-.5,1.04.9-.69c-1.07.3-2.13.51-3.17.91-.96.37-1.33,1.26-.9,2.2l1.68,3.61c.1.22.22.45.32.68.17.41-.07-.45-.01.09.07.69.28,1.39.42,2.07l2.51-1.46c-1.21-1.04-2.42-2.09-3.63-3.13-.87-.75-2.71-.35-2.56,1.06l.21,1.99,2.26-1.3c-1.47-.87-2.8-1.57-4.41-2.15-1.03-.37-2.24.8-1.85,1.85.43,1.15.87,2.3,1.3,3.45l2.2-1.69c-.73-.41-1.47-.82-2.2-1.23-1.38-.77-2.67.74-2.05,2.05.72,1.54,1.44,3.08,2.17,4.62l2.05-2.05c-.77-.53-1.53-1.1-2.32-1.61s-1.57-.48-2.46-.56c-1-.09-1.68,1.03-1.45,1.9s.47,1.77.7,2.65l.39-1.46c-.49.58-1.08,1.11-1.11,1.91-.03.65.18,1.37.26,2.02l2.56-1.06c-1.37-1.27-2.74-2.53-4.11-3.8-1.3-1.2-3.07.3-2.36,1.82s1.42,3.05,2.14,4.57l2.36-1.82c-1.56-1.52-3.13-3.04-4.69-4.56-.85-.83-2.13-.39-2.51.66-.3.86-.59,1.44-.25,2.34.26.7.63,1.37.94,2.05.28.62.56,1.76,1.03,2.26-.25-.25-.19-.98-.12-.01l.09,1.22,2.56-1.06c-1.09-.88-2.17-1.76-3.26-2.64s-3.04-.1-2.51,1.46c.36,1.04.71,2.08,1.07,3.12l2.51-1.46c-1.07-.85-2.13-1.7-3.2-2.55-1.01-.8-3.14-.1-2.51,1.46.5,1.23,1,2.45,1.5,3.68l2.51-1.46-4.26-3.94c-.98-.91-2.48-.24-2.56,1.06-.05.8-.19,1.58.11,2.33.19.48.48.93.72,1.39.69,1.32,1.37,2.64,2.06,3.96l.54-2.05-.94.45h1.51c-.85-.56-1.71-1.11-2.56-1.67-1.09-.71-2.59.47-2.2,1.69l.91,2.86,2.2-1.69c-1.43-.8-2.54-1.41-4.15-1.73-1.16-.23-2.07.68-1.85,1.85.13.66.29,1.32.39,1.99.01.07.03.4.02.07-.02-.4-.04.22-.04.29-.04.35-.03.72-.05,1.07l2.56-1.06c-1.11-.93-2.22-1.87-3.33-2.8-.91-.76-1.97-1.27-3-1.85-.43-.24-1.1-.32-1.51,0l-.82.63c-.65.49-.98,1.28-.54,2.05,1.19,2.07,2.39,4.15,3.58,6.22l.54-2.05-.94.46,1.82.23c-1.46-1.29-2.92-2.58-4.37-3.88-1.03-.92-3.04-.05-2.51,1.46.35.99.7,1.99,1.06,2.98l1.45-1.9c-1.04-.03-1.8.03-2.8.33-.75.23-1.3,1.05-1.05,1.85.28.9.57,1.79.85,2.69l2.51-1.46c-1.36-1.14-2.72-2.28-4.08-3.41-1.25-1.04-3.27.27-2.36,1.82,1.18,1.99,2.36,3.98,3.54,5.98l.9-2.2c-1.05.37-1.63.69-2.33,1.55l1.06-.44c-.41-.03-.87-.02-1.28-.11.02,0,.32.16-.11-.11-.23-.14-.53-.22-.78-.33-1.06-.44-1.64-.38-2.73-.04-.81.25-1.23,1.03-1.05,1.85l.47,2.15,2.2-1.69c-1.09-.76-2.18-1.53-3.27-2.29-.86-.6-1.89.07-2.2.9-.23.61-.58,1.23-.41,1.9.1.39.38.81.56,1.17.5,1.01,1.01,2.01,1.51,3.02l2.36-1.82c-1.46-1.18-2.91-2.36-4.37-3.54-1.3-1.06-3.15.23-2.36,1.82.57,1.14,1.11,2.3,1.72,3.42.14.26.21.47.04.04.09.24.16.48.25.72l.63,1.83,2.2-1.69-2.83-1.7c-1.23-.74-2.38.48-2.2,1.69l.27,1.86,2.2-1.69c-1.43-.7-2.84-1.42-4.23-2.19-.9-.5-1.49-.77-2.53-.43s-1.44.89-1.98,1.81c-.27.47-.27,1.05,0,1.51.81,1.41,1.61,2.82,2.42,4.23l2.05-2.05-3.77-2.63c-1.25-.87-2.82.82-2.05,2.05,1,1.61,2,3.22,3.01,4.82l1.69-2.2-1.76-.41c-1.19-.28-2.03.72-1.85,1.85l.29,1.82,1.85-1.85c-.39-.06-.81-.18-1.2-.19-.3,0-.49-.09-.09.07-.17-.06-.33-.19-.49-.28-.81-.47-1.64-.92-2.45-1.39-.91-.52-1.85,0-2.2.9-.49,1.25-.46,1.89.2,3.03.58,1.01,1.17,2.02,1.75,3.03l1.3-2.26c-1.17.1-1.95.26-2.99.83h1.51c-1.82-1.02-3.34-1.85-5.36-2.36-1.28-.32-2.33,1.05-1.69,2.2s1.23,2.25,1.85,3.38l-.15-1.16-.34,1.12,1.45-1.1c-1.11-.04-2.01.03-3.09.27-.96.21-1.36,1.4-.9,2.2.66,1.15,1.33,2.3,1.99,3.45l-.15-1.16-.42,1,2.2-.9c-1.57-1.05-3.15-2.1-4.72-3.15-1.26-.84-2.82.81-2.05,2.05.73,1.17,1.45,2.34,2.18,3.52l1.69-2.2c-1.4-.52-2.51-1.14-4.01-.74-.68.18.14.13-.51.04-.34-.05-.75-.08-1.09-.06-.94.06-1.32.57-1.89,1.22-.4.46-.64,1.27-.23,1.82.96,1.32,1.92,2.63,2.89,3.95l.9-2.2-1.15.35c-.57.17-1.18.79-1.1,1.45l.18,1.5,1.5-1.5-.75.03c-1.25.05.05.11-.01.22,0,0-1.03-.52-1.09-.54-.96-.48-1.91-.96-2.87-1.43-1.55-.77-2.93,1.05-1.82,2.36,1.32,1.54,2.63,3.08,3.95,4.62l-.23-1.82-.58.83,1.3-.74c-.34-.03-1.47-.33-1.7-.15.03-.03.88.41.4.07-.24-.17-.56-.28-.83-.41l-3.35-1.67c-1.52-.76-2.99,1.07-1.82,2.36,1.43,1.57,2.86,3.14,4.29,4.7l-.39-1.46-.38.99,1.85-1.05c-.72-.13-1.44-.25-2.16-.38-1.28-.22-2.34.98-1.69,2.2.38.71.76,1.43,1.14,2.14l.23-1.82-.79.67,1.82-.23c-1.8-.91-3.6-1.82-5.4-2.74-1.51-.77-2.99,1.07-1.82,2.36s2.41,2.63,3.62,3.95l1.82-2.36-4.7-2.14c-1.55-.71-2.95,1.02-1.82,2.36.92,1.09,1.85,2.18,2.77,3.27l1.46-2.51c-1.63-.25-3.24-.56-4.85-.91-1.45-.31-2.52,1.39-1.46,2.51,1.17,1.24,2.35,2.48,3.52,3.72l.3-2.36c-1.36.59-1.72,1.01-2.03,2.46l2.2-.9c-1.97-.92-3.93-1.83-5.9-2.75-1.56-.73-2.94,1.02-1.82,2.36l2.42,2.89,1.46-2.51c-1.11-.32-2.22-.64-3.32-.96-1.24-.36-2.38,1.09-1.69,2.2.61.99,1.14,2.02,1.96,2.84,1.03,1.04,2.07,2.07,3.1,3.11l1.06-2.56-1.03.04c-.2,0-.4.02-.6.02-.32,0,.45.09.14.02-.82-.19-1.63-.5-2.43-.75-1.2-.37-2.37-.52-3.61-.69s-2.76,1.42-1.46,2.51c2.01,1.68,4.02,3.36,6.03,5.04l1.46-2.51c-1.43-.3-2.81-.57-4.19-1.03-.9-.3-1.8-.67-2.72-.91s-1.61.22-2.42.66c-.53.29-.92,1.1-.69,1.69.65,1.66,1.44,2.83,2.52,4.25l1.69-2.2c-1.2-.32-2.39-.64-3.59-.96s-2.06.74-1.85,1.85c.14.74.2,1.43.66,2.04.32.43.77.81,1.14,1.19.41.43.9,1.2,1.42,1.49.45.25-.41-.44-.24-.47,0,0,.14.39.14.41.09.35.24.69.35,1.03l1.85-1.85c-2.24-.6-4.32-1.07-6.63-1.32-1.32-.14-1.95,1.72-1.06,2.56,1.11,1.05,2.21,2.09,3.32,3.14l1.06-2.56c-.89-.12-1.78-.23-2.66-.35-.94-.12-1.74,1.06-1.45,1.9l.53,1.5.69-1.69-.94.65,1.16-.15-3.05-.55c-1.29-.23-2.77,1.49-1.46,2.51,1.91,1.48,3.83,2.97,5.74,4.45l1.46-2.51c-1.15-.25-2.29-.51-3.44-.76-1.47-.32-2.49,1.38-1.46,2.51.75.82,1.5,1.64,2.26,2.45l1.06-2.56c-1.35-.02-2.64.01-3.99.13-.92.08-1.77.9-1.45,1.9l.47,1.45,1.85-1.85c-1.6-.49-3.19-.98-4.79-1.47-1.74-.53-2.44,1.79-1.16,2.74,2.09,1.55,4.18,3.1,6.27,4.65l.76-2.8c-.68-.03-1.36-.08-2.04-.08-.54,0,.42.1-.13,0-.4-.07-.8-.14-1.19-.21-.57-.1-1.16-.26-1.74-.31-1.05-.1-1.55.47-2.29,1.12-.62.54-.53,1.57,0,2.12.79.82,1.58,1.65,2.37,2.47l.66-2.51c-.32.09-.95.13-1.2.34-.36.3.45.02.49.05-.11-.08-.39-.06-.52-.09-.84-.16-1.68-.28-2.52-.42-1.39-.23-2.61,1.37-1.46,2.51.88.87,1.77,1.74,2.65,2.61l-.39-1.46c-.2.68-.4,1.36-.59,2.03l1.85-1.05c-1.63-.49-3.27-.98-4.9-1.46-1.39-.42-2.6,1.5-1.46,2.51s2.27,2.01,3.4,3.01l-.39-1.46-.37.98,1.45-1.1c-.97-.13-1.93-.25-2.9-.38-1.21-.16-1.75,1.37-1.3,2.26.28.54.56,1.08.84,1.62l1.69-2.2-3.32-.6c-1.36-.25-2.65,1.41-1.46,2.51,1.03.94,2.05,1.88,3.08,2.82l1.06-2.56c-.84-.06-1.68-.12-2.52-.18-1.17-.08-1.82,1.32-1.3,2.26.25.45.46.99.78,1.39.38.49.16-.65-.09-.21-.1.18-.07.59-.09.81l1.1-1.45-1.7.25c-1.14.17-1.41,1.79-.66,2.51.9.86,1.8,1.72,2.7,2.58l1.46-2.51c-1.23-.26-2.45-.51-3.68-.77-.95-.2-1.89.42-1.9,1.45v1.15c.49-.5.99-1,1.49-1.5-.71.01-1.45-.05-2.15.03-.9.1-1.27.62-1.82,1.25-.51.58-.64,1.56,0,2.12,1,.88,1.99,1.76,2.99,2.63v-2.12c-.33.39-.79.81-.98,1.29-.23.55-.07,1.18-.02,1.76l1.9-1.45c-1.73-.43-3.45-.85-5.18-1.28s-2.54,1.79-1.16,2.74c1.65,1.13,3.29,2.26,4.94,3.39l1.16-2.74c-1.08-.16-2.15-.32-3.23-.48s-1.79.07-2.83.42-1.46,1.66-.66,2.51l1.76,1.87,1.06-2.56c-1.2-.11-2.4-.22-3.61-.33-.51-.05-1.06.32-1.3.74l-.53.95c-.39.7-.18,1.65.54,2.05,1.24.71,2.49,1.42,3.73,2.13.54.31,1.17.83,1.77,1.01.52.15-.44-.79-.17-.12.14.34.4.69.59,1.01l.9-2.2c-.57.1-1.15.22-1.72.31-.53.09.32.02-.02-.02-.27-.03-.55-.05-.82-.08-1.24-.12-2.48-.23-3.73-.35s-1.78,1.34-1.3,2.26c.84,1.59,1.66,2.94,2.85,4.31l.3-2.36-1.04.79c-.82.62-.97,1.54-.3,2.36l1.04,1.28.66-2.51c-1.63.34-2.82.64-4.25,1.48-1.22.71-.78,2.27.36,2.74,1.42.58,2.84,1.17,4.25,1.75l.4-2.95c-2.05.05-4.1.1-6.16.15-1.66.04-2.07,2.51-.4,2.95,2.49.65,4.99,1.31,7.48,1.96l.4-2.95c-1.65.16-3.29.32-4.94.49-1.25.12-2.04,1.57-1.06,2.56.8.81,1.6,1.51,2.49,2.21l.3-2.36c-.55.3-1.17.56-1.67.92-.65.47-.83,1.21-1.11,1.93-.29.75.33,1.65,1.05,1.85,1.23.33,2.47.65,3.7.98v-2.89c-.9.37-2.06.65-2.88,1.19-.91.6-1.3,2.02-1.69,2.98l.69-.9-1.72,1.19c-.84.58-.96,1.58-.3,2.36.45.53.83,1.14,1.52,1.37.64.21,1.42.22,2.09.32.36.06.76.17,1.12.17-.02,0,.33.07.35.05-.07.08-.72-.63-.4-.21.11.15.94.85.57.44.21.24.38.54.56.81l.23-1.82c-.76.95-1.28,1.75-1.7,2.9-.27.74.31,1.67,1.05,1.85l2.16.51-.9-2.2-.61,1.14c-.39.73-.17,1.6.54,2.05l1.11.7-.3-2.36c-.33.43-.7.84-1.01,1.29-.34.5-.44.82-.4,1.41.01.18.07.36.06.54.01-.37,0-.07-.06.14-.03.13-.18.39-.15.52.03.17.29-.37.22-.39-.1-.03-.72.56-.77.6-.52.4-1.03.8-1.55,1.21-.84.66-.4,2.36.66,2.51l2.2.31-.9-2.2-.6.85c-.11.16-.22.32-.34.48-.3.39.32-.35.01-.03-.56.57-1.12,1.14-1.68,1.71-1.08,1.1.02,2.83,1.46,2.51,1.99-.44,3.98-.89,5.97-1.33l-1.46-2.51c-.78.7-1.57,1.39-2.35,2.09-.69.61-.54,1.95.3,2.36l1.2.58-.69-.9.33.96c.19.57.78,1.18,1.45,1.1,1.02-.12,2.04-.24,3.06-.36l-1.06-2.56c-.69.71-1.39,1.42-2.08,2.13-.85.87-.36,2.1.66,2.51l1.24.5-1.05-1.05.3.98.39-1.46c-.7.73-1.43,1.45-2.1,2.21-.61.68-.86,1.57-1.19,2.41-.43,1.09.84,2.14,1.85,1.85,1.41-.41,2.82-.82,4.22-1.23l-1.85-1.85-.65,1.56c-.46,1.1.85,2.12,1.85,1.85,1.19-.33,2.38-.65,3.56-.98l-1.69-.69c.27.51.48.95.9,1.34.07.07.78.68.42.26.18.21.31.51.45.76v-1.51c-.62.81-1.25,1.63-1.87,2.44-.71.93.26,2.27,1.3,2.26l1.84-.03-1.3-.74.53.85.23-1.82-3.6,3.8c-1.01,1.06-.02,2.94,1.46,2.51,1.91-.56,3.81-1.1,5.73-1.63l-1.85-1.85-.39,1.54c-.2.79.25,1.62,1.05,1.85l1.21.35-.9-.69c.4.55.77,1.09,1.12,1.67v-1.51c-.67.97-1.34,1.94-2.01,2.9-.44.64-.15,1.71.54,2.05.77.39,1.37.77,2.27.63.72-.11,1.44-.34,2.16-.51l-1.69-2.2-2.16,3.13c-.92,1.34.82,2.66,2.05,2.05s2.53-1.25,3.8-1.87l-2.05-2.05c-.57.94-1.14,1.88-1.71,2.81-.66,1.08.44,2.62,1.69,2.2l2.53-.84-1.69-2.2-2.67,3.72c-.88,1.22.84,2.86,2.05,2.05,2.05-1.37,4.09-2.74,6.14-4.1l-2.2-1.69c-.27.65-.64,1.32-.83,2-.2.74.05,1.31.27,2.02l.15-1.16-2.75,3.92c-.86,1.23.83,2.85,2.05,2.05,1.64-1.07,3.29-2.13,4.93-3.2l-2.05-2.05c-.99,1.39-1.98,2.79-2.96,4.18-.92,1.3.83,2.7,2.05,2.05,1.13-.6,2.26-1.2,3.39-1.8l-2.05-2.05c-.51.9-1.03,1.79-1.52,2.7-.42.78-.48,1.53-.6,2.42-.16,1.15.99,2.52,2.2,1.69,1.67-1.15,3.35-2.29,5.02-3.44l-2.05-2.05c-.8,1.26-1.6,2.53-2.4,3.79-.67,1.06.45,2.64,1.69,2.2,1.48-.52,2.96-1.03,4.46-1.52l-1.85-1.85c-.29.72-.65,1.45-.88,2.19s0,1.44.2,2.21c.23.91,1.4,1.41,2.2.9,1.27-.81,2.53-1.62,3.8-2.43l-2.05-2.05c-1.06,1.98-1.96,3.76-2.62,5.9-.29.93.5,1.91,1.45,1.9.46,0,.92-.02,1.38-.01-.65-.02.64.12.88.16l-1.05-1.05c.06.25.11.49.17.74.04.14.12.77.06.14.05.47.03.96.04,1.44.03,1.07,1.27,1.96,2.26,1.3l3.5-2.36-2.05-2.05c-.58,1.17-1.15,2.34-1.73,3.51-.67,1.37.68,2.72,2.05,2.05.8-.39,1.6-.78,2.39-1.17l-2.26-1.3.08,1.49c.05.83.65,1.48,1.5,1.5.41.01.84-.02,1.25.03-.59-.08.55.2.75.26l-.9-.69.52.98c.25.47.78.73,1.3.74l1.29.03-1.45-1.9c-.19.8-.39,1.6-.58,2.4s.25,1.6,1.05,1.85l1.06.33-1.05-1.85c-.38,1.08-.76,2.16-1.13,3.24-.54,1.54,1.46,2.33,2.51,1.46s2.18-1.81,3.27-2.72c.38-.32-.4.29.06-.05.28-.21.56-.42.83-.63.57-.43,1.15-.86,1.72-1.29l-2.26-1.3c-.14,1.08-.56,2.25.16,3.18.68.87,1.43,1.12,2.48,1.31l-1.05-1.85c-.38,1.1-.77,2.2-1.15,3.29s-.15,1.83.11,2.9,1.76,1.5,2.51.66c1.38-1.56,2.76-3.11,4.15-4.67l-2.51-1.46c-.43,2.32-1.01,4.52-1.66,6.79-.39,1.37,1.52,2.65,2.51,1.46,1.29-1.56,2.58-3.11,3.87-4.67l-2.51-1.46-1.12,3.76c-.36,1.2-.17,2.19.01,3.43.16,1.11,1.82,1.45,2.51.66,1.62-1.84,3.23-3.61,5-5.31l-2.51-1.46c-.52,1.9-1.05,3.8-1.57,5.69-.39,1.43,1.46,2.55,2.51,1.46,1.28-1.33,2.55-2.59,3.94-3.8l-2.56-1.06-.21,3.16c-.08,1.24,1.74,2.05,2.56,1.06.69-.83,1.37-1.66,2.06-2.49l-2.51-1.46c-.27,1.72-.54,3.44-.81,5.16-.18,1.15.65,2.1,1.85,1.85,1.43-.3,2-.76,3.01-1.8.73-.75,1.41-1.54,2.11-2.32l-2.56-1.06c-.22,2.07-.43,4.15-.65,6.22-.15,1.47,2.16,2.05,2.8.76.76-1.55,1.52-3.1,2.28-4.65l-2.74-.36.46,2.57c.16.91,1.45,1.42,2.2.9l1.25-.87-2.26-1.3c.13,1.25.27,2.5.4,3.74.16,1.53,1.88,1.97,2.8.76.46-.6.91-1.21,1.37-1.81-.39.51.21-.25.34-.42l.72-.91-2.36-.3c.32.51.61,1.11,1.01,1.55.62.68,1.39.59,2.24.58.66,0,1.27-.46,1.45-1.1.42-1.56.85-3.11,1.27-4.67l-2.95-.4c.26,2.47.52,4.95.79,7.42.09.85.62,1.45,1.5,1.5l1.13.07c.61.04,1.33-.49,1.45-1.1.32-1.66.65-3.32.97-4.98l-2.74.36,1.09,1.55c.67.95,2.49,1.02,2.74-.36.24-1.27.47-2.55.71-3.82l-2.74.36c.44.99.78,2.56,1.64,3.26.22.18.55.36.83.45.77.24-.29-.69.09-.02.33.59.77,1.13,1.14,1.69.72,1.06,2.35.92,2.74-.36.23-.74.45-1.48.68-2.23l-2.74.36,1.43,1.86c.63.81,2.03,1.12,2.59,0,.42-.84.89-1.6.97-2.54.09-1.04.13-2.08.2-3.12l-2.8.76c.81,1.71,1.61,3.43,2.42,5.14.45.95,1.68.86,2.36.3.8-.65,1.26-1.04,1.38-2.11.09-.78.18-1.56.27-2.34.17-1.6.32-3.19.45-4.79l-2.8.76c1.43,1.98,2.88,3.89,4.43,5.78.78.95,2.73.21,2.56-1.06-.18-1.38-.36-2.75-.55-4.13l-1.9,1.45c.42.17.87.43,1.31.53.31.07.63.06.95.04.15,0,.31-.01.47,0-.33,0-.23-.03.04,0,.16.02.34.09.5.09.42,0,.16.23.01-.12-.04-.09-.35-.34-.12-.03.09.12.24.21.35.31.47.42.94.84,1.41,1.26.96.85,2.54.29,2.56-1.06.03-2.35-.37-4.39-.85-6.7l-2.74,1.16c1.25,1.72,2.5,3.44,3.76,5.17.96,1.32,3.19.59,2.74-1.16-.39-1.49-.77-2.98-1.16-4.47l-2.51,1.46c.8.78,1.6,1.56,2.4,2.34,1.03,1,3,0,2.51-1.46-.63-1.87-1.25-3.73-1.88-5.6l-2.51,1.46c1.47,1.34,2.95,2.63,4.48,3.9,1.06.87,3.01.09,2.51-1.46s-1.03-3.16-1.54-4.74l-2.51,1.46c1.28,1.53,2.56,3.06,3.84,4.59.98,1.17,2.93-.09,2.51-1.46s-.85-2.79-1.28-4.19l-1.85,1.85c1.08.24,1.82.45,2.87,0,.97-.42,1.21-1,1.62-1.92l-2.05.54c.71.51,1.42,1.03,2.14,1.54,1.02.74,2.67-.5,2.2-1.69-.67-1.73-1.34-3.45-2.01-5.18l-2.51,1.46c.83.77,1.65,1.55,2.5,2.3.68.61,1.46.9,2.3,1.27,1.14.5,2.58-.33,2.2-1.69-.31-1.14-.62-2.28-.94-3.42l-1.45,1.9c1.13.15,1.93.2,2.91-.49s.87-1.9.97-2.98l-2.56,1.06c1.08,1.05,2.17,2.11,3.25,3.16.7.68,1.85.52,2.36-.3.58-.93.82-1.52.76-2.62-.01-.22-.08-1.54-.11-.84.02-.48.15-.98.23-1.45l-2.51.66c.96.85,1.88,1.78,2.88,2.57.64.5,1.18.55,1.94.35.19-.05.38-.12.57-.16-.17.03-.36.04-.07.03.33,0,.66,0,1,0,.81,0,1.5-.69,1.5-1.5,0-1.07.05-1.98-.33-2.98-.45-1.18-.9-2.36-1.35-3.55l-2.51,1.46,2.99,2.6c1.07.93,2.96.06,2.51-1.46-.33-1.09-.65-2.18-.98-3.28l-2.2,1.69c.62.3,1.24.61,1.86.91.95.47,2.32-.08,2.26-1.3l-.11-1.97-2.26,1.3c1.49,1.05,2.98,2.03,4.55,2.96,1.39.83,2.64-.77,2.05-2.05l-2.38-5.23-2.05,2.05,1.96,1.02c.93.48,2.35-.09,2.26-1.3l-.15-2-2.56,1.06c1.05.9,2.11,1.8,3.16,2.7,1.33,1.13,3.06-.26,2.36-1.82s-1.48-3.27-2.22-4.9l-2.36,1.82c1.62,1.68,3.24,3.36,4.85,5.04,1.27,1.32,2.99-.35,2.36-1.82s-1.29-2.98-1.93-4.46l-1.3,2.26,1.28.02c.81.01,1.51-.7,1.5-1.5,0-.53-.08-1.11-.01-1.63,0,.06-.11.28.12-.19.11-.22.18-.46.26-.69l-2.51.66c1.42,1.36,2.84,2.73,4.27,4.09.92.88,2.59.27,2.56-1.06s-.1-2.24-.63-3.41l-1.63-3.61-2.36,1.82c1.61,1.59,3.22,3.18,4.82,4.78,1.25,1.24,3.09-.32,2.36-1.82-.83-1.69-1.66-3.37-2.49-5.06l-1.3,2.26,1.39.15c.74.08,1.59-.75,1.5-1.5-.08-.68-.17-1.36-.25-2.04l-2.26,1.3c.77.54,1.53,1.1,2.33,1.61.71.46,1.43.55,2.26.72,1.35.27,2.24-1,1.69-2.2-.62-1.37-1.23-2.74-1.85-4.11l-2.36,1.82c1.62,1.55,3.24,3.09,4.86,4.64,1.23,1.17,3.2-.31,2.36-1.82-1.15-2.05-2.29-4.1-3.44-6.14l-.54,2.05.86-.56-1.16.15,1.75.58c1.18.39,2.02-.8,1.85-1.85l-.36-2.12-2.2,1.69c1.56.92,3.13,1.8,4.72,2.67,1.34.73,2.75-.72,2.05-2.05-.85-1.62-1.69-3.23-2.54-4.85l-2.36,1.82c1.68,1.56,3.37,3.12,5.05,4.68,1.29,1.19,3.08-.3,2.36-1.82-.64-1.35-1.28-2.7-1.92-4.04l-.9,2.2c.9-.17,1.65-.43,2.49-.78h-1.51l2.82,1.84c1.33.86,2.71-.8,2.05-2.05-.57-1.08-1.13-2.17-1.7-3.25-.04-.09-.57-1.24-.64-1.22.17-.03.07,1.03.19.53.04-.17-.01-.44-.02-.62l-.02-.83-2.26,1.3c.94.42,1.86.76,2.68,1.38l3.13,2.42c1.27.98,2.7-.86,2.05-2.05-.6-1.11-1.2-2.21-1.8-3.32-.06-.1-.62-1.31-.71-1.3.19-.02.04,1.02.18.52.04-.13-.03-.37-.04-.51l-.07-1.01-2.26,1.3c.95.6,1.9,1.2,2.85,1.8,1.07.68,2.62-.45,2.2-1.69-.3-.88-.6-1.77-.9-2.65l-.15,1.16.63-.84-1.69.69,1.09.39c.22.08.44.15.66.23.4.15-.44-.23,0,0,.76.42,1.54.82,2.31,1.23,1.4.75,2.66-.72,2.05-2.05l-1.52-3.34-1.69,2.2c1.23.33,2.26.53,3.54.55.94,0,1.75-.97,1.45-1.9-.27-.84-.55-1.67-.82-2.51l-2.51,1.46c1.58,1.28,3.16,2.57,4.74,3.85,1.32,1.07,3.11-.23,2.36-1.82-.29-.61-.59-1.23-.88-1.84-.19-.39-.37-.79-.56-1.18-.05-.11-.11-.21-.15-.32-.07-.17.19.53.07.14-.23-.72-.46-1.44-.68-2.16.16.5-.03-.12-.08-.47l-.13-1.04-2.56,1.06c1.88,1.6,3.77,3.2,5.65,4.79,1.04.88,3.06.08,2.51-1.46-.86-2.4-1.91-4.5-3.12-6.75l-1.3,2.26c.29.03.59.06.88.08.1,0,.37.08.46.04.28-.14-.77-.41-.47-.13.48.45,1.44.69,2.04.98.98.48,1.94.98,2.91,1.48,1.23.63,2.43-.4,2.2-1.69s-.49-2.28-1.1-3.46c-.32-.63-.6-1.48-1.05-2.03-.27-.33-.03.12,0,.15.26.24.03.46.1-.07.04-.33,0-.69,0-1.02l-2.56,1.06c1.91,1.55,3.81,3.1,5.72,4.65.92.75,2.65.36,2.56-1.06-.08-1.25-.15-2.13-.8-3.2-.7-1.16-1.4-2.31-2.11-3.47l-2.05,2.05,2.92,1.6c1.03.57,2.73-.41,2.2-1.69-.36-.88-.72-1.76-1.09-2.65l-1.85,1.85,1.66.25c1.1.17,2.16-.64,1.85-1.85-.33-1.28-.61-2.53-.83-3.83l-2.2,1.69c1.8,1.38,3.6,2.75,5.39,4.13,1.08.83,2.53-.54,2.2-1.69-.69-2.45-1.64-4.76-2.6-7.11l-2.2,1.69c1.11.75,2.22,1.51,3.32,2.26s1.87.87,3.23.92c1.24.04,1.74-1.28,1.3-2.26l-1.23-2.71v1.51l.45-1-2.05.54c.77.33,1.53.65,2.3.98.94.4,1.57.19,2.5-.09s1.38-1.35.9-2.2c-.64-1.13-1.29-2.25-1.93-3.38l-2.05,2.05c.95.46,1.9.92,2.85,1.38,1.27.62,2.9-.69,2.05-2.05-.77-1.24-1.54-2.48-2.3-3.72l-2.05,2.05c1.44.94,2.89,1.88,4.33,2.81.45.29,1.06.26,1.51,0l.93-.53c.66-.38,1-1.39.54-2.05-1.07-1.53-2.15-3.05-3.22-4.58l-2.05,2.05,3.31,2.09c1.1.69,1.86.78,3.17.79.92,0,1.77-.97,1.45-1.9s-.61-1.97-1.12-2.86c-.63-1.1-1.35-2.15-2.02-3.23l-1.69,2.2c.63.17,1.25.33,1.88.5.32.09-.41-.28.04.03.24.17.51.32.76.47,1.12.69,2.23,1.39,3.35,2.08.76.47,2.04.06,2.2-.9.1-.6.37-1.43.21-2.03-.13-.48-.55-.92-.83-1.32-.78-1.1-1.55-2.2-2.33-3.29l-2.05,2.05,3.11,1.51c1.27.62,2.9-.69,2.05-2.05-.69-1.12-1.39-2.23-2.08-3.35l-1.69,2.2,1.78.25c1.35.19,2.25-.94,1.69-2.2-.34-.78-.69-1.57-1.03-2.35l-1.3,2.26c.87-.06,1.82-.04,2.64-.36.67-.26-.46-.2-.3-.04.12.11.49.16.63.2.47.15.95.36,1.43.46.45.1.8.07,1.23-.05.01,0,.73-.27.73-.26.29.78-1.07-.38-.46.08.67.5,1.77.73,2.55,1.04,1.56.64,2.26-1.5,1.46-2.51-1.3-1.64-2.6-3.28-3.91-4.92l.44,1.06-.2-1.55-2.26,1.3c1.23.74,2.46,1.49,3.69,2.23,1.13.69,2.05.9,3.37,1.15,1.15.21,2.52-1.04,1.69-2.2-.89-1.25-1.77-2.49-2.66-3.74l-2.05,2.05c1.33.72,2.67,1.44,4,2.16,1.24.67,2.95-.75,2.05-2.05-.8-1.16-1.6-2.33-2.4-3.49l-.54,2.05.88-.6-1.16.15,2.77,1.05c1.22.46,2.39-1.16,1.69-2.2-.51-.77-1.02-1.54-1.52-2.3-.05-.08-.56-.89-.58-.88.23-.11.11,1.14.18.19.02-.27-.01-.56-.02-.84l-2.26,1.3c1.72,1.03,3.44,2.06,5.16,3.09,1.24.74,2.91-.78,2.05-2.05-.72-1.07-1.45-2.15-2.17-3.22l-2.05,2.05c1.1.49,2.2.97,3.29,1.46,1.2.53,2.48-.34,2.2-1.69-.2-.97-.32-1.77-.89-2.58-.65-.92-1.3-1.85-1.95-2.77l-1.69,2.2,2.6.85c.84.27,1.55-.33,1.85-1.05.65-1.58.64-2.83.38-4.51l-.69,1.69,1-.51-1.16.15c.75.23,1.51.5,2.27.7.86.22,1.39-.03,2.18-.36,1.08-.45,1.44-1.57.66-2.51-1.16-1.4-2.33-2.79-3.49-4.19l-1.82,2.36c1.44.74,2.89,1.47,4.33,2.21,1.58.81,2.87-1.04,1.82-2.36s-2.01-2.52-3.02-3.78l-1.46,2.51,3.02,1.13c.9.33,1.94-.53,1.9-1.45l-.06-1.37-2.26,1.3c1.31.61,2.62,1.22,3.93,1.83,1.51.7,3.02-1.05,1.82-2.36-1.52-1.66-3.05-3.31-4.57-4.97l.23,1.82c.07-.15.17-.33.21-.48.03-.12.23-.86-.04-.2-.15.36-.23.17.22,0,.17-.06.34-.17.51-.25h-1.51l6.04,3.46c.95.55,2.3-.14,2.26-1.3l-.05-1.36-1.1,1.45,1.42-.21c1.18-.17,1.36-1.78.66-2.51-1.63-1.71-3.26-3.42-4.9-5.12l-1.82,2.36c1.74.91,3.48,1.83,5.21,2.74.8.42,2,.09,2.2-.9.18-.88.4-1.57,0-2.43-.34-.73-.79-1.43-1.18-2.13l-1.69,2.2,2.39.53c1.32.29,2.29-1.02,1.69-2.2-.68-1.36-1.35-2.73-1.99-4.11l-1.3,2.26c1.28-.09,2.19-.26,3.35-.82.71-.35.95-1.41.54-2.05l-1.58-2.47-1.69,2.2,3.35,1.22c1,.36,1.81-.56,1.9-1.45l.12-1.2-1.1,1.45c1.31-.43,2.19-.81,2.6-2.23.21-.73-.02-1.42-.18-2.15-.13-.58-.02.26-.05-.35-.01-.31-.03-.61-.04-.92l-1.5,1.5c.59.02,1.24.13,1.83.07.98-.1,1.37-.85,1.87-1.59.29-.42.27-1.09,0-1.51l-1.44-2.29-1.69,2.2c1.46.38,2.76.79,4.27.73,1.28-.05,2.57-.17,3.85-.26s2.08-1.62,1.06-2.56c-1.78-1.64-3.56-3.28-5.34-4.91l-1.06,2.56c1.06.1,2.11.39,3.07-.17,1.28-.76,1.42-1.57,1.39-2.98l-2.26,1.3c1.89.82,3.78,1.65,5.67,2.47,1.44.63,3.19-1.11,1.82-2.36-1.53-1.39-3.05-2.78-4.58-4.17l.44,1.06c.03-.76.08-1.51.16-2.27l-1.1,1.45,1.18-.45c.6-.23,1.14-.75,1.1-1.45l-.06-1.21-1.5,1.5,1.92-.03c1.23-.02,1.75-1.24,1.3-2.26-.23-.52-.46-1.04-.7-1.56l-1.69,2.2c1.93.7,3.85,1.4,5.78,2.1,1.74.63,2.39-1.8,1.16-2.74-1.9-1.44-3.81-2.89-5.71-4.33l-1.16,2.74c1.7.54,3.4,1.08,5.1,1.61,1.36.43,2.65-1.55,1.46-2.51-1.37-1.11-2.75-2.22-4.12-3.33l-1.46,2.51c1.41.41,2.82.82,4.23,1.24,1.22.36,2.39.32,3.66.34.96.01,1.72-.97,1.45-1.9-.21-.7-.34-1.49-.82-2.06-.51-.61-1.22-1.12-1.8-1.65-1-.91-1.95-1.86-2.92-2.8l-1.06,2.56c.63-.07,1.25-.15,1.88-.22-.5.06-.23-.04.11.04s.65.15.98.22c1.3.29,2.61.58,3.91.87,1.37.31,2.64-1.45,1.46-2.51-.8-.71-1.59-1.43-2.39-2.14l-1.06,2.56,2.6-.08c1.51-.05,2.01-1.99.76-2.8-1.48-.95-2.95-1.89-4.43-2.84l.69,1.69.17-1.01-.69.9c.48-.22.96-.43,1.43-.66.29-.14.73-.25.96-.47.37-.34-.41.29-.49.11,0,.01.32.03.3.03,1.3.31,2.8.26,4.14.38.77.07,1.55-.75,1.5-1.5-.06-.93-.02-1.72-.74-2.4-.61-.57-1.31-1.07-1.96-1.61l-.66,2.51,1.58-.61c1.18-.46,1.52-2.02.36-2.74-.82-.51-1.64-1.02-2.45-1.52-.19-.12-.4-.31-.61-.38-.63-.21.94.12.3.36-.06.02-.84-1.17-.89-1.25l-.54,2.05c.26-.13.54-.26.79-.4.08-.05.37-.13.41-.21.15-.28-.89.07-.48.12.68.08,1.54-.17,2.23-.25,1.14-.13,2.27-.36,3.4-.57,1.22-.22,1.52-2.22.36-2.74-1.7-.76-3.41-1.53-5.11-2.29l-.36,2.74c1.61-.38,3.22-.72,4.84-1.02s1.22-2.41,0-2.89c-1.86-.74-3.71-1.49-5.57-2.23l-.4,2.95c1.95.05,3.9.1,5.86.15,1.83.05,1.85-2.34.4-2.95-1.58-.66-3.16-1.31-4.74-1.97l-.4,2.95,3.65-.36c1.51-.15,2-1.91.76-2.8l-1.95-1.39v2.59l1.39-.8c.94-.54,1.01-2.07,0-2.59s-1.93-1-2.9-1.51l-.76,2.8c2.49-.23,4.78-.48,7.2-1.09,1.28-.32,1.44-2.09.36-2.74-1.82-1.1-3.63-1.99-5.57-2.87l-.76,2.8c1.89-.1,3.78-.2,5.67-.3,1.26-.07,2.03-1.61,1.06-2.56-.57-.56-1.09-1.18-1.8-1.57-.85-.47-1.76-.84-2.64-1.26l-.76,2.8c1.59-.17,3.19-.33,4.78-.5,1.33-.14,2.23-2.07.76-2.8-2.07-1.03-4.14-1.95-6.27-2.85l.36,2.74,1.25-.9c.77-.55,1.04-1.62.3-2.36l-1.14-1.13.23,1.82c.04-.09.45-.91.46-.91.59.24-1.05.56-.15.31.21-.06.41-.19.6-.28.13-.06,1.09-.47.77-.36-.35.13.06,0,.13-.03.24-.07.48-.15.72-.23,1.34-.42,2.66-.89,3.98-1.37,1.4-.51,1.45-2.4,0-2.89-1.3-.44-2.59-.88-3.89-1.32v2.89l2.71-.86c1.17-.37,1.55-2.11.36-2.74-1.9-1.01-3.78-1.78-5.79-2.55l.36,2.74,1.62-.94c.98-.56.97-2.02,0-2.59l-1.93-1.13-.36,2.74c2.24-.43,5.55-.56,7.1-2.51.52-.65.95-1.24.83-2.11-.1-.74-.37-1.49-.97-1.95-.53-.4-1.23-.67-1.81-.99-.05-.03-.36-.21-.09-.02.31.21-.17-.16-.22-.21-.27-.25-.54-.49-.82-.74l-.3,2.36,1.33-.99c.98-.73.99-2.38-.36-2.74-1.48-.39-2.97-.79-4.45-1.18l-.4,2.95c2.4-.27,4.8-.53,7.2-.8.93-.1,1.76-.88,1.45-1.9-.17-.56-.28-1.28-.7-1.71-.38-.38-.95-.46-1.44-.6-1.17-.32-2.33-.63-3.5-.95l.36,2.74c1.37-.61,2.69-1.24,4.02-1.96,1.08-.58.92-2.5-.36-2.74-2.13-.4-4.25-.8-6.38-1.2v2.89c.94-.28,1.9-.53,2.83-.84,1.13-.37,1.4-1.14,1.81-2.17.32-.8-.36-1.58-1.05-1.85-.95-.37-1.91-.73-2.86-1.1l.36,2.74c.57-.36,1.23-.67,1.74-1.11.3-.26.54-.61.78-.93.7-.96-.55.11.2-.15,1.28-.46,2.57-1.26,3.83-1.81,1.16-.5.86-2.53-.36-2.74-2.19-.39-4.38-.77-6.57-1.16v2.89c1.11-.41,2.79-.72,3.54-1.68.16-.2.39-.52.47-.76.12-.36-.67.28-.05.11s1.18-.59,1.72-.86c1.17-.59.84-2.43-.36-2.74-1.35-.35-2.69-.7-4.04-1.06v2.89c1.77-.35,3.54-.69,5.31-1.04,1.41-.28,1.45-2.65,0-2.89-2-.34-3.99-.67-5.99-1.01l.9,2.2c.15-.21.3-.42.45-.63.08-.12.16-.24.25-.35-.11.12-.22.28-.03.08.22-.22.58-.46.73-.72s-.86.24-.19.13c1.14-.19,2.29-.7,3.4-1.04,1.29-.39,1.55-2.66,0-2.89-1.93-.29-3.85-.58-5.78-.87v2.89c1.89-.42,3.78-.83,5.68-1.25,1.39-.3,1.48-2.66,0-2.89-1.7-.27-3.4-.55-5.11-.82v2.89c1.02-.4,2.04-.8,3.07-1.2.88-.34,1.43-1.3.9-2.2l-.6-1.01-.54,2.05c.91-.42,1.81-.84,2.72-1.25,1.22-.56.79-2.41-.36-2.74l-2.88-.83.9.69c-.37-.88-.59-1.44-1.55-1.76-.79-.27-1.62-.46-2.42-.7l.66,2.51,1.29-1.17c.65-.59.48-1.51,0-2.12-.67-.84-1.34-1.39-2.2-2.04v2.59c1.64-.91,3.02-1.78,4.45-2.99,1.04-.89.15-2.52-1.06-2.56l-4.88-.16.4,2.95c1.33-.54,2.67-1.08,4-1.61.46-.18,1.07-.33,1.49-.61.68-.45.86-1.37,1.11-2.1.31-.88-.51-1.96-1.45-1.9-2.2.15-4.41.31-6.61.46l1.5,1.5-.1-.99-.74,1.3c.96-.61,1.92-1.21,2.89-1.82,1.08-.68.91-2.39-.36-2.74s-2.49-.68-3.74-.99l.36,2.74c1.37-.81,2.74-1.62,4.11-2.43,1.1-.65.89-2.4-.36-2.74l-1.8-.48,1.05,1.85c.09-.28.38-.82.34-1.1-.05-.33-.54.45-.24.41.08,0,.39-.35.43-.39l1.74-1.6c.69-.64.53-1.92-.3-2.36-1.13-.6-2.09-.92-3.33-1.21l1.1,1.45c0-.93-.08-1.79-.21-2.71-.09-.65-.85-1.09-1.45-1.1s-1.29-.13-1.87-.03c-.69.12.48.05.4.17,0,0-.37-.16-.39-.17-.27-.14-.59-.3-.89-.39-1.15-.33-2.67.26-3.82.49l1.46,2.51c1.24-1.19,2.49-2.38,3.73-3.56,1.32-1.26-.35-2.99-1.82-2.36-1.74.76-3.48,1.51-5.22,2.27l1.82,2.36c1.57-1.51,3.14-3.03,4.71-4.54,1.27-1.22-.34-3.11-1.82-2.36-1.86.95-3.71,1.89-5.57,2.84l2.05,2.05c.79-1.48,1.58-2.95,2.37-4.43.73-1.36-.72-2.72-2.05-2.05-1.25.62-2.51,1.25-3.76,1.87l2.05.54c-.75-1.12-1.27-1.46-2.58-1.73l1.05,1.85.33-1.67c.2-1-.69-2.3-1.85-1.85-.73.29-1.46.57-2.18.86l1.69,2.2c1.34-1.92,2.68-3.84,4.02-5.77.31-.45.24-1.06,0-1.51l-.54-1.03c-.48-.92-1.65-.89-2.36-.3-1.58,1.32-3.17,2.64-4.75,3.96l2.56,1.06c-.03-.27-.04-.55-.09-.82-.03-.14-.05-.31-.05-.46,0,.06-.06.45-.02.17.1-.67.33-1.35.49-2,.25-.98.5-1.96.75-2.94.34-1.33-1.05-2.27-2.2-1.69l-2.03,1.01h1.51c-1.2-.6-2.09-.77-3.4-.33-.95.32-1.76,1.06-2.57,1.64l2.2,1.69c.59-1.67,1.19-3.34,1.78-5.01.27-.75-.31-1.66-1.05-1.85l-1.08-.28c-.49-.13-1.11-.02-1.46.39-.73.85-1.47,1.7-2.2,2.55-.05.06-.88,1-.87,1.01-.02-.02,1.09-.53-.02-.11l-.67.25,1.9,1.45-.18-1.86c-.1-1.01-1.24-2.02-2.26-1.3l-1.59,1.14,2.2,1.69c.4-1.76.79-3.51,1.19-5.27.37-1.65-1.83-2.63-2.74-1.16-1.06,1.71-2.13,3.43-3.19,5.14l2.74,1.16c.27-1.61.53-3.21.8-4.82.17-1.02-.66-2.28-1.85-1.85-1.38.5-2.28,1.14-3.4,2.09l2.56,1.06c.21-1.81.42-3.62.63-5.42.16-1.41-1.69-1.82-2.56-1.06-.73.64-1.45,1.18-1.97,2-.6.94-1.15,1.92-1.72,2.87l2.05-.54-.92-.4c-.67-.29-1.25-.24-1.82.23l-1.24,1.03,2.56,1.06c-.07-1.25-.06-2.54-.22-3.78-.11-.83-.56-1.39-1.34-1.69-.66-.26.33.67-.1-.06-.18-.3-.39-.57-.59-.86-.61-.89-2.01-1.04-2.59,0-.48.86-.95,1.72-1.43,2.57l2.8.76c-.17-1.38-.35-2.77-.52-4.15s-2.03-2.23-2.8-.76c-.45.88-.91,1.75-1.36,2.63l2.74.36-.83-2.46c-.4-1.18-2.08-1.54-2.74-.36l-.55.97c-.14.24-.28.48-.41.73-.04.07-.41.6-.18.35.21-.23-1.02.76-.8.6.25-.18-.3.19-.38.25-.18.12-.35.24-.53.36l1.82.23-.99-.92c-.69-.64-1.87-.57-2.36.3l-1.05,1.9h2.59l-1-1.72c-.44-.75-1.75-1.09-2.36-.3l-1,1.3,2.36.3-1.05-1.57c-.74-1.1-2.31-.88-2.74.36l-.92,2.62,2.2-.9-1.03-.72c-.55-.38-1.37-.2-1.82.23l-.95.91,2.36.3c-.39-.76-.78-1.52-1.17-2.29-.59-1.15-2.43-.86-2.74.36l-.76,3.01,2.74-.36c-.4-.71-.8-1.42-1.2-2.13-.33-.57-1.06-.87-1.69-.69-.22.06-.54.09-.73.2-.27.17.55.22.26-.03-.33-.28-1.06-.32-1.46-.36-1.4-.15-1.88.43-2.71,1.46l2.36.3c-.5-1.09-.99-2.19-1.49-3.28-.56-1.23-2.41-.79-2.74.36-.17.58-.33,1.15-.5,1.73-.06.22-.33.9-.07.36-.15.31-.34.59-.51.89-.56,1.01-.76,2.13-1.05,3.25l2.74-.36c-.52-1.08-1.05-2.17-1.57-3.25s-2.56-.92-2.74.36c-.15,1.09-.3,2.19-.46,3.28l1.45-1.1c-.58,0-1.26-.11-1.78.19-.46.27-.8.8-1.15,1.19l2.36.3c-.6-1.32-1.2-2.65-1.79-3.97-.48-1.06-2.07-.9-2.59,0l-.78,1.34h2.59c-.63-1.41-1.27-2.83-1.9-4.24-.45-1-2.13-.96-2.59,0s-.93,1.82-1.55,2.71l2.36-.3-1.34-1.38c-.63-.64-1.94-.58-2.36.3-.53,1.12-.9,2.03-1.06,3.25-.07.56-.35,1.38-.25,1.94.06.38.05-.62.16-.57,0,0-.25.46-.27.49-.16.26-.3.53-.44.8l2.36-.3-1.28-1.08c-.65-.55-1.94-.66-2.36.3l-.69,1.62h2.59l-1.61-2.57c-1.02-1.63-3.62-.13-2.59,1.51l1.61,2.57c.54.85,2.12,1.1,2.59,0l.69-1.62-2.36.3,1.28,1.08c.71.6,1.85.6,2.36-.3.64-1.16.95-2.04,1.12-3.34.02-.13.28-1.75.23-1.76.13.04-.42.94-.11.53.12-.15.19-.4.27-.57l.36-.77-2.36.3,1.34,1.38c.72.74,1.82.47,2.36-.3.62-.88,1.08-1.74,1.55-2.71h-2.59c.63,1.41,1.27,2.83,1.9,4.24.47,1.06,2.07.89,2.59,0l.78-1.34h-2.59c.6,1.32,1.2,2.65,1.79,3.97.39.86,1.76.97,2.36.3l.85-.95-1.06.44h1.02c.59.02,1.36-.45,1.45-1.09.15-1.09.3-2.19.46-3.28l-2.74.36c.52,1.08,1.05,2.17,1.57,3.25.57,1.18,2.43.83,2.74-.36l.45-1.74c.06-.22.31-.91.05-.36.15-.31.34-.6.51-.89.56-1.01.8-2.13,1.12-3.23l-2.74.36c.5,1.09.99,2.19,1.49,3.28.38.83,1.78,1.01,2.36.3l.88-1.1-1.06.44c.28.03.59.02.87.08s-.39-.11.05.06c.2.08.41.17.61.22.72.18,1.28-.02,1.97-.21l-1.69-.69,1.2,2.13c.63,1.11,2.42.89,2.74-.36l.76-3.01-2.74.36c.39.76.78,1.52,1.17,2.29.45.88,1.69.94,2.36.3l.95-.91-1.82.23,1.03.72c.85.59,1.91-.05,2.2-.9l.92-2.62-2.74.36,1.05,1.57c.48.71,1.72,1.12,2.36.3l1-1.3-2.36-.3,1,1.72c.56.95,2.04.99,2.59,0l1.05-1.9-2.36.3.99.92c.46.43,1.26.61,1.82.23.8-.54,1.76-1.1,2.42-1.81s1.04-1.71,1.5-2.53l-2.74-.36.83,2.46c.39,1.15,2.11,1.57,2.74.36.45-.88.91-1.75,1.36-2.63l-2.8-.76c.17,1.38.35,2.77.52,4.15s2,2.19,2.8.76c.48-.86.95-1.72,1.43-2.57h-2.59c.72,1.05,1.24,1.71,2.36,2.32l-.74-1.3c.08,1.28.15,2.57.23,3.85.08,1.36,1.55,1.9,2.56,1.06l1.24-1.03-1.82.23.92.4c.75.33,1.6.22,2.05-.54.54-.9,1.07-1.79,1.61-2.69.09-.15.17-.32.27-.46.01-.01-.32.25.15-.08.42-.3.8-.7,1.19-1.04l-2.56-1.06c-.21,1.81-.42,3.62-.63,5.42-.16,1.42,1.68,1.8,2.56,1.06.39-.32,1.06-.69,1.33-1.11.13-.2-.92.34-.01.08.26-.07.51-.19.76-.28l-1.85-1.85c-.27,1.61-.53,3.21-.8,4.82s1.79,2.68,2.74,1.16c1.06-1.71,2.13-3.43,3.19-5.14l-2.74-1.16c-.4,1.76-.79,3.51-1.19,5.27-.26,1.16,1.07,2.51,2.2,1.69l1.59-1.14-2.26-1.3.18,1.86c.09.88.9,1.82,1.9,1.45,1.12-.42,1.86-.73,2.64-1.63.82-.95,1.63-1.9,2.45-2.85l-1.46.39,1.08.28-1.05-1.85c-.59,1.67-1.19,3.34-1.78,5.01-.42,1.2,1.15,2.43,2.2,1.69.6-.42,1.21-.82,1.79-1.26.46-.35-.28-.03.26-.12.37-.07.74-.17,1.1-.25l-1.16-.15c.88.44,1.5.84,2.5.45.68-.26,1.34-.66,1.99-.99l-2.2-1.69c-.58,2.25-1.45,4.51-1.18,6.84.15,1.33,1.51,1.93,2.56,1.06,1.58-1.32,3.17-2.64,4.75-3.96l-2.36-.3.54,1.03v-1.51c-1.34,1.92-2.68,3.84-4.02,5.77-.71,1.03.49,2.68,1.69,2.2.73-.29,1.46-.57,2.18-.86l-1.85-1.85-.33,1.67c-.15.75.21,1.67,1.05,1.85l1.15.24-.9-.69.54.81c.47.71,1.29.92,2.05.54,1.25-.62,2.51-1.25,3.76-1.87l-2.05-2.05c-.79,1.48-1.58,2.95-2.37,4.43-.72,1.35.71,2.73,2.05,2.05,1.86-.95,3.71-1.89,5.57-2.84l-1.82-2.36c-1.57,1.51-3.14,3.03-4.71,4.54-1.32,1.27.35,2.99,1.82,2.36,1.74-.76,3.48-1.51,5.22-2.27l-1.82-2.36c-1.24,1.19-2.49,2.38-3.73,3.56-1.15,1.1.07,2.78,1.46,2.51l2.85-.56-1.16-.15c.64.28,1.27.64,1.97.72s1.41.02,2.11.03l-1.45-1.1c.02.17.09.4.08.56,0,.05.06.71.05.37,0-.18-.03.76-.03.98,0,.63.47,1.3,1.1,1.45.55.13,1.12.22,1.67.38-.62-.19.18.12.33.19l.63.33-.3-2.36c-.66.61-1.36,1.19-1.99,1.82s-.8,1.34-1.05,2.18c-.24.77.28,1.64,1.05,1.85l1.8.48-.36-2.74c-1.37.81-2.74,1.62-4.11,2.43-1.09.65-.91,2.42.36,2.74s2.5.65,3.74.99l-.36-2.74c-.96.61-1.92,1.21-2.89,1.82-.41.26-.8.77-.74,1.3l.1.99c.08.76.62,1.56,1.5,1.5,2.2-.15,4.41-.31,6.61-.46l-1.45-1.9-.42,1.2,1.05-1.05c-1.71.69-3.42,1.38-5.13,2.07-1.51.61-1.4,2.89.4,2.95l4.88.16-1.06-2.56-.89.76c-.18.15-.35.32-.54.46-.33.26.42-.24-.03,0-.81.41-1.59.88-2.38,1.32-1.08.6-.85,1.95,0,2.59.34.25.74.48,1.04.78-.02-.02-.16-.15.09.21.14.2.31.39.46.58v-2.12l-1.29,1.17c-.85.78-.38,2.21.66,2.51.88.25,1.77.51,2.65.76l-.9-.69c.38.9.63,1.46,1.62,1.78.85.28,1.72.5,2.58.74l-.36-2.74c-.91.42-1.81.84-2.72,1.25-.73.34-.92,1.41-.54,2.05l.6,1.01.9-2.2c-1.02.4-2.04.8-3.07,1.2-1.21.47-1.63,2.63,0,2.89s3.4.55,5.11.82v-2.89c-1.89.42-3.78.83-5.68,1.25-1.38.3-1.48,2.67,0,2.89,1.93.29,3.85.58,5.78.87v-2.89c-1.21.37-2.52.63-3.68,1.12s-2,1.76-2.73,2.78c-.53.74-.01,2.05.9,2.2,2,.34,3.99.67,5.99,1.01v-2.89c-1.77.35-3.54.69-5.31,1.04-1.48.29-1.37,2.53,0,2.89s2.69.7,4.04,1.06l-.36-2.74c-.62.31-1.31.58-1.89.95-.64.41-.93,1.01-1.32,1.64l.9-.69c-.88.33-1.76.66-2.65.99-1.24.46-1.6,2.61,0,2.89,2.19.39,4.38.77,6.57,1.16l-.36-2.74c-1.3.56-2.61,1.09-3.83,1.81-.61.36-1.15.91-1.51,1.54-.22.39.53-.28.22-.23-.16.03-.37.23-.51.32l-.91.57c-1.16.73-.83,2.29.36,2.74.95.37,1.91.73,2.86,1.1l-1.05-1.85-.41,1.02,1.05-1.05-3.19.95c-1.33.4-1.52,2.61,0,2.89,2.13.4,4.25.8,6.38,1.2l-.36-2.74c-1.32.71-2.64,1.35-4.02,1.96-1.22.54-.8,2.43.36,2.74,1.43.39,2.85.78,4.28,1.16l-1.05-1.05.32,1.05,1.45-1.9c-2.4.27-4.8.53-7.2.8-1.58.18-2.15,2.48-.4,2.95,1.48.39,2.97.79,4.45,1.18l-.36-2.74-1.33.99c-.73.54-1.09,1.65-.3,2.36,1.13,1.02,2.2,1.7,3.54,2.43l-.69-.9.28,1.05.15-1.16c-.18.26-.44.53-.57.81-.25.51.31-.41.35-.32,0,0-.38.19-.41.21-.37.14-.74.36-1.09.55-.57.31.22,0-.2.06-1.36.19-2.71.52-4.06.77s-1.41,2.13-.36,2.74l1.93,1.13v-2.59l-1.62.94c-1.2.69-.8,2.3.36,2.74,1,.38,2.02.74,3.01,1.15.45.19-.38-.19-.02,0,.24.13.48.25.72.38l1.37.72.36-2.74-2.71.86c-1.44.46-1.4,2.42,0,2.89,1.3.44,2.59.88,3.89,1.32v-2.89c-1.53.55-3.06,1.05-4.6,1.57-.72.24-1.41.57-2.1.89-.87.4-1.18.94-1.61,1.78-.3.6-.26,1.33.23,1.82l1.14,1.13.3-2.36-1.25.9c-1.12.8-.86,2.23.36,2.74,1.04.44,2.09.85,3.11,1.31.24.11-.52-.26.03.03.31.16.62.31.93.46.49.24.99.49,1.48.73l.76-2.8c-1.59.17-3.19.33-4.78.5-1.32.14-2.25,2.09-.76,2.8.81.39,1.62.81,2.45,1.17.14.06.29.12.42.2-.34-.2-.19-.16.05.09.29.31.61.6.91.89l1.06-2.56c-1.89.1-3.78.2-5.67.3-1.35.07-2.22,2.14-.76,2.8,1.95.88,3.75,1.76,5.57,2.87l.36-2.74-1.73.43c-.27.07-.54.14-.81.2.14-.03.41-.03-.09,0-1.26.1-2.52.23-3.78.34-1.36.12-2.19,2.05-.76,2.8.97.5,1.93,1,2.9,1.51v-2.59l-1.39.8c-1.04.6-.89,1.96,0,2.59l1.95,1.39.76-2.8-3.65.36c-1.74.17-1.97,2.29-.4,2.95s3.16,1.31,4.74,1.97l.4-2.95c-1.95-.05-3.9-.1-5.86-.15-1.81-.05-1.87,2.36-.4,2.95,1.86.74,3.71,1.49,5.57,2.23v-2.89c-1.63.31-3.23.64-4.84,1.02-1.18.28-1.55,2.21-.36,2.74,1.7.76,3.41,1.53,5.11,2.29l.36-2.74c-.65.12-1.29.23-1.94.36-.15.03-.31.06-.46.09-.26.05.55-.07.16-.02-.34.04-.67.07-1.01.11-.63.07-1.3.08-1.92.22-.67.15-1.29.55-1.9.86-.68.34-.99,1.42-.54,2.05.61.86,1.1,1.6,1.98,2.16s1.84,1.14,2.76,1.71l.36-2.74-1.58.61c-.94.36-1.63,1.72-.66,2.51l2.19,1.79-.44-1.06.07,1.15,1.5-1.5c-1.59-.15-3.74-.78-5.26-.21-.66.25-1.3.63-1.95.92-1.08.49-1.32,1.07-1.51,2.2-.12.69.08,1.31.69,1.69,1.48.95,2.95,1.89,4.43,2.84l.76-2.8-2.6.08c-1.23.04-2.07,1.66-1.06,2.56.8.71,1.59,1.43,2.39,2.14l1.46-2.51c-1.39-.31-2.77-.62-4.16-.93-1.26-.28-2.21-.24-3.51-.09-1.22.14-2.07,1.57-1.06,2.56.87.85,1.74,1.72,2.64,2.54.59.54,1.18,1.25,1.85,1.69s-.13-.75-.03-.1c.05.35.21.71.32,1.05l1.45-1.9c-.71-.01-1.42-.05-2.13-.03-.54.02.36.13-.05,0-.3-.09-.6-.18-.9-.26-1.34-.39-2.67-.78-4.01-1.17s-2.66,1.54-1.46,2.51c1.37,1.11,2.75,2.22,4.12,3.33l1.46-2.51c-1.7-.54-3.4-1.08-5.1-1.61s-2.41,1.79-1.16,2.74c1.9,1.44,3.81,2.89,5.71,4.33l1.16-2.74c-1.93-.7-3.85-1.4-5.78-2.1-1.37-.5-2.17,1.13-1.69,2.2.23.52.46,1.04.7,1.56l1.3-2.26-1.92.03c-.78.01-1.54.68-1.5,1.5l.06,1.21,1.1-1.45-1.18.45c-.68.26-1.03.73-1.1,1.45s-.23,1.52-.16,2.23c.09.89.59,1.24,1.19,1.79,1.27,1.16,2.55,2.32,3.82,3.48l1.82-2.36c-1.89-.82-3.78-1.65-5.67-2.47-.99-.43-2.28.05-2.26,1.3l.03,1.23.74-1.3c-.19.13-.54.28-.67.46-.21.3.82.14.14-.08-.5-.16-1.17-.11-1.7-.15-1.3-.12-1.97,1.72-1.06,2.56,1.78,1.64,3.56,3.28,5.34,4.91l1.06-2.56c-1.2.08-2.4.19-3.6.25-.41.02-.82.05-1.22.05-.31,0,.51.09.13.02-.16-.03-.31-.08-.46-.12-.72-.19-1.44-.37-2.15-.56-1.23-.32-2.41,1.07-1.69,2.2l1.44,2.29v-1.51l-.58.84,1.3-.74-1.83-.07c-.78-.03-1.54.71-1.5,1.5.05,1.13.21,2.14.46,3.24l.15-1.16-.43.97.9-.69-1.2.39c-.69.23-1.03.75-1.1,1.45l-.12,1.2,1.9-1.45-3.35-1.22c-1.23-.45-2.37,1.14-1.69,2.2l1.58,2.47.54-2.05c-.07.03-.49.18-.52.25-.18.59-.8-.22.09.06-.34-.11-1.03.07-1.4.1-1.19.09-1.79,1.19-1.3,2.26.65,1.38,1.31,2.75,1.99,4.11l1.69-2.2-2.39-.53c-1.27-.28-2.35,1.03-1.69,2.2.42.76.84,1.52,1.26,2.27l-.15-1.16-.23,1.13,2.2-.9c-1.74-.91-3.48-1.83-5.21-2.74-1.5-.79-3.02,1.1-1.82,2.36,1.63,1.71,3.26,3.42,4.9,5.12l.66-2.51-1.42.21c-.62.09-1.13.85-1.1,1.45l.05,1.36,2.26-1.3-5.15-2.94c-.85-.49-1.42-.89-2.45-.5s-1.5.97-1.94,1.98c-.28.64-.26,1.28.23,1.82,1.52,1.66,3.05,3.31,4.57,4.97l1.82-2.36c-1.31-.61-2.62-1.22-3.93-1.83-.96-.45-2.31.07-2.26,1.3l.06,1.37,1.9-1.45-3.02-1.13c-1.56-.58-2.28,1.48-1.46,2.51,1.01,1.26,2.01,2.52,3.02,3.78l1.82-2.36c-1.44-.74-2.89-1.47-4.33-2.21-1.56-.8-2.9,1.05-1.82,2.36,1.16,1.4,2.33,2.79,3.49,4.19l.66-2.51c-.21.09-.65.18-.8.33-.31.1-.26.13.14.09.37.04.45.03.23-.02-.33-.28-1.28-.39-1.68-.52-1.17-.36-1.83-.12-2.9.43-.64.32-.79,1.06-.69,1.69.05.3.09.61.14.91.01.05.12.54.09.56-.02.01.15-1.15-.07-.29-.16.62-.29,1.13-.54,1.73l1.85-1.05c-.87-.28-1.74-.57-2.6-.85-1.19-.39-2.45,1.13-1.69,2.2.6.86,1.21,1.72,1.81,2.57.14.19.27.39.41.58.29.41-.07-.29,0-.04.15.48.21,1.02.31,1.52l2.2-1.69c-1.1-.49-2.2-.97-3.29-1.46-1.23-.54-2.98.67-2.05,2.05.72,1.07,1.45,2.15,2.17,3.22l2.05-2.05c-1.72-1.03-3.44-2.06-5.16-3.09-.97-.58-2.28.16-2.26,1.3s.02,1.82.63,2.73,1.15,1.74,1.73,2.61l1.69-2.2c-.82-.31-1.64-.68-2.48-.94-.98-.3-1.54.11-2.32.64-.63.43-1.02,1.35-.54,2.05.8,1.16,1.6,2.33,2.4,3.49l2.05-2.05c-1.33-.72-2.67-1.44-4-2.16-1.22-.66-2.97.76-2.05,2.05s1.77,2.49,2.66,3.74l1.69-2.2c-.63-.12-1.29-.19-1.91-.35.54.14.14.05-.1-.1-.28-.18-.58-.35-.87-.53-1.16-.7-2.32-1.4-3.47-2.1-.89-.54-2.4.14-2.26,1.3.11.91.11,1.85.64,2.61.3.43.66.83.99,1.24.97,1.22,1.95,2.45,2.92,3.67l1.46-2.51c-.84-.34-1.68-.76-2.55-1.04-.4-.13-.72-.17-1.14-.08-.18.04-.59.14-.73.26-.39.35.69.31.28.03-.66-.45-2.13-.79-2.92-.69-.38.05-.75.21-1.12.28.61-.12-.08,0-.22,0-.28.01-.57.04-.85.06-1.22.08-1.76,1.19-1.3,2.26.34.78.69,1.57,1.03,2.35l1.69-2.2-1.78-.25c-1.2-.17-2.45.98-1.69,2.2.69,1.12,1.39,2.23,2.08,3.35l2.05-2.05-3.11-1.51c-1.22-.59-3,.72-2.05,2.05,1,1.42,2.01,2.84,3.01,4.25l-.15-1.16-.21,1.23,2.2-.9c-1.19-.74-2.37-1.47-3.56-2.21-1.01-.63-2.03-.87-3.19-1.18-1.23-.33-2.4,1.07-1.69,2.2.64,1.02,1.24,2.06,1.92,3.05.11.16.21.32.31.49-.35-.61,0,.04.06.23.18.54.37,1.07.56,1.6l1.45-1.9h-.75c-1.25-.01.04.07-.01.18.01-.03-1.15-.73-1.23-.77l-2.97-1.88c-1.22-.77-2.93.81-2.05,2.05,1.07,1.53,2.15,3.05,3.22,4.58l.54-2.05-.93.53h1.51c-1.44-.94-2.89-1.88-4.33-2.81-1.26-.82-2.83.8-2.05,2.05s1.54,2.48,2.3,3.72l2.05-2.05c-.95-.46-1.9-.92-2.85-1.38-1.31-.63-2.84.68-2.05,2.05.64,1.13,1.29,2.25,1.93,3.38l.9-2.2-1.13.33,1.16.15c-.84-.36-1.68-.71-2.52-1.07-.68-.29-1.69-.27-2.05.54-.44.98-.83,1.67-.36,2.72.37.84.76,1.67,1.14,2.51l1.3-2.26-.75-.03c-.15,0-.37-.05-.52-.02-.55.12.57.02.5.18.02-.05-1.23-.84-1.28-.87-1-.68-1.99-1.36-2.99-2.04s-2.7.48-2.2,1.69c.96,2.35,1.91,4.67,2.6,7.11l2.2-1.69c-1.8-1.38-3.6-2.75-5.39-4.13-1.17-.89-2.39.58-2.2,1.69.22,1.31.49,2.55.83,3.83l1.85-1.85-1.66-.25c-.98-.15-2.33.66-1.85,1.85.36.88.72,1.76,1.09,2.65l2.2-1.69-2.92-1.6c-1.28-.71-2.85.74-2.05,2.05.63,1.05,1.27,2.09,1.9,3.14.16.26.3.54.47.78.17.23.23.63.12,0-.15-.81-.06.22-.05.42l.05.81,2.56-1.06c-1.91-1.55-3.81-3.1-5.72-4.65-.97-.79-2.55-.33-2.56,1.06,0,.77-.1,1.53.19,2.25.22.55.55,1.07.82,1.6.3.59.73,1.21.94,1.83-.23-.67,0,.42.02.61l.16.94,2.2-1.69c-1.07-.55-2.14-1.11-3.22-1.63-.61-.3-1.23-.66-1.86-.9-.72-.27-1.49-.27-2.25-.33-1.19-.1-1.79,1.33-1.3,2.26.61,1.13,1.19,2.28,1.82,3.39.05.08.31.6.15.24s.15.44.19.57l.65,1.83,2.51-1.46c-1.88-1.6-3.77-3.2-5.65-4.79-.86-.73-2.74-.36-2.56,1.06.4,3.1,1.49,5.59,2.83,8.39l2.36-1.82c-1.58-1.28-3.16-2.57-4.74-3.85-1.06-.86-3.02-.1-2.51,1.46.27.84.55,1.67.82,2.51l1.45-1.9c-.28,0-.56-.02-.83,0h-.46c.32.05.36.05.14,0-.53-.13-1.06-.29-1.58-.43-1.36-.37-2.21,1.06-1.69,2.2l1.52,3.34,2.05-2.05c-1.59-.85-3.08-1.57-4.78-2.17-.67-.24-1.31.18-1.69.69-.56.75-.96,1.25-.7,2.23.22.82.55,1.62.82,2.42l2.2-1.69c-.95-.6-1.9-1.2-2.85-1.8s-2.34.17-2.26,1.3c.09,1.35.22,2.29.86,3.48s1.33,2.44,1.99,3.66l2.05-2.05c-1.04-.81-2.09-1.61-3.13-2.42-.81-.63-1.74-.96-2.68-1.38s-2.29.06-2.26,1.3.13,2.19.72,3.33,1.25,2.39,1.87,3.59l2.05-2.05c-.91-.59-1.82-1.36-2.79-1.82-.78-.37-1.31-.1-2.03.19-.67.26-.02.05-.43.11-.28.05-.56.11-.85.16-1.03.19-1.28,1.4-.9,2.2.64,1.35,1.28,2.7,1.92,4.04l2.36-1.82c-1.68-1.56-3.37-3.12-5.05-4.68-1.26-1.17-3.15.3-2.36,1.82.85,1.62,1.69,3.23,2.54,4.85l2.05-2.05c-1.59-.86-3.16-1.75-4.72-2.67-1.22-.71-2.42.46-2.2,1.69l.36,2.12,1.85-1.85c-.56-.19-1.14-.46-1.72-.57-.84-.16-1.38.27-2.04.7s-.95,1.32-.54,2.05c1.15,2.05,2.29,4.1,3.44,6.14l2.36-1.82c-1.62-1.55-3.24-3.09-4.86-4.64-1.3-1.24-3.03.31-2.36,1.82.62,1.37,1.23,2.74,1.85,4.11l1.69-2.2c-.43-.08-.86-.15-1.29-.25-.55-.13.31.2.02.03-.16-.09-.31-.22-.46-.32l-2.14-1.48c-.87-.61-2.39.19-2.26,1.3.08.68.17,1.36.25,2.04l1.5-1.5-1.39-.15c-1.22-.13-1.74,1.34-1.3,2.26.83,1.69,1.66,3.37,2.49,5.06l2.36-1.82c-1.61-1.59-3.22-3.18-4.82-4.78-1.28-1.27-3.03.33-2.36,1.82l1.48,3.27c.12.27.23.55.37.81.1.19.42.62.07.03-.31-.52-.09.07-.08.5l.02.9,2.56-1.06c-1.42-1.36-2.84-2.73-4.27-4.09-.87-.84-2.11-.38-2.51.66-.45,1.16-.48,2.06-.47,3.31l1.5-1.5-1.28-.02c-1.25-.02-1.72,1.27-1.3,2.26.64,1.49,1.29,2.98,1.93,4.46l2.36-1.82c-1.62-1.68-3.24-3.36-4.85-5.04-1.26-1.3-3.02.35-2.36,1.82.74,1.63,1.48,3.27,2.22,4.9l2.36-1.82c-1.05-.9-2.11-1.8-3.16-2.7-.9-.77-2.67-.34-2.56,1.06.05.67.1,1.33.15,2l2.26-1.3-1.96-1.02c-1.4-.73-2.67.7-2.05,2.05l2.38,5.23,2.05-2.05c-1.57-.94-3.05-1.92-4.55-2.96-.92-.64-2.32.21-2.26,1.3l.11,1.97,2.26-1.3-1.86-.91c-1.12-.55-2.6.36-2.2,1.69.33,1.09.65,2.18.98,3.28l2.51-1.46-2.99-2.6c-1.02-.89-3.09-.06-2.51,1.46.42,1.11.84,2.21,1.26,3.32.09.25.18.5.28.75.2.47,0-.46.02,0,.02.55,0,1.11,0,1.67l1.5-1.5c-.97,0-1.75.08-2.69.34l1.46.39c-.99-.88-1.98-1.76-2.97-2.65-.75-.67-2.32-.53-2.51.66-.13.81-.29,1.59-.26,2.41,0,.21-.07,1.3.08,1.45-.11-.12.46-.87-.02-.27-.14.18-.25.41-.37.6l2.36-.3c-1.08-1.05-2.17-2.11-3.25-3.16-1-.97-2.44-.19-2.56,1.06l-.16,1.65.74-1.3c-.14.08-.34.15-.45.25-.82.7.31-.51.23.03,0,0-1.1-.14-1.25-.16-.99-.13-1.68,1.06-1.45,1.9.31,1.14.62,2.28.94,3.42l2.2-1.69c-.42-.19-.87-.45-1.31-.58-.36-.1-.35-.14-.11.03-.15-.11-.29-.27-.43-.39-.78-.72-1.56-1.43-2.33-2.15-1.01-.93-3.09-.03-2.51,1.46.67,1.73,1.34,3.45,2.01,5.18l2.2-1.69c-.71-.51-1.42-1.03-2.14-1.54-.61-.44-1.74-.15-2.05.54-.05.11-.48,1.06-.47,1.07l.44-.45-.4.18c-.14.01-.34.15-.47.21l1.16-.15-1.36-.3c-1.07-.24-2.19.7-1.85,1.85.43,1.4.85,2.79,1.28,4.19l2.51-1.46c-1.28-1.53-2.56-3.06-3.84-4.59-.97-1.16-2.95.08-2.51,1.46.51,1.58,1.03,3.16,1.54,4.74l2.51-1.46c-1.54-1.26-3.01-2.56-4.48-3.9-1.04-.95-3.01-.04-2.51,1.46.63,1.87,1.25,3.73,1.88,5.6l2.51-1.46c-.8-.78-1.6-1.56-2.4-2.34-1.08-1.05-2.88,0-2.51,1.46s.77,2.98,1.16,4.47l2.74-1.16c-1.25-1.72-2.5-3.44-3.76-5.17-.99-1.36-3.1-.57-2.74,1.16.24,1.15.46,2.3.72,3.44.04.16.08.32.1.49-.09-.78-.05.09-.06.24-.03.58-.01,1.16-.02,1.74l2.56-1.06c-.95-.84-1.83-1.95-3.1-2.22-.61-.13-1.2-.19-1.82-.17-.3,0-.42-.06-.07.04-.12-.03-.25-.09-.36-.15-.28-.14-.6-.24-.9-.36-.83-.34-2.02.54-1.9,1.45.18,1.38.36,2.75.55,4.13l2.56-1.06c-.35-.42-.69-.85-1.04-1.27-.23-.28-.45-.55-.68-.83-.11-.13-.58-.75-.15-.17-.71-.96-1.4-1.93-2.09-2.9-.88-1.23-2.67-.77-2.8.76-.21,2.49-.47,4.97-.76,7.44l.44-1.06-.91.74,2.36.3c-.81-1.71-1.61-3.43-2.42-5.14-.68-1.45-2.71-.6-2.8.76-.06.93-.15,1.87-.18,2.8,0,.12-.09.4-.03.51-.06-.12.42-.93.06-.39-.24.36-.41.82-.61,1.21h2.59l-1.43-1.86c-.77-.99-2.33-.98-2.74.36-.23.74-.45,1.48-.68,2.23l2.74-.36c-.69-1.02-1.32-2.47-2.57-2.87-.17-.05-.61-.4-.11.07.47.44.16.23.15.07-.02-.3-.3-.69-.42-.96-.25-.56-.49-1.12-.74-1.68-.51-1.16-2.52-.86-2.74.36s-.47,2.55-.71,3.82l2.74-.36-1.09-1.55c-.67-.95-2.47-1.02-2.74.36-.32,1.66-.65,3.32-.97,4.98l1.45-1.1-1.13-.07,1.5,1.5c-.26-2.47-.52-4.95-.79-7.42-.17-1.59-2.47-2.14-2.95-.4-.42,1.56-.85,3.11-1.27,4.67l1.45-1.1h-1.06c.43.26.86.5,1.3.75l-.89-1.4c-.47-.73-1.72-1.1-2.36-.3-.99,1.24-1.95,2.49-2.91,3.75l2.8.76c-.13-1.25-.27-2.5-.4-3.74-.11-1.02-1.23-2.01-2.26-1.3l-1.25.87,2.2.9-.46-2.57c-.22-1.25-2.19-1.48-2.74-.36-.76,1.55-1.52,3.1-2.28,4.65l2.8.76c.22-2.07.43-4.15.65-6.22.13-1.29-1.74-1.99-2.56-1.06-.61.69-1.21,1.38-1.84,2.05-.3.32-1.13.88-1.27,1.3-.25.24-.09.16.47-.25l-.41.09c-.25.02-.5.11-.74.16l1.85,1.85c.27-1.72.54-3.44.81-5.16.2-1.3-1.44-2.75-2.51-1.46-.69.83-1.37,1.66-2.06,2.49l2.56,1.06.21-3.16c.09-1.4-1.66-1.85-2.56-1.06-1.39,1.21-2.66,2.46-3.94,3.8l2.51,1.46c.52-1.9,1.05-3.8,1.57-5.69.4-1.46-1.44-2.49-2.51-1.46-1.77,1.7-3.38,3.47-5,5.31l2.51.66c-.03-.17-.2-1.73-.25-1.74.45.02-.23,1.15.09.4.11-.26.17-.57.25-.85l1.01-3.4c.41-1.37-1.53-2.64-2.51-1.46-1.29,1.56-2.58,3.11-3.87,4.67l2.51,1.46c.65-2.27,1.23-4.47,1.66-6.79.25-1.35-1.43-2.68-2.51-1.46-1.38,1.56-2.76,3.11-4.15,4.67l2.51.66c-.03-.12-.26-1.36-.33-1.37.77.03-.34,1.11.09.44.13-.2.18-.51.26-.73.34-.98.69-1.96,1.03-2.94.25-.72-.29-1.71-1.05-1.85-.18-.03-.36-.08-.54-.1-.21-.02-.79.08-.2.07.26,0,.34.23-.05-.15-.12-.12-.24-.24-.36-.36l.44,1.06c.09-.71.19-1.41.28-2.12.14-1.08-1.4-1.94-2.26-1.3-2.22,1.67-4.36,3.39-6.49,5.16l2.51,1.46c.38-1.08.76-2.16,1.13-3.24.27-.78-.32-1.62-1.05-1.85l-1.06-.33,1.05,1.85c.19-.8.39-1.6.58-2.4.23-.96-.45-1.87-1.45-1.9l-1.29-.03,1.3.74c-.49-.91-.79-1.47-1.83-1.79-.8-.25-1.55-.26-2.39-.28l1.5,1.5-.08-1.49c-.07-1.18-1.21-1.81-2.26-1.3-.8.39-1.6.78-2.39,1.17l2.05,2.05c.58-1.17,1.15-2.34,1.73-3.51.61-1.24-.71-2.96-2.05-2.05l-3.5,2.36,2.26,1.3c-.03-1.1-.13-2.05-.38-3.12-.11-.47-.56-.96-1.05-1.05-1.05-.19-1.99-.27-3.05-.26l1.45,1.9c.17-.55.36-1.09.51-1.65.05-.17.1-.36.16-.53-.24.64-.02.08.07-.06.56-.96,1.05-1.96,1.58-2.94.68-1.26-.73-2.9-2.05-2.05s-2.53,1.62-3.8,2.43l2.2.9c-.07-.26-.08-.78-.25-.98s0,.5-.01.5c.05-.02.18-.44.18-.45.3-.6.51-1.26.75-1.89.42-1.06-.83-2.18-1.85-1.85-1.49.49-2.98,1-4.46,1.52l1.69,2.2c.8-1.26,1.6-2.53,2.4-3.79s-.8-2.91-2.05-2.05c-1.67,1.15-3.35,2.29-5.02,3.44l2.2,1.69c.06-.44.16-.9.19-1.35.03-.53-.11.09-.05-.07s.18-.32.27-.48c.47-.84.94-1.67,1.41-2.51.75-1.34-.74-2.75-2.05-2.05-1.13.6-2.26,1.2-3.39,1.8l2.05,2.05c.99-1.39,1.98-2.79,2.96-4.18.87-1.23-.83-2.84-2.05-2.05-1.64,1.07-3.29,2.13-4.93,3.2l2.05,2.05c.88-1.25,1.99-2.49,2.69-3.85.21-.41.28-.77.21-1.23-.03-.16-.11-.39-.17-.53-.34-.85-.12.24-.15.22-.04-.02.79-1.91.88-2.12.5-1.21-1.18-2.38-2.2-1.69-2.05,1.37-4.09,2.74-6.14,4.1l2.05,2.05,2.67-3.72c.76-1.06-.5-2.6-1.69-2.2l-2.53.84,1.69,2.2c.57-.94,1.14-1.88,1.71-2.81.83-1.36-.77-2.68-2.05-2.05s-2.53,1.25-3.8,1.87l2.05,2.05,2.16-3.13c.78-1.14-.5-2.49-1.69-2.2l-2.26.54,1.16.15-1.01-.51.54,2.05c.67-.97,1.34-1.94,2.01-2.9.29-.42.26-1.09,0-1.51-.34-.55-.67-1.13-1.09-1.63-.6-.71-1.28-.83-2.13-1.08l1.05,1.85.39-1.54c.28-1.1-.73-2.15-1.85-1.85-1.91.53-3.82,1.07-5.73,1.63l1.46,2.51,3.6-3.8c.45-.47.59-1.24.23-1.82-.48-.78-.83-1.5-1.85-1.59-.59-.06-1.22.02-1.81.03l1.3,2.26c.62-.81,1.25-1.63,1.87-2.44.31-.41.25-1.1,0-1.51-.29-.48-.54-.93-.95-1.31-.08-.08-.75-.69-.42-.27-.17-.22-.28-.53-.41-.78-.31-.58-1.08-.86-1.69-.69-1.19.33-2.38.65-3.56.98l1.85,1.85.65-1.56c.45-1.09-.85-2.14-1.85-1.85-1.41.41-2.82.82-4.22,1.23l1.85,1.85c.15-.38.34-.76.46-1.14.28-.88-.11.3-.2.24.02.01.34-.36.38-.4.66-.63,1.26-1.33,1.89-1.99.36-.38.54-.94.39-1.46-.19-.62-.3-1.33-.83-1.75-.47-.37-1.2-.54-1.75-.76l.66,2.51c.69-.71,1.39-1.42,2.08-2.13.82-.84.3-2.72-1.06-2.56-1.02.12-2.04.24-3.06.36l1.45,1.1c-.18-.53-.31-1.22-.71-1.62s-1.02-.58-1.5-.82l.3,2.36c.78-.7,1.57-1.39,2.35-2.09,1.18-1.05-.09-2.81-1.46-2.51-1.99.44-3.98.89-5.97,1.33l1.46,2.51c1.14-1.17,2.13-2.28,3.08-3.61.51-.72.02-2.07-.9-2.2l-2.2-.31.66,2.51c.76-.6,1.75-1.16,2.4-1.87.77-.84.81-2.16.69-3.22l-.44,1.06,1.01-1.29c.6-.77.59-1.79-.3-2.36l-1.11-.7.54,2.05.61-1.14c.44-.82.08-1.97-.9-2.2l-2.16-.51,1.05,1.85c.02-.06.23-.49.2-.54-.33-.52.84-.39-.1,0,.26-.11.64-.8.83-1.04.39-.49.64-1.24.23-1.82-.77-1.1-1.59-2.23-2.98-2.48-.85-.16-1.75-.33-2.61-.4s0-.08.03.18c-.04-.22-.57-.67-.72-.85l-.3,2.36c.68-.47,1.63-.93,2.14-1.58.3-.39.41-.94.62-1.39.04-.08-.11.21.14-.21.12-.21.24-.43.36-.64l-.9.69c.84-.35,1.68-.69,2.52-1.04,1.28-.52,1.56-2.48,0-2.89-1.23-.33-2.47-.65-3.7-.98l1.05,1.85.39-1.02-.69.9,1.69-.94c.77-.43,1.07-1.76.3-2.36-.89-.7-1.69-1.4-2.49-2.21l-1.06,2.56c1.65-.16,3.29-.32,4.94-.49s2.14-2.49.4-2.95c-2.49-.65-4.99-1.31-7.48-1.96l-.4,2.95c2.05-.05,4.1-.1,6.16-.15,1.8-.04,1.9-2.33.4-2.95-1.42-.58-2.84-1.17-4.25-1.75l.36,2.74c.32-.18.64-.36.95-.56.6-.39-.13-.06.42-.18.72-.15,1.44-.3,2.16-.45,1.21-.25,1.32-1.7.66-2.51l-1.04-1.28-.3,2.36,1.04-.79c.8-.61.99-1.56.3-2.36-.26-.3-.52-.6-.78-.9-.13-.14-.28-.29-.39-.45.37.53-.02-.13-.09-.26-.35-.71-.75-1.39-1.12-2.09l-1.3,2.26c1.32.12,2.64.25,3.96.37,1.07.1,2.07-.15,3.12-.34.97-.17,1.35-1.43.9-2.2-.39-.66-.71-1.4-1.33-1.87-.47-.35-1.07-.61-1.58-.9-1.36-.78-2.73-1.55-4.09-2.33l.54,2.05.53-.95-1.3.74c1.2.11,2.4.22,3.61.33,1.36.12,1.88-1.69,1.06-2.56l-1.76-1.87-.66,2.51c.29-.1,1.15-.23,1.34-.45.16-.18-1.02-.17-.4-.01.21.05.43.06.64.09l2.88.43c1.65.25,2.63-1.73,1.16-2.74-1.65-1.13-3.29-2.26-4.94-3.39l-1.16,2.74c1.73.43,3.45.85,5.18,1.28.87.21,1.99-.44,1.9-1.45l-.11-1.18-.44,1.06.67-.81c.49-.59.65-1.55,0-2.12-1-.88-1.99-1.76-2.99-2.63v2.12l.71-.81-1.06.44,2.21-.03c.81-.01,1.5-.68,1.5-1.5v-1.15c-.63.48-1.26.96-1.89,1.45,1.23.26,2.45.51,3.68.77,1.4.29,2.6-1.42,1.46-2.51-.9-.86-1.8-1.72-2.7-2.58l-.66,2.51,1.7-.25c.7-.1,1.03-.84,1.1-1.45.08-.71.19-1.23-.11-1.9-.25-.55-.6-1.08-.9-1.61l-1.3,2.26c.84.06,1.68.12,2.52.18,1.29.09,1.99-1.71,1.06-2.56-1.03-.94-2.05-1.88-3.08-2.82l-1.46,2.51,3.32.6c1.29.24,2.32-.99,1.69-2.2-.28-.54-.56-1.08-.84-1.62l-1.3,2.26c.97.13,1.93.25,2.9.38.69.09,1.24-.54,1.45-1.1l.37-.98c.17-.47-.02-1.13-.39-1.46-1.13-1-2.27-2.01-3.4-3.01l-1.46,2.51c1.63.49,3.27.98,4.9,1.46.78.23,1.62-.28,1.85-1.05.2-.68.39-1.36.59-2.03.15-.51-.01-1.09-.39-1.46-.88-.87-1.77-1.74-2.65-2.61l-1.46,2.51c.95.16,1.89.32,2.84.47s1.63-.11,2.51-.36c1.1-.31,1.44-1.69.66-2.51s-1.58-1.65-2.37-2.47v2.12l.83-.73-1.46.39c2,.36,3.87.64,5.9.72,1.63.06,1.85-1.98.76-2.8-2.09-1.55-4.18-3.1-6.27-4.65l-1.16,2.74c1.6.49,3.19.98,4.79,1.47,1.07.33,2.2-.77,1.85-1.85l-.47-1.45-1.45,1.9c1.35-.12,2.64-.15,3.99-.13s1.92-1.63,1.06-2.56c-.75-.82-1.5-1.64-2.26-2.45l-1.46,2.51c1.15.25,2.29.51,3.44.76,1.31.29,2.74-1.51,1.46-2.51-1.91-1.48-3.83-2.97-5.74-4.45l-1.46,2.51c.89.16,1.78.33,2.68.48,1.08.18,1.61-.14,2.48-.74.52-.36.92-1.04.69-1.69l-.53-1.5-1.45,1.9c.89.12,1.78.23,2.66.35,1.32.17,1.93-1.73,1.06-2.56-1.11-1.05-2.21-2.09-3.32-3.14l-1.06,2.56,1.69.18c.26.03.53.04.79.09-.73-.13-.11,0,.03.05,1.08.36,2.22.59,3.32.89s2.23-.74,1.85-1.85c-.46-1.33-.88-2.14-1.85-3.15-.49-.52-.96-1.13-1.51-1.59-.02-.02-.2-.21-.2-.21.16-.16.21.98.31.37.05-.31-.15-.78-.22-1.11l-1.85,1.85c1.2.32,2.39.64,3.59.96s2.53-1.11,1.69-2.2c-.49-.64-.94-1.36-1.49-1.96-.48-.52.01.3-.26-.38-.16-.4-.31-.8-.47-1.2l-.69,1.69,1.06-.57-1.16.15c2.38.79,4.65,1.5,7.1,2.01,1.33.28,2.7-1.47,1.46-2.51-2.01-1.68-4.02-3.36-6.03-5.04l-1.46,2.51c1.35.19,2.59.38,3.89.78,1.61.5,2.75.75,4.43.68,1.28-.05,2.01-1.61,1.06-2.56s-1.97-1.97-2.95-2.95c-.18-.18-.36-.35-.53-.53.06.06.21.35-.06-.14-.33-.59-.7-1.15-1.05-1.72l-1.69,2.2c1.11.32,2.22.64,3.32.96,1.54.44,2.37-1.42,1.46-2.51l-2.42-2.89-1.82,2.36c1.97.92,3.93,1.83,5.9,2.75.82.38,1.98.13,2.2-.9l.23-1.08-.69.9,1.11-.48c.92-.4.9-1.73.3-2.36-1.17-1.24-2.35-2.48-3.52-3.72l-1.46,2.51c1.62.35,3.22.65,4.85.91,1.49.23,2.47-1.31,1.46-2.51-.92-1.09-1.85-2.18-2.77-3.27l-1.82,2.36,4.7,2.14c1.51.69,3.02-1.04,1.82-2.36s-2.41-2.63-3.62-3.95l-1.82,2.36c1.8.91,3.6,1.82,5.4,2.74.64.32,1.28.22,1.82-.23l.79-.67c.52-.44.53-1.26.23-1.82-.38-.71-.76-1.43-1.14-2.14l-1.69,2.2c.72.13,1.44.25,2.16.38.86.15,1.53-.23,1.85-1.05l.38-.99c.2-.5-.05-1.09-.39-1.46-1.43-1.57-2.86-3.14-4.29-4.7l-1.82,2.36,3.67,1.83c1.1.55,2.1.63,3.32.74.54.05,1.01-.33,1.3-.74l.58-.83c.4-.57.18-1.34-.23-1.82-1.32-1.54-2.63-3.08-3.95-4.62l-1.82,2.36c1.07.53,2.13,1.07,3.2,1.6s1.84.58,3.03.53c.74-.03,1.6-.67,1.5-1.5l-.18-1.5-1.1,1.45,1.15-.35c.84-.26,1.49-1.39.9-2.2-.96-1.32-1.92-2.63-2.89-3.95l-.23,1.82.69-.79-1.06.44c.87.05,2.21.29,3.03-.2.36-.21-.81-.32-.26.05.18.12.48.18.68.25l1.5.55c1.24.46,2.35-1.14,1.69-2.2-.73-1.17-1.45-2.34-2.18-3.52l-2.05,2.05c1.57,1.05,3.15,2.1,4.72,3.15.9.6,1.86-.07,2.2-.9.48-1.13.52-1.72-.1-2.8-.54-.93-1.08-1.87-1.62-2.8l-.9,2.2c.26-.06,1.44-.23.86-.21.47-.01.96.03,1.43.05.67.02,1.26-.48,1.45-1.1.35-1.17.44-1.82-.16-2.91-.5-.92-1.01-1.83-1.51-2.75l-1.69,2.2,1.09.27c.2.05.41.1.61.15.49.11-.36-.19-.05-.04.79.37,1.54.86,2.3,1.29s1.36.74,2.28.35c.17-.07.36-.17.51-.28.68-.48-.35.08-.33,0,.01-.06,1.09-.1,1.23-.11,1.11-.1,1.9-1.21,1.3-2.26-.74-1.28-1.48-2.56-2.22-3.84l.15,1.16.42-1.06-2.2.9c.88.5,1.75,1.02,2.64,1.49.74.39,1.49.46,2.32.59,1.19.19,2.04-.65,1.85-1.85l-.29-1.82-1.85,1.85,1.76.41c1.23.28,2.41-1.05,1.69-2.2-1-1.61-2-3.22-3.01-4.82l-2.05,2.05,3.77,2.63c1.28.89,2.76-.82,2.05-2.05-.81-1.41-1.61-2.82-2.42-4.23v1.51l.55-.94-.9.69,1.06-.37-1.16-.15c1.68.92,3.36,1.81,5.08,2.66,1.26.62,2.39-.4,2.2-1.69l-.27-1.86-2.2,1.69,2.83,1.7c1.07.65,2.64-.44,2.2-1.69-.81-2.36-1.82-4.49-2.94-6.72l-2.36,1.82c1.46,1.18,2.91,2.36,4.37,3.54,1.31,1.06,3.15-.23,2.36-1.82-.64-1.28-1.28-2.55-1.92-3.83l.15,1.16.41-1.1-2.2.9c1.09.76,2.18,1.53,3.27,2.29,1.15.81,2.46-.52,2.2-1.69l-.47-2.15-1.05,1.85c.13-.04.98-.31.98-.3.06.18-1.01-.35-.45.09.14.11.45.19.6.25.65.27,1.18.5,1.89.57.83.08,1.53.21,2.19-.41.13-.12.28-.29.36-.44.39-.7-.38.45-.34.05,0-.08.83-.3.94-.34.9-.32,1.42-1.32.9-2.2-1.18-1.99-2.36-3.98-3.54-5.98l-2.36,1.82c1.36,1.14,2.72,2.28,4.08,3.41,1.07.89,3,.08,2.51-1.46-.28-.9-.57-1.79-.85-2.69l-1.05,1.85c.24-.07,1.3-.32.73-.27.41-.04.86.03,1.27.04.92.03,1.77-.99,1.45-1.9-.35-.99-.7-1.99-1.06-2.98l-2.51,1.46c1.46,1.29,2.92,2.58,4.37,3.88.54.47,1.18.54,1.82.23l.94-.46c.73-.36.92-1.39.54-2.05-1.19-2.07-2.39-4.15-3.58-6.22l-.54,2.05.82-.63h-1.51l1.74.97c.22.12.81.47.28.1.18.13.35.29.52.44l3.18,2.67c1,.84,2.5.3,2.56-1.06.07-1.5-.14-2.75-.42-4.22l-1.85,1.85c.35.07.69.16,1.04.21.7.09-.07-.14.43.12.66.34,1.31.74,1.96,1.11,1.1.62,2.61-.41,2.2-1.69l-.91-2.86-2.2,1.69c.77.5,1.53,1.06,2.32,1.52,1.02.59,1.73.16,2.69-.3.75-.37.89-1.38.54-2.05-.62-1.2-1.24-2.39-1.86-3.59-.25-.49-.48-1.25-.86-1.65.02.02.02.93.18.15.07-.34.04-.73.06-1.08l-2.56,1.06,4.26,3.94c1,.92,3.11.03,2.51-1.46-.5-1.23-1-2.45-1.5-3.68l-2.51,1.46c1.07.85,2.13,1.7,3.2,2.55s3.04.11,2.51-1.46c-.36-1.04-.71-2.08-1.07-3.12l-2.51,1.46c1.09.88,2.17,1.76,3.26,2.64.91.74,2.66.36,2.56-1.06-.09-1.24-.16-2.25-.68-3.38l-1.68-3.67.15,1.16.41-1.16-2.51.66c1.56,1.52,3.13,3.04,4.69,4.56,1.28,1.24,3.06-.32,2.36-1.82s-1.42-3.05-2.14-4.57l-2.36,1.82c1.37,1.27,2.74,2.53,4.11,3.8.85.78,2.74.32,2.56-1.06-.09-.69-.18-1.38-.26-2.07l-.44,1.06c.66-.78,1.22-1.31,1.03-2.41-.15-.84-.44-1.68-.66-2.5l-1.45,1.9c.34.03.88.19,1.2.11.36-.09-.64-.42-.47-.11.05.1.42.29.5.35l2.03,1.41c1.35.94,2.63-.83,2.05-2.05-.72-1.54-1.44-3.08-2.17-4.62l-2.05,2.05c.73.41,1.47.82,2.2,1.23,1.05.59,2.69-.41,2.2-1.69-.43-1.15-.87-2.3-1.3-3.45l-1.85,1.85c.38.13.75.27,1.13.4.17.06.34.11.5.18.21.09-.44-.25-.04,0,.69.44,1.41.84,2.11,1.26.9.54,2.38-.13,2.26-1.3l-.21-1.99-2.56,1.06c1.21,1.04,2.42,2.09,3.63,3.13s2.81.04,2.51-1.46c-.24-1.17-.42-2.26-.92-3.35l-1.78-3.82-.9,2.2c.77-.3,1.49-.46,2.28-.66,1.27-.32,1.72-.82,2.28-1.98l-2.36.3c1.53,1.44,3.06,2.89,4.58,4.33,1.23,1.16,3.21-.31,2.36-1.82-1.22-2.17-2.44-4.34-3.67-6.5l-2.36,1.82c1.39,1.26,2.78,2.51,4.17,3.77,1,.9,3.12.04,2.51-1.46-.5-1.21-.99-2.42-1.49-3.64l-2.2,1.69c.94.66,1.88,1.32,2.81,1.98,1.05.74,2.62-.49,2.2-1.69-.36-1.03-.72-2.06-1.08-3.08l-.69,1.69.92-.48h-1.51c.89.59,1.78,1.18,2.67,1.77,1.03.68,2.16-.25,2.26-1.3l.14-1.49-2.26,1.3,2.38,1.37c1.02.59,2.2-.17,2.26-1.3.04-.81.12-1.55-.1-2.34-.25-.87-.58-1.71-.87-2.57l-2.2,1.69c.94.64,1.88,1.28,2.82,1.92,1.16.79,2.45-.51,2.2-1.69-.15-.75-.31-1.49-.46-2.24l-1.85,1.85c1.1.18,2.18.31,3.3.38,1.18.07,1.81-1.32,1.3-2.26-.95-1.73-1.91-3.47-2.86-5.2l-2.05,2.05c1.01.7,2.01,1.41,3.02,2.11,1.18.83,2.41-.53,2.2-1.69-.11-.62-.28-1.27-.33-1.9-.03-.3.03.07.03.15,0-.13.01-.27.03-.4.06-.33.06-.67.08-1l-.44,1.06.65-.82-1.82.23c1.43.71,2.55,1.27,4.13,1.51.95.14,1.89-.38,1.9-1.45l.02-1.59-1.9,1.45c.45.16.89.33,1.34.48.17.06.37.11.53.19-.61-.29-.11-.03,0,.06.77.6,1.69,1.06,2.52,1.58,1.02.64,2.73-.45,2.2-1.69-.45-1.07-.9-2.14-1.35-3.21l-1.85,1.85c1.3.33,2.49.73,3.74,1.21s2.37-1.16,1.69-2.2c-1.41-2.17-2.81-4.34-4.22-6.51l-2.05,2.05c1.62.89,3.24,1.73,4.9,2.54,1.33.65,2.79-.68,2.05-2.05s-1.47-2.73-2.2-4.09l-2.36,1.82c1.79,1.52,3.58,3.05,5.37,4.57,1.22,1.04,3.35-.3,2.36-1.82-1.3-1.99-2.59-3.98-3.89-5.97l-2.05,2.05c1.77,1.04,3.41,1.91,5.32,2.65.81.32,1.57-.36,1.85-1.05.09-.23.53-1.35.24-.73s.29-.31.44-.51c.44-.56.57-1.16.23-1.82-.61-1.18-1.22-2.36-1.83-3.55l-1.3,2.26c.29-.02.63,0,.91-.07.19-.05.65.06-.02-.12-.84-.23-.29-.13-.25-.03.18.39,1.18.9,1.51,1.15,1.01.77,2.02,1.54,3.03,2.31,1.28.97,2.7-.85,2.05-2.05-.56-1.04-1.1-2.1-1.69-3.13-.09-.16-.19-.33-.27-.5.31.68,0-.1-.04-.25-.16-.56-.34-1.11-.52-1.67l-1.85,1.85,1.94.57c1.06.31,2.21-.76,1.85-1.85l-.77-2.31-1.05,1.85,1.18-.23-1.16-.15c1.49,1.06,2.97,2.13,4.46,3.19,1.24.89,2.82-.83,2.05-2.05-.64-1.01-1.28-2.03-1.92-3.04-.1-.16-.61-1.25-.81-1.28.24.04.11,1.1.19.12.02-.28.01-.57.02-.86l-1.9,1.45,2.11.71c1.83.62,2.62-2.28.8-2.89h0Z"/>
    </g>
    <path class="cls-3" d="m109.33,278.6c2.04,1.4,4.05,2.85,6.01,4.34.07.05.76.58.41.31-.43-.33.66.52.57.45.44.35.88.7,1.32,1.05.99.79,1.96,1.6,2.93,2.42,3.7,3.13,7.26,6.43,10.69,9.85,6.95,6.94,13.36,14.4,19.42,22.12.35.45.7.89,1.05,1.34.17.22.35.45.52.67-.37-.48.06.09.12.15.78,1.02,1.55,2.04,2.32,3.06,1.5,1.99,2.98,4,4.45,6.02,2.9,3.98,5.73,8.01,8.54,12.06,5.69,8.19,11.26,16.47,16.95,24.66,12.95,18.62,26.44,36.86,40.29,54.82s28.1,35.72,42.52,53.29,28.99,34.93,43.59,52.3c1.79,2.12,3.57,4.25,5.36,6.37,1.44,1.71,4.55,1.59,6.01,0,1.67-1.82,1.53-4.19,0-6.01-14.61-17.37-29.22-34.74-43.66-52.25-14.44-17.5-28.71-35.15-42.65-53.05-13.57-17.44-27.28-35.79-40.2-54.15-11.65-16.55-22.66-33.58-34.9-49.71s-25.49-31.04-41.54-43.24c-1.91-1.45-3.86-2.86-5.85-4.22-1.84-1.26-4.8-.4-5.82,1.53-1.14,2.16-.44,4.47,1.53,5.82h0Z"/>
    <path class="cls-3" d="m206.4,225.87c8.59,21.93,17.26,43.82,26,65.69s17.56,43.71,26.45,65.51c8.64,21.19,17.09,42.48,26.45,63.37,8.98,20.05,19.28,39.27,31.53,57.52,11.71,17.44,24.37,34.38,33.71,53.27,1.14,2.3,2.22,4.63,3.25,6.98.92,2.1,4,2.59,5.82,1.53,2.17-1.27,2.45-3.71,1.53-5.82-8.43-19.23-20.66-36.38-32.46-53.62-5.99-8.75-11.87-17.57-17.18-26.74s-10.55-19.44-15.22-29.45c-9.47-20.29-17.73-41.13-26.2-61.85s-17.66-43.44-26.38-65.21-17.37-43.56-25.94-65.38c-1.05-2.68-2.1-5.36-3.15-8.04-.84-2.14-2.85-3.62-5.23-2.97-2.04.56-3.81,3.08-2.97,5.23h0Z"/>
    <path class="cls-3" d="m361.58,540.46c6.49-16.21,12.93-32.44,19.32-48.69s12.66-32.37,18.91-48.59,12.51-32.61,18.68-48.94c6.15-16.26,12.24-32.53,18.28-48.83s12.08-32.77,18.05-49.18c.73-2.01,1.46-4.03,2.19-6.04s-.85-4.75-2.97-5.23c-2.4-.55-4.42.73-5.23,2.97-5.95,16.42-11.95,32.82-18.01,49.19s-12.11,32.58-18.24,48.84c-6.16,16.34-12.38,32.66-18.64,48.96s-12.53,32.42-18.87,48.6-12.8,32.49-19.28,48.71c-.79,1.99-1.59,3.98-2.39,5.97s.9,4.76,2.97,5.23c2.46.56,4.34-.75,5.23-2.97h0Z"/>
    <path class="cls-3" d="m365.92,536.24c23.31-20.75,46.2-41.97,68.63-63.67,22.32-21.59,44.18-43.63,65.59-66.13,12.12-12.74,24.09-25.62,35.91-38.64,1.5-1.65,1.75-4.41,0-6.01-1.63-1.5-4.42-1.76-6.01,0-20.98,23.1-42.43,45.77-64.35,67.99-21.81,22.1-44.07,43.75-66.78,64.92-12.86,11.99-25.86,23.83-38.99,35.52-1.67,1.48-1.62,4.52,0,6.01,1.78,1.63,4.24,1.58,6.01,0h0Z"/>
    <path class="cls-3" d="m343.36,549.52c-10.27.21-20.09-2.58-29.87-5.98s-19.2-6.96-28.77-10.49c-18.82-6.92-37.6-13.94-56.25-21.3s-36.8-14.88-55.07-23.14c-18.18-8.22-36.12-17-53.64-26.55-17.57-9.58-34.73-19.95-51.25-31.26-2.03-1.39-4.04-2.79-6.05-4.21-1.88-1.32-4.73-.34-5.82,1.53-1.24,2.13-.36,4.49,1.53,5.82,16.44,11.59,33.53,22.22,51.09,32.04,17.56,9.82,35.56,18.83,53.84,27.24s37.31,16.45,56.24,24.01c18.78,7.5,37.7,14.63,56.67,21.64,9.56,3.53,19.13,7.04,28.71,10.53s20.1,7.09,30.75,8.26c2.62.29,5.26.41,7.9.35,2.22-.05,4.36-1.92,4.25-4.25s-1.87-4.3-4.25-4.25h0Z"/>
    <path class="cls-3" d="m962.28,530.62c-22.17-14.24-43.75-29.38-64.69-45.38-1.27-.97-2.53-1.94-3.79-2.91.45.34-.3-.24-.4-.31-.3-.23-.6-.47-.9-.7-.72-.56-1.44-1.12-2.16-1.68-2.63-2.06-5.26-4.13-7.87-6.21-5.1-4.07-10.17-8.2-15.19-12.37-10.1-8.4-20.03-17-29.78-25.8-10.99-9.92-21.75-20.09-32.28-30.5-1.58-1.57-4.45-1.7-6.01,0s-1.69,4.34,0,6.01c18.79,18.58,38.33,36.39,58.57,53.38,20.4,17.12,41.5,33.42,63.22,48.83,12.14,8.61,24.47,16.94,36.99,24.98,1.87,1.2,4.78.45,5.82-1.53,1.11-2.11.48-4.53-1.53-5.82h0Z"/>
    <path class="cls-3" d="m881.39,274.99c13.82,16.46,27.65,32.92,41.62,49.26,13.92,16.27,28,32.4,42.37,48.27s28.65,31,43.49,46c13.56,13.7,27.31,27.24,40.17,41.62,3.15,3.52,6.25,7.09,9.27,10.73,1.55,1.87,3.09,3.75,4.6,5.65.71.89,1.42,1.79,2.12,2.69.05.07.49.63.12.16.17.23.35.45.52.68.39.51.78,1.02,1.16,1.53,5.75,7.63,11.11,15.55,15.89,23.83,1.18,2.04,2.32,4.11,3.43,6.2,1.05,1.97,3.94,2.74,5.82,1.53,2-1.29,2.64-3.71,1.53-5.82-9.1-17.1-20.71-32.73-33.34-47.37-12.59-14.6-26.23-28.25-39.81-41.92-14.72-14.82-29.19-29.87-43.29-45.29s-28.8-32.12-42.87-48.47c-14.02-16.3-27.86-32.74-41.69-49.2-1.7-2.03-3.4-4.05-5.11-6.08-1.44-1.71-4.55-1.59-6.01,0-1.67,1.82-1.53,4.19,0,6.01h0Z"/>
    <path class="cls-3" d="m1084.71,501.31c-12.53-11.07-24.96-22.25-37.29-33.54s-24.67-22.8-36.85-34.37c-12.12-11.51-24.14-23.13-36.06-34.86-11.91-11.73-23.72-23.56-35.42-35.51-11.76-12-23.41-24.1-34.94-36.31-1.42-1.5-2.84-3.01-4.26-4.52-1.53-1.62-4.49-1.66-6.01,0-1.6,1.74-1.63,4.28,0,6.01,11.46,12.18,23.02,24.25,34.7,36.22,11.73,12.03,23.57,23.94,35.51,35.76,11.89,11.76,23.88,23.4,35.98,34.94s24.3,22.97,36.6,34.29,24.83,22.64,37.39,33.79c1.55,1.37,3.1,2.75,4.65,4.12,1.67,1.47,4.39,1.76,6.01,0,1.48-1.61,1.78-4.44,0-6.01h0Z"/>
    <path class="cls-3" d="m1087.63,507.53c-1.93-.67-3.85-1.37-5.76-2.1-.95-.37-1.9-.74-2.84-1.12-.4-.16-.81-.33-1.21-.5-.27-.11-.54-.22-.81-.34.42.18-.02,0-.19-.08-3.74-1.6-7.43-3.32-11.07-5.15-7.29-3.66-14.36-7.73-21.26-12.09-7-4.42-13.81-9.12-20.5-13.99-3.33-2.42-6.62-4.88-9.9-7.36-1.64-1.24-3.27-2.49-4.9-3.75-.57-.44-.9-.7-1.75-1.36s-1.74-1.35-2.61-2.03c-14.24-11.11-28.39-22.34-42.58-33.52-14.7-11.58-29.4-23.16-44.1-34.74-14.64-11.53-29.27-23.06-43.91-34.58-1.83-1.44-3.66-2.88-5.49-4.32s-4.33-1.83-6.01,0c-1.41,1.53-1.87,4.54,0,6.01,14.77,11.63,29.53,23.26,44.3,34.89s29.53,23.26,44.3,34.89,28.98,22.86,43.5,34.26c13.21,10.36,26.53,20.62,40.57,29.85,13.94,9.16,28.62,17.21,44.21,23.21,1.91.73,3.83,1.43,5.76,2.1,2.1.73,4.74-.83,5.23-2.97.54-2.37-.72-4.45-2.97-5.23h0Z"/>
    <path class="cls-3" d="m969.74,531.62c-25.92-13.2-52.27-25.55-79.01-37.02-13.52-5.8-27.13-11.39-40.84-16.74s-26.37-9.88-39.56-14.8c-7.08-2.64-12.69-4.85-19.36-8.24-3.2-1.62-6.33-3.39-9.34-5.34-1.53-.99-3.03-2.03-4.5-3.13.09.07-1.01-.77-.58-.43.17.13-.73-.58-.9-.71-.77-.62-1.52-1.26-2.27-1.91-1.67-1.46-4.39-1.77-6.01,0-1.47,1.6-1.79,4.45,0,6.01,10.21,8.93,22.37,14.81,34.9,19.74,12.87,5.07,25.98,9.54,38.89,14.5,27.29,10.5,53.43,21.57,79.99,33.87,14.9,6.9,29.66,14.08,44.29,21.53,1.98,1.01,4.7.58,5.82-1.53,1.02-1.94.59-4.74-1.53-5.82h0Z"/>
    <path class="cls-3" d="m966.03,532.31c-24.99-5.38-49.98-10.76-74.97-16.14-12.08-2.6-24.21-5.06-36.19-8.07-5.8-1.46-11.56-3.07-17.24-4.94-2.84-.94-5.65-1.94-8.44-3.01-1.36-.53-2.72-1.07-4.07-1.64-.78-.33.9.39-.44-.19-.28-.12-.55-.24-.83-.36-.76-.33-1.51-.66-2.27-1-12.02-5.35-23.81-11.55-36.69-14.61-2.16-.51-4.71.68-5.23,2.97s.65,4.68,2.97,5.23c5.68,1.35,11.18,3.31,16.56,5.57-.18-.07-.58-.25.23.1.28.12.55.24.83.36.69.3,1.38.6,2.06.9,1.37.61,2.74,1.23,4.11,1.85,2.6,1.19,5.19,2.4,7.79,3.58,11.11,5.07,22.47,9.18,34.27,12.32,11.87,3.16,23.92,5.61,35.93,8.19s24.83,5.35,37.24,8.02c14.04,3.02,28.07,6.05,42.11,9.07,2.17.47,4.7-.64,5.23-2.97.49-2.14-.64-4.73-2.97-5.23h0Z"/>
    <path class="cls-3" d="m358.93,542.28c26.89-9.61,53.78-19.21,80.66-28.82,26.77-9.56,53.55-19.07,80.3-28.69,12.39-4.45,25.33-9.51,34.24-19.66,1.47-1.67,1.77-4.39,0-6.01-1.61-1.47-4.45-1.79-6.01,0-.92,1.05-1.89,2.06-2.91,3.01-.53.5-1.07.98-1.63,1.45-.2.17-.4.34-.61.51-.2.17-.41.33-.62.5.29-.22.31-.24.08-.06-2.28,1.72-4.7,3.24-7.21,4.61s-5.04,2.55-7.64,3.66c.68-.29-.13.05-.29.12-.31.13-.63.26-.94.38-.63.25-1.26.5-1.89.75-1.39.54-2.78,1.06-4.18,1.58-12.95,4.76-25.99,9.3-38.98,13.94-26.57,9.49-53.15,18.99-79.72,28.48-14.97,5.35-29.94,10.7-44.92,16.05-2.09.75-3.71,2.93-2.97,5.23.67,2.06,2.99,3.77,5.23,2.97h0Z"/>
    <path class="cls-3" d="m342.64,561.85c-1.77-38.77-4.21-77.51-7.35-116.2-3.12-38.49-6.91-76.92-11.39-115.28-2.53-21.69-5.28-43.35-8.23-64.98-.31-2.28-3.23-3.52-5.23-2.97-2.46.67-3.28,2.95-2.97,5.23,5.19,38.08,9.7,76.25,13.55,114.49,3.84,38.23,7.02,76.52,9.52,114.86,1.41,21.6,2.61,43.22,3.59,64.84.1,2.29,1.88,4.25,4.25,4.25,2.22,0,4.36-1.95,4.25-4.25h0Z"/>
  </g>
</svg>