<?xml version="1.0" encoding="UTF-8"?>
<svg id="Layer_2" data-name="Layer 2" xmlns="http://www.w3.org/2000/svg" viewBox="0 0 331.63 1076.73">
  <defs>
    <style>
      .cls-1 {
        fill: #fbd2a0;
      }

      .cls-1, .cls-2, .cls-3, .cls-4, .cls-5, .cls-6, .cls-7, .cls-8, .cls-9, .cls-10, .cls-11, .cls-12, .cls-13, .cls-14, .cls-15, .cls-16, .cls-17, .cls-18, .cls-19, .cls-20, .cls-21, .cls-22, .cls-23, .cls-24, .cls-25, .cls-26, .cls-27, .cls-28, .cls-29, .cls-30, .cls-31, .cls-32, .cls-33, .cls-34, .cls-35, .cls-36, .cls-37, .cls-38, .cls-39, .cls-40, .cls-41, .cls-42, .cls-43, .cls-44, .cls-45, .cls-46, .cls-47, .cls-48, .cls-49, .cls-50, .cls-51, .cls-52, .cls-53, .cls-54, .cls-55, .cls-56, .cls-57, .cls-58, .cls-59, .cls-60, .cls-61 {
        stroke-width: 0px;
      }

      .cls-2 {
        fill: #fe5164;
      }

      .cls-3 {
        fill: #f08b3c;
      }

      .cls-4 {
        fill: #dacae0;
      }

      .cls-5 {
        fill: #fbd4a3;
      }

      .cls-6 {
        fill: #fe4e62;
      }

      .cls-7 {
        fill: #fe5063;
      }

      .cls-8 {
        fill: #fefaf5;
      }

      .cls-9 {
        fill: #c85d2c;
      }

      .cls-10 {
        fill: #36294f;
      }

      .cls-11 {
        fill: #c75725;
      }

      .cls-12 {
        fill: #dec9e0;
      }

      .cls-13 {
        fill: #472f69;
      }

      .cls-14 {
        fill: #b91655;
      }

      .cls-15 {
        fill: #c65927;
      }

      .cls-16 {
        fill: #452f69;
      }

      .cls-17 {
        fill: #772734;
      }

      .cls-18 {
        fill: #fe7f82;
      }

      .cls-19 {
        fill: #ba1755;
      }

      .cls-20 {
        fill: #dfcde5;
      }

      .cls-21 {
        fill: #b91b5a;
      }

      .cls-22 {
        fill: #fcf8f9;
      }

      .cls-23 {
        fill: #ef8637;
      }

      .cls-24 {
        fill: #c95b25;
      }

      .cls-25 {
        fill: #c65725;
      }

      .cls-26 {
        fill: #462f69;
      }

      .cls-27 {
        fill: #b81555;
      }

      .cls-28 {
        fill: #decde4;
      }

      .cls-29 {
        fill: #bba4c2;
      }

      .cls-30 {
        fill: #fe7e82;
      }

      .cls-31 {
        fill: #fd5063;
      }

      .cls-32 {
        fill: #e0cde5;
      }

      .cls-33 {
        fill: #b9a2c0;
      }

      .cls-34 {
        fill: #372a50;
      }

      .cls-35 {
        fill: #e0cee6;
      }

      .cls-36 {
        fill: #aa7981;
      }

      .cls-37 {
        fill: #fb4b61;
      }

      .cls-38 {
        fill: #dfcce4;
      }

      .cls-39 {
        fill: #f19145;
      }

      .cls-40 {
        fill: #f9e8fb;
      }

      .cls-41 {
        fill: #4d70b5;
      }

      .cls-42 {
        fill: #d11d43;
      }

      .cls-43 {
        fill: #432e69;
      }

      .cls-44 {
        fill: #ee934a;
      }

      .cls-45 {
        fill: #b9205c;
      }

      .cls-46 {
        fill: #fe5064;
      }

      .cls-47 {
        fill: #f08737;
      }

      .cls-48 {
        fill: #772834;
      }

      .cls-49 {
        fill: #ca5c26;
      }

      .cls-50 {
        fill: #fbd3a2;
      }

      .cls-51 {
        fill: #ca5d26;
      }

      .cls-52 {
        fill: #a36a76;
      }

      .cls-53 {
        fill: #fdfdfd;
      }

      .cls-54 {
        fill: #b7ced9;
      }

      .cls-55 {
        fill: #fbd3a1;
      }

      .cls-56 {
        fill: #442e69;
      }

      .cls-57 {
        fill: #fbd4a4;
      }

      .cls-58 {
        fill: #decce4;
      }

      .cls-59 {
        fill: #fe4f63;
      }

      .cls-60 {
        fill: #c55624;
      }

      .cls-61 {
        fill: #fbf8f9;
      }
    </style>
  </defs>
  <g id="Layer_51" data-name="Layer 51">
    <g>
      <path class="cls-43" d="m168.63,586.69c-1.04,7.71-1.99,15.44-2.83,23.15-.37,3.36-.8,6.89-.61,10.4.23,4.27-.47,8.71-1.24,12.76-1.1,5.79-1.35,11.64-2.46,17.37-.95,4.91-1.15,9.9-2.06,14.81-1.1,5.91-1.68,11.92-2.97,17.77-1.87,8.49-3.59,17.01-6.06,25.38-.99,3.35-1.15,7.08-1.26,10.7-.08,2.56-1.15,5.08-1.37,7.66-.64,7.71-1.99,15.35-3.68,22.83-1.41,6.29-1.15,12.93-3.96,18.9-.61,1.29.19,2.46.26,3.69.19,3.52-1.8,6.43-2.34,9.73-1.07,6.56-2.65,13.05-3.36,19.64-.47,4.35-2.12,8.38-2.54,12.72-.38,3.91-1.22,7.8-2.1,11.64-1.1,4.78-1.05,9.78-3.01,14.41-.91,2.15-.93,4.66-1.13,6.91-.38,4.34-1.43,8.53-2.36,12.7-.92,4.12-1,8.32-2.03,12.42-1.34,5.27-1.36,11.17-4.98,15.39-3.58,4.17-7.1,8.49-11.14,12.24-3.54,3.29-7.34,6.34-11.91,8.2-.43.18-.69.79-1.02,1.2-3.2.85-5.72,3.44-9.19,3.59-4.84,1.3-9.68,2.48-14.75,1.62-.92-.27-1.88-.44-2.75-.86-1.15-.98-2.5-1.57-3.96-1.91-3.12-.96-5.66-3-8.47-4.55-1.47-1.25-3.32-1.9-4.84-3.07-2.66-2.44-5.94-4.06-8.61-6.48-.89-.57-2.11-.69-2.5-1.91.25-6.9-.83-13.73-.64-20.66.15-5.61-1.16-11.28-1.06-16.96.08-5.01-1.14-9.92-.7-15,.3-3.43-1.22-6.91-1.04-10.49.05-1.1-.98-1.85-1.73-2.62,1.34-5.21,1.9-10.69,2.31-15.9.54-6.83,2.22-13.48,2.6-20.37.41-7.49,1.76-15.1,2.99-22.62.66-4.04.15-8.25,1.4-12.23,1.33-4.25.99-8.67,1.56-12.99.9-6.96,1.7-13.94,2.52-20.92.65-5.59,1.28-11.18,1.9-16.77.77-6.95,1.78-13.88,2.22-20.85.33-5.22,1.43-10.32,1.44-15.61,0-5.29,1.38-10.56,1.93-15.86.49-4.75,1.36-9.42,1.5-14.27.14-4.73,1.32-9.65,2.2-14.45,1.08-5.84.31-11.72.84-17.54.37-4-.02-8-.07-11.96-.06-5.38.54-10.74.13-16.18-.34-4.64-.31-9.49.3-14.3.41-3.28-.87-6.96-.37-10.44,1.18-8.26.13-16.58.93-24.86.31-3.23-.34-6.51-.1-9.88.45-6.44,1.34-12.84,1.57-19.29.15-4.37-.16-8.77.01-13.14.12-2.91.82-5.8,1.09-8.71.49-5.14.85-10.29,1.29-15.44.41-4.84,1.95-9.34,3.97-13.74.71-1.54,2.12-3.14.76-5.06-.15-.17-.29-.4-.2-.57,2.55-5.13,4.38-10.64,7.93-15.25,2.28-2.01,4.62-3.13,7.32-.66.38.35.97.52,1.51.49,6.93-.31,13.56,1.91,20.4,2.44,5.25.41,10.49-.09,15.74-.1,5.21-.02,5.77.83,5.89,6.01.34,14.63-1.08,29.18-2.06,43.73-1.08,16.15-2.73,32.27-4.04,48.4-.82,10.05-1.05,20.16-2.27,30.16-1.33,10.99-1.76,22.04-2.74,33.05-.63,7.04-1.51,14.07-1.99,21.14-.63,9.29-1.29,18.62-2.55,27.86-1.8,13.17-2.94,26.41-4.14,39.63-.95,10.46-.64,21.05-2.73,31.38-2.45,12.16-1.81,24.59-3.65,36.8-1.13,7.51-2.25,15.04-3.22,22.57-1.35,10.5-3.28,20.9-4.92,31.34-1.09,6.96-2.9,13.86-3.83,20.87-1.13,8.61-2.68,17.17-4.12,25.72-1.44,8.53-2.12,17.14-3.76,25.66-1.88,9.76-2.21,19.81-3.48,29.71-.14,1.09-.35,2.31.44,3.56,1.34-3.14,1.71-6.34,2.36-9.46,2.04-9.65,3.46-19.4,4.9-29.16,1.11-7.48,2.36-14.95,3.75-22.4,1.08-5.77,1.9-11.62,2.44-17.48.4-4.41,1.6-8.65,2.39-12.97,2.07-11.39,3.49-22.9,5.62-34.26,1.69-8.96,3.24-17.99,4.13-26.98.95-9.68,2.8-19.26,3.26-28.99.09-1.85-.32-3.63-.25-5.46.34-8.9,2.03-17.66,2.75-26.52.44-5.34,1.02-10.67,1.37-16.02.48-7.49,1.87-14.88,2.55-22.35.9-9.81,2.23-19.59,3.11-29.4.83-9.3,1.97-18.58,2.72-27.87,1.06-13.06,2.43-26.08,3.39-39.15.9-12.3,1.53-24.62,2.41-36.91.75-10.59,1.67-21.19,2.75-31.77.9-8.85,1.14-17.79,1.93-26.66.54-6.09.74-12.17.86-18.26.07-3.77-.2-7.51-.35-11.26-.09-2.28.52-4.02,2.76-4.91,3.26-.59,6.35.63,9.48,1.09,4.83.71,9.66,1.63,14.47,2.53,6.71,1.25,13.42,2.65,20.29,2.81.78.02,1.49.13,2,.81.59.8,1.05,1.7.8,2.7-1.63,6.57-.88,13.25-.81,19.88.15,13.39-1.6,26.64-2.4,39.96-.24,3.95-.5,7.92-.92,11.83-.56,5.09-1.2,10.19-1.78,15.29-.69,6.06-1.98,12.07-1.58,18.23.11,1.72-.9,2.76-2.17,3.7-4.58,3.38-8.61,7.4-12.81,11.22-1.15,1.05-3.42,2.42-1.7,4.09,1.48,1.45,3.15-.4,4.27-1.64,2.24-2.49,4.97-4.41,7.47-6.59.97-.84,2.07-1.84,3.43-1.3,1.55.62,1.68,2.37,1.47,3.61-.55,3.2-.19,6.39-.39,9.56-.18,2.9-.8,5.73.55,8.52.33.68.15,1.48-.2,2.18-.87.71-1.62,1.4-1.48,2.77.11,1.08.12,2.3-.89,3.15Z"/>
      <path class="cls-43" d="m170.6,901.06c-2.99-1.36-4.85-4.42-8.39-5.18-1.38-.3-2.93-2.17-2.7-4.31.71-6.62.2-13.27.97-19.94.53-4.59.89-9.35,1.09-14.04.2-4.82.71-9.75,1.51-14.6,1.01-6.12,1.58-12.28,1.71-18.54.08-3.7,1.22-7.52,1.63-11.32.62-5.76,1.73-11.44,2.36-17.21.85-7.76,1.54-15.56,3.08-23.26,1.18-5.91,1.65-11.97,2.3-17.98.69-6.42,1.46-12.84,1.77-19.28.22-4.74,1.76-9.41.78-14.24-.27-1.32.49-2.63.65-3.99.69-6,.49-12.17,1.56-17.98,1.46-7.89.71-15.93,2.64-23.67.56-2.25-1.2-4.04-.7-6.16.28-.4.92.39.94-.14.44-12.49,3.68-24.59,5.23-36.92.98-7.76,2.39-15.47,3.93-23.13,1.2-5.98,1.69-12.07,3.08-17.99,1.32-5.63,1.87-11.41,2.58-17.08,1.11-8.93,2.57-17.82,3.47-26.79.71-7.02.67-14.12,2.16-21.05.11-.51.43-1.1-.2-1.41-.63-.31-1.31,0-1.82.36-2.51,1.83-5.24,3.42-7.37,5.69-3.91,4.18-8.92,7.06-12.85,11.21-.59.62-1.43.95-2.22,1.28-2.52,1.02-3.49.37-3.04-2.38,1.98-11.97,2.34-24.11,4.09-36.1.18-1.25.57-2.27,1.81-2.82,7.03-3.11,8.64-8.98,8.79-16.07.27-12.75.64-25.51,1.62-38.23.23-2.95-.15-5.98,1.29-8.74.24-.37.58-.8.97-.78,4.49.32,8.55-2.06,13.06-1.93,3.09.09,6.05-1.33,8.97-2.29,8.82-2.9,17.76-5.37,26.61-8.13,2.16-.67,4.16-1.72,6.21-2.66,2.66-1.23,4.43-2.95,3.96-6.17,1.01-1.37,1.83-.71,2.64.23,1.42,1.77,2.84,3.54,3.88,5.57,1.74,4.26,3.63,8.43,5.78,12.52,1.76,3.35,3.26,6.91,4.46,10.61,1.2,3.73,3.02,7.3,4.58,10.92,2.94,6.83,4.56,13.93,6.23,21.1.81,3.45,1.81,6.9,2.05,10.38.34,4.96.65,9.93,1.02,14.89-.83,7.91-.55,15.82-.14,23.74.24,4.67-.41,9.54.39,13.97.8,4.44-.32,8.6.15,12.91.54,4.91.07,9.95-.12,14.93-.28,7.28-.58,14.57-1.08,21.84-.53,7.69-1.45,15.36-1.94,23.05-.53,8.27-2.24,16.43-2.77,24.64-.67,10.35-1.95,20.61-3.33,30.85-1.3,9.69-1.5,19.46-3.09,29.14-1.26,7.68-.82,15.64-1.84,23.38-1.45,11.01-2.35,22.07-3.73,33.08-1.45,11.52-3.21,23.01-4.32,34.56-.8,8.39-2.66,16.66-3.17,25.02-.5,8.12-1.2,16.22-2.13,24.29-.81,7.03-1.22,14.06-1.61,21.11-.2,3.52-1.3,6.93-1.12,10.53.27,5.13-1.4,10.31-.33,15.36,1.11,5.22-1.93,10.13-.49,15.26.13.46-.32,1.27-.74,1.67-3.46,3.34-7.7,5.34-12.2,6.82-2.02.67-3.73,1.89-5.51,2.98-1.5,1.48-3.8,1.19-5.4,2.44-5.54,2.17-11.31,2.24-17.13,1.94-.3-.02-.59-.1-.86-.23-5.11-1.83-10.39-3.13-15.54-4.84-3.43-1.14-7.06-1.59-10.36-3.14-3.68-1.84-7.6-3.16-11.12-5.35-1.01-.63-1.93-1.26-2.63-2.21Z"/>
      <path class="cls-40" d="m215.68,165.33c.02,1.3.44,2.05,1.64,3.02,4.84,3.9,8.97,8.56,12.49,13.71,1,1.45,1.95,2.91,4,2.7,6.94-.72,13.23,1.74,19.53,4.07,7.18,2.66,14.22,5.79,20.82,9.57,8.39,4.8,16.88,9.49,24.73,15.2,1.64,1.19,3.32,2.26,5.26,3,3.75,1.44,3.91,5.31,4.92,8.42,2.29,7.08,3.76,14.46,6.13,21.44,3.85,11.35,6.15,23.06,8.82,34.64,2.1,9.1,3.69,18.44,4.71,27.85.59,5.47,1.11,11.15,2.52,16.51,1.33,5.06-1.14,7.95-4.41,10.72-3.99,3.38-8.71,5.84-12.27,9.75-1.62,1.77-3.86,3.18-3.61,6.07-1.39-.24-2.64-.26-3.51,1.22-.64,1.1-1.79,1.73-2.85,2.41-1.3.72-2.54.91-3.9,0-9.3-6.26-19.11-11.72-28.24-18.23-.35-.25-.69-.5-1-.8-2.19-3.08-4.03-6.33-5-10.02-.9-6.54.86-13.01.47-19.58-.18-3,2.02-5.81,3.01-8.76,1.89-5.65,3.99-11.21,5.55-17,1.21-4.48,2.11-8.96,2.82-13.51.26-1.66.71-3.36-.55-5.5-1.91,3.26-2.5,6.61-3.11,9.83-1.07,5.62-2.97,10.95-5.1,16.21-.29.71-.49,1.85-1.65,1.59-.99-.22-1.2-1.17-1.21-2.06-.03-6.76-.5-13.51-.46-20.25.02-3.46-.92-6.79-.68-10.24.06-.85-.49-1.79-1.51-1.78-.99.01-1.42.91-1.56,1.8-.36,2.35-.11,4.72.04,7.07.66,10.5.87,21,.5,31.51-.18,5.03.22,10.07-.72,15.07-.25,1.34.03,2.9-1.8,3.38-1.86.2-2.28-1.25-2.8-2.52-1.73-4.22-4.03-7.97-8.09-10.35-3.96-3.42-8.53-5.83-13.1-8.31-5.12-2.78-10.05-5.95-15.47-8.13-1.74-.7-3.21-1.64-4.57-2.86-2.83-2.78-6.28-4.77-9.27-7.41-4.88-4.31-8.36-9.72-12.62-14.5-.78-.88-1.64-1.73-2.27-2.71-1.93-2.99-3.75-5.6-3.13-9.91.82-5.64-.28-11.54-2.56-16.99-.62-1.48-1.46-2.9-1.01-4.61.65-1.71,1.8-1.71,3.38-1.28,5.37,1.47,10.76,2.89,16.09,4.51,5.36,1.62,6.79,1.27,9.48-3.61,4.2-7.61,7.85-15.5,11.84-23.22,1.52-2.94,2.64-6.12,5.14-8.48.47-.44.8-1.02.98-1.64.22-.75.28-1.55-.38-2.09-.74-.6-1.42-.13-2.02.35-.85.68-1.46,1.55-2.04,2.47-4.17,6.54-6.83,13.86-10.52,20.64-1.84,3.39-3.7,6.77-5.38,10.24-1.11,2.3-2.55,2.14-4.02.75-2.02-1.91-4.34-3.57-6.07-5.72-4.26-5.29-9.31-9.76-14.22-14.39-.87-.82-1.75-1.61-1.78-2.92.02-.95.48-1.62,1.3-2.05,3.61-1.87,6.6-4.73,10.2-6.61,1.45-.76,2.77-1.79,3.6-3.12,3.62-5.8,7.93-11.07,12.18-16.4.95-1.19,1.33-2.24.61-3.78-.87-1.85-.45-3.51,1.66-4.37Z"/>
      <path class="cls-30" d="m40.59,425.42c-5.33-.46-8.69-4.02-11.51-7.94-1.74-2.42-3.69-4.73-5.77-6.61-5.35-4.83-5.55-10.77-5.68-17.27-.16-8.08,1.12-16.11.39-24.18.63-.92-.16-1.78-.1-2.68.38-2.33.74-4.67,1.61-6.88,1.02-2.59,2.05-4.68,5.33-5.71,4.45-1.39,7.3-5.37,10.13-9.01,7.41-6.67,13.59-14.49,20.19-21.91,7.74-8.7,15.7-17.21,21.62-27.44,1.52-2.64,2.47-5.61,4.41-8.01,1.3-1.46,2.26-3.11,2.68-5.04.23-.59.54-1.14.93-1.64,2.55-2.74,3.27-6.48,5.18-9.57.47-.75.4-1.65.26-2.51-1.42-8.97-2.23-18.04-3.9-26.97-.08-.42-.15-.85-.13-1.28.11-4.15,1.9-7.98,2.33-12.07,1.97.45,3.12-.51,3.94-2.2,1.78-3.65,4.06-7.03,6.22-10.45,1.94-3.07,4.39-4.96,8.71-4.46,4.48.52,9.14-.48,13.69-.24,2.22.12,3.6-.3,4.57-2.21,2.26,2.62,2.52,6.15,4.08,9.11,1.12,2.13,1.71,4.58,2.26,6.97.55,2.34.23,4.43-1.69,6.09-4.18-.6-7.34-3.2-10.41-5.75-1.63-1.35-2.89-1.87-4.79-.78-1.48.85-3.28.92-4.87,1.52-.61.23-1.25.54-1.33,1.25-.1.89.61,1.29,1.3,1.62.98.46,2.06.51,3.11.69,5.85,1.04,11.62,2.5,17.54,3.2,1.78,3.21,2.38,6.49.61,9.91-1.18.99-2.43,1.74-4.05,1.12-3.98-5.25-10.03-5.6-15.78-6.65-.64-.12-1.29-.06-1.91.1-1.02.27-2.36.41-2.33,1.77.03,1.41,1.4,1.45,2.43,1.58,5.52.7,10.88,2.31,16.45,2.74.56.04,1.02.28,1.41.7.84,1.63,1.27,3.42,1.67,5.16.61,2.72.45,5.33-2.34,7.05-2.2,1.36-2.27,3.31-1.51,5.62,1.12,3.4,1.86,6.87-.86,9.99-3.43,2.62-7.54,2.07-11.42,2.23-2.1.09-3.05-1.82-3.42-3.7-.37-1.87,1.19-1.94,2.4-2.31,1.39-.42,1.44-1.23.35-2.01-1.87-1.35-3.98-2.15-6.3-2.04-1.7.08-2.43,1.13-1.37,2.6,3.99,5.54,5.15,12.03,5.24,18.49.11,8.32-.13,16.71-1.75,24.95-.52,3.75-2.55,6.98-3.72,10.52-.57,1.72-1.24,3.38-1.48,5.18-1.61,1.35-2.45,3.1-3.11,5.09-2.66,7.97-6.33,15.57-8.9,23.58-4.14,11.59-8.28,23.18-12.66,34.68-.19.5-.29,1.03-.41,1.56-.97,4.5-1.89,8.83-6.12,11.88-3.63,2.62-6.17,6.52-9.03,10-.55.67-1.1,1.32-1.92,1.66-2.29.85-2.94.07-2.32-2.23.83-3.09,1.8-6.15,2.49-9.28.13-.61.37-1.33-.33-1.74-.65-.38-1.21.08-1.76.4-2.51,1.47-3.14,4.22-3.51,6.58-.77,4.93-2.73,9.38-4.42,13.97-3.19,2.22-6.43,4.25-10.61,3.21Z"/>
      <path class="cls-18" d="m221.99,148.58c-1.03,1.15-2.14,2.25-2.42,3.87-7.82,6.82-15.76,13.5-24.46,19.18-4.87,3.18-10.48,4.91-15.75,7.25-3.37,1.5-7.43.22-11.11-.26-4.32-.57-8.64-1.31-12.89-2.41-2.31-.6-4.45-1.55-6.69-2.25-2.94-1.61-5.1-3.62-6.22-7.14-1.07-3.37-2.11-7.13-5.52-9.27-.88-.22-1.86-.35-1.59-1.66,1.69-.43,2.13-1.38,1.39-3-1.61-3.49-3.13-7.04-5.28-10.25-.95-1.41-1.24-3.04-1.65-4.6-2.13-8.07-1.81-16.27-1.19-24.48.5-6.59,1.01-13.17,1.51-19.76-.63-1.1-.55-2.34-.26-3.44,2.31-8.68,2.7-17.68,4.59-26.42.25-5.19,3.85-7.88,7.45-10.93,2.58-2.18,4.61-2.67,7.91-2.05,3.65.68,7.74.85,10.99-2.05,1.31-1.18,2.86-.88,4.26-.36,5.36,1.98,10.91,1.94,16.49,1.83,2.55-.05,4.93-.49,6.57-2.69,1.17-1.57,2.56-1.09,4.04-.6,5.97,1.99,11.84,4.31,18.09,5.35,1.55.26,2.1,1.08,1.22,2.45-1.23,1.92-.55,3.2.83,4.79,1.69,1.94,2.11,4.65,3.16,6.99.15,2.74,1.51,5.12,2.38,7.63,4.04,11.73,4.95,23.78,3.76,36.05-.19,1.99.34,3.81.74,5.69.38,1.75,1.46,2.23,3.09,1.87,1.56.03,1.73.92,1.38,2.18-1.88,6.7-2.26,13.68-3.75,20.44-.59,2.69-1.97,5.2-1.06,8.07Z"/>
      <path class="cls-40" d="m85.03,281.65c0,.52-.07,1-.62,1.26-.94.63-1.65.17-2.21-.55-3.34-4.32-7.17-8.21-11.26-11.77-2.88-2.51-5.56-5.6-9.95-6.51.31,2.93,2.19,4.37,3.79,6.02,4.38,4.51,9.22,8.61,12.92,13.75,1.15,1.59,3.8,1.7,4.03,4.15-2.85,7.11-7.42,13.25-11.79,19.39-4.26,5.99-9.5,11.3-14.52,16.72-5.43,5.86-10.31,12.21-16.03,17.82-1.3,1.28-2.72,2.35-4.07,3.52-.92,1.39-2.24,1.96-3.85,1.73-6.39-.91-12.53.84-18.69,1.95-2.3.41-4.66.45-6.92,1.17-3.01.96-3.65,2.5-1.52,5.06,2.15,2.58,5.1,4.2,8.09,5.67,1.05.52,2.17.89,3.21,1.46,1.67.93,2.9,2.12,2.91,4.19-.05.93.37,1.95-.53,2.72,0-1.46-1.2-1.9-2.15-2.56-4-2.81-8.01-5.62-11.98-8.47-4.51-3.24-4.53-4.17-2.89-9.65,1.74-5.79,3.78-11.5,5.65-17.23,1.22-3.74,2.17-7.75,4.26-11.23,2.41-.65,4.02.99,5.79,2.09,2.34,1.46,4.45,3.28,7.37,3.67,5.31.72,7.75-1.94,6.39-7.07-2.63-9.91-5.43-19.77-8.01-29.69-.13-3.39,1.95-6.33,1.5-9.95-.46-3.7.08-7.52-1.41-11.12-.19-.45-.02-1.06-.01-1.59,1.35.03,1.44,1.4,2.22,2.02.24-1.73.02-3.53.25-5.31-.57-3.59.57-7.12,1.33-10.41,2.23-9.76,3.12-19.9,7.36-29.16-.32-5.32,4.06-6.98,7.32-9.63,8.88-7.22,19.19-12.08,28.97-17.81,1.44-.84,2.93-1.85,4.78-1.68,1.26.39,1.41,1.41,1.55,2.53,1.46,11.16,3.2,22.3,5.29,33.34,2.32,12.24,2.98,24.69,5.5,36.87.21,1,.34,2.1-.8,2.47-1.4.45-1.74-.84-2.18-1.8-2.88-6.35-5.71-12.72-8.44-19.14-1.56-3.67-3.96-6.86-5.86-10.33-.54-.98-1.54-2.23-2.81-1.54-1.38.75-.6,2.21-.05,3.14,2.69,4.51,4.48,9.47,7.1,14.02,1.18,2.05,1.61,4.45,2.76,6.5,3.19,5.72,4.5,12.23,7.74,17.92.53.93.99,1.93.49,3.05Z"/>
      <path class="cls-43" d="m214.92,66.75c-1.65-1.27-1.41-3.46-2.47-5.03-.34-.51-.43-1.22-.81-1.69-2.51-3.17-2.53-3.22-.45-6.31-6.73-1.66-13.35-3.69-19.89-6.01-.77-.27-1.65-1.41-2.37.08-1.83,3.77-5.41,3.32-8.63,3.47-5.59.26-11.09-.42-16.44-2.14-.84-.27-1.59-.73-2.57.23-4.14,4.04-9.12,2.94-13.98,1.87-1.36-.3-2.2-1.13-2.94,1.1-.64,1.93-3.23,2.67-4.93,3.8-2.47,1.63-3.6,3.47-3.55,6.28,0,.36-.38.74-.58,1.1-1.67.2-1.97-1.33-2.69-2.24-1.11-1.41-1.96-3.01-3.23-4.32-1.38,1.27-.15,3.93-2.54,4.57.81-7.11.82-14.39,4.68-20.83.64-1.07.7-2.31.61-3.66-.38-6.09-.26-9.36,6.96-11.85,2.31-.8,3.32-1.79,2.86-4.31-.89-4.93,2.71-7.5,6.16-8.98,6.74-2.89,13.22-6.45,20.36-8.38,1.97-.53,3.94-.97,5.95-.96,4.8.01,8.98-2.9,13.95-2.5,7.19.58,14.17,1.6,20.55,5.18,2.3,1.29,4.47,2.43,7.37,1.47,4.77-1.58,8.49,1.15,11.78,4,4.26,3.68,7.95,7.94,9.88,13.42.4,1.15,1.44,1.13,2.33,1.4,6.61,1.98,7.97,4.5,7.94,11.46-.01,2.7-.04,5.72,1.56,8.48,1.98,3.4,3.6,7.02.61,11.08-.98,1.32-.49,3.73-.67,5.65-3.96,3.69-8.86,4.13-13.95,4.45-3.67.23-7.23-.17-10.84-.48-.86-.07-1.83-.26-2.49.31-2.46,2.11-4.98,1.2-7.53.32Z"/>
      <path class="cls-47" d="m53.47,906.61c3.13.96,5.46,3.3,8.3,4.76,0,1.53-1.22,2.2-2.21,2.92-3.66,2.66-6.1,6.23-8,10.25-.57,1.21-1.07,2.44,0,3.58,1.17,1.26,2.72,1.33,4.15.66,2.24-1.03,4.32-2.38,6.17-4.01,3.44-3.04,7.35-5.52,10.45-8.96,1.25-1.38,2.31-.62,3.21.45,2.09,2.49,4.66,4.39,7.23,6.33,2.42,1.82,4.85,3.52,8.01,3.72.8.05,1.37.55,1.77,1.24-1.24,2.49.6,4.81.24,7.44-1.08,7.87-.47,15.87-.93,23.81-.25,4.26.1,8.79.47,13.19.53,6.39,3.56,12.09,4.47,18.26.89,6.01.83,12.13-1.81,18.02-2.87,6.39-7.69,8.73-14.4,9.72-6.37.95-12.74,2.08-19.15,2.86-.73.09-1.48-.04-2.23-.07-12.98-2.24-21.32-10.03-26.05-22.04-.47-1.19-1.39-2.17-1.61-3.46-.32-1.99.88-3.27,2.19-4.39,3.14-2.7,5.17-6.11,7.31-9.64,4.9-8.06,11.92-13.3,21.8-14.01,5.8-.42,11.23.42,16.48,2.93,3.09,1.48,5.3,3.97,7.84,6.1.56.47.91,1.22,2.08,1.28.36-1.56-.44-2.72-1.2-3.96-3.44-5.68-8.97-7.92-15.03-9.33-4.39-1.03-8.79-1.59-13.31-.74-5.42,1.01-10,3.62-14.29,6.94-5.29,4.1-8.3,9.67-10.56,15.78-1.07,2.89-1.99,3.17-4.24,1.4.18-4.1-.71-8.23,1.05-12.3.91-2.1-.65-4.51-.35-6.89.22-1.7.18-3.39,1.11-4.93,1.43-2.38.62-5.17,1.2-7.77.89-4.04,2.39-7.9,3.07-12.01.47-2.87.87-5.89,2.37-8.62.9-1.64.07-3.57-.8-5.21-1.07-2.02-1.67-4.16-1.75-6.45-.04-1.36.16-2.72,1.69-3.1,5.7-1.41,8.65-6.05,12.13-10.12,1.03-1.21,1.66-2.77,3.13-3.6Z"/>
      <path class="cls-10" d="m192.52,439.06c.23.22.7.54.65.65-2.32,5.71-1.41,11.81-1.81,17.69-.42,6.09-.49,12.26-.67,18.38-.17,5.52-.31,11.12-.86,16.65-.54,5.3-4.45,8.07-8.66,10.34-1,.54-1.43.9-1.55,2.01-.92,8.57-2.23,17.12-2.72,25.72-.21,3.79-1.09,7.4-1.52,11.11-.2,1.7.06,1.9,1.6,1.33,3.15-1.16,4.96-3.98,7.45-5.94,4.84-3.8,9.37-7.98,14.12-11.88.95-.78,2.29-1.14,3.49-1.54.57-.19,1.35-.19,1.78.41.44.62-.1,1.16-.29,1.76-.99,3.23-1.59,6.51-1.53,9.93.04,2.33-.27,4.67-.56,6.99-1.15,9.16-2.52,18.31-3.42,27.49-.28,2.87-1.13,5.59-1.44,8.36-.45,4.09-.72,8.2-1.75,12.18-.92,3.54-1.24,7.24-1.54,10.76-.38,4.52-2.77,8.57-2.37,13.16.29,3.35-1.4,6.38-1.83,9.65-1.25,9.6-2.5,19.23-4.45,28.7-1.21,5.86-1.42,11.8-2.54,17.73-.45-.49-.85-.92-1.25-1.35-.8-6.29-1.48-12.6-2.43-18.87-.82-5.46-1.03-10.96-1.7-16.42-.74-6.12-1.74-12.2-2.53-18.31-.26-2.02.02-4.13-.38-6.1-.46-2.24-1.21-4.88-1.27-6.7-.1-3.07-1.1-5.97-1.07-9,.02-2.49-.5-4.9-1.47-7.21-.66-2-.69-3.94.58-5.75.62-2.54-2.06-4.53-1.23-7.05,1.36-4.13-.76-8.46.91-12.62.43-1.08.23-3.15-.83-3.79-1.15-.7-2.21.81-3.17,1.64-2.74,2.38-5.59,4.61-8.04,7.32-1.32,1.46-3.42,2.59-5.08.83-1.59-1.69-.18-3.36,1.25-4.65,4.74-4.27,9.28-8.78,14.43-12.57.85-.62,1.66-1.16,1.55-2.18-1.02-9.79,1.51-19.32,2.46-28.93.89-9.01,1.16-18.1,2.44-27.04.8-5.59.41-11.2,1.48-16.83,1.15-6.06.17-12.52.12-18.81-.04-4.68-.7-9.41.96-13.98.4-1.09-.5-1.79-.77-2.67,5.09-1.61,10.27-1.17,15.44-.59Z"/>
      <path class="cls-6" d="m282.77,503.31c-1.26-4.18-1.64-8.28-1.36-12.78.21-3.45-1.38-7.38-1.93-11.11-.83-5.72-3.02-11.06-4.4-16.6-1.14-4.57-3.15-9.3-5.7-13.54-1.34-2.22-1.48-4.82-2.68-7.11-2.99-5.74-5.67-11.64-8.43-17.5-.21-.45-.12-1.05-.16-1.58-.62-3.72,1.62-6.84,2.13-10.32,1.46-4.58,4.67-8.11,7.55-11.72,3.27-4.08,3.24-8.1,1.37-12.5-.63-1.49-1.17-2.97-.98-4.63.43-1.19.78-2.47,2.41-2.5,8.17,4.2,16.86,7.23,25.16,11.1,6.54,3.05,13.47,5.37,19.4,9.74.56-1.18-.07-2.58,1.19-3.29.85,5.46,2.41,11.33.71,16.37-2.09,6.22-3.14,12.74-5.63,18.8-3.01,7.33-5.6,14.81-8.29,22.26-2.25,6.24-5.08,12.28-7.79,18.35-3.74,8.34-7.51,16.67-10.8,25.21-.45,1.17-1.18,2.23-1.78,3.35Z"/>
      <path class="cls-47" d="m249.14,1004.98c.87.88,2.17,1.28,2.75,2.48-2.37,2.36-5.89,2.09-8.62,3.8-2.58,1.61-4.88,3.41-6.66,5.84-.47.65-1.15,1.53-.25,2.27.9.74,1.95.33,2.56-.45,1.56-2.04,3.77-3.03,5.9-4.27,3.73-2.17,8.16-1.47,11.96-3.22.47-.22,1.03.15,1.38.6.87.84,1.74,1.69,2.61,2.53-.39,2.07-2.25.84-3.35,1.45-7.56,4.17-14.09,9.26-19.13,16.54-4.52,6.52-6.48,13.81-8.63,21.15-.3,1.04-.19,2.12-.22,3.19-.11,3.65-.28,3.79-4.04,3.95-4.31-.64-8.04-3-12.21-4.2-5.12-1.48-10.2-3.47-15.12-5.68-.81-.36-1.42-.94-1.66-1.84-.52-3.62.02-7.26-.54-10.92-1.51-9.84-4.71-19.04-10.65-26.97-4.84-6.47-10.75-9.35-19.68-7.69-1.73.32-3.48,1.36-5.23.05.72-1.93.94-4.27,1.94-5.79,2.28-3.46-.03-6.06-.78-8.91-1.71-6.45-1.31-7.9,4.06-11.49,1.18-.79,2.5-1.38,3.76-2.07,2.32-.04,3.46,1.8,4.8,3.19.96.99,1.87,1.97,3.1,2.62,1.77.96,3.18,2.5,5.11,3.21,2.01,1.36,4.34.82,6.53,1.09,1.78.24,3.52.78,5.33.77.8-.26,1.01-1.22,1.8-1.5,1.57,1.7,3.19,2.58,5.74,1.72,1.45-.49,3.18.98,4.93.54,1.34.03,2.47.64,3.56,1.34,3.12,2.02,6.48,1.95,9.87.97,1.24-.36,2.47-.68,3.74-.82,2.87-.32,4.93-1.97,6.55-4.2.98-1.36,1.96-1.96,3.37-.63.88,2.41-.89,4.66-.43,7.05,1.52.71,1.42,1.6.27,2.57-.86.73-1.97.86-3.02.99-4.05.53-6.81,3.48-10.14,5.36-.88.49-1.09,1.56-1.34,2.5-.24.88-.31,1.75.69,2.21.82.39,1.39-.12,1.97-.65,4.66-4.24,9.74-7.27,16.42-5.58,1.25.32,2.09-1.1,3.34-.89,1.01.25,1.51,1.03,1.96,1.87,1.36,1,1.15,1.91-.17,2.72-.75.47-1.6.62-2.47.59-5.56-.21-9.24,3.26-12.96,6.62-.69.62-1,1.47-.36,2.29.71.92,1.52.44,2.27-.01.73-.45,1.32-1.1,2.03-1.57,3.71-2.46,7.54-4.55,12.25-3.39,1.93.48,3.3-1.26,5.1-1.31Z"/>
      <path class="cls-17" d="m74.53,195.02c-6.31,2.43-11.54,6.87-17.61,9.7-7.46,3.47-13.39,9.12-20.23,13.46-.77.49-1.46,1.14-1.58,1.91-1.07,6.66-3.83,12.85-5.32,19.42-.92,4.07-1.45,8.24-2.36,12.31-.84,3.76-1.74,7.7-1.75,11.67-.72.37-.98-.16-1.26-.64-1.62-3.88-1.1-8-1.3-12.03-.44-9.08-.88-18.18-.48-27.27.15-3.35.03-6.76,1.84-9.9,1.53-2.65.88-6.19,3.45-8.58.88-.82,1.46-2.05,2.58-2.69,3.34-1.93,5.91-4.86,7.97-7.86,3.51-5.11,7.4-9.83,11.49-14.43.93-.81,1.83-1.64,2.74-2.46,1.87-3.95,5.53-6.2,8.84-8.52,4.77-3.35,9.86-6.41,15.55-8.06,2.67-.77,5.15-2.09,7.95-2.5,1.94-.28,2.92-1.48,3.23-3.63,1-6.85,2.58-13.58,4.65-20.19,1.04-3.32,7.7-7.54,11.09-7.73,3.67-.21,7.25.35,10.87.41,3.14.05,5.5,1.13,7.21,4.03,4.16,7.06,7.7,14.4,10.96,21.9.45,1.03.98,2.18,2.27,2.56.37.82.93,1.29,1.89,1.07,1.6,1.94,1.15,3.56-.78,4.94-2.74,1.99-4.47,4.77-5.93,7.75-1.19,2.75-2.41,5.48-5.8,6.15-2.23.68-4.1,2.16-6.31,2.88-1.46-.24-2.11-1.42-2.76-2.51-1.41-2.38-3.44-2.95-6.03-2.56-7.62,1.13-15.13,2.56-21.98,6.35-2.17,1.2-4.71,1.4-6.97,2.42-4.32,1.96-5.61,4.41-4.6,9.14.16.73.48,1.43.33,2.21-.2,1.04-1.1,1.05-1.86,1.28Z"/>
      <path class="cls-17" d="m192.52,439.06c-5.13.79-10.31.1-15.44.59-9.83-.64-19.46-2.51-29.13-4.36-5.28-1.01-10.68-1.57-15.93-2.86-5.12.03-9.84-1.8-14.61-3.25-8.41-2.55-16.45-6.1-24.44-9.75-1.37-.62-2.66-1.41-3.75-2.46-2.87-2.73-4.63-2.39-6.13,1.38-1.93,4.85-4.87,9.02-8.23,12.95-2.58,5.11-5.17,10.21-7.75,15.32-2.88.58-5.18-1.8-8.07-1.52-3.55.35-6.48-2.35-10.04-2.36-1.56,0-6.29-5.22-6.65-7.12-.63-3.4-1.18-6.81-1.77-10.21,3.71-.45,7.21-1.48,10.3-3.66,3.02-2.8,6.39-5.16,9.45-7.91,2.17-.91,3.06-3.08,4.5-4.69,2.86-3.19,5.42-6.66,9.08-9.05,2.73-1.78,2.21-5.01,2.92-7.54,1.66-5.89,4-11.51,5.98-17.26,2.17-6.3,4.48-12.56,6.76-18.82.25-.68.74-1.27,1.12-1.9,1.42,1.84,2.55,3.79,2.47,6.22-.81,2.2-1.76,4.35-1.53,6.82.18,1.85-1.37,3.08-1.97,4.66-4.13,10.77-7.55,21.81-12.09,32.44-.25.59-.42,1.22-.55,1.85-.28,1.33-.31,2.71,1.04,3.41,1.56.82,2.31-.55,3.05-1.57,1.97-2.72,4.53-5.07,4.59-8.9.02-1.25,1.35-2.38,2.81-2.82,3.83,1.13,5.92,4.48,8.52,7.03,4.64,4.56,9.46,8.67,15.74,10.76,1.69.56,3.07,1.55,3.9,3.17.61,1.2,1.56,2.03,2.67,2.71,1.19.91,2.69,1.2,3.93,2,1.38.92,2.87,1.56,4.51,1.85,6.41,1.53,12.57,3.99,19.07,5.2,3.98.74,7.98,1.14,12.03,1.18,1.69.02,3.4.21,5.07.62,4.24.29,8.41-.31,12.55-1.15,2.67-.16,5.08,1.27,7.72,1.29,2.18.68,4.32.66,6.6.23,3.86-.73,7.86-.3,11.73-1.12,5.02-.25,9.95-1.18,14.88-2.11.42-.15.86-.19,1.3-.14,1.47.57,2.74-.2,4.05-.66,2.24-1.52,4.96-.97,7.38-1.72,5.33-1.66,10.14-4.43,15.06-6.98,2.19-1.13,4.25-3.58,7.23-1.79,1.25,2.98.07,4.79-2.65,6.16-7.55,3.82-15.65,5.95-23.75,8.2-2.02.56-4.17,1.13-6.2,2.1-2.44,1.16-5.27,2.06-8,2.45-2.49.35-4.8,2.64-7.71.71-.94-.62-2.16,1.29-3.55,1.68-2.68.75-5.46-.33-8.07.7Z"/>
      <path class="cls-47" d="m265.26,1017.05c4.66.04,9.39-.28,13.65,2.2,1.93,1.12,4.17,1.12,6.16,2.48,5.86,4.01,9.57,11.81,8.43,19.02-.12.74-.45,1.52-.32,2.2.91,4.73-.36,9.06-2.03,13.41-.71,1.87-1.55,3.41-3.15,4.64-1.25.96-2.31,2.15-3.46,3.24-4.38,1.86-8.51,4.62-13.36,4.94-2.96.19-5.61,1.59-8.61,1.51-3.29-.09-6.57.52-9.88.63-2.15.07-4-.78-5.83-1.55-4.56-1.93-9.67-2.66-13.57-6.07-1.15-8.36,1.09-16.05,4.77-23.41,3.04-6.08,7.37-11.06,12.62-15.46,4.4-3.69,9.48-5.66,14.6-7.77Z"/>
      <path class="cls-27" d="m148.76,173.19c4.45,1.78,9.07,2.89,13.79,3.68,5.19.86,10.41,1.39,15.66,1.73,1.56.1,2.22-1.14,3.31-1.68,3.6-1.77,7.59-2.61,10.98-4.89,3.8-2.55,7.95-4.46,11.32-7.83,1.7-1.7,3.9-3.32,6.03-4.72,3.1-2.04,5.49-4.89,8.53-6.97.28-.19.79-.05,1.19-.06.22,3.11-2.48,5.15-2.95,8.15-.24,1.51-.66,3.14-.94,4.73-.95,1.7-1.71,3.02-.44,5.33,1.24,2.25-1.71,4.08-3.02,5.75-3.3,4.23-6.77,8.32-9.55,12.93-1.03,1.7-2.46,2.93-4.14,4.04-3.99,2.64-8.25,4.9-11.83,8.15-.75,1.52-.75,3.51-2.66,4.32-2.75.39-5.53.25-8.3.32-2.23.05-3.69-1.27-5.04-2.96-6.6-8.27-12.99-16.69-19.32-25.16-.58-.77-1.16-1.53-1.91-2.16-.83-.7-1.62-1.5-.72-2.71Z"/>
      <path class="cls-27" d="m316.36,398.97c-.3,4.24-.35,4.34-4.22,2.16-5.49-3.09-11.27-5.66-16.99-8.16-7.76-3.39-15.66-6.5-23.39-10.02-.77-.35-1.27-.7-1.43-1.51.49-3.92,3.83-6.25,5.37-9.63,1.5-3.3,3.83-6.24,2.22-10.19-.31-.76.07-1.47.88-1.83,4.76-.54,9.57-.43,14.32-.4,4.61.02,7.75-2.53,11.41-4.28.72-1.24,2.16-1.72,2.84-3.2.81-1.74,2.43-1.56,3.61.09.7,4.89,1.59,9.77,2.04,14.68.5,5.49,1.93,10.92,2.08,16.35.12,4.38,1.12,8.79.32,13.17-.23,1.28.95,1.76.94,2.77Z"/>
      <path class="cls-10" d="m214.92,66.75c3.72.95,6.95-1.79,10.62-1.38,5.85.65,11.68.81,17.48-.55,1.89-.44,3.74-.83,5.02-2.45.5-.63,1.07-.55,1.69-.22-.31,5.6-.78,11.21-.82,16.81-.01,1.64-1.08,2.7-1.15,4.16,1.28,3.53.66,4.55-2.8,3.96-2.88-.49-4.64.71-6.18,2.9-5.31,7.56-9.51,15.61-11.38,24.76-.28,1.35-.53,2.76-1.93,3.52-2.29,1.39-3.59.91-4.04-1.4-.77-3.99-.95-8.03-.39-12.01.83-5.99.7-12.2-.52-17.77-1.27-5.76-2.48-11.86-5.19-17.3-.55-1.11-.33-2.02-.39-3.03Z"/>
      <path class="cls-58" d="m194.44,986.82c-1.98.22-3.88-.29-5.79-.67-.88-.79-.99-1.81-.97-2.93.18-8.35.29-16.7.25-25.05-.05-10.27-.05-20.54-.1-30.81,0-1.42-.66-2.42-1.25-3.53,2.19-2.09,4.72-.67,6.95-.39,9.84,1.21,19.62,2.85,29.46,4.1,2.26.29,4.67.97,6.77-.73.32-.18.61-.14.88.1.97,2.52-.85,4.66-1.11,7.04-.42,3.86-2.02,7.58-2.24,11.55-.31,3.35-1.36,3.91-4.22,2.31-1.11-.63-1.99-1.65-3.73-2.12-.96,3.35-.48,6.72-.41,10.05.07,3,.35,6-1.25,8.76-2.22.78-4.41,3.36-6.68.1,1.17-2.74,1.28-5.71.98-8.53-.47-4.42.01-8.77.19-13.14.11-2.65-1.86-3.48-3.36-4.64-.93-.73-1.64.52-1.61,1.32.13,4.07-.8,8.07-.76,12.13.03,3.27.35,6.58-1.22,9.65-1.8.54-3.59,1.21-5.5.48-.58-6.73.11-13.43.65-20.11.82-10.13.23-10-6.53-13.14-.25,2.54.12,4.97.15,7.4.2,16.19.79,32.38.71,48.58,0,.76-.06,1.5-.26,2.23Z"/>
      <path class="cls-47" d="m161.02,1034.32c-3.5-5.14-4.63-10.96-3.62-16.89.45-2.63-.11-5.8,2.19-8.02.35-1.32,1.38-1.84,2.54-2.19,6.73-2.04,13.42-1.45,18.23,3.6,3.22,3.38,5.83,7.82,7.43,12.53,1.64,4.86,3.34,9.69,4.39,14.73.51,2.45.44,4.88.29,7.35-.13,2.05-.96,2.97-3.03,2.65-5.74-1.95-11.53-3.74-17.28-5.68-3.44-1.16-6.06-3.53-9.05-5.34-.94-.57-1.88-1.46-2.09-2.74Z"/>
      <path class="cls-17" d="m161.02,1034.32c5.27,5.39,12.24,7.71,19.06,10.06,3.06,1.05,6.28,1.7,9.26,3.07,2.56.65,5.51-.21,7.68,1.96,3.41,1.87,7.34,2.55,10.72,4.2,3.99,1.94,8.62,2.03,12.21,4.78,1.61,1.23,4.03.22,5.44,1.99,1.41.86,3.03.88,4.59,1.11,1.56.23,2.84.81,3.72,2.16,4.96,2.65,10.4,4.08,15.54,6.28,1.77.76,3.64.93,5.45.66,3.46-.52,6.93-.71,10.42-.75.21,0,.46,0,.62-.11,2.4-1.54,5.36-.77,7.72-1.64,2.95-1.08,6.31-1.61,8.73-3.99.79-.77,1.59-.19,2.37.13-3.53,4.02-7.75,7.17-12.69,9.17-4.73,1.92-9.67,2.94-14.85,2.97-4.34.02-8.79,1.03-12.97-.44-4.61-1.62-9.37-2.85-13.8-5.08-1.95-.99-4.46-1.24-6.55-1.91-2.46-.8-4.96-1.96-7.36-3.08-2.06-.95-4.18-1.75-6.26-2.64-4.88-2.08-9.77-4.16-14.76-5.92-6.59-2.32-12.95-5.24-19.61-7.4-3.43-1.11-6.63-2.8-10.22-3.64-4.94-1.16-7.4-8.27-4.44-11.94Z"/>
      <path class="cls-48" d="m32.08,995.22c2.45,3.53,2.9,8.04,5.9,11.37,5.8,6.41,11.89,12.24,20.91,13.66.13.02.21.35.32.54-6.81,1.86-12.22-.54-17.36-5.01-5.09-4.43-9.82-9.13-13.85-14.52-.75-1-1.02-2.48-1.21-3.78-.73-5.18-1.68-10.26-1.47-15.62.2-4.98.65-10.05.1-15.05-.23-2.03.44-3.86.69-5.76.71-5.26.7-10.71,2.93-15.64.49-1.08-.11-1.79-.11-2.59,0-3.62,1.89-6.64,2.85-9.9.9-3.03.35-5.67-.04-8.55-1.11-8.32-1.87-16.68.27-24.96.5-1.92,1.47-3.79,3.24-5,1.36-.42,2.24.06,2.66,1.41.42,1.13,1.8.42,2.38,1.24-2.81,6.06-2.75,12.6-3.12,19.07.67,2.48-.68,4.98.07,7.46,0,3.45,2.32,6.18,2.94,9.45.15.76.42,1.47.02,2.16-2.81,4.8-2.32,10.55-4.38,15.45-1.03,2.44-1.89,5.36-1.89,7.34,0,4.74-2.75,8.98-1.99,13.56.91,5.44-1.46,10.55-.98,15.89.48,1.01.54,2.03.13,3.08-.7,1.78-.66,3.42.98,4.72Z"/>
      <path class="cls-6" d="m225.47,118.27c1.38-4.78,2.75-9.55,3.95-14.38.69-2.76,2.87-5.15,4.42-7.68,1.57-2.54,3.07-5.14,4.82-7.55,1.36-1.86,3.13-3.05,5.77-2.51,3.71.76,3.76.6,3.32-3.03,4.58,3.83,5.65,9.32,6.29,14.69.71,6.04.65,12.21-1.64,18.03-2.91,7.4-8.36,11.96-16.06,13.83-.46.11-1.03-.1-1.52-.24-1.76-.49-2.79-.04-2.91,1.97-.09,1.52-.65,2.9-1.85,3.93-2.98,2.55-3.03,6.6-4.96,9.73-.88,1.42-2.29,2.16-3.12,3.51-2.32-1.59-1.44-4.12-.81-5.7,1.75-4.35,2.11-8.91,2.86-13.41.54-3.26.71-6.59,2.09-9.64.44-.98.3-1.35-.66-1.56Z"/>
      <path class="cls-10" d="m37.93,895.81c-.89-.47-1.77-.94-2.66-1.41-1.76-3.75-6.01-4.69-8.57-7.73-3.67-4.35-6.18-7.87-4.85-14.47,1.2-5.99,2.19-12.2,3.57-18.17,1.21-5.23,2.78-10.51,4.69-15.63.98-2.63,2.29-5.38,2.09-8.38,2.38.08,3.03,1.27,2.74,3.59-.26,2.17-.42,4.44.64,6.54.56,1.11.48,2.31.39,3.47-.54,6.8.91,13.51.99,20.27.07,6.09,1.22,12.16.44,18.26-.05.42-.18.92-.02,1.26,1.9,4.07.17,8.28.55,12.41Z"/>
      <path class="cls-57" d="m233.72,983.61c-.94-.06-1.86-.85-2.53.82-1.02,2.53-3.29,4.09-5.85,4.67-6.2,1.42-12.54,3.41-18.24-1.58-.21-.18-.62-.13-.93-.18-5.33-3.1-9.14-7.45-11-13.41-.57-1.6-.47-3.16.31-4.67,4.03-3.64,5.31-3.76,9.94-1.16,2.37,1.33,4.4,3.03,6.23,5.03,2.6,2.84,5.54,5.26,9.27,7.54-.68-6.01,1.08-11.18,2.76-16.36.76-1.87,1.75-3.56,3.55-4.63,4.38-1.77,6.35-.69,7.45,3.86,1.54,6.41.36,12.64-1.03,18.88-.08.37.05.79.08,1.18Z"/>
      <path class="cls-40" d="m177.03,981.82c-3.17-1.46-4.7-4.87-7.74-6.48,1.56-3.91.28-7.98.61-11.97.7-8.5-.31-17.03.5-25.57.51-5.33-.07-10.76.85-16.11,2.29-1.62,4.52-.26,6.76.12,2.11,2.71,1.38,5.98,1.39,8.94.03,8.04-.17,16.1-.72,24.11-.56,8.14-.31,16.27-.66,24.39-.04.99-.07,1.94-1,2.56Z"/>
      <path class="cls-58" d="m22.45,289.27c2.08.47,1.3,2.49,1.64,3.65,2.66,9.02,5.05,18.12,7.44,27.21,1.12,4.27-2.08,7.65-6.44,6.94-2.64-.43-5.11-1.12-7.26-2.94-2.03-1.72-4.35-3.06-6.93-3.87-.61-2.48,1.33-4.21,2.08-6.21,2.57-6.82,4.81-13.8,8.23-20.26.78-1.48,0-3.25,1.23-4.52Z"/>
      <path class="cls-5" d="m92.55,927.55c-7.61-1-12.91-5.74-17.81-11.09-.87-.95-1.13-1.01-2.11,0-4.72,4.89-10.02,9.08-15.77,12.7-1.12.71-2.34,1.04-3.67.83-2.88-.45-3.92-2.41-2.71-5.08,2.5-5.57,6.3-10.05,11.29-13.54,1.6.05,3.24.03,4.02,1.86.5,1.08-.22,1.63-.98,2.05-2.12,1.18-3.58,3.02-4.84,4.73,3.12-1.32,4.72-5.07,8.3-6.18,5.19.43,10.22-.43,15.18-1.84,3.71.87,6.4,3.37,9.16,5.76,3.1,3.28,2.71,6.54-.06,9.79Z"/>
      <path class="cls-24" d="m197.01,1049.42c-2.56-.65-5.12-1.31-7.68-1.96,1.22-.06,2.03.24,2.24-1.9.67-6.57-1.42-12.44-3.38-18.45-1.47-4.5-3.91-8.38-6.26-12.42-1.64-2.82-3.37-4.56-5.97-5.85-5.54-2.73-11.02-2.48-16.37.58-.94-2.09.22-3.91.72-5.82,4.5-.52,8.91-1.99,13.54-1.05.69.14,1.54.07,2.13.42,3.96,2.35,7.94,4.51,10.65,8.6,4.49,6.77,7.31,14.15,9.28,21.96,1.32,5.24,1.29,10.56,1.1,15.9Z"/>
      <path class="cls-11" d="m233.68,1063.65c-1.79-.94-3.67-1.58-5.7-1.71-1.12-.07-2.05-.51-2.6-1.56,2.65-.08,3.47-1.11,3.36-4.03-.12-3.39,1.06-6.73,2.34-10.05,1.21-3.16,1.94-6.45,3.67-9.49,3.12-5.46,6.83-10.29,11.59-14.48,3.36-2.96,7.41-4.65,10.92-7.23,1.29-.94,2.53.59,3.52-.55,1.7.45,2.22,3.04,4.48,2.49.2.07.48.08.59.22.33.43-.11.42-.35.51-3.38,1.36-6.8,2.64-10.14,4.12-1.86.82-2.93,2.7-4.54,3.95-7.01,5.46-11.77,12.56-14.69,21.04-1.89,5.49-2.44,11.05-2.44,16.74Z"/>
      <path class="cls-58" d="m210.77,916.52l.1-.02c6.16.39,12.29.97,18.42,1.71.84.1,1.71.07,2.41.67.02,2.42-1.06,4.81-.16,7.26.05.13-.58.51-.89.77,0,0-.24-.19-.24-.19-4.23-1.71-8.78-1.74-13.2-2.26-11.24-1.34-22.31-3.62-33.48-5.4-1.87-.3-4.24.56-5.37-1.91.03-1.71-.64-2.98-2.44-3.2-1.17-.14-1.89-.93-2.82-1.43.91-2.07,2.56-.95,3.85-.77,5.71.79,11.49,1.22,17.12,2.3,5.55,1.06,11.27.76,16.69,2.46Z"/>
      <path class="cls-41" d="m178.36,917.15c2.08,1.69,4.68.94,7,1.32,10.69,1.77,21.3,4.01,32.1,5.08,3.69.36,7.35.92,11.04,1.32,1.19.13,1.61.88,1.9,1.85-1,4.25-4.43,2-6.35,1.81-7.12-.7-14.25-1.68-21.32-2.79-5.33-.83-10.64-1.65-16.01-2.1-.83.81-1.83.68-2.83.51-1.65-1.24-4.02-.27-5.58-1.8-2.36-.23-4.72-.45-7.08-.68-.13-.61-.32-1.22-.37-1.83-.25-2.91,1.65-4.33,4.45-2.99,1.14.54,1.98.58,3.03.29Z"/>
      <path class="cls-34" d="m126.84,61.51c.93-1.22.98-2.71,1.25-4.13.14-.73,0-1.68.86-1.85.91-.18,1.03.88,1.45,1.44,1.64,2.18,3.27,4.36,4.9,6.54-1.32,8.25-1.91,16.62-4.13,24.71-.51,1.85.1,3.88-1.05,5.58-2.25-.57-2.53-2.73-2.69-4.3-.93-9.3-1.58-18.63-.59-27.98Z"/>
      <path class="cls-21" d="m210.77,916.52c-5.19-.04-10.27-.7-15.41-1.64-3.57-.66-7.31-1.25-10.95-1.35-3.82-.1-7.47-1.63-11.31-1-2.79-1.08-2.83-2.87-1.31-5.07-.47-.93-.08-1.6.84-1.48,4.1.58,8.29.76,12.18,2.41,7.01,1.04,13.61,3.56,20.23,5.89,1.88.66,4.59-.38,5.72,2.23Z"/>
      <path class="cls-40" d="m227.22,959.69c-1.05,1.52-2.09,3.03-3.14,4.55-2.14-.19-4.29.35-6.43-.04.77-4.89.47-9.79.17-14.7-.08-1.35.2-2.75.53-4.08.4-1.62,1.67-.54,2.32-.36.83.23,1.49,1.08,2.21,1.68,2.09,1.78,3.66,1.73,4.41-1.24.29.67.98,1.45.48,2.08-2.14,2.72-.42,6.25-2.04,9.14-.48.85-.21,2.57,1.48,2.97Z"/>
      <path class="cls-50" d="m241.48,997.17c-1.36,1.76-2.64,2.09-5.05,1.27-3.61-1.22-6.96,1.03-10.17,2.65-1.62.82-3.28,1.62-4.15,3.44-.78,1.62-2.18,1.17-3.27.52-1.04-.63-1.54-1.57-.76-2.98,2.92-5.31,7.82-7.52,13.35-8.76,2.25-.51,2.53-.84,1.54-2.2-.05-.06-.01-.23.04-.31.05-.08.18-.1.28-.15,2.68,2.23,7.15,2.21,8.19,6.51Z"/>
      <path class="cls-55" d="m249.14,1004.98c-1.12,2.16-3.5,2.69-5.16,2.18-4.98-1.54-8.44,1.29-12.19,3.45-.73.42-1.28,1.11-1.98,1.59-.93.65-1.99,1.72-2.93.14-.68-1.13-1.37-2.18-.02-3.68,2.67-2.96,6.13-4.66,9.44-6.62,1.4-.83,3.06-.47,4.64-.49,1.38-.02,3.65.29,2.5-2.51,2.75,1.16,4.38,3.4,5.7,5.94Z"/>
      <path class="cls-50" d="m258.17,1012.03c-5.41,1.49-11.27,1.54-16.06,5-.84.6-1.51,1.31-2.1,2.27-.97,1.57-2.75,2.07-4.46,1.02-1.94-1.19-.42-2.64.25-3.53,3.18-4.2,7.22-7.21,12.55-8.23,1.21-.23,2.37-.73,3.55-1.1,2.31,1.22,4.72,2.31,6.28,4.57Z"/>
      <path class="cls-45" d="m231.69,918.88c-3.17.46-6.24-.35-9.35-.7-3.27-.38-6.56-.67-9.85-.88-.74-.05-1.13-.45-1.63-.8,2.51-1.41,5.49-.69,7.89-.54,3.46.22,6.12-1.84,9.31-1.71.96-.21,1.93-.15,2.85.12,2.11.61,2.6,1.72.9,3.39-.04.38-.09.75-.13,1.13Z"/>
      <path class="cls-3" d="m92.61,917.76c-3.52-1.18-5.96-4.07-9.16-5.76,2.51.05,4.31-1.75,6.52-2.51.86-.29,1.6-.81,2.48-.19.05,2.82.1,5.63.16,8.45Z"/>
      <path class="cls-4" d="m184.82,908.4c-3.55-.5-7.08-1.06-10.64-1.46-.75-.09-1.91-1.04-2.38.52-.61-.13-2.11-.1-1.35-.88,1.94-1.99.41-3.7.14-5.53,3.85,2.01,7.61,4.24,11.74,5.65,1.04.35,2.01.6,2.48,1.69Z"/>
      <path class="cls-52" d="m24.41,262.84c.42.21.84.43,1.26.64,0,2.28,0,4.57,0,6.85-.27.05-.54.11-.81.16-.78-1.29-1.56-2.59-2.34-3.88-.06-1.6,1.25-2.52,1.89-3.77Z"/>
      <path class="cls-58" d="m231.83,917.75c.86-1.39,1.15-2.52-1.06-2.79-.91-.11-1.8-.47-2.7-.72,1.6-1.4,3.54-1.76,5.58-1.81-1.31,1.53.88,4.27-1.82,5.32Z"/>
      <path class="cls-54" d="m170.59,580.99c-.38,1.9.24,3.9-.58,5.75-.46-.01-.92-.03-1.38-.04.02-1.28-.07-2.57.09-3.83.13-.98.26-2.25,1.87-1.87Z"/>
      <path class="cls-36" d="m52.71,177.63c-.57,1.2-.89,2.69-2.74,2.46-.21-2.07,1.43-2.08,2.74-2.46Z"/>
      <path class="cls-10" d="m74.86,431.31c3.53-6.03,7.07-12.07,10.62-18.13,1.89.74,3.42,2.13,5,3.7,2.59,2.57,6.35,3.42,9.6,4.94,5.69,2.67,11.65,4.79,17.72,6.51,4.74,1.34,9.48,2.73,14.22,4.09-2.39,1.5-2.54,3.52-2.3,6.25.44,4.94-.18,9.96.16,14.92.52,7.52-1.11,14.87-1.44,22.32-.35,7.92-1.01,15.9-1.98,23.83-.79,6.38-1.01,12.88-1.53,19.33-.75,9.29-1.32,18.6-1.9,27.9-.68,10.96-1.38,21.93-2.68,32.84-.72,6.02-1.07,12.08-1.6,18.1-.79,8.8-2.25,17.56-2.64,26.36-.54,12.04-2.56,23.91-3.52,35.89-.4,4.98-1.09,9.96-1.76,14.92-.6,4.42-.97,8.96-1.01,13.5-.02,2.55-.26,5.25-.8,7.77-1.03,4.88-.7,9.87-1.53,14.74-.71,4.19-1.75,8.36-1.27,12.64,1,8.92-1.55,17.54-2.2,26.33-.58,7.84-2.12,15.65-3.13,23.47-1.24,9.59-3.38,19.01-4.48,28.62-.97,8.45-2.94,16.79-4.67,25.13-.83,4-.66,8.1-1.5,12.05-1.37,6.38-1.45,12.98-3.43,19.24-.79,2.51-.43,5.1-1.02,7.69-1.69,7.44-2.29,15.1-3.62,22.64-1.26,7.14-2.75,14.23-4.22,21.32-.22,1.08-.28,2.39-1.74,2.18-1.35-.19-.95-1.55-.87-2.41.61-7.01,1.14-14.02,1.99-21,.89-7.33,2.27-14.59,3.13-21.92.79-6.74,2.14-13.39,2.97-20.11,1.11-8.88,3.14-17.6,4.1-26.49.61-5.61,2.38-10.99,3.24-16.54,1.32-8.57,2.71-17.13,4.27-25.67.54-2.98,1.05-6.06,1.36-9.09,1.06-10.41,2.97-20.72,3.46-31.2.48-10.19,1.74-20.3,3.53-30.37.98-5.52,1.11-11.22,1.34-16.86.5-11.97,2.11-23.82,3.18-35.73.59-6.47,1.44-12.93,1.85-19.44.53-8.34,1.25-16.72,2.22-25.03,1.12-9.63,2.02-19.28,2.77-28.93.6-7.75,1.37-15.48,2.03-23.22.4-4.65,1.19-9.3,1.14-13.95-.05-4.27.37-8.49.75-12.69.98-10.68,1.66-21.39,2.78-32.07.4-3.82.67-7.86.61-11.84-.05-3.43.79-7.14,1.01-10.76.83-13.22,1.88-26.43,1.89-39.7,0-2.75-1.12-3.6-3.62-3.59-6.34.02-12.66.55-19.01.06-3.71-.29-7.21-1.55-10.92-1.9-1.34-.13-2.69.01-4.03-.13-2.9-.3-5.86-.03-8.05-2.58-.58-.67-1.07.23-1.6.5-.97.48-1.4,1.97-2.84,1.55Z"/>
      <path class="cls-23" d="m36.76,915.8c-1.29-2.76-.11-5.59.21-8.24.33-2.67.15-5.45,1.07-8.11.46-1.36,1.51-1.62,2.27-2.4,2.64,2.5,6.25,3.79,8.48,6.8.32,3.59-2.06,6-4.11,8.28-1.28,1.42-3.06,2.59-4.7,3.77-.97.7-2.2,1.58-3.21-.1Z"/>
      <path class="cls-51" d="m36.76,915.8c.97.64,2.02.27,2.68-.29,3.88-3.25,7.89-6.45,9.34-11.67,1.56.93,3.62,1,4.68,2.77-3.74,5.83-7.17,12.06-14.4,14.22-1.78.53-1.77,1.45-1.8,2.73-.97-2.54-.88-5.14-.5-7.77Z"/>
      <path class="cls-44" d="m68.27,913.85c-2.99,2.63-5.3,6.18-9.66,7.33,1.35-3.84,4.67-5.51,7.18-7.93.85.09,1.78-.1,2.48.61Z"/>
      <path class="cls-58" d="m202.82,431.14c-5.62,1.19-11.33,1.39-17.04,1.49-.63.01-1.29.03-1.7-.61-2.2-2.7-3.09-5.9-3.13-9.28-.03-2.07-.43-4.02-.83-6.02-1.22-6.21-1.8-12.5-2.05-18.82-.02-.54-.04-1.07-.05-1.61-.01-1.18.12-2.76-1.43-2.77-1.6,0-1.42,1.67-1.42,2.77.03,7.09.46,14.16,1.71,21.16.11.63.29,1.26.32,1.91.03.82.46,1.89-.49,2.34-1.08.51-1.77-.44-2.38-1.18-5.2-6.28-10.65-12.36-15.58-18.86-1.75-2.31-3.61-4.53-5.63-7.1,1.16,3.2,2.68,5.75,4.52,8.12,6.18,7.95,11.77,16.35,18.24,24.08.78.93,2.28,1.98.7,3.49-2.12.52-3.1-1.16-4.24-2.34-4.91-5.09-9.44-10.52-14.17-15.77-7.6-8.43-15.08-17.04-24.06-24.07-3.33-2.61-6.76-5.33-10.93-6.66-3.2-1.02-3.9-.35-3.29,3.02.84,4.64,3.22,8.65,5.54,12.62,4.03,6.9,9.3,12.95,15.28,18.09,5.82,5,12.16,9.53,19.34,12.58,1.09.46,2.18.94,3.13,1.64.84.62,1.88,1.27.99,2.59-7.19-.76-14.5-.42-21.52-2.6-5.05-1.57-10.13-3.03-15.2-4.54-1.49-.77-2.95-1.63-4.66-1.85-1.08-.99-2.87-.61-3.78-1.94-4.73-6.37-7.97-13.61-11.5-20.62-3.19-6.33-6.17-12.81-9.04-19.31-.52-1.17-1.15-2.31-.86-3.68.65-2.97,2.74-5.25,3.98-7.95,3.03-6.6,5.82-13.35,9.6-19.59,1.14-1.88,1.49-4,2.27-5.99.38-.98.2-2.52,1.98-2.35,5.26,6.22,10.03,12.84,15.44,18.94,4.26,4.81,8.7,9.51,13.32,13.9,5.23,4.96,10.42,10.13,16.84,13.79,3.53,2.01,7.27,1.49,10.93,2,1.46.2,1.51-1.16,1.59-2.27,1.15-15.19,1.16-30.4,1.4-45.62.17-10.62-.45-21.26.06-31.85.62-13.1-.32-26.17-.03-39.26.11-4.98-.3-10.06-.88-15.06-.18-1.52-.27-3.01.85-4.27,4.75.31,6.98,2.47,7.04,6.81.05,7.69.31,15.38.22,23.08-.11,10.3-.11,20.61.27,30.89.3,8.25-.05,16.5.12,24.74.1,4.71.15,9.6-.68,14.41-.69,3.98.08,8.1-.06,12.18-.23,6.97-.57,13.92-1.15,20.86-.06.76-.05,1.5.05,2.25.47,3.37,1.04,3.81,4.12,2.45,9.43-4.15,18.32-9.28,26.68-15.33,3.38-2.45,6.92-4.73,10.49-6.86,6.82-4.06,12.04-9.72,16.5-16.02,4.46-6.29,9.59-12.15,13.01-19.16.33-.69.85-1.26,1.75-1.18,1.79,2.97.71,6.22.74,9.32.07,7.61-1.18,15.08-2.69,22.53-.93,4.6-.13,9.16,2.4,13.31,2.12,3.48,3.94,7.12,5.37,10.96.44,1.19,1,2.5,2.51,2.67,1.62.18,2-1.3,2.82-2.26,1.15-1.34,1.44-3.83,4.1-3.33.76,2.39,1.48,4.79,2.3,7.15.91,2.63.73,5.27-.69,7.5-2.97,4.66-6.24,9.13-9.39,13.67-2.75,1.02-5.12,2.52-6.49,5.25-.64-.19-.87-1.53-1.88-.66-2.33-.32-4.15.92-6,1.99-5.21,3.03-10.55,5.78-16.34,7.5-2.39.71-4.89,1.06-7.35,1.58-1.43-.74-2.45,1.25-3.86.58-.38.02-.76.03-1.14.05-2-.5-1.29-1.65-.39-2.42,4.56-3.91,8.45-8.5,12.9-12.52,2.55-2.3,4.5-5.17,6.81-7.7,3.16-3.46,6.32-6.99,8.7-11.12.81-1.4,1.69-2.75,2.05-4.35.18-.79.04-1.55-.82-1.87-.89-.33-1.44.22-1.77.95-3.88,8.72-11.45,14.37-17.73,21.04-5.43,5.76-11.25,11.17-17.2,16.44-2.21,1.96-4.36,3.78-7.46,3.92Z"/>
      <path class="cls-22" d="m254.32,417.73c.2-2.31,3.65-5.76,6.08-6.01.11-.01.27.49.4.76-.12,3.73-1.89,7.04-2.69,10.6-1.27-1.78-2.53-3.57-3.8-5.35Z"/>
      <path class="cls-43" d="m181.65,258.94c.1-4.43-3.69-5.34-6.47-7.16-4.33-3.53-7.91-7.71-10.67-12.56-1.63-2.87.22-5.34,1.29-7.86,2.4-.8,4.5-2.29,6.92-3.06,2.89.66,5.19-.84,7.59-2.03.5-.17,1.04-.32,1.53-.15,1.58.53,2.81.51,3.26-1.49.12-.52.63-.82,1.2-.37.18.64.2,1.25-.25,1.8-.35,2.89,2.03,4.82,2.58,7.44.96,4.56,2.63,9.47,1.62,13.7-1.42,5.9,2.32,8.57,4.81,12.31,2.71,4.06,5.9,7.8,9,11.47,3.53,4.17,8.51,7.11,12.86,10.58-.33.75.24,1.18.61,1.68,4.1,5.73,8.61,11.2,12.29,17.19,2.96,4.83,5.81,9.72,9.03,14.39.62.89.91,1.97.14,3.01-.75.45-1.46.19-2.13-.18-8.61-4.81-17.38-9.36-25.16-15.49-8.65-6.82-15.84-14.95-21.5-24.45-1.92-3.23-3.75-6.49-5.6-9.76-1.6-2.83-2.28-5.91-2.97-9.01Z"/>
      <path class="cls-43" d="m268.59,384.14c-1.77.61-2.42,2.31-3.33,3.66-1.03,1.53-1.72,3.4-3.94,3.03-2.23-.37-2.91-2.63-3.36-4.25-.91-3.27-2.5-6.2-4.2-8.98-3.32-5.44-4.26-10.96-2.76-17.16,2.1-8.69,2.49-17.59,2.48-26.5,0-.92.08-1.83.13-2.75-1.07-1.5-1.01-3.09-.42-4.74,1.17-2.58.91-5.3.46-7.91-.86-5.06-1.62-10.18-3.82-14.91-.45-.96-.92-2,.11-2.94,4.57,2.65,7.05,6.91,8.83,11.67.31.82.63,1.29,1.46,1.41,3.74,3.58,5.27,8.35,6.96,13.03,1.07,3.42,3.15,6.35,4.64,9.57,2.7,5.1,4.4,10.59,5.79,16.13.63,2.51,2.16,4.97,1.31,7.77-.19.24-.6.61-.54.71,2.65,4.43-.3,7.72-2.14,11.31-1.67,3.26-3.81,6.18-5.91,9.14-.58.9-1.16,1.8-1.73,2.71Z"/>
      <path class="cls-10" d="m249.93,300.7c.13,3.25,2.32,5.8,2.85,9,.73,4.35,1.85,8.63,2.11,13.06.09,1.55-.23,2.94-1.35,4.08-.35.76-.93.77-1.58.46-4.52-2.17-8.05-5.88-12.59-8.03-.46-.22-.63-.83-.54-1.41.5-3.18-2.42-4.57-3.67-6.83-2.72-4.93-5.48-9.9-8.8-14.43-3.09-4.22-6.24-8.39-9.24-12.68-.46-.65-1.95-1.44-.2-2.36,6.04,3.16,12.16,6.18,18.08,9.54,3.77,2.14,7.37,4.53,11.38,6.26,1.42.61,1.75,2.85,3.55,3.34Z"/>
      <path class="cls-58" d="m186.05,226.06c-.04-.63-.07-1.26-.11-1.88-1.07-4.2.3-8.41-.04-12.62-.14-1.69.03-3.41-1.13-4.84-.32-.39-.54-.81-.55-1.33.77-1.32.94-3.04,2.49-3.86,1.11,3.06,4.13,4.47,6.19,6.66,1.52,1.62,3.33,3.21,4.95,4.86,3.33,3.39,6.48,6.96,9.88,10.28,1.15,1.12,2.32,3.39,4.02-.37,3.37-7.42,7.77-14.36,11.01-21.88,1.69-3.92,3.87-7.6,6.59-10.91.88-1.07,2.07-2.33,3.49-1.01,1.18,1.09,1.51,2.88.34,4.1-5.65,5.91-7.68,13.87-11.77,20.67-2.64,4.4-4.44,9.37-7.04,13.87-1.47,2.54-3.6,3.87-6.65,3-6.53-1.85-13.08-3.62-19.57-5.61-1.27-.39-1.41.6-2.1.87Z"/>
      <path class="cls-20" d="m267.18,326.81c-2.32-4.34-4.64-8.68-6.96-13.03,2.53-1.58,1.31-4.33,1.53-6.36.71-6.78.34-13.64.52-20.46.1-3.92-.34-7.8-.18-11.7.2-4.91-.24-9.8-.59-14.69-.08-1.07-.07-2.15-.03-3.22.07-1.85,1.2-3.39,2.82-3.33,1.68.07,2.88,2.93,2.57,3.48-1.19,2.03.08,3.7.1,5.49.12,8.39.34,16.78.5,25.17,0,.44-.06.84.54,1.34,1.72-2.97,2.78-6.18,3.68-9.37,1.55-5.49,2.65-11.1,4.08-16.63.27-1.04.88-2.49,2.22-2.44,1.59.05,1.61,1.54,1.48,2.72-.6,5.47-1.51,10.85-2.71,16.25-1,4.52-3.21,8.57-3.94,13.14-.46,2.87-1.53,5.91-3.19,8.28-3.03,4.35-1.33,9.16-2.03,13.7-.59,3.79-.92,7.75-.41,11.65Z"/>
      <path class="cls-58" d="m278.92,360.28c-2.37-7.97-4.73-15.93-7.1-23.9,3.91,1.72,7.24,4.42,10.77,6.72,5.6,3.65,11.4,6.97,16.95,10.68,1.54,1.03,2.85,2.68,4.98,1.32-3.56,4.36-8.55,5.47-13.69,5.32-3.98-.11-7.96.4-11.92-.14Z"/>
      <path class="cls-35" d="m286.36,284.48c-.73,4.03-2.6,7.38-4.22,10.81-1.1,2.33-2.66,4.37-4.68,6.02-.58.47-.99,1.73-2.01.87-.73-.61-.58-1.56-.17-2.38,1.03-2.09,2.13-4.15,3.19-6.21,1.37-2.66,2.79-5.25,3.72-8.12.24-.75.98-1.37,1.55-1.98.46-.49,1.13-.83,1.7-.37.46.37.7,1.02.92,1.36Z"/>
      <path class="cls-40" d="m166.14,231.23c0,.43.19.96,0,1.27-3.89,6.17,1.37,9.41,4.25,13.41,1.48,2.06,3.73,3.49,4.8,5.87-.33,5.96.12,11.86.92,17.77.21,1.53-.32,3.15-.3,4.72.08,9.47.32,18.94.31,28.4,0,10.25-.23,20.51-.32,30.76-.05,5.72.03,11.43-.03,17.15-.08,9.17-.03,18.34-.45,27.49-.17,3.8-1.21,7.56-.87,11.44.18,2.05-1.45,1.69-2.7,1.7-9.3.04-15.82-4.91-22.29-11.09-3.67-3.5-7.39-7.05-11.06-10.59-8.13-7.82-15.1-16.67-21.97-25.59-.51-.67-1.15-1.3-1.16-2.25.78-4.3,2.09-8.42,4.36-12.19.5-.83,1.25-1.06,2.15-1.16,4.65-.54,7.16-3.43,8.37-7.72,1.67-5.93,1.92-12.03,2.25-18.14.45-8.34.28-16.7.39-25.04.1-7.78-.94-15.59-1.45-23.39-.24-3.71-.69-7.43-.18-11.16,1.09-3.33.4-6.55-.56-9.76-.42-.57-1.09-1.08-.5-1.91,1.38-2.18,1.52-4.32.78-6.92-1.01-3.56-2.14-7.08-3.86-10.28-.85-1.6-.18-3.41-1.4-4.73-.29-.17-.5-.42-.64-.72-.59-1.83-.72-3.78-1.36-5.6-.78-5.34-3.08-10.35-3.36-15.8-.11-2.04-1.13-3.86-1.74-5.79-.3-.96-1.09-1.95.04-2.89,1.58-1.69,3.52-2.78,5.74-3.38,3.51-.56,3.88-.34,3.99,2.85.24,6.77,1.64,13.35,2.87,19.99,1.09,5.89,2.25,11.79,2.71,17.77.43,5.68,1.7,11.21,2.47,16.83.52,3.79,3.41,5.3,6.76,3.4,4.75-2.69,9.61-5.13,14.49-7.55,1.55-.77,3.06-1.54,4.85-1.47,1.83.92,3.12,2.32,3.69,4.32Z"/>
      <path class="cls-60" d="m131.15,242.89c1.16,7.29,1.18,14.68,1.82,22.01.33,3.75.69,7.53,1.03,11.25.26,2.88-.4,6.1-.42,9.19-.05,8.76-.11,17.52-.84,26.26-.4,4.75-1.31,9.39-3.51,13.67-1.21,2.35-3.9,3.65-5.89,3.66-3.94.02-3.9,2.99-5.04,5.12-1.29,2.42-1.15,5.44-3.05,7.63-3.61,9.42-8.46,18.26-12.7,27.38-1.33,2.87-3.02,5.56-4.19,8.5-1.73,5.97-5.34,11.06-7.79,16.7-.42.97-.8,2-1.69,2.69-1.29,1.18-2.69,1.94-2.28,4.43.24,1.46-1.56,3.36-2.64,4.92-.83,1.21-1.88,2.24-2.68,3.51-.6.95-1.97,2.24-3.12,1.63-1.3-.68-2.61-2.02-2.19-3.89.37-1.66.67-3.41,1.44-4.89,2.44-4.71,3.64-9.87,5.62-14.72,2.56-6.27,4.1-12.96,7.57-18.85.38-.65.25-1.16.2-1.8-.19-2.31.45-4.42,1.74-6.34,2.04-5.35,3.31-10.97,5.42-16.26,1.38-3.45,1.96-7.17,3.84-10.46,1.4-2.46,2.61-5.18.97-8.11-.7-1.74.06-3.2.73-4.78,1.5-3.52,3.15-7,4.06-10.75,1.49-2.53,1.97-5.42,2.76-8.19,1.46-5.09,5.22-8.75,7.82-13.12,1.65-2.78,2.48-5.5,1.32-8.5-1.02-2.64-.61-4.49,1.93-5.92,1.19-.67,2.11-1.79,2.8-3.03,1.87-3.05,1.9-6.18.52-9.42-1.42-3.33-.83-5.14,2.19-6.83,3.09-1.73,2.15-4.46,1.36-6.79-.54-1.58-.85-3.05-.75-4.67h0c1.22-.41,2.45-.83,3.67-1.25Z"/>
      <path class="cls-60" d="m118.56,178.48c.91,3.2,2.3,6.34,2.63,9.6.51,5.07,2.57,9.74,3.2,14.75-.1,2.01.59,3.87,1.03,5.79.07.22.13.45.2.67.21,2.94-.85,3.43-3.8,2.93-3.43-.58-7.07-.19-10.59.1-1.91.15-3.73.15-5.65-.07-3.13-.36-4.91,2.04-6.35,4.3-2.62,4.09-4.93,8.38-7.42,12.55-1.17,1.95-2.17,1.48-2.93-.38-1.59.05-1.51-1.32-1.74-2.24-1.65-6.63-3.55-13.19-5.18-19.82-.87-3.55-2.61-6.8-3.41-10.36-.3-1.34-1.63-1.6-2.43-2.43-1.84-2.49-1.11-5.3-.77-7.96.43-3.34,3.73-4.01,6.04-4.73,6.03-1.89,11.55-5.27,17.59-6.69,4.58-1.07,9.44-2.08,14.31-1.77,1.18.08,1.77,1.13,2.36,1.99.91,1.31,1.55,2.82,2.92,3.77Z"/>
      <path class="cls-38" d="m76.11,193.86c2.07-.43,2.79.5,3.45,2.5,2.04,6.17,3.86,12.43,5.7,18.64.89,3.02,2.03,6.2,2.27,9.5.11,1.44.36,2.98,1.33,4.21.61,3.7-1.5,7.01-1.6,10.55-.12,4.87.93,9.66,1.82,14.44,1.01,5.39,1.2,10.88,2.1,16.3.49,2.92-2.4,5.7-3.67,8.58-.49,1.1-.78,2.8-2.5,3.09-4.04-8.59-7.21-17.58-11.3-26.12-2.2-4.6-4-9.49-6.94-13.78-1.18-1.73-3.03-4.49-.49-5.93,2.33-1.31,3.83,1.44,5.01,3.34,4.79,7.71,8.02,16.18,11.67,24.44.72,1.63,2.14,2.98,2.08,4.98-.01.46.34,1.11,1.05.87.6-.21.63-.74.49-1.33-2.39-10.04-2.56-20.43-4.48-30.49-1.3-6.8-1.9-13.72-3.53-20.47-1.1-4.54-1.74-9.19-2.07-13.88-.2-2.83-.7-5.66-1.99-8.27.53-.39,1.05-.77,1.58-1.16Z"/>
      <path class="cls-6" d="m124.17,271.85c-.16,2-1.2,3.37-3.01,4.15-1.55.67-2.07,1.77-1.4,3.33,1.79,4.2.78,7.57-1.77,11.42-3.36,5.07-7.58,9.9-8.28,16.45-.13,1.21-.81,2.67-2.16,3.41,1.51-6.81,1.04-13.79,1.85-20.67.84-7.15-1.77-13.8-3.37-20.58-.16-.67-1.15-1.25-1.87-1.66-1.22-.7-1.19-1.51-.73-2.69.44-1.13.91-1.81,2.26-1.76,2.85.1,5.41,1.09,7.87,2.4,1.11.59,1.31,1.75,1.2,2.78-.1.87-1.14.73-1.86.89-.88.2-2.66-.74-2.42.99.21,1.52.8,3.78,3.09,3.43,3.54-.54,7.29-.02,10.6-1.89Z"/>
      <path class="cls-58" d="m18.54,366.7c-.88-2.26-2.72-3.57-4.84-4.28-3.43-1.15-6.21-3.29-9.01-5.43-.57-.44-1.37-.71-1.53-1.56-.3-1.52-1.91-3.13-.85-4.48,1.44-1.84,4-2.08,6.16-2.07,3.39.02,6.48-1.29,9.78-1.65,4.09-.45,8.17-1.56,12.26-.98,1.88.26,3.3-.02,4.82-.8-.61,2.68-2.93,4.27-4.69,5.81-2.02,1.77-4.01,4.18-7.45,4.17-1.58,0-2.06,2.47-2.64,3.93-.92,2.35-1.36,4.88-2.01,7.33Z"/>
      <path class="cls-32" d="m81.74,288.01c-5.7-4.52-10.21-10.21-15.23-15.4-1.91-1.98-4.27-3.51-5.81-5.91-.65-1.01-1.12-1.81-.36-2.88.82-1.17,1.78-.32,2.56-.05,3.41,1.18,5.89,3.83,8.53,6.05,3.62,3.04,6.71,6.72,10.1,10.04,1,.98.79,3.11,2.88,3.05.1,2.22-1.17,3.72-2.67,5.1Z"/>
      <path class="cls-12" d="m102.76,326.14c1.64.62,2.37,1.32,1.56,3.41-2.78,7.21-5.23,14.55-7.84,21.83-1.17,3.25-1.3,6.93-3.94,9.58.22-2.37-1.88-4.07-1.84-6.39.64-3.77,2.09-7.33,3.56-10.77,2.1-4.91,3.82-9.97,5.93-14.87.51-1.18.45-3.04,2.57-2.81Z"/>
      <path class="cls-59" d="m130.09,231.21c.3.6.73,1.17.5,1.91-4.36.6-8.58-.32-12.66-1.6-2.56-.8-5.24-.53-7.75-1.45-1.28-.47-2.58-.98-2.54-2.47.04-1.51,1.36-1.88,2.69-2.27,2.01-.58,4.23-.56,5.94-2.14.71-.65,1.95-.7,2.62.17,2.92,3.81,7.43,5.3,11.21,7.85Z"/>
      <path class="cls-31" d="m60.33,413.84c.02,2.32-2.18,2.94-3.51,3.69-2.15,1.22-2.81,4.51-5.94,4.22-.27-2.9,1.85-5.04,2.59-7.65.86-3.01,1.11-6.16,2.27-9.16.78-2.01,1.91-3.17,3.4-4.26.7-.51,1.62-1.35,2.59-.57,1.01.81.61,1.87.31,2.95-1,3.46-2.01,6.93-2.81,10.44-.42,1.85.74.16,1.1.34Z"/>
      <path class="cls-7" d="m106.26,248.3c4.94,1.34,10.22,2.49,15.21,4.59.69.29,1.17,1.21,1.63,1.91.37.57,1.33,1.07.72,1.9-.41.56-1.19.15-1.81.19-5.17.36-9.94-1.46-14.82-2.65-1-.24-2.1-.44-2.87-1.33-.7-.8-1.58-1.43-1.1-2.76.49-1.35,1.56-1.64,3.04-1.85Z"/>
      <path class="cls-7" d="m127.48,244.14c-2.23.81-4.41-.05-6.56-.37-4.12-.61-8.19-1.55-12.31-2.19-1.5-.23-2.43-.65-2.41-2.31.02-1.42.75-1.95,2.1-2.32,6.99-1.94,16.71,1.64,19.18,7.19,0,0,0,0,0,0Z"/>
      <path class="cls-6" d="m184.22,205.39l.43.62c.67,2.74-.62,5.22-1.16,7.77-.74,3.51-2.08,6.91-1.86,10.6.06,1.03-.41,1.84-1.35,2.33-2.15,2.3-4.6,3.36-7.66,1.84-3.58-1.67-5.79-4.91-8.4-7.61-3.02-3.12-5.94-6.35-8.79-9.64-.56-1.41-1.18-2.78-2.15-3.96-2.87-4.7-4.7-9.95-6.33-15.08-3.18-10.04-6.77-19.91-10.67-29.67-.16-.4-.19-.84-.26-1.26,2.47-.88.77-2.91,1.2-4.35,1.09-.93,1.52.03,1.84.75,1.51,3.41,3.85,6.45,4.72,10.13.66,2.81,3.03,3.84,4.98,5.33-.23,1.74,1.51,2.06,2.25,3.1,3.7,5.18,7.59,10.24,11.48,15.27,3.27,4.23,6.44,8.59,9.99,12.62.89,1.01,2.18,1.22,3.53,1.21,2.74-.03,5.48,0,8.22.02Z"/>
      <path class="cls-56" d="m165.04,157.78c-3.78-3.62-7.15-7.58-10.05-11.93-1.87-2.81-1.5-3.39,2.1-3.56,5.19,2.88,10.14,1.01,14.95-.97,3.41-1.41,7.13-2.02,10.29-4.07.59-.38,1.45-.35,2.1.21,1.62,2.47,2.07,5.16,1.6,8.05-8.82-.46-13.77,5.41-18.59,11.44-.71.89-1.33,1.32-2.4.83Z"/>
      <path class="cls-14" d="m157.88,135.09c-3.72-.04-5.66-3.03-5.33-6.44.67-6.92,3.99-12.9,6.59-19.12.72-1.72,2.08-3.86,4.57-2.81,2.3.97,2.93,2.81,2.39,5.48-1.3,6.4-2.38,12.84-4.57,19.02-.75,2.12-2.18,3.51-3.65,3.86Z"/>
      <path class="cls-42" d="m165.04,157.78c2.55-.52,2.6-3.34,4.41-4.77,3.01-2.39,5.46-5.62,9.04-7.2,2.31-1.01,4.97-1.57,7.54-.3.65,2.42,0,4.84-.02,7.25-.02,1.9-1.53,2.44-2.57,3.33-4.2,3.64-13.7,4.45-18.4,1.69Z"/>
      <path class="cls-26" d="m185.2,78.08c5.44,1.5,11.58,1.12,15.95,5.82.6.65,1,1.32,1.43,2.05,1.02,1.72.85,3.16-.55,4.62-1.42,1.5-3.12,1.1-4.41.37-4.55-2.56-9.78-3.58-14.16-6.46-1.3-.86-3.16-1.31-2.23-3.78.76-2,1.58-3.24,3.97-2.63Z"/>
      <path class="cls-16" d="m179.71,111.9c-1.13-.07-2.24-.3-2.55-1.24-.51-1.54.27-3.13,1.3-4.09,4.51-4.23,9.33-7.96,16.1-7.26,2.01.21,3.95.73,4.56,2.83.65,2.2-1,3.44-2.76,4.08-5.52,1.98-11.1,3.8-16.66,5.68Z"/>
      <path class="cls-16" d="m145.47,87.81c-1.25-.25-2.4-.46-3.54-.73-2.34-.56-2.65-2.38-1.56-3.91,1.28-1.79,2.64-3.55,5.44-3.88,3.99-.47,7.93-1.37,11.96-1.8,2.19-.24,3.58.59,4.33,2.32.84,1.93-.62,2.79-2.18,3.59-4.6,2.34-9.56,3.43-14.46,4.41Z"/>
      <path class="cls-13" d="m154.92,107.12c-.25,2.24-2.15,3.6-3.95,2.47-3.9-2.45-7.06-5.68-8.66-10.14-.57-1.59.12-3.01,1.08-4.14.97-1.13,2.3-.19,3.18.25,5,2.46,8.8,6.93,8.35,11.56Z"/>
      <path class="cls-61" d="m184.44,137.46c-4.12.88-7.74,3.06-11.57,4.64-4.01,1.66-8.13,2.12-12.29,2.45-1.18.09-2.98-.49-3.48-2.26,4.17-1.15,8.38-2.02,12.48-3.55,3.78-1.41,7.3-3.26,10.88-5,1.5-.72,2.69-1.25,4.04-.02,1.38,1.25.59,2.51-.06,3.75Z"/>
      <path class="cls-46" d="m185.04,117.9c.01-.51.3-.71.76-.84,4.02-1.13,8.28-1.32,12.12-3.19.82-.4,1.69.12,2.24.85.8,1.05.2,2.11-.35,2.93-2.19,3.25-5.76,2.98-9.02,3.09-1.4.05-2.84-.8-4.23-1.31-.71-.26-1.25-.79-1.52-1.54Z"/>
      <path class="cls-2" d="m142.48,115.74c-2.87-.16-5.71-.21-6.94-3.54-.45-1.21-.46-1.95,1.07-2.31,2.63-.62,5.03-.63,6.95,1.62.14.16.35.26.46.44.79,1.19,3.66.66,3,2.44-.49,1.32-2.9,1.28-4.55,1.36Z"/>
      <path class="cls-49" d="m32.08,995.22c-2.12-1.18-2.7-2.81-1.65-5.08.38-.82.38-1.8.55-2.71,2.06,1.88,2.5.35,3.18-1.35,1.63-4.11,2.95-8.43,6.12-11.72,5.6-5.81,11.67-10.7,20.17-11.64,7.06-.78,13.49.27,20.01,3.37,3.49,1.66,5.88,3.76,8.04,6.64.8,1.06,1.53,2.06,1.61,3.4.06.9,1.21,2,.1,2.63-1.17.66-2.24-.3-3.04-1.18-3.2-3.51-6.77-6.4-11.34-8.04-8.58-3.09-22.36-2.11-29.27,6.17-2.19,2.63-4.58,4.92-5.94,8.32-.96,2.4-2.86,4.69-5.18,6.42-1.55,1.15-3.47,2.34-3.37,4.79Z"/>
      <path class="cls-1" d="m69.01,947.02c4.45.18,7.36,3.04,10.57,5.22.83.57,1.23,1.5.32,2.47-.79.84-1.44,2-2.88,1.53-.9-.29-1.9-.55-2.6-1.13-4.71-3.9-9.57-2.91-14.28-.28-1.82,1.02-3.5,1.68-4.71-.12-1.4-2.08.62-3.08,2.04-4.21,3.47-2.76,7.7-2.64,11.55-3.5Z"/>
      <path class="cls-55" d="m66.49,928.28c4.66-1.04,9.06,1.13,13.61,2.91,2.11.83,2.59,2.39,1.99,3.98-.63,1.69-2.11,1.7-3.93.94-2.2-.92-4.39-1.9-6.81-2.49-3.92-.95-7.34.19-10.83,1.18-1.2.34-2.02,1.03-2.84-.33-.75-1.25-.15-2.53.68-3.17,2.22-1.72,4.51-3.59,8.12-3.02Z"/>
      <path class="cls-55" d="m78.61,941.79c-.2,2.33-1.04,3.12-2.99,2.59-5.29-1.41-10.62-2.06-15.99-.45-1.76.53-2.35-.87-2.81-1.89-.53-1.17.09-2.39,1.35-2.82,6.26-2.13,12.5-2.49,18.7.32,1.26.57,1.89,1.33,1.75,2.24Z"/>
      <path class="cls-40" d="m183.61,923.46c1.04.06,2.08.13,3.12.19,1.37.55,2.13,1.09,2.03,3.05-.49,9.02-.17,18.08-.15,27.11.03,10.26-.03,20.51-.23,30.76-.01.52.17,1.05.27,1.58-2.23-.03-4.58.55-6.41-1.36-.85-.85-.8-1.93-.81-3.01-.07-10.42.73-20.83.55-31.25-.13-7.73-.29-15.46.01-23.18.06-1.4-.7-3.35,1.62-3.89Z"/>
      <path class="cls-40" d="m195.86,969.29c-.12,1.52-.63,3.03-.13,4.57.35,3.7.85,7.39.23,11.11-.16.9.06,2.12-1.52,1.86-1.38-3.9-.63-7.97-.75-11.94-.27-8.97.25-17.96-.57-26.94-.45-4.95.03-9.97-.2-14.95-.1-2.13.02-4.17.52-6.81.99,3.2,4.01,2.84,5.89,4.36,1.44,1.16,2.21,2.29,2.17,3.94-.18,6.64-.39,13.29-1.26,19.88-.32,2.46,1.24,5.06-.6,7.37-1.59,2.35-2.28,5.16-3.8,7.56Z"/>
      <path class="cls-20" d="m183.61,923.46c-1.61,3.76-.67,7.73-.81,11.58-.42,11.43.52,22.86-.43,34.31-.42,5.08-.03,10.29-.14,15.43-2.25-.09-3.5-1.94-5.21-2.98.13-5.84.6-11.71.24-17.53-.21-3.44.71-6.65.71-10.02.03-10.63.77-21.26.34-31.9,1.74.48,3.79-.53,5.29,1.1Z"/>
      <path class="cls-9" d="m195.96,984.97c-.97-3.68-.84-7.39-.23-11.11,1.83,5.78,6.47,9.38,10.45,13.49-1.03.61-2.06.91-3.11.04-.74-.62-1.55-.66-2.33-.16-2.85,1.86-3.88-.06-4.78-2.27Z"/>
      <path class="cls-40" d="m136.03,161.31c2.79,2.23,3.15,5.73,4.25,8.74,4.53,12.45,8.31,25.18,13.58,37.36.91,1.18.19,2.2-.27,3.28-.97,2.27-2.24,4.39-3.39,6.56-1.75,3.3-4.04,6.29-5,9.99-.19.72-.88,1.2-1.43,1.7-2.23,2.01-3.52,1.58-4.2-1.28-1.48-6.26-2.76-12.56-3.59-18.92-.98-7.49-3.79-14.5-5.36-21.82-.72-3.35-.98-6.78-2.11-10.06-.6-1.74-.56-3.63.79-5.16.63-.71.62-1.56.77-2.39,1.32-3.17,3.02-6.05,5.96-8.01Z"/>
      <path class="cls-28" d="m130.06,169.32c.14.5.56,1.26.37,1.47-2.45,2.69-.95,5.43-.43,8.3,1.14,6.42,2.61,12.74,4.52,18.96,2.34,7.63,2.88,15.6,4.48,23.37.46,2.26,1.74,4.3,1.46,6.78-.13,1.14.59,2.14,1.99.81,1.22-1.17,2.35-2.19,2.75-4.07.9-4.23,4.34-7.23,5.85-11.21.82-2.16,2.63-3.87,2.82-6.32,1.68.79,1.8,2.43,2.13,3.95.07.2.22.44.15.61-1.83,4.56,1.1,7.33,3.77,10.21,1.38,1.49,3.14,2.78,2.78,5.21-6.25,2.35-12.31,5.12-17.88,8.8-2.54,1.67-4.96,1.57-7.61.74-1.14-.36-1.22-1.27-1.4-2.27-1.61-9.18-2.65-18.44-3.94-27.66-1.03-7.35-2.73-14.61-3.9-21.96-.36-2.25-.64-4.48-.45-6.7.21-2.56-.68-3.61-3.21-3.25,3.5-.35,4.36-3.33,5.76-5.78Z"/>
      <path class="cls-53" d="m101.45,152.45c.36-2.81.61-6.39,1.82-9.75.75-2.08-.07-4.27.95-6.39.81-1.69,1.93-2.64,3.5-2.77,1.81-.15,3.28,1.1,3.79,2.74,1.12,3.56,2.98,6.73,4.68,9.99.81,1.55,1.06,3.31,1.72,4.94,1.15,2.84-.04,3.61-3.41,3.51-3.61-.11-7.3-.4-10.72,1.42-1.49.79-2.45-.45-2.34-3.69Z"/>
      <path class="cls-29" d="m164.18,431.95c.03-1.51-1.13-2.01-2.21-2.44-8-3.13-14.93-8.15-21.47-13.43-3.42-2.76-6.6-6.23-9.44-9.86-4.75-6.07-9.05-12.33-11.41-19.73-.65-2.03-2.12-4.59.09-6.2,1.75-1.27,3.89.24,5.67,1.19,7.46,3.94,13.81,9.29,19.56,15.41,5.04,5.37,10.09,10.73,15.07,16.15,4.56,4.96,9.01,10.01,13.55,14.99.77.84,1.45,1.93,2.83,1.91.22.15.3.31.23.46-.07.16-.14.24-.22.24-4,1.24-8.1,1.54-12.25,1.31Z"/>
      <path class="cls-33" d="m88.88,396.96c-.29-1.73.93-3.01,1.58-4.34,2.46-5.1,5.24-10.04,7.9-15.04-.04,3.3,2.27,5.73,3.23,8.67,1.13,3.45,3.63,6.18,4.59,9.99,1.12,4.4,4.59,8.14,6.55,12.39,1.95,4.22,4.83,7.95,6.27,12.4-.29-.15-.71-.22-.84-.45-2.98-5.6-9.33-6.25-13.89-9.52-5.7-4.09-10.17-9.51-15.41-14.09Z"/>
      <path class="cls-29" d="m176.43,430.64c0-.23,0-.47-.01-.7.49-2.36-1.71-3.23-2.75-4.65-5.81-7.93-11.85-15.7-17.76-23.57-1.86-2.48-3.05-5.33-3.77-8.55,8.49,8.99,15.7,19.11,24.55,28.63-.6-4.08-1.15-7.58-1.61-11.1-.67-5.16-.7-10.36-.65-15.55.01-1.29.05-3.26,1.97-3.04,1.58.18,2.72,1.35,2.58,3.43-.34,4.75.83,9.43,1.06,14.12.28,5.62,2.1,10.95,2.29,16.55.07,1.95,1.13,3.86,1.75,5.79-2.72.48-5.01-1.39-7.65-1.38Z"/>
      <path class="cls-29" d="m202.82,431.14c5.54-1.6,8.8-6.32,12.7-9.93,9.6-8.89,19.18-17.87,27.28-28.26.93-1.19,1.11-2.48,1.65-3.73.49-1.14,1.13-2.21,2.65-1.55,1.41.61,2.38,1.54,1.6,3.25-2.04,4.47-4.56,8.61-8.08,12.11-2.02,2.01-3.91,4.27-5.57,6.51-2.49,3.39-5.53,6.3-8.49,9.04-2.93,2.71-5.05,6.36-8.76,8.22-1.16.58-.88,1.28-.06,1.97-2.02,2.04-4.82.99-7.21,1.64-2.36.64-5.08,1.2-7.71.73Z"/>
      <path class="cls-29" d="m218.88,428.72c1.28-.27,2.3-2.27,3.86-.58-1.26.36-2.35,1.92-3.86.58Z"/>
      <path class="cls-33" d="m122.8,422.96c2.01-.54,3.47.31,4.66,1.85-1.82.05-3.18-1.05-4.66-1.85Z"/>
      <path class="cls-25" d="m195.86,969.29c.7-2.8.92-5.85,3.8-7.56,1.89-.52,3.79-.88,5.76-.83,2.92-.59,4.17,1.62,5.7,3.38.79,1.39,1.97,1.43,3.26.89,1.06-.44,2.05-1.09,3.27-.96,2.15-.94,4.3-1.18,6.43.04.41.68.37,1.32.07,2.09-1.72,4.38-2.93,8.86-2.41,13.65.06.59-.09,1.55-.47,1.76-.68.38-1.21-.39-1.8-.82-3.78-2.75-7.26-5.81-10.38-9.29-1.67-1.86-3.97-2.82-6.11-3.93-2.68-1.39-4.94.17-7.13,1.58Z"/>
      <path class="cls-40" d="m211.12,964.28c-2.27-.51-3.47-2.81-5.7-3.38.21-6.8.39-13.6.68-20.39.06-1.34.19-3.06,1.53-3.66,1.45-.65,1.97,1.39,2.98,1.79,3.83,1.49,2.75,4.97,2.32,7.17-.99,5.11.64,10.13-.21,15.13-.21,1.21.43,2.96-1.6,3.34Z"/>
      <path class="cls-19" d="m231.41,113.65c1.21-7.54,3.29-14.58,9.89-19.54,2.21-1.66,4.11-.84,5.46.4,1.66,1.51,2.6,3.98,1.06,6.13-1.23,1.72-1.86-.18-2.38-1-.66-1.05-.54-3.37-2.55-2.22-2.01,1.15-3.58,3.08-3.8,5.59-.04.46,1.08,1.53,1.49,1.45,5.06-1.04,5.13,3.15,5.14,5.76.03,4.61-1.71,9.12-5.01,12.44-3.2,3.22-8.02,1.19-8.77-3.53-.27-1.74-.84-3.54-.54-5.46Z"/>
      <path class="cls-15" d="m214.73,986.64c-1.97-.56-3.71-1.15-5.23-2.5-2.84-2.51-6.06-4.6-7.88-8.1-.39-.75-.74-1.51-1.09-2.27-.22-.48-.52-1.01,0-1.45.56-.48,1.16-.31,1.77.02,2.48,1.33,4.7,3.04,6.71,4.99,2.21,2.15,4.37,4.34,6.79,6.25.7.56,2.03,1.09,1.42,2.14-.36.61-1.69.66-2.47.92Z"/>
      <path class="cls-8" d="m227.93,977.75c-1.38-.62-2.28-1.39-1.26-3.05,1.08-1.75,1.2-3.77,1.24-5.76.04-1.92.85-3.18,2.71-3.96.39,4.64,2.08,9.38-2.68,12.77h0Z"/>
      <path class="cls-39" d="m227.94,977.75c2.19.6.81,1.94.46,2.87-.26.72-1.01,1.25-1.66,2.01-1.57-2.16-.59-3.61,1.19-4.88,0,0,0,0,0,0Z"/>
      <path class="cls-10" d="m87.55,837.76c-.44-5.75,1.51-11.21,2.01-16.84.94-10.64,3.78-20.96,5.26-31.52,1-7.13,1.84-14.36,3.64-21.4,1.67-6.54,1.16-13.38,2.58-19.97.97-4.49.23-9.22,1.7-13.64.59-1.8-.36-3.36-.48-5.05-.3-4.26,1.29-8.22,1.46-12.41.21-4.91.67-9.87,2.27-14.97.72,3.95-.03,7.63-.7,11-.94,4.72-1.13,9.37-.97,14.06.26,7.43-2,14.57-2.27,21.89-.24,6.66-1.9,13.09-2.33,19.7-.32,4.9-1.6,9.67-2.4,14.49-1.37,8.3-2.42,16.66-3.98,24.94-1.36,7.23-2.64,14.48-4.15,21.67-.56,2.67.08,5.61-1.64,8.03Z"/>
      <path class="cls-10" d="m87.86,837.23c-1.64,19.1-4.7,37.41-8.27,56.04-1.33-2.32,6.16-52.77,8.27-56.04Z"/>
      <path class="cls-10" d="m108.45,674.46c.42-18.18,3.38-36.12,5.42-54.14-.38,18.18-2.82,36.17-5.42,54.14Z"/>
      <path class="cls-10" d="m106.23,697.15c.37-6.66.62-13.32,1.36-19.96.91,6.74-.44,13.33-1.36,19.96Z"/>
      <path class="cls-40" d="m238.84,317.86c4.61,3.1,9.22,6.22,13.86,9.29.15.1.56-.19.85-.3.02,1.45.04,2.91.06,4.36-1.34.08-1.25,1.35-1.65,2.12-3.26,6.18-7.97,11.35-11.79,17.13-4.05,6.14-8.95,11.44-14.79,15.75-2.87,2.12-5.98,4.02-9.02,5.95-5.52,3.52-10.77,7.52-16.51,10.61-5.3,2.85-10.26,6.43-16.17,8.2-2.44.73-3.22.45-3.47-2.13-.58-5.79.36-11.47.74-17.2.29-4.44.59-9.01.24-13.34-.36-4.43.32-8.66.46-12.96.25-7.5.27-15.04.22-22.5-.05-7.11-.14-14.31-.46-21.46-.2-4.43-.76-9.01.09-13.49.51-2.65.02-5.34-.14-7.93-.28-4.43.83-8.87-.27-13.29-.62-2.5,1.09-5.25-.58-7.72.38,0,.76,0,1.14,0,2.05,5.04,4.1,10.06,6.99,14.71,4.86,7.83,9.73,15.73,16.58,21.94,8.52,7.73,18.06,14.11,28.39,19.26,1.79.89,3.49,1.99,5.23,3Z"/>
      <path class="cls-10" d="m162.7,227.39c-1.24-2.73-3.38-4.82-5.36-6.93-2.7-2.88-3.45-5.69-1.34-9.1,4.65,3.66,7.99,8.6,12.17,12.72,1.49,1.47,3.45,2.5,4.45,4.46-2,1.28-3.65,3.43-6.49,2.69-1.38-1.07-2.52-2.35-3.44-3.84Z"/>
      <path class="cls-10" d="m180.28,226.7c.43-6.58,2.3-12.88,3.76-19.26.11-.5.4-.96.6-1.43,1.56.05,2.01,1.19,2.04,2.4.16,5.27-.12,10.53-.75,15.76-.16.27-.45.54-.45.8.01,2.3-.23,4.01-3.06,1.97-.51-.37-1.42-.18-2.15-.24Z"/>
      <path class="cls-30" d="m125.42,208.61c-1.05-1.8-1.68-3.68-1.03-5.79.41,1.92,1.08,3.79,1.03,5.79Z"/>
      <path class="cls-58" d="m165.19,425.01c-.53,1.42-1.55.87-2.37.48-4.43-2.12-8.93-4.16-12.89-7.05-6.65-4.85-12.85-10.31-17.67-17.03-2.71-3.78-5.8-7.44-6.87-12.2-.16-.7-.83-1.42-.13-2.08.83-.79,1.7-.12,2.31.35,3.77,2.91,7.85,5.49,11.09,9.03,4.08,4.45,8.89,8.17,12.58,13.01,2.97,3.89,6.99,6.93,9.52,11.17.89,1.49,2.78,1.57,3.51,3.12.2.43.94.54.91,1.21Z"/>
      <path class="cls-37" d="m240.71,111.1c.31,2.53-.56,3.82-1.06,5.22-.41,1.15-1.09,1.99-2.28,1.75-1.03-.21-1.48-1.39-1.48-2.29,0-1.58.2-3.21.64-4.72.39-1.37,1.59-1.97,3.05-1.79,1.86.24,1.12,1.72,1.14,1.83Z"/>
    </g>
  </g>
</svg>