<?xml version="1.0" encoding="UTF-8"?>
<svg id="Layer_2" data-name="Layer 2" xmlns="http://www.w3.org/2000/svg" viewBox="0 0 1193.16 235.36">
  <defs>
    <style>
      .cls-1 {
        fill: #929e38;
        stroke-width: 0px;
      }
    </style>
  </defs>
  <g id="Bush_1" data-name="Bush 1">
    <path class="cls-1" d="m121.77,209.1s126.69-13.97,129.01-35.47c2.32-21.5-12.15-16.81-35.51-10.5-23.36,6.31-36,14.81-36,14.81,0,0,65.9-28.9,58.53-39.66s-45.33,9.63-45.33,9.63c0,0,36.83-29.46,27.2-45.33-9.63-15.86-83.86,49.55-83.86,49.55,0,0-40.47,26.11-68.63,21.18-30.33-5.3-43.5-59.21-19.76-104.73,15.42-29.57,55.8-5.73,64.84-28.33C121.31,17.66,84.74-2.4,61.27.23,37.8,2.86,2.67,18.73.4,91.25s4.53,109.92,33.43,117.85,87.94,0,87.94,0Z"/>
  </g>
  <g id="Bush_3" data-name="Bush 3">
    <path class="cls-1" d="m1192.6,52.79c2.54-5.67-4.19-10.93-9.92-13.34-14.88-6.26-30.41-10.98-46.26-14.06-23.58-4.58-49.04-5.28-70.58,5.35-21.54,10.63-37.55,35.1-32.21,58.52-7.56-1.87-12.15-9.33-18.39-13.99-9.64-7.21-23.33-7.31-34.36-2.5-11.03,4.81-19.71,13.85-26.61,23.72-5.12,7.32-9.58,15.97-8.29,24.81,1.29,8.84,10.82,16.74,19.06,13.29-33.98,12.44-69.21,31.43-83.04,64.86-2.87,6.92-4.56,15.27-.54,21.6,3.38,5.32,9.85,7.67,15.95,9.26,10.69,2.78,21.69,4.28,32.73,4.82,12.52.61,25.06-.02,37.55-1.08,47.34-4.04,94.12-14.46,138.7-30.88,25.15-9.26,51.38-22.05,63.74-45.83,17.22-33.12,1.92-76.86,21.27-108.78"/>
  </g>
</svg>