<?xml version="1.0" encoding="UTF-8"?>
<svg id="Layer_2" data-name="Layer 2" xmlns="http://www.w3.org/2000/svg" viewBox="0 0 308.86 318.41">
  <defs>
    <style>
      .cls-1 {
        fill: #757f28;
      }

      .cls-1, .cls-2, .cls-3 {
        stroke-width: 0px;
      }

      .cls-2 {
        fill: #a9b03c;
      }

      .cls-3 {
        fill: #929e38;
      }
    </style>
  </defs>
  <g id="Bush_4" data-name="Bush 4">
    <g>
      <path class="cls-1" d="m211.6,176.45s66.07-109,50.43-123.93c-15.64-14.93-20.73-.59-29.95,21.78-9.22,22.37-10.18,37.57-10.18,37.57,0,0,17.21-69.87,4.18-70.58-13.02-.71-19.96,41.82-19.96,41.82,0,0-.94-47.15-19.39-49.17-18.45-2.02-11.76,96.69-11.76,96.69,0,0-3.93,48-24.99,67.33-22.67,20.83-73.45-1.55-95.1-48.1-14.06-30.24,29.43-47.75,17.01-68.68-12.42-20.94-50.6-4.14-62.81,16.08-12.2,20.22-21.01,57.75,35.14,103.71,56.15,45.96,89.95,63.34,113.84,45.25,23.89-18.09,53.55-69.75,53.55-69.75Z"/>
      <path class="cls-3" d="m179.6,209.1s126.69-13.97,129.01-35.47c2.32-21.5-12.15-16.81-35.51-10.5-23.36,6.31-36,14.81-36,14.81,0,0,65.9-28.9,58.53-39.66s-45.33,9.63-45.33,9.63c0,0,36.83-29.46,27.2-45.33-9.63-15.86-83.86,49.55-83.86,49.55,0,0-40.47,26.11-68.63,21.18-30.33-5.3-43.5-59.21-19.76-104.73,15.42-29.57,55.8-5.73,64.84-28.33C179.15,17.66,142.57-2.4,119.1.23c-23.47,2.63-58.6,18.5-60.87,91.02s4.53,109.92,33.43,117.85,87.94,0,87.94,0Z"/>
      <path class="cls-2" d="m36.84,219.99c-4.89-17.37-9-34.95-12.31-52.69-3.57-19.18-5.85-40.4,4.49-56.94,1.51-2.42,3.41-4.79,6.07-5.83,7.9-3.09,14.4,6.71,17.28,14.69,9.86,27.35,19.72,54.71,29.58,82.06-.18-18.54-.36-37.13,1.67-55.55,1.64-14.84,6.13-31.49,19.44-38.27,2.65-1.35,5.72-2.23,8.61-1.51,5.73,1.44,8.14,8.11,9.48,13.85,6.29,26.93,9.08,54.67,8.28,82.31,1.42-8.81,2.85-17.62,4.27-26.43,1.19-7.36,2.49-15.01,6.78-21.11,4.29-6.1,12.5-10.14,19.37-7.26,8.74,3.67,10.31,15.47,8.6,24.79-1.71,9.32-5.33,19.03-2.12,27.95-1.34-12.99,5.96-26.46,17.59-32.41,3.05-1.56,6.87-2.59,9.78-.8,2.67,1.64,3.6,5.04,4.12,8.13,1.89,11.29,1.33,22.97-1.62,34.03.45-7.65,1.39-15.61,5.54-22.06,4.14-6.45,12.36-10.89,19.61-8.4-.07,12.07-.13,24.13-.2,36.2.07-7.57.24-15.52,4.02-22.09,3.78-6.56,12.46-10.95,19.15-7.39,1.65,13.69.14,27.76-4.37,40.79,4.06-22.62,14.05-44.15,28.71-61.86,3.53-4.26,7.48-8.42,12.56-10.61,5.08-2.19,11.55-1.98,15.56,1.83,6.02,5.73,3.78,15.63,1.1,23.49-4.02,11.8-8.04,23.6-12.06,35.41-3.2,9.4-6.62,19.16-13.67,26.15-9.32,9.24-23.13,11.92-36.11,13.82-46.82,6.88-94.27,9.4-141.56,7.51-8.8-.35-17.76-.89-26.02-3.96-8.27-3.08-15.43-8.56-21.8-14.66-7.54-7.21-14.35-19.12-7.88-27.31"/>
      <path class="cls-3" d="m208.55,300.88c7.66-10.07,14.82-20.44,21.45-31.08,7.17-11.5,13.93-24.59,10.66-37.36-.48-1.87-1.24-3.79-2.86-5.01-4.81-3.65-11.77,1.24-15.73,5.73-13.58,15.4-27.16,30.8-40.74,46.2,4.63-11.81,9.27-23.66,12.31-35.87,2.45-9.84,3.33-21.43-4.39-28.59-1.54-1.43-3.49-2.64-5.7-2.79-4.38-.29-7.7,3.46-10.04,6.85-10.96,15.88-19.66,33.03-25.81,50.87,1.14-5.94,2.27-11.87,3.41-17.81.95-4.96,1.89-10.12.35-14.93-1.54-4.81-6.33-9.13-11.88-8.74-7.04.49-11.01,7.71-12.07,14.03-1.06,6.32-.87,13.3-5.29,18.32,4.1-8.02,2.22-18.18-4.51-24.45-1.77-1.64-4.2-3.11-6.69-2.58-2.28.48-3.76,2.46-4.87,4.33-4.07,6.81-6.52,14.41-7.12,22.1,1.55-4.99,2.81-10.27,1.46-15.28-1.35-5-6.05-9.58-11.76-9.52-2.88,7.73-5.76,15.46-8.65,23.18,1.79-4.86,3.6-9.98,2.53-14.97-1.06-5-6.12-9.64-11.68-8.78-4.48,8.41-6.84,17.72-6.82,27.01,2.63-15.32.83-31.21-5.19-45.63-1.45-3.47-3.22-6.97-6.26-9.44-3.04-2.48-7.65-3.71-11.4-2.12-5.63,2.39-6.46,9.19-6.48,14.79-.04,8.4-.07,16.8-.11,25.19-.03,6.69,0,13.65,3.28,19.62,4.32,7.88,13.39,12.52,22.06,16.49,31.29,14.31,64.08,25.98,97.82,34.79,6.28,1.64,12.72,3.2,19.28,2.98,6.57-.22,12.94-2.2,18.91-4.75,7.06-3.01,14.74-9.19,12.17-15.79"/>
    </g>
  </g>
</svg>