<?xml version="1.0" encoding="UTF-8"?>
<svg id="Layer_2" data-name="Layer 2" xmlns="http://www.w3.org/2000/svg" viewBox="0 0 303.82 187.36">
  <defs>
    <style>
      .cls-1 {
        fill: #929e38;
        stroke-width: 0px;
      }
    </style>
  </defs>
  <g id="Bush_4" data-name="Bush 4">
    <path class="cls-1" d="m290.84,111.62c4.51-17.75,8.14-35.56,10.9-53.33,2.98-19.22,4.44-40.13-7.66-53.86-1.77-2.01-3.96-3.89-6.92-4.33-8.78-1.29-15.41,9.51-18.17,17.81-9.45,28.42-18.9,56.84-28.35,85.26-.7-17.88-1.4-35.82-4.51-53.12-2.51-13.94-8.22-29.01-23.09-32.72-2.97-.74-6.36-.94-9.48.37-6.19,2.6-8.5,9.53-9.69,15.35-5.57,27.25-7.28,54.55-5.07,80.99-1.98-8.18-3.97-16.36-5.95-24.54-1.66-6.83-3.45-13.92-8.43-18.88-4.98-4.97-14.14-7.11-21.52-2.88-9.37,5.38-10.52,17.08-8.2,25.68,2.32,8.61,6.74,17.19,3.67,26.45.84-12.79-7.8-24.2-20.79-27.47-3.41-.86-7.63-1.04-10.73,1.31-2.84,2.15-3.69,5.61-4.1,8.7-1.52,11.26-.35,22.4,3.42,32.41-.86-7.27-2.28-14.73-7.11-20.06-4.84-5.33-14.03-7.87-21.83-3.93.66,11.6,1.31,23.2,1.97,34.8-.44-7.27-1.01-14.89-5.46-20.41s-14.15-7.9-21.28-3.06c-1.14,13.53,1.19,26.75,6.75,38.34-5.53-20.92-17.49-39.52-34.35-53.46-4.06-3.35-8.58-6.52-14.23-7.55s-12.72.54-16.91,5.06c-6.3,6.79-3.38,15.85-.07,22.85,4.96,10.51,9.92,21.02,14.89,31.53,3.95,8.37,8.16,17.04,16.2,22.27,10.63,6.92,25.85,6.57,40.12,5.65,51.48-3.3,103.46-10.94,155.03-22.77,9.6-2.2,19.36-4.62,28.24-9.33,8.88-4.71,16.45-11.51,23.12-18.73,7.89-8.54,14.75-21.45,7.29-27.96"/>
  </g>
</svg>