<?xml version="1.0" encoding="UTF-8"?>
<svg id="Layer_2" data-name="Layer 2" xmlns="http://www.w3.org/2000/svg" viewBox="0 0 388.09 302.37">
  <defs>
    <style>
      .cls-1 {
        fill: #757f28;
      }

      .cls-1, .cls-2, .cls-3 {
        stroke-width: 0px;
      }

      .cls-2 {
        fill: #a9b03c;
      }

      .cls-3 {
        fill: #929e38;
      }
    </style>
  </defs>
  <g id="Bush_4" data-name="Bush 4">
    <g>
      <path class="cls-1" d="m40.66,163.94c-10.89-34.14-21.9-69.06-21.01-104.88.24-9.86,4.79-22.73,14.61-21.8,2.86.27,5.45,1.82,7.72,3.58,18.43,14.3,20.21,41.76,34.82,59.95-6.03-24.19-9.25-49.07-9.58-74-.09-7.17.79-15.67,7.03-19.19,8.73-4.93,18.65,4.21,23.85,12.77,7.52,12.38,13.42,25.75,17.51,39.64-3.65-19.24-6.5-41.64,6.62-56.18,2.32-2.57,5.96-4.89,9.05-3.32,1.92.97,2.89,3.13,3.65,5.15,4.48,11.9,6.76,24.63,6.7,37.35-3.89-9.41-.41-20.82,6.88-27.93,7.29-7.11,17.69-10.32,27.87-10.67,6.78-.23,14.04.9,19.09,5.42,6.13,5.49,7.49,14.45,8.08,22.65,3.78,52.33-8.19,104.37-20.08,155.47-3.47,14.93-7.91,31.3-20.69,39.77-6.31,4.18-13.99,5.86-21.55,6.18-32.65,1.4-61.26-20.5-85.63-42.28-10.06-8.99-20.87-20.69-18.39-33.95"/>
      <path class="cls-3" d="m341.77,31.55c2.54-5.67-4.19-10.93-9.92-13.34-14.88-6.26-30.41-10.98-46.26-14.06-23.58-4.58-49.04-5.28-70.58,5.35-21.54,10.63-37.55,35.1-32.21,58.52-7.56-1.87-12.15-9.33-18.39-13.99-9.64-7.21-23.33-7.31-34.36-2.5-11.03,4.81-19.71,13.85-26.61,23.72-5.12,7.32-9.58,15.97-8.29,24.81,1.29,8.84,10.82,16.74,19.06,13.29-33.98,12.44-69.21,31.43-83.04,64.86-2.87,6.92-4.56,15.27-.54,21.6,3.38,5.32,9.85,7.67,15.95,9.26,10.69,2.78,21.69,4.28,32.73,4.82,12.52.61,25.06-.02,37.55-1.08,47.34-4.04,94.12-14.46,138.7-30.88,25.15-9.26,51.38-22.05,63.74-45.83,17.22-33.12,1.92-76.86,21.27-108.78"/>
      <polygon class="cls-2" points="2.51 231.35 2.18 232.52 1.64 233.76 1.66 234.93 3.12 235.76 3.01 236.95 2.93 238.17 2.95 239.38 4.35 240.06 4.16 241.37 4.07 242.69 6.12 242.92 5.06 244.81 6.18 245.49 6.56 246.62 7.34 247.49 8.53 248.03 9.22 248.93 10.54 249.26 10.61 250.73 11.67 251.27 12.94 251.56 13.52 252.58 14.25 253.47 14.53 255 16.12 254.71 16.98 255.47 18.11 255.76 18.44 257.54 20 256.99 21.28 256.88 21.94 258.21 22.75 259.32 24.27 258.38 25.19 259.23 26.26 259.6 27.37 259.8 28.42 260.19 29.31 261.24 30.37 261.63 31.63 261.23 32.81 261.16 33.64 262.46 34.98 261.73 36.12 261.79 37.29 261.75 38.45 261.73 39.12 263.7 40.56 262.5 41.7 262.56 42.56 263.83 43.56 264.49 44.88 263.77 45.67 265.36 47.12 264.02 48.07 264.92 49.36 264.24 50.36 264.91 51.29 265.93 52.66 264.91 53.51 266.33 54.46 267.25 55.78 266.39 56.94 266.35 58.14 266.03 59.03 267.33 60.01 268.19 61.39 266.93 62.27 268.3 63.35 268.65 64.66 267.73 65.67 268.44 66.81 268.49 68.05 267.94 68.95 269.26 70.11 269.11 71.35 268.54 72.22 270.08 73.33 270.28 74.64 269.27 75.58 270.45 76.83 269.76 77.92 270.06 78.79 271.68 80.13 270.42 81.14 271.21 82.27 271.29 83.52 270.55 84.59 270.93 85.48 272.57 86.74 271.74 87.91 271.51 88.77 273.34 90.04 272.43 91.07 273.14 92.15 273.5 93.24 273.8 94.58 272.41 95.71 272.39 96.81 272.66 97.92 272.77 98.85 274.24 99.95 274.51 101.1 274.4 102.37 273.38 103.33 274.65 104.51 274.31 105.55 274.98 106.69 274.92 107.89 274.41 108.82 276.04 109.97 275.84 111.28 274.43 112.31 275.23 113.32 276.25 114.45 276.25 115.54 276.58 116.65 276.75 117.76 276.95 119.02 275.83 119.98 277.34 121.13 277.17 122.35 276.32 123.51 276.04 124.51 277.25 125.57 277.82 126.88 276.22 127.97 276.56 128.98 277.71 130.16 277.25 131.26 277.52 132.39 277.43 133.42 278.35 134.67 277.25 135.65 278.65 136.74 278.98 137.89 278.82 139.09 278.12 140.2 278.29 141.31 278.45 142.38 278.99 143.43 279.84 144.57 279.68 145.75 279.14 146.9 278.88 147.89 280.34 149.1 279.53 150.25 279.25 151.26 280.54 152.48 279.48 153.48 280.82 154.68 280.12 155.73 280.92 156.93 280.12 158.02 280.58 159.11 280.97 160.31 280.04 161.39 280.69 162.57 279.99 163.69 279.96 164.69 281.58 165.88 280.78 166.93 281.8 168.15 280.54 169.16 282.19 170.29 282.05 171.52 280.49 172.6 281.15 173.64 282.51 174.79 282.07 175.92 282.04 177.1 280.99 178.16 282.3 179.33 281.33 180.38 282.86 181.54 281.98 182.64 282.66 183.83 281.09 184.88 282.75 186.05 281.74 187.17 281.78 188.27 282.28 189.42 281.34 190.54 281.58 191.62 283.15 192.74 283.07 193.87 282.91 195 282.45 196.12 282.55 197.23 283.36 198.36 283.16 199.49 282.7 200.61 283.04 201.73 281.87 202.86 282.63 203.98 282.72 205.1 282.06 206.22 282.01 207.35 282.55 208.46 282.29 209.58 281.81 210.72 282.18 211.83 281.61 212.95 281.57 214.13 283.19 215.25 282.81 216.33 281.56 217.46 281.82 218.62 282.49 219.71 281.58 220.87 282.23 222.01 282.55 223.16 282.81 224.2 281.37 225.34 281.56 226.45 281.31 227.61 281.73 228.78 282.23 229.86 281.52 230.93 280.74 232.09 281.11 233.29 281.93 234.38 281.49 235.48 281.17 236.55 280.44 237.68 280.41 238.74 279.77 240.04 281.37 241 279.72 242.24 280.71 243.4 280.94 244.39 279.71 245.48 279.27 246.66 279.69 247.82 279.88 249 280.29 249.91 278.49 251.12 279.03 252.36 279.85 253.31 278.47 254.5 278.8 255.52 277.99 256.6 277.62 257.81 278.13 259.09 279.07 260.1 278.2 261.07 277.09 262.24 277.24 263.26 276.53 264.68 278.24 265.52 276.38 266.62 276.18 267.96 277.36 268.89 276.1 269.96 275.67 271.32 276.91 272.4 276.53 273.28 275.04 274.4 274.94 275.77 276.14 276.6 274.45 277.95 275.55 278.96 274.83 279.95 274.02 281.1 274.04 282.37 274.6 283.36 273.81 284.46 273.59 285.39 272.51 286.54 272.51 287.75 272.8 288.94 272.98 289.98 272.47 291.27 273.09 292.28 272.42 293.12 271.02 294.35 271.37 295.6 271.75 296.42 270.3 297.57 270.29 298.56 269.58 299.85 270.15 301.2 270.95 301.86 268.87 303.28 269.93 304.16 268.78 305.31 268.75 306.32 268.14 307.44 267.97 308.7 268.37 309.55 267.13 310.97 268.14 312.13 268.15 312.96 266.84 314.29 267.45 315.1 266.13 316.43 266.75 317.59 266.69 318.38 265.3 319.47 265.04 320.89 265.93 321.62 264.35 323.05 265.29 324 264.51 324.95 263.71 326.02 263.34 327.09 263.01 328.2 262.77 329.35 262.7 330.2 261.58 331.28 261.25 332.46 261.3 333.86 262.04 334.55 260.42 336.07 261.55 336.73 259.82 337.86 259.68 338.92 259.3 340.15 259.48 341.13 258.88 342.16 258.46 343.35 258.46 344.27 257.78 345.17 257.12 346.08 256.53 347.29 256.28 347.32 254.76 349.12 254.78 348.72 253.16 349.44 252.3 349.9 251.29 350.82 250.4 350.21 249.04 351.1 248.09 351.63 247.04 352.33 246.05 352.66 244.97 351.87 243.64 352.33 242.59 352.5 241.48 353.49 240.55 353.27 239.35 354.08 238.38 354.06 237.22 354.07 236.08 355.06 235.14 353.91 233.75 354.41 232.71 355.5 231.79 355.97 230.73 355.49 229.49 355 228.25 355.41 227.18 355.99 226.16 355.34 224.88 357.01 224.07 356.07 222.74 357.18 221.81 356.31 220.5 357.47 219.58 357.68 218.48 358.32 217.45 358.11 216.27 358.16 215.14 358.54 214.06 357.78 212.79 357.76 211.65 358.01 210.55 359.26 209.63 360.01 208.62 358.97 207.3 359.31 206.22 359.61 205.13 360.49 204.14 360.35 202.98 360.14 201.81 360.75 200.77 359.92 199.5 360.67 198.48 361.51 197.48 361.4 196.32 360.59 195.06 361.18 194.02 361.48 192.93 362.75 191.98 362.3 190.78 361.7 189.56 363.09 188.63 362.72 187.44 362.08 186.21 361.89 185.05 362.08 183.95 362.34 182.85 363.15 181.83 362.68 180.63 363.09 179.56 362.82 178.39 363.95 177.4 363.44 176.21 364.79 175.25 364.21 174.04 364.07 172.89 365.48 171.93 364.35 170.67 363.99 169.49 364.04 168.37 365.73 167.44 365.4 166.27 364.71 165.06 366.08 164.08 365.18 162.85 366.57 161.88 364.92 160.57 366.54 159.61 365.78 158.4 366.3 157.33 366.51 156.22 367.11 155.15 366.61 153.98 366.92 152.88 366.75 151.73 367.53 150.68 366.76 149.48 366.14 148.3 368.07 147.34 367.21 146.14 367.86 145.07 366.48 143.82 367.95 142.82 367.95 141.69 367.8 140.55 367.08 139.37 367.88 138.31 367.57 137.16 368.38 136.09 368.38 134.97 367.86 133.81 368.53 132.73 368.52 131.6 367.9 130.43 369.36 129.4 369.25 128.27 367.86 127.06 367.84 125.93 369.06 124.88 368.4 123.72 368.23 122.59 368.73 121.49 368.62 120.36 369.68 119.29 369.9 118.18 369.72 117.04 368.45 115.86 369.47 114.78 370.06 113.69 369.68 112.55 368.92 111.39 368.89 110.27 370.44 109.2 370.03 108.06 369.05 106.9 370.53 105.83 369.63 104.68 369.09 103.55 369.83 102.45 369.46 101.33 370.76 100.2 368.98 99.1 370.46 97.94 368.86 96.89 370.32 95.68 369.17 94.64 368.75 93.57 369.78 92.32 368.91 91.31 369.36 90.09 369.69 88.86 367.53 88.22 367.29 87.15 367.75 85.86 367.61 84.72 367.6 83.5 366.58 82.72 365.64 81.95 365.68 80.65 364.97 79.76 364.62 78.62 363.99 77.66 362.79 77.22 361.95 76.5 361.04 75.87 360.51 74.75 359.05 74.92 358.89 73.09 357.22 73.8 356.95 71.82 355.83 71.5 354.57 71.61 353.63 70.84 352.14 72.08 351.26 71.05 350.08 71.42 349.07 70.73 348.02 69.91 346.89 69.92 345.75 69.86 344.69 71.42 343.46 69.72 342.36 70.12 341.26 70.44 340.4 71.75 339.24 71.62 338.03 71.41 336.75 71.16 336.38 73.3 334.83 72.49 334.12 73.58 333.39 74.54 332.24 74.74 331.16 75.09 329.69 74.92 328.82 75.66 328.85 77.51 327.38 77.48 326.94 78.66 326.06 79.33 324.71 79.58 324.05 80.5 323.38 81.41 323.43 82.88 322.07 83.23 321.84 84.44 321.62 85.63 319.54 85.59 320.39 87.43 318.81 87.79 318.92 89.13 318.92 90.37 317.88 91.07 317.52 92.12 316.02 92.69 316.55 94.12 315.75 94.99 315.12 95.95 315.6 97.29 315.63 98.44 314.63 99.3 314.89 100.51 313.23 101.24 312.83 102.29 313.03 103.49 313.07 104.63 313.22 105.79 312.05 106.72 312.27 107.88 311.64 108.92 312.18 110.12 312.22 111.24 312.58 112.39 312.22 113.47 312.19 114.58 311.59 115.64 311.01 116.71 312.31 117.91 311.19 118.96 311.25 120.07 311.8 121.21 310.63 122.27 310.57 123.38 311.98 124.55 310.46 125.6 310.65 126.72 312 127.88 312.07 129 311.92 130.12 312.11 131.24 310.41 132.33 310.68 133.45 311.95 134.6 311.85 135.72 310.74 136.82 310.3 137.94 310.22 139.06 311.81 140.2 311.41 141.31 310.87 142.43 310.36 143.55 311.35 144.67 310.24 145.79 311.05 146.91 311.24 148.03 309.95 149.16 311.7 150.27 311.39 151.39 310.85 152.52 311.44 153.63 311.29 154.76 310.8 155.88 311.11 157 311.58 158.11 311.76 159.23 310.88 160.37 310.83 161.49 310.33 162.62 311.21 163.72 311.81 164.83 311.25 165.96 310.74 167.1 311.62 168.2 312.23 169.3 311.34 170.45 311.43 171.57 311.81 172.67 310.72 173.83 311.34 174.93 310.96 176.07 311.51 177.17 311.43 178.3 311.65 179.41 310.91 180.57 312.52 181.61 311.45 182.79 311.56 183.9 311.92 185 312.26 183.85 311.33 182.78 310.71 181.68 312.22 180.44 310.96 179.4 311.45 178.23 311.68 177.08 311.37 175.96 310.88 174.86 311.02 173.72 311.57 172.54 310.92 171.45 311.87 170.25 310.36 169.22 310.06 168.11 310.35 166.95 309.98 165.84 311.48 164.6 310.86 163.51 310.69 162.38 310.32 161.27 309.61 160.19 309.9 159.03 310.03 157.89 310.38 156.73 309.97 155.62 309.39 154.53 309.53 153.38 309.7 152.23 310.39 151.05 309.78 149.96 310.18 148.8 309.34 147.72 309.16 146.6 310.01 145.4 309.07 144.33 309.21 143.19 308.44 142.1 307.93 141 309.15 139.78 308.46 138.7 308.87 137.53 309.48 136.35 307.47 135.36 309.17 134.11 307.66 133.08 308.42 131.89 307.72 130.8 308.44 129.61 307.59 128.54 307.13 127.44 308.15 126.23 307.15 125.16 307.53 124 308.3 122.81 306.66 121.79 306.52 120.67 307.67 119.45 308.23 118.28 308.16 117.14 306.73 116.11 306.17 115.01 307.27 113.8 306.01 112.75 306.69 111.61 306.34 110.54 306.14 109.48 306.27 108.36 306.86 107.1 306.71 105.95 305.47 105.19 304.96 104.23 304.9 102.97 304.14 102.09 302.67 102.04 301.99 101.22 301.16 100.53 300.51 99.19 298.91 100.55 298.26 98.44 296.98 99.18 295.85 99.46 294.75 99.51 293.55 98.73 292.61 100.03 291.54 100.25 290.45 100.4 289.4 100.72 288.36 101.08 286.85 100.4 285.98 101.24 285.42 102.56 283.92 102.24 283.54 103.69 281.98 103.46 280.96 104.03 281.22 106.05 280.33 106.69 279.13 107.05 278.66 108.13 277.67 108.74 276.32 109.12 275.86 110.19 275.46 111.29 274.96 112.3 275.17 113.73 273.25 113.92 272.68 114.91 271.95 115.82 271.9 117.05 271.88 118.28 270.94 119.11 270.05 119.99 271.16 121.58 270.48 122.53 269.3 123.35 269.59 124.61 269.53 125.75 268.65 126.71 268.37 127.81 268.26 128.94 267.9 130.04 267.66 131.15 268.86 132.42 268.66 133.53 267.44 134.57 268.82 135.79 268.44 136.9 267.98 138.01 267.21 139.13 268.76 140.28 266.95 141.4 267.18 142.54 267.93 143.67 268.37 144.79 267.5 145.94 268.52 147.04 267.92 148.19 268.31 149.31 268.61 150.43 267.4 151.62 267.19 152.76 267.52 153.88 267.4 155.01 269.18 156.07 267.89 157.26 268.11 158.38 269.13 159.48 268.92 160.62 269.02 161.76 268.87 162.89 268.87 164.03 268.75 165.16 267.69 166.28 268.72 167.43 268.52 168.56 268.75 169.71 268.64 170.84 268.51 171.97 267.23 172.98 268.01 174.4 266.97 173.33 266.77 172.24 266.32 171.21 267.22 169.76 266.57 168.8 266.22 167.74 265.88 166.67 264.76 165.89 263.98 164.99 265.26 163.32 264.81 162.3 264.16 161.35 263.22 160.52 263.68 159.12 263.1 158.15 261.53 157.62 261.46 156.43 261.65 155.12 260.6 154.38 260.37 153.25 258.75 152.79 259.75 151.07 258.81 150.29 258.64 149.12 257.14 148.65 256.86 147.53 255.69 146.91 256.04 145.44 255.6 144.41 254.51 143.76 254.81 142.29 253.24 141.93 253.08 140.72 252.16 139.98 252.49 138.46 252.19 137.32 250.36 137.19 249.42 136.48 250.36 134.5 248.73 134.26 249.03 132.69 248.13 131.95 247.03 131.37 245.95 130.79 244.95 130.16 244.79 128.88 244.83 127.44 243.89 126.77 243.16 125.93 242.86 124.7 240.87 125.05 241.21 123.15 239.58 123.25 239.63 121.52 237.82 121.97 236.77 121.58 236.47 120.08 235.27 119.93 234.27 119.49 233.44 118.65 232.4 118.26 231.24 118.36 230.21 117.92 229.14 117.31 227.98 117.06 226.81 117.06 225.87 118.29 224.89 118.81 223.69 118.64 222.58 118.84 221.79 119.75 221.17 120.82 219.8 120.73 218.66 121.09 218.27 122.33 217.86 123.46 216.04 123.28 215.7 124.49 215.78 125.98 215.13 126.86 214.02 127.43 213.18 128.22 212.16 128.93 212.07 130.17 210.68 130.73 211.37 132.32 209.9 132.9 211.05 134.59 209.52 135.2 209.83 136.49 209.16 137.45 209.24 138.63 208.35 139.55 209.06 140.87 207.24 141.62 207.54 142.83 207.96 144.04 207.78 145.14 206.47 146.11 207.03 147.3 206.31 148.37 207.23 149.57 206.94 150.67 207.03 151.8 206.59 152.91 206.38 154.03 207.51 155.16 207.49 156.27 207.44 157.39 206.14 158.55 206.26 159.68 206.49 160.79 207.54 161.85 207.78 162.96 207.07 164.14 206.62 165.31 206.43 166.46 208.1 167.42 208.47 168.51 206.94 169.81 207.88 170.84 208.57 171.89 207.8 173.12 208.52 174.16 207.6 175.41 208.53 176.54 208.02 175.38 208.03 174.12 206.52 173.56 207.01 172.08 206.36 171.12 206.2 169.93 205.73 168.89 205.47 167.75 204.52 166.93 204.35 165.75 203.7 164.79 201.89 164.37 202.92 162.64 201.22 162.15 201.39 160.82 200.37 160.03 199.71 159.08 199.81 157.77 199.63 156.6 199.72 155.3 197.72 154.96 197.85 153.64 197.47 152.56 197.51 151.28 196.2 150.63 196.25 149.34 194.93 148.69 195.51 147.17 195.37 145.98 194.93 144.92 193.36 144.44 193.54 143.13 192.11 142.61 191.41 141.74 192.5 139.91 190.39 139.83 190.77 138.33 189.59 137.77 189.12 136.78 188.13 136.15 188.34 134.6 187.76 133.62 186.48 133.3 185.84 132.38 184.7 132.04 183.93 131.27 183.49 129.93 182.53 129.3 181.08 129.79 180.41 128.37 179.24 128.27 178.01 128.9 176.95 128.34 175.89 129.47 174.88 129.58 173.81 129.48 172.8 129.76 171.4 129.23 170.75 130.4 169.39 130.31 168.69 131.27 167.26 131.34 166.88 132.6 166.19 133.5 165.81 134.62 164.77 135.23 164.38 136.31 164.12 137.44 164.01 138.63 163.63 139.64 162.48 140.3 162.19 141.37 160.72 141.99 160.31 143.04 160.6 144.32 161.03 145.6 160.28 146.53 159.55 147.5 158.98 148.53 159.71 149.79 159.55 150.88 158.25 151.85 159.11 153.08 159.68 154.26 158.74 155.33 159.12 156.49 159.26 157.63 159.07 158.75 159.33 159.88 159.08 161.01 158.74 162.14 158.75 163.27 158.87 164.4 158.35 165.56 159.69 166.63 159.84 167.75 158.18 169 159.08 170.07 158.99 171.22 158.33 172.44 158.63 173.55 159.73 174.56 160.11 175.64 159.13 176.95 159.46 178.05 159.93 179.13 161.44 179.99 160.85 181.26 160.21 182.56 161.45 183.45 160.62 184.82 161.63 185.74 162.15 186.77 162.43 187.87 162.98 188.89 163.16 190.02 164.1 190.9 164.2 192.06 165 193.26 164.49 191.93 163.69 191.03 162.07 190.46 162.76 188.97 162 188.06 162.12 186.78 160.76 186.14 161.21 184.7 160.12 183.96 159.11 183.19 158.41 182.28 159.02 180.75 158.85 179.58 157.51 178.98 157.91 177.52 156.88 176.78 155.37 176.29 156.43 174.46 154.49 174.21 154.22 173.08 153.29 172.31 153.88 170.68 153.46 169.61 152.45 168.89 152.56 167.5 151.42 166.86 150.87 165.87 150.32 164.87 149.69 163.93 149.17 162.91 148.41 162.06 147.52 161.3 147.05 160.24 145.79 159.75 145.26 158.75 145.3 157.29 144.5 156.46 143.35 155.94 142.13 155.5 141.83 154.26 140.98 153.51 140.76 152.15 139.39 151.91 139.2 150.47 138.57 149.46 136.69 149.88 136.6 148.21 135.77 147.39 134.61 147.04 133.5 146.64 132.75 145.68 131.49 145.59 130.12 145.86 129.33 144.92 128.22 144.76 127.16 144.48 126.28 143.13 125.13 142.85 123.93 143.8 122.81 143.58 121.63 143.34 120.61 144.04 119.41 143.97 118.1 143.7 117.14 144.42 116.71 146.09 114.92 145.18 114.55 146.74 113.58 147.3 112.48 147.72 111.62 148.46 110.7 149.15 110.92 150.88 109.96 151.48 109.41 152.44 107.36 152.34 106.85 153.38 106.71 154.63 105.77 155.4 106.47 157.03 104.92 157.53 105.69 159.08 103.95 159.59 103.91 160.77 102.96 161.65 102.94 162.84 103.73 164.21 102.18 164.99 102.99 166.31 103.11 167.47 103.2 168.6 102.19 169.57 101.92 170.67 101.68 171.77 102.34 172.94 100.86 173.99 101.16 175.13 101.13 176.26 101.77 177.38 101.12 178.53 102.28 179.59 102.85 180.65 102.34 181.81 101.94 182.99 102.16 184.09 101.55 185.33 102.51 186.31 102.43 187.47 103.27 188.43 103.63 189.5 103.35 190.73 103.8 191.78 103.46 193.07 103.87 194.14 105.9 194.59 105.79 195.82 106 196.94 106.48 197.95 107.2 198.84 107.21 200.09 107.67 201.12 108.4 202 109.39 203.44 108.12 202.02 109.03 200.48 107.58 199.84 108.05 198.4 106.64 197.79 106.93 196.4 106.09 195.55 106.3 194.15 104.19 194.02 103.8 192.95 104.39 191.28 103.86 190.26 102.34 189.89 102.77 188.24 101.42 187.78 100.9 186.75 99.93 186.06 99.76 184.76 98.88 184 97.3 183.81 97.38 182.28 97.07 181.04 95.63 180.79 95.63 179.26 93.54 179.65 93.84 177.79 92.37 177.65 91.46 176.96 91.29 175.49 90.3 174.88 89.88 173.62 88.13 173.92 87.75 172.6 86.49 172.36 86.12 170.96 84.88 170.72 84.29 169.54 82.94 169.53 82.08 168.75 81.48 167.5 80.24 167.33 78.83 167.61 78.06 166.58 77.22 165.61 75.69 166.42 75.06 164.7 73.57 165.72 72.64 164.73 71.32 165.67 70.31 164.94 69.27 163.58 68.08 163.74 66.93 164.19 65.73 163.97 64.6 164.33 63.7 165.44 62.38 164.99 61.64 166.18 60.33 166.02 59.31 166.55 58.36 167.18 57.18 167.54 57.28 169.36 55.84 169.5 54.75 170.06 55.01 171.7 54.78 172.86 52.7 172.86 52.11 173.85 51.48 174.83 52.24 176.42 50.69 176.99 51.15 178.38 50.76 179.42 50.26 180.43 50.48 181.65 50.7 182.84 49.99 183.8 49.17 184.77 48.74 185.83 49.21 187.04 49.67 188.22 48.59 189.2 49.41 190.41 48.03 191.39 49.06 192.6 48.72 193.68 47.47 194.73 48.51 195.9 47.22 196.97 48.19 198.12 47.88 199.23 48.36 200.35 48.68 201.46 48.56 202.57 47.34 203.72 48.15 204.81 48.85 205.9 48.48 207.03 48.34 208.16 47.45 209.34 47.66 210.45 47.63 211.58 48.37 212.65 49.08 213.71 48.59 214.88 49.44 215.91 48.17 217.18 49.09 218.21 49.55 219.28 48.78 220.51 49.74 221.52 49.06 222.75 50.75 223.64 49.41 224.97 49.99 226.02 50.18 227.12 50.08 228.28 51.63 229.15 50.79 230.43 51.82 231.38 51.02 232.67 51.01 233.82 51.31 234.9 52.06 235.89 51.81 237.09 51.87 238.22 53.29 239.05 52.63 240.34 53.55 241.29 52.75 240.3 52.86 239.11 52.11 238.14 52.09 236.98 51.81 235.89 51.23 234.88 50.3 233.98 51.6 232.42 50.6 231.55 50.55 230.38 50.18 229.31 49.44 228.37 48.6 227.47 49.57 225.94 48.48 225.13 48.61 223.88 48.24 222.81 47.48 221.89 47.04 220.85 46.55 219.83 45.62 219 45.04 218.02 45.15 216.75 43.76 216.14 44.2 214.7 43.18 213.94 42.85 212.85 43.23 211.42 42.58 210.48 42.08 209.47 41.19 208.65 40.25 207.87 40.38 206.53 39.1 205.94 38.59 204.94 38.3 203.82 37.75 202.83 37.21 201.85 36.72 200.83 35.66 200.16 35.06 199.21 35.58 197.56 35.15 196.49 34.55 195.53 32.71 195.39 32.1 194.45 32.07 193.1 31.11 192.4 30.22 191.65 30.08 190.37 29.15 189.65 28.8 188.51 27.79 187.87 27.05 187.01 26.74 185.83 25.15 185.65 24.51 184.8 24.07 183.66 23.21 182.92 22.49 181.84 21.54 180.98 20 182.02 19.15 180.31 17.88 181.15 16.69 180.51 15.74 182.06 14.4 181.26 13.22 181.49 12.14 182.02 11.53 183.22 10.02 183.2 9.71 184.58 9.6 185.91 8.29 186.38 7.27 187.09 6.77 188.09 7.56 189.73 5.95 190.19 5.74 191.31 4.55 192.02 4.1 193.06 4.34 194.35 4.16 195.47 4.24 196.66 3.92 197.71 2.7 198.52 2.17 199.53 2.16 200.69 3.3 202.09 2.72 203.09 2.47 204.16 2.32 205.25 .64 206.11 1.11 207.31 1.72 208.51 2.05 209.65 .1 210.58 0 211.7 .41 212.85 .98 213.97 .81 215.06 1.03 216.15 1.47 217.24 1.78 218.31 .52 219.43 .04 220.55 .24 221.64 .53 222.72 .37 223.83 1.75 224.83 .93 225.99 .41 227.14 1.7 228.13 2.15 229.19 .97 230.41 2.51 231.35"/>
      <path class="cls-3" d="m375.11,226.63c4.51-17.75,8.14-35.56,10.9-53.33,2.98-19.22,4.44-40.13-7.66-53.86-1.77-2.01-3.96-3.89-6.92-4.33-8.78-1.29-15.41,9.51-18.17,17.81-9.45,28.42-18.9,56.84-28.35,85.26-.7-17.88-1.4-35.82-4.51-53.12-2.51-13.94-8.22-29.01-23.09-32.72-2.97-.74-6.36-.94-9.48.37-6.19,2.6-8.5,9.53-9.69,15.35-5.57,27.25-7.28,54.55-5.07,80.99-1.98-8.18-3.97-16.36-5.95-24.54-1.66-6.83-3.45-13.92-8.43-18.88-4.98-4.97-14.14-7.11-21.52-2.88-9.37,5.38-10.52,17.08-8.2,25.68,2.32,8.61,6.74,17.19,3.67,26.45.84-12.79-7.8-24.2-20.79-27.47-3.41-.86-7.63-1.04-10.73,1.31-2.84,2.15-3.69,5.61-4.1,8.7-1.52,11.26-.35,22.4,3.42,32.41-.86-7.27-2.28-14.73-7.11-20.06-4.84-5.33-14.03-7.87-21.83-3.93.66,11.6,1.31,23.2,1.97,34.8-.44-7.27-1.01-14.89-5.46-20.41s-14.15-7.9-21.28-3.06c-1.14,13.53,1.19,26.75,6.75,38.34-5.53-20.92-17.49-39.52-34.35-53.46-4.06-3.35-8.58-6.52-14.23-7.55s-12.72.54-16.91,5.06c-6.3,6.79-3.38,15.85-.07,22.85,4.96,10.51,9.92,21.02,14.89,31.53,3.95,8.37,8.16,17.04,16.2,22.27,10.63,6.92,25.85,6.57,40.12,5.65,51.48-3.3,103.46-10.94,155.03-22.77,9.6-2.2,19.36-4.62,28.24-9.33,8.88-4.71,16.45-11.51,23.12-18.73,7.89-8.54,14.75-21.45,7.29-27.96"/>
    </g>
  </g>
</svg>