<?xml version="1.0" encoding="UTF-8"?>
<svg id="Layer_2" data-name="Layer 2" xmlns="http://www.w3.org/2000/svg" viewBox="0 0 1086.34 288.75">
  <defs>
    <style>
      .cls-1 {
        fill: #757f28;
        stroke-width: 0px;
      }
    </style>
  </defs>
  <g id="Bush_1" data-name="Bush 1">
    <path class="cls-1" d="m211.6,142.55s66.07-109,50.43-123.93c-15.64-14.93-20.73-.59-29.95,21.78-9.22,22.37-10.18,37.57-10.18,37.57,0,0,17.21-69.87,4.18-70.58-13.02-.71-19.96,41.82-19.96,41.82,0,0-.94-47.15-19.39-49.17-18.45-2.02-11.76,96.69-11.76,96.69,0,0-3.93,48-24.99,67.33-22.67,20.83-73.45-1.55-95.1-48.1-14.06-30.24,29.43-47.75,17.01-68.68-12.42-20.94-50.6-4.14-62.81,16.08-12.2,20.22-21.01,57.75,35.14,103.71,56.15,45.96,89.95,63.34,113.84,45.25,23.89-18.09,53.55-69.75,53.55-69.75Z"/>
  </g>
  <g id="Bush_2" data-name="Bush 2">
    <path class="cls-1" d="m922.73,218.73c-10.89-34.14-21.9-69.06-21.01-104.88.24-9.86,4.79-22.73,14.61-21.8,2.86.27,5.45,1.82,7.72,3.58,18.43,14.3,20.21,41.76,34.82,59.95-6.03-24.19-9.25-49.07-9.58-74-.09-7.17.79-15.67,7.03-19.19,8.73-4.93,18.65,4.21,23.85,12.77,7.52,12.38,13.42,25.75,17.51,39.64-3.65-19.24-6.5-41.64,6.62-56.18,2.32-2.57,5.96-4.89,9.05-3.32,1.92.97,2.89,3.13,3.65,5.15,4.48,11.9,6.76,24.63,6.7,37.35-3.89-9.41-.41-20.82,6.88-27.93,7.29-7.11,17.69-10.32,27.87-10.67,6.78-.23,14.04.9,19.09,5.42,6.13,5.49,7.49,14.45,8.08,22.65,3.78,52.33-8.19,104.37-20.08,155.47-3.47,14.93-7.91,31.3-20.69,39.77-6.31,4.18-13.99,5.86-21.55,6.18-32.65,1.4-61.26-20.5-85.63-42.28-10.06-8.99-20.87-20.69-18.39-33.95"/>
  </g>
</svg>