<?xml version="1.0" encoding="UTF-8"?>
<svg id="Layer_2" data-name="Layer 2" xmlns="http://www.w3.org/2000/svg" viewBox="0 0 540.61 209.47">
  <defs>
    <style>
      .cls-1 {
        fill: #fff;
        stroke-width: 0px;
      }
    </style>
  </defs>
  <g id="Clouds6">
    <path class="cls-1" d="m13.27,4.41C20.87.98,29.56.54,38,.26c9.02-.3,18.06-.49,27.07.26,42.46,3.55,82.73,29.56,102.8,66.4,4.6-5.87,14.27-4.51,21.11-.96,17.37,9.01,28.08,29.03,25.55,47.74,3.96-5.78,12.22-7,19.44-6.48,8.61.62,17.29,3.03,24.31,8.04s12.19,12.81,12.73,21.17c3.72-2.62,7.64-5.33,12.23-5.96s10.02,1.54,11.39,5.88c1.32,4.18-1.68,8.65-5.68,10.53-4,1.88-8.69,1.77-13.16,1.46-11.67-.8-23.27-2.7-34.78-4.94-13.83-2.69-27.69-5.92-40.49-11.81-12.8-5.89-24.59-14.66-31.93-26.44-19.34,6.64-40.7-2.19-59.4-11.13-4.48-2.14-9.04-4.37-12.54-7.84-3.49-3.48-5.77-8.5-4.6-13.13-8.87,7.38-22.34,6.19-33.82,3.2-13.12-3.42-25.94-8.77-36.51-17.17C11.17,50.68,2.98,39.02.58,26.06c-.95-5.1-.93-10.59,1.6-15.08S10.29,3.41,15.42,4.89"/>
    <path class="cls-1" d="m454.78,191.11c-6.97-6.48-16.89-9.25-26.4-8.72s-18.64,4.11-26.85,8.94c-2.98,1.75-5.96,3.79-7.63,6.81-1.67,3.02-1.6,7.27,1.03,9.51,2.11,1.79,5.14,1.85,7.91,1.81,21.12-.28,42.24-.56,63.36-.84,9.87-.13,19.77-.26,29.54-1.64,12.92-1.82,25.52-5.84,37.11-11.82,3.97-2.05,8.41-5.46,7.68-9.87-.49-2.95-3.19-4.99-5.89-6.29-15.47-7.45-33.66.02-49.14,7.44,4.07-.77,9.3-3.19,8.35-7.21-.74-3.14-4.75-4.02-7.98-4.1-16.69-.45-33.48,3.6-48.13,11.61"/>
  </g>
</svg>