<?xml version="1.0" encoding="UTF-8"?>
<svg id="Layer_2" data-name="Layer 2" xmlns="http://www.w3.org/2000/svg" viewBox="0 0 1314.43 259.49">
  <defs>
    <style>
      .cls-1 {
        fill: #fff;
        stroke-width: 0px;
      }
    </style>
  </defs>
  <g id="Clouds6">
    <path class="cls-1" d="m38.34,3.2c61.01-11.82,127.94,20.42,156.73,75.5,1.2-5.93,7.91-10.1,13.75-8.55,5.85,1.55,9.61,8.49,7.72,14.24,12.6-4.58,26.83-4.52,39.4.16,1.75.65,3.61,1.51,4.47,3.18,1.7,3.31-1.71,7.09-5.23,8.31-3.51,1.22-7.56,1.31-10.45,3.65,15.59.96,31.17,1.92,46.76,2.88,9.71.6,19.61,1.24,28.67,4.76,9.07,3.53,17.35,10.47,19.96,19.84,23.44.24,47.43.57,69.43,8.66,22,8.1,42.01,25.63,46.44,48.65,9.29-1.57,18.59-3.13,27.88-4.7,6.68-1.13,15.01-1.58,18.68,4.11,4.69,7.27-3.03,16.21-10.47,20.62-19.69,11.66-43.21,16.7-65.95,14.14-2.1-.24-4.3-.52-6.25.29-2.16.9-3.57,2.95-5.06,4.75-9.25,11.14-24.64,14.57-38.86,17.34-16.37,3.18-36.98,4.7-46.03-9.31-.39,14.69-16.97,23.11-31.43,25.77-24.55,4.52-50.98,1.6-72.43-11.16-21.45-12.77-37.13-36.07-37.72-61.02-43.36,14.16-93.57,5.08-129.23-23.35-8.94-7.13-16.97-15.34-24.72-23.76-13.92-15.11-27.43-31.69-32.48-51.6C-5.82,55.98,10.39,21.01,38.77,7.14"/>
    <path class="cls-1" d="m774.02,178.33c-5.79-2.39-12.71-.34-17.46,3.74s-7.7,9.86-10.01,15.69c-2.04,5.15-3.7,10.66-2.97,16.15.72,5.49,4.39,10.91,9.78,12.15,4.63,1.06,9.54-1.16,12.8-4.61,3.26-3.45,5.15-7.95,6.69-12.44-.05,5.82,6.41,9.58,12.19,10.19,16.01,1.69,31.64-13.36,30.56-29.42-2.32,7.28,4.67,14.06,11.3,17.86,18.26,10.44,39.71,14.67,60.73,13.84,21.02-.82,41.65-6.52,60.97-14.83,7.73-3.32,15.29-7.07,22.61-11.21,17.41-9.84,33.51-21.91,48.46-35.2,5.05-4.49,10.01-9.16,14.04-14.58,3.9-5.24,6.89-11.09,9.74-16.96,5.9-12.11,11.44-24.77,12.36-38.21s-3.57-27.97-14.44-35.93c-7.64-5.6-17.62-7.37-27.03-6.3-9.41,1.07-18.34,4.77-26.67,9.28-29.48,15.95-52.92,42.75-64.81,74.09-5.88-5.64-13.15-10.72-21.31-10.72s-16.57,7.24-15.03,15.24c-8.6-6.57-20.72-8.2-30.76-4.16-10.04,4.04-17.63,13.62-19.28,24.32-1.55-5.9-7.45-9.85-13.46-10.91-6.01-1.06-12.16.23-18.1,1.62-11.57,2.71-23.23,5.92-33.37,12.13-10.14,6.21-18.71,15.84-21.18,27.46"/>
    <polyline class="cls-1" points="1019.71 168.51 1021.49 167.55 1022 165.31 1025.12 165.6 1025 162.81 1026.61 161.64 1029.06 161.19 1029.32 158.82 1030.2 157.02 1032.68 156.52 1032.48 153.86 1034.75 153.16 1035.17 151.01 1037.19 150.1 1038.9 148.94 1038.35 146.07 1039.44 144.44 1041.33 143.42 1041.67 141.23 1043.85 140.43 1045.89 139.54 1046.98 137.92 1046.74 135.25 1048.84 134.42 1049.07 132.09 1051.75 131.77 1052.06 129.48 1053.73 128.34 1054.2 126.13 1056.85 125.92 1056.78 123.15 1058.59 122.18 1060.37 121.21 1060.9 118.89 1063.42 118.77 1065.27 117.96 1066.45 116.34 1067.08 113.92 1068.51 112.49 1071.6 113.58 1072.65 111.62 1074.34 110.64 1075.76 109.13 1077.55 108.39 1079.29 107.54 1081.7 108.36 1082.87 106.08 1085.23 107.05 1086.93 106.14 1088.88 106.07 1090.72 105.66 1092.54 105.19 1094.27 104.21 1096.28 104.61 1097.97 103.22 1099.59 101.08 1101.61 101.58 1103.68 102.75 1105.64 103.16 1107.54 103.07 1109.25 100.43 1111.3 102.28 1113.14 100.92 1115 99.69 1116.95 100.24 1118.88 100.44 1120.79 100.15 1122.76 101.62 1124.7 102.12 1126.54 99.76 1128.5 100.84 1130.38 99.86 1132.36 101.65 1134.28 101.08 1135.98 98.93 1137.89 99.19 1140.32 100.62 1142.27 99.79 1142.77 97 1144.82 96.38 1144.46 94.06 1146.86 92.85 1145.79 90.72 1145.32 88.83 1145.89 86.91 1146.68 84.96 1145.21 82.99 1147.18 81.18 1145.57 78.93 1147.47 77.36 1149.34 76.02 1147.89 73.32 1150.28 72.38 1150.89 70.53 1152.04 69 1153.2 67.48 1154.08 65.67 1155.24 64.05 1157.08 63.2 1158.28 61.56 1159.68 60.1 1162.39 60.81 1163.39 58.64 1165.62 58.82 1167.37 58.1 1168.96 56.88 1170.81 56.33 1172.55 55.35 1174.44 54.85 1176.43 54.91 1178.49 56.02 1180.27 54.14 1182.25 55.03 1184.17 55.49 1186.12 54.54 1188.1 53.91 1189.91 55.68 1191.95 54.77 1194.04 53.81 1195.87 54.84 1197.47 56.98 1199.51 56.56 1201.21 57.84 1203.46 56.66 1204.93 58.81 1206.86 59.05 1209.28 57.43 1210.5 60.39 1212.36 60.9 1214.52 60.35 1216.36 60.42 1215.29 58.69 1216.35 56.59 1215.51 54.63 1215.54 52.62 1215.48 50.59 1216.15 48.66 1217.29 46.87 1217.32 44.84 1216.6 42.49 1217.87 40.79 1218.67 38.93 1220.97 37.86 1222.33 36.4 1223.21 34.68 1223.69 32.63 1224.9 31.07 1226.81 30.15 1228.1 28.72 1228.61 26.35 1231.31 26.58 1231.33 23.22 1234.52 24.55 1236.02 23.34 1237.62 22.23 1239.57 21.95 1240.63 18.89 1242.8 19.14 1244.83 19.09 1246.96 20.14 1248.85 19.88 1250.76 18.87 1252.79 17.43 1254.65 19.44 1256.79 18.29 1258.81 18.5 1260.37 20.58 1262.3 20.91 1264.74 19.93 1266.41 21.23 1268.22 22.1 1269.27 24.32 1271.18 24.92 1272.23 26.8 1274.94 26.47 1275.31 29.06 1278.62 28.48 1279.99 30.04 1280.15 31.74 1281.76 31.31 1282.17 29.28 1282.89 27.45 1285.11 26.67 1285.15 24.38 1287.14 23.44 1288.88 22.33 1288.67 19.86 1290.54 18.85 1289.87 16.04 1293.19 16.05 1292.92 13.52 1295.51 13.02 1296.66 11.5 1295.37 8.23 1298.9 8.43 1298.4 5.72 1299.59 4.22 1301.91 3.55 1300.98 .51 1303.4 .31 1305.53 0 1306.64 1.82 1308.41 2.85 1308.41 5.32 1310.72 6.13 1310.45 8.44 1311.4 10.09 1311 12.16 1312.45 13.75 1311.87 15.73 1314.43 17.48 1314.2 19.49 1313.48 21.43 1313.03 23.34 1312.42 25.2 1312.65 27.29 1311.98 29.16 1309.03 29.95 1309.79 32.48 1307.35 33.27 1308.46 36.31 1306.17 37.06 1304.43 38.12 1303.68 40 1303.3 42.33 1301.47 43.26 1299.66 44.18 1297.39 44.49 1296.23 46.08 1294.44 46.91 1293.27 48.52 1291.84 49.82 1290.23 50.89 1289.25 52.86 1288.14 54.65 1286.45 55.61 1285.04 57 1282.98 57.42 1280.97 57.91 1279.88 59.77 1277.32 59.43 1276.62 61.88 1275.23 63.29 1272.89 63.27 1271.48 64.66 1269.4 65.02 1268.48 67.16 1266.4 67.53 1264.56 68.26 1262.85 69.18 1260.98 69.87 1260.71 73.03 1259.07 74.08 1257.07 74.55 1254.4 73.97 1252.69 74.88 1252.41 78.07 1250 77.89 1248.18 78.63 1246.46 79.55 1244.76 80.48 1244.11 83.13 1241.36 82.36 1240.82 85.19 1237.84 84.03 1237.29 86.86 1235.24 87.23 1233.31 87.78 1231.9 89.2 1229.61 89.14 1228.64 91.31 1226.13 90.87 1224.48 91.88 1222.75 92.77 1222.08 95.48 1219.63 95.11 1218.87 97.69 1216.84 98.04 1214.9 98.55 1213.99 100.88 1212.09 101.47 1210.1 101.89 1207.88 101.9 1206.21 102.89 1205.55 105.71 1203.77 106.5 1202.18 107.64 1200.29 108.24 1197.93 107.95 1196.7 109.76 1195.1 110.89 1193.4 111.83 1190.57 110.63 1190.05 113.79 1188.18 114.42 1186.71 115.81 1183.72 114.24 1182.47 116.05 1180.63 116.71 1179.48 118.74 1177.31 118.74 1175.5 119.46 1173.57 119.94 1172.59 122.33 1170.68 122.83 1168.68 123.16 1167.2 124.56 1165.55 125.6 1163.18 125.16 1162.37 127.96 1160.31 128.16 1158.22 128.27 1157.03 130.31 1155.19 130.96 1152.45 129.67 1151.28 131.77 1148.88 131.17 1147.76 133.4 1145.43 132.94 1144.46 135.53 1142.34 135.54 1140.28 135.67 1138.64 136.76 1137.26 138.46 1134.96 138.01 1132.95 138.25 1131.82 140.55 1129.73 140.59 1127.57 140.43 1125.93 141.53 1124.08 142.14 1122.8 144.13 1120.48 143.57 1118.65 144.2 1117.41 146.33 1115.08 145.71 1113.97 148.19 1111.39 146.91 1110.01 148.71 1108.32 149.73 1106.47 150.33 1104.25 149.91 1103.22 152.74 1101.2 152.85 1099.37 153.51 1097.47 153.98 1095.38 153.89 1093.62 154.73 1091.45 154.37 1089.99 156.08 1088.38 157.4 1085.91 156.14 1084.51 158.05 1082.39 157.84 1081.11 160.15 1079.16 160.43 1076.94 159.86 1075.29 161.09 1073.21 160.94 1071.38 161.58 1069.3 161.38 1067.72 162.87 1065.82 163.27 1063.91 163.63 1062.51 165.76 1060.82 166.91 1058.82 167 1056.58 166.2 1054.57 166.22 1052.73 166.81 1050.69 166.69 1049.4 169.4 1047.49 169.76 1045.48 169.73 1043.76 170.86 1041.55 170.02 1039.48 169.73 1038.11 172.3 1036.36 173.32 1033.82 171 1032.22 172.67 1030.16 172.35 1028.62 174.37 1026.3 172.86 1024.86 175.34 1022.63 174.19 1020.73 174.58 1018.84 175 1017.38 177.58 1014.99 175.51 1013.54 178.23 1011.65 178.7 1009.7 178.86 1007.54 177.86 1005.55 177.71 1003.8 178.99 1001.93 180.31 999.88 179.17 997.88 179.58 995.76 179.97 993.86 179.01 991.95 178.2 990.54 176.57 990.32 174.35 988.75 173.17 988.43 171.21 990.67 170.18 991.31 168.61 991.49 165.54 993.85 165.53 996.25 166.28 997.97 165.56 998.99 162.41 1001.45 164.13 1002.82 161.68 1005.03 162.89 1006.76 161.69 1008.77 162.32 1010.74 163.11 1012.51 161.72 1014.38 160.67 1016.31 160.32 1018.24 160.6 1020.19 160.2 1022.08 160.91 1023.92 161.72 1025.54 163.68 1027.6 162.79 1029.79 161.72"/>
  </g>
</svg>