<?xml version="1.0" encoding="UTF-8"?>
<svg id="Layer_2" data-name="Layer 2" xmlns="http://www.w3.org/2000/svg" viewBox="0 0 1703.17 619.85">
  <defs>
    <style>
      .cls-1 {
        fill: #537aa1;
        stroke-width: 0px;
      }
    </style>
  </defs>
  <g id="BG">
    <path class="cls-1" d="m134.56,73.5c16.87-34.58,55.37-52.89,92.56-62.77,69.67-18.53,148.63-15.01,207.94,25.98,19.99,13.81,37.13,31.38,52.73,50.01,13.67,16.33,26.47,33.96,32.96,54.24,13.03,40.71-1.11,84.59-15.16,124.96,16.83-24.69,51.41-34.85,79.53-24.76,28.12,10.09,48.07,38.65,49.61,68.49,1.54,29.84-14.5,59.53-39.34,76.14,31.67-8.53,65.58-8.56,97.26-.09,18.31,4.89,37.53,14.19,44.67,31.75,6.46,15.91.9,34.67-9.68,48.2-10.57,13.53-25.45,22.89-40.02,31.98,14.44-4.14,26.37-14.86,40.93-18.54,18.58-4.7,37.84,2.76,55.55,10.09,16.88,6.98,34.59,14.58,45.61,29.16,21.03,27.82,3.84,56.64-15.57,79.45-4.6,5.4-9.26,11.38-14.49,16.19-9.08,8.34-10.07,6.57-22.74,2.37-23.12-7.66-46.04-15.92-68.77-24.66-91.07-35.01-178.91-77.74-266.01-121.54-72.47-36.44-144.53-73.71-217.95-108.21-58.78-27.62-119.86-54.43-165.76-100.39C12.52,215.57-15.15,144.73,8.82,84.36c2.66-6.69,6.1-13.4,11.85-17.73,5.54-4.17,12.59-5.67,19.38-7.05,33.63-6.86,73.88-11.81,97.45,13.14"/>
    <path class="cls-1" d="m892.94,500.75c-11.76-21.8,1.96-52.27,20.43-79.2,34.6-50.47,90.21-99.87,157.63-124.76,22.72-8.39,46.04-13.76,69.02-17.81,20.14-3.55,40.57-6.12,58.52-3.81,36.02,4.63,55.84,27.65,73.38,49.49-5.16-18.63,11.36-43.99,37.08-58.77,25.72-14.78,58.28-18.45,79.28-9.93,21,8.52,30.04,28.24,24.41,49.41,15.65-22.97,38.5-44.68,65.54-62.25,15.62-10.16,34.81-19.49,51.37-18.46,15,.93,23.8,10.47,25.72,21.54,1.92,11.07-1.85,23.57-5.6,35.79,6.97-10.55,7.84-21.6,15.2-32.09,9.39-13.38,27.37-23.33,44.21-32.32,16.06-8.58,33.08-17.48,50.26-19.89,32.8-4.6,40.48,15.58,42.65,35.26.51,4.66,1.37,9.55,1.06,14.42-.54,8.46-2.39,8.53-13.76,15.3-20.72,12.35-41.7,24.38-62.88,36.14-84.85,47.11-172.68,89.7-260.72,131.47-73.25,34.76-146.8,68.99-219.4,104.98-58.13,28.81-117.26,59.35-178.96,74.08-61.7,14.73-127.76,9.87-151.99-24.69-2.69-3.83-4.85-8.17-3.87-13.22.95-4.87,4.7-9.86,8.35-14.65,18.09-23.7,41.93-51.03,74.52-58.16"/>
  </g>
</svg>