<?xml version="1.0" encoding="UTF-8"?>
<svg id="Layer_2" data-name="Layer 2" xmlns="http://www.w3.org/2000/svg" viewBox="0 0 966.25 325.62">
  <defs>
    <style>
      .cls-1 {
        fill: none;
        stroke: #c2d7ce;
        stroke-linecap: round;
        stroke-miterlimit: 10;
        stroke-width: 4.25px;
      }
    </style>
  </defs>
  <g id="Classroom">
    <polyline class="cls-1" points="229.25 23.33 224.16 32.19 218.36 40.59 212.95 49.24 207.58 57.91 201.91 66.39 195.99 74.72 191.48 83.95 185.75 92.39 180.07 100.87 175.09 109.8 168.79 117.87 163.53 126.61 157.71 135 151.78 143.31 146.65 152.14 141.51 160.96 134.97 168.88 129.33 177.38 124.83 186.62 118.7 194.81 113.28 203.45 107.99 212.19 102.4 220.72 97.59 229.76 90.96 237.63 85.06 245.97 80.85 255.4 74.91 263.71 69.07 272.09 63.95 280.93 57.32 288.8 52.25 297.68 47.59 306.82 41.29 314.91 35.76 323.5"/>
    <polyline class="cls-1" points="733.27 23.76 738.83 32.3 745.03 40.45 750.51 49.05 754.97 58.32 761.25 66.41 766.77 74.98 771.88 83.83 777.15 92.57 782.48 101.27 788.02 109.84 794.08 118.07 800.48 126.07 805.11 135.23 810.12 144.13 816.98 151.84 821.26 161.22 826.88 169.74 833.47 177.62 838.2 186.72 844.93 194.51 849.72 203.57 855.69 211.86 861.15 220.48 865.87 229.58 871.56 238.06 876.98 246.7 883.48 254.66 887.9 263.95 894.9 271.57 900.34 280.2 905.41 289.08 911.53 297.29 916.67 306.12 921.79 314.97 927.84 323.22"/>
    <polyline class="cls-1" points="477.2 320.99 477.94 310.71 477.83 300.42 477.71 290.14 478.64 279.85 477.7 269.57 478.89 259.28 477.46 249 478.06 238.72 478.55 228.43 478.82 218.14 478.72 207.86 477.36 197.58 477.33 187.3 478.88 177.01 479.11 166.73 477.91 156.45 477.2 146.16 477.15 135.87 478.64 125.59 479.03 115.3 478.32 105.02 477.67 94.73 478.92 84.44 477.21 74.15 477.71 63.87 477.39 53.58 478.17 43.3 477.37 33 477.51 22.72 477.88 12.42 479.09 2.13"/>
    <polyline class="cls-1" points="46.66 51.96 56.99 50.93 67.32 50.62 77.65 51.62 87.98 51.72 98.31 51.58 108.64 51.88 118.97 51.69 129.3 51.45 139.63 51.86 149.96 51.27 160.29 50.97 170.62 50.82 180.95 50.56 191.28 52.4 201.6 52.36 211.93 51.44 222.25 51.88 232.58 51.79 242.91 52.38 253.24 50.63 263.57 51.7 273.9 52.16 284.22 50.66 294.55 52.07 304.88 51.65 315.21 52.19 325.54 50.48 335.87 51.44 346.19 51.56 356.52 50.62 366.85 50.61 377.18 52.29 387.51 51.5 397.84 51.15 408.17 51.04 418.5 52.23 428.83 52.07 439.16 52.03 449.49 50.85 459.82 50.81 470.15 52.22 480.48 50.92 490.82 50.91 501.15 51.03 511.48 51.13 521.81 50.69 532.14 51.49 542.47 51.87 552.8 51.53 563.14 50.98 573.47 51.71 583.8 51.98 594.13 50.94 604.47 50.99 614.8 50.65 625.13 51.62 635.46 52.29 645.8 50.44 656.13 51.25 666.46 51.19 676.8 52.18 687.13 52.16 697.46 50.74 707.79 51.39 718.12 50.54 728.45 51.16 738.79 50.71 749.12 51.32 759.45 51.82 769.79 51.79 780.12 50.57 790.45 51.62 800.79 51.25 811.13 51.67 821.46 51.57 831.8 50.91 842.13 50.76 852.46 52.13 862.8 51.09 873.14 50.61 883.48 51.74 893.82 51.82 904.16 52.29"/>
    <polyline class="cls-1" points="2.13 186.54 12.36 185.72 22.59 185.88 32.82 186.8 43.05 185.95 53.29 186.16 63.52 186.61 73.75 186.06 83.99 186.18 94.22 185.57 104.45 185.71 114.69 185.43 124.92 185.02 135.15 186.75 145.38 186.38 155.62 186.63 165.85 185.72 176.08 186.5 186.32 186.34 196.55 185.8 206.78 186.33 217.01 186.02 227.24 186.13 237.47 186.12 247.7 186.39 257.93 185.51 268.16 186.08 278.39 186.94 288.62 185.45 298.85 186.39 309.08 185.88 319.31 186.58 329.55 186.71 339.78 185.98 350.01 185.74 360.24 185.05 370.47 186.4 380.7 186.3 390.93 185.09 401.17 185.82 411.4 186.21 421.63 185.6 431.86 185.56 442.09 186.86 452.33 185.24 462.56 186.46 472.79 186.54 483.03 186.13 493.26 186.96 503.49 186.98 513.72 185.88 523.96 185.68 534.19 185.48 544.43 186.87 554.66 185.88 564.89 185.67 575.13 186.79 585.36 185.07 595.6 185.56 605.83 186.25 616.07 185.14 626.3 186.6 636.54 186.89 646.77 186.78 657.01 186.28 667.24 185.33 677.48 186.2 687.71 186.33 697.95 185.68 708.19 186.33 718.42 186.55 728.66 186.86 738.89 185.51 749.13 186.57 759.37 186.03 769.6 185.03 779.83 186.54 790.07 185.57 800.3 185.9 810.54 186.12 820.77 186.55 831.01 186.67 841.25 185.61 851.48 185.9 861.72 185.6 871.96 186.75 882.2 186.51 892.44 186.03 902.68 185.71 912.91 186.92 923.15 185.25 933.39 186.77 943.63 185.23 953.88 185.96 964.13 186.84"/>
  </g>
</svg>