<?xml version="1.0" encoding="UTF-8"?>
<svg id="Layer_2" data-name="Layer 2" xmlns="http://www.w3.org/2000/svg" viewBox="0 0 966.25 325.62">
  <defs>
    <style>
      .cls-1 {
        fill: none;
        stroke: #c2d7ce;
        stroke-linecap: round;
        stroke-miterlimit: 10;
        stroke-width: 4.25px;
      }
    </style>
  </defs>
  <g id="Classroom">
    <polyline class="cls-1" points="731.6 302.29 736.69 293.44 742.48 285.03 747.89 276.38 753.27 267.71 758.94 259.23 764.86 250.91 769.37 241.68 775.1 233.23 780.78 224.75 785.75 215.82 792.06 207.75 797.32 199.01 803.14 190.62 809.07 182.32 814.2 173.48 819.33 164.66 825.87 156.74 831.52 148.24 836.02 139 842.14 130.81 847.57 122.17 852.86 113.44 858.45 104.9 863.26 95.86 869.88 87.99 875.79 79.65 880 70.22 885.94 61.91 891.78 53.53 896.9 44.69 903.52 36.82 908.6 27.94 913.26 18.8 919.56 10.71 925.09 2.13"/>
    <polyline class="cls-1" points="227.58 301.87 222.01 293.32 215.82 285.18 210.34 276.57 205.88 267.31 199.6 259.22 194.08 250.64 188.97 241.79 183.7 233.05 178.37 224.35 172.83 215.78 166.77 207.56 160.37 199.55 155.74 190.4 150.73 181.49 143.87 173.78 139.59 164.4 133.97 155.88 127.38 148 122.65 138.91 115.92 131.11 111.13 122.06 105.16 113.76 99.7 105.14 94.98 96.04 89.29 87.57 83.87 78.92 77.37 70.97 72.95 61.67 65.95 54.05 60.5 45.42 55.43 36.54 49.32 28.34 44.18 19.51 39.06 10.65 33.01 2.4"/>
    <polyline class="cls-1" points="483.65 4.63 482.91 14.91 483.01 25.2 483.14 35.48 482.21 45.77 483.14 56.05 481.96 66.34 483.39 76.62 482.79 86.91 482.3 97.19 482.02 107.48 482.13 117.76 483.49 128.04 483.52 138.33 481.97 148.61 481.74 158.89 482.93 169.18 483.65 179.46 483.7 189.75 482.21 200.03 481.82 210.32 482.53 220.61 483.18 230.89 481.92 241.18 483.64 251.47 483.14 261.75 483.46 272.04 482.68 282.33 483.48 292.62 483.34 302.91 482.97 313.2 481.76 323.5"/>
    <polyline class="cls-1" points="919.59 273.66 909.26 274.69 898.93 275.01 888.6 274.01 878.27 273.9 867.94 274.04 857.61 273.74 847.28 273.93 836.95 274.17 826.62 273.76 816.29 274.35 805.96 274.65 795.64 274.8 785.3 275.06 774.98 273.22 764.65 273.27 754.32 274.18 744 273.74 733.67 273.83 723.34 273.24 713.01 274.99 702.68 273.93 692.36 273.46 682.03 274.96 671.7 273.55 661.38 273.97 651.04 273.43 640.71 275.14 630.39 274.18 620.06 274.06 609.73 275.01 599.4 275.02 589.07 273.34 578.74 274.12 568.41 274.48 558.08 274.58 547.75 273.39 537.42 273.55 527.09 273.59 516.76 274.77 506.43 274.81 496.1 273.4 485.77 274.71 475.44 274.72 465.1 274.59 454.77 274.49 444.44 274.93 434.11 274.13 423.78 273.75 413.45 274.1 403.12 274.64 392.78 273.91 382.45 273.65 372.12 274.68 361.79 274.63 351.45 274.97 341.12 274.01 330.79 273.34 320.46 275.18 310.12 274.37 299.79 274.44 289.46 273.44 279.12 273.47 268.79 274.88 258.46 274.24 248.13 275.08 237.8 274.46 227.47 274.91 217.13 274.3 206.8 273.81 196.47 273.84 186.13 275.05 175.8 274 165.46 274.37 155.13 273.95 144.79 274.05 134.45 274.71 124.12 274.86 113.79 273.49 103.45 274.53 93.11 275.01 82.78 273.89 72.43 273.8 62.09 273.33"/>
    <polyline class="cls-1" points="964.13 139.08 953.89 139.9 943.66 139.74 933.43 138.82 923.2 139.67 912.96 139.46 902.73 139.01 892.5 139.57 882.27 139.44 872.03 140.06 861.8 139.91 851.57 140.19 841.33 140.6 831.1 138.87 820.87 139.25 810.64 138.99 800.4 139.9 790.17 139.12 779.94 139.28 769.7 139.82 759.47 139.3 749.24 139.6 739.01 139.49 728.78 139.5 718.55 139.23 708.32 140.11 698.09 139.54 687.86 138.69 677.63 140.18 667.4 139.23 657.17 139.75 646.94 139.04 636.71 138.92 626.48 139.64 616.25 139.88 606.02 140.57 595.79 139.23 585.55 139.32 575.32 140.54 565.09 139.8 554.86 139.42 544.63 140.02 534.39 140.06 524.16 138.76 513.93 140.38 503.69 139.16 493.46 139.08 483.23 139.5 472.99 138.66 462.76 138.65 452.53 139.75 442.29 139.94 432.06 140.14 421.83 138.75 411.59 139.74 401.36 139.95 391.12 138.83 380.89 140.55 370.65 140.06 360.42 139.37 350.19 140.48 339.95 139.02 329.72 138.74 319.48 138.84 309.25 139.35 299.01 140.3 288.77 139.42 278.54 139.29 268.3 139.95 258.07 139.3 247.83 139.07 237.59 138.76 227.36 140.11 217.12 139.05 206.89 139.59 196.65 140.59 186.42 139.08 176.19 140.05 165.95 139.72 155.72 139.51 145.48 139.07 135.24 138.95 125 140.01 114.77 139.72 104.53 140.02 94.29 138.87 84.05 139.11 73.81 139.59 63.58 139.91 53.34 138.7 43.1 140.37 32.86 138.86 22.62 140.4 12.37 139.66 2.13 138.79"/>
  </g>
</svg>