<?xml version="1.0" encoding="UTF-8"?>
<svg id="Layer_2" data-name="Layer 2" xmlns="http://www.w3.org/2000/svg" viewBox="0 0 259.43 797.06">
  <defs>
    <style>
      .cls-1 {
        fill: #782734;
      }

      .cls-1, .cls-2, .cls-3, .cls-4, .cls-5, .cls-6, .cls-7, .cls-8, .cls-9, .cls-10, .cls-11, .cls-12, .cls-13, .cls-14, .cls-15, .cls-16, .cls-17, .cls-18, .cls-19, .cls-20, .cls-21, .cls-22, .cls-23, .cls-24, .cls-25, .cls-26, .cls-27, .cls-28, .cls-29, .cls-30, .cls-31, .cls-32, .cls-33, .cls-34, .cls-35, .cls-36, .cls-37, .cls-38, .cls-39, .cls-40, .cls-41, .cls-42, .cls-43, .cls-44 {
        stroke-width: 0px;
      }

      .cls-2 {
        fill: #fe5164;
      }

      .cls-3 {
        fill: #fe5063;
      }

      .cls-4 {
        fill: #944e54;
      }

      .cls-5 {
        fill: #e0cee5;
      }

      .cls-6 {
        fill: #36294f;
      }

      .cls-7 {
        fill: #d01e44;
      }

      .cls-8 {
        fill: #442f69;
      }

      .cls-9 {
        fill: #fd4f63;
      }

      .cls-10 {
        fill: #ba5d35;
      }

      .cls-11 {
        fill: #b4d0d5;
      }

      .cls-12 {
        fill: #ee8536;
      }

      .cls-13 {
        fill: #fe7f82;
      }

      .cls-14 {
        fill: #dfcde5;
      }

      .cls-15 {
        fill: #fc4e63;
      }

      .cls-16 {
        fill: #ee8637;
      }

      .cls-17 {
        fill: #a6c8ce;
      }

      .cls-18 {
        fill: #decde4;
      }

      .cls-19 {
        fill: #bba4c2;
      }

      .cls-20 {
        fill: #c65724;
      }

      .cls-21 {
        fill: #483069;
      }

      .cls-22 {
        fill: #b9a3c0;
      }

      .cls-23 {
        fill: #a4c6cd;
      }

      .cls-24 {
        fill: #b9a2c0;
      }

      .cls-25 {
        fill: #493069;
      }

      .cls-26 {
        fill: #ee8537;
      }

      .cls-27 {
        fill: #fe4f62;
      }

      .cls-28 {
        fill: #f9e8fb;
      }

      .cls-29 {
        fill: #782733;
      }

      .cls-30 {
        fill: #432e69;
      }

      .cls-31 {
        fill: #c45726;
      }

      .cls-32 {
        fill: #f9f6f8;
      }

      .cls-33 {
        fill: #762634;
      }

      .cls-34 {
        fill: #84819f;
      }

      .cls-35 {
        fill: #cd1e45;
      }

      .cls-36 {
        fill: #a0829c;
      }

      .cls-37 {
        fill: #febfc1;
      }

      .cls-38 {
        fill: #fe7f83;
      }

      .cls-39 {
        fill: #493169;
      }

      .cls-40 {
        fill: #a5bcd3;
      }

      .cls-41 {
        fill: #fe7e83;
      }

      .cls-42 {
        fill: #473069;
      }

      .cls-43 {
        fill: #f8e8fb;
      }

      .cls-44 {
        fill: #decce4;
      }
    </style>
  </defs>
  <g id="Layer_51" data-name="Layer 51">
    <g>
      <path class="cls-28" d="m245.37,92.56c.95,2.6,3,4.5,4.36,6.85,1.11,1.93,1.5,3.74,1,5.98-.62,2.79-.76,5.69-1.1,8.54-.04.35.1.87-.09,1.03-2.66,2.27-.79,4.18.51,6.06,1.8,2.61,1.45,5.64,1.61,8.51.23,4.28-.36,8.64.18,12.86.71,5.64,1,11.26.87,16.92-.1,4.17-.33,8.38-.12,12.5.24,4.81.25,9.6,0,14.36-.41,8.03-.27,16.07-.47,24.09-.07,2.92-.15,5.92.28,8.89.22,1.52-.07,3.19-.23,4.73-.83,7.63.21,15.33-.9,22.89-.47,3.22.74,6.8-1.68,9.72-2.39,2.88-4.78,5.76-7.94,7.85-.56-.86-.64-2.79-.13-4.96.46-1.97,1.01-3.91,1.39-5.9.15-.79.3-1.57-.09-2.33-.29-.57-.75-1.01-1.43-1.03-.84-.02-.94.66-1.06,1.27-.83,4.21-2.56,8.24-2.48,12.64.03,1.73-1.3,3.26-.95,5.08-3.55,5.37-9.25,5.24-14.68,5.57-3.2.19-6.29-.56-9.3-1.82-2.97-1.24-5.8-2.61-7.68-5.29-1.12-1.6-2.46-2.95-3.82-4.31.21-2.98.39-5.93.3-8.94-.08-2.57.96-5.14.71-7.83-.24-2.65.15-5.25.86-7.84.71-2.63.5-5.43.53-8.11.08-8.31,1.64-16.47,2.06-24.73.36-7.09,2-14.08,1.56-21.24-.11-1.74.23-3.51.33-5.26.21-3.67,1.3-7.3.17-10.84-1.25,2.34-.83,5.25-1.16,7.93-.6,4.89-2.24,9.45-4.03,13.86-2.9,7.14-4.5,14.32-4.53,22.05-.01,4.23-.93,8.53-1.3,12.8-.59,6.81-2.49,13.32-3.79,19.96-.79,4.05-1.62,8.12-2.2,12.17-.66,4.65-1.94,9.16-2.72,13.77-.7,4.18-.65,8.83-3.18,12.67-.72,1.1-.11,2.37-.42,3.6-1.18,4.7-3.11,9.14-4.45,13.78-.93,3.2-1.41,6.51-2.85,9.59-1.77,3.8-4.02,7.19-7.14,10-2.26,2.03-4.92.56-7.39.81-1,.1-2.09-.2-3.15-.26-5.42-.61-9.83-3.53-14.33-6.26-.61-.37-1.1-.89-1.56-1.42-4.66-5.36-10.77-9.01-16.3-13.28-4.47-3.45-9.47-6.32-13.6-10.18-5.22-4.87-10.74-9.44-15.71-14.84,1.32,4.05,2.51,7.95,2.8,12.05-1.16,1.21-2.08.39-3.24-.17-5.13-2.44-9.76-5.9-15.31-7.47-.95-.27-1.93-.73-2.54.45-.66,1.28.45,1.64,1.26,2.16,1.86,1.21,3.83,2.24,5.99,2.67,1.8.36,2.68,1.96,4.21,2.6,5.38,2.24,10.31,5.27,15.02,8.68,2.56,2.53,4.59,5.49,6.79,8.31,3.98,5.12,7.45,10.61,11.32,15.81,1.16,1.56,1.75,3.46,3.13,4.87,2.87,4.33,5.44,8.9,9.55,12.27.62,1.18,2.14,1.64,2.43,3.08.92,1.69.51,2.89-1.13,3.96-1.62,1.06-2.63,2.84-4.11,4.1-.99.85-1.77,1-2.45-.4-.81-1.66-2.06-3.08-2.7-4.84-.31-.85-.85-1.54-1.52-2.13-.4-.35-.83-.74-1.41-.47-.68.33-.69.98-.56,1.6.21,1.05.61,2.02,1.23,2.91,1.12,1.6,1.8,3.44,2.65,5.17.74,1.51.47,3.03-.92,4.03-1.39,1-2.23-.34-3.13-1.11-2.62-2.23-4.84-4.88-7.31-7.26-.58-.56-1.31-1.58-2.18-.64-.64.7.14,1.42.6,2.07,2.05,2.88,4.56,5.36,6.82,8.06.92,1.1,1.95,2.24.88,3.73-1.15,1.6-2.58,1.33-4.22.59-3.24-1.46-6.03-3.63-9.04-5.44-.66-.4-1.41-1.25-2.07-.52-.72.81.33,1.37.84,1.9,2.47,2.58,5.81,3.93,8.63,6.04,1.55,1.16,1.86,2.23.63,3.4-1.84,1.74-3.32,3.93-5.72,5.05-.78.25-1.56.26-2.36.14-1.43-.33-2.79-.83-4.03-1.62-4.16-2.95-7.88-6.47-11.91-9.59-2.34-1.82-4.09-4.33-6.14-6.5-4.68-5.86-10.59-10.51-15.73-15.92-.88-.83-1.44-1.94-2.4-2.71-1.72-1.86-4.44-2.81-5.14-5.64-.03-.12-.65-.14-.96-.32-2.73-3.08-5.99-5.72-8.01-9.41-.78-1.42-2.28-2.14-3.22-3.46-1.5-2.12-2.33-4.36-2.27-6.91.03-1.3-.46-2.4-.83-3.57-2.02-6.39-3.8-12.86-6.19-19.12-1.76-4.61-3.42-9.25-4.86-13.97-2.83-9.25-5.14-18.66-8.05-27.87-1.96-6.21-4.13-12.37-5.97-18.62-1.44-4.88-2.99-9.74-4.41-14.64-1.32-4.56-2.17-9.23-3.51-13.78-.29-1-1.37-2.36.03-3.08,1.33-.69,2.21.75,3.05,1.57,5.72,5.6,11.43,11.23,17.23,16.73,6.12,5.81,12.54,11.35,18.71,17.12,2.61,2.44,5.03,5.27,7.72,7.54,3.2,2.69,5.28,6.35,8.67,8.78,2.67,1.91,4.57,4.65,6.73,7.07,2.29,2.56,4.84,4.84,6.68,6.72-3.78-4.9-6.55-11.3-9.86-17.4-4.08-7.51-7.65-15.26-11.14-23.03-3-6.67-6.09-13.3-8.95-20.04-2.34-5.51-6.63-9.22-11.34-12.6-3.61-2.59-7.59-4.42-11.67-6.08-2.44-.99-4.65-2.48-7.26-3.12-2.38-.59-4.78.4-4.98,2.82-.26,3.21-2.45,6.04-1.56,9.5.35,1.38-2.26,2.51-3.85,1.82.3-3.91.38-7.83,1.73-11.61.51-1.41-.04-3.03.24-4.62.84-4.7,2.73-8.23,6.86-11.16,4.63-3.28,9.27-6.68,13.27-10.93,2.12-2.26,4.23-4.85,7.18-6.42,2.55-1.36,2.82-4.3,3.49-6.78.91-3.36,2.08-6.8,2.06-10.21-.01-2.82.85-5.54.29-8.47-.64-3.34.5-6.79.43-10.25-.15-7.02,1.09-14,1.22-20.98.07-3.53.76-6.97.72-10.36-.03-2.4.55-4.65.53-6.99-.06-8.1,1.92-16,2.34-24.08.25-4.88,1.96-9.67,2.61-14.56.39-2.89,1.86-5.46,2-8.34.07-1.53,1.17-2.39,1.93-3.36,4.45-5.7,8.99-11.36,15.18-15.31,3.78-2.41,7.69-4.79,12.05-5.85,5.8-1.41,11.78-.69,17.7-.76,3.88-.04,7.46,1.2,11.2,1.6,1.16.13,1.93.85,2.81,1.38,4.79,2.89,10.04,5.19,13.53,9.81,3.58,4.74,7.03,9.59,9.36,15.13.67,1.6,1.85,2.91,2.45,4.61,2.41,6.84,5.38,13.54,6.69,20.67,1.24,6.78,2.29,13.63,2.48,20.57.15,5.47.29,10.93.22,16.41-.06,4.52-.19,9.04-.56,13.53-.33,4-.73,8.04-1.61,11.94-.79,3.5.89,6.25,2.52,8.6,3.69,5.3,8.32,9.82,13.68,13.55,2.23,1.55,3.83,3.85,6.05,5.5,2.98,2.22,6.14,3.9,9.62,5.22,3.92,1.48,7.6,3.68,10.63,6.59,2.94,2.83,6.62,4.82,9.04,8.24.66.94,1.48.45,1.59-.61.56-5.55,1.6-11.04,2.07-16.61.54-6.37.55-12.82,2.13-19.1.72-2.87.35-5.97,1.72-8.72.27-.54.5-1.14.89-1.58,1.06-1.18,1.48-2.22.3-3.69-1.03-1.28-1.16-3.04-.69-4.53,1.24-3.87,1.28-7.93,1.95-11.87.6-3.57,3.02-4.57,5.52-5.89.53-.28,1.16-.4,1.74-.59,6.53-2.79,13.12-2.74,19.71-.31,1.22.45,2.1,1.55,2.96,2.56Z"/>
      <path class="cls-30" d="m203.41,514.73c.15.22.42.43.43.65.24,7.37,1.27,14.66,2.16,21.96.42,3.44.12,6.99,1.57,10.32.65,1.5-.2,3.19-.03,4.87.59,5.73.25,11.61,1.4,17.2,1.19,5.76.99,11.57,1.58,17.32.51,4.96,1.8,10.01.83,15.03-.34,1.78.29,3.38.63,4.82.59,2.49-.58,4.94.67,7.53.95,1.96.27,4.72.28,7.13,0,2.29,1.02,4.63-.32,6.86.53,1.11,1.07,2.22.97,3.51.79,6.08.51,12.21.9,18.31.35,5.33,1.02,10.71.58,15.99-.19,2.3,1.93,4.98-.62,7.04,1.08,1.03.74,2.43.82,3.66.13,2.01.82,3.91.09,6.08-1.3,3.84-4.76,5.17-7.55,7.25-4.45,3.3-10.04,4.41-14.66,7.44-.59.39-1.24.61-1.57,1.31-1.89,4.03-5.19,5.53-9.47,5.27-.41-.02-.88.04-1.24.22-4.49,2.33-9.27,2.01-14.11,1.88-1.89-.05-3.79-.03-5.68-.05-1.38-.01-2.72.59-4.02,1.84-2.18,2.09-5.53,1.74-8.45,2.16-.92.13-1.86.09-2.79.12-2.05.91-4.23.27-6.33.58-1.95-.21-3.9.59-5.85.06-1.17-.31-2.37-.2-3.56-.2-1.53-1.03-3.35-.11-4.95-.72-.34-.2-.59-.48-.74-.84.29-6.23-1.44-12.16-2.55-18.2-1.22-6.65-2.81-13.23-3.92-19.55-.21,4.79.69,9.9.9,15.04.3,7.52,2.74,14.68,3.25,22.15.28,1.29.06,2.4-1.17,3.13-1.41.78-2.86,1.42-4.51,1.45-1.31.35-2.59-.04-3.88-.14-2.17-.58-4.37-.82-6.61-.49-4.63-.54-9.29-.81-13.92-1.34-1.02-.12-2.09-.17-2.98-.83-1.25-2.43-.55-5.04-.63-7.56-.28-8.72-.3-17.45-.39-26.17-.09-9.17-.12-18.36-.25-27.53-.16-11.19-.25-22.39-.52-33.59-.14-5.84-.96-11.68-.12-17.59.39-2.71-.13-5.61-.39-8.42-.29-3.06-.1-6.17-.07-9.24.1-8.72-.1-17.44.15-26.14.28-9.36-.13-18.7-.14-28.04-.01-10.48.15-20.97.12-31.45-.01-4.58.28-9.3.62-13.95.34-4.63-.13-9.34-.07-14.02.07-5.2.56-10.4.32-15.58-.36-7.86.6-15.67.77-23.51.16-7.29.13-14.62.6-21.92.24-3.68.21-7.4-.04-11.09-.02-.35-.12.05-.01-.26,1.05-3.03.1-6.06.03-9.09.08-.87-.38-1.85.5-2.56,1.36-.8,2.33-.23,3.12.92,2.77,4.06,6.06,7.74,8.6,11.96.73,1.22,1.65,2.19,2.92,2.95,2.21,1.32,2.5,4.11,4.16,5.89,1.3,3.72.8,7.62,1.11,11.44.05.6.11,1.19.17,1.79.15,7.14-.03,14.27.45,21.41.22,3.2.09,6.48.05,9.71-.08,7.05.1,14.09.21,21.13.15,9.58.26,19.16.44,28.73.11,5.97-.21,11.97.48,17.94.03.26.07.53.06.79-.43,9.59.14,19.17.3,28.75.12,7.03.28,14.07.43,21.1.16,7.48.71,14.95.8,22.43.08,5.9.38,11.8.67,17.69.2,3.93.69,7.88.92,11.85.48,8.62,1.54,17.19,2.06,25.82.44,7.27,1.73,14.49,2.42,22.24.97-1.38.82-2.42.7-3.43-.97-8.18-.9-16.39-.9-24.6,0-3.37-.8-6.64-.85-10.01-.12-7.85-.54-15.69-1.21-23.51-.55-6.43-.51-12.87-.66-19.3-.11-4.84-.25-9.71-.49-14.54-.49-9.95-.31-19.91-.71-29.87-.35-8.63-.69-17.26-.49-25.91.18-7.58-.37-15.17-.44-22.75-.06-7.94.04-15.88-.2-23.81-.23-7.57,0-15.16-.28-22.7-.23-6.23-.58-12.49-.59-18.72,0-3.77-.85-7.56-.05-11.33-.06-1.03.12-2.06.15-3.09.12-.84-.03-1.9,1.07-2.16.9-.22,1.44.53,1.92,1.14,2.9,3.78,6.16,7.23,8.72,11.33,2.14,3.44,5.29,6.25,7.95,9.37,1.13,1.33,2.39,2.57,3.49,3.93,1.39,2.24.66,4.8.91,7.19.21,1.96-.43,3.97.51,5.93.39.82-.27,1.7-.38,2.56.36,5.63,0,11.28.21,16.92.14,3.9.08,7.89.02,11.84-.07,4.64-.03,9.34.43,13.97.8,8,.2,16.01.59,24,.47,9.77.03,19.56,1.16,29.32.67,5.76.39,11.62.5,17.43.12,6.52.13,13.04.77,19.54.43,4.39.27,8.8.57,13.2.58,8.41.66,16.86,1.51,25.25.72,7.02,1.02,14.07,1.66,21.09.49,5.44,1.65,10.82,2.33,16.25.91,7.26,1.53,14.57,2.89,21.77,1.47,7.79,3.42,15.45,6.06,23.16,1.22-.76,1.61-1.63,1.4-2.77-.36-1.91-.49-3.87-1.1-5.72-2.89-8.75-3.88-17.89-5.67-26.87-.85-4.28-1.11-8.75-2.93-12.83-.91-2.03-.4-4.21-.46-6.29-.23-8.73-.78-17.44-1.11-26.16-.26-7.02-.88-14.06-1.19-21.07-.32-7.13-.56-14.28-.83-21.41-.21-5.62-.35-11.26-.8-16.89-.37-4.63-.36-9.33-.48-13.99-.15-6.08-.75-12.12-.75-18.21,0-6.42.05-12.85-.33-19.25-.44-7.29.02-14.59-.68-21.89-.35-3.56-.35-7.3-.19-10.99.19-4.26.08-8.61-.17-12.9-.19-3.25-.06-6.51-.41-9.75-.12-1.15,0-2.31-.92-3.2-.72-1.6-.7-1.57.95-2.99.38-.33.15-.99.18-1.5.17-2.32-.28-4.7.64-6.95,1.53-.75,2.25.28,2.98,1.33,1.76,2.51,3.54,5.04,5.59,7.3,4.55,5.02,9.1,10.02,12.65,15.83.67,1.09,1.8,1.67,2.68,2.5,3.35,3.13,3.81,7.24,4.13,11.37.91,11.94,1.37,23.91,2.61,35.84.58,5.57.57,11.26.87,16.89.3,5.55,1.19,11.04,1.48,16.57.25,4.83.48,9.69.94,14.48.6,6.22.36,12.56,1.9,18.67.6,2.39.21,4.75.3,7.11.29,7.94,1.73,15.78,1.81,23.74.04,3.7.83,7.36,1.28,11.02.48,3.95.1,7.91.86,11.84,1.57,8.03,1.52,16.25,2.58,24.37.81,6.21,1.78,12.38,2.69,18.56.58,3.93,2.17,7.61,2.67,11.57.1-3.55-.03-7.08-.36-10.61-.88-9.3-1.92-18.59-2.69-27.91-.77-9.22-1.59-18.45-2.8-27.64-.6-4.54-.41-9.17-.81-13.74-.79-8.95-1.6-17.89-2.32-26.84-.53-6.56-1.44-13.12-1.96-19.7-.52-6.59-1.05-13.19-1.36-19.79-.37-8.02-1.29-16-1.88-24-.81-10.87-1.24-21.76-2.28-32.61-.12-1.23.34-2.46-.03-3.69-.36-1.21-.79-2.79.67-3.23,1.41-.42,2.95.42,3.86,1.67.67.91.95,2.27,1.86,2.86,3.12,2.01,4.4,5.91,7.9,7.46.25.11.46.29.56.54,1.48,3.72,4.59,6.3,7.18,9.02,2.85,2.99,5.51,6.32,8.97,8.73Z"/>
      <path class="cls-30" d="m22.38,439.37c.36-5.14-.11-10.31,1.55-15.39,1-3.07.75-6.47.78-9.75.01-1.35.34-2.69.53-4.04.73-5,1.03-10.11,2.31-14.96,1.48-5.59,1.35-11.39,3.01-16.95.69-2.31.64-5.08,1.23-7.42.67-2.69.48-5.46,1.44-8.22.92-2.63,1.4-5.8,1.72-8.81.21-2.03-.02-4.27.66-6.06,1.67-4.37,1.6-9.2,3.78-13.39,1.8-1.85,2.18-4.53,3.88-6.53.76-.9,1.44-1.54,2.43-2,2.42,1.84,3.3,4.12,3.21,7.3-.18,7.07-1.21,14.05-2.02,21.03-.75,6.48-1.37,12.99-2.32,19.43-.87,5.9-1.36,11.86-2.33,17.77-.7,4.27-.79,8.75-1.37,13.1-.72,5.42-.96,10.89-1.66,16.31-.78,6.02-1.46,12.08-1.85,18.16-.37,5.63-1.3,11.2-2.12,16.79-.45,3.04-.44,6.13-.82,9.2-1.14,9.29-2.24,18.59-3.14,27.9-1.14,11.85-2.4,23.69-3.44,35.55-.91,10.37-1.54,20.75-2.43,31.12-.89,10.46-1.56,20.94-2.29,31.4-.39,5.52-.35,11.1-.8,16.63-.49,6.06-.61,12.13-.83,18.19-.29,7.85-.09,15.69.17,23.53.17,5.2.41,10.4.26,13.61.43-4.43.73-10.87,1.56-17.3.85-6.55,1.15-13.19,1.29-19.79.1-4.85.46-9.68.73-14.52.34-6.08.1-12.18.7-18.25.4-4.02.43-8.07.92-12.08.13-1.06.07-2.12.14-3.18.43-6.47,1.16-12.95,1.37-19.4.32-9.82,1.96-19.48,2.46-29.27.32-6.23.94-12.47,1.78-18.67,1.14-8.39,1.69-16.85,2.58-25.27.71-6.74,1.49-13.48,2.18-20.21.94-9.1,1.64-18.25,3.11-27.3.48-2.96.38-5.99.72-8.97,1.1-9.55,2.13-19.11,3.22-28.66,1.39-12.07,2.49-24.18,4.34-36.21,1.14-7.38,1.52-14.87,2.57-22.28.14-.97.34-1.92.67-2.83.75-2.11,2.09-2.43,3.32-.53,3.62,5.55,8.02,10.46,12.24,15.53.67,1.34.15,2.62-.2,3.91.12,11.97-.61,23.89-1.45,35.82-.32,4.63-.73,9.31-.56,13.97.12,3.47-.77,6.84-.67,10.29.25,8.7-1.32,17.3-1.3,26.03.01,7.9-.48,15.85-1.14,23.75-.61,7.39-.76,14.79-.99,22.2-.19,6.17-.69,12.34-.95,18.51-.3,7.21-.44,14.44-.62,21.66-.12,4.74-.28,9.49-.49,14.24-.21,4.83-.67,9.7-.26,14.53.27,3.2-.31,6.32-.31,9.5,0,6.26-.03,12.52-.2,18.78-.2,7.23-.13,14.46,0,21.68.12,6.44-.05,12.87.05,19.31.15,10.06.22,20.12.51,30.18.22,7.66.63,15.28-.8,22.95-1.17,6.29-1.29,12.77-1.26,19.21,0,1.19.28,2.26.6,3.36-3.21,1.98-6.57.74-9.66-.02-4.84-1.18-9.54-2.98-14.24-4.67-3.88-1.4-7.83-2.5-11.5-4.63-2.46-1.43-5.07-2.38-7.18-4.52-1.31-1.33-1.44-2.54-1.12-4,.69-3.16,0-4.54-3.14-4.82-2.53-.22-4.63-1.4-6.79-2.41-1.78-.84-2.37-2.57-3.03-4.53-1.88-5.64-.79-11.31-1-16.96-.04-1.18.56-2.16.94-3.22.65-1.8-.2-3.67-.21-5.52-.01-3.8.77-7.5.92-11.27.35-8.79,1.48-17.55,2.3-26.32.03-.34,0-.74.17-.99.86-1.2,1.88-2.16.36-3.8-.55-.59.43-2.26.71-3.3,1-3.59.96-7.3,1.78-10.92.76-3.34.74-6.93,1.59-10.31,1.37-5.46,2.14-11.03,2.13-16.6-.01-5.77.28-11.55.73-17.25.38-4.78.7-9.63,1.17-14.42.51-5.12.76-10.31,1.14-15.47.28-3.76.49-7.54,1.03-11.27.56-3.81.24-7.68.9-11.42.7-3.96.99-7.95,1.62-11.91.32-1.97.47-3.96.7-5.94.71-1.42-.68-2.85.02-4.27.83-1.98.24-4.14.68-6.13,1.21-5.39,1.21-10.93,2.15-16.36.46-2.68.36-5.52.92-8.25.42-.85-.21-1.89.47-2.69Z"/>
      <path class="cls-6" d="m203.41,514.73c-.93.57-1.78.77-2.43-.42-1.34-2.47-2.96-4.64-5.59-5.98-1.16-.59-1.78-1.89-2.46-3.05-1.75-2.94-5.44-4.44-6.16-8.18-1.94.35-2.83-1.02-3.44-2.39-1.29-2.91-4.78-3.68-6.09-6.55-.57-1.27-1.05-2.75-2.91-2.84-.36-.02-.68-.98-1.24-.45-.42.4-.56,1.06-.43,1.71.88,4.3.46,8.74,1.17,13.02.61,3.7.29,7.4.75,11.1.42,3.32,1.17,6.78,1.03,10-.22,5.11.53,10.07.97,15.07.55,6.39.73,12.8,1.35,19.19.42,4.28.48,8.66.78,12.98.4,5.76.58,11.57,1.7,17.26.73,3.73.24,7.5.78,11.25.87,6.15,1.1,12.39,1.84,18.56.37,3.09.3,6.19.48,9.27.3,4.93.81,9.86,1.39,14.73.74,6.27,1.47,12.58,1.89,18.83.49,7.4,1.63,14.73,2.03,22.14.23,4.33.71,8.67,1.07,13.01.05.63.02,1.21-.1,1.81-.08.41.02.95-.56,1.05-.53.09-.75-.35-.99-.71-.66-.95-.14-2.15-.44-3.01-1.83-5.21-2.22-10.71-3.42-16.04-.82-3.64-1.04-7.41-1.38-11.15-.27-2.97-.14-6.08-.97-8.87-.69-2.32-.97-4.75-.78-6.86.57-6.25-2.02-12.11-1.52-18.38.34-4.26-1.37-8.63-1.52-12.97-.23-6.58-1.2-13.09-1.53-19.64-.16-3.23-.84-6.47-.26-9.79.25-1.43-.48-3.04-.81-4.56-1.16-5.41-.94-10.96-1.51-16.43-.49-4.67-.39-9.53-.9-14.21-.95-8.64-1.93-17.34-2.16-25.97-.21-7.81-1.7-15.48-1.6-23.24.07-5.38-1.14-10.64-.76-16.07.25-3.53-.66-7.16-1.24-10.71-.4-2.46-2.5-4.29-4.12-5.51-2.11-1.59-3.22-3.81-4.56-5.66-2.44-3.38-5.15-6.46-7.86-9.59-1.5-1.73-2.93-3.66-4.37-5.34-1.7-1.98-2.46-5.14-5.49-5.92-1.14-1.31-.93-2.73-.32-4.18.54-.99.21-2.69,2.03-2.63,1.58.05,2.24,1.19,2.7,2.5.56,1.63,1.71,2.75,2.95,3.93,2.38,2.27,4.33,4.97,6.39,7.53,1.54,1.92,3.15,3.7,4.89,5.44,2.29,2.3,4.94,4.52,5.54,8.1.31,1.85,1.85,3.18,2.36,4.98.32,3.21,2.54,5.76,2.93,8.95.1.32.59-.22.27-.07-.13.06-.2,0-.16-.19,1.93-8.16-.1-16.25-.46-24.36-.31-7.03-1.11-14.03-1.6-21.05-.2-2.81-.7-5.59-.85-8.41-.05-.95-.43-1.92.21-2.82.86-.39,1.3.26,1.76.77.83.91,1.74,1.75,2.6,2.63.48.49,1.07,1.16,1.81.71.82-.5.24-1.25.01-1.88-.54-1.5-1.45-2.82-2.03-4.3-1.61-4.11-2.57-8.42-3.82-12.64-.13-.42-.2-.86-.19-1.3.02-.54.07-1.13.58-1.39.57-.29.99.17,1.37.52.59.54,1.01,1.22,1.41,1.91,3.28,5.57,7.38,10.5,11.69,15.28.24.26-.08-.05.18.19.83.76,1.77,2.05,2.86,1.31,1.26-.87.04-2.04-.46-2.99-1.96-3.73-4.89-6.9-6.21-11,.22-1.27.99-1.4,2.04-1.03,2.19,1.54,3.63,3.81,5.45,5.72,1.33,1.4,2.87,2.3,4.6,3,.48.19,1.05.44,1.44-.08.32-.43-.05-.84-.3-1.19-3.99-5.6-7.67-11.4-11.28-17.23-1.81-2.92-4.51-5.49-4.51-9.32,1.49-.86,3.22-.72,4.82-1.09,1.33-.31,3.21-.2,3.21-2.01,0-1.56-1.84-1.68-3.04-2.01-2.69-.72-5.58-.6-8.13-1.93-2.96-1.64-5.51-3.91-8.51-5.48-.85-.44-1.51-1.17-1.71-2.18.51-8.96-.62-17.82-1.41-26.72-.31-3.53-.81-7.12-.66-10.72.8-1.31,2.21-1.04,3.33-1.05,4.1-.03,8.14-.62,12.15-1.28,4.07-.67,7.25-3.1,10.09-6,.82-.84,1.02-1.77.86-2.9-.15-1.01-.09-2.01,1.34-2.04,1.01,2.78,2.98,5.39,1.92,8.55-.48,1.43,1.28,1.41,1.19,2.82-.24,3.61.18,7.31,1.28,10.74.53,1.67-1.42.37-.95,1.32.63,1.26.21,2.83.75,3.95,1.19,2.5.3,5.06.73,7.5.43,2.45.16,4.99,1.08,7.36.64,1.65-.43,3.51.13,4.99.9,2.38.33,4.81.78,7.21.39,2.03.39,4.41.26,6.6-.17,2.85.63,5.51,1,8.24.43,3.12.44,6.25.69,9.38-.6,1.13.45,2.13.26,3.23-.06.13-.07.27-.04.41.51,1.4.39,2.94.93,4.33-.19,1.9-.08,3.85-.08,5.68,0,3.61,1.26,7,1.06,10.61-.19,3.48-.51,7.02.1,10.52.91,5.21.4,10.45.48,15.68.06,4.2.51,8.41.45,12.65-.06,4.26-.11,8.56.41,12.78.5,4.06.58,8.13.6,12.16.02,6.88,2.46,13.64.92,20.58-.16.72.8,1.41.24,2.23Z"/>
      <path class="cls-44" d="m15.54,191.16c1.9.12,3.33-1.35,2.81-2.93-.24-.72-.16-1.39.17-2.05.89-1.74,1.41-3.58,1.44-5.52.03-2.37,1.48-3.54,3.37-4.5.79-.4,1.45-.44,2.24-.1,5.28,2.31,10.94,4.01,15.77,7.03,6.5,4.07,12.77,8.54,15.89,16.39,2.13,5.37,4.61,10.68,7.24,15.9,2.58,5.14,4.46,10.68,7.14,15.78,1.71,3.25,3.31,6.59,4.85,9.89,2.07,4.43,5.18,8.26,6.8,12.93.98,2.83,3.89,4.57,4.61,7.79-2.41-2.27-4.9-4.46-7.2-6.84-3.12-3.22-5.65-7.03-9.4-9.61-1.15-.79-1.79-1.93-2.56-2.96-1.33-1.78-3.32-2.88-4.66-4.39-1.84-2.08-3.84-3.93-5.82-5.84-4.47-4.31-8.91-8.64-13.61-12.72-5.67-4.92-11.02-10.19-16.19-15.66-2.07-2.19-4.26-4.32-6.67-6.1-1.28-.95-1.85-2.44-3.2-3.22-.37-.21-.68-.67-1.13-.33-.43.33-.16.77-.04,1.2.99,3.65,1.83,7.36,2.85,10.97.88,3.12,1.13,6.52,2.81,9.37,1.17,1.97,1.17,4.2,1.86,6.27,3.37,10.19,6.75,20.39,9.53,30.74,2.51,9.34,5.19,18.63,8.32,27.74,1.89,5.51,3.86,11.04,5.87,16.53,1.13,3.09,1.56,6.43,3.15,9.39.12.22.25.51.21.74-.82,4.74,1.4,8.05,4.98,10.74.19.14.25.45.38.68-.51.45-1.13.59-1.78.59-1.17-.23-2.16.11-3.23.65-.77.39-1.76.88-2.75.34-2.73-.46-5.22,1.07-7.99.87-2.4-.18-3.97-1.34-5.93-2.5-5.92-3.52-5.35-9.82-7.51-14.99-1.79-4.3-1.19-9.08-3.29-13.3-.73-1.47-.35-3.46-.65-5.18-1.79-10.26-3.73-20.48-4.35-30.91-.17-2.89-1.11-5.72-1.21-8.65-.17-5.2-1.32-10.3-1.44-15.54-.1-4.52-1.56-9.01-1.73-13.54-.25-6.48-.98-12.98-.09-19.49.25-1.84-.3-3.8.15-5.69Z"/>
      <path class="cls-20" d="m177.67,796.48c-1.35.67-2.78.28-4.17.29-5.5.04-10.99-.09-16.49,0-2.24.04-4.69.83-6.91-.44-1.69-2.39-2.43-5.22-3.49-7.89-1.82-4.6-5.31-7.74-8.77-11-1.92-1.81-4.12-3.27-6.3-4.61-3.68-2.26-7.79-3.51-12.24-3.03-1.16.13-2.22.52-3.1,1.34-.69.64-1.5,1.02-2.39.49-.81-.48-.69-1.4-.67-2.16.04-1.41.12-2.83.3-4.21.48-3.87-.73-7.29-2.44-10.64-1.99-3.89-1.5-6.36,1.79-9.33.34-.19.7-.25,1.08-.24,1.43.1,2.79.86,4.28.51,1.26.23,2.53.11,3.8.02,1.25.25,2.48.58,3.77.51,1.17-.09,2.21.65,3.38.54,1.42-.11,2.75.53,4.16.49,1.29-.03,2.59.03,3.66-.9,2.26-1.56,4.77-2.57,7.37-3.4,2.73-1.08,5.71-1.07,8.51-2.03,3.2-1.09,5.17.76,5.49,4.65.09,1.12-.78,2.64.32,3.29,1.32.78,3.03.87,4.53,1.36.6.2,1.49-.5,1.81.56,1.57.82,1.55,1.65.02,2.49-2.52,1.38-4.24,3.62-6.04,5.75-.67.8-1.56,1.94-.24,2.99,1.23.97,1.94-.14,2.61-.88,2.13-2.36,4.84-4.03,7.18-6.15,1.24-1.12,2.68-1.59,4.33-.94h.01c.5,1.07,1.74.69,2.48,1.31.9.75,1.13,1.41-.14,1.91-3.3,1.3-5.66,3.81-8.16,6.17-.93.87-1.52,1.93-1.92,3.12-.25.73-.25,1.4.47,1.88.74.5,1.29.2,1.82-.41.99-1.13,2.3-1.89,3.28-3.06,1.87-2.24,3.92-4.3,6.8-5.26,1.06-.35,1.21-1.75,2.31-2.09,1.85-.23,3.09,1.27,4.73,1.65.74,1.69-.79,1.92-1.67,2.41-3.47,1.94-6.2,4.61-8.17,8.05-.31.55-1.07,1.17-.32,1.86.63.58,1.47.63,2.22.21,1.17-.66,2.01-1.7,2.79-2.77,1.87-2.57,4.1-4.59,7.4-5.06.85-.12,1.39-.72,1.93-1.3.69-.75,1.43-.99,2.27-.21,1.97-.12,3.19,1.33,4.68,2.23.12,1.68-1.37,1.94-2.35,2.45-4.02,2.09-6.17,5.79-8.54,9.37-4.06,6.12-5.84,13.01-7.05,20.11Z"/>
      <path class="cls-6" d="m49.57,320.08c1.96-.48,3.66-1.9,5.83-1.68.33,4.8,4.32,6.32,7.58,8.49.66.44,1.41.7,2.07,1.13,1.71.14,1.6,2.14,2.99,2.9,1.11.6,2.26,1.75,3.23,2.82-.03.41-.92.27-.58.9.65,1.21.48,2.18-.76,2.91-.97.57-1.15,1.61-1.1,2.56.18,3.53-.88,6.99-.44,10.55.14,1.1.74,2.64-.95,3.35-4.1-3.72-6.89-8.55-10.64-12.58-.85-.91-1.15-2.32-1.94-3.31-.59-.75-1.45-1.47-1.84.42-.97,4.66-1.97,9.3-1.9,14.1.03,2.15-.79,4.21-1.06,6.29-.38,3.01-.68,6.04-.98,9.07-.48,4.66-1.32,9.27-1.48,14-.14,4.22-.81,8.53-1.53,12.72-1.17,6.78-1.71,13.65-2.43,20.45-.75,7.04-2.09,14.06-2.02,21.23.04,3.64-1.04,7.28-1.44,10.93-.49,4.39-.42,8.87-1.28,13.18-.82,4.06-.45,8.16-1.17,12.19-1.11,6.23-1.86,12.55-2.37,18.83-.67,8.23-1.66,16.42-2.47,24.63-.29,2.97-.28,6.09-.63,9.01-.63,5.19-.8,10.42-1.42,15.61-.66,5.53-1.44,11.04-1.32,16.69.05,2.5-.12,5.36-.95,7.93-.17.54-.19,1.01-.1,1.54.77,4.57-.65,9.05-.69,13.62-.04,3.63-.32,7.49-.92,11.25-.86,5.42.03,11.09-.49,16.59-.85,9-.96,18.05-1.5,27.06-.46,7.64-1.62,15.2-2.02,22.84-.13,2.45-.51,4.89-.48,7.36,0,.64.27,1.48-1.32,1.85,0-3.9.11-7.67-.02-11.43-.24-6.88-.49-13.78-.54-20.65-.04-5.52.09-11.13.5-16.69.14-1.87.36-3.75-.11-5.66-.4-1.63,1.08-2.97.91-4.75-.53-5.51.54-11,.5-16.55-.03-4.61.53-9.37.99-14.05.46-4.66.69-9.33,1.09-13.99.58-6.79,1-13.59,1.5-20.38.24-3.26.41-6.6.67-9.85.37-4.64.93-9.28,1.34-13.93.47-5.28.99-10.56,1.57-15.82.56-5.11.94-10.24,1.59-15.34,1-7.87,1.87-15.76,2.71-23.65.76-7.12,1.39-14.24,2.5-21.32.5-3.2.53-6.47.87-9.7.64-6.11,1.63-12.19,1.96-18.31.33-6.27,1.47-12.45,1.81-18.73.22-4.1.66-8.35,1.78-12.46.64-2.34-.22-5.12.53-7.39,1.16-3.53.96-7.11,1.29-10.64.68-7.21,2.21-14.3,2.71-21.55.3-4.36.76-8.75,1.14-13.13.11-1.25-.41-2.69-1.48-3.7-.58-.55-1.17-1.1-1.17-1.99.26-1.53,1.6-2.26,2.44-3.36.56-.74,1.57-1.23,1.44-2.39Z"/>
      <path class="cls-38" d="m245.37,92.56c-2.4-.95-4.51-2.4-7.14-3.05-4.37-1.09-8.51-.42-12.69.44-.95.2-1.86.44-2.83.37-2.62-2.89-5.77-5.21-8.07-8.5-2.44-3.5-2.6-7.24-2.34-11.07.37-5.59,2.04-11.15.87-16.76-.49-2.37-.49-4.97-2.05-7.07-.93-1.26-.5-2.43.32-3.54.88-1.19,2.1-1.12,3.28-.71,2.8.97,3.87,3.49,5.34,5.78,1.16,1.8.57,4.21,2.4,5.83,2.38-3.21,3.8-6.43,4.08-10.59.53-7.81.29-15.6.39-23.4,0-.73.32-1.37.34-2.04.04-1.08.5-1.64,1.5-1.8.97-.16,1.7.28,2.18,1.09,1.1,1.88,1.86,3.82,2.03,6.07.35,4.59,1.95,9.03,1.82,13.7.53,1.09.02,2.2.2,3.35.18-1.06.94-1.86,1.24-2.87.93-5.09,1.38-10.27,2.64-15.32.33-1.32,1.1-1.77,2.04-2.04,1.53-.44.82,1.13,1.25,1.7.92,1.22,1.03,2.74,1.04,4.24.03,6.9.7,13.82-.86,20.65-.16.69.12,1.47.72,2.38,1.55-3.32,3.11-6.65,4.66-9.97,1.07-2.3,2.11-4.61,3.23-6.88.47-.96,1.14-2.05,2.41-1.44,1.1.53,1.07,1.75.82,2.8-1.2,5.08-2.34,10.17-3.73,15.2-.37,1.33-2.06,2.24-1.46,4.02,3.08-2.71,4.6-6.48,6.89-9.69.59-.82.95-2.13,2.3-1.38,1.35.75,1.49,2.21.95,3.42-1.8,4.01-3.44,8.15-5.76,11.85-2.21,3.52-3.98,6.88-3.85,11.2.11,3.57-1.67,7.05-1.24,10.64.48,3.98-.57,7.61-1.54,11.34-.25.97-.77,1.48-1.37,2.08Z"/>
      <path class="cls-44" d="m159.51,320.63c1.66-.52,3.42-.03,4.9.29,6.01,1.29,8.03-3.31,10.36-6.92,2.25-3.49,3.52-7.49,4.36-11.71.65-3.23,2.18-6.43,3.23-9.62.85-2.56,2.52-5.33,1.51-8.34-.5-1.48,1.48-1.03,1.55-2.35.12-2.45.58-4.92,1.22-7.29,1.13-4.2,1.31-8.57,2.43-12.74,2.42-9,3.16-18.34,5.74-27.29,1.13-3.92,1.59-8.05,1.94-11.97.58-6.47,1.26-12.99,1.3-19.54.02-3.93,2.03-7.43,3.38-11.06.97-2.61,1.4-5.59,2.46-7.95,1.39-3.12,1.7-6.26,2.51-9.38.2-.79.46-1.58.28-2.31-.55-2.19.43-3.86,1.61-5.65.95,3.95.78,7.72.2,11.63-.63,4.25-.53,8.62-.49,12.94.01,1.27-.38,2.39-.47,3.59-.27,3.32-.39,6.67-.84,9.96-.98,7.15-1.44,14.35-2.24,21.51-.43,3.9.16,8.07-.5,11.97-.64,3.73-.51,7.43-.89,11.11-.42,4.12-.51,8.22-.62,12.34-.02.72-.39,1.14-1,1.42-1.88-1.38-4.24-1.85-6.07-3.42-1.28-1.1-2.48-.11-2.36,2.16.16,2.86.63,5.73.34,8.58-.38,3.71.08,7.4-.2,11.13-.37,4.9-1.14,9.81-.96,14.72.08,2.1,1.63,4.07,2.52,6.07,2.56,5.73,2.07,9.81-2.65,13.68-.75.61-1.63,1.11-2.12,1.94-.66,1.11-.93-.39-1.42-.12-.06.16-.12.39-.25.44-2.84,1.13-5.48,2.73-8.37,3.75-2.44-.5-1.54-1.9-.75-3.12,2.39-3.7,5.1-7.19,7.21-11.08.55-1.01,1.05-2.04,1.54-3.08.34-.71.78-1.59,0-2.18-.89-.68-1.4.27-1.96.78-.33.3-.63.63-.86,1.01-3.16,5.17-6.84,10.01-9.56,15.46-.91,1.82-2.92,2.86-3.43,4.95-2.21,2.35-4.84,1.06-7.35.85-2.06-.27-3.31-1.86-4.8-3.02-.61-.48-.96-1.28-.42-2.12Z"/>
      <path class="cls-20" d="m199.29,797.03c-1.8-1.09-3.88-.42-5.66-.36-3.97.14-7.9-.41-11.85-.21-.85-3.37-.22-6.7,1.2-9.64,1.13-2.35,2.28-4.72,3.49-7.05,2.75-5.29,6.33-9.68,12.04-11.95.65-.26,1.1-.88,1.8-1.08,2.69-.54,5.5-.63,7.87-2.29,3.19-1.89,7.7-.37,9.58,3.19,1.73,3.27,2.89,6.9,2.37,10.41-.42,2.88-2.06,5.69-3.94,8.2-2.27,3.03-4.79,5.8-7.35,8.56-2.38,2.56-5.66,1.45-8.5,2.15-.33.08-.7.04-1.05.06Z"/>
      <path class="cls-31" d="m179.74,321.63c2.89-1.29,5.59-3.03,8.77-3.62-.47,2.47.5,4.8.72,7.2-.58.28-1.27.74-.9,1.37,1.37,2.32-1.02,3.68-1.31,5.56-.15.96-.89-.37-1.61.38-3.54,3.66-8.34,4.62-13.12,5.18-3.49.41-7.05.25-10.53.9-1.35,1.12-2.98.72-4.51.85-4.79-.53-9.6-.54-14.42-.61-2.06-.03-4.2-.28-6.14-1.25-4.47-3.07-6.93-7.72-9.54-12.25.19-1.38,1.37-1.16,2.23-1.28,1.49-.21,2.97.2,4.45.27,7.69.39,15.39.97,23.07.34,2.78-.23,5.31.37,7.94.68,2.32.07,4.69.73,6.9-.56,2.79-.76,5.21-2.43,8-3.18Z"/>
      <path class="cls-1" d="m200.36,767.19c-.86,1.65-2.75,1.57-4.1,2.42-5.33,3.37-8.7,8.12-10.61,14.03-.05.16-.17.31-.28.44-3.21,3.55-2.82,8.13-3.6,12.39-1.37.1-2.73.43-4.1.02-.15-5.39,1.34-10.28,3.73-15.11,1.03-2.07,1.94-4.28,3.18-6.19,2.4-3.68,4.95-7.35,9.21-9.23.7-.31,1.51-.55,1.82-1.4,1.4.11,2.93-.11,3.71,1.52.25.46,1.35.14,1.03,1.12Z"/>
      <path class="cls-14" d="m144.28,742.84l.27.71c-2.94,0-4.92,2.6-7.76,2.89,2.18-3.89,1.64-8.31,2.17-12.47.85-6.68,1.11-13.44,1.69-20.15.13-1.47-1.08-2.11-1.2-3.3,2.11-.58,4.23-.09,6.35-.06-.77.67-1.06,1.46-1.07,2.53-.07,8.24-.89,16.44-1.42,24.66-.08,1.3-.91,2.44-.93,3.82-.02,1.53.53,1.93,1.9,1.38Z"/>
      <path class="cls-16" d="m179.74,757.5c-.41,3.08-3.68,2.84-5.3,4.54-2.13,2.25-4.55,4.24-6.6,6.56-.85.97-1.59,1.14-2.42.58-.84-.57-1.85-1.06-1.22-2.69,1.31-3.4,7.48-8.86,11.43-10.21-.4-1.42-2.65-.61-2.8-2.33,1.67.58,3.32,1.19,5,1.71.98.3,1.77.71,1.91,1.84Z"/>
      <path class="cls-12" d="m190.94,762.32c-.26-.05-.69-.21-.75-.12-2.05,2.93-6.19,2.13-8.4,4.75-1.31,1.56-2.67,3.06-3.98,4.62-1.06,1.26-2.4,1.61-3.66.65-1.42-1.08-.53-2.25.21-3.46,2.21-3.56,5.07-6.34,8.88-8.11.65-.3,1.29-.63,1.24-1.52,2.08,1.21,4.84,1.04,6.46,3.18Z"/>
      <path class="cls-16" d="m172.81,753.93c-4,.58-6.52,3.56-9.3,6-1,.88-2.13,1.69-2.96,2.86-.64.91-1.8.09-2.54-.43-.84-.58-1.18-1.31-.49-2.45,1.86-3.08,4.27-5.68,7.34-7.39,1.69-.95.11-1.26.09-1.85,1.38-.05,2.63.4,4.2-.13,2.12-.71,3.62.05,3.66,3.39Z"/>
      <path class="cls-14" d="m236.89,269.12c-1.32-.16-.59-1.1-.5-1.61,1.03-5.77,2.12-11.52,3.23-17.28.16-.82.92-1.22,1.59-1.08,1.35.28,2.5.98,2.54,2.6.04,1.77-.56,3.43-1.01,5.1-.67,2.45-.88,4.97-1.1,7.49-.92,2.25-2.51,3.84-4.74,4.78Z"/>
      <path class="cls-4" d="m200.36,767.19c-.34-.37-.69-.75-1.03-1.12,3.15.54,5.71-2.14,8.85-1.61-.32,1.62-1.87,1.67-2.95,2.02-1.54.49-3.24.5-4.87.71Z"/>
      <path class="cls-37" d="m236.24,37.78c.41,1.68-1.3,2.99-.61,4.75-1.95-1.6-1.37-3.41-.83-5.23.46.23.65,1.27,1.44.48Z"/>
      <path class="cls-23" d="m213.58,631.94c-.86-1.02-1.37-2.14-.97-3.51,2.49.57,2.62,1.8.97,3.51Z"/>
      <path class="cls-40" d="m199.23,411.84c-1.35-1.22-1.3-2.74-.93-4.33,1.6,1.17,1.95,2.6.93,4.33Z"/>
      <path class="cls-40" d="m198.34,407.09c-.49-1.05-1.55-2.05-.26-3.23.11,1.08,1.29,2.07.26,3.23Z"/>
      <path class="cls-30" d="m71.08,707.83c-1.92-1.51-4.46-1.24-6.61-2.45-2.03-1.14-3.97-2.21-5.53-3.93,1.13-4.4.58-8.95,1.22-13.4,1.45-10.1.5-20.24.56-30.37.05-9.08.26-18.17.35-27.26.06-6.24.29-12.49.18-18.74-.12-6.69.26-13.42.31-20.12.06-8.46.48-16.9.46-25.37,0-3.84.07-7.75.4-11.59.72-8.35.1-16.73.72-25.09.41-5.5.23-11.08.54-16.61.54-9.69.58-19.4,1.08-29.09.38-7.38,1.26-14.72,1.2-22.13-.04-5.37.52-10.73.8-16.1.58-10.9,1.06-21.8,1.61-32.7.33-6.57.58-13.15.58-19.73,0-2.11.27-4.22.45-6.33.55-6.49.35-13.02,1.03-19.51-.14-1.66-.1-3.33-.11-4.99,0-1.06-.03-2.14,1.13-2.72,1.52.12,2.27,1.29,2.92,2.39.72,1.22,1.61,2.3,2.38,3.46,2.38,3.6,5.49,6.54,8.42,9.65.68.72,1.17,1.53,1.43,2.49,1.54,2.15.14,4.42.28,6.64.32,6.8-.32,13.56-.64,20.35-.28,6-.31,12.01-.63,18-.39,7.2-.19,14.42-.83,21.62-.42,4.74.13,9.5-.22,14.27-.48,6.57-.55,13.17-.56,19.75,0,8.27-.71,16.54-.36,24.79.3,7.14.04,14.28.09,21.4.04,6.84.19,13.73-.05,20.6-.14,3.83-.42,7.71.19,11.61.74,4.71-.15,9.5-.07,14.26.11,7.3-.46,14.6-.02,21.91.51,8.54.23,17.11.43,25.66.2,8.63.36,17.27.52,25.9.14,7.39.24,14.79.52,22.16.35,8.99.4,17.99,1.01,26.97.36,5.28.16,10.58.71,15.86.09.9-.25,1.74-.88,2.43-1.27.96-2.73.55-4.05.39-4.01-.49-7.76-1.75-10.97-4.33Z"/>
      <path class="cls-6" d="m71.11,367.22c.33,4.02-1.09,7.95-.64,11.96.61,5.42-.97,10.7-.81,16.12.09,2.91.26,5.94-.48,8.97-.64,2.61.39,5.45-.02,8.32-.68,4.8-.54,9.71-.84,14.57-.2,3.19.22,6.38-.35,9.57-1.07,6.02-.44,12.16-1.1,18.25-.32,3.01-.47,6.27-.1,9.45.32,2.73-.24,5.59-.55,8.33-.78,6.92-.73,13.87-1.25,20.8-.49,6.63-.14,13.32-.66,19.94-.3,3.85-.66,7.84-.54,11.54.15,4.74-.59,9.41-.35,14.14.38,7.7-.11,15.43-.41,23.13-.18,4.66-.21,9.35-.46,14.02-.24,4.42-.06,8.93-.12,13.37-.07,5.5-.16,11.02-.38,16.53-.17,4.24.03,8.47.04,12.7,0,4.66-.2,9.33-.27,13.99-.1,7.28-.19,14.56-.23,21.84-.04,7.16-.17,14.34.06,21.49.18,5.46-.84,10.79-1.19,16.19-.14,2.17-.51,4.37-.23,6.49.18,1.42-.37,1.92-1.28,2.5-.81.46.18,1.91-1.14,2.09-1.11-.17-1.51-1.09-1.43-1.93.49-5.9.42-11.82,1.13-17.73.83-6.87,2.19-13.76,1.17-20.81-.53-3.67-.18-7.46-.25-11.19-.17-9.16-.66-18.32-.43-27.47.2-8-.29-15.98.09-23.98.24-5.03-.16-10.09-.16-15.13,0-4.59.15-9.17.23-13.76.09-5.11.23-10.22.26-15.33.02-3.97-.08-8.02.27-11.9.39-4.43.34-8.88.61-13.29.34-5.62.62-11.3.54-16.91-.09-5.84.64-11.58.88-17.36.3-7.13.3-14.27.56-21.41.16-4.52.59-9.03.85-13.55.22-3.75.4-7.51.54-11.27.25-6.97.21-13.97.84-20.91.19-2.02.93-4.43.8-6.26-.18-2.52.1-4.95.11-7.42.01-3.21.77-6.37.54-9.61-.28-3.84.49-7.65.48-11.51,0-3.88.67-7.77.75-11.69.14-6.24.28-12.5.86-18.71.23-2.47-.37-4.82-.12-7.22,1.87.52,3.23,1.04,2.35,3.68-.75,2.25.97,4.31,1.85,6.38Z"/>
      <path class="cls-20" d="m86.53,795.78c-3.03.89-6.1.15-9.15.29-5.69.28-11.47.61-17.02-.39-8.44-1.53-16.1-8.04-17.25-17.74-1.13-9.57,5.35-15.69,15.05-15.57,2.43.03,5.18-.36,7.63.72,3.96,2.41,8.28,4.18,11.67,7.59,4.38,4.41,6.94,9.65,8.14,15.62.45,2.23,1.39,4.37,1.38,6.7,0,.96.27,1.94-.46,2.78Z"/>
      <path class="cls-20" d="m71.56,758.13c1.66-.18,1.65-2.39,3.24-2.66,2.87-.61,5.66-.03,8.11,1.31,1.98,1.08,4.18,1.87,5.86,3.51.67.65,1.55,1.08,2.31.19.82-.96.29-1.9-.53-2.51-4.04-3.04-8.26-5.5-13.55-3.19-.8.35-1.33.41-1.61-.55-.24-.85-.89-1.49-1.18-2.31-1.15-.68-1.24-2.05-1.81-3.06-.57-1.01-.22-2.21,1.25-3,1.41-.77,2.74-1.47,4.35-1.54,1.36-.36,2.69-.06,4.02.18,1.69,1.16,3.82,1.4,5.47,2.64.71.08.32,1.81,1.59,1.07.65-.18,1.32-.3,1.99-.41,1.42-.49,2.93-.49,4.38-.8,1.26-.22,2.54-.25,3.8-.52.82-.05,1.63-.22,2.45-.24,1.03.18,2.06.16,3.08-.04,1.57-.18,3.13-1.49,4.73-.06-.17,2.8-1.05,5.5-1.22,8.3-.29,4.54-1.65,8.9-2.31,13.38-.72,4.91-.99,9.94-2.27,14.8-.85,3.2-.31,6.64-1.21,9.89-.32,1.18-.29,2.46-1.15,3.46-1.77,1.44-4.07.4-5.77.38-2.18-.02-4.64.46-6.88-.33-.81-.73-.34-1.66-.34-2.49.07-8.69-2.62-16.39-8.14-23.1-2.18-2.65-5.13-4.24-8.08-5.82-1.39-.74-2.9-1.29-3.79-2.72-.07-.91.7-1.17,1.25-1.58,3.9,1.55,8.31,1.81,11.74,4.58.82.66,1.54,1.51,2.59,1.79.91.25,1.78.07,2.31-.81.36-.6.32-1.35-.25-1.67-3.47-1.94-6.42-4.97-10.71-5.2-.81-.04-1.56.35-2.36.24-.64-.09-1.51,0-1.36-1.11Z"/>
      <path class="cls-33" d="m101.34,795.95c.33-2.16.82-4.3.97-6.47.37-5.41,1.21-10.78,2.26-16.07.97-4.91,1.07-9.89,2.44-14.82,1.11-3.98,1.33-8.42,2.19-12.63.12-.41.38-.69.76-.88,1.06-.13,2.29-1.15,2.98.59-3.18,3.86-3.21,5.52-.58,10.08,2.24,3.89,1.94,8.18,1.59,12.44-.05.59-.5,1.15-.09,1.77.29.43-.3,1.14.37,1.37.52.18.93-.14,1.39-.49,2.91-2.23,5.87-1.87,9.41-1.19,4.13.8,7.28,2.94,10.54,5.02,2.39,1.52,4.42,3.65,6.42,5.7,2.48,2.52,4.89,5.38,5.74,8.73.64,2.5,2.58,4.53,2.38,7.24-1.33.94-2.99-.09-4.34.71-1.1-.87-1.63-2.08-1.96-3.38-1.26-5.02-4.56-8.76-8.03-12.23-3.61-3.61-7.77-6.5-12.92-7.84-2.95-.77-5.34.65-7.98,1.07-.69.11-.35.87-.4,1.36-.43,3.9-.06,7.8-.12,11.7-.03,1.73,1.39,3.04,1.39,4.77-3.97,1.3-8.14,1.91-11.96,3.71-.75.35-1.7.55-2.44-.26Z"/>
      <path class="cls-22" d="m91.21,748.18c-.69.15-1.31.69-2.08.43-.72-.69-.6-1.61-.7-2.47-.78-6.73-1.26-13.48-1.96-20.22-.41-3.94-.46-7.9-5.53-9.19-.22.11-.02.61.07.99,2.04,8.41,3.19,16.98,4.29,25.54.24,1.89,2.43,2.37,2.25,4.25-1.64-1.1-4.01-.68-5.3-2.53-1.88-3.36-1.4-7.18-2.01-10.78-1.04-6.06-1.98-12.13-3.08-18.18-.22-1.19-.88-2.07-1.86-2.77-1.36-.96-2.74-1.91-4.15-2.8.77-.89,0-1.75-.05-2.62,4.82,1.79,9.41,4.51,14.87,3.7,1.11-.21,2.04-1,3.21-1.01,5.64.52,11.28,1.04,16.91,1.56.98,6.18,2.43,12.3,2.41,18.6-.26,1.97-1.62,1.55-2.82,1.15-.92,4.3.06,8.43-.14,12.55-.04.77.21,1.61-.55,2.2-1.05.36-2.09.8-3.16.09-.96-3.01-.47-6.09-.31-9.13.11-2.12.16-4.24.18-6.36,0-.8.06-1.66-.5-2.28-.69-.76-1.4-2.03-2.45-1.71-1.24.37-.42,1.66-.38,2.56.22,5.2.89,10.37,1.25,15.56.04.63.1,1.24-.39,1.74-1.23.18-2.46.35-3.69.53-1.12-2.2-.14-4.49-.24-6.73-.21-4.83-.83-9.64-.82-14.48,0-1.16-.65-1.97-1.59-2.58-1.32-.84-2.6-1.76-4.01-2.66,1.23,7.8,2.29,15.52,2.82,23.29.09,1.26.66,2.64-.47,3.77Z"/>
      <path class="cls-20" d="m115.74,792.51c-2.32-2.47-2.1-5.48-1.98-8.55.13-3.25.03-6.51.03-9.88.46-.06,1.16-.03,1.76-.26,6.7-2.47,11.98.12,17.19,4.23,3.6,2.84,6.51,6.14,9.16,9.8,2.02,2.78,2.39,6.21,3.86,9.2-2.39-1.14-4.85-.45-7.32-.46-3.98-.01-8-.28-11.91-.99-1.29-.23-2.03.52-3.18.46-2.6-.15-3.99-2.16-5.92-3.25-.71-.4-1.09-.42-1.7-.3Z"/>
      <path class="cls-18" d="m71.13,710.45c3.45.38,6.21,3.4,6.96,6.76,1.12,5.01,1.79,10.1,2.69,15.13.74,4.12,1.25,8.39,1.45,12.63-1.46.07-2.9.07-4.23-.67.6-1.52-.3-2.77-.63-4.16-.78-3.32-1.02-6.76-1.74-10.09-1.41-6.55-2.99-13.07-4.5-19.6Z"/>
      <path class="cls-29" d="m68.34,761.88c6.78,3.16,13.24,6.74,16.48,14.02,2.48,5.57,4.7,11.24,4.29,17.53-.06.87-.27,1.72-.41,2.58-.82.89-1.41-.43-2.15-.23,0-3.91-1.5-7.55-2.09-11.33-.61-3.93-2.68-7.03-4.71-10.12-2.63-3.99-6.4-6.86-10.8-8.75-1.35-.58-2.43-1.25-3.15-2.5,1.11.14,1.8-.6,2.55-1.21Z"/>
      <path class="cls-12" d="m71.56,758.13c1.35,1.66,3.05.18,4.49.24,3.44.16,5.38,2.84,8.2,3.89.39.15.77.6,1.28.79,1.82.66,2.06,2.29,1.27,3.53-.74,1.16-2.7,1.47-3.7.52-2.94-2.81-6.39-4.2-10.27-4.99-1.15-.23-2.16-1.19-3.24-1.82.24-1.11,1.69-1.1,1.97-2.17Z"/>
      <path class="cls-26" d="m74.21,751.91c1.23,1.9,2.49,1.98,4.91,1.5,4.77-.95,9.04,1.25,12.51,4.69,1.11,1.09.92,2.23-.12,3.21-1.05,1-2.02.6-3-.28-3.9-3.49-8.6-5.06-13.72-5.56.94-1.38-1.21-2.24-.59-3.56Z"/>
      <path class="cls-11" d="m22.38,439.37c.19.96.6,1.96-.47,2.69-.76-1.06-1.84-2.18.47-2.69Z"/>
      <path class="cls-17" d="m18.15,472.79c-.21,1.42,1.5,2.85-.02,4.27-.48-1.42-.87-2.85.02-4.27Z"/>
      <path class="cls-13" d="m147.86,40.06c1.71,7.57,3.09,15.18,3.85,22.93.84,8.44,1.6,16.91,1.31,25.37-.25,7.39-.67,14.89-3.28,21.94-1.52,4.1-2.49,8.5-5.53,11.9-1.35,2.62-3.69,4.07-6.41,4.57-7.24,1.34-14.2.76-20.99-2.65-4.34-2.18-8.39-4.72-12.48-7.28-2.85-1.78-4.95-4.48-7.9-6.12-.6-.33-1.11-.89-1.14-1.69.77-2.78-.52-5.38-.95-8.01-.52-3.18-1.23-6.37-1.84-9.55-1.08-5.56-2.18-11.13-2.85-16.78-.56-4.72-1.1-9.49-2.65-14.05-.23-2.41.42-4.67,1.15-6.92,3.08-6.29,8.27-10.27,14.36-13.33,1.47-.74,2.7-1.91,4.15-2.76,2.75-1.61,5.65-2.85,8.6-3.92,2.86-1.04,6.04-.97,8.93-2.11.9-.35,1.82-.65,2.69-1.07,3.24-.25,6.32.73,9.29,1.72,4.54,1.51,8.59,4,11.68,7.8Z"/>
      <path class="cls-14" d="m95.66,108.86c2.85,2.7,5.88,5.2,9.1,7.44,2.53,1.76,5.03,3.64,7.78,5,4.94,2.45,9.73,5.25,15.62,5.33,2.93.04,5.85.25,8.72-.32,2.75-.54,5.32-1.61,6.9-4.2.04-.06.16-.1.23-.09.07.02.13.11.19.17-1.07,6.29-4.65,11.44-7.59,16.88-.37.68-.83,1.23-1.57,1.69-1.94,1.21-2.66,2.81-1.99,5.33.65,2.45.77,5.21,1.42,7.54.86,3.1,1.1,6.3,2.03,9.36,1,3.28.74,6.84,1.6,10.03,1.07,3.95.92,7.99,1.91,11.93.82,3.28,1.73,6.65,1.96,10.04.12,1.77.86,3.2,1.62,4.48.83,1.4,2.78.04,3.31-.47,1.91-1.88,3.94-3.7,5.84-5.58,3.77-3.73,6.56-8.11,8.75-12.71,1.53-3.21,3.9-5.91,5.06-9.28.25-.73.73-1.4,1.21-2.03,1.2-1.57,2.65-3.3,4.78-2.4,2.01.85,2.86,2.91,2.91,5.16.17,6.67.44,13.42-1.19,19.91-1.11,4.42-1.63,9.16-4.46,13.01-.64.87-.3,1.83-.62,2.74-1.05,2.96-2.7,5.71-4.16,8.36-1.95,3.53-4.36,7-7.2,10.05-1.51,1.63-3.02,3.22-4.72,4.66-1.22,1.04-1.2,5.41.09,7.35.65.97.88,1.54.38,2.71-.77,1.82.78,3.47,1.2,5.15.98,3.93,1.42,7.86,1.93,11.84.32,2.51.92,5.08,1.46,7.61.83,3.89,1.07,7.84,1.6,11.75.66,4.89,2.08,9.69,2.58,14.6.41,3.95,1.49,7.74,2.12,11.62.6,3.71,2.08,7.31,3.03,11.01.49,1.9-.51,3.03-1.35,4.3-.62.93-1.11.26-1.59-.35-1.31-1.68-1.38-3.78-1.98-5.69-1.51-4.81-3.13-9.62-4.15-14.54-.47-2.27-1.19-4.67-1.08-6.94.22-4.53-1.92-8.64-1.82-13.09.07-3.47-1.95-6.59-2.06-9.92-.32-10.02-2.79-19.62-5.13-29.24-.31-1.28,1.18-3.2-.71-3.68-.96-.24-2.26,1.13-3.47,1.61-4.19,1.65-8.33,2.97-13.04,2.89-2.58-.04-5.32.14-7.87-.09-4.71-.43-9.07-2.42-13.15-4.83-1.13-.66-1.82-2.2-.99-3.43.73-1.09,2.06-1.04,3.32-.37,4.49,2.39,9.11,3.72,14.37,3.97,5.56.26,10.65-.33,15.69-2.5,1.51-.65,2.9-1.54,4.37-2.25,1.72-.84,3.3-2.08,2.66-4.95-1.38-6.21-2.15-12.56-3.19-18.85-.1-.6.55-1.17-.07-1.87-4.45,2.33-9.07,4.19-14.1,5.12-4.99.93-9.76.05-14.58-.79-3-.52-5.67-1.77-8.17-3.48-.7-.48-1.19-1.02-1.5-1.77-.25-.58-.48-1.28.06-1.72.53-.43.89.25,1.33.49,4.59,2.45,9.33,4.02,14.7,4.01,3.61,0,6.97-.74,10.41-1.44,1.45-.3,2.55-1.54,4.19-1.36.36.04,1.29-.72,1-1.61-2.54-7.69-3.14-15.69-4.18-23.65-.61-4.66-.8-9.41-1.75-13.98-.91-4.36-1.04-8.83-2.34-13.12-.57-1.89-.38-3.93-1.01-5.88-.4-1.23-.94-1.54-2.01-1.95-2.24-.87-4.7-1.59-5.87-4.03-.48-.99-1.53-1.13-2.27-1.68-3.86-2.86-6.77-6.65-10.16-9.94-6.86-6.65-12.54-14.11-17.64-22.1-.04-.06,0-.17,0-.26,2,.18,2.84,1.52,3.27,3.27Z"/>
      <path class="cls-6" d="m135.7,437.81c-3.14-3.12-5.75-6.74-8.81-9.88-2.43-2.49-3.53-5.88-5.92-8.04-2.47-2.23-3.6-5.35-6.12-7.39-.25-.2-.67-.5-.85-.41-.84.38-.36,1.23-.53,1.86-.56.42-.83,1.61-1.85.79-.63-.5-1.17-1.23-.75-2.07,1.63-3.21,1.55-6.76,1.29-10.08-.46-5.87-.22-11.73-.48-17.58-.2-4.45-.72-8.9-.98-13.35-.04-.6-.24-1.22.16-1.79.88-.02,1.76-.04,2.64-.06,2.67-.38,1.89,1.99,2.57,3.2,3.84,4.03,7.77,7.96,12.14,11.42.98.78,2.39.48,3.43,1.2,1.75,2.54,2.74,5.47,4.21,8.15.26.56.7,1.05.69,1.72-.95,5.18.26,10.36-.03,15.52-.22,3.95.28,7.88,0,11.81-.3,3.98.33,7.92.27,11.89-.02,1.14.15,2.34-1.05,3.07Z"/>
      <path class="cls-24" d="m164.84,325.36c-1.09,1.13-2.19.03-3.29.02-3.59-.02-7.19.2-10.78.08-6.24-.21-12.5.18-18.73-.78-1.46-.23-3.45-.83-4.89.66-2.16-1.64-3-4.26-4.54-6.35-2.03-2.75-4.08-5.55-5.96-8.44-2.38-3.64-4.84-7.27-8.07-10.27-1.08-1-.9-2.91-2.48-3.59-.47-.26-.65-.87-1.05-1.11-3.27-1.9-4.55-4.77-4.31-8.45-1.47-4.41-1.71-9.14-3.74-13.48,3.34,3.4,6.98,6.23,10.22,9.49,3.48,3.5,6.94,7.23,11.07,9.78,3.3,2.03,6.02,4.78,9.46,6.69,3.34,1.86,6.17,4.9,9.39,7.18,3.26,2.31,5.69,5.56,8.89,7.77,4.05,2.8,8.43,5.32,13.5,6.07.78,2.7,3.17,3.59,5.33,4.73Z"/>
      <path class="cls-44" d="m147.86,40.06c-2.17-.31-3.16-2.3-4.72-3.45-4.79-3.55-10.28-4.79-15.96-5.62-.16-.02-.34.06-.51.09-4.28.42-8.57.58-12.77,1.7-5.81,1.55-10.97,4.19-15.48,8.18-3.1,2.74-6.37,5.3-8.15,9.21-.19.41-.63.6-1.12.41-1.14-2.27.47-4.09,1.18-5.93,2.02-5.22,4.26-10.36,6.63-15.43,1.78-3.81,4.4-7.14,7.1-10.31,1.29-1.52,2.35-3.22,4.02-4.57,2.31-1.87,4.75-3.26,7.44-4.26,3.73-1.38,7.36-.88,11.03.69,8.21,3.51,12.33,10.6,16.26,17.94.8,1.5,1.71,2.94,2.65,4.35,1.41,2.13,2.04,4.52,2.41,7Z"/>
      <path class="cls-6" d="m107.71,404.95c-2.08-1.75-1.82-5.25-5.06-6.32-1.27-.42-1.84-2.46-2.73-3.75-2.55-3.69-5.38-7.19-7.9-10.9-.74-1.1-1.44-1-2.38-.84-.69-1.01-.72-2.19-.62-3.3.75-8.43.57-16.84-.59-25.22-.1-.73.02-1.4.43-2.02.1-.08.2-.16.3-.23,1.61,1.65,3.13,3.42,4.86,4.94,3.45,3.02,7.02,5.9,10.54,8.84.86.72,1.72,1.45,2.58,2.17.9,1.38.98,2.9,1.07,4.53.31,6.02-.26,12.06.66,18.07.42,2.75-.03,5.59-.15,8.38-.04.87-.34,1.69.21,2.53,1.01,1.56.28,2.51-1.22,3.12Z"/>
      <path class="cls-44" d="m115.61,373.62c-1.19-.99.48-3.59-2.12-3.79,1.58-1.49,3.16-2.98,4.74-4.47,1.18-1.12,1.61-1.64-.29-2.97-3.02-2.13-6.49-3.66-9.08-6.41-.74-.78-1.75-1.64-.91-2.7,1.03-1.3,2.33-.21,3.17.38,3.05,2.16,6.15,4.21,9.48,5.91,1.22.63,2.44.81,3.17-.6.59-1.14.1-2-.83-2.98-2.64-2.76-5.13-5.68-7.51-8.66-.55-.69-1.1-1.92-.06-2.86,1.02-.93,1.89-.12,2.53.49,2.79,2.67,5.46,5.45,8.23,8.14.57.55,1.09,1.79,2.09,1.07,1.04-.74,1.53-1.98.91-3.29-.83-1.74-1.59-3.55-2.71-5.09-.82-1.13-1.03-2.39-1.57-3.57-.54-1.18.34-1.81,1.05-2.44.98-.88,1.38.24,1.88.7,2.48,2.28,3.11,5.69,5.33,8.28,2.34-1.32,3.55-4.33,6.25-5.75,1.03-.54-.8-1.4-.42-2.29,1.04-.62,1.83.04,2.2.78,1.34,2.71,3.08,5.34,2.39,8.63-5.3,10.36-13.51,17.36-24.48,21.11-1.43.49-2.22,1.7-3.43,2.4Z"/>
      <path class="cls-14" d="m73.5,100.41c-.07-.48-.21-.91-.18-1.34.05-.69.44-1.16,1.17-1.19.72-.02.74.55.89,1.08,1.12,4.03,2.22,8.07,3.42,12.08,2.32,7.72,4.94,15.32,8.36,22.64,2.24,4.79,4.13,9.74,6.53,14.44,1.37,2.69,2.75,5.4,4.44,7.97,1.78,2.69,3.35,5.61,5.24,8.23,1.59,2.21,2.62,4.81,4.72,6.7,1.63,1.47,2.2,3.74,3.77,5.35,3.44,3.51,6.04,7.75,9.84,11.02,1.46,1.26,2.79,2.9,4.29,4.25,2.05,1.84,4.2,3.53,7.23,2.65,1.7-.49,3.02-.2,3.39,1.66.32,1.64-1.73,3.96-3.4,3.59-2.2-.48-4.66-.39-6.57-1.71-3.52-2.42-6.76-5-9.47-8.57-1.75-2.3-4.45-4.29-6.12-6.82-2.39-3.62-4.99-7.18-7.57-10.55-3.41-4.44-5.72-9.43-8.76-14.02-1.75-2.64-2.7-5.99-4.17-8.87-2.97-5.82-5.3-11.89-7.77-17.91-3.85-9.39-6.87-19.06-9.23-28.93-.15-.62-.34-1.18-.05-1.76Z"/>
      <path class="cls-14" d="m223.02,114.86c-1.18-.5-2.29.53-3.52.43-.74-.06-1.5-.22-1.87-.82-.48-.78.34-1.4.78-1.77,5.03-4.19,10.67-6.65,17.4-5.92,1.28.14,2.03,1.08,2.9,1.7,2.55,1.79,5.3,3.41,7.04,6.16.92,1.46,1.39,2.7-1.14,2.6-1.58-.07-1.93.6-1.53,2.08.96,3.58.48,7.33,1.22,10.94.03.17.03.36,0,.53-.32,1.6-.38,3.86-2.47,3.68-1.79-.15-2.11-2.12-2.23-3.95-.32-5-1.08-9.96-1.16-14.99-.03-1.94-1.95-1.53-3.04-1.71-1.48-.24-.77.97-.84,1.8-.58,6.91-1,13.85-2.77,20.61-.38,1.47-.83,2.92-2.63,2.41-1.67-.48-1.2-1.87-.96-3.28.31-1.76.26-3.63.37-5.41.22-3.57,1.05-7.05,1.17-10.62.04-1.05.81-2.07,1.14-3.13.24-.78,1.51-1.88-.07-2.35-1.12-.34-2.75-.74-3.38,1.02-.87,2.41-1.73,4.82-2.44,7.28-1.12,3.87-1.97,7.81-2.37,11.83-.15,1.49-1.32,2.18-2.3,2.28-1.26.14-1.75-.98-1.73-2.34.08-6.69,1.35-13.08,4.44-19.06Z"/>
      <path class="cls-6" d="m85.97,377.87c-.1-1.47-1.23-2.23-2.14-3.16-3.67-3.75-7.23-7.58-9.84-12.2-.58-1.03-1.58-1.81-2.38-2.71-.88-.6-1.14-1.35-1.02-2.47.56-5.39.92-10.79.87-16.22-.01-1.7.15-3.52,1.81-4.66,2.57,1.08,3.79,3.61,5.72,5.38,3.59,3.31,7.41,6.42,10.17,10.53,0,0-.18.18-.18.18-1.9.37-2.16,1.64-2.02,3.34.54,6.57.14,13.15.07,19.72,0,.83.39,2.04-1.06,2.27Z"/>
      <path class="cls-6" d="m143.07,350.3c.29-3.06-1.06-5.68-2.29-8.32-.34-.72-.94-1.27-1.85-1.28.06-1.62-2.5-1.35-2.24-3.11,1.17-1.11,2.24.21,3.34.28,5.79.38,11.62.16,17.37,1.1.68.38,1.04,1.06,1.04,1.75-.01,4.59,1.35,9.04,1.25,13.63-.07,3.1.66,6.13.69,9.24.03,2.95-.52,5.96.49,8.88.22.64-.02,1.41-.75,1.83-1.76-.28-3.03-1.31-4.1-2.66,1.13-4.41-1.21-7.68-3.58-10.95-1.64-2.26-2.96-4.76-5.03-6.71-1.09-1.03-2.06-2.12-3.7-2.3-.66-.07-1.06-.61-.65-1.37Z"/>
      <path class="cls-27" d="m95.66,108.86c-1.02-1.16-1.94-2.42-3.27-3.27-.19-1.69-1.89-2.17-2.71-3.39-1.57-2.33-1.91-5.04-2.71-7.61-1.87-5.9-2.53-11.9-1.6-18.05.62-3.7.08-7.47.84-11.18.31-1.54.4-3.16.8-4.72.48-.13,1.45-.37,1.28.16-.89,2.83.93,5.17,1.28,7.75.81,6.01,1.57,12.05,2.74,18.04,1.18,6.05,2.85,12.06,3.33,18.25.1,1.32,1.79,2.68.02,4.01Z"/>
      <path class="cls-30" d="m107.71,404.95c1.04-.91,1.6-1.84.37-3.07-.44-.44-.43-1.12-.33-1.76.63-3.72.94-7.41.04-11.16-.65-2.71-.12-5.55-.2-8.31-.11-4.11-.26-8.23-.45-12.34,1.24.52,2.47,1.05,3.71,1.57.56,2.1,1.12,4.19.63,6.41-.44,1.99.53,3.87.61,5.87.2,5.05-.08,10.11.19,15.11.18,3.23.26,6.48.53,9.71.11,1.34-1.92,2.91.31,4.12.14.07-.55.54-.88.81-.56.45-1.39.69-.81,1.85.7,1.39,1.38.09,2.05.2.23.86-.61,1.73,0,2.59-.38.48-.88.85-1.14,1.44-.29.64.83,1.71-.46,1.95-.98.18-1.48-.8-2.07-1.42-.24-.25-.42-.56-.57-.88-.8-1.55-.63-3.28-.66-4.9-.04-2.65-.02-5.26-.87-7.8Z"/>
      <path class="cls-14" d="m85.38,76.55c.42,1.05.29,2.14.24,3.24-.22,4.99.83,9.88,1.36,14.81-1.95-2.75-2.28-6.07-3.2-9.19-.39-1.31-.72-2.67-1.32-3.89-1.32-2.68-1.74-5.61-2.46-8.45-1.16-4.58-2.56-9.13-3.17-13.79-.64-4.93-1.88-9.82-1.67-14.84.08-1.73-.72-3.42-.09-5.17.31-.85.49-1.72,1.55-1.9,1.33-.23,1.39.79,1.51,1.65.48,3.51,1.45,7.05,1.24,10.52-.23,3.81,1.24,7.11,1.93,10.62,1.06,5.31,3.02,10.44,3.49,15.9.02.18.38.33.58.49Z"/>
      <path class="cls-14" d="m100.72,287.14c.26.36.77.74.73,1.07-.43,3.63,2.07,5.62,4.25,7.8.18.18.26.46.39.69-3.49-2.09-6.69-4.64-10.39-6.41-2.45-1.17-5.22-1.77-7.06-4.08-.82-1.03-2.35-.43-3.45-1.1-1.62-1-3.31-1.98-5.1-2.59-1.66-.57-1.48-1.55-1.03-2.65.46-1.1,1.06-1.67,2.64-1.29,4.23,1.02,7.6,3.7,11.45,5.42,1.98.88,4.09,1.46,5.63,3.19.42.48,1.3.39,1.95-.04Z"/>
      <path class="cls-3" d="m89.14,50.58c1.51-1.47,2.05-3.55,3.5-5.12,5.35-5.78,11.41-10.55,18.98-12.84,4.83-1.46,9.87-2.57,15.04-1.54-2.78,1.88-6.04,2.38-9.21,2.77-1.04.12-1.63.7-2.38.86-3.25.71-6.07,2.35-8.84,3.95-5.15,2.98-10.23,6.13-14.5,10.39-1.4,1.4-1.61,3.71-3.56,4.67-.62-1.34.7-2.08.97-3.15Z"/>
      <path class="cls-30" d="m73.27,336.45c-.7,1.96-1.06,3.93-1.17,6.06-.26,5.12.08,10.28-1.05,15.35-.13.57.36,1.28.56,1.93-1.23,2.4-.42,4.94-.5,7.42-2.45-2.19-3.17-4.91-1.9-7.65.27-.59.05-.98-.27-.99-1.05-.01-1.22-1.16-2.02-1.42.61-.98.95-2.01.52-3.16.52-1.12.54-2.3.37-3.49-.56-3.77.4-7.49.49-11.24.02-.96-.25-2.57,1.82-2.56.79,0,.54-1.17.17-1.75-.97-1.52.45-.99.99-1.22.67.9,1.33,1.81,2,2.71Z"/>
      <path class="cls-10" d="m65.05,328.02c-1.75-.25-3.03-1.21-4.49-2.17-1.49-.97-2.91-1.74-4.17-3.16-1.26-1.42-1.24-2.74-.99-4.3.65.03,1.29.06,1.93.1.99,2.53,3.15,4.17,4.89,6.08,1.02,1.11,1.96,2.23,2.83,3.45Z"/>
      <path class="cls-6" d="m89.17,710.51c-.91.84-1.73,1.98-3.21,1.01.62-3.84-.13-7.66-.24-11.49-.13-4.96-.37-9.91-.52-14.86-.13-4.42-.07-8.85-.34-13.26-.42-6.7.02-13.44-.49-20.07-.32-4.24-.38-8.56-.61-12.78-.26-4.72-.26-9.58-.13-14.37.11-3.89-.35-7.75-.14-11.65.21-3.81-.1-7.66-.19-11.49-.1-4.41.11-8.85-.4-13.21-.4-3.35.28-6.58.17-9.88-.17-5.01-.29-10.07.24-15.04.55-5.08-.51-10.04-.37-15.11.17-5.73.41-11.53-.06-17.31-.4-4.89.17-9.85.13-14.78-.05-6.67-.07-13.35-.08-20.01,0-4.16-.19-8.41.52-12.57.36-2.1-.39-4.12-.21-6.26.62-7.47.3-14.97.89-22.47.25-3.14-.09-6.53-.12-9.78-.03-3.13.38-6.29.42-9.46.07-5.28.27-10.56.73-15.82.53-5.95.25-11.92.62-17.88.36-5.75,1.16-11.57.36-17.38-.02-.12.2-.26.31-.4.18.02.37.04.49.16q1.17,1.21,2.69.88c1.17,6.11.03,12.28.14,18.41.09,4.96-.43,10.07-.37,15.05.05,4.14-1.01,8.22-.35,12.37.65,4.09-.99,8.11-.77,12.19.27,5.11-.23,10.2-.21,15.28.02,7.12-.14,14.26-.06,21.38.05,4.55.3,9.25-.72,13.86-.49,2.2.21,4.65.25,6.99.09,5.4-.63,10.84-.28,16.18.58,9.07-.39,18.13.55,27.2.41,3.96-.25,8.03-.34,12.05-.08,3.41-.26,6.85.03,10.23.34,3.98-.3,7.89-.26,11.85.04,3.54.04,7.11.03,10.63-.02,4.23.33,8.47.25,12.76-.07,3.39-.27,6.91.65,10.48.55,2.15-.13,5.13-.09,7.76.07,4.59.41,9.21.25,13.77-.21,5.77.32,11.48.26,17.22-.06,5.45.09,10.89.22,16.34.1,4.47,0,8.98.06,13.48.08,6.18.21,12.36.29,18.53.05,3.75.03,7.5.05,11.25Z"/>
      <path class="cls-6" d="m109.23,417.65c1.18.21,1.62,1.42,2.92,2.19-.91-1.89-.54-2.99,1.32-3.28-.47,1.62-.55,3.24-.26,4.93.62,3.62.17,7.29.25,10.94.1,4.46.11,8.91.59,13.37.3,2.76-.03,5.59-.03,8.38,0,4.51.03,9.01.41,13.52.37,4.38.05,8.81.11,13.21.09,6.97-.11,13.93.26,20.92.24,4.44.27,8.95.28,13.44,0,5.95-.29,11.87.15,17.84.57,7.57.43,15.2.46,22.8.02,4.31,0,8.63.08,12.92.11,5.79.46,11.6.71,17.39.43,9.66.37,19.35,1.5,28.99.67,5.7.35,11.52.84,17.25.41,4.71.36,9.41.51,14.11.16,5.1.47,10.2.63,15.3.05,1.55.77,3.05.21,4.68-.23.67.3,1.79-.89,1.77-1.04-.02-1.27-.95-1.35-1.92-.29-3.48-.48-6.98-1.01-10.42-.96-6.35-1.95-12.76-1.8-19.12.11-5.02-1.27-9.76-1.34-14.73-.07-4.51-.13-9.13-1.04-13.74-.63-3.2-.41-6.88-.44-10.34-.04-5-.31-10-.51-15-.13-3.28-.36-6.54-.32-9.83.05-3.69-.63-7.4-.4-11.06.29-4.67-.4-9.29-.3-13.94.12-5.64-.4-11.3-.3-16.94.08-4.48-.24-8.95-.1-13.45.15-5.02.3-10.15-.18-15.19-.45-4.7.17-9.38-.14-14-.21-3.17-.13-6.39-.36-9.57-.29-4.08-.7-8.31-.28-12.37.36-3.53-.05-6.99-.1-10.43-.06-4.06-.37-8.29-.21-12.24.2-4.88-.8-9.7-.11-14.6.43-3.09-.11-6.36-.53-9.51-.14-1.09.76-1.45.76-2.28Z"/>
      <path class="cls-6" d="m139.49,456.36c.53.39,1.53.45,1.33,1.39-.43,2.01.2,3.99.13,5.94-.15,4.18.03,8.37.26,12.49.23,4.02-.61,8.02.26,12.05.52,2.42-.45,4.99.07,7.54,1.28,6.35.33,12.81.5,19.2.14,5.19.36,10.44.3,15.67-.05,4.23.25,8.63.54,12.92.33,4.95.51,9.99.53,14.99.03,7.84.61,15.67,1.11,23.5.34,5.28.09,10.57.62,15.85.48,4.78.49,9.61.72,14.4.25,5.22.75,10.47.58,15.74-.14,4.31.48,8.64.68,12.96.23,4.96.37,9.92.53,14.88.02.6-.13,1.16.09,1.8,2.39,7,3.2,14.32,4.51,21.56,1.29,7.12,2.67,14.25,4.92,21.16.43,1.32.51,2.76.85,4.11.43,1.75-1.14,2.35-1.94,3.3-.56.66-.86-.05-1.05-.79-1.1-4.3-2.53-8.5-3.62-12.82-1.4-5.53-2.59-11.06-3.41-16.68-.97-6.68-1.68-13.4-2.54-20.09-.31-2.43-.8-4.83-1.1-7.26-.69-5.66-1.28-11.32-1.32-17.05-.03-3.71-.85-7.41-1.14-11.12-.42-5.36-.71-10.71-.76-16.1-.02-2.28-.28-4.69-.54-6.98-.5-4.41-.09-8.82-.59-13.22-.87-7.64-.69-15.34-.9-23.01-.18-6.54-.29-13.05-1.04-19.59-.46-3.98-.26-8.16-.25-12.25.01-4.21-.24-8.43-.32-12.65-.06-3.61-.28-7.24.03-10.82.23-2.68.07-5.42-.17-7.96-.4-4.25-.12-8.51-.66-12.7-.57-4.43-.14-8.85-.25-13.25-.18-6.94-.25-13.9-.16-20.86,1.13-.19,1.19.8,1.55,1.44.47.82.61,1.87,1.64,2.3Z"/>
      <path class="cls-30" d="m139.49,456.36c-2.32-.17-1.79-2.78-3.19-3.74,1.86-1.56-.45-2.89-.26-4.44.42-3.45.44-6.94-.34-10.37.87-1.74.48-3.61.26-5.34-.63-4.92.5-9.88-.42-14.77-.46-2.46.73-4.79.29-7.32-.5-2.93-.48-5.97-.42-8.96.04-2.02-.16-4.13.77-6.06,1.83.48,3.48,1.21,4.23,3.16-.01,8.68.57,17.35.7,26.03.05,3.51-.34,7.04.03,10.52.23,2.19.52,4.31-.13,6.46-.63,1.24.06,2.46.03,3.69-.09,2.78-.2,5.55-.26,8.33-.01.64.59,1.52-.55,1.63-1.01.1-.53-1.11-1.07-1.55-.5,1-.12,1.87.34,2.73Z"/>
      <path class="cls-28" d="m139.45,710.52c1.58.77,1.89,1.74,1.8,3.69-.24,5.07-1.09,10.08-1,15.19.05,3.18-.81,6.38-1.21,9.58-.15,1.21-.32,2.44-.22,3.65.15,1.78-.49,3.01-2.03,3.82-.93,1.4-2.32,1.27-3.71,1.12-1.38-.4-1.24-1.45-1.17-2.55.3-4.45.89-8.9,1.03-13.34.18-6.12.85-12.25.35-18.39-.08-.96-.24-1.94.35-2.82,1.94.52,3.89-.57,5.82.05Z"/>
      <path class="cls-28" d="m128.93,747.19c-1.22.53-2.11-.63-3.22-.64-1.58-.07-1.64-1.29-1.8-2.42-.42-3.08.17-6.15.09-9.23-.16-6.43-.32-12.86-.2-19.29.02-1.34-.49-2.6-.62-3.91-.15-1.47.15-2.57,2.03-1.83,1.59,0,3.23-.35,4.7.59,1.21.26,1.36,1.15,1.32,2.19-.1,3.34.12,6.68-.18,10.02-.56,6.4-.56,12.82-.7,19.24-.04,1.85-.41,3.66-1.43,5.27Z"/>
      <path class="cls-43" d="m108.19,730.6c-.8-5.93-1.61-11.86-2.39-17.79-.03-.23.18-.49.28-.73,2.18-.54,4.26.02,6.34.54.86.68.94,1.67.99,2.64.26,5.52.29,11.05.79,16.55.31,3.42.18,6.87.6,10.29.14,1.13.55,2.5-.76,3.38-.37.07-.74.14-1.11.2-.96-1.04-2.15.3-3.15-.3-1.56-2.76-1.11-5.91-1.56-8.87-.28-1.9-.36-3.94-.03-5.91Z"/>
      <path class="cls-28" d="m121.96,746.02c-1.24.16-2.47.6-3.7-.03-1.7-2.49-1.48-5.34-1.45-8.12.06-6.24-.7-12.42-1.1-18.62-.14-2.2-1.06-4.51.45-6.62,1.71.23,3.06-.96,4.64-1.2,2.1-.44,1.55,1.33,1.58,2.19.15,3.7.16,7.4,0,11.1-.27,6.69-.17,13.38-.1,20.07,0,.45.01.88-.33,1.23Z"/>
      <path class="cls-30" d="m121.49,709c-.78-5.38-1.54-10.76-2.92-16.04-.62-2.37-.14-4.79-.55-7.23-.71-4.3-.62-8.74-.81-13.13-.04-.84-.29-1.77.6-2.67.73.4.86,1.11.96,1.87,1.13,8.42,3.26,16.66,4.8,25,.78,4.23,1.57,8.29,1.03,12.56-1.14.66-2.16.35-3.13-.37Z"/>
      <path class="cls-14" d="m128.93,747.19c1.54-9.5.68-19.15,1.67-28.7.26-2.46.93-5.49-.69-8.02,1.24-.2,2.48-.3,3.71,0,.63,5.78.21,11.56.08,17.35-.06,2.92-.26,5.88-.47,8.76-.19,2.67-.25,5.39-.66,8.06-.16,1.03-.43,2.08.5,2.92-1.46.7-2.72-.73-4.15-.37Z"/>
      <path class="cls-14" d="m116.16,712.63c-.53,3.49.19,6.94.49,10.37.48,5.53.95,11.06.78,16.6-.07,2.2.89,4.22.83,6.38-1.51.61-2.84-.18-4.23-.52.09-5.52-.36-11.02-.81-16.52-.17-2.07-.15-4.16-.26-6.24-.17-3.37-.36-6.74-.54-10.11,1.25-.45,2.49.83,3.74.02Z"/>
      <path class="cls-30" d="m89.64,385.26c-1.62,1.37-2.46.35-3.18-1.04-.17-.58-.72-1.2-.33-1.74,1.14-1.61.51-3.09-.16-4.6,1.13-3.44.39-6.99.47-10.48.1-4.26.24-8.53-.18-12.8-.26-2.61.38-2.93,2.72-2.05,1.11,5.26.81,10.62,1.1,15.94.2,3.62.44,7.31-.43,10.9-.31,1.29.56,2.52-.03,3.76-.52.71.3,1.41,0,2.12Z"/>
      <path class="cls-5" d="m121.49,709c1.11-.41,2.04.66,3.13.37.2.17.39.34.59.5-.88.11-1.93.08-1.45,1.49,1.63,4.77.43,9.7.8,14.55.33,4.27.21,8.58.22,12.87,0,1.71-.06,3.54-.17,5.31-.06,1.01.02,1.96,1.09,2.47-1.36.62-2.55.05-3.75-.54-.98-2.97-.35-6.03-.41-9.04-.12-6.38.01-12.78.13-19.16.04-1.88.22-3.74-.04-5.62-.09-.63-.44-.64-.84-.76.62-.7,1.17-1.42.68-2.44Z"/>
      <path class="cls-41" d="m140.02,398.48c-.73-1.72-2.91-1.64-3.84-3.11-.26-.36-.53-.72-.79-1.08,1.5-2.99,3.76-5.43,5.87-7.96.64-.77.66-1.35.17-2.1.34-.81,1.05-1.18,1.81-1.41,5.02-1.55,8.07-5.33,10.76-9.5.57-.88.93-1.94,2.28-1.77,1.29.84,2.57,1.67,3.86,2.51,1.87-.71,2.77.46,3.57,1.84,3.37,2.42,6.74,4.84,10.12,7.26,1.45,2.33,2.56,4.8,3.22,7.47,2.86,6.76,7.29,12.57,11.24,18.66,1.8,2.77,3.67,5.5,5.5,8.25.27.41.81.74.34,1.35-.48.61-.98.88-1.81.6-2.16-.73-4.08-1.78-5.63-3.5-1.76-1.95-3.56-3.87-5.34-5.8-1.39-1.05-2.45-2.37-3.18-3.98.72,1.44,1.24,2.94,1.59,4.51,2.47,4.18,4.95,8.36,7.42,12.54.43.72.7,1.35-.02,2.13-.75.81-1.46.32-2.17.15-1.18-.29-1.83-1.32-2.58-2.15-4.59-5.05-8.97-10.24-12.3-16.25-.28-.51-.74-.93-1.27-1.58-.71,1.87.43,3.17.71,4.61,1.01,5.28,2.86,10.27,5.31,15.04.48.92,1.03,1.88.12,2.61-1.1.87-2.19.17-3.03-.68-1.33-1.36-2.58-2.79-3.87-4.2-2.55-2.47-4.02-5.6-5.39-8.79-.19-1.27-.51-2.51-1-4.14.05,2.72.79,4.85,1.59,6.97.93,1.99,1.61,4.07,2.53,6.07.76,1.64.68,3.25-.93,4.47-2.59.81-3.71-1.17-4.77-2.79-1.74-2.65-3.02-5.62-3.73-8.66-1.5-6.43-5.9-10.37-11-13.78-1.82-1.22-3.58-2.5-5.36-3.77Z"/>
      <path class="cls-6" d="m140.02,398.48c2.85.37,4.57,2.69,6.85,4.04,1.67.99,3.03,2.54,4.77,3.57,1.44.85,2.31,2.29,3.01,3.84,2.09,4.65,3.2,9.73,5.86,14.1.9,1.48,1.78,3.6,4.3,3.09.39,5.76.71,11.56,1.37,17.26.76,6.53-.1,13.14,1.42,19.58.44,1.88,0,3.86.38,5.78.12.63.11,1.48-.95,1.51-2.07-3-2.24-6.95-4.76-9.7-1.88-2.06-4.21-3.77-5.77-6.03-2.1-3.05-5.33-5.17-6.82-8.69-.49-1.16-1.8-1.64-2.8-2.33-1.17-.8-1.65-2.06-2.02-3.25-.37-1.19-.72-2.21-2.07-2.35-1.76-.18-.53,1.54-1.22,2.07-.2.16-.37.36-.55.55-.86-8.99-.33-18.01-.74-27.01-.24-5.36-.54-10.69-.24-16.05Z"/>
      <path class="cls-30" d="m167.01,471.26c.84-2.19.07-4.43-.02-6.59-.22-5.19-.44-10.45-.95-15.53-.6-6.01,0-12.22-1.83-18.15-.36-1.17-.18-2.66.58-3.86.86-1.04.99-2.21.52-3.43-.84-2.2-1.73-4.37-2.61-6.56.47-1.01-1.32-2.39.52-3.18,1.61,2.98,3.22,5.97,4.83,8.95.6,6.17,1.21,12.34,1.78,18.51.33,3.57.62,7.15.88,10.72.45,6.23.82,12.47,1.36,18.69.2,2.28.82,4.86-.62,7.14-.68,1.08-.18,2.23.02,3.42-2.37-3-3.56-6.51-4.49-10.13Z"/>
      <path class="cls-30" d="m163.7,375.88c-1.37-.27-2.14-1.69-3.57-1.84-.2-3.55-.72-7.11-.52-10.64.19-3.41-1-6.68-.43-10.11.24-1.42-.36-3.01-.68-4.49-.69-3.24-.09-6.63-1.1-9.83,1.45-.11,2.87-.69,4.36-.37.5,3.44.75,6.87.92,10.35.18,3.88.65,7.88,1.24,11.8.7,4.64.31,9.35.36,14.03,0,.5-.2.83-.58,1.1Z"/>
      <path class="cls-15" d="m177.04,390.61c-1.67-2.23-2.57-4.79-3.22-7.47,3.4,1.23,7.18.79,10.49,2.53.8.42,1.66.53,1.68,1.64.02,1.12-.64,1.82-1.6,2.17-2.37.85-4.8,1.39-7.35,1.13Z"/>
      <path class="cls-36" d="m179.75,410.71c-1.06-1.96-2.12-3.93-3.18-5.89,2.73.85,3.29,3.49,4.77,5.36-.7-.33-1.31-.42-1.59.53Z"/>
      <path class="cls-3" d="m236.27,76.73c-.38.8.02,1.46.21,2.11.4,1.42.14,2.45-1.39,2.82-1.5.36-2.14-.37-2.54-1.84-.95-3.53-.89-7.27-2.29-10.69-1.58-3.88-3.31-7.65-7.64-9.3-.58-.22-1.55-.36-1.25-1.36.29-.96,1.01-1.13,2.04-1.18,2.6-.13,4.54,1.52,5.79,3.06,3.84,4.75,6.82,10.06,7.07,16.39Z"/>
      <path class="cls-2" d="m227.56,48.04c3.69.16,7.13.55,10.04,2.53,1.96,1.33,4.25,2.22,5.57,4.43,1.27,2.13,3.99,2.82,5.18,5.13.4.78,1.25,1.77.78,2.31-.83.96-1.72-.09-2.47-.63-6.37-4.58-12.73-9.18-19.1-13.77Z"/>
      <path class="cls-19" d="m179.74,321.63c-2.48,1.54-4.75,3.58-8,3.18,1.69-3.53,4.1-6.62,6.09-9.98,2.44-4.12,4.92-8.2,7.81-12.02.67-.88,1.5-1.8,2.63-1.09,1.29.81.91,2.14.36,3.27-2.45,5-5.56,9.6-8.76,14.14-.47.67-2.25,1.57-.13,2.5Z"/>
      <path class="cls-44" d="m87.53,747.5c-3.13-1.87-2.82-5.08-3.37-8.09-1.34-7.29-1.91-14.72-3.95-21.89-.22-.76-.53-1.99.32-2.44.97-.51,1.07.85,1.61,1.32.34.28.63.72,1.01.83,2.92.78,3.45,3.05,3.69,5.62.8,8.58,1.88,17.14,2.27,25.76-1.42.91-1-.83-1.59-1.11Z"/>
      <path class="cls-44" d="m91.21,748.18c-.26-6.01-.88-11.99-1.75-17.95-.5-3.42-.61-6.89-1.96-10.8,2.66,1.7,4.7,3.07,6.81,4.31.9.53.87,1.45.86,2.07-.17,7.26,1.66,14.5.36,21.77-1.43.2-2.87.4-4.3.6Z"/>
      <path class="cls-44" d="m99.2,747.05c-.72-5.58-1.3-11.17-1.4-16.8-.01-.71-.55-1.1-.59-1.68-.07-.98.08-2.03.96-2.55.85-.5,1.29.52,1.94.85,2.38,1.24,2.43,3.23,2.3,5.49-.27,4.76-.4,9.54-.59,14.31-.83.42-1.72.42-2.62.38Z"/>
      <path class="cls-44" d="m108.19,730.6c1.11.96.82,2.64.7,3.48-.53,3.88,1.04,7.51.88,11.3-.19.2-.39.39-.58.59-1.41.21-2.81.41-4.21.62-.09-4.81-.15-9.62-.28-14.44-.02-.6,0-1.04.53-1.32.52-.28,1-.22,1.36.32,1.22,1.86,1-.57,1.61-.54Z"/>
      <path class="cls-7" d="m133.69,80.74c-.63,1.69.25,2.7.53,3.59.69,2.23-.32,3.75-1.41,5.28-1.24,1.76-2.7,1.71-4.04-.13-.81-1.11-1.69-2.38-1.89-3.69-.78-5-1.25-10.05-1.28-15.13-.01-1.55,1.05-2.26,2.03-2.83,1.12-.66,1.75.7,2.19,1.35,2.47,3.63,2.18,8.18,3.88,11.56Z"/>
      <path class="cls-8" d="m135.13,98.27c.97,1.4.78,5.47-.48,6.58-1.44,1.27-2.5,3.12-4.67,3.39-1.48-.79-2.43-2.23-3.87-3.11-2.8-1.71-5.65-3.1-9.08-2.68-.75.09-1.58.17-2.27-.37-.99-1.27-1.38-2.78-1.38-4.31,0-1.35.21-2.85,2.2-2.75,2.23,3.43,5.95,2.84,9.2,3.28,2.47.33,5.02.68,7.54-.28.8-.3,1.89-.12,2.8.25Z"/>
      <path class="cls-42" d="m120.46,73.25c-.03,2.27-1.23,3.13-3.09,2.45-3.47-1.27-6.85-2.85-10.71-2.34-.8.11-1.95.33-2.05-.96-.08-1.09.4-2.21,1.58-2.42,2.02-.36,4.11-.62,6.09-.89,2.08-.29,3.86-.42,5.67.4,1.64.75,2.37,2.24,2.52,3.76Z"/>
      <path class="cls-35" d="m114.77,102.09c6.06-1.11,12.26,1.37,15.22,6.16-5.91,2.25-10.99,1.76-15.22-6.16Z"/>
      <path class="cls-25" d="m103.94,60.2c.25-2.44.43-4.5,2.52-5.97,3.05-2.14,6.07-4.14,10.08-3.22,1.12.26,2.38.34,2.3,1.89-.07,1.33-.74,1.85-2.25,2.07-3.73.54-7.1,2.16-10.15,4.43-.58.43-1.45.48-2.5.8Z"/>
      <path class="cls-21" d="m145.59,72.87c-2.83-.36-5.04,1.17-7.35,2.21-2.12.95-2.59-.49-2.78-1.82-.36-2.63,2.39-5.41,5.03-5.19,1.84.16,3.7.45,5.49.9,1.32.33,2.71.98,2.48,2.74-.26,2.02-1.96.76-2.88,1.17Z"/>
      <path class="cls-39" d="m148.77,59.38c-1.58.38-2.23-1.13-3.28-1.75-2.11-1.24-4.05-2.79-6.54-3.11-1.48-.19-2.24-.85-2.12-2.27.13-1.55,1.57-2.06,2.67-2.1,3.97-.12,10.36,3.91,9.26,9.22Z"/>
      <path class="cls-32" d="m135.13,98.27c-3.51.35-7.03,1.73-10.54.76-2.79-.77-6.06.17-8.39-2.36-.5-.54-.36-1.12-.62-1.64,1.75-1.34,3.49-.16,5.2.08,4.86.68,9.84.83,14.34,3.16Z"/>
      <path class="cls-28" d="m153.23,218.3c-1.1-2.19-1.35-5.27-2.09-8.21-.52-2.08-.37-4.29-1.32-6.3-.42-.89.34-1.51,1.04-2.12,4.24-3.7,8.55-7.4,11.05-12.59,1.64-3.41,4.27-6.26,5.5-9.88.08-.25.18-.56.37-.69.83-.55,1-2.24,2.2-1.85,1.07.35,1.19,1.84.94,2.78-.95,3.63-.6,7.37-1.22,11.06-1,5.92-3.33,11.36-5.35,16.84-1.23,3.34-3,6.88-5.67,9.67-1.13,1.18-1.91,2.69-2.89,4.02-.48.66-.53,1.99-1.67,1.73-1.14-.27-.55-1.69-1.08-2.48-.18-.27.06-.84.18-1.97Z"/>
      <path class="cls-28" d="m156.28,371.54c-1.61.71-1.86,2.46-2.7,3.72-2.96,4.46-7.1,7.25-12.02,9.05-3.22,2.07-6.79,1.72-10.34,1.49-2.59.34-4.35-1.32-6-2.82-3.31-3.01-6.41-6.23-9.6-9.37.29-1.71,1.55-2.68,3-2.99,5.1-1.11,9.32-3.82,13.14-7.16,3.01-2.63,5.64-5.7,8.57-8.42,1.44-1.34,1.22-3.53,2.76-4.73.06.25.13.73.19.73,3.83-.1,5.56,3.06,7.14,5.48,1.58,2.41,3.36,4.77,4.85,7.28,1.6,2.69,2.03,4.98,1.03,7.74Z"/>
      <path class="cls-9" d="m131.22,385.8c3.45-.5,6.89-1,10.34-1.49.72.34,2.17.19.71,1.66-2.54,2.55-4.05,5.99-6.88,8.31-1.39-2.83-2.78-5.66-4.17-8.48Z"/>
      <path class="cls-34" d="m163.24,413.96c-1.25.88.63,2.28-.52,3.18-1.05-2.21-1.49-4.58-1.84-6.98-.08-.55-.1-1.2.51-1.22.36-.01.96.57,1.07.99.36,1.32.53,2.68.78,4.03Z"/>
    </g>
  </g>
</svg>