<?xml version="1.0" encoding="UTF-8"?>
<svg id="Layer_2" data-name="Layer 2" xmlns="http://www.w3.org/2000/svg" viewBox="0 0 1149.5 969.6">
  <defs>
    <style>
      .cls-1 {
        fill: #82872e;
      }

      .cls-1, .cls-2, .cls-3, .cls-4 {
        stroke-width: 0px;
      }

      .cls-2 {
        fill: #757f28;
      }

      .cls-5 {
        fill: none;
        stroke: #82872e;
        stroke-linecap: round;
        stroke-linejoin: round;
        stroke-width: 8.5px;
      }

      .cls-3 {
        fill: #a9b03c;
      }

      .cls-4 {
        fill: #9ba137;
      }
    </style>
  </defs>
  <g id="Layer_25" data-name="Layer 25">
    <path class="cls-4" d="m20,969.6s23.94-163.64,253.08-187.85c229.15-24.21,876.42,187.85,876.42,187.85V0H19.5l.5,969.6Z"/>
    <path class="cls-1" d="m517.73,434.83c-40.4-31.32-59.44-60.66-100.67-91.56-21.13-15.84-49.43-27.32-77.27-38.54-10.62-4.28-21.7-8.67-34.27-9.75-26.32-2.25-49.43,10.35-66.81,22.74-19.12,13.63-37.35,29.82-35.96,47.81.78,10.05,7.69,19.5,15.07,28.47,33.85,41.18,80.22,78.43,135.98,109.25,9.73,5.38,19.86,10.61,31.53,14.23,21.91,6.8,47.34,7.39,71.87,7.85,15.64.29,32.03.48,45.99-3.87,17.91-5.59,28.31-17.85,31.14-30.1,2.83-12.25-.74-24.68-4.31-36.85"/>
    <path class="cls-1" d="m32.92,596.14c11.37-15.09,22.03-22.2,33.26-37.61,5.75-7.89,9.92-18.46,14-28.86,1.56-3.97,3.15-8.11,3.54-12.8.82-9.83-3.76-18.47-8.26-24.96-4.95-7.14-10.83-13.95-17.37-13.43-3.65.29-7.08,2.87-10.34,5.63-14.96,12.65-28.49,29.97-39.68,50.8-1.95,3.63-3.85,7.42-5.17,11.78-2.47,8.19-2.68,17.69-2.85,26.85-.11,5.84-.18,11.97,1.41,17.18,2.03,6.69,6.48,10.58,10.93,11.63,4.45,1.06,8.96-.28,13.39-1.61"/>
    <g>
      <line class="cls-5" x1="845.23" y1="522.11" x2="856.51" y2="489.86"/>
      <line class="cls-5" x1="829.75" y1="531.52" x2="815.67" y2="500.39"/>
      <line class="cls-5" x1="836.02" y1="530.35" x2="836.02" y2="502.83"/>
      <path class="cls-5" d="m820.43,536.53c-1.39-4.66-10.91-19.11-10.91-19.11"/>
      <line class="cls-5" x1="826.97" y1="508.25" x2="822.71" y2="479.58"/>
    </g>
    <g>
      <line class="cls-5" x1="1117.97" y1="527.34" x2="1129.25" y2="495.09"/>
      <line class="cls-5" x1="1102.48" y1="536.75" x2="1088.41" y2="505.61"/>
      <line class="cls-5" x1="1108.76" y1="535.57" x2="1108.76" y2="508.06"/>
      <path class="cls-5" d="m1093.16,541.76c-1.39-4.66-10.91-19.11-10.91-19.11"/>
      <line class="cls-5" x1="1099.71" y1="513.48" x2="1095.45" y2="484.8"/>
    </g>
    <g>
      <line class="cls-5" x1="117.22" y1="635.59" x2="128.5" y2="603.34"/>
      <line class="cls-5" x1="101.73" y1="645" x2="87.66" y2="613.87"/>
      <line class="cls-5" x1="108.01" y1="643.83" x2="108.01" y2="616.31"/>
      <path class="cls-5" d="m92.41,650.01c-1.39-4.66-10.91-19.11-10.91-19.11"/>
      <line class="cls-5" x1="98.96" y1="621.73" x2="94.7" y2="593.06"/>
    </g>
    <path class="cls-1" d="m879.41,531.41c-14.09.53-27.98,5.65-39.04,14.4-.95.75-1.92,1.59-2.32,2.73-1.18,3.38,3.08,6.03,6.59,6.75,17.06,3.53,35.87-3.59,46.32-17.54-3.31-3.57-8.64-5.13-13.35-3.89"/>
    <path class="cls-1" d="m806.09,647.16c9.15-.1,19.06.04,26.35,5.57s9.18,18.62,1.23,23.15c-5.36,3.06-12.2.84-17.49-2.35-10.51-6.34-19.03-20.42-12.01-30.49"/>
    <path class="cls-1" d="m757.14,513.71c-11.09,1.96-22.48,4.17-31.93,10.3-9.45,6.13-16.58,17.2-14.75,28.31,2.4,14.54,20.29,23.07,34.27,18.41s22.96-19.34,24.18-34.03c.74-8.91-1.13-18.38-6.92-25.18"/>
    <path class="cls-1" d="m201.66,527.7c13.79-6.58,30.44-6.85,44.43-.7-.94,5.5-7.65,7.52-13.16,8.41-6.1.99-12.46,1.97-18.38.19-5.92-1.78-11.24-7.2-10.73-13.37"/>
    <path class="cls-1" d="m189.49,469.72c-2.22,3.61-6.4,5.41-9.82,7.91s-6.39,6.92-4.62,10.77c1.36,2.95,4.86,4.14,8.01,4.92,8.46,2.09,19.69,2.12,23.29-5.82,4.02-8.87-5.79-17.8-14.88-21.31"/>
    <path class="cls-3" d="m235.54,474.03c7.23,3.06,10.12,14,4.4,19.38-5.72,5.38-17.49-.01-16.11-7.74.97-5.45,6.69-8.51,11.81-10.6"/>
  </g>
  <g id="Bush_1" data-name="Bush 1">
    <path class="cls-2" d="m109.36,507.82c3.78-3.14,7.55-6.27,11.33-9.41.79-.66,1.25-2.02,1.25-3.01,0-1.04-.46-2.29-1.25-3.01s-1.87-1.3-3.01-1.25-2.1.49-3.01,1.25c-3.78,3.14-7.55,6.27-11.33,9.41-.79.66-1.25,2.02-1.25,3.01,0,1.04.46,2.29,1.25,3.01s1.87,1.3,3.01,1.25,2.1-.49,3.01-1.25h0Z"/>
  </g>
</svg>