<?xml version="1.0" encoding="UTF-8"?>
<svg id="Layer_2" data-name="Layer 2" xmlns="http://www.w3.org/2000/svg" viewBox="0 0 697.23 487.15">
  <defs>
    <style>
      .cls-1 {
        fill: #b02062;
      }

      .cls-1, .cls-2 {
        stroke-width: 0px;
      }

      .cls-2 {
        fill: #d11b47;
      }

      .cls-3 {
        fill: none;
        stroke: #a4004b;
        stroke-miterlimit: 10;
        stroke-width: 2.83px;
      }
    </style>
  </defs>
  <g id="Road">
    <g>
      <path class="cls-2" d="m564.91,23.78s29.54,180.39-149.62,254.3C236.13,351.99,1.42,336.15,1.42,336.15v149.58s375.9,1.18,511.46-75.22c147.67-83.23,170.23-181.7,179.02-255.61,8.8-73.91,0-145.06,0-145.06L543.53,1.5l.78,22.28"/>
      <path class="cls-3" d="m564.91,23.78s29.54,180.39-149.62,254.3C236.13,351.99,1.42,336.15,1.42,336.15v149.58s375.9,1.18,511.46-75.22c147.67-83.23,170.23-181.7,179.02-255.61,8.8-73.91,0-145.06,0-145.06L543.53,1.5l.78,22.28"/>
    </g>
    <g>
      <path class="cls-1" d="m590.47,115.94l-.4.34c.1.03.23-.04.4-.34Z"/>
      <path class="cls-1" d="m541.89,219.73s-.02.08-.02.12c.03-.07.03-.1.02-.12Z"/>
      <path class="cls-1" d="m575.83,128.53s0-.02.01-.02c0-.05,0-.09,0-.13v.15Z"/>
      <path class="cls-1" d="m585.47,108.44c-.24.65-.47,1.24-.7,1.78-.26.54-.51,1.03-.75,1.48-.47.91-.95,1.7-1.43,2.5-.46.8-.92,1.6-1.42,2.57-.48.96-.98,2.08-1.56,3.5-1.34,2.58-2.57,5.52-3.77,8.24.13,1.62-1.71,3.52-1.79,5.35l-.71.4c-.02.64-.15,1.33-.63,1.77l-.11-.09c-.04.94-.6,1.8-.61,2.27l-.12-.09-.34,1.02-.12-.25c-.22,1.58-.73,3.06-1.36,4.31l.59.08c-1.59,2.58-.76,3.97-2.28,6.24l-.12-.08c.49,3.61-2.51,4.7-2.07,8.32-.05-.45-.34.08-.46.01-.28,1.52-.68,3.1.4,3.47-.35,1.06-.61.76-1.07.77.48.15.38,1.13.15,1.96l-.06-.44c-.19.81-.43,1.6-.64,2.4l1.05-.16c-.69,1.16-1.2-.05-1.4,1.21l.74.24c-.75,1.68-2.19,2.3-3.38,3.72-1.43,3.35-2.52,6.98-3.79,10.49-.67,1.74-1.33,3.47-2.15,5.09-.84,1.6-1.77,3.11-2.85,4.46l-.66-.02c-.82-.3.2,2.24-.62,2.08l-.04.88c-.24.12-.61.45-.59,0-.39.62-.27.7-.3,1.29l-.84.42c-.9,1.14-1.47,2.34-2.02,3.59-.27.62-.54,1.26-.86,1.89-.33.62-.71,1.24-1.16,1.84-2.84,2.49-5.97,8.59-7.96,12.08-.57,1.32-1.5,2.44-2.52,3.52-1.03,1.07-2.17,2.09-3.37,3.04-1.19.97-2.36,1.94-3.42,2.99-1.09,1.02-2.04,2.12-2.75,3.41-.21.05-.34.59-.27.65-1.23,1.22-2.51,2.39-3.77,3.59,0,0-1.12,1.1-2.6,2.55-.73.73-1.54,1.56-2.3,2.41-.78.84-1.55,1.67-2.16,2.47-1.23,1.58-1.87,2.96-1,3.49.86.51,3.28.25,8.19-1.74l.03.23c2.47-1.68,3.97-2.85,4.74-4.98,1.04.6,1.81-1.63,2.57-1.85l.02.11c.67-1.87,3.11-2.19,3.74-3.99.02.11.23.35-.03.66.77-1.03,1.77-2.47,2.31-2.1.94-1.2,2.17-2.55,3.22-3.87,1.03-1.33,1.85-2.67,2.05-3.76l.06.22c.14-1.31.82-1.18,1.31-2.37.11,0,.2-.04.22,0,.17-1.4,2.04-2.86,2.38-3.82l.4.22c.46-.66.91-1.31,1.34-1.99l-.59.68c-.81-.97,1.67-1.03,2.03-2.91.53-.62.49-1.66.48-2.66-.03-1.02,0-2,.7-2.54-.04-.98.39,1.1.68-.14.56.32.03.69.62.71.39-1.15,1.61-1.26,2.04-2.71l.45.21c.21-2.1,2.42-2.73,2.34-4.26.66-1.88,1.95-.39,2.11-2.66l.98-.37c.52-.72-.41-.95.35-1.64.34.26.9-.91.97-.22,1.66-1.63,1.24-4.4,3.57-6.49-.47-.93.59-2.04.23-2.74.36.08,1.3-2.62,1.31-.81,0,.16-.12.38-.24.3l.36.39c1.55-1.12.83-2.95,1.59-4.4-.34.38-.56,1-.69.46l.66-1.37.25.46,1.12-2-.59.09c.67-.92,1.65-.95,1.43-2.4-.17-.68-1.02.73-.74-.43.85-1.26,2.17-3.14,2.96-4.88-.6-.03-.41-.5-.35-1.04l.49.11c0-2.14,1.28-.34,1.41-2.42l.27.28-.81-.83c-.35-2.02,1.32-.6.65-2.92-.16.78-1.16.02-.66-.84l.38.38c.06-.54-.08-.77.13-1.08.15.38.62.37.77-.41l.42.68-.41-1.68c.83-.95.73-2.86,1.51-3.11,0,0,1.01-2.24.46-2.98.3.6.85-.63,1.26-.11-.32-.75-.2-2.64.55-3.18l.02.15c1.34-2.41.65-4.65,2.09-6.68-.58-.09.14-1.17-.66-1.13.16-2.61,3.01-3.62,1.25-5.32.35-1.09,1.04-1.01,1.38-1.5v.29c.68-2,.97-2.58,1.69-3.99.14-.81-.75-1.39.12-2.57.17.6.36.04.6-.44-.09.34,0,.5.56,0-.07-.15-.08-.32-.07-.48.03,0,.07,0,.1.03.27-.87.08-.79-.16-.44-.05-.05-.14-.05-.3.01.91-.59,1.14-2.36,1.84-2.13,1.08-2.52,1.27-4.62,2.01-6.8.45-.07.52.55.36,1.21.19-.51.4-1.01.58-1.53.48.24-.12.99-.24,1.48,1.62-1.4.93-4,2.53-5.82l-.21-.6.12-.1c-.21-.08-.29-.67-.23-1.01.55-.14.99.42,1.37-.68.37-.35.55-.99.65-1.68.1-.7.08-1.48.14-2.08-.27.6-.45.32-.53,0,.16-.55.7-.74.64-1.23l.62.12c-.61.07-.23-1.65-.43-1.93.53-.21.18.98.48,1.22.49-2.33.3-1.14.71-3.49-.26-1.34-.62.12-1.07-.58.04-1.11-.16-2.19.26-3.41l-.58.34c-.15-1.03-.16-1.83-.11-2.55.01-.72.15-1.36.42-2.07-.27-.94-.73-1.73-1.07-2.42-.38-.68-.65-1.27-1.06-1.72-.74-.93-1.35-1.5-1.84-1.82-1-.65-1.63-.4-1.92.26-.71,1.21-.51,3.52-.6,3.54-.07.6-.11,1.15-.1,1.67-.02.52-.08,1.03-.06,1.51.06.96.06,1.89.15,2.87.02.25.05.5.07.75,0,.26,0,.52.01.78,0,.54.01,1.1.02,1.69,0,.59-.09,1.23-.16,1.9-.07.68-.17,1.4-.38,2.17Z"/>
    </g>
    <g>
      <path class="cls-1" d="m154.49,397.68l.12.24c0-.11-.02-.2-.12-.24Z"/>
      <path class="cls-1" d="m191.23,397.83s.02-.03.03-.05c-.02.02-.03.04-.03.05Z"/>
      <path class="cls-1" d="m159.62,405.94h0s-.03.03-.04.06l.05-.06Z"/>
      <path class="cls-1" d="m152.03,404.69c1.97.48,2.41,1.59,4.54,1.33.99.16,2.07-.02,3.05-.08.51-.81,1.28.06,1.86-.61l.18.49c.2-.23.43-.38.61-.11l-.02.14c.3-.35.6-.11.75-.29l-.02.14.34-.04-.07.2c.51-.35,1.01-.36,1.45-.17v-.58c.91.68,1.3-.5,2.13.3l-.02.14c1.13-1.49,1.69,1.09,2.84-.34-.14.18.05.3.04.44.52-.15,1.07-.23,1.09-1.37.37.02.3.36.34.8,0-.5.33-.71.62-.73l-.14.19.84-.17-.16-.94c.44.27.1,1.15.53.93v-.78c.61.16.96,1.34,1.56,1.92,2.49.33,5.09-1.71,7.42-.41l.12.58c.08.86.59-1.29.71-.51l.25-.4c.08.15.25.31.12.51.25.02.25-.12.42-.38l.29.52c1,.37,1.78-.68,2.81-.54,1.29,1.02,3.56-.12,4.84-.81,1.75-1.41,4.24,1.78,6.02.13.08.11.21-.18.2-.27l1.76-.07s.53-.03,1.22-.2c.68-.17,1.52-.45,2.13-.93,1.22-.96,1.45-2.7-2.12-5.84l.02-.19c-.98-.33-1.57-.37-2.11.64-.23-1.13-.78-.04-1.03-.38v-.1c-.46.94-1.23-.61-1.7.24.01-.09,0-.41.12-.44-.38.18-.9.49-1-.18-.93.26-2.28.08-2.8,1.19l.03-.19c-.29.75-.44.14-.8.54-.03-.09-.06-.13-.06-.17-.33.74-1.1.19-1.39.52l-.05-.44-.75.16.29.07c-.02,1.23-.62-.72-1.12.1-.52-.12-.89,2.6-1.47,2.03-.22.59.17-.94-.19-.48-.05-.64.16-.41.03-.91-.36.32-.65-.62-1.09-.16l-.04-.5c-.56.94-1.17-.6-1.53.28-.6.44-.48-1.46-1.08-.46l-.28-.66c-.28-.1-.17.83-.48.52,0-.42-.4-.32-.23-.73-.71-.64-1.37.98-2.31-.12-.18.83-.65.35-.78.97-.03-.36-.92-.03-.42-.83.04-.06.12-.06.12.09l.05-.49c-.53-.91-.93.52-1.45.39.15.16.36.12.23.45l-.48-.06.09-.41-.71-.23.1.51c-.35-.26-.48-1.12-.86-.4-.18.41.33.68-.03.85-.47-.34-1.16-.86-1.76-1.02.05.57-.11.55-.27.67l-.02-.5c-.63.69-.22-1.1-.85-.55l.06-.35-.17,1.04c-.57.98-.29-1.03-.93.31.25-.08.1,1.1-.2.88l.08-.48c-.17.1-.23.3-.34.2.1-.26.06-.7-.19-.62l.18-.6-.48.87c-.35-.52-.94.11-1.07-.57,0,0-.77-.35-.97.39.17-.46-.26-.64-.12-1.18-.21.52-.82.93-1.04.36l.05-.06c-.86-.6-1.53.72-2.3,0,.01.58-.39.25-.32.99-.86.7-1.42-1.58-1.83.69-.38.1-.42-.56-.6-.69l.1-.12c-.71.15-.91.16-1.43.08-.27.21-.38,1.27-.83.98.18-.41-.02-.35-.19-.36.12-.06.16-.21-.05-.51-.04.13-.1.2-.15.27,0-.03,0-.06,0-.1-.3.13-.26.26-.13.33-.01.06,0,.15.03.27-.27-.56-.84-.02-.83-.75-.88.1-1.57.82-2.32,1.03-.05-.38.15-.69.37-.82l-.53.09c.05-.53.32-.28.49-.37-.54-.92-1.34.75-1.99-.1l-.19.41-.04-.07c-.02.22-.21.51-.32.58-.06-.47.1-1.07-.25-1.07-.24-.47-.82.15-1.21.36.19.1.1.35,0,.51-.18,0-.24-.48-.39-.29l.05-.63c.01.6-.53.59-.62.84-.05-.47.32-.37.4-.72-.72-.02-.36,0-1.08-.02-.43.43,0,.6-.23,1.13-.35.09-.73.49-1.07.07l.06.57c-.68.36-1.06.25-1.42-.37-2.64,1.98-3.11,3.49-2.88,4.51.22,1.02,1.13,1.55,1.13,1.55,1.77,1.46,2.95-.05,5.27-.25Z"/>
    </g>
    <g>
      <path class="cls-1" d="m626.54,79.31l-.21.25c.08,0,.15-.05.21-.25Z"/>
      <path class="cls-1" d="m608.98,145.1s.01.05.02.07c0-.05-.01-.06-.02-.07Z"/>
      <path class="cls-1" d="m618.91,88.36s0-.01,0-.01c-.01-.03-.01-.05-.02-.08l.02.09Z"/>
      <path class="cls-1" d="m621.87,75.5c-.24,1.62-.66,2.64-1.02,3.67-.35,1.03-.71,2.12-.95,3.94-.41,1.69-.68,3.54-.99,5.23.4.93-.52,2.19-.29,3.24l-.42.28c.08.36.1.77-.17,1.05l-.09-.05c.12.55-.17,1.05-.1,1.32l-.09-.05-.12.59-.11-.14c.03.91-.19,1.78-.52,2.5l.41.05c-.89,1.5-.24,2.33-1.19,3.65l-.09-.05c.51,2.16-1.56,2.72-1.14,4.92-.05-.27-.23.04-.32,0-.15.91-.37,1.87.4,2.12-.2.64-.4.45-.72.44.34.1.31.7.18,1.21l-.06-.27-.32,1.47.73-.09c-.42.71-.84-.04-.9.73l.53.15c-.42,1.02-1.41,1.4-2.12,2.3-1.52,4.17-1.54,9.16-3.62,12.87l-.45.06c-.61-.09.56,1.35-.03,1.35l.14.54c-.14.1-.33.35-.4.08-.14.42-.05.46.04.82l-.49.36c-.76,1.62-.42,3.27-1.05,5.03-1.31,1.98-1.61,6.26-1.7,8.72.07,1.76-.62,3.5-1.34,5.26-.67,1.77-1.32,3.59-1.08,5.39-.1.1.05.42.12.42-.18,1.03-.36,2.02-.58,2.97,0,0-.17.88-.43,1.94-.25,1.07-.61,2.28-.9,3.21-.27.94-.46,1.74.16,2.09.3.16.85.21,1.66-.09.81-.3,1.92-.98,3.12-2.31l.09.13c1.01-1.74,1.32-2.96.92-4.32.84-.05.35-1.46.67-1.82l.06.05c-.45-1.17.84-2.1.45-3.16.06.05.28.1.25.33.02-.73,0-1.75.48-1.72.13-1.74.84-4.08.31-5.32l.11.1c-.38-.73.08-.83-.03-1.58.07-.03.11-.07.14-.05-.34-.79.36-2,.28-2.6l.32.03.23-1.37-.18.49c-.81-.37.76-.9.46-2.01.33-.89-1.29-2.29-.65-3.15-.28-.56.54.56.41-.19.44.09.2.39.59.3-.04-.72.73-.98.65-1.87l.35.06c-.34-1.23.98-1.9.58-2.77.02-1.18,1.21-.46.87-1.79l.58-.32c.21-.47-.46-.51-.09-.99.28.11.42-.62.61-.22.79-1.1.08-2.67,1.31-4.07-.46-.52.11-1.23-.23-1.62.26.03.53-1.62.78-.55.02.09-.03.23-.12.19l.3.21c.9-.73.16-1.78.53-2.66-.19.24-.27.6-.43.3l.3-.83.23.26.54-1.21-.4.07c.36-.56,1.02-.6.74-1.45-.18-.4-.64.44-.55-.24.49-.75,1.22-1.88,1.64-2.91-.42-.02-.32-.3-.31-.62l.35.07c-.13-1.26.87-.19.83-1.41l.21.17-.62-.51c-.36-1.21.86-.33.29-1.72-.08.46-.81-.02-.5-.52l.28.24c.02-.32-.08-.46.04-.64.12.23.45.24.52-.22l.32.42-.35-1.02c.54-.54.41-1.7.95-1.83,0,0,.64-1.32.23-1.8.23.37.58-.36.88-.03-.25-.47-.23-1.62.27-1.94l.02.09c.85-1.47.26-2.86,1.12-4.16-.41-.04.01-.74-.54-.69-.09-1.61,1.77-2.42.35-3.38.09-.7.58-.7.75-1.03l.04.18c.2-1.3.28-1.67.57-2.6-.04-.51-.75-.77-.37-1.57.22.34.25-.01.33-.33,0,.21.09.3.38-.07-.08-.08-.11-.18-.13-.28.02,0,.05-.01.07,0,.02-.55-.09-.48-.19-.25-.04-.02-.1-.02-.2.04.51-.46.34-1.53.86-1.48.26-1.62-.03-2.88.07-4.25.29-.09.45.26.47.67l.11-.96c.37.09.1.59.11.89.85-1-.09-2.44.7-3.7l-.25-.33.06-.07c-.16-.02-.32-.36-.34-.57.36-.14.75.13.84-.55.4-.5.05-1.58-.07-2.31-.09.38-.27.24-.36.06.02-.34.36-.52.24-.8h.45c-.42.11-.4-.95-.59-1.08.34-.19.27.55.51.66,0-1.43.02-.71-.03-2.14-.36-.75-.42.15-.82-.2-.12-.66-.47-1.26-.3-2.04l-.37.29c-.45-1.17-.58-1.84-.41-2.75-1.47-1.98-2.75-2.51-3.49-2.63-.75-.11-1.13.16-1.22.63-.16.42-.1.89-.09,1.3.01.2.04.37.06.5.02.13.03.21.03.21.08,1.28.34,2.14.71,3.21.35,1.06.77,2.31.78,4.17Z"/>
    </g>
    <g>
      <path class="cls-1" d="m518.18,260.77l-.28.03c.05.05.14.06.28-.03Z"/>
      <path class="cls-1" d="m473.39,299.13s-.02.04-.03.06c.03-.03.03-.05.03-.06Z"/>
      <path class="cls-1" d="m507.72,262.6s0,0,0,0c0-.03.02-.05.02-.07l-.03.08Z"/>
      <path class="cls-1" d="m516.86,255.11c-2.45,1.9-3.58,1.88-5.78,4.23-1.19.97-2.29,2.18-3.35,3.24-.13.92-1.47,1.31-1.76,2.24l-.47-.04c-.1.32-.28.63-.62.69l-.05-.09c-.15.48-.62.69-.7.93l-.05-.09-.36.38-.03-.17c-.38.7-.95,1.23-1.55,1.59l.32.27c-1.4.63-1.24,1.62-2.59,2.09l-.05-.09c-.53,1.92-2.47,1.2-3.08,3.11.08-.24-.21-.1-.26-.18-.52.61-1.11,1.22-.59,1.84-.44.37-.52.12-.78-.06.24.26-.04.71-.37,1.02l.06-.24-.89.95.63.33c-.64.31-.67-.5-1.06.06l.37.41c-.78.55-1.75.29-2.71.59-3.02,2.35-5.16,6.14-8.47,7.75l-.39-.21c-.45-.41-.15,1.32-.62.98l-.13.48c-.16,0-.42.06-.35-.17-.3.23-.24.31-.33.63l-.55-.02c-1.32.74-1.82,2.11-3.12,2.97-1.92.58-4.23,3.19-5.7,4.6-.93,1.14-2.44,1.59-3.94,1.97-1.51.39-2.99.7-4.09,1.74-.12-.04-.26.23-.24.29-.81.31-1.63.6-2.46.88,0,0-.74.26-1.71.64-.97.38-2.16.89-3.04,1.42-.88.54-1.45,1.14-1.11,1.76.34.61,1.57,1.3,4.42,1.73l-.03.15c1.57-.15,2.53-.42,3.29-1.41.45.71,1.22-.37,1.65-.26v.07c.63-.93,2-.27,2.61-1.16,0,.07.07.29-.12.38.57-.37,1.31-.92,1.56-.52,1.39-.8,3.47-1.7,3.96-2.88v.15c.24-.74.62-.45,1.03-1.02.06.03.12.04.13.06.26-.76,1.5-1.07,1.79-1.54l.21.24.98-.78-.42.21c-.37-.8,1.09-.1,1.48-1.1.75-.42.26-2.46,1.18-2.65.07-.57.13.74.41.12.3.34-.05.4.3.58.34-.54,1.07-.26,1.45-.97l.25.25c.34-1.11,1.71-.82,1.81-1.71.57-.87,1.19.36,1.53-.84l.62.1c.39-.23-.14-.65.38-.8.17.25.63-.23.6.18,1.15-.37,1.26-1.99,2.87-2.35-.15-.65.63-.88.52-1.36.2.17,1.13-.94.88.02-.02.08-.12.16-.18.08l.15.33c1.05-.06.9-1.27,1.58-1.74-.26.08-.48.31-.48,0l.6-.47.07.33.97-.63-.36-.17c.54-.23,1.09.1,1.23-.7.03-.4-.72-.02-.35-.49.72-.31,1.8-.77,2.59-1.32-.34-.25-.13-.4,0-.64l.26.24c.43-1.04.79.34,1.28-.62l.1.24-.29-.73c.22-1.12.85.23.97-1.16-.26.31-.65-.46-.19-.67l.13.34c.16-.23.13-.4.31-.47,0,.24.26.43.52.12l.08.5.15-.97c.68-.11,1.06-1.06,1.56-.86,0,0,1.09-.65.96-1.24.03.41.63.05.73.47,0-.49.51-1.35,1.06-1.31l-.02.08c1.33-.64,1.45-2.02,2.73-2.49-.32-.27.34-.55-.14-.83.64-1.26,2.5-.79,1.78-2.31.39-.46.78-.19,1.07-.33l-.05.16c.75-.84.98-1.07,1.63-1.59.21-.39-.25-1,.43-1.35.02.38.21.14.42-.04-.1.15-.07.27.34.18-.02-.1,0-.2.02-.28.02.02.04.02.06.05.28-.39.15-.4-.03-.29-.02-.04-.08-.07-.18-.09.62-.03.99-.91,1.38-.57.97-1.01,1.36-2.07,2.1-2.99.27.11.23.46.04.76l.55-.62c.25.29-.21.48-.35.7,1.15-.19,1.11-1.8,2.35-2.14l-.02-.38h.08c-.11-.12-.06-.46.03-.61.34.14.5.57.92.18.55-.06.85-.97,1.17-1.49-.28.17-.32-.03-.3-.21.21-.2.55-.06.62-.31l.32.31c-.37-.24.25-.83.21-1.03.34.14-.14.5-.03.74.83-.79.41-.39,1.24-1.18.23-.65-.37-.24-.41-.72.34-.42.53-1,1.17-1.21l-.41-.16c.55-.9,1.03-1.26,1.81-1.42,3.46-7.37-1.78-4.31-1.78-4.31-2.81,1.31-3.17,3.18-5.61,5.74Z"/>
    </g>
    <g>
      <path class="cls-1" d="m73.18,397.72l-.11-.15c.01.08.04.14.11.15Z"/>
      <path class="cls-1" d="m49.26,400.13s-.01.02-.02.04c.02-.01.02-.03.02-.04Z"/>
      <path class="cls-1" d="m68.88,392.64h0s.01-.03.02-.04l-.02.04Z"/>
      <path class="cls-1" d="m73.69,392.51c-1.27-.04-1.7-.77-2.95-.3-.62.01-1.26.26-1.85.43-.22.63-.79.1-1.07.64l-.17-.32c-.1.18-.22.31-.36.15v-.1c-.15.28-.36.15-.44.28v-.1s-.21.07-.21.07l.02-.14c-.27.31-.59.36-.88.26l.07.41c-.64-.39-.77.48-1.36,0v-.1c-.56,1.15-1.15-.62-1.74.47.07-.14-.06-.21-.06-.31-.31.15-.65.25-.57,1.05-.24.01-.22-.23-.28-.54.04.35-.15.52-.33.56l.07-.14-.51.17.17.65c-.3-.16-.15-.8-.4-.62l.06.55c-.4-.07-.7-.88-1.11-1.25-1.56-.09-3.1,1.47-4.63.62l-.1-.41c-.08-.6-.32.93-.42.37l-.14.29c-.06-.1-.17-.21-.09-.36-.16-.01-.15.09-.25.28l-.2-.36c-.63-.24-1.09.53-1.75.43-.83-.71-2.23.11-3.04.58-1.12.99-2.65-1.33-3.79-.21-.04-.08-.13.12-.13.19h-1.11s-5.38.07-1,4.86l-.02.13c.63.29,1.02.33,1.4-.36.12.81.51.05.67.31v.07c.32-.65.79.47,1.11-.11,0,.07,0,.29-.08.31.25-.12.6-.33.65.15.62-.17,1.51,0,1.85-.79l-.02.13c.19-.53.29-.1.53-.38.02.06.04.09.04.12.21-.52.72-.13.9-.36l.04.31.49-.11-.19-.05c0-.87.42.52.73-.07.34.08.54-1.85.92-1.46.13-.42-.09.67.13.34.04.45-.09.29,0,.65.23-.23.44.43.71.1l.04.35c.34-.67.78.4.99-.23.38-.32.36,1.02.72.3l.2.46c.19.06.08-.59.3-.38.01.3.27.22.18.51.49.43.86-.75,1.53,0,.08-.59.41-.27.47-.72.04.25.6-.01.32.57-.02.05-.08.04-.08-.06v.35c.39.62.58-.42.92-.35-.11-.1-.24-.06-.17-.31l.32.02-.04.3.48.13-.1-.35c.25.16.38.77.59.23.09-.3-.26-.46-.03-.6.33.22.82.54,1.22.61-.08-.4.03-.4.13-.49l.05.35c.36-.53.23.76.6.33v.25s.02-.74.02-.74c.3-.73.27.71.59-.28-.16.08-.15-.77.06-.63l-.02.34c.1-.08.13-.23.21-.17-.05.19.02.5.17.42l-.07.44.24-.66c.27.34.6-.16.75.31,0,0,.53.18.6-.35-.07.34.23.43.19.82.09-.38.45-.72.65-.35l-.02.05c.62.34.93-.65,1.5-.22-.07-.4.23-.21.11-.73.48-.57,1.09.95,1.11-.68.23-.11.33.34.47.41l-.05.09c.44-.18.57-.21.92-.21.15-.18.09-.93.42-.78-.06.31.05.24.17.23-.07.06-.08.17.1.35.01-.09.04-.15.06-.21,0,.02.01.04.01.07.18-.13.13-.22.04-.25,0-.05-.02-.1-.05-.18.24.36.54-.09.63.42.56-.19.9-.76,1.35-1.01.08.26,0,.5-.12.62l.32-.14c.04.38-.17.24-.26.33.47.56.75-.71,1.29-.21l.06-.31.03.05c-.02-.16.06-.39.12-.44.11.32.09.76.32.71.22.29.5-.22.72-.43-.14-.04-.12-.23-.08-.35.11-.03.22.29.29.14l.07.44c-.1-.41.25-.49.27-.68.11.32-.14.31-.14.56.46-.1.23-.05.69-.15.21-.37-.1-.41-.03-.82.21-.11.38-.45.67-.22l-.13-.38c.37-.36.62-.35.95.02,2.62-3.6.06-4.46.06-4.46-1.3-.71-1.77.51-3.15,1Z"/>
    </g>
    <g>
      <path class="cls-1" d="m79.47,444.26l.45.15c0-.08-.12-.14-.45-.15Z"/>
      <path class="cls-1" d="m190.25,442.65s.07-.03.09-.06c-.07.03-.09.04-.09.06Z"/>
      <path class="cls-1" d="m96.65,449.46s-.02,0-.02,0c-.04.01-.08.03-.11.04l.14-.04Z"/>
      <path class="cls-1" d="m74.33,449.56c5.86-.03,7.44.69,13.49.24,2.89,0,5.98-.22,8.81-.33,1.34-.61,3.71-.03,5.3-.53l.62.34c.55-.17,1.19-.29,1.74-.1l-.04.1c.82-.25,1.74-.09,2.15-.22l-.04.1.99-.04-.17.14c1.43-.26,2.9-.26,4.19-.12l-.1-.41c2.76.51,3.79-.33,6.29.28l-.04.1c3.19-1.01,4.97.88,8.27-.04-.41.11.17.22.13.32,1.51-.06,3.12-.06,3.17-.86,1.1.05.88.29,1.01.6,0-.35.97-.46,1.82-.45l-.4.12,2.46-.02-.46-.69c1.29.24.3.83,1.55.72v-.55c1.8.18,2.83,1.06,4.56,1.53,7.27.52,15.12-.69,21.93.17l.31.41c.14.61,1.87-.91,2.14-.36l.79-.31c.23.1.7.2.31.35.74,0,.75-.1,1.27-.3l.8.35c2.92.23,5.35-.69,8.4-.75,1.86.28,4.52-.04,7.18-.44,2.66-.51,5.33-1.18,7.26-1.73,2.67-1.02,5.72-1.17,8.78-1.68,3.08-.35,6.15-1.11,8.74-2.51.21.03.6-.33.57-.4l4.96-1.96s.09-.04.26-.11c.17-.07.42-.17.72-.33.59-.31,1.42-.75,2.36-1.25.93-.51,1.97-1.08,2.97-1.69.96-.68,1.9-1.37,2.67-2.02,1.56-1.29,2.47-2.38,1.8-2.77-.33-.2-1.06-.22-2.28-.03-.61.1-1.34.25-2.21.45-.43.11-.89.23-1.4.36-.25.07-.51.14-.77.21-.28.06-.56.12-.86.18l.05-.17c-1.3.48-2.34.9-3.23,1.38-.89.48-1.62,1.04-2.38,1.69-.61-.63-2.12.79-2.82.79l.03-.09c-.66.6-1.5.86-2.36.99-.86.14-1.71.27-2.39.79.04-.08,0-.31.35-.44-1.08.47-2.56,1.16-2.78.73-1.32.49-2.97.84-4.46,1.31-.75.22-1.46.48-2.09.7-.64.22-1.19.46-1.59.74l.09-.15c-.91.71-1.3.34-2.39.83-.07-.05-.16-.06-.15-.09-1.01.76-3.24.65-4.12,1l-.11-.3-2.22.41.84-.06c-.18.89-1.75-.24-3.32.46-1.53.05-2.92,2.12-4.57,1.87-.73.48.62-.72-.5-.31-.07-.44.51-.32.19-.66-1.1.29-1.87-.34-3.23.06l-.08-.35c-1.76.77-3.41-.23-4.58.41-1.85.36-1.28-1-3.2-.24l-.76-.45c-.83-.05-.58.61-1.5.39.05-.3-1.17-.23-.63-.52-2.08-.47-4.21.75-6.96-.1-.6.58-1.98.21-2.43.65-.07-.26-2.77-.07-1.21-.61.13-.04.37-.03.35.07l.19-.34c-1.55-.66-2.85.3-4.4.16.46.13,1.07.11.66.34l-1.44-.08.31-.28-2.14-.23.29.37c-1.05-.21-1.4-.84-2.6-.37-.55.27.98.52-.13.6-1.4-.3-3.5-.74-5.29-.92.15.41-.33.38-.83.44l-.04-.35c-1.93.41-.67-.8-2.58-.49l.18-.24-.53.72c-1.74.63-.89-.77-2.84.11.76-.03.32.79-.6.6l.25-.33c-.52.05-.69.19-1.03.1.31-.17.18-.49-.58-.46l.52-.41-1.45.57c-1.09-.41-2.85-.02-3.29-.51,0,0-2.37-.31-2.93.19.49-.31-.82-.48-.43-.85-.63.35-2.46.61-3.17.19l.14-.04c-2.69-.48-4.62.45-7.03-.08.1.41-1.17.17-.86.7-2.5.48-4.55-1.11-5.47.5-1.14.08-1.35-.39-1.93-.47l.27-.09c-2.13.13-2.75.15-4.33.11-.79.16-.91.92-2.33.74.46-.3-.12-.24-.65-.24.34-.05.44-.16-.25-.36-.1.09-.25.15-.39.2,0-.02-.03-.04-.02-.07-.88.11-.73.2-.32.24-.02.05.02.1.14.19-.92-.38-2.56.06-2.67-.45-2.66.15-4.54.73-6.75.97-.25-.26.26-.5.9-.62l-1.57.13c0-.38.9-.24,1.38-.33-1.88-.57-3.83.71-6.04.21l-.44.32-.13-.05c.01.16-.47.39-.79.45-.32-.32,0-.76-1.09-.71-.87-.29-2.43.25-3.54.47.61.03.42.22.16.35-.54.03-.87-.28-1.28-.13l-.07-.44c.23.41-1.4.51-1.59.71-.32-.32.83-.32.95-.58-2.17.14-1.08.07-3.25.22-1.14.39.23.41-.3.83-1.02.13-2,.5-3.18.3l.39.38c-1.9.41-3.05.43-4.36.11-7.04,2.06-7.69,3.23-6.62,3.85,1.08.63,3.89.73,3.89.73,5.63.53,8.44-.79,15.09-1.39Z"/>
    </g>
    <g>
      <path class="cls-1" d="m458.23,335.71l.51-.12c-.05-.06-.19-.05-.51.12Z"/>
      <path class="cls-1" d="m554.89,256.78s.04-.08.04-.11c-.04.07-.05.1-.04.11Z"/>
      <path class="cls-1" d="m477.54,329.95s-.02.01-.02.01c-.03.04-.06.07-.08.11l.11-.12Z"/>
      <path class="cls-1" d="m455.7,343.21c5.84-3.29,7.77-3.56,13.47-7.56,2.84-1.72,5.68-3.84,8.34-5.69.94-1.36,3.52-2.4,4.74-3.84l.78-.12c.42-.49.96-1.01,1.58-1.22l.02.1c.62-.75,1.57-1.23,1.88-1.6l.03.1.91-.69-.08.23c1.18-1.16,2.55-2.13,3.82-2.91l-.34-.26c2.83-1.49,3.28-2.85,5.9-4.11l.03.1c2.23-3.05,5.04-2.81,7.36-5.93-.29.39.29.05.32.15,1.29-1.15,2.7-2.32,2.22-2.97.99-.76.96-.42,1.28-.28-.22-.27.54-1.06,1.28-1.69l-.27.39,2.11-1.84-.85-.18c1.28-.77.8.4,1.81-.61l-.36-.42c1.67-1.19,3.13-1.29,4.92-2.25,6.56-5.05,12.31-11.93,18.63-16.38l.53.08c.52.35.96-2.09,1.56-1.87l.47-.81c.26-.09.73-.36.49.04.62-.55.57-.64.88-1.18l.91-.33c2.59-2.02,4.09-4.48,6.63-6.81.88-.59,1.83-1.43,2.82-2.41,1-.97,2.01-2.09,2.99-3.26.99-1.16,1.94-2.37,2.79-3.54.87-1.15,1.64-2.25,2.27-3.2.84-1.37,1.86-2.66,2.94-3.96,1.11-1.27,2.25-2.58,3.4-3.9,1.18-1.3,2.23-2.71,3.23-4.12.98-1.43,1.77-2.96,2.38-4.5.18-.15.26-.74.2-.76.96-1.77,1.92-3.54,2.74-5.39,0,0,.19-.42.5-1.11.33-.68.68-1.69,1.09-2.82.41-1.13.85-2.4,1.15-3.71.31-1.3.67-2.56.76-3.71.27-2.28.2-3.89-.56-3.66-.38.11-.93.68-1.7,1.81-.39.56-.8,1.27-1.33,2.12-.55.84-1.17,1.83-1.86,2.97l-.08-.18c-1.34,2.82-2.11,4.57-2.42,6.8-.44-.01-.72.56-.96,1.2-.25.64-.5,1.34-.78,1.61l-.03-.09c-.16.98-.72,1.8-1.3,2.59-.61.77-1.22,1.53-1.44,2.46-.02-.09-.19-.24,0-.61-.55,1.22-1.4,2.85-1.86,2.67-.41.69-.87,1.43-1.35,2.18-.51.74-1.02,1.5-1.52,2.24-.95,1.49-1.88,2.84-2.19,3.9l-.02-.19c-.31,1.25-.86,1.26-1.49,2.44-.09.02-.18.07-.19.04-.41,1.32-2.32,2.95-2.86,3.86l-.28-.16-1.63,1.98c.24-.22.46-.45.69-.67.44.84-1.7,1.08-2.55,2.82-1.24,1.21-1.14,3.81-2.71,4.84-.32.91.07-1.01-.62.14-.35-.29.23-.63-.27-.64-.75,1.05-1.81,1.15-2.7,2.47l-.29-.21c-1.01,1.89-3.1,2.35-3.65,3.73-1.35,1.66-1.75.2-2.89,2.21l-.95.23c-.75.58-.1.88-1.03,1.42-.16-.26-1.14.71-.88.09-2.06,1.24-3.09,3.74-5.97,5.19-.12.89-1.53,1.66-1.62,2.32-.23-.14-2.38,2.05-1.43.47.08-.13.29-.3.34-.22l-.07-.4c-1.75.68-2.21,2.37-3.61,3.44.47-.25.98-.72.78-.24l-1.27,1.02.07-.44-1.96,1.45.49.06c-1.02.63-1.74.43-2.44,1.68-.29.61,1.18-.34.28.54-1.39.82-3.46,2.06-5.09,3.26.4.2-.03.53-.42.94l-.27-.23c-1.37,1.73-1.1-.11-2.53,1.53v-.31s.01.93.01.93c-1.07,1.75-1.27.08-2.35,2.16.62-.58.8.37-.12.89v-.43c-.41.41-.48.64-.83.82.16-.36-.16-.5-.8.06l.19-.68-.88,1.48c-1.2.47-2.48,2.04-3.17,1.97,0,0-.56.37-1.15.82-.59.45-1.2,1-1.29,1.39.23-.58-1.02.2-.92-.36-.33.71-1.78,2.18-2.67,2.35l.1-.13c-2.65,1.49-3.84,3.49-6.31,4.69.34.26-.95.92-.36,1.14-1.99,2.05-4.79,2.07-4.69,3.98-1,.81-1.45.56-2.04.87l.2-.24c-1.9,1.46-2.47,1.86-3.96,2.83-.65.63-.34,1.33-1.76,2.07.26-.54-.24-.12-.74.2.29-.25.33-.4-.44-.14-.04.14-.15.28-.26.4-.02-.02-.05-.01-.06-.05-.77.63-.58.62-.17.4,0,.05.07.08.24.07-1.07.24-2.39,1.6-2.77,1.24-2.42,1.75-3.94,3.34-5.93,4.83-.38-.07-.01-.58.54-1.06l-1.44,1.03c-.19-.33.74-.73,1.16-1.08-2.1.6-3.32,2.85-5.72,3.65l-.28.52-.15.03c.09.13-.27.6-.55.84-.47-.1-.38-.66-1.41-.01-.99.23-2.24,1.57-3.25,2.36.61-.3.52-.03.33.22-.52.32-.99.21-1.32.58l-.28-.35c.42.24-1.14,1.2-1.24,1.47-.47-.11.67-.73.67-1.02-2.08,1.28-1.04.64-3.12,1.92-.95.95.42.24.08.9-.95.66-1.78,1.48-3.06,1.9l.56.14c-1.73,1.34-2.88,1.94-4.35,2.32-6.29,5.3-6.54,6.69-5.18,6.74,1.36.05,4.32-1.24,4.32-1.24,3.03-1.15,5.11-2.42,7.24-3.89,2.15-1.45,4.31-3.17,7.51-5.24Z"/>
    </g>
    <g>
      <path class="cls-1" d="m477.98,381.75l.17.11c-.03-.07-.08-.12-.17-.11Z"/>
      <path class="cls-1" d="m503.14,364.7s0-.03,0-.05c0,.02,0,.04,0,.05Z"/>
      <path class="cls-1" d="m484.66,384.98h0s0,.03-.01.05l.02-.05Z"/>
      <path class="cls-1" d="m478.3,387.08c1.71-.39,2.42.12,4.01-.83.82-.29,1.6-.83,2.34-1.26.12-.69,1-.49,1.21-1.15l.31.22c.07-.23.19-.42.42-.33l.04.09c.1-.34.42-.32.47-.49l.04.09.25-.17.02.15c.26-.43.63-.66,1.03-.74l-.22-.35c.94,0,.79-.89,1.71-.77l.04.09c.27-1.39,1.66-.13,1.95-1.51-.04.17.16.15.2.24.32-.33.69-.64.26-1.32.28-.16.36.07.56.31-.19-.3-.04-.58.15-.74l-.02.18.53-.5-.49-.48c.42-.05.53.62.75.28l-.31-.46c.49-.2,1.22.32,1.89.36.95-.52,1.66-1.44,2.41-2.24.73-.84,1.48-1.6,2.56-1.85l.34.26c.43.44-.17-1.05.25-.67v-.36c.11.04.29.04.29.21.18-.12.11-.2.11-.44l.42.13c.83-.35.89-1.35,1.62-1.87.65-.09,1.22-.63,1.69-1.27.46-.65.79-1.43,1.04-1.99.23-.89,1.09-1.28,1.93-1.73.84-.44,1.72-.89,1.82-1.89.1.01.04-.22-.02-.26l1.01-1.15s.31-.35.61-.88c.31-.53.64-1.22.73-1.85.21-1.28-.6-2.21-4.18-1.52l-.09-.11c-.7.45-1.04.79-.85,1.61-.7-.43-.46.45-.78.43l-.04-.05c.2.76-1,.44-.85,1.15-.04-.06-.2-.2-.15-.29-.13.32-.29.78-.67.49-.42.68-1.29,1.37-1.07,2.25l-.07-.11c.18.56-.2.33-.23.74-.06-.03-.1-.03-.11-.05.15.58-.58.73-.6,1.07l-.24-.21-.38.51.21-.13c.57.67-.71-.03-.65.68-.38.22.64,1.9.01,1.91.13.44-.32-.61-.34-.16-.32-.32-.09-.31-.4-.51-.08.38-.69.02-.75.52l-.25-.25c.07.82-1.02.29-.85.97-.2.56-.95-.55-.9.32l-.47-.22c-.22.09.26.55-.08.55-.18-.24-.4.03-.47-.28-.74,0-.48,1.25-1.56,1.11.24.56-.27.53-.1.95-.17-.19-.62.45-.63-.26,0-.06.06-.09.11-.01l-.17-.3c-.73-.24-.4.75-.8.93.17.02.29-.11.34.15l-.35.2-.11-.28-.57.21.28.24c-.34.02-.78-.41-.74.19.05.32.5.23.33.5-.45.04-1.14.06-1.61.24.27.31.15.37.08.52l-.21-.28c-.16.7-.59-.54-.8.07l-.1-.23.3.69c0,.85-.61-.47-.52.62.14-.17.51.6.21.61l-.13-.32c-.08.14-.04.28-.16.27-.03-.2-.23-.44-.37-.28l-.11-.43v.73c-.44-.15-.61.49-.97.14,0,0-.67.13-.53.66-.06-.35-.42-.27-.53-.65.05.4-.22.93-.59.67v-.06c-.82,0-.81,1.08-1.62.97.22.35-.19.32.13.74-.35.8-1.59-.38-1.07,1.18-.24.22-.5-.17-.68-.18l.03-.11c-.46.38-.61.47-1.01.63-.13.24.17.94-.27.93-.01-.32-.13-.21-.27-.15.07-.08.05-.19-.21-.3.01.09,0,.16-.02.22-.01-.02-.03-.03-.04-.06-.18.19-.1.26.02.25.01.04.05.09.11.15-.39-.25-.63.31-.87-.15-.62.4-.88,1.12-1.38,1.52-.16-.22-.12-.49,0-.65l-.37.25c-.14-.35.15-.29.24-.41-.71-.39-.76.95-1.52.65v.33s-.06-.03-.06-.03c.06.15,0,.4-.06.48-.2-.28-.26-.72-.53-.59-.33-.21-.57.39-.8.65.18,0,.19.19.16.32-.14.06-.33-.23-.39-.05l-.16-.42c.19.38-.22.55-.21.74-.19-.29.13-.34.08-.59-.55.23-.28.12-.83.35-.2.42.19.38.16.8-.24.17-.41.56-.81.41l.22.34c-.42.46-.76.49-1.22.21-1.49,2.11-1.46,3.24-.99,3.84.47.59,1.36.64,1.36.64.93.19,1.54-.05,2.12-.46.58-.43,1.15-1,2.04-1.47Z"/>
    </g>
    <g>
      <path class="cls-1" d="m616.11,244.3l.34-.31c-.07-.03-.18.04-.34.31Z"/>
      <path class="cls-1" d="m660.55,148.23s0-.08,0-.11c0,.07,0,.1,0,.11Z"/>
      <path class="cls-1" d="m628.75,232.14v.02s-.02.08-.03.12l.03-.14Z"/>
      <path class="cls-1" d="m618.36,251.25c2.74-5.06,4.08-6.09,6.5-11.48,1.36-2.46,2.6-5.19,3.88-7.61.11-1.44,1.78-3.11,2.13-4.68l.6-.33c.13-.54.36-1.12.8-1.47l.07.08c.2-.8.79-1.48.9-1.87l.07.08.49-.82.03.21c.52-1.3,1.29-2.48,2.11-3.42l-.4-.15c.94-.96,1.39-1.75,1.86-2.51.46-.76.89-1.49,1.85-2.28l.06.09c1.01-3.1,3.57-3.36,4.76-6.51-.15.39.27,0,.33.09.83-1.22,1.77-2.51,1.15-3.02.68-.84.75-.53,1.08-.45-.28-.21.18-1.05.68-1.73l-.13.39,1.39-1.99-.82-.03c.93-.91.85.24,1.46-.85l-.45-.32c1.16-1.34,2.45-1.7,3.8-2.89,2.19-2.91,4-6.3,5.55-9.74,1.55-3.46,2.74-6.97,4.06-10.26l.48-.21c.62-.01-.43-2.09.15-2.24l-.16-.86c.14-.21.32-.68.4-.25.13-.75.03-.79-.07-1.35l.49-.77c.57-3.02-.23-5.51-.11-8.43.37-1.77.34-4.22.44-6.59.09-2.34.4-4.79.72-6.64.28-2.64,1.62-5.24,2.89-7.97,1.28-2.72,2.43-5.73,2.43-8.67.12-.17.02-.68-.05-.69.32-1.73.57-3.48.74-5.23,0,0,.17-1.6.15-3.7,0-2.1-.22-4.69-.69-6.63-.46-1.94-1.12-3.21-1.74-2.79-.67.41-1.19,2.53-2.33,7.05l-.13-.12c-.27,2.67-.44,4.29.06,6.19-.83.21-.31,2.17-.67,2.75l-.06-.07c.4,1.71-1.05,3.19-.85,4.82-.05-.07-.25-.16-.19-.51-.14,1.13-.37,2.68-.85,2.63-.57,2.62-2.1,6.25-1.95,8.26l-.09-.16c.16,1.16-.35,1.31-.45,2.53-.08.04-.13.11-.15.09.14,1.24-.85,3.29-.83,4.28h-.32c-.14.77-.27,1.55-.36,2.34.06-.29.13-.58.21-.87.8.43-.85,1.71-.42,3.5-.23,1.62,1.66,3.25,1.24,4.82.41.76-.66-.66-.35.47-.45.04-.29-.53-.65-.23.22,1.11-.44,1.84-.12,3.19l-.35.06c.66,1.77-.47,3.27.08,4.41.18,1.78-1.12,1.06-.67,2.91l-.57.61c-.19.73.53.64.11,1.43-.28-.11-.48.99-.64.45-.44.87-.46,1.84-.69,2.87-.1.52-.21,1.05-.39,1.59-.19.54-.51,1.06-.93,1.58.35.73-.46,1.79-.26,2.34-.26-.04-1.16,2.32-1.03.77.01-.13.11-.33.2-.27l-.24-.3c-1.18,1.02-.87,2.51-1.66,3.75.31-.32.56-.84.58-.39-.23.39-.46.78-.7,1.16l-.11-.39-1.2,1.64.45-.05c-.68.75-1.36.72-1.56,1.93-.05.58.94-.52.44.42-.47.49-1.06,1.11-1.68,1.75-.63.64-1.27,1.33-1.81,2,.42.11.15.48-.08.91l-.32-.17c-.71,1.76-1.03.07-1.81,1.76l-.1-.28.3.83c-.47,1.74-1.13.25-1.51,2.29.4-.61.82.21.15.82l-.13-.39c-.25.44-.25.65-.51.87.04-.35-.29-.43-.7.18l-.03-.65-.37,1.48c-.95.61-1.66,2.23-2.31,2.28,0,0-1.63,1.67-1.55,2.42.03-.57-.86.36-.94-.16-.09.7-.95,2.3-1.7,2.63l.05-.14c-.98.92-1.56,1.93-2.11,2.9-.57.96-1.1,1.91-1.99,2.76.4.15-.52,1.06.1,1.1-.97,2.33-3.42,3.19-2.52,4.82-.52,1-1.03.93-1.4,1.38l.07-.27c-1,1.86-1.27,2.41-2.11,3.73-.26.75.34,1.24-.51,2.36-.04-.54-.27-.02-.53.44.12-.31.08-.46-.43.04.03.13,0,.29-.02.43-.02,0-.05,0-.07-.02-.33.81-.17.72.05.39.03.04.1.04.23-.03-.77.6-1.18,2.22-1.68,2.07-1.14,2.36-1.53,4.25-2.34,6.27-.35.1-.32-.46-.13-1.07l-.62,1.41c-.33-.18.21-.89.36-1.34-1.39,1.35-1.17,3.64-2.63,5.3l.07.53-.1.09c.15.07.12.59.03.9-.43.12-.67-.36-1.13.6-.66.61-.91,2.2-1.24,3.26.31-.5.39-.25.38.03-.22.48-.66.6-.71,1.03l-.42-.15c.47,0-.21,1.44-.13,1.69-.43.12.11-.86-.06-1.09-.9,1.91-.45.96-1.35,2.87-.2,1.16.47,0,.58.66-.37.93-.53,1.94-1.28,2.84l.52-.15c-.57,1.81-1.12,2.79-2.06,3.72-1.8,6.92-1.26,8.1-.14,7.55,1.1-.56,2.68-2.89,2.68-2.89,3.37-4.53,3.61-7.62,6.24-13.63Z"/>
    </g>
    <g>
      <path class="cls-1" d="m662.55,77.84l-.12.14c.07-.03.13-.07.12-.14Z"/>
      <path class="cls-1" d="m653.48,78.97s-.02-.01-.04-.02c.01.01.02.02.04.02Z"/>
      <path class="cls-1" d="m657.48,80.85h0s-.03,0-.04-.01h.04Z"/>
      <path class="cls-1" d="m657.62,79.28c0,.43-.75.7-.36.97-.05.19.15.38.23.59.61.15-.02.27.46.47h-.34c.16.06.28.14.08.14l-.1-.02c.23.12.06.15.18.21l-.1-.03.02.09-.13-.05c.24.19.21.31.05.35l.38.15c-.5.02.23.48-.35.37l-.08-.05c.41.39.19.4-.02.33-.21-.06-.38-.13-.08.29-.07-.1-.16-.14-.23-.22.02.13,0,.24.49.87-.07.05-.21-.15-.4-.39.22.29.24.44.19.49l-.05-.13-.1.19.37.56c-.2-.1-.42-.7-.43-.5l.25.49c-.21,0-.64-.78-.83-1.13-.03,0-.06,0-.08.01l3.11,1.2c-.19-.31-.62-.5-.94-.78-.31-.29-.52-.66-.2-1.14l.39-.15c.57-.18-.92.06-.39-.13h-.29c.1-.07.2-.15.34-.14,0-.08-.09-.06-.29-.08l.34-.17c.23-.36-.56-.5-.45-.88.69-.49-.02-1.15-.41-1.68-.43-.36-.02-.72.4-.99.42-.29.81-.5.41-.94.09,0-.08-.1-.15-.12.08-.18.17-.36.27-.53,0,0,.29-.61.02-1.28-.14-.33-.44-.72-1.04-1.04-.6-.3-1.55-.58-3.06-.37l-.11-.08c-.51.32-.71.63-.2,1.18-.78-.23-.23.36-.51.39l-.06-.03c.51.48-.69.47-.22.92-.06-.03-.28-.09-.27-.16.05.24.16.57-.31.49,0,.54-.32,1.27.4,1.68l-.13-.04c.49.24.06.25.3.48-.06,0-.1.02-.12.02.48.23.05.59.26.76h-.32s.07.41.07.41l.07-.15c.86.04-.55.31.03.59-.09.29,1.82.4,1.43.68.42.08-.67-.04-.34.11-.45.06-.29-.06-.65.03.23.16-.42.37-.09.57l-.35.06c.69.2-.35.68.3.77.35.25-.97.45-.21.63l-.43.26c-.04.17.59-.05.41.17-.29.07-.17.27-.47.26-.31.53.86.54.32,1.29.58-.12.36.26.8.16-.24.12.18.48-.45.45-.05,0-.06-.05.03-.09l-.33.11c-.46.56.57.35.61.65.06-.13-.02-.22.23-.26l.08.26-.28.09c0,.15.03.3.06.45l.28-.23c-.06.26-.54.65.01.58.29-.06.32-.42.52-.3-.02.11-.04.23-.07.36l-.04.2,3.07.97c.33.1.75.18,1.09.13-.19-.36-.07-.39,0-.51l.16.32c.23-.64.51.62.78.03l.08.24-.25-.71c0-.81.61.49.48-.56-.12.15-.51-.59-.26-.58l.16.31c.05-.13,0-.27.09-.26.06.19.27.42.38.25l.17.41c-.04-.24-.08-.48-.13-.71.44.1.44-.51.84-.26,0,0,.55-.29.22-.71.19.29.48.12.73.42-.18-.35-.21-.86.21-.79l.02.05c.34-.17.36-.48.38-.77,0-.29-.02-.55.31-.71-.39-.13-.07-.31-.59-.43-.13-.33.17-.46.35-.62.18-.15.21-.32-.55-.59-.03-.23.44-.17.54-.27l.07.07c-.06-.45-.06-.57.02-.88-.13-.18-.88-.26-.69-.51.29.1.24,0,.25-.11.04.07.15.09.36-.03-.09-.02-.15-.05-.19-.08.02,0,.04,0,.07,0-.1-.18-.19-.14-.24-.07-.05,0-.1,0-.19.02.39-.17-.01-.48.5-.51-.17-.53-.7-.83-.99-1.18.25-.09.5-.04.63.06l-.16-.28c.37-.07.25.13.35.21.26-.24.07-.41-.13-.57-.2-.16-.4-.3-.22-.6h-.32s.04-.03.04-.03c-.15.05-.39.04-.46,0,.29-.17.72-.26.62-.47.24-.29-.34-.41-.62-.52,0,.13-.17.18-.3.19-.06-.08.2-.3.03-.3l.38-.23c-.34.24-.53-.02-.71.05.25-.23.32,0,.55-.11-.26-.37-.12-.19-.44-.53-.42.01-.31.29-.69.44-.19-.1-.53-.03-.47-.37l-.25.32c-.45-.02-.54-.14-.46-.61-.99.25-1.53.8-1.85,1.24-.33.46-.54.87-.61,1.22-.24.68-.35.96-.35.96-.18.38-.2.34.02.2.17-.09.55-.28.77-.16Z"/>
    </g>
  </g>
</svg>