<?xml version="1.0" encoding="UTF-8"?>
<svg id="Layer_2" data-name="Layer 2" xmlns="http://www.w3.org/2000/svg" viewBox="0 0 864.62 659.9">
  <defs>
    <style>
      .cls-1 {
        fill: #d7385e;
        stroke-width: 0px;
      }

      .cls-2 {
        fill: #a4004b;
        stroke: #d11b47;
        stroke-miterlimit: 10;
      }
    </style>
  </defs>
  <g id="Road_3" data-name="Road 3">
    <path class="cls-2" d="m141.7,1.63L.5,2.83s0-42.8,0,238.46,235.18,418.11,452.54,418.11h411.08v-160.28h-250.61c-162.27,0-472.13,10.23-472.13-295.69,0-216.36.32-201.8.32-201.8Z"/>
    <g>
      <path class="cls-1" d="m125.62,334.29l.06.71c.09-.05.11-.25-.06-.71Z"/>
      <path class="cls-1" d="m239.86,458.96c.06,0,.11.03.17.03-.11-.04-.15-.04-.17-.03Z"/>
      <path class="cls-1" d="m131.34,361.57s-.01-.02-.02-.03c-.05-.04-.1-.09-.14-.12l.16.16Z"/>
      <path class="cls-1" d="m115.7,329.43c3.32,8.79,3.44,11.55,8.35,20.01,1.03,2.09,2.25,4.16,3.5,6.19,1.22,2.05,2.54,4.02,3.77,5.92,1.8,1.41,3.15,5.03,5.12,6.78l.13,1.09c.68.6,1.39,1.35,1.66,2.22l-.15.03c1.03.88,1.67,2.22,2.18,2.65l-.15.03.94,1.27-.32-.11c1.62,1.64,2.98,3.53,4.02,5.32l.37-.48c2.06,3.93,3.94,4.54,5.71,8.15l-.15.04c4.21,3.08,3.96,6.93,8.27,10.1-.54-.39-.07.4-.21.45,1.6,1.76,3.25,3.69,4.16,3,1.07,1.36.6,1.32.4,1.77.38-.32,1.48.72,2.37,1.74l-.54-.36,2.6,2.88.24-1.19c1.1,1.75-.55,1.14.89,2.5l.58-.52c1.71,2.26,1.9,4.29,3.31,6.75,3.69,4.42,8.12,8.49,12.57,12.35,2.26,1.89,4.46,3.8,6.6,5.69,1.08.92,2.13,1.86,3.14,2.82,1,.96,1.97,1.93,2.93,2.88v.75c-.36.8,3.12.84,2.95,1.71l1.22.46c.18.34.67.92.06.7.9.72,1.02.62,1.84.9l.68,1.16c3.41,3.07,7.2,4.4,11.05,7.22,4.17,4.13,13.98,8.84,19.66,11.32,8.17,3.12,15.59,10.77,24.24,13.35.21.24,1,.31,1.04.22l7.26,3.62s2.21,1.07,5.15,2.37c2.95,1.28,6.62,2.8,9.55,3.71,5.86,1.82,8.68,1.27-3.3-8.21l.26-.08c-3.81-2.27-6.27-3.55-9.42-4,.06-1.24-3.21-1.67-3.98-2.46l.13-.04c-2.81-.36-4.65-3.07-7.32-3.51.13-.04.32-.3.86-.05-1.75-.7-4.18-1.62-3.99-2.29-2.04-.95-4.43-2.18-6.66-3.27-2.23-1.09-4.34-2-5.86-2.2l.26-.07c-1.78-.15-1.91-.93-3.69-1.49-.04-.13-.14-.23-.1-.25-.95-.12-2.11-.73-3.2-1.36-1.08-.65-2.09-1.33-2.79-1.56l.14-.43-3.12-1.69,1.1.75c-.51.41-1-.09-1.68-.77-.67-.7-1.54-1.58-2.84-1.91-.99-.69-2.36-.79-3.73-.94-1.35-.18-2.69-.42-3.58-1.35-1.32-.17,1.39-.21-.35-.81.3-.57.92.12.81-.56-1.63-.71-2.07-2.08-4.08-2.96l.21-.46c-2.83-.86-4.01-3.51-6-3.94-2.58-1.39-.69-2.34-3.69-3.34-.18-.41-.35-.83-.52-1.25-.94-.88-1.23.08-2.15-1.06.33-.28-1.2-1.38-.3-1.18-2.13-2.46-5.66-3.41-8.14-7.01-1.22,0-2.47-1.81-3.39-1.81.16-.34-3.11-2.93-.81-1.88.19.09.45.34.34.43l.54-.16c-1.15-2.27-3.52-2.63-5.12-4.41.39.61,1.08,1.25.4,1.04l-1.52-1.62.62.04-2.13-2.54-.05.68c-.93-1.35-.69-2.36-2.46-3.2-.86-.33.54,1.59-.74.45-1.22-1.83-3-4.6-4.7-6.8-.27.57-.74,0-1.33-.52l.32-.39c-2.44-1.8.13-1.53-2.17-3.41l.43-.02-1.29.07c-2.45-1.41-.11-1.75-3.02-3.18.8.85-.51,1.12-1.24-.13l.6-.02c-.58-.55-.9-.63-1.16-1.11.5.2.7-.24-.09-1.1l.96.23-2.07-1.17c-.66-1.65-2.84-3.38-2.74-4.36,0,0-1.98-3.11-3.08-3.32.82.3-.28-1.41.5-1.28-1-.43-3.03-2.41-3.26-3.65l.18.13c-2.05-3.64-4.84-5.24-6.48-8.66-.37.47-1.24-1.32-1.57-.49-1.4-1.37-2.11-3.02-2.79-4.31-.66-1.3-1.3-2.24-2.64-2.18-1.08-1.39-.71-2.02-1.12-2.84l.33.28c-1.96-2.63-2.47-3.44-3.74-5.51-.85-.9-1.84-.51-2.76-2.51.73.38.2-.34-.23-1.04.33.41.54.47.23-.59-.19-.06-.38-.22-.55-.37.02-.02.02-.07.07-.08-.83-1.09-.82-.82-.55-.25-.07,0-.11.09-.11.32-.28-1.48-2.03-3.37-1.49-3.89-1.07-1.74-2.17-3.13-3.17-4.48-1-1.35-1.97-2.63-2.89-4.07.15-.51.82.04,1.41.85l-1.25-2.07c.48-.22.92,1.08,1.36,1.69-.3-1.46-1.15-2.67-2.02-3.96-.87-1.28-1.82-2.61-2.16-4.3l-.67-.46-.02-.21c-.2.1-.79-.46-1.06-.89.23-.63.99-.41.29-1.92-.06-.69-.51-1.51-1.02-2.36-.5-.85-1.1-1.72-1.54-2.47.27.89-.08.71-.38.4-.33-.77-.07-1.38-.5-1.91l.56-.3c-.43.52-1.42-1.78-1.73-1.99.28-.61.81,1.07,1.23,1.13-1.22-3.09-.6-1.55-1.79-4.66-1.05-1.52-.45.5-1.26-.12-.68-1.43-1.53-2.78-1.71-4.63l-.36.72c-.65-1.36-1.09-2.47-1.38-3.5-.26-1.04-.33-2-.32-3.04-1.29-2.53-2.3-4.51-3.08-6.04-.81-1.52-1.48-2.57-2.03-3.23-1.09-1.32-1.67-1.09-2.01-.21-.63,1.8-.09,6.36-.09,6.36.49,4.56,1.46,7.91,2.89,11.29.35.85.71,1.71,1.08,2.6.41.87.83,1.78,1.28,2.73.87,1.91,1.84,4.01,2.96,6.45Z"/>
    </g>
    <g>
      <path class="cls-1" d="m113.79,83.49l-.22.2c.11,0,.2-.06.22-.2Z"/>
      <path class="cls-1" d="m118.15,131.73s.03.03.06.04c-.02-.03-.04-.04-.06-.04Z"/>
      <path class="cls-1" d="m106.39,91.41h0s-.04-.04-.06-.06l.06.06Z"/>
      <path class="cls-1" d="m106.48,81.51c-.16,2.6-1.2,3.35-.61,6.01-.01,1.29.32,2.64.53,3.88.88.54.12,1.64.87,2.3l-.46.3c.26.23.44.5.2.76h-.14c.39.33.2.75.39.92h-.14s.09.43.09.43l-.2-.06c.42.6.5,1.25.37,1.83l.58-.09c-.56,1.27.68,1.63,0,2.79h-.14c1.63,1.27-.86,2.28.7,3.6-.2-.16-.29.1-.43.1.22.65.36,1.35,1.5,1.26.02.48-.32.42-.76.52.5-.04.74.35.81.73l-.21-.16.26,1.06.92-.29c-.22.59-1.13.25-.86.77l.78-.08c-.08.8-1.22,1.37-1.73,2.19-.04,3.21,2.28,6.42,1.23,9.51l-.57.19c-.85.15,1.35.68.58.88l.43.3c-.14.11-.28.33-.49.18,0,.32.14.31.43.51l-.49.4c-.27,1.3.86,2.25.81,3.59-.9,1.71.45,4.57,1.25,6.21,1.56,2.24-1.45,5.48.34,7.76-.11.1.19.27.29.25l.19,2.27s.31,2.74,1.35,4.32c1.05,1.58,2.81,1.96,5.73-2.66l.19.03c.27-1.28.26-2.06-.79-2.77,1.12-.29-.02-1.02.31-1.36h.1c-.98-.61.52-1.62-.37-2.23.09.02.41-.01.45.15-.21-.5-.56-1.18.1-1.31-.34-1.23-.26-3.01-1.42-3.67l.19.03c-.77-.37-.18-.58-.61-1.04.08-.04.12-.08.16-.08-.77-.41-.29-1.44-.64-1.8l.44-.08-.23-.98-.05.38c-1.23.02.67-.84-.2-1.47.07-.69-2.69-1.07-2.17-1.84-.61-.27.96.19.46-.26.63-.09.43.19.92,0-.36-.46.55-.88.05-1.43l.49-.08c-.99-.69.49-1.56-.43-1.99-.5-.77,1.41-.71.35-1.45l.63-.4c.07-.37-.85-.17-.57-.61.42-.02.28-.54.71-.35.56-.98-1.13-1.75-.14-3.06-.85-.18-.42-.83-1.06-.96.35-.07-.07-1.21.78-.61.07.05.07.16-.07.16l.49.03c.85-.77-.63-1.19-.55-1.88-.14.22-.07.48-.43.33v-.63s.43.09.43.09l.15-.96-.5.18c.22-.48,1.06-.72.29-1.17-.42-.2-.64.5-.85.03.29-.64.72-1.61.81-2.4-.57.12-.56-.09-.7-.29l.49-.07c-.76-.77,1.06-.4.44-1.17l.35.04-1.06-.13c-1.05-.66.99-.49-.42-1.2.11.32-1.08.25-.9-.17l.49.06c-.12-.21-.33-.27-.24-.43.27.11.7.01.59-.31l.62.17-.93-.54c.47-.52-.23-1.22.43-1.47,0,0,.25-1.05-.51-1.23.48.17.61-.41,1.16-.29-.54-.22-1.03-.98-.5-1.33l.07.05c.48-1.2-.92-1.93-.31-3.02-.57.09-.3-.48-1.03-.29-.81-1.03,1.36-2.07-.94-2.31-.16-.48.5-.62.59-.88l.13.11c-.25-.91-.29-1.18-.28-1.86-.25-.33-1.31-.31-1.09-.94.43.17.34-.07.33-.3.08.14.23.18.5-.14-.13-.03-.22-.09-.29-.15.03,0,.06-.02.1-.01-.17-.37-.3-.3-.35-.12-.06,0-.15.02-.26.08.52-.43-.1-1.11.62-1.2-.23-1.14-1.04-1.92-1.37-2.86.37-.13.71.08.87.35l-.17-.67c.54-.02.33.37.45.58.82-.86-.95-1.62-.21-2.61l-.43-.17.07-.06c-.22.01-.54-.18-.62-.32.46-.16,1.08-.05,1.02-.51.43-.39-.28-1.04-.55-1.52-.07.27-.33.19-.5.09-.03-.23.43-.39.22-.56l.63-.05c-.59.12-.67-.58-.93-.66.46-.16.42.35.77.39-.1-.94-.05-.47-.15-1.41-.5-.48-.59.12-1.15-.1-.14-.44-.6-.85-.25-1.38l-.55.19c-.47-.82-.42-1.32.12-1.91-2.4-3.03-3.96-3.31-4.93-2.82-.97.49-1.34,1.75-1.34,1.75-1.14,2.53.54,3.74,1.11,6.66Z"/>
    </g>
    <g>
      <path class="cls-1" d="m52.79,117.99l-.17.86c.11-.02.18-.24.17-.86Z"/>
      <path class="cls-1" d="m70.61,332.6c.03.06.05.13.09.19-.04-.14-.07-.18-.09-.19Z"/>
      <path class="cls-1" d="m47.23,151.56s0-.03,0-.05c-.03-.07-.05-.15-.07-.22l.08.26Z"/>
      <path class="cls-1" d="m44.89,108.11c.5,11.41-.38,14.5.87,26.28.3,5.64.96,11.63,1.46,17.13,1.02,2.55.51,7.23,1.42,10.27l-.4,1.23c.31,1.05.56,2.29.38,3.38l-.14-.06c.47,1.57.38,3.38.61,4.15l-.14-.06.19,1.93-.22-.32c.57,2.75.79,5.61.79,8.14l.56-.25c-.28,5.43,1.06,7.32.62,12.24l-.14-.06c1.95,6.03-.33,9.79,1.58,16.01-.24-.78-.27.36-.42.31.38,2.9.69,6.01,1.84,5.97.14,2.13-.23,1.76-.65,2.07.5-.05.84,1.78.99,3.44l-.25-.75.52,4.74.87-1c-.09,2.54-1.1.72-.69,3.12l.78-.09c.1,3.5-.93,5.63-1.25,9.05.7,14.06,3.78,28.97,3.39,42.14l-.54.62c-.84.32,1.55,3.51.8,4.07l.51,1.49c-.12.44-.21,1.35-.46.61.08,1.41.22,1.43.56,2.42l-.4,1.56c.05,5.6,1.52,10.23,1.92,16.1-.15,3.57.38,8.65,1.28,13.76.4,2.56.98,5.12,1.5,7.51.27,1.19.53,2.35.78,3.44.28,1.08.54,2.1.78,3.04.79,2.61,1.29,5.37,1.79,8.2.24,1.42.44,2.86.63,4.32.19,1.45.44,2.91.66,4.38.23,1.47.46,2.93.69,4.4.28,1.45.61,2.9.95,4.32.35,1.42.73,2.83,1.18,4.2.49,1.36,1.03,2.68,1.64,3.95,0,.38.55,1.19.64,1.16l.76,2.44.86,2.41,1.73,4.82s.25.73.78,1.91c.52,1.18,1.25,2.82,2.07,4.68.79,1.87,1.92,3.87,2.99,5.84.54.99,1.09,1.96,1.63,2.89.54.93,1.16,1.78,1.71,2.57,2.23,3.17,4.06,5.15,4.58,4.09.26-.53.19-1.81-.29-4.06-.24-1.12-.59-2.48-1.06-4.11-.43-1.64-.88-3.6-1.49-5.81l.27.14c-1.02-2.49-1.72-4.57-2.53-6.38-.79-1.81-1.76-3.33-2.81-4.92.87-.97-1.44-4.19-1.53-5.51l.13.08c-1-1.39-1.3-3.09-1.65-4.74-.32-1.66-.68-3.28-1.48-4.7.12.09.44.07.66.76-.76-2.18-1.87-5.16-1.26-5.5-.88-2.61-1.54-5.87-2.36-8.81-.79-2.96-1.48-5.7-2.39-7.33l.23.2c-1.13-1.84-.63-2.55-1.39-4.72.06-.14.08-.3.12-.29-1.1-2.05-1.25-6.34-1.79-8.07l.42-.18-.77-4.35.15,1.64c-.65-.19-.59-1.05-.52-2.23.09-1.19.19-2.71-.41-4.24-.11-1.5-.95-2.92-1.72-4.38-.75-1.46-1.45-2.95-1.32-4.54-.74-1.42,1.07,1.2.38-.96.63-.14.51.99.96.36-.55-2.14.25-3.63-.43-6.27l.48-.16c-1.26-3.41.02-6.66-1.04-8.92-.72-3.58,1.25-2.54-.02-6.24l.55-1.52c-.02-1.62-.91-1.09-.73-2.9.43.08.16-2.29.64-1.27.35-4.1-1.56-8.16-.83-13.59-.91-1.1-.62-3.83-1.3-4.65.35-.17-.34-5.4.66-2.43.08.26.1.72-.04.69l.51.33c.7-3.12-.91-5.51-.99-8.53-.1.91.03,2.09-.36,1.32l-.14-2.81.45.55-.07-4.2-.47.61c.11-2.06.92-2.85.03-5.1-.48-1.01-.54,1.99-.86-.16.15-2.76.37-6.89.26-10.39-.55.37-.6-.57-.78-1.53l.49-.15c-.96-3.65.99-1.44.17-5.07l.37.3-1.11-.89c-1.23-3.24.9-1.86-.72-5.45.19,1.45-1.04.77-.96-1.04l.51.42c-.17-.98-.4-1.3-.35-1.97.3.57.72.26.53-1.19l.67.93-1.08-2.69c.36-2.17-.54-5.5.08-6.42,0,0,0-4.6-.82-5.6.53.89.52-1.65,1.11-.97-.6-1.15-1.3-4.62-.83-6.06l.08.26c.21-5.23-1.38-8.82-1.01-13.52-.56.25-.42-2.23-1.11-1.57-1.06-4.77.9-8.89-1.5-10.47-.27-2.18.36-2.63.4-3.78l.16.51c-.47-4.09-.57-5.28-.73-8.34-.33-1.51-1.4-1.67-1.33-4.42.48.85.33-.26.26-1.28.11.65.28.84.47-.52-.14-.18-.24-.47-.33-.73.03-.01.05-.07.1-.04-.27-1.69-.38-1.39-.38-.59-.07-.04-.14.04-.24.29.42-1.8-.37-4.93.33-5.19-.52-5.11-1.51-8.72-2.08-12.97.34-.5.74.47.97,1.7l-.34-3.01c.54,0,.43,1.72.6,2.64.62-3.66-1.37-7.37-.86-11.64l-.48-.85.05-.26c-.22.03-.59-.9-.71-1.52.42-.63,1.08-.03.91-2.11.34-1.68-.55-4.68-.94-6.83,0,1.17-.28.81-.48.32-.09-1.04.34-1.67.08-2.47l.62-.14c-.56.45-.83-2.69-1.11-3.06.43-.62.51,1.6.88,1.84-.34-4.19-.17-2.09-.52-6.28-.63-2.21-.57.44-1.19-.59-.26-1.97-.83-3.87-.6-6.16l-.51.75c-.69-3.68-.77-5.91-.38-8.44-6.43-27.37-6.61-5.46-6.61-5.46-.49,10.96,1.52,16.48,2.84,29.41Z"/>
    </g>
    <g>
      <path class="cls-1" d="m209.31,520.59l.58.64c.05-.1-.08-.29-.58-.64Z"/>
      <path class="cls-1" d="m407.98,588.77c.07-.01.14-.01.2-.03-.14,0-.19.02-.2.03Z"/>
      <path class="cls-1" d="m233.63,544.02s-.03-.02-.04-.02c-.07-.01-.15-.05-.22-.06l.26.08Z"/>
      <path class="cls-1" d="m196.78,521c1.15.84,2.19,1.62,3.14,2.34.95.73,1.87,1.33,2.71,1.95,1.68,1.22,3.15,2.3,4.63,3.38,2.98,2.14,6.02,4.3,11.2,7.17,4.88,2.84,10.25,5.58,15.12,8.16.67.13,1.4.42,2.17.79.77.36,1.6.76,2.43,1.19,1.66.85,3.37,1.75,4.91,2.13l.85.97c1.06.26,2.25.68,3.09,1.39l-.12.09c1.58.39,3.09,1.39,3.88,1.58l-.12.1,1.76.81-.38.03c2.62.95,5.28,2.03,7.5,3.23l.05-.61c4.65,2.79,6.94,2.5,11.07,5.18l-.12.1c3.09.59,5.25,1.69,7.43,2.84,2.18,1.15,4.39,2.32,7.6,2.8-.8-.12.21.4.1.51,2.78.91,5.71,1.97,6.14.92,1.97.8,1.49.96,1.59,1.47.16-.47,1.98-.07,3.55.44l-.79-.07,4.55,1.38-.57-1.19c2.29,1.07.23,1.29,2.58,1.86l.22-.75c3.23,1.27,4.79,3.05,7.81,4.7,1.64.64,3.35,1.11,5.06,1.6,1.72.48,3.45.94,5.19,1.39,3.48.87,6.98,1.74,10.46,2.61,7,1.52,13.86,2.96,20.04,5.2l.43.71c.06.93,3.8-.53,4.12.35l1.57-.09c.39.23,1.24.57.46.61,1.37.3,1.43.17,2.48.11l1.37.81c2.68.74,5.23,1.08,7.81,1.41,1.29.15,2.59.36,3.93.48,1.34.14,2.72.32,4.15.59,3.38,1.06,8.37,1.83,13.46,2.4l1.91.21c.64.04,1.28.07,1.91.11,1.27.05,2.52.11,3.73.16,2.42.07,4.67.14,6.57.2,2.68-.05,5.44.21,8.25.62,2.81.3,5.68.71,8.56,1.13,2.88.42,5.78.83,8.64,1.09,1.43.12,2.85.24,4.26.22,1.41-.04,2.8-.13,4.17-.3.35.12,1.28-.14,1.27-.24l10,.22s.76,0,2.01.02c1.25.01,3.01.03,4.99-.12,3.97-.23,8.87-.6,12.6-1.14,7.5-1.09,10.13-2.89-8.16-5.75l.24-.19c-2.7-.12-4.89-.18-6.88-.07-1.98.04-3.76.22-5.62.67-.59-1.16-4.43-.16-5.69-.55l.12-.09c-3.3.84-6.75-.78-9.94-.06.13-.09.2-.38.93-.39-2.31.05-5.47.1-5.61-.57-2.75-.07-6.04-.29-9.09-.38-3.05-.12-5.87,0-7.67.3l.26-.16c-2.06.51-2.6-.16-4.88-.03-.11-.1-.27-.16-.24-.2-2.25.49-6.39-.55-8.18-.43l-.06-.45-4.36-.34,1.61.26c-.35.58-1.16.3-2.27-.06-1.12-.36-2.53-.92-4.15-.75-2.91-.59-6.32,1.63-9.3.57-1.55.35,1.43-.73-.82-.62.03-.64,1.08-.24.6-.83-2.19-.02-3.4-1.17-6.1-1.14l-.02-.51c-3.58.31-6.31-1.89-8.74-1.46-3.59-.29-2.07-1.91-5.91-1.68l-1.28-.94c-1.54-.41-1.29.59-2.95-.07.19-.39-2.12-.76-1.02-.95-3.74-1.53-8.09-.99-12.94-3.31-1.31.53-3.76-.57-4.75-.18-.05-.37-5.14-1.33-2.05-1.36.26,0,.7.12.63.25l.47-.39c-1.34-.78-2.68-1.04-4.04-1.21-1.36-.16-2.75-.23-4.15-.72.8.4,1.93.69,1.09.79l-2.63-.84.66-.23-3.87-1.38.4.65c-1.86-.82-2.28-1.84-4.66-1.79-1.1.1,1.63,1.19-.46.75-1.24-.56-2.8-1.19-4.42-1.94-1.62-.76-3.32-1.52-4.92-2.15.12.65-.74.33-1.68.13l.06-.51c-3.66-.52-.91-1.47-4.5-2.12l.42-.22-1.24.67c-3.41-.13-1.31-1.54-5.19-1.45,1.38.38.27,1.25-1.33.47l.59-.31c-.96-.21-1.33-.15-1.9-.48.63-.03.53-.54-.83-.99l1.1-.21-2.83-.17c-1.76-1.25-5.09-1.86-5.64-2.81,0,0-4.06-1.96-5.3-1.65,1.02-.1-1.23-1.17-.36-1.41-1.28.06-4.66-.79-5.68-1.92l.26.05c-4.42-2.6-8.27-2.85-12.16-5.34-.05.61-2.13-.66-1.89.25-1.16-.32-2.19-.78-3.13-1.28-.92-.53-1.74-1.1-2.5-1.58-1.51-.96-2.77-1.58-4.04-.94-1.98-.86-2.05-1.63-2.99-2.23l.51.12c-3.69-1.65-4.75-2.16-7.41-3.55-1.44-.48-2.17.39-4.39-1.17.96.06-.04-.41-.91-.91.59.26.84.22-.18-.68-.22.02-.51-.05-.78-.12,0-.03-.03-.08.02-.11-1.53-.69-1.34-.43-.69,0-.07.04-.05.14.11.36-1.26-1.33-4.25-2.35-4.08-3.08-2.24-1.16-4.24-2.02-6.16-2.82-.96-.4-1.89-.79-2.83-1.18-.94-.4-1.83-.88-2.76-1.37-.21-.57.8-.33,1.9.19l-2.6-1.46c.3-.45,1.61.64,2.44,1.04-2.55-2.62-6.65-3.14-9.76-6.02l-.96-.1-.17-.19c-.11.2-1.07-.04-1.63-.31-.25-.7.62-.88-1.15-1.95-.57-.62-1.58-1.18-2.69-1.72-1.09-.55-2.25-1.13-3.21-1.61.9.72.45.72-.05.58-.86-.57-1.08-1.3-1.85-1.59l.27-.58c0,.72-2.57-1-3.03-1.01-.22-.72,1.54.58,1.95.43-3.43-2.3-1.71-1.15-5.14-3.45-2.09-.87-.01.72-1.2.57-1.67-1.01-3.5-1.74-5.12-3.32l.26.86c-3.23-1.8-4.9-3.25-6.53-5.18-6.11-3.24-9.73-4.8-11.68-5.29-1.95-.5-2.22.06-1.76,1.07.97,1.98,5.06,5.64,5.06,5.64,3.97,3.79,7.3,6.28,11.01,8.65,3.8,2.26,7.92,4.48,13.37,7.99Z"/>
    </g>
  </g>
</svg>