<?xml version="1.0" encoding="UTF-8"?>
<svg id="Layer_2" data-name="Layer 2" xmlns="http://www.w3.org/2000/svg" xmlns:xlink="http://www.w3.org/1999/xlink" viewBox="0 0 1267.63 653">
  <defs>
    <style>
      .cls-1 {
        fill: #baa3c1;
      }

      .cls-1, .cls-2, .cls-3, .cls-4, .cls-5, .cls-6, .cls-7, .cls-8, .cls-9, .cls-10 {
        stroke-width: 0px;
      }

      .cls-11, .cls-12 {
        fill: none;
        stroke: #baa3c1;
        stroke-miterlimit: 10;
      }

      .cls-2 {
        fill: #cbb9d0;
      }

      .cls-3 {
        fill: #dfcde5;
      }

      .cls-13 {
        font-family: NeuzeitGro-Bol, 'Neuzeit Grotesk';
        font-size: 17.77px;
      }

      .cls-13, .cls-6 {
        fill: #9c7ca6;
      }

      .cls-14 {
        clip-path: url(#clippath-1);
      }

      .cls-4 {
        fill: #8c8d8f;
      }

      .cls-5 {
        fill: #a9aaab;
      }

      .cls-7 {
        fill: #a8a8a8;
      }

      .cls-12 {
        stroke-width: 2.13px;
      }

      .cls-8 {
        fill: #552c56;
      }

      .cls-9 {
        fill: #14523d;
      }

      .cls-10 {
        fill: #91749c;
      }
    </style>
    <clipPath id="clippath-1">
      <rect class="cls-11" x="63.87" y="100.54" width="1145.27" height="112.54"/>
    </clipPath>
  </defs>
  <g id="Bush_1" data-name="Bush 1">
    <g>
      <g>
        <rect class="cls-6" x="52.01" y="91.62" width="1168" height="130.39"/>
        <g>
          <g class="cls-14">
            <g>
              <g id="_Grid_Repeat_" data-name="&amp;lt;Grid Repeat&amp;gt;">
                <line class="cls-12" x1="51.3" y1="100.54" x2="51.3" y2="206.85"/>
                <line class="cls-12" x1="66.45" y1="100.54" x2="66.45" y2="206.85"/>
              </g>
              <g id="_Grid_Repeat_-2" data-name="&amp;lt;Grid Repeat&amp;gt;">
                <line class="cls-12" x1="78.57" y1="100.54" x2="78.57" y2="206.85"/>
                <line class="cls-12" x1="93.72" y1="100.54" x2="93.72" y2="206.85"/>
              </g>
              <g id="_Grid_Repeat_-3" data-name="&amp;lt;Grid Repeat&amp;gt;">
                <line class="cls-12" x1="105.85" y1="100.54" x2="105.85" y2="206.85"/>
                <line class="cls-12" x1="121" y1="100.54" x2="121" y2="206.85"/>
              </g>
              <g id="_Grid_Repeat_-4" data-name="&amp;lt;Grid Repeat&amp;gt;">
                <line class="cls-12" x1="133.12" y1="100.54" x2="133.12" y2="206.85"/>
                <line class="cls-12" x1="148.27" y1="100.54" x2="148.27" y2="206.85"/>
              </g>
              <g id="_Grid_Repeat_-5" data-name="&amp;lt;Grid Repeat&amp;gt;">
                <line class="cls-12" x1="160.4" y1="100.54" x2="160.4" y2="206.85"/>
                <line class="cls-12" x1="175.54" y1="100.54" x2="175.54" y2="206.85"/>
              </g>
              <g id="_Grid_Repeat_-6" data-name="&amp;lt;Grid Repeat&amp;gt;">
                <line class="cls-12" x1="187.67" y1="100.54" x2="187.67" y2="206.85"/>
                <line class="cls-12" x1="202.82" y1="100.54" x2="202.82" y2="206.85"/>
              </g>
              <g id="_Grid_Repeat_-7" data-name="&amp;lt;Grid Repeat&amp;gt;">
                <line class="cls-12" x1="214.94" y1="100.54" x2="214.94" y2="206.85"/>
                <line class="cls-12" x1="230.09" y1="100.54" x2="230.09" y2="206.85"/>
              </g>
              <g id="_Grid_Repeat_-8" data-name="&amp;lt;Grid Repeat&amp;gt;">
                <line class="cls-12" x1="242.22" y1="100.54" x2="242.22" y2="206.85"/>
                <line class="cls-12" x1="257.36" y1="100.54" x2="257.36" y2="206.85"/>
              </g>
              <g id="_Grid_Repeat_-9" data-name="&amp;lt;Grid Repeat&amp;gt;">
                <line class="cls-12" x1="269.49" y1="100.54" x2="269.49" y2="206.85"/>
                <line class="cls-12" x1="284.64" y1="100.54" x2="284.64" y2="206.85"/>
              </g>
              <g id="_Grid_Repeat_-10" data-name="&amp;lt;Grid Repeat&amp;gt;">
                <line class="cls-12" x1="296.76" y1="100.54" x2="296.76" y2="206.85"/>
                <line class="cls-12" x1="311.91" y1="100.54" x2="311.91" y2="206.85"/>
              </g>
              <g id="_Grid_Repeat_-11" data-name="&amp;lt;Grid Repeat&amp;gt;">
                <line class="cls-12" x1="324.04" y1="100.54" x2="324.04" y2="206.85"/>
                <line class="cls-12" x1="339.19" y1="100.54" x2="339.19" y2="206.85"/>
              </g>
              <g id="_Grid_Repeat_-12" data-name="&amp;lt;Grid Repeat&amp;gt;">
                <line class="cls-12" x1="351.31" y1="100.54" x2="351.31" y2="206.85"/>
                <line class="cls-12" x1="366.46" y1="100.54" x2="366.46" y2="206.85"/>
              </g>
              <g id="_Grid_Repeat_-13" data-name="&amp;lt;Grid Repeat&amp;gt;">
                <line class="cls-12" x1="378.59" y1="100.54" x2="378.59" y2="206.85"/>
                <line class="cls-12" x1="393.73" y1="100.54" x2="393.73" y2="206.85"/>
              </g>
              <g id="_Grid_Repeat_-14" data-name="&amp;lt;Grid Repeat&amp;gt;">
                <line class="cls-12" x1="405.86" y1="100.54" x2="405.86" y2="206.85"/>
                <line class="cls-12" x1="421.01" y1="100.54" x2="421.01" y2="206.85"/>
              </g>
              <g id="_Grid_Repeat_-15" data-name="&amp;lt;Grid Repeat&amp;gt;">
                <line class="cls-12" x1="433.13" y1="100.54" x2="433.13" y2="206.85"/>
                <line class="cls-12" x1="448.28" y1="100.54" x2="448.28" y2="206.85"/>
              </g>
              <g id="_Grid_Repeat_-16" data-name="&amp;lt;Grid Repeat&amp;gt;">
                <line class="cls-12" x1="460.41" y1="100.54" x2="460.41" y2="206.85"/>
                <line class="cls-12" x1="475.55" y1="100.54" x2="475.55" y2="206.85"/>
              </g>
              <g id="_Grid_Repeat_-17" data-name="&amp;lt;Grid Repeat&amp;gt;">
                <line class="cls-12" x1="487.68" y1="100.54" x2="487.68" y2="206.85"/>
                <line class="cls-12" x1="502.83" y1="100.54" x2="502.83" y2="206.85"/>
              </g>
              <g id="_Grid_Repeat_-18" data-name="&amp;lt;Grid Repeat&amp;gt;">
                <line class="cls-12" x1="514.95" y1="100.54" x2="514.95" y2="206.85"/>
                <line class="cls-12" x1="530.1" y1="100.54" x2="530.1" y2="206.85"/>
              </g>
              <g id="_Grid_Repeat_-19" data-name="&amp;lt;Grid Repeat&amp;gt;">
                <line class="cls-12" x1="542.23" y1="100.54" x2="542.23" y2="206.85"/>
                <line class="cls-12" x1="557.38" y1="100.54" x2="557.38" y2="206.85"/>
              </g>
              <g id="_Grid_Repeat_-20" data-name="&amp;lt;Grid Repeat&amp;gt;">
                <line class="cls-12" x1="569.5" y1="100.54" x2="569.5" y2="206.85"/>
                <line class="cls-12" x1="584.65" y1="100.54" x2="584.65" y2="206.85"/>
              </g>
              <g id="_Grid_Repeat_-21" data-name="&amp;lt;Grid Repeat&amp;gt;">
                <line class="cls-12" x1="596.78" y1="100.54" x2="596.78" y2="206.85"/>
                <line class="cls-12" x1="611.92" y1="100.54" x2="611.92" y2="206.85"/>
              </g>
              <g id="_Grid_Repeat_-22" data-name="&amp;lt;Grid Repeat&amp;gt;">
                <line class="cls-12" x1="624.05" y1="100.54" x2="624.05" y2="206.85"/>
                <line class="cls-12" x1="639.2" y1="100.54" x2="639.2" y2="206.85"/>
              </g>
              <g id="_Grid_Repeat_-23" data-name="&amp;lt;Grid Repeat&amp;gt;">
                <line class="cls-12" x1="651.32" y1="100.54" x2="651.32" y2="206.85"/>
                <line class="cls-12" x1="666.47" y1="100.54" x2="666.47" y2="206.85"/>
              </g>
              <g id="_Grid_Repeat_-24" data-name="&amp;lt;Grid Repeat&amp;gt;">
                <line class="cls-12" x1="678.6" y1="100.54" x2="678.6" y2="206.85"/>
                <line class="cls-12" x1="693.74" y1="100.54" x2="693.74" y2="206.85"/>
              </g>
              <g id="_Grid_Repeat_-25" data-name="&amp;lt;Grid Repeat&amp;gt;">
                <line class="cls-12" x1="705.87" y1="100.54" x2="705.87" y2="206.85"/>
                <line class="cls-12" x1="721.02" y1="100.54" x2="721.02" y2="206.85"/>
              </g>
              <g id="_Grid_Repeat_-26" data-name="&amp;lt;Grid Repeat&amp;gt;">
                <line class="cls-12" x1="733.14" y1="100.54" x2="733.14" y2="206.85"/>
                <line class="cls-12" x1="748.29" y1="100.54" x2="748.29" y2="206.85"/>
              </g>
              <g id="_Grid_Repeat_-27" data-name="&amp;lt;Grid Repeat&amp;gt;">
                <line class="cls-12" x1="760.42" y1="100.54" x2="760.42" y2="206.85"/>
                <line class="cls-12" x1="775.57" y1="100.54" x2="775.57" y2="206.85"/>
              </g>
              <g id="_Grid_Repeat_-28" data-name="&amp;lt;Grid Repeat&amp;gt;">
                <line class="cls-12" x1="787.69" y1="100.54" x2="787.69" y2="206.85"/>
                <line class="cls-12" x1="802.84" y1="100.54" x2="802.84" y2="206.85"/>
              </g>
              <g id="_Grid_Repeat_-29" data-name="&amp;lt;Grid Repeat&amp;gt;">
                <line class="cls-12" x1="814.97" y1="100.54" x2="814.97" y2="206.85"/>
                <line class="cls-12" x1="830.11" y1="100.54" x2="830.11" y2="206.85"/>
              </g>
              <g id="_Grid_Repeat_-30" data-name="&amp;lt;Grid Repeat&amp;gt;">
                <line class="cls-12" x1="842.24" y1="100.54" x2="842.24" y2="206.85"/>
                <line class="cls-12" x1="857.39" y1="100.54" x2="857.39" y2="206.85"/>
              </g>
              <g id="_Grid_Repeat_-31" data-name="&amp;lt;Grid Repeat&amp;gt;">
                <line class="cls-12" x1="869.51" y1="100.54" x2="869.51" y2="206.85"/>
                <line class="cls-12" x1="884.66" y1="100.54" x2="884.66" y2="206.85"/>
              </g>
              <g id="_Grid_Repeat_-32" data-name="&amp;lt;Grid Repeat&amp;gt;">
                <line class="cls-12" x1="896.79" y1="100.54" x2="896.79" y2="206.85"/>
                <line class="cls-12" x1="911.93" y1="100.54" x2="911.93" y2="206.85"/>
              </g>
              <g id="_Grid_Repeat_-33" data-name="&amp;lt;Grid Repeat&amp;gt;">
                <line class="cls-12" x1="924.06" y1="100.54" x2="924.06" y2="206.85"/>
                <line class="cls-12" x1="939.21" y1="100.54" x2="939.21" y2="206.85"/>
              </g>
              <g id="_Grid_Repeat_-34" data-name="&amp;lt;Grid Repeat&amp;gt;">
                <line class="cls-12" x1="951.33" y1="100.54" x2="951.33" y2="206.85"/>
                <line class="cls-12" x1="966.48" y1="100.54" x2="966.48" y2="206.85"/>
              </g>
              <g id="_Grid_Repeat_-35" data-name="&amp;lt;Grid Repeat&amp;gt;">
                <line class="cls-12" x1="978.61" y1="100.54" x2="978.61" y2="206.85"/>
                <line class="cls-12" x1="993.76" y1="100.54" x2="993.76" y2="206.85"/>
              </g>
              <g id="_Grid_Repeat_-36" data-name="&amp;lt;Grid Repeat&amp;gt;">
                <line class="cls-12" x1="1005.88" y1="100.54" x2="1005.88" y2="206.85"/>
                <line class="cls-12" x1="1021.03" y1="100.54" x2="1021.03" y2="206.85"/>
              </g>
              <g id="_Grid_Repeat_-37" data-name="&amp;lt;Grid Repeat&amp;gt;">
                <line class="cls-12" x1="1033.16" y1="100.54" x2="1033.16" y2="206.85"/>
                <line class="cls-12" x1="1048.3" y1="100.54" x2="1048.3" y2="206.85"/>
              </g>
              <g id="_Grid_Repeat_-38" data-name="&amp;lt;Grid Repeat&amp;gt;">
                <line class="cls-12" x1="1060.43" y1="100.54" x2="1060.43" y2="206.85"/>
                <line class="cls-12" x1="1075.58" y1="100.54" x2="1075.58" y2="206.85"/>
              </g>
              <g id="_Grid_Repeat_-39" data-name="&amp;lt;Grid Repeat&amp;gt;">
                <line class="cls-12" x1="1087.7" y1="100.54" x2="1087.7" y2="206.85"/>
                <line class="cls-12" x1="1102.85" y1="100.54" x2="1102.85" y2="206.85"/>
              </g>
              <g id="_Grid_Repeat_-40" data-name="&amp;lt;Grid Repeat&amp;gt;">
                <line class="cls-12" x1="1114.98" y1="100.54" x2="1114.98" y2="206.85"/>
                <line class="cls-12" x1="1130.12" y1="100.54" x2="1130.12" y2="206.85"/>
              </g>
              <g id="_Grid_Repeat_-41" data-name="&amp;lt;Grid Repeat&amp;gt;">
                <line class="cls-12" x1="1142.25" y1="100.54" x2="1142.25" y2="206.85"/>
                <line class="cls-12" x1="1157.4" y1="100.54" x2="1157.4" y2="206.85"/>
              </g>
              <g id="_Grid_Repeat_-42" data-name="&amp;lt;Grid Repeat&amp;gt;">
                <line class="cls-12" x1="1169.52" y1="100.54" x2="1169.52" y2="206.85"/>
                <line class="cls-12" x1="1184.67" y1="100.54" x2="1184.67" y2="206.85"/>
              </g>
              <g id="_Grid_Repeat_-43" data-name="&amp;lt;Grid Repeat&amp;gt;">
                <line class="cls-12" x1="1196.8" y1="100.54" x2="1196.8" y2="206.85"/>
                <line class="cls-12" x1="1211.95" y1="100.54" x2="1211.95" y2="206.85"/>
              </g>
            </g>
          </g>
          <rect class="cls-11" x="63.87" y="100.54" width="1145.27" height="112.54"/>
        </g>
        <path class="cls-4" d="m68.19,98.53c1.93,0,1.93-3,0-3s-1.93,3,0,3h0Z"/>
        <rect class="cls-1" x="73.51" y="256" width="157" height="365"/>
        <polygon class="cls-10" points="466.51 145 638.41 0 815.51 145 466.51 145"/>
        <polygon class="cls-8" points="468.01 236.62 639.91 91.62 817.01 236.62 468.01 236.62"/>
        <path class="cls-1" d="m445.51,188v423h126.38v-156.37s0-65.63,61.25-65.63,61.25,65.63,61.25,65.63v156.37h140.12V188h-389Z"/>
        <rect class="cls-3" x="54.51" y="223.85" width="205" height="17.31"/>
        <path class="cls-6" d="m67.51,396h192v15H77.03c-5.26,0-9.52-4.26-9.52-9.52v-5.48Z"/>
        <path class="cls-6" d="m67.51,241h192v15H77.03c-5.26,0-9.52-4.26-9.52-9.52v-5.48Z"/>
        <rect class="cls-3" x="54.51" y="388" width="205" height="8"/>
        <path class="cls-8" d="m112.51,377.09h60.5v-72.4c0-20.44-21.06-30.13-30.13-30.13s-30.37,8.17-30.37,26.39v76.14Z"/>
        <path class="cls-8" d="m112.51,564h60.5v-72.4c0-20.44-21.06-30.13-30.13-30.13s-30.37,8.17-30.37,26.39v76.14Z"/>
        <rect class="cls-1" x="230.51" y="215" width="183" height="406"/>
        <path class="cls-6" d="m221.51,378h192v15h-182.48c-5.26,0-9.52-4.26-9.52-9.52v-5.48Z"/>
        <path class="cls-6" d="m221.51,216h192v15h-182.48c-5.26,0-9.52-4.26-9.52-9.52v-5.48Z"/>
        <rect class="cls-3" x="208.51" y="370" width="205" height="8"/>
        <path class="cls-8" d="m266.51,360h71.03v-85c0-24-24.73-35.38-35.38-35.38s-35.65,9.6-35.65,30.99v89.39Z"/>
        <path class="cls-8" d="m266.51,563h71.03v-85c0-24-24.73-35.38-35.38-35.38s-35.65,9.6-35.65,30.99v89.39Z"/>
        <rect class="cls-1" x="1046.51" y="256" width="157" height="365"/>
        <rect class="cls-3" x="1017.51" y="223.85" width="205" height="17.31"/>
        <path class="cls-6" d="m1209.51,396h-192s0,15,0,15h182.48c5.26,0,9.52-4.26,9.52-9.52v-5.48Z"/>
        <path class="cls-6" d="m1209.51,241h-192s0,15,0,15h182.48c5.26,0,9.52-4.26,9.52-9.52v-5.48Z"/>
        <rect class="cls-3" x="1017.51" y="388" width="205" height="8"/>
        <path class="cls-8" d="m1164.51,377.09h-60.5s0-51.96,0-72.4c0-20.44,21.06-30.13,30.13-30.13,9.07,0,30.37,8.17,30.37,26.39s0,76.14,0,76.14Z"/>
        <path class="cls-7" d="m1164.51,564h-60.5s0-51.96,0-72.4c0-20.44,21.06-30.13,30.13-30.13s30.37,8.17,30.37,26.39c0,18.22,0,76.14,0,76.14Z"/>
        <rect class="cls-1" x="863.51" y="215" width="183" height="406"/>
        <path class="cls-6" d="m1055.51,378h-192s0,15,0,15h182.48c5.26,0,9.52-4.26,9.52-9.52v-5.48Z"/>
        <path class="cls-6" d="m1055.51,216h-192s0,15,0,15h182.48c5.26,0,9.52-4.26,9.52-9.52v-5.48Z"/>
        <rect class="cls-3" x="863.51" y="370" width="205" height="8"/>
        <path class="cls-8" d="m1010.51,360h-71.03s0-61,0-85c0-24,24.73-35.38,35.38-35.38,10.65,0,35.65,9.6,35.65,30.99,0,21.39,0,89.39,0,89.39Z"/>
        <path class="cls-8" d="m1010.51,563h-71.03s0-61,0-85c0-24,24.73-35.38,35.38-35.38,10.65,0,35.65,9.6,35.65,30.99v89.39Z"/>
        <rect class="cls-3" x="208.51" y="198.85" width="849" height="17.31"/>
        <rect class="cls-2" x="413.51" y="223" width="60" height="360"/>
        <path class="cls-6" d="m487.22,576h-85.42c-4.58,0-8.29,3.71-8.29,8.29v5.71h102v-5.71c0-4.58-3.71-8.29-8.29-8.29Z"/>
        <path class="cls-2" d="m499.22,590h-108.42c-4.58,0-8.29,3.71-8.29,8.29v12.71h125v-12.71c0-4.58-3.71-8.29-8.29-8.29Z"/>
        <path class="cls-6" d="m402.8,223h85.42c4.58,0,8.29-3.71,8.29-8.29v-5.71h-102v5.71c0,4.58,3.71,8.29,8.29,8.29Z"/>
        <path class="cls-1" d="m390.8,209h108.42c4.58,0,8.29-3.71,8.29-8.29v-12.71h-125v12.71c0,4.58,3.71,8.29,8.29,8.29Z"/>
        <rect class="cls-2" x="803.51" y="223" width="60" height="360"/>
        <path class="cls-6" d="m877.22,576h-85.42c-4.58,0-8.29,3.71-8.29,8.29v5.71h102v-5.71c0-4.58-3.71-8.29-8.29-8.29Z"/>
        <path class="cls-2" d="m889.22,590h-108.42c-4.58,0-8.29,3.71-8.29,8.29v12.71h125v-12.71c0-4.58-3.71-8.29-8.29-8.29Z"/>
        <path class="cls-6" d="m797.8,223h85.42c4.58,0,8.29-3.71,8.29-8.29v-5.71h-102v5.71c0,4.58,3.71,8.29,8.29,8.29Z"/>
        <path class="cls-1" d="m785.8,209h108.42c4.58,0,8.29-3.71,8.29-8.29v-12.71h-125v12.71c0,4.58,3.71,8.29,8.29,8.29Z"/>
        <rect class="cls-6" x="365.51" y="144.66" width="554" height="43.68"/>
        <path class="cls-8" d="m503.51,313h71.03v-44c0-43-71.03-44-71.03,1.61v42.39Z"/>
        <path class="cls-8" d="m600.51,313h71.03v-44c0-43-71.03-44-71.03,1.61v42.39Z"/>
        <path class="cls-8" d="m697.51,313h71.03v-44c0-43-71.03-44-71.03,1.61v42.39Z"/>
        <rect class="cls-3" x="382.51" y="611" width="515" height="21"/>
        <rect class="cls-6" x="346.51" y="632" width="587" height="21"/>
        <rect class="cls-6" x="489.95" y="310.65" width="292.12" height="15"/>
        <path class="cls-2" d="m633.13,359.5c-97,0-97,103-97,103v148h35.75v-156.02s0-65.48,61.25-65.48,61.25,65.48,61.25,65.48v156.02h35.75v-148s0-103-97-103Z"/>
        <path class="cls-6" d="m535.64,475.5h34.9c3.24,0,5.86-2.63,5.86-5.86v-.54s-46.63,0-46.63,0v.54c0,3.24,2.63,5.86,5.86,5.86Z"/>
        <path class="cls-5" d="m532.58,469.1h40.56c4.58,0,8.29-3.71,8.29-8.29v-1.31h-57.14v1.31c0,4.58,3.71,8.29,8.29,8.29Z"/>
        <path class="cls-6" d="m695.64,475.5h34.9c3.24,0,5.86-2.63,5.86-5.86v-.54s-46.63,0-46.63,0v.54c0,3.24,2.63,5.86,5.86,5.86Z"/>
        <path class="cls-5" d="m692.58,469.1h40.56c4.58,0,8.29-3.71,8.29-8.29v-1.31h-57.14v1.31c0,4.58,3.71,8.29,8.29,8.29Z"/>
        <g>
          <text class="cls-13" transform="translate(571.51 424.88) rotate(-66.63)"><tspan x="0" y="0">J</tspan></text>
          <text class="cls-13" transform="translate(573.97 418.84) rotate(-60.49)"><tspan x="0" y="0">U</tspan></text>
          <text class="cls-13" transform="translate(579.26 409.29) rotate(-51.38)"><tspan x="0" y="0">N</tspan></text>
          <text class="cls-13" transform="translate(586.84 400.15) rotate(-44.17)"><tspan x="0" y="0">l</tspan></text>
          <text class="cls-13" transform="translate(589.55 397.02) rotate(-35.92)"><tspan x="0" y="0">O</tspan></text>
          <text class="cls-13" transform="translate(600.16 389.46) rotate(-24.87)"><tspan x="0" y="0">R</tspan></text>
          <text class="cls-13" transform="translate(609.29 385.37) rotate(-18)"><tspan x="0" y="0"> </tspan></text>
          <text class="cls-13" transform="translate(613.99 383.63) rotate(-11.07)"><tspan x="0" y="0">H</tspan></text>
          <text class="cls-13" transform="translate(625.35 381.59) rotate(-5.21)"><tspan x="0" y="0">l</tspan></text>
          <text class="cls-13" transform="translate(629.5 380.89) rotate(1.22)"><tspan x="0" y="0">G</tspan></text>
          <text class="cls-13" transform="translate(642.49 381.06) rotate(8.81)"><tspan x="0" y="0">H</tspan></text>
          <text class="cls-13" transform="translate(653.75 382.85) rotate(17.45)"><tspan x="0" y="0">S</tspan></text>
          <text class="cls-13" transform="translate(662.18 385.35) rotate(27.1)"><tspan x="0" y="0">C</tspan></text>
          <text class="cls-13" transform="translate(671.78 390.16) rotate(38.81)"><tspan x="0" y="0">H</tspan></text>
          <text class="cls-13" transform="translate(680.62 397.09) rotate(51.32)"><tspan x="0" y="0">O</tspan></text>
          <text class="cls-13" transform="translate(688.77 407.25) rotate(63.07)"><tspan x="0" y="0">O</tspan></text>
          <text class="cls-13" transform="translate(694.57 419.06) rotate(70.9)"><tspan x="0" y="0">L</tspan></text>
          <text class="cls-13" transform="translate(697.07 426.44) rotate(75.19)"><tspan x="0" y="0"> </tspan></text>
        </g>
        <g>
          <path class="cls-8" d="m608.61,174.48l-4.95-.92.35-2.22,1.77,1.06,2.59-.62,2.87-.2.67-1.74.42-1.73-1.67-.87-2.71-.39-3.84-1.52-.11-3.04.41-3.83,5.02-.07,2.75-1.07,1.87,1.08-.61,2.03-3.63-.79-2.64,1.3-.51,1.37-.45,1.28,1.26.92,2.45.62,2.9,1.39,1.53,1.38.62,1.97-1.78,3.05-4.57,1.59Z"/>
          <path class="cls-8" d="m617.58,174.17l.17-8.11.33-7.94,2,.25,3.22,4.71,2.29,5.3,2.27-5.3,3.26-4.66,1.99-.3.37,7.95.25,8.16-2.25-.39-1.28-5.55.24-6.37-3.5,9.8-2.19-.33-3.98-9.51-.83,6.42.8,6.03-3.13-.14Z"/>
          <path class="cls-8" d="m636.59,174.17l.17-8.11.24-7.78,6.87.25,3.22-.11,1.69,2.15.83,2.81-2.24,3.43-3.6,1.48-4.39.4.23,5.57-3.01-.08Zm2.87-7.67l3.8.14,2.79-.64,1.05-2.62-1.57-2.2-2.15-.99-3.72.09-.21,6.23Z"/>
          <path class="cls-8" d="m651.4,174.17l.17-8.11.33-7.96,1.61.28,4.84,5.36,3.97,6.06-.31-5.88.87-5.7,1.75-.12.37,7.95.25,8.15-2.13-.62-5.2-5.03-3.72-6.91.62,6.56-.59,5.95h-2.83Z"/>
          <path class="cls-8" d="m676.03,174.18l.17-6.91.32-7.05-2.72.17-.48-2.1,5.54-.6.26,8.25-.91,8.01-2.19.23Z"/>
        </g>
      </g>
      <path class="cls-9" d="m1077.33,582.84s-54.69-24.63-65.41-40.37c-10.72-15.74-1.46-50.38,22.93-32.83,24.4,17.55,41.74,50.18,58.37,42.4,16.63-7.78-23.59-42.36-50.55-60.55-26.95-18.19-20.53-41.58,5.03-32.98,25.56,8.6,58.73,58.26,80.36,47.93,21.62-10.33,4.27-32.09-21.8-45.17-26.06-13.08-29.4-40.01-10.58-43.97s42.54,13.42,51.54,40.69,17.96,19.74,26.66,13.23-41.61-48.52-27.02-63.33c14.6-14.81,32.35-3.28,34.25,8.62s.09,23.4,6.88,20.21c6.78-3.19-8.71-77.75,28.99-67.72,37.7,10.03-16.85,66.97-9.69,73.12,7.15,6.15,31.23-24.76,37.21-5.32s-54.39,34.7-40.87,56.58c13.52,21.88,41.85-25.9,59.6-12.19,17.75,13.71-21.92,41.78-58.12,51.7-36.2,9.92,6.61,27.76,29.65,11.81,23.04-15.95,37.84,19.85,11.67,30.11-26.17,10.27-80.22-14.74-81.53,5.59-1.31,20.33-8.77,54.33-35.49,52.5-26.72-1.83-69.88-39.86-52.1-50.07Z"/>
      <path class="cls-9" d="m174.52,611.87s58.48-13.31,72.11-26.61c13.62-13.31,11.41-49.09-15.98-36.72-27.39,12.37-50.85,40.92-65.62,30-14.76-10.92,31.52-36.84,61.54-49.34,30.02-12.49,28.36-36.69,1.6-33.32-26.76,3.37-69.11,45.47-88.26,31.07-19.15-14.4,2.18-32.3,30.32-39.95,28.14-7.66,36.75-33.39,19.08-41.01s-44.36,4.72-58.58,29.67c-14.22,24.95-21.51,15.79-28.75,7.69s50.4-39.31,39.03-56.72c-11.37-17.41-31.06-9.62-35.28,1.66-4.22,11.28-4.73,22.92-10.74,18.45-6.02-4.47,23.94-74.49-15-72.13-38.94,2.36,3.24,68.98-4.98,73.59-8.23,4.61-25.71-30.46-35.42-12.58-9.71,17.87,46.44,44.79,28.85,63.56-17.59,18.77-35.89-33.67-56-23.75s13.21,45.29,46.73,62.19c33.52,16.9-11.98,25.9-31.4,5.7-19.42-20.2-41.02,11.96-17.4,27.21,23.62,15.25,81.55,1.44,78.81,21.63-2.75,20.18-2.16,54.99,24.39,58.49,26.55,3.5,76.4-25.23,60.98-38.76Z"/>
    </g>
  </g>
</svg>