<?xml version="1.0" encoding="UTF-8"?>
<svg id="Layer_2" data-name="Layer 2" xmlns="http://www.w3.org/2000/svg" xmlns:xlink="http://www.w3.org/1999/xlink" viewBox="0 0 1170.5 653">
  <defs>
    <style>
      .cls-1 {
        fill: #baa3c1;
      }

      .cls-1, .cls-2, .cls-3, .cls-4, .cls-5, .cls-6, .cls-7, .cls-8, .cls-9 {
        stroke-width: 0px;
      }

      .cls-10, .cls-11 {
        fill: none;
        stroke: #baa3c1;
        stroke-miterlimit: 10;
      }

      .cls-2 {
        fill: #cbb9d0;
      }

      .cls-3 {
        fill: #dfcde5;
      }

      .cls-12 {
        font-family: NeuzeitGro-Bol, 'Neuzeit Grotesk';
        font-size: 17.77px;
      }

      .cls-12, .cls-6 {
        fill: #9c7ca6;
      }

      .cls-13 {
        clip-path: url(#clippath-1);
      }

      .cls-4 {
        fill: #8c8d8f;
      }

      .cls-5 {
        fill: #a9aaab;
      }

      .cls-7 {
        fill: #a8a8a8;
      }

      .cls-11 {
        stroke-width: 2.13px;
      }

      .cls-8 {
        fill: #552c56;
      }

      .cls-9 {
        fill: #91749c;
      }
    </style>
    <clipPath id="clippath-1">
      <rect class="cls-10" x="11.86" y="100.54" width="1145.27" height="112.54"/>
    </clipPath>
  </defs>
  <g id="School">
    <g>
      <rect class="cls-6" y="91.62" width="1168" height="130.39"/>
      <g>
        <g class="cls-13">
          <g>
            <g id="_Grid_Repeat_" data-name="&amp;lt;Grid Repeat&amp;gt;">
              <line class="cls-11" x1="-.71" y1="100.54" x2="-.71" y2="206.85"/>
              <line class="cls-11" x1="14.44" y1="100.54" x2="14.44" y2="206.85"/>
            </g>
            <g id="_Grid_Repeat_-2" data-name="&amp;lt;Grid Repeat&amp;gt;">
              <line class="cls-11" x1="26.56" y1="100.54" x2="26.56" y2="206.85"/>
              <line class="cls-11" x1="41.71" y1="100.54" x2="41.71" y2="206.85"/>
            </g>
            <g id="_Grid_Repeat_-3" data-name="&amp;lt;Grid Repeat&amp;gt;">
              <line class="cls-11" x1="53.84" y1="100.54" x2="53.84" y2="206.85"/>
              <line class="cls-11" x1="68.99" y1="100.54" x2="68.99" y2="206.85"/>
            </g>
            <g id="_Grid_Repeat_-4" data-name="&amp;lt;Grid Repeat&amp;gt;">
              <line class="cls-11" x1="81.11" y1="100.54" x2="81.11" y2="206.85"/>
              <line class="cls-11" x1="96.26" y1="100.54" x2="96.26" y2="206.85"/>
            </g>
            <g id="_Grid_Repeat_-5" data-name="&amp;lt;Grid Repeat&amp;gt;">
              <line class="cls-11" x1="108.39" y1="100.54" x2="108.39" y2="206.85"/>
              <line class="cls-11" x1="123.53" y1="100.54" x2="123.53" y2="206.85"/>
            </g>
            <g id="_Grid_Repeat_-6" data-name="&amp;lt;Grid Repeat&amp;gt;">
              <line class="cls-11" x1="135.66" y1="100.54" x2="135.66" y2="206.85"/>
              <line class="cls-11" x1="150.81" y1="100.54" x2="150.81" y2="206.85"/>
            </g>
            <g id="_Grid_Repeat_-7" data-name="&amp;lt;Grid Repeat&amp;gt;">
              <line class="cls-11" x1="162.93" y1="100.54" x2="162.93" y2="206.85"/>
              <line class="cls-11" x1="178.08" y1="100.54" x2="178.08" y2="206.85"/>
            </g>
            <g id="_Grid_Repeat_-8" data-name="&amp;lt;Grid Repeat&amp;gt;">
              <line class="cls-11" x1="190.21" y1="100.54" x2="190.21" y2="206.85"/>
              <line class="cls-11" x1="205.35" y1="100.54" x2="205.35" y2="206.85"/>
            </g>
            <g id="_Grid_Repeat_-9" data-name="&amp;lt;Grid Repeat&amp;gt;">
              <line class="cls-11" x1="217.48" y1="100.54" x2="217.48" y2="206.85"/>
              <line class="cls-11" x1="232.63" y1="100.54" x2="232.63" y2="206.85"/>
            </g>
            <g id="_Grid_Repeat_-10" data-name="&amp;lt;Grid Repeat&amp;gt;">
              <line class="cls-11" x1="244.75" y1="100.54" x2="244.75" y2="206.85"/>
              <line class="cls-11" x1="259.9" y1="100.54" x2="259.9" y2="206.85"/>
            </g>
            <g id="_Grid_Repeat_-11" data-name="&amp;lt;Grid Repeat&amp;gt;">
              <line class="cls-11" x1="272.03" y1="100.54" x2="272.03" y2="206.85"/>
              <line class="cls-11" x1="287.18" y1="100.54" x2="287.18" y2="206.85"/>
            </g>
            <g id="_Grid_Repeat_-12" data-name="&amp;lt;Grid Repeat&amp;gt;">
              <line class="cls-11" x1="299.3" y1="100.54" x2="299.3" y2="206.85"/>
              <line class="cls-11" x1="314.45" y1="100.54" x2="314.45" y2="206.85"/>
            </g>
            <g id="_Grid_Repeat_-13" data-name="&amp;lt;Grid Repeat&amp;gt;">
              <line class="cls-11" x1="326.58" y1="100.54" x2="326.58" y2="206.85"/>
              <line class="cls-11" x1="341.72" y1="100.54" x2="341.72" y2="206.85"/>
            </g>
            <g id="_Grid_Repeat_-14" data-name="&amp;lt;Grid Repeat&amp;gt;">
              <line class="cls-11" x1="353.85" y1="100.54" x2="353.85" y2="206.85"/>
              <line class="cls-11" x1="369" y1="100.54" x2="369" y2="206.85"/>
            </g>
            <g id="_Grid_Repeat_-15" data-name="&amp;lt;Grid Repeat&amp;gt;">
              <line class="cls-11" x1="381.12" y1="100.54" x2="381.12" y2="206.85"/>
              <line class="cls-11" x1="396.27" y1="100.54" x2="396.27" y2="206.85"/>
            </g>
            <g id="_Grid_Repeat_-16" data-name="&amp;lt;Grid Repeat&amp;gt;">
              <line class="cls-11" x1="408.4" y1="100.54" x2="408.4" y2="206.85"/>
              <line class="cls-11" x1="423.55" y1="100.54" x2="423.55" y2="206.85"/>
            </g>
            <g id="_Grid_Repeat_-17" data-name="&amp;lt;Grid Repeat&amp;gt;">
              <line class="cls-11" x1="435.67" y1="100.54" x2="435.67" y2="206.85"/>
              <line class="cls-11" x1="450.82" y1="100.54" x2="450.82" y2="206.85"/>
            </g>
            <g id="_Grid_Repeat_-18" data-name="&amp;lt;Grid Repeat&amp;gt;">
              <line class="cls-11" x1="462.94" y1="100.54" x2="462.94" y2="206.85"/>
              <line class="cls-11" x1="478.09" y1="100.54" x2="478.09" y2="206.85"/>
            </g>
            <g id="_Grid_Repeat_-19" data-name="&amp;lt;Grid Repeat&amp;gt;">
              <line class="cls-11" x1="490.22" y1="100.54" x2="490.22" y2="206.85"/>
              <line class="cls-11" x1="505.37" y1="100.54" x2="505.37" y2="206.85"/>
            </g>
            <g id="_Grid_Repeat_-20" data-name="&amp;lt;Grid Repeat&amp;gt;">
              <line class="cls-11" x1="517.49" y1="100.54" x2="517.49" y2="206.85"/>
              <line class="cls-11" x1="532.64" y1="100.54" x2="532.64" y2="206.85"/>
            </g>
            <g id="_Grid_Repeat_-21" data-name="&amp;lt;Grid Repeat&amp;gt;">
              <line class="cls-11" x1="544.77" y1="100.54" x2="544.77" y2="206.85"/>
              <line class="cls-11" x1="559.91" y1="100.54" x2="559.91" y2="206.85"/>
            </g>
            <g id="_Grid_Repeat_-22" data-name="&amp;lt;Grid Repeat&amp;gt;">
              <line class="cls-11" x1="572.04" y1="100.54" x2="572.04" y2="206.85"/>
              <line class="cls-11" x1="587.19" y1="100.54" x2="587.19" y2="206.85"/>
            </g>
            <g id="_Grid_Repeat_-23" data-name="&amp;lt;Grid Repeat&amp;gt;">
              <line class="cls-11" x1="599.31" y1="100.54" x2="599.31" y2="206.85"/>
              <line class="cls-11" x1="614.46" y1="100.54" x2="614.46" y2="206.85"/>
            </g>
            <g id="_Grid_Repeat_-24" data-name="&amp;lt;Grid Repeat&amp;gt;">
              <line class="cls-11" x1="626.59" y1="100.54" x2="626.59" y2="206.85"/>
              <line class="cls-11" x1="641.74" y1="100.54" x2="641.74" y2="206.85"/>
            </g>
            <g id="_Grid_Repeat_-25" data-name="&amp;lt;Grid Repeat&amp;gt;">
              <line class="cls-11" x1="653.86" y1="100.54" x2="653.86" y2="206.85"/>
              <line class="cls-11" x1="669.01" y1="100.54" x2="669.01" y2="206.85"/>
            </g>
            <g id="_Grid_Repeat_-26" data-name="&amp;lt;Grid Repeat&amp;gt;">
              <line class="cls-11" x1="681.13" y1="100.54" x2="681.13" y2="206.85"/>
              <line class="cls-11" x1="696.28" y1="100.54" x2="696.28" y2="206.85"/>
            </g>
            <g id="_Grid_Repeat_-27" data-name="&amp;lt;Grid Repeat&amp;gt;">
              <line class="cls-11" x1="708.41" y1="100.54" x2="708.41" y2="206.85"/>
              <line class="cls-11" x1="723.56" y1="100.54" x2="723.56" y2="206.85"/>
            </g>
            <g id="_Grid_Repeat_-28" data-name="&amp;lt;Grid Repeat&amp;gt;">
              <line class="cls-11" x1="735.68" y1="100.54" x2="735.68" y2="206.85"/>
              <line class="cls-11" x1="750.83" y1="100.54" x2="750.83" y2="206.85"/>
            </g>
            <g id="_Grid_Repeat_-29" data-name="&amp;lt;Grid Repeat&amp;gt;">
              <line class="cls-11" x1="762.96" y1="100.54" x2="762.96" y2="206.85"/>
              <line class="cls-11" x1="778.1" y1="100.54" x2="778.1" y2="206.85"/>
            </g>
            <g id="_Grid_Repeat_-30" data-name="&amp;lt;Grid Repeat&amp;gt;">
              <line class="cls-11" x1="790.23" y1="100.54" x2="790.23" y2="206.85"/>
              <line class="cls-11" x1="805.38" y1="100.54" x2="805.38" y2="206.85"/>
            </g>
            <g id="_Grid_Repeat_-31" data-name="&amp;lt;Grid Repeat&amp;gt;">
              <line class="cls-11" x1="817.5" y1="100.54" x2="817.5" y2="206.85"/>
              <line class="cls-11" x1="832.65" y1="100.54" x2="832.65" y2="206.85"/>
            </g>
            <g id="_Grid_Repeat_-32" data-name="&amp;lt;Grid Repeat&amp;gt;">
              <line class="cls-11" x1="844.78" y1="100.54" x2="844.78" y2="206.85"/>
              <line class="cls-11" x1="859.93" y1="100.54" x2="859.93" y2="206.85"/>
            </g>
            <g id="_Grid_Repeat_-33" data-name="&amp;lt;Grid Repeat&amp;gt;">
              <line class="cls-11" x1="872.05" y1="100.54" x2="872.05" y2="206.85"/>
              <line class="cls-11" x1="887.2" y1="100.54" x2="887.2" y2="206.85"/>
            </g>
            <g id="_Grid_Repeat_-34" data-name="&amp;lt;Grid Repeat&amp;gt;">
              <line class="cls-11" x1="899.32" y1="100.54" x2="899.32" y2="206.85"/>
              <line class="cls-11" x1="914.47" y1="100.54" x2="914.47" y2="206.85"/>
            </g>
            <g id="_Grid_Repeat_-35" data-name="&amp;lt;Grid Repeat&amp;gt;">
              <line class="cls-11" x1="926.6" y1="100.54" x2="926.6" y2="206.85"/>
              <line class="cls-11" x1="941.75" y1="100.54" x2="941.75" y2="206.85"/>
            </g>
            <g id="_Grid_Repeat_-36" data-name="&amp;lt;Grid Repeat&amp;gt;">
              <line class="cls-11" x1="953.87" y1="100.54" x2="953.87" y2="206.85"/>
              <line class="cls-11" x1="969.02" y1="100.54" x2="969.02" y2="206.85"/>
            </g>
            <g id="_Grid_Repeat_-37" data-name="&amp;lt;Grid Repeat&amp;gt;">
              <line class="cls-11" x1="981.15" y1="100.54" x2="981.15" y2="206.85"/>
              <line class="cls-11" x1="996.29" y1="100.54" x2="996.29" y2="206.85"/>
            </g>
            <g id="_Grid_Repeat_-38" data-name="&amp;lt;Grid Repeat&amp;gt;">
              <line class="cls-11" x1="1008.42" y1="100.54" x2="1008.42" y2="206.85"/>
              <line class="cls-11" x1="1023.57" y1="100.54" x2="1023.57" y2="206.85"/>
            </g>
            <g id="_Grid_Repeat_-39" data-name="&amp;lt;Grid Repeat&amp;gt;">
              <line class="cls-11" x1="1035.69" y1="100.54" x2="1035.69" y2="206.85"/>
              <line class="cls-11" x1="1050.84" y1="100.54" x2="1050.84" y2="206.85"/>
            </g>
            <g id="_Grid_Repeat_-40" data-name="&amp;lt;Grid Repeat&amp;gt;">
              <line class="cls-11" x1="1062.97" y1="100.54" x2="1062.97" y2="206.85"/>
              <line class="cls-11" x1="1078.12" y1="100.54" x2="1078.12" y2="206.85"/>
            </g>
            <g id="_Grid_Repeat_-41" data-name="&amp;lt;Grid Repeat&amp;gt;">
              <line class="cls-11" x1="1090.24" y1="100.54" x2="1090.24" y2="206.85"/>
              <line class="cls-11" x1="1105.39" y1="100.54" x2="1105.39" y2="206.85"/>
            </g>
            <g id="_Grid_Repeat_-42" data-name="&amp;lt;Grid Repeat&amp;gt;">
              <line class="cls-11" x1="1117.51" y1="100.54" x2="1117.51" y2="206.85"/>
              <line class="cls-11" x1="1132.66" y1="100.54" x2="1132.66" y2="206.85"/>
            </g>
            <g id="_Grid_Repeat_-43" data-name="&amp;lt;Grid Repeat&amp;gt;">
              <line class="cls-11" x1="1144.79" y1="100.54" x2="1144.79" y2="206.85"/>
              <line class="cls-11" x1="1159.94" y1="100.54" x2="1159.94" y2="206.85"/>
            </g>
          </g>
        </g>
        <rect class="cls-10" x="11.86" y="100.54" width="1145.27" height="112.54"/>
      </g>
      <path class="cls-4" d="m16.18,98.53c1.93,0,1.93-3,0-3s-1.93,3,0,3h0Z"/>
      <rect class="cls-1" x="21.5" y="256" width="157" height="365"/>
      <polygon class="cls-9" points="414.5 145 586.4 0 763.5 145 414.5 145"/>
      <polygon class="cls-8" points="416 236.62 587.9 91.62 765 236.62 416 236.62"/>
      <path class="cls-1" d="m393.5,188v423h126.38v-156.37s0-65.63,61.25-65.63,61.25,65.63,61.25,65.63v156.37h140.12V188h-389Z"/>
      <rect class="cls-3" x="2.5" y="223.85" width="205" height="17.31"/>
      <path class="cls-6" d="m15.5,396h192v15H25.02c-5.26,0-9.52-4.26-9.52-9.52v-5.48Z"/>
      <path class="cls-6" d="m15.5,241h192v15H25.02c-5.26,0-9.52-4.26-9.52-9.52v-5.48Z"/>
      <rect class="cls-3" x="2.5" y="388" width="205" height="8"/>
      <path class="cls-8" d="m60.5,377.09h60.5v-72.4c0-20.44-21.06-30.13-30.13-30.13s-30.37,8.17-30.37,26.39v76.14Z"/>
      <path class="cls-8" d="m60.5,564h60.5v-72.4c0-20.44-21.06-30.13-30.13-30.13s-30.37,8.17-30.37,26.39v76.14Z"/>
      <rect class="cls-1" x="178.5" y="215" width="183" height="406"/>
      <path class="cls-6" d="m169.5,378h192v15h-182.48c-5.26,0-9.52-4.26-9.52-9.52v-5.48Z"/>
      <path class="cls-6" d="m169.5,216h192v15h-182.48c-5.26,0-9.52-4.26-9.52-9.52v-5.48Z"/>
      <rect class="cls-3" x="156.5" y="370" width="205" height="8"/>
      <path class="cls-8" d="m214.5,360h71.03v-85c0-24-24.73-35.38-35.38-35.38s-35.65,9.6-35.65,30.99v89.39Z"/>
      <path class="cls-8" d="m214.5,563h71.03v-85c0-24-24.73-35.38-35.38-35.38s-35.65,9.6-35.65,30.99v89.39Z"/>
      <rect class="cls-1" x="994.5" y="256" width="157" height="365"/>
      <rect class="cls-3" x="965.5" y="223.85" width="205" height="17.31"/>
      <path class="cls-6" d="m1157.5,396h-192s0,15,0,15h182.48c5.26,0,9.52-4.26,9.52-9.52v-5.48Z"/>
      <path class="cls-6" d="m1157.5,241h-192s0,15,0,15h182.48c5.26,0,9.52-4.26,9.52-9.52v-5.48Z"/>
      <rect class="cls-3" x="965.5" y="388" width="205" height="8"/>
      <path class="cls-8" d="m1112.5,377.09h-60.5s0-51.96,0-72.4c0-20.44,21.06-30.13,30.13-30.13,9.07,0,30.37,8.17,30.37,26.39s0,76.14,0,76.14Z"/>
      <path class="cls-7" d="m1112.5,564h-60.5s0-51.96,0-72.4c0-20.44,21.06-30.13,30.13-30.13s30.37,8.17,30.37,26.39c0,18.22,0,76.14,0,76.14Z"/>
      <rect class="cls-1" x="811.5" y="215" width="183" height="406"/>
      <path class="cls-6" d="m1003.5,378h-192s0,15,0,15h182.48c5.26,0,9.52-4.26,9.52-9.52v-5.48Z"/>
      <path class="cls-6" d="m1003.5,216h-192s0,15,0,15h182.48c5.26,0,9.52-4.26,9.52-9.52v-5.48Z"/>
      <rect class="cls-3" x="811.5" y="370" width="205" height="8"/>
      <path class="cls-8" d="m958.5,360h-71.03s0-61,0-85c0-24,24.73-35.38,35.38-35.38,10.65,0,35.65,9.6,35.65,30.99,0,21.39,0,89.39,0,89.39Z"/>
      <path class="cls-8" d="m958.5,563h-71.03s0-61,0-85c0-24,24.73-35.38,35.38-35.38,10.65,0,35.65,9.6,35.65,30.99v89.39Z"/>
      <rect class="cls-3" x="156.5" y="198.85" width="849" height="17.31"/>
      <rect class="cls-2" x="361.5" y="223" width="60" height="360"/>
      <path class="cls-6" d="m435.21,576h-85.42c-4.58,0-8.29,3.71-8.29,8.29v5.71h102v-5.71c0-4.58-3.71-8.29-8.29-8.29Z"/>
      <path class="cls-2" d="m447.21,590h-108.42c-4.58,0-8.29,3.71-8.29,8.29v12.71h125v-12.71c0-4.58-3.71-8.29-8.29-8.29Z"/>
      <path class="cls-6" d="m350.79,223h85.42c4.58,0,8.29-3.71,8.29-8.29v-5.71h-102v5.71c0,4.58,3.71,8.29,8.29,8.29Z"/>
      <path class="cls-1" d="m338.79,209h108.42c4.58,0,8.29-3.71,8.29-8.29v-12.71h-125v12.71c0,4.58,3.71,8.29,8.29,8.29Z"/>
      <rect class="cls-2" x="751.5" y="223" width="60" height="360"/>
      <path class="cls-6" d="m825.21,576h-85.42c-4.58,0-8.29,3.71-8.29,8.29v5.71h102v-5.71c0-4.58-3.71-8.29-8.29-8.29Z"/>
      <path class="cls-2" d="m837.21,590h-108.42c-4.58,0-8.29,3.71-8.29,8.29v12.71h125v-12.71c0-4.58-3.71-8.29-8.29-8.29Z"/>
      <path class="cls-6" d="m745.79,223h85.42c4.58,0,8.29-3.71,8.29-8.29v-5.71h-102v5.71c0,4.58,3.71,8.29,8.29,8.29Z"/>
      <path class="cls-1" d="m733.79,209h108.42c4.58,0,8.29-3.71,8.29-8.29v-12.71h-125v12.71c0,4.58,3.71,8.29,8.29,8.29Z"/>
      <rect class="cls-6" x="313.5" y="144.66" width="554" height="43.68"/>
      <path class="cls-8" d="m451.5,313h71.03v-44c0-43-71.03-44-71.03,1.61v42.39Z"/>
      <path class="cls-8" d="m548.5,313h71.03v-44c0-43-71.03-44-71.03,1.61v42.39Z"/>
      <path class="cls-8" d="m645.5,313h71.03v-44c0-43-71.03-44-71.03,1.61v42.39Z"/>
      <rect class="cls-3" x="330.5" y="611" width="515" height="21"/>
      <rect class="cls-6" x="294.5" y="632" width="587" height="21"/>
      <rect class="cls-6" x="437.94" y="310.65" width="292.12" height="15"/>
      <path class="cls-2" d="m581.13,359.5c-97,0-97,103-97,103v148h35.75v-156.02s0-65.48,61.25-65.48,61.25,65.48,61.25,65.48v156.02h35.75v-148s0-103-97-103Z"/>
      <path class="cls-6" d="m483.64,475.5h34.9c3.24,0,5.86-2.63,5.86-5.86v-.54s-46.63,0-46.63,0v.54c0,3.24,2.63,5.86,5.86,5.86Z"/>
      <path class="cls-5" d="m480.58,469.1h40.56c4.58,0,8.29-3.71,8.29-8.29v-1.31h-57.14v1.31c0,4.58,3.71,8.29,8.29,8.29Z"/>
      <path class="cls-6" d="m643.64,475.5h34.9c3.24,0,5.86-2.63,5.86-5.86v-.54s-46.63,0-46.63,0v.54c0,3.24,2.63,5.86,5.86,5.86Z"/>
      <path class="cls-5" d="m640.58,469.1h40.56c4.58,0,8.29-3.71,8.29-8.29v-1.31h-57.14v1.31c0,4.58,3.71,8.29,8.29,8.29Z"/>
      <g>
        <text class="cls-12" transform="translate(519.51 424.88) rotate(-66.63)"><tspan x="0" y="0">J</tspan></text>
        <text class="cls-12" transform="translate(521.96 418.84) rotate(-60.49)"><tspan x="0" y="0">U</tspan></text>
        <text class="cls-12" transform="translate(527.25 409.29) rotate(-51.38)"><tspan x="0" y="0">N</tspan></text>
        <text class="cls-12" transform="translate(534.83 400.15) rotate(-44.17)"><tspan x="0" y="0">l</tspan></text>
        <text class="cls-12" transform="translate(537.54 397.02) rotate(-35.92)"><tspan x="0" y="0">O</tspan></text>
        <text class="cls-12" transform="translate(548.15 389.46) rotate(-24.87)"><tspan x="0" y="0">R</tspan></text>
        <text class="cls-12" transform="translate(557.28 385.37) rotate(-18)"><tspan x="0" y="0"> </tspan></text>
        <text class="cls-12" transform="translate(561.98 383.63) rotate(-11.07)"><tspan x="0" y="0">H</tspan></text>
        <text class="cls-12" transform="translate(573.34 381.59) rotate(-5.21)"><tspan x="0" y="0">l</tspan></text>
        <text class="cls-12" transform="translate(577.49 380.89) rotate(1.22)"><tspan x="0" y="0">G</tspan></text>
        <text class="cls-12" transform="translate(590.48 381.06) rotate(8.81)"><tspan x="0" y="0">H</tspan></text>
        <text class="cls-12" transform="translate(601.75 382.85) rotate(17.45)"><tspan x="0" y="0">S</tspan></text>
        <text class="cls-12" transform="translate(610.17 385.35) rotate(27.1)"><tspan x="0" y="0">C</tspan></text>
        <text class="cls-12" transform="translate(619.77 390.16) rotate(38.81)"><tspan x="0" y="0">H</tspan></text>
        <text class="cls-12" transform="translate(628.61 397.09) rotate(51.32)"><tspan x="0" y="0">O</tspan></text>
        <text class="cls-12" transform="translate(636.76 407.25) rotate(63.07)"><tspan x="0" y="0">O</tspan></text>
        <text class="cls-12" transform="translate(642.56 419.06) rotate(70.9)"><tspan x="0" y="0">L</tspan></text>
        <text class="cls-12" transform="translate(645.06 426.44) rotate(75.19)"><tspan x="0" y="0"> </tspan></text>
      </g>
      <g>
        <path class="cls-8" d="m556.6,174.48l-4.95-.92.35-2.22,1.77,1.06,2.59-.62,2.87-.2.67-1.74.42-1.73-1.67-.87-2.71-.39-3.84-1.52-.11-3.04.41-3.83,5.02-.07,2.75-1.07,1.87,1.08-.61,2.03-3.63-.79-2.64,1.3-.51,1.37-.45,1.28,1.26.92,2.45.62,2.9,1.39,1.53,1.38.62,1.97-1.78,3.05-4.57,1.59Z"/>
        <path class="cls-8" d="m565.57,174.17l.17-8.11.33-7.94,2,.25,3.22,4.71,2.29,5.3,2.27-5.3,3.26-4.66,1.99-.3.37,7.95.25,8.16-2.25-.39-1.28-5.55.24-6.37-3.5,9.8-2.19-.33-3.98-9.51-.83,6.42.8,6.03-3.13-.14Z"/>
        <path class="cls-8" d="m584.58,174.17l.17-8.11.24-7.78,6.87.25,3.22-.11,1.69,2.15.83,2.81-2.24,3.43-3.6,1.48-4.39.4.23,5.57-3.01-.08Zm2.87-7.67l3.8.14,2.79-.64,1.05-2.62-1.57-2.2-2.15-.99-3.72.09-.21,6.23Z"/>
        <path class="cls-8" d="m599.39,174.17l.17-8.11.33-7.96,1.61.28,4.84,5.36,3.97,6.06-.31-5.88.87-5.7,1.75-.12.37,7.95.25,8.15-2.13-.62-5.2-5.03-3.72-6.91.62,6.56-.59,5.95h-2.83Z"/>
        <path class="cls-8" d="m624.02,174.18l.17-6.91.32-7.05-2.72.17-.48-2.1,5.54-.6.26,8.25-.91,8.01-2.19.23Z"/>
      </g>
    </g>
  </g>
</svg>